<?xml version="1.0" standalone="no"?>
<!DOCTYPE svg PUBLIC "-//W3C//DTD SVG 1.1//EN" "http://www.w3.org/Graphics/SVG/1.1/DTD/svg11.dtd" >
<svg xmlns="http://www.w3.org/2000/svg" xmlns:xlink="http://www.w3.org/1999/xlink" version="1.1">
<metadata>
Created by FontForge 20170731 at Wed Nov  1 16:21:46 2017
 By ,,,
Copyright (c) 2016 by THOMAS GILLETT. All rights reserved.
</metadata>
<defs>
<font id="Gordita-LightItalic" horiz-adv-x="680" >
  <font-face 
    font-family="Light"
    font-weight="300"
    font-style="italic"
    font-stretch="normal"
    units-per-em="1000"
    panose-1="0 0 0 0 0 0 0 0 0 0"
    ascent="800"
    descent="-200"
    x-height="534"
    cap-height="783"
    bbox="-214 -267 1392 1106"
    underline-thickness="50"
    underline-position="-200"
    slope="-14.5"
    unicode-range="U+0020-FB04"
  />
<missing-glyph horiz-adv-x="799" 
d="M90 0v783h660v-783h-660zM126 743l582 -707v707h-582z" />
    <glyph glyph-name="ff" unicode="ff" horiz-adv-x="610" 
d="M741 771q-25 9 -52 9q-97 0 -124 -103l-38 -143h145l-10 -36h-144l-131 -498h-39l131 498h-252l-131 -498h-39l130 498h-100l10 36h100l40 152q35 131 162 131q36 0 60 -10l-9 -36q-25 9 -52 9q-97 0 -124 -103l-38 -143h252l40 152q35 131 162 131q36 0 60 -10z" />
    <glyph glyph-name="fi" unicode="fi" horiz-adv-x="573" 
d="M500 498h-273l-131 -498h-39l130 498h-100l10 36h100l40 152q35 131 162 131q36 0 60 -10l-9 -36q-25 9 -52 9q-97 0 -124 -103l-38 -143h313l-140 -534h-40zM574 679q-16 0 -26 9.5t-10 25.5q0 19 12.5 32t31.5 13q16 0 26 -10t10 -26q0 -19 -12.5 -31.5t-31.5 -12.5z
" />
    <glyph glyph-name="fl" unicode="fl" horiz-adv-x="553" 
d="M227 498l-131 -498h-39l130 498h-100l10 36h100l40 152q35 131 162 131q36 0 60 -10l-9 -36q-25 9 -53 9q-96 0 -123 -103l-38 -143h253l74 280h40l-215 -814h-39l130 498h-252z" />
    <glyph glyph-name="ffi" unicode="ffi" horiz-adv-x="845" 
d="M771 498h-252l-131 -498h-39l130 498h-252l-131 -498h-39l130 498h-100l10 36h100l40 152q35 131 162 131q36 0 60 -10l-9 -36q-25 9 -52 9q-97 0 -124 -103l-38 -143h253l40 152q35 131 162 131q36 0 60 -10l-9 -36q-25 9 -52 9q-97 0 -124 -103l-38 -143h292l-140 -534
h-39zM845 679q-15 0 -25 9.5t-10 25.5q0 19 12.5 32t30.5 13q16 0 26.5 -10t10.5 -26q0 -19 -13 -31.5t-32 -12.5z" />
    <glyph glyph-name="ffl" unicode="ffl" horiz-adv-x="845" 
d="M519 498l-131 -498h-39l130 498h-252l-131 -498h-39l130 498h-100l10 36h100l40 152q35 131 162 131q36 0 60 -10l-9 -36q-25 9 -52 9q-97 0 -124 -103l-38 -143h253l40 152q35 131 162 131q36 0 60 -10l-9 -36q-25 9 -52 9q-97 0 -124 -103l-38 -143h253l74 280h40
l-215 -814h-39l131 498h-253z" />
    <glyph glyph-name=".notdef" horiz-adv-x="799" 
d="M90 0v783h660v-783h-660zM126 743l582 -707v707h-582z" />
    <glyph glyph-name=".null" horiz-adv-x="0" 
 />
    <glyph glyph-name="nonmarkingreturn" horiz-adv-x="333" 
 />
    <glyph glyph-name="space" unicode=" " horiz-adv-x="293" 
 />
    <glyph glyph-name="exclam" unicode="!" horiz-adv-x="264" 
d="M250 783h41l-154 -575h-36zM67 -9q-15 0 -25 9.5t-10 25.5q0 19 12.5 32t31.5 13q15 0 25.5 -10t10.5 -26q0 -18 -13 -31t-32 -13z" />
    <glyph glyph-name="quotedbl" unicode="&#x22;" horiz-adv-x="356" 
d="M184 528h-18l36 192q0 1 1.5 9.5t2.5 11t3 10t4 11t5.5 8t8 6.5t10.5 2q22 0 22 -25q0 -11 -12 -45zM333 528h-19l37 192l4.5 25.5t9.5 20.5t21 12q21 0 21 -25q0 -14 -11 -45z" />
    <glyph glyph-name="numbersign" unicode="#" horiz-adv-x="768" 
d="M538 218l-84 -218h-38l82 218h-280l-84 -218h-39l83 218h-132l10 37h136l104 274h-155l10 36h160l83 218h38l-82 -218h280l83 218h38l-82 -218h126l-10 -36h-129l-105 -274h149l-10 -37h-152zM616 529h-280l-104 -274h279z" />
    <glyph glyph-name="dollar" unicode="$" horiz-adv-x="627" 
d="M205 -102l28 107q-79 23 -129 91t-50 155l39 7q-1 -77 40.5 -136.5t109.5 -79.5l90 341l-19 10q-31 16 -53.5 30t-50 36.5t-42 52t-14.5 63.5q0 98 74 155t177 57q17 0 33 -2l28 106h40l-29 -113q89 -23 135 -103q28 -50 28 -96l-39 -7q0 26 -10 57t-42.5 65.5
t-82.5 47.5l-89 -337l15 -7q37 -19 61.5 -34t51.5 -38.5t40.5 -53t13.5 -64.5q0 -100 -74 -156.5t-179 -56.5q-13 0 -35 2l-26 -99h-40zM404 750q-86 0 -147.5 -45.5t-61.5 -127.5q0 -46 34 -80.5t114 -75.5l86 327q-12 2 -25 2zM308 32q86 0 147.5 45.5t61.5 129.5
q0 49 -34 83.5t-116 75.5l-87 -332q18 -2 28 -2z" />
    <glyph glyph-name="percent" unicode="%" horiz-adv-x="955" 
d="M485 633q0 -81 -55 -137.5t-136 -56.5q-67 0 -111.5 43.5t-44.5 113.5q0 80 55 137.5t135 57.5q67 0 112 -44.5t45 -113.5zM875 783l-677 -783h-47l678 783h46zM451 634q0 52 -35.5 87.5t-88.5 35.5q-68 0 -111.5 -49t-43.5 -113q0 -52 35.5 -87t88.5 -35q67 0 111 48
t44 113zM890 188q0 -80 -55.5 -136.5t-135.5 -56.5q-68 0 -112.5 43t-44.5 113q0 80 55 137.5t135 57.5q67 0 112.5 -44.5t45.5 -113.5zM855 189q0 52 -35 87.5t-89 35.5q-68 0 -111 -49t-43 -113q0 -52 35 -86.5t88 -34.5q67 0 111 47.5t44 112.5z" />
    <glyph glyph-name="ampersand" unicode="&#x26;" horiz-adv-x="702" 
d="M570 621q0 -36 -15 -66.5t-43.5 -54t-55 -39.5t-63.5 -33l-59 -28l169 -240q83 77 136 173l32 -17q-56 -102 -146 -186l93 -130h-46l-74 105q-136 -112 -260 -112q-82 0 -139 44t-57 129q0 81 57 136.5t149 96.5l31 15l-19 29q-60 87 -60 157q0 78 56.5 134.5t135.5 56.5
t128.5 -48.5t49.5 -121.5zM239 601q0 -60 60 -151l13 -21l70 32q30 14 52.5 27t47 32.5t37.5 44.5t13 54q0 59 -38.5 98t-102.5 39q-66 0 -109 -45.5t-43 -109.5zM240 30q113 0 237 105l-177 250l-33 -15q-83 -39 -134 -86.5t-51 -116.5q0 -64 46 -100.5t112 -36.5z" />
    <glyph glyph-name="quotesingle" unicode="'" horiz-adv-x="208" 
d="M184 528h-18l36 192l4.5 25.5t9.5 20.5t21 12q22 0 22 -25q0 -11 -12 -45z" />
    <glyph glyph-name="parenleft" unicode="(" horiz-adv-x="424" 
d="M540 864l13 -31q-209 -81 -320.5 -228t-111.5 -318q0 -222 186 -385l-22 -25q-204 167 -204 408q0 183 120 340t339 239z" />
    <glyph glyph-name="parenright" unicode=")" horiz-adv-x="425" 
d="M-55 -125l-13 30q209 81 320 229t111 319q0 222 -185 383l22 26q204 -167 204 -408q0 -184 -120 -340.5t-339 -238.5z" />
    <glyph glyph-name="asterisk" unicode="*" horiz-adv-x="531" 
d="M201 441l-21 27l152 110l-161 103l19 28l154 -109l46 187l34 -9l-58 -185l189 14l1 -33l-191 -6l73 -172l-31 -12l-63 173z" />
    <glyph glyph-name="plus" unicode="+" horiz-adv-x="587" 
d="M343 357l-59 -226h-39l59 226h-226l9 37h227l59 223h39l-59 -223h220l-10 -37h-220z" />
    <glyph glyph-name="comma" unicode="," horiz-adv-x="257" 
d="M69 -4q-17 0 -26.5 10t-9.5 24q0 20 13.5 34.5t33.5 14.5q19 0 31 -12t12 -35q0 -45 -29 -83t-74 -64l-17 21q69 43 81 93q-6 -3 -15 -3z" />
    <glyph glyph-name="hyphen" unicode="-" horiz-adv-x="458" 
d="M93 298l10 38h293l-10 -38h-293z" />
    <glyph glyph-name="period" unicode="." horiz-adv-x="246" 
d="M70 -8q-17 0 -28 11t-11 28q0 20 14 34t34 14q17 0 28 -11t11 -28q0 -20 -14 -34t-34 -14z" />
    <glyph glyph-name="slash" unicode="/" horiz-adv-x="488" 
d="M34 -5h-43l544 819h42z" />
    <glyph glyph-name="zero" unicode="0" horiz-adv-x="762" 
d="M348 -8q-123 0 -189.5 80.5t-66.5 209.5q0 127 49.5 243.5t141.5 191.5t202 75q124 0 191 -81t67 -211q0 -126 -50 -242t-142.5 -191t-202.5 -75zM351 29q96 0 178 69.5t127 177t45 223.5q0 114 -56 184.5t-162 70.5q-96 0 -178 -69.5t-127 -177.5t-45 -224
q0 -113 55.5 -183.5t162.5 -70.5z" />
    <glyph glyph-name="one" unicode="1" horiz-adv-x="413" 
d="M225 0h-41l195 731l-247 -123l-14 33l282 142h34z" />
    <glyph glyph-name="two" unicode="2" horiz-adv-x="619" 
d="M510 38l-10 -38h-497q23 107 86 177t167 119l156 74q185 86 185 212q0 77 -49 124.5t-138 47.5q-93 0 -156 -59t-63 -153l-39 4q0 96 68.5 171t190.5 75q105 0 166 -58t61 -151q0 -149 -210 -247l-156 -74q-105 -50 -152 -106t-64 -118h454z" />
    <glyph glyph-name="three" unicode="3" horiz-adv-x="624" 
d="M548 218q0 -91 -77 -158.5t-198 -67.5q-103 0 -171 62t-66 150l39 8q-4 -79 55.5 -131t145.5 -52q89 0 159.5 52.5t70.5 139.5q0 72 -46.5 115.5t-138.5 43.5h-68l10 38h65q109 0 183 49.5t74 131.5q0 70 -49 112.5t-130 42.5t-141 -38.5t-90 -103.5l-36 15
q32 74 106.5 119t163.5 45q103 0 160 -56.5t57 -133.5q0 -80 -54 -132.5t-151 -71.5q56 -19 91.5 -65.5t35.5 -113.5z" />
    <glyph glyph-name="four" unicode="4" horiz-adv-x="656" 
d="M479 193l-52 -193h-41l51 193h-425l11 43l565 547h48l-147 -552h123l-10 -38h-123zM579 725l-510 -494h378z" />
    <glyph glyph-name="five" unicode="5" horiz-adv-x="622" 
d="M275 -8q-103 0 -171 62t-66 150l39 8q-4 -79 55.5 -131t145.5 -52q106 0 174 70.5t68 178.5q0 77 -48.5 130t-128.5 53q-119 0 -209 -86l-31 18l168 390h384l-11 -38h-349l-136 -315h1q87 69 185 69t157.5 -64.5t59.5 -154.5q0 -127 -82.5 -207.5t-204.5 -80.5z" />
    <glyph glyph-name="six" unicode="6" horiz-adv-x="671" 
d="M668 718q-74 38 -149 38q-163 0 -275 -139q-91 -112 -114 -270h2q29 60 98.5 107t156.5 47q72 0 133 -39q46 -30 73 -78.5t27 -107.5q0 -115 -83.5 -199.5t-205.5 -84.5q-59 0 -107.5 22.5t-79.5 59.5q-58 68 -58 181q0 76 17.5 151.5t54 145.5t87.5 123.5t122 85.5
t153 32q94 0 166 -41zM579 275q0 85 -55.5 137t-138.5 52q-102 0 -179.5 -67.5t-77.5 -164.5q0 -91 58 -147t147 -56q107 0 176.5 73t69.5 173z" />
    <glyph glyph-name="seven" unicode="7" horiz-adv-x="557" 
d="M120 0h-50l536 746h-461l10 37h509l-10 -37z" />
    <glyph glyph-name="eight" unicode="8" horiz-adv-x="681" 
d="M663 602q0 -78 -61.5 -135.5t-152.5 -72.5q67 -19 111 -69t44 -113q0 -92 -81.5 -156.5t-202.5 -64.5q-117 0 -191 56.5t-74 143.5q0 86 68.5 146t179.5 74q-59 21 -95 65t-36 102q0 94 76 154t182 60q101 0 167 -53t66 -137zM621 600q0 68 -54.5 111t-137.5 43
q-92 0 -153.5 -50t-61.5 -127q0 -67 53 -113t130 -46q96 0 160 52.5t64 129.5zM562 211q0 74 -60.5 123t-156.5 49q-109 0 -178.5 -54.5t-69.5 -133.5q0 -76 66 -121.5t158 -45.5q102 0 171.5 51.5t69.5 131.5z" />
    <glyph glyph-name="nine" unicode="9" horiz-adv-x="672" 
d="M74 68q80 -40 152 -40q160 0 274 140q91 115 112 266h-1q-28 -61 -97.5 -107t-157.5 -46q-74 0 -132 38q-46 30 -73 79.5t-27 107.5q0 116 83.5 201.5t205.5 85.5q58 0 108.5 -22.5t80.5 -59.5q56 -68 56 -182q0 -102 -32.5 -203.5t-93.5 -179.5q-122 -154 -307 -154
q-95 0 -170 42zM165 508q0 -85 56 -137.5t139 -52.5q100 0 177.5 68.5t77.5 165.5q0 79 -44 132q-57 71 -162 71q-106 0 -175 -73.5t-69 -173.5z" />
    <glyph glyph-name="colon" unicode=":" horiz-adv-x="253" 
d="M186 455q-17 0 -28.5 11t-11.5 28q0 20 14 34t34 14q17 0 28 -11t11 -28q0 -20 -14 -34t-33 -14zM63 -8q-17 0 -28 11t-11 28q0 20 14 34t34 14q17 0 28 -11t11 -28q0 -20 -14 -34t-34 -14z" />
    <glyph glyph-name="semicolon" unicode=";" horiz-adv-x="288" 
d="M195 455q-17 0 -28 11t-11 28q0 20 14 34t34 14q17 0 28 -11t11 -28q0 -20 -14 -34t-34 -14zM70 -4q-17 0 -26.5 10t-9.5 24q0 20 13.5 34.5t33.5 14.5q19 0 31 -12t12 -35q0 -45 -29 -83t-74 -64l-17 21q69 43 81 93q-6 -3 -15 -3z" />
    <glyph glyph-name="less" unicode="&#x3c;" horiz-adv-x="647" 
d="M666 656l-12 -47l-541 -238l415 -241l-10 -38l-449 263l10 40z" />
    <glyph glyph-name="equal" unicode="=" horiz-adv-x="635" 
d="M143 475l10 38h459l-9 -38h-460zM81 239l10 38h459l-9 -38h-460z" />
    <glyph glyph-name="greater" unicode="&#x3e;" horiz-adv-x="648" 
d="M45 92l12 47l541 238l-414 241l10 38l449 -263l-11 -39z" />
    <glyph glyph-name="question" unicode="?" horiz-adv-x="554" 
d="M238 208q9 48 40 91.5t63 69.5t79 62t70 59q58 58 58 125q0 60 -47.5 99t-116.5 39q-93 0 -153.5 -60.5t-60.5 -136.5l-41 3q4 97 77 165t181 68q85 0 144.5 -50.5t59.5 -124.5q0 -80 -69 -151q-24 -25 -66.5 -58t-73.5 -56.5t-61 -62t-41 -81.5h-42zM208 -9
q-15 0 -25 9.5t-10 25.5q0 19 12.5 32t31.5 13q15 0 25.5 -10t10.5 -26q0 -18 -13 -31t-32 -13z" />
    <glyph glyph-name="at" unicode="@" horiz-adv-x="879" 
d="M652 125q-39 0 -63.5 23t-20.5 59h-2q-26 -38 -71 -60t-91 -22q-63 0 -104 42t-41 105q0 99 67.5 169.5t166.5 70.5q52 0 86.5 -30t43.5 -69h2l29 95h37l-84 -277q-4 -12 -4 -29q0 -21 14 -32.5t37 -11.5q48 0 90.5 44t65.5 107q22 57 22 104q0 121 -93.5 197.5
t-216.5 76.5q-110 0 -205 -58.5t-149.5 -155t-54.5 -206.5q0 -138 91 -226t230 -88q57 0 119 20.5t109 54.5l14 -28q-48 -36 -115 -58.5t-128 -22.5q-152 0 -252.5 97.5t-100.5 248.5q0 182 131 318.5t312 136.5q137 0 239.5 -86t102.5 -219q0 -53 -23 -115
q-26 -72 -76 -123.5t-114 -51.5zM489 478q-80 0 -137 -60t-57 -138q0 -55 32.5 -88t84.5 -33q77 0 136 64.5t59 142.5q0 47 -34.5 79.5t-83.5 32.5z" />
    <glyph glyph-name="A" unicode="A" horiz-adv-x="756" 
d="M641 0l-38 223h-453l-159 -223h-46l557 783h44l136 -783h-41zM177 261h420l-81 478z" />
    <glyph glyph-name="B" unicode="B" horiz-adv-x="732" 
d="M487 783q103 0 167.5 -46.5t64.5 -128.5q0 -87 -63 -141.5t-153 -67.5q159 -37 159 -169q0 -100 -85.5 -165t-238.5 -65h-287l209 783h227zM291 746l-87 -328h202q126 0 198 50.5t72 136.5q0 68 -52 104.5t-142 36.5h-191zM193 380l-91 -342h237q134 0 208 54.5t74 141.5
q0 70 -61.5 108t-160.5 38h-206z" />
    <glyph glyph-name="C" unicode="C" horiz-adv-x="849" 
d="M774 265l38 -15q-50 -118 -150.5 -188t-236.5 -70q-143 0 -237 96.5t-94 245.5q0 120 59 225t163 169t226 64q116 0 208 -73t110 -190l-39 -11q-16 104 -96.5 170t-188.5 66q-164 0 -281.5 -126.5t-117.5 -292.5q0 -133 80.5 -220t212.5 -87q118 0 206.5 64.5
t137.5 172.5z" />
    <glyph glyph-name="D" unicode="D" horiz-adv-x="806" 
d="M51 0l209 783h128q203 0 311 -106q86 -86 86 -223q0 -182 -123 -305q-72 -72 -176 -110.5t-223 -38.5h-212zM742 452q0 122 -75 197q-95 97 -277 97h-98l-189 -708h166q224 0 360 134q113 111 113 280z" />
    <glyph glyph-name="E" unicode="E" horiz-adv-x="653" 
d="M523 0h-472l209 783h468l-10 -37h-427l-87 -328h392l-10 -38h-392l-91 -342h430z" />
    <glyph glyph-name="F" unicode="F" horiz-adv-x="628" 
d="M713 746h-422l-90 -337h389l-10 -38h-389l-99 -371h-41l209 783h464z" />
    <glyph glyph-name="G" unicode="G" horiz-adv-x="865" 
d="M798 327h-365l10 38h403q-21 -171 -142.5 -272t-278.5 -101q-147 0 -239.5 93t-92.5 240q0 191 131 329t310 138q73 0 133 -24t97 -62t58.5 -78.5t28.5 -80.5l-38 -11q-4 21 -13 44.5t-30.5 56t-50.5 57t-77.5 42.5t-108.5 18q-115 0 -208 -63t-142 -160t-49 -205
q0 -132 81 -215t211 -83q189 0 301 146q56 74 71 153z" />
    <glyph glyph-name="H" unicode="H" horiz-adv-x="828" 
d="M599 0l101 380h-506l-102 -380h-41l209 783h42l-98 -365h505l99 365h41l-209 -783h-41z" />
    <glyph glyph-name="I" unicode="I" horiz-adv-x="280" 
d="M51 0l209 783h42l-210 -783h-41z" />
    <glyph glyph-name="J" unicode="J" horiz-adv-x="609" 
d="M235 -8q-94 0 -148.5 55.5t-54.5 141.5q0 40 14 96l9 32l40 2l-11 -48q-11 -48 -11 -75q0 -76 45 -121.5t119 -45.5q82 0 134.5 53t75.5 138l151 563h41l-151 -568q-60 -223 -253 -223z" />
    <glyph glyph-name="K" unicode="K" horiz-adv-x="646" 
d="M204 397h-5l-107 -397h-41l209 783h42l-97 -364h4l499 364h61l-521 -381l335 -402h-54z" />
    <glyph glyph-name="L" unicode="L" horiz-adv-x="567" 
d="M483 0h-432l209 783h42l-199 -745h391z" />
    <glyph glyph-name="M" unicode="M" horiz-adv-x="1037" 
d="M1000 724l-530 -724h-37l-148 724l-194 -724h-40l209 783h52l149 -735l540 735h57l-209 -783h-41z" />
    <glyph glyph-name="N" unicode="N" horiz-adv-x="855" 
d="M622 0l-334 734l-197 -734h-40l209 783h49l332 -730l195 730h41l-210 -783h-45z" />
    <glyph glyph-name="O" unicode="O" horiz-adv-x="886" 
d="M424 -8q-145 0 -238.5 96t-93.5 237q0 119 58.5 226.5t161 174t221.5 66.5q146 0 239.5 -96t93.5 -238q0 -119 -58.5 -226.5t-161.5 -173.5t-222 -66zM425 28q109 0 202 61t145 159.5t52 207.5q0 128 -81.5 213t-210.5 85q-109 0 -202 -61t-145 -159t-52 -208
q0 -127 81.5 -212.5t210.5 -85.5z" />
    <glyph glyph-name="P" unicode="P" horiz-adv-x="668" 
d="M178 322l-86 -322h-41l209 783h188q124 0 191 -53t67 -147q0 -120 -96.5 -190.5t-264.5 -70.5h-167zM665 580q0 68 -41 109q-57 57 -178 57h-155l-104 -386h163q149 0 232 60t83 160z" />
    <glyph glyph-name="Q" unicode="Q" horiz-adv-x="888" 
d="M784 14l-29 -25l-80 89q-113 -86 -251 -86q-145 0 -238.5 96t-93.5 237q0 119 58.5 226.5t161 174t221.5 66.5q146 0 239.5 -96t93.5 -238q0 -101 -43.5 -194.5t-118.5 -160.5zM824 456q0 128 -81.5 213t-210.5 85q-109 0 -202 -61t-145 -159t-52 -208
q0 -127 81.5 -212.5t210.5 -85.5q124 0 226 78l-136 152l30 25l134 -153q67 61 106 147.5t39 178.5z" />
    <glyph glyph-name="R" unicode="R" horiz-adv-x="702" 
d="M594 0h-48l-178 332h-187l-89 -332h-41l209 783h195q123 0 191 -51.5t68 -145.5q0 -98 -66 -162q-81 -80 -236 -89zM672 583q0 78 -56 120.5t-163 42.5h-162l-100 -376h182q167 0 246 79q53 55 53 134z" />
    <glyph glyph-name="S" unicode="S" horiz-adv-x="633" 
d="M308 -9q-108 0 -181.5 75.5t-73.5 183.5l40 6q-1 -96 61 -162t156 -66q87 0 149 46t62 131q0 30 -12 54.5t-38 44.5t-45 31.5t-53 28.5l-57 29q-31 16 -54.5 30t-50.5 37t-42 53t-15 64q0 99 74.5 156.5t179.5 57.5q145 0 209 -113q28 -50 28 -97l-40 -7q0 22 -8.5 49.5
t-28.5 58t-62 51t-99 20.5q-87 0 -149.5 -45.5t-62.5 -128.5q0 -28 12.5 -51.5t37 -43t43.5 -31t50 -27.5l56 -28q79 -39 124 -82t45 -109q0 -102 -75 -159t-180 -57z" />
    <glyph glyph-name="T" unicode="T" horiz-adv-x="608" 
d="M455 746l-200 -746h-41l199 746h-264l11 37h564l-11 -37h-258z" />
    <glyph glyph-name="U" unicode="U" horiz-adv-x="783" 
d="M773 783h42l-130 -486q-39 -145 -113 -218q-88 -88 -212 -88q-114 0 -181.5 58t-67.5 164q0 54 17 117l120 453h42l-124 -467q-14 -48 -14 -99q0 -89 56 -138.5t154 -49.5q106 0 180 75q68 68 104 200z" />
    <glyph glyph-name="V" unicode="V" horiz-adv-x="756" 
d="M330 0h-45l-119 783h42l108 -738l499 738h46z" />
    <glyph glyph-name="W" unicode="W" horiz-adv-x="1110" 
d="M1213 783l-460 -783h-45l-35 720l-412 -720h-45l-51 783h41l45 -733l416 733h39l37 -733l425 733h45z" />
    <glyph glyph-name="X" unicode="X" horiz-adv-x="688" 
d="M569 0l-192 370l-375 -370h-52l409 404l-199 379h43l185 -354l360 354h52l-394 -387l208 -396h-45z" />
    <glyph glyph-name="Y" unicode="Y" horiz-adv-x="718" 
d="M390 331l-88 -331h-42l92 340l-185 443h44l169 -409l387 409h54z" />
    <glyph glyph-name="Z" unicode="Z" horiz-adv-x="607" 
d="M516 38l-11 -38h-545l10 37l678 709h-473l10 37h527l-11 -37l-677 -708h492z" />
    <glyph glyph-name="bracketleft" unicode="[" horiz-adv-x="407" 
d="M15 -112l255 966h259l-8 -35h-222l-236 -896h221l-9 -35h-260z" />
    <glyph glyph-name="backslash" unicode="\" horiz-adv-x="471" 
d="M190 814h38l130 -819h-37z" />
    <glyph glyph-name="bracketright" unicode="]" horiz-adv-x="407" 
d="M-62 -112l10 35h221l236 896h-221l9 35h260l-254 -966h-261z" />
    <glyph glyph-name="asciicircum" unicode="^" horiz-adv-x="552" 
d="M510 451l-95 294l-251 -294h-48l285 332h40l109 -332h-40z" />
    <glyph glyph-name="underscore" unicode="_" horiz-adv-x="523" 
d="M422 -118h-522l9 35h523z" />
    <glyph glyph-name="grave" unicode="`" horiz-adv-x="94" 
d="M103 797h40l67 -172h-32z" />
    <glyph glyph-name="a" unicode="a" horiz-adv-x="682" 
d="M477 0l33 126q-34 -53 -98.5 -93.5t-141.5 -40.5q-94 0 -154.5 63t-60.5 159q0 131 86 230t210 99q93 0 150 -50.5t72 -121.5h1l44 163h39l-142 -534h-38zM355 507q-112 0 -185.5 -88t-73.5 -199q0 -84 50.5 -138t129.5 -54q111 0 194.5 90t83.5 189q0 86 -55 143
t-144 57z" />
    <glyph glyph-name="b" unicode="b" horiz-adv-x="681" 
d="M631 320q0 -131 -86 -229.5t-210 -98.5q-93 0 -150 50.5t-72 122.5h-1l-44 -165h-39l215 814h39l-107 -406q34 53 98.5 94t141.5 41q94 0 154.5 -63.5t60.5 -159.5zM332 28q111 0 184.5 88t73.5 198q0 84 -50.5 138.5t-129.5 54.5q-111 0 -194.5 -89.5t-83.5 -188.5
q0 -87 55.5 -144t144.5 -57z" />
    <glyph glyph-name="c" unicode="c" horiz-adv-x="618" 
d="M293 -9q-104 0 -170.5 66t-66.5 172q0 123 90 218.5t213 95.5q90 0 150.5 -49.5t74.5 -129.5l-37 -12q-10 68 -61.5 111.5t-130.5 43.5q-103 0 -180 -85t-77 -192q0 -90 55 -146t144 -56q73 0 133 40.5t91 107.5l34 -15q-35 -80 -104.5 -125t-157.5 -45z" />
    <glyph glyph-name="d" unicode="d" horiz-adv-x="682" 
d="M351 543q94 0 151 -51t72 -122l117 444h39q-175 -666 -215 -814h-38l34 126h-1q-34 -53 -98.5 -93.5t-141.5 -40.5q-94 0 -154.5 63t-60.5 159q0 131 86 230t210 99zM355 507q-112 0 -185.5 -88t-73.5 -199q0 -84 50.5 -138t129.5 -54q111 0 194.5 90t83.5 189
q0 86 -55 143t-144 57z" />
    <glyph glyph-name="e" unicode="e" horiz-adv-x="611" 
d="M559 260q4 23 4 57q0 105 -55.5 165.5t-160.5 60.5q-117 0 -203.5 -95.5t-86.5 -215.5q0 -104 65.5 -172.5t168.5 -68.5q165 0 250 153l-33 18q-72 -134 -214 -134q-88 0 -142.5 58t-54.5 147q0 9 2 27h460zM103 296q14 82 88 146.5t153 64.5q88 0 133.5 -51t45.5 -139
q0 -14 -1 -21h-419z" />
    <glyph glyph-name="f" unicode="f" horiz-adv-x="319" 
d="M450 771q-25 9 -52 9q-97 0 -124 -103l-38 -143h145l-10 -36h-144l-131 -498h-39l130 498h-100l10 36h100l40 152q35 131 162 131q36 0 60 -10z" />
    <glyph glyph-name="g" unicode="g" horiz-adv-x="682" 
d="M657 534l-144 -552q-31 -118 -109 -183.5t-196 -65.5q-61 0 -108.5 20.5t-74.5 53t-41 69t-15 73.5l38 8q0 -27 9 -55.5t29.5 -60t63 -51.5t100.5 -20q101 0 169.5 56t97.5 165l38 146h-1q-31 -50 -98 -89t-141 -39q-91 0 -153 63.5t-62 156.5q0 131 86 222.5t212 91.5
q87 0 147 -50t73 -116l42 157h38zM558 316q0 80 -56 135t-145 55q-112 0 -184.5 -81.5t-72.5 -192.5q0 -80 52 -133t129 -53q112 0 194.5 86t82.5 184z" />
    <glyph glyph-name="h" unicode="h" horiz-adv-x="630" 
d="M392 543q82 0 127 -46t45 -121q0 -35 -13 -83l-76 -293h-39l78 297q9 35 9 77q0 62 -35 97.5t-106 35.5q-73 0 -141.5 -57t-93.5 -149l-79 -301h-39l215 814h39l-107 -404q83 133 216 133z" />
    <glyph glyph-name="i" unicode="i" horiz-adv-x="234" 
d="M234 679q-15 0 -25 9.5t-10 25.5q0 19 12.5 32t30.5 13q16 0 26.5 -10t10.5 -26q0 -19 -13 -31.5t-32 -12.5zM69 0h-39l140 534h39z" />
    <glyph glyph-name="j" unicode="j" horiz-adv-x="241" 
d="M243 679q-16 0 -26 9.5t-10 25.5q0 19 12.5 32t30.5 13q16 0 26.5 -10t10.5 -26q0 -19 -13 -31.5t-31 -12.5zM41 -137q-16 -63 -52.5 -96.5t-106.5 -33.5q-24 0 -44 8l9 35q17 -6 37 -6q94 0 119 98l175 666h39z" />
    <glyph glyph-name="k" unicode="k" horiz-adv-x="505" 
d="M148 302h2l346 232h66l-374 -246l248 -288h-51l-240 282h-2l-75 -282h-39l215 814h39z" />
    <glyph glyph-name="l" unicode="l" horiz-adv-x="234" 
d="M29 0l215 814h40l-215 -814h-40z" />
    <glyph glyph-name="m" unicode="m" horiz-adv-x="971" 
d="M402 0l78 293q14 56 14 84q0 61 -35 95.5t-93 34.5q-72 0 -134 -62t-84 -145l-79 -300h-39l140 534h39l-32 -124q83 133 198 133q70 0 111 -41.5t44 -108.5q34 64 89 107t129 43q70 0 114 -45.5t44 -117.5q0 -31 -14 -87l-78 -293h-39l79 297q11 44 11 80
q0 67 -36.5 98.5t-89.5 31.5q-73 0 -134.5 -62t-83.5 -146l-80 -299h-39z" />
    <glyph glyph-name="n" unicode="n" horiz-adv-x="631" 
d="M392 543q83 0 128 -46t45 -121q0 -35 -13 -83l-77 -293h-39l79 297q9 35 9 77q0 62 -35.5 97.5t-105.5 35.5q-73 0 -141.5 -57t-93.5 -149l-79 -301h-39l140 534h39l-33 -124q83 133 216 133z" />
    <glyph glyph-name="o" unicode="o" horiz-adv-x="655" 
d="M293 -9q-105 0 -171.5 66.5t-66.5 168.5q0 79 40 151.5t112.5 119t158.5 46.5q105 0 172 -66t67 -168q0 -124 -91.5 -221t-220.5 -97zM298 28q109 0 187.5 84.5t78.5 193.5q0 89 -55.5 145t-145.5 56q-110 0 -188.5 -85t-78.5 -193q0 -89 56 -145t146 -56z" />
    <glyph glyph-name="p" unicode="p" horiz-adv-x="681" 
d="M632 320q0 -131 -86 -229.5t-211 -98.5q-93 0 -150 51t-72 122h-1l-112 -428h-40l210 797h39l-33 -126h1q33 53 98 94t142 41q94 0 154.5 -63.5t60.5 -159.5zM332 28q74 0 135 42.5t92.5 107.5t31.5 136q0 84 -50.5 138.5t-129.5 54.5q-111 0 -194.5 -89.5t-83.5 -188.5
q0 -87 55 -144t144 -57z" />
    <glyph glyph-name="q" unicode="q" horiz-adv-x="681" 
d="M55 214q0 131 86 230t210 99q93 0 150 -50.5t72 -121.5h1l44 163h39l-210 -797h-39l102 389q-34 -53 -98.5 -93.5t-141.5 -40.5q-94 0 -154.5 63t-60.5 159zM355 507q-112 0 -185.5 -88t-73.5 -199q0 -84 50.5 -138t129.5 -54q111 0 194.5 90t83.5 189q0 86 -55 143
t-144 57z" />
    <glyph glyph-name="r" unicode="r" horiz-adv-x="353" 
d="M416 541l-10 -41h-3q-94 0 -165.5 -67t-94.5 -155l-74 -278h-39l140 534h39l-36 -137l1 1q35 62 104 103.5t138 39.5z" />
    <glyph glyph-name="s" unicode="s" horiz-adv-x="490" 
d="M282 543q45 0 80.5 -14.5t56 -37t32 -46.5t13.5 -47l-37 -9q-3 18 -11 36t-24 37.5t-45 31.5t-67 12q-57 0 -99.5 -29t-42.5 -83q0 -32 22.5 -52.5t61.5 -37.5l73 -31q112 -46 112 -127q0 -73 -55.5 -114t-130.5 -41q-97 0 -146.5 54t-49.5 119l39 9q-1 -56 38 -100.5
t120 -44.5q59 0 102.5 29.5t43.5 85.5q0 59 -95 99l-68 29q-107 46 -107 120q0 71 55 111.5t129 40.5z" />
    <glyph glyph-name="t" unicode="t" horiz-adv-x="339" 
d="M225 498l-93 -354q-7 -24 -7 -51q0 -61 78 -61q18 0 43 5l-10 -37q-23 -5 -41 -5q-111 0 -111 94q0 21 10 61l92 348h-102l9 36h102l40 152h40l-41 -152h138l-10 -36h-137z" />
    <glyph glyph-name="u" unicode="u" horiz-adv-x="633" 
d="M427 0l33 124q-36 -57 -90.5 -95.5t-124.5 -38.5q-83 0 -128 46.5t-45 121.5q0 39 12 83l78 293h39l-79 -297q-10 -40 -10 -76q0 -62 35.5 -98t106.5 -36q74 0 141.5 56.5t92.5 149.5l79 301h40l-141 -534h-39z" />
    <glyph glyph-name="v" unicode="v" horiz-adv-x="561" 
d="M233 0h-40l-94 534h40l83 -490l340 490h44z" />
    <glyph glyph-name="w" unicode="w" horiz-adv-x="856" 
d="M899 534l-327 -534h-41l-45 479l-297 -479h-40l-49 534h39l42 -485l298 485h40l43 -485l294 485h43z" />
    <glyph glyph-name="x" unicode="x" horiz-adv-x="522" 
d="M434 0h-42l-131 248l-256 -248h-51l291 277l-139 257h43l122 -234l242 234h50l-275 -262z" />
    <glyph glyph-name="y" unicode="y" horiz-adv-x="577" 
d="M71 -263h-48l186 264l-114 533h42l102 -493l339 493h47z" />
    <glyph glyph-name="z" unicode="z" horiz-adv-x="491" 
d="M386 0h-419l9 34l488 465h-357l10 35h407l-8 -34l-487 -465h366z" />
    <glyph glyph-name="braceleft" unicode="{" horiz-adv-x="401" 
d="M130 79q-13 -31 -19 -50.5t-7.5 -39t6.5 -30.5t25.5 -20t46.5 -12.5t72 -3.5h20l-9 -35h-24q-60 0 -98 10.5t-55.5 27t-20 44.5t4.5 55t23 65l43 106q24 57 15.5 92t-34 50.5t-65.5 15.5h-13l10 34h8q63 0 112.5 39t58.5 119l13 114q5 48 16 79t36.5 59.5t73 42
t119.5 13.5h31l-9 -35h-17q-64 0 -104 -9t-62 -31.5t-31.5 -49.5t-14.5 -73l-13 -108q-17 -155 -156 -176v-1q39 -8 59 -31t20.5 -53t-4.5 -55t-15 -49z" />
    <glyph glyph-name="bar" unicode="|" horiz-adv-x="262" 
d="M279 891h38l-265 -1007h-38z" />
    <glyph glyph-name="braceright" unicode="}" horiz-adv-x="401" 
d="M328 664q19 46 24.5 71.5t-5 46.5t-45 29t-98.5 8h-20l9 35h24q60 0 98 -10.5t55.5 -27t20 -44t-4.5 -54.5t-23 -66l-43 -106q-24 -57 -15.5 -92t34 -50.5t65.5 -15.5h12l-9 -34h-8q-63 0 -112.5 -39t-58.5 -119l-14 -114q-5 -48 -16 -79.5t-36.5 -59.5t-73 -41.5
t-119.5 -13.5h-31l10 35h17q64 0 104 9t62 31.5t31.5 49.5t14.5 73l12 108q19 155 157 176v2q-39 8 -59.5 30.5t-21 52.5t4.5 54.5t15 49.5z" />
    <glyph glyph-name="asciitilde" unicode="~" horiz-adv-x="625" 
d="M214 386q53 0 128 -53q23 -16 35 -23.5t31 -15.5t36 -8q44 0 86 42l24 -24q-44 -56 -112 -56q-43 0 -112 47q-3 2 -14.5 9.5t-15 10t-13.5 9t-15 8.5t-14 6.5t-15.5 6t-14.5 3t-16 1.5q-42 0 -87 -43l-23 24q44 56 112 56z" />
    <glyph glyph-name="exclamdown" unicode="&#xa1;" horiz-adv-x="236" 
d="M187 543q16 0 26 -9.5t10 -25.5q0 -19 -12.5 -32t-31.5 -13q-15 0 -25.5 10.5t-10.5 26.5q0 18 13 30.5t31 12.5zM118 327h36l-149 -576h-41z" />
    <glyph glyph-name="cent" unicode="&#xa2;" horiz-adv-x="631" 
d="M246 -102h-39l26 101q-78 19 -124.5 80.5t-46.5 149.5q0 123 90 218.5t213 95.5h11l25 94h39l-25 -98q70 -13 117 -60t58 -115l-37 -12q-8 58 -47.5 99t-101.5 52l-124 -474q8 -1 23 -1q73 0 133 40.5t90 107.5l35 -15q-35 -80 -104.5 -125t-157.5 -45q-19 0 -28 1z
M104 230q0 -74 37.5 -126t102.5 -69l124 472h-7q-103 0 -180 -85t-77 -192z" />
    <glyph glyph-name="sterling" unicode="&#xa3;" horiz-adv-x="625" 
d="M521 186l40 -7q-14 -79 -71.5 -129t-136.5 -50h-355l11 39q112 73 159.5 143.5t47.5 149.5q0 11 -2 31h-119l10 38h105q-2 12 -6.5 44t-7 54.5t-2.5 43.5q0 109 62 178t170 69q64 0 112.5 -28.5t66.5 -79.5q13 -33 13 -69v-9l-39 -5v10q0 68 -42.5 106t-112.5 38
q-90 0 -139.5 -59t-49.5 -151q0 -21 2.5 -44.5t7.5 -53.5t7 -44h220l-10 -38h-206q1 -9 1 -29q0 -95 -58 -170.5t-136 -125.5h286q66 0 113 41.5t59 106.5z" />
    <glyph glyph-name="currency" unicode="&#xa4;" horiz-adv-x="750" 
d="M106 21l96 96q-60 66 -60 153t60 153l-96 96l27 27l96 -96q67 51 151 51q85 0 150 -51l96 96l27 -27l-94 -95q62 -67 62 -154t-62 -154l94 -95l-27 -27l-96 97q-66 -50 -150 -50t-150 50l-97 -97zM579 270q0 84 -58 139.5t-141 55.5t-140 -55.5t-57 -139.5t57 -138.5
t140 -54.5t141 54.5t58 138.5z" />
    <glyph glyph-name="yen" unicode="&#xa5;" horiz-adv-x="716" 
d="M629 364l-10 -36h-227l-38 -141h228l-10 -37h-228l-40 -150h-41l40 150h-229l9 37h230l38 141h-230l10 36h214l-166 419h44l159 -409l378 409h54l-391 -419h206z" />
    <glyph glyph-name="brokenbar" unicode="&#xa6;" horiz-adv-x="258" 
d="M316 891l-103 -390h-38l103 390h38zM115 274h38l-102 -390h-38z" />
    <glyph glyph-name="section" unicode="&#xa7;" horiz-adv-x="637" 
d="M492 128q0 -59 -53 -97.5t-134 -38.5q-94 0 -160 46t-81 115l40 10q11 -57 64.5 -96t138.5 -39q64 0 105 28.5t41 70.5q0 45 -57 79q-26 16 -124 53q-42 15 -67.5 26.5t-54.5 30t-43 42t-14 52.5q0 60 59 97.5t159 34.5q-90 46 -90 112q0 59 53 97.5t134 38.5t143 -40.5
t79 -101.5l-40 -9q-13 48 -63.5 81.5t-119.5 33.5q-64 0 -104.5 -28.5t-40.5 -70.5q0 -46 56 -79q23 -14 123 -53q42 -15 67.5 -26t55 -29.5t43.5 -42t14 -52.5q0 -61 -58.5 -98.5t-158.5 -33.5v-2q88 -44 88 -111zM582 369q0 35 -33.5 63t-121.5 58q-67 23 -126 23
q-78 0 -124 -29.5t-46 -70.5q0 -35 34.5 -63t121.5 -58q66 -22 127 -22q77 0 122.5 29t45.5 70z" />
    <glyph glyph-name="dieresis" unicode="&#xa8;" horiz-adv-x="209" 
d="M137 668q-16 0 -25.5 10t-9.5 26q0 19 12 32t31 13q16 0 25.5 -10t9.5 -26q0 -19 -12 -32t-31 -13zM294 668q-16 0 -25.5 10t-9.5 26q0 19 12.5 32t30.5 13q16 0 26 -10t10 -26q0 -19 -12.5 -32t-31.5 -13z" />
    <glyph glyph-name="copyright" unicode="&#xa9;" horiz-adv-x="932" 
d="M501 -7q-162 0 -277 117t-115 282q0 166 115 282.5t277 116.5q163 0 279 -117t116 -282t-116 -282t-279 -117zM501 758q-148 0 -252.5 -107t-104.5 -259q0 -151 104.5 -257.5t252.5 -106.5q149 0 253.5 106t104.5 258t-104.5 259t-253.5 107zM728 302q-22 -65 -78.5 -110
t-140.5 -45q-100 0 -169 71t-69 173t69.5 174t169.5 72q77 0 138 -44.5t79 -107.5l-35 -11q-10 42 -58 85t-125 43q-84 0 -141.5 -62t-57.5 -146t57.5 -147.5t142.5 -63.5q77 0 122 42.5t61 88.5z" />
    <glyph glyph-name="ordfeminine" unicode="&#xaa;" horiz-adv-x="573" 
d="M516 474q-14 -54 -14 -88h-35q0 35 13 85h-2q-62 -91 -157 -91q-67 0 -110 44.5t-43 112.5q0 90 60.5 159t148.5 69q64 0 99.5 -33.5t47.5 -83.5h2l29 110h36zM379 731q-74 0 -123 -58.5t-49 -131.5q0 -55 33 -90.5t85 -35.5q74 0 130 59.5t56 124.5q0 57 -36.5 94.5
t-95.5 37.5zM104 228l8 34h370l-9 -34h-369z" />
    <glyph glyph-name="guillemotleft" unicode="&#xab;" horiz-adv-x="553" 
d="M295 479l22 -28l-200 -156l113 -147l-28 -22l-136 175zM504 479l23 -28l-201 -156l114 -147l-28 -22l-137 175z" />
    <glyph glyph-name="logicalnot" unicode="&#xac;" horiz-adv-x="646" 
d="M117 482l8 30h497l-64 -243h-32l56 213h-465z" />
    <glyph glyph-name="registered" unicode="&#xae;" horiz-adv-x="637" 
d="M389 275q-105 0 -179.5 75.5t-74.5 182.5t74.5 182.5t179.5 75.5q106 0 180.5 -75.5t74.5 -182.5t-74.5 -182.5t-180.5 -75.5zM389 763q-92 0 -157 -67.5t-65 -162.5t65 -162.5t157 -67.5q93 0 158 67.5t65 162.5t-65 162.5t-158 67.5zM391 504h-61v-119h-31v296h102
q51 0 77.5 -24.5t26.5 -61.5q0 -36 -23 -58t-58 -27l86 -125h-37zM474 593q0 25 -17.5 42t-57.5 17h-69v-119h68q38 0 57 17.5t19 42.5z" />
    <glyph glyph-name="macron" unicode="&#xaf;" horiz-adv-x="342" 
d="M433 641h-333l9 37h333z" />
    <glyph glyph-name="degree" unicode="&#xb0;" horiz-adv-x="466" 
d="M499 634q0 -81 -55 -137t-135 -56q-68 0 -112 43t-44 113q0 80 55 137t134 57q67 0 112 -44.5t45 -112.5zM464 634q0 52 -35 87t-88 35q-67 0 -110.5 -48t-43.5 -112q0 -52 35 -86.5t88 -34.5q66 0 110 47.5t44 111.5z" />
    <glyph glyph-name="plusminus" unicode="&#xb1;" horiz-adv-x="638" 
d="M274 150l58 217h-222l10 36h221l56 214h39l-56 -214h215l-9 -36h-215l-58 -217h-39zM14 0l9 36h476l-10 -36h-475z" />
    <glyph glyph-name="uni00B2" unicode="&#xb2;" horiz-adv-x="461" 
d="M122 425q23 109 156 174l94 46q98 48 98 117q0 41 -26.5 68t-76.5 27q-61 0 -91 -39.5t-30 -83.5l-38 4q0 54 42.5 103.5t118.5 49.5q65 0 102 -38.5t37 -90.5q0 -87 -118 -146l-95 -46q-90 -45 -119 -110h266l-8 -35h-312z" />
    <glyph glyph-name="uni00B3" unicode="&#xb3;" horiz-adv-x="432" 
d="M369 655q38 -10 56.5 -37t18.5 -60q0 -59 -47.5 -99.5t-123.5 -40.5q-67 0 -104.5 40.5t-37.5 97.5l35 6q0 -46 27.5 -78.5t80.5 -32.5q51 0 92 28t41 79q0 42 -29.5 62.5t-79.5 20.5h-38l9 33h42q63 0 101 26.5t38 71.5q0 38 -28.5 61.5t-72.5 23.5q-97 0 -130 -92
l-33 11q18 48 60.5 81.5t108.5 33.5q59 0 96 -35t37 -82q0 -44 -31 -77.5t-88 -41.5z" />
    <glyph glyph-name="acute" unicode="&#xb4;" horiz-adv-x="186" 
d="M260 797h49l-167 -172h-39z" />
    <glyph glyph-name="uni00B5" unicode="&#xb5;" horiz-adv-x="666" 
d="M142 237q-11 -44 -11 -76q0 -62 36 -98t107 -36q74 0 141.5 56.5t92.5 149.5l79 301h40l-107 -409q-21 -73 -21 -125h-39q0 36 20 124q-36 -57 -90.5 -95.5t-124.5 -38.5q-129 0 -158 113h-1l-70 -267h-38l184 698h39z" />
    <glyph glyph-name="paragraph" unicode="&#xb6;" horiz-adv-x="484" 
d="M347 375q-103 1 -160 48t-57 128q0 108 82 170t223 62h62l-207 -783h-42z" />
    <glyph glyph-name="periodcentered" unicode="&#xb7;" horiz-adv-x="252" 
d="M136 272q-17 0 -28 11t-11 28q0 20 14 34t34 14q17 0 28 -11t11 -28q0 -20 -14 -34t-34 -14z" />
    <glyph glyph-name="cedilla" unicode="&#xb8;" horiz-adv-x="248" 
d="M99 0q21 -18 35 -45t14 -54q0 -64 -44.5 -103t-110.5 -39q-59 0 -93 19l9 31q40 -15 80 -15q51 0 85.5 30.5t34.5 79.5q0 56 -49 96h39z" />
    <glyph glyph-name="uni00B9" unicode="&#xb9;" horiz-adv-x="315" 
d="M234 425l109 416l-165 -73l-11 28l187 85h38l-121 -456h-37z" />
    <glyph glyph-name="ordmasculine" unicode="&#xba;" horiz-adv-x="567" 
d="M562 602q0 -87 -63.5 -154.5t-153.5 -67.5q-73 0 -120 46t-47 117q0 86 63.5 154t153.5 68q73 0 120 -46t47 -117zM523 598q0 59 -35.5 96t-95.5 37q-73 0 -124.5 -56t-51.5 -127q0 -59 36.5 -96.5t96.5 -37.5q72 0 123 56t51 128zM93 228l9 34h374l-10 -34h-373z" />
    <glyph glyph-name="guillemotright" unicode="&#xbb;" horiz-adv-x="552" 
d="M73 126l-23 29l201 155l-114 147l29 22l135 -175zM282 126l-22 29l200 155l-113 147l28 22l136 -175z" />
    <glyph glyph-name="onequarter" unicode="&#xbc;" horiz-adv-x="827" 
d="M72 0l678 783h46l-677 -783h-47zM222 328l109 415l-164 -74l-13 29l188 85h37l-119 -455h-38zM637 0h-36l26 101h-252l10 37l333 319h39l-85 -323h78l-9 -33h-77zM426 134h210l71 269z" />
    <glyph glyph-name="onehalf" unicode="&#xbd;" horiz-adv-x="889" 
d="M72 0l678 783h46l-677 -783h-47zM222 328l109 415l-164 -74l-13 29l188 85h37l-119 -455h-38zM462 0q22 109 156 174l93 46q100 48 100 116q0 41 -27 68.5t-77 27.5q-61 0 -91 -39.5t-30 -83.5l-37 3q0 55 42 104t117 49q66 0 103.5 -38t37.5 -90q0 -87 -120 -146
l-94 -46q-90 -45 -118 -110h266l-10 -35h-311z" />
    <glyph glyph-name="threequarters" unicode="&#xbe;" horiz-adv-x="925" 
d="M333 557q38 -10 56.5 -37.5t18.5 -60.5q0 -59 -48 -99.5t-124 -40.5q-67 0 -104.5 40.5t-37.5 97.5l35 7q0 -46 27.5 -79t80.5 -33q51 0 92 28.5t41 78.5q0 84 -109 84h-38l9 33h42q63 0 101 26t38 72q0 38 -28.5 61.5t-72.5 23.5q-97 0 -130 -92l-33 11q18 47 60.5 80.5
t108.5 33.5q59 0 96 -34.5t37 -81.5q0 -44 -31 -78t-87 -41zM173 0l679 783h45l-677 -783h-47zM738 0h-36l27 101h-252l9 37l333 319h39l-85 -323h78l-9 -33h-77zM527 134h210l71 269z" />
    <glyph glyph-name="questiondown" unicode="&#xbf;" horiz-adv-x="539" 
d="M374 503q0 -17 -11 -28t-28 -11q-16 0 -27 11.5t-11 27.5q0 17 11 28.5t27 11.5q17 0 28 -11.5t11 -28.5zM310 327q-9 -48 -40 -91.5t-63 -70t-78.5 -62.5t-69.5 -59q-59 -56 -59 -125q0 -60 47.5 -99t116.5 -39q93 0 153.5 61t60.5 137l41 -3q-3 -97 -76.5 -165
t-181.5 -68q-84 0 -143.5 50t-59.5 124q0 81 68 151q26 27 86.5 72t101 88.5t54.5 98.5h42z" />
    <glyph glyph-name="Agrave" unicode="&#xc0;" horiz-adv-x="756" 
d="M546 854h-32l-76 173h41zM682 0l-136 783h-44l-557 -783h46l159 223h453l38 -223h41zM516 739l81 -478h-420z" />
    <glyph glyph-name="Aacute" unicode="&#xc1;" horiz-adv-x="756" 
d="M663 1027h48l-166 -173h-40zM682 0l-136 783h-44l-557 -783h46l159 223h453l38 -223h41zM516 739l81 -478h-420z" />
    <glyph glyph-name="Acircumflex" unicode="&#xc2;" horiz-adv-x="756" 
d="M417 854h-42l178 173h43l89 -172h-36l-78 142zM682 0l-136 783h-44l-557 -783h46l159 223h453l38 -223h41zM516 739l81 -478h-420z" />
    <glyph glyph-name="Atilde" unicode="&#xc3;" horiz-adv-x="756" 
d="M740 942q-39 -87 -100 -87q-29 0 -71 34t-67 34q-42 0 -73 -62l-26 13q41 83 103 83q33 0 74.5 -33.5t63.5 -33.5q40 0 70 61zM682 0l-136 783h-44l-557 -783h46l159 223h453l38 -223h41zM516 739l81 -478h-420z" />
    <glyph glyph-name="Adieresis" unicode="&#xc4;" horiz-adv-x="756" 
d="M464 898q-16 0 -25.5 10t-9.5 26q0 19 12 32t31 13q16 0 25.5 -10t9.5 -26q0 -19 -12 -32t-31 -13zM628 898q-16 0 -26 10t-10 26q0 19 12.5 32t30.5 13q16 0 26 -10t10 -26q0 -19 -12.5 -32t-30.5 -13zM682 0l-136 783h-44l-557 -783h46l159 223h453l38 -223h41z
M516 739l81 -478h-420z" />
    <glyph glyph-name="Aring" unicode="&#xc5;" horiz-adv-x="756" 
d="M630 857q0 -37 -22 -66t-57 -39l131 -752h-41l-38 223h-453l-159 -223h-46l537 755q-50 23 -50 81q0 45 31.5 78t76.5 33q39 0 64.5 -25.5t25.5 -64.5zM595 856q0 24 -16.5 41t-40.5 17q-30 0 -51 -23.5t-21 -53.5q0 -25 16 -41t41 -16q31 0 51.5 22.5t20.5 53.5z
M597 261l-81 478l-339 -478h420z" />
    <glyph glyph-name="AE" unicode="&#xc6;" horiz-adv-x="1028" 
d="M-18 0h-50l683 783h488l-11 -37h-407l-88 -328h374l-11 -38h-374l-91 -342h413l-10 -38h-454l60 223h-327zM631 746l-422 -485h305l130 485h-13z" />
    <glyph glyph-name="Ccedilla" unicode="&#xc7;" horiz-adv-x="849" 
d="M399 0q5 -3 8 -8q-136 6 -224.5 101.5t-88.5 240.5q0 120 59 225t163 169t226 64q116 0 208 -73t110 -190l-39 -11q-16 104 -96.5 170t-188.5 66q-164 0 -281.5 -126.5t-117.5 -292.5q0 -133 80.5 -220t212.5 -87q118 0 206.5 64.5t137.5 172.5l38 -15
q-48 -113 -142.5 -182.5t-223.5 -75.5q-6 6 -9 8h-38zM425 -8h-18q41 -39 41 -88t-34 -79.5t-86 -30.5q-42 0 -80 15l-9 -31q34 -19 94 -19q65 0 109 39t44 103q0 51 -40 91h-21z" />
    <glyph glyph-name="Egrave" unicode="&#xc8;" horiz-adv-x="653" 
d="M524 854h-32l-75 173h40zM194 380h392l10 38h-392l87 328h427l10 37h-468l-209 -783h472l10 38h-430z" />
    <glyph glyph-name="Eacute" unicode="&#xc9;" horiz-adv-x="653" 
d="M634 1027h48l-166 -173h-40zM260 783h468l-10 -37h-427l-87 -328h392l-10 -38h-392l-91 -342h430l-10 -38h-472z" />
    <glyph glyph-name="Ecircumflex" unicode="&#xca;" horiz-adv-x="653" 
d="M394 854h-42l177 173h44l88 -172h-36l-77 142zM260 783h468l-10 -37h-427l-87 -328h392l-10 -38h-392l-91 -342h430l-10 -38h-472z" />
    <glyph glyph-name="Edieresis" unicode="&#xcb;" horiz-adv-x="653" 
d="M437 898q-16 0 -25.5 10t-9.5 26q0 19 12 32t31 13q16 0 25.5 -10t9.5 -26q0 -19 -12 -32t-31 -13zM601 898q-16 0 -26 10t-10 26q0 19 12.5 32t30.5 13q16 0 26 -10t10 -26q0 -19 -12.5 -32t-30.5 -13zM260 783h468l-10 -37h-427l-87 -328h392l-10 -38h-392l-91 -342
h430l-10 -38h-472z" />
    <glyph glyph-name="Igrave" unicode="&#xcc;" horiz-adv-x="280" 
d="M306 854h-32l-75 173h40zM260 783l-209 -783h41l210 783h-42z" />
    <glyph glyph-name="Iacute" unicode="&#xcd;" horiz-adv-x="280" 
d="M434 1027h48l-167 -173h-39zM302 783l-210 -783h-41l209 783h42z" />
    <glyph glyph-name="Icircumflex" unicode="&#xce;" horiz-adv-x="280" 
d="M183 854h-43l178 173h43l89 -172h-36l-78 142zM302 783l-210 -783h-41l209 783h42z" />
    <glyph glyph-name="Idieresis" unicode="&#xcf;" horiz-adv-x="280" 
d="M238 898q-16 0 -25.5 10t-9.5 26q0 19 12 32t31 13q16 0 25.5 -10t9.5 -26q0 -19 -12 -32t-31 -13zM389 898q-16 0 -26 10t-10 26q0 19 12.5 32t30.5 13q16 0 26 -10t10 -26q0 -19 -12.5 -32t-30.5 -13zM302 783l-210 -783h-41l209 783h42z" />
    <glyph glyph-name="Eth" unicode="&#xd0;" horiz-adv-x="820" 
d="M167 380h-83l11 38h82l97 365h127q205 0 311 -106q86 -85 86 -223q0 -181 -122 -305q-72 -72 -175.5 -110.5t-223.5 -38.5h-212zM756 452q0 120 -75 197q-95 97 -277 97h-99l-87 -328h272l-10 -38h-272l-92 -342h167q224 0 360 134q113 113 113 280z" />
    <glyph glyph-name="Ntilde" unicode="&#xd1;" horiz-adv-x="855" 
d="M765 942q-39 -87 -100 -87q-30 0 -71.5 34t-66.5 34q-42 0 -73 -62l-26 13q42 83 103 83q33 0 74.5 -33.5t63.5 -33.5q39 0 70 61zM836 783l-195 -730l-332 730h-49l-209 -783h40l197 734l334 -734h45l210 783h-41z" />
    <glyph glyph-name="Ograve" unicode="&#xd2;" horiz-adv-x="886" 
d="M560 854h-32l-75 173h40zM424 -8q-145 0 -238.5 96t-93.5 237q0 119 58.5 226.5t161 174t221.5 66.5q146 0 239.5 -96t93.5 -238q0 -119 -58.5 -226.5t-161.5 -173.5t-222 -66zM425 28q109 0 202 61t145 159.5t52 207.5q0 128 -81.5 213t-210.5 85q-109 0 -202 -61
t-145 -159t-52 -208q0 -127 81.5 -212.5t210.5 -85.5z" />
    <glyph glyph-name="Oacute" unicode="&#xd3;" horiz-adv-x="886" 
d="M677 1027h48l-166 -173h-40zM424 -8q-145 0 -238.5 96t-93.5 237q0 119 58.5 226.5t161 174t221.5 66.5q146 0 239.5 -96t93.5 -238q0 -119 -58.5 -226.5t-161.5 -173.5t-222 -66zM425 28q109 0 202 61t145 159.5t52 207.5q0 128 -81.5 213t-210.5 85q-109 0 -202 -61
t-145 -159t-52 -208q0 -127 81.5 -212.5t210.5 -85.5z" />
    <glyph glyph-name="Ocircumflex" unicode="&#xd4;" horiz-adv-x="886" 
d="M429 854h-43l178 173h43l89 -172h-36l-77 142zM424 -8q-145 0 -238.5 96t-93.5 237q0 119 58.5 226.5t161 174t221.5 66.5q146 0 239.5 -96t93.5 -238q0 -119 -58.5 -226.5t-161.5 -173.5t-222 -66zM425 28q109 0 202 61t145 159.5t52 207.5q0 128 -81.5 213t-210.5 85
q-109 0 -202 -61t-145 -159t-52 -208q0 -127 81.5 -212.5t210.5 -85.5z" />
    <glyph glyph-name="Otilde" unicode="&#xd5;" horiz-adv-x="886" 
d="M727 942q-39 -87 -100 -87q-29 0 -71 34t-67 34q-41 0 -72 -62l-27 13q42 83 103 83q33 0 74.5 -33.5t63.5 -33.5q39 0 70 61zM424 -8q-145 0 -238.5 96t-93.5 237q0 119 58.5 226.5t161 174t221.5 66.5q146 0 239.5 -96t93.5 -238q0 -119 -58.5 -226.5t-161.5 -173.5
t-222 -66zM425 28q109 0 202 61t145 159.5t52 207.5q0 128 -81.5 213t-210.5 85q-109 0 -202 -61t-145 -159t-52 -208q0 -127 81.5 -212.5t210.5 -85.5z" />
    <glyph glyph-name="Odieresis" unicode="&#xd6;" horiz-adv-x="886" 
d="M483 898q-16 0 -25.5 10t-9.5 26q0 19 12 32t31 13q16 0 25.5 -10t9.5 -26q0 -19 -12 -32t-31 -13zM647 898q-16 0 -26 10t-10 26q0 19 12.5 32t30.5 13q16 0 26 -10t10 -26q0 -19 -12.5 -32t-30.5 -13zM424 -8q-145 0 -238.5 96t-93.5 237q0 119 58.5 226.5t161 174
t221.5 66.5q146 0 239.5 -96t93.5 -238q0 -119 -58.5 -226.5t-161.5 -173.5t-222 -66zM425 28q109 0 202 61t145 159.5t52 207.5q0 128 -81.5 213t-210.5 85q-109 0 -202 -61t-145 -159t-52 -208q0 -127 81.5 -212.5t210.5 -85.5z" />
    <glyph glyph-name="multiply" unicode="&#xd7;" horiz-adv-x="569" 
d="M467 117l-28 -21l-144 196l-236 -197l-22 29l237 197l-151 206l29 22l150 -205l246 205l23 -29l-248 -206z" />
    <glyph glyph-name="Oslash" unicode="&#xd8;" horiz-adv-x="886" 
d="M783 686q83 -96 83 -228q0 -119 -58.5 -226.5t-161.5 -173.5t-222 -66q-141 0 -234 91l-95 -97l-27 27l97 98q-73 90 -73 214q0 119 58.5 226.5t161 174t221.5 66.5q131 0 222 -80l84 85l27 -26zM532 754q-109 0 -202 -61t-145 -159t-52 -208q0 -108 60 -187l535 544
q-79 71 -196 71zM425 28q109 0 202 61t145 159.5t52 207.5q0 120 -70 201l-537 -547q84 -82 208 -82z" />
    <glyph glyph-name="Ugrave" unicode="&#xd9;" horiz-adv-x="783" 
d="M562 854h-32l-75 173h40zM646 304q-36 -132 -104 -200q-74 -75 -180 -75q-98 0 -154 49.5t-56 138.5q0 51 14 99l124 467h-42l-120 -453q-17 -70 -17 -117q0 -106 67.5 -164t181.5 -58q124 0 212 88q74 73 113 218l130 486h-42z" />
    <glyph glyph-name="Uacute" unicode="&#xda;" horiz-adv-x="783" 
d="M674 1027h49l-167 -173h-39zM685 297q-39 -145 -113 -218q-88 -88 -212 -88q-114 0 -181.5 58t-67.5 164q0 47 17 117l120 453h42l-124 -467q-14 -48 -14 -99q0 -89 56 -138.5t154 -49.5q106 0 180 75q68 68 104 200l127 479h42z" />
    <glyph glyph-name="Ucircumflex" unicode="&#xdb;" horiz-adv-x="783" 
d="M430 854h-42l177 173h44l88 -172h-35l-78 142zM685 297q-39 -145 -113 -218q-88 -88 -212 -88q-114 0 -181.5 58t-67.5 164q0 47 17 117l120 453h42l-124 -467q-14 -48 -14 -99q0 -89 56 -138.5t154 -49.5q106 0 180 75q68 68 104 200l127 479h42z" />
    <glyph glyph-name="Udieresis" unicode="&#xdc;" horiz-adv-x="783" 
d="M483 898q-16 0 -25.5 10t-9.5 26q0 19 12 32t31 13q16 0 25.5 -10t9.5 -26q0 -19 -12 -32t-31 -13zM647 898q-16 0 -26 10t-10 26q0 19 12.5 32t30.5 13q16 0 26 -10t10 -26q0 -19 -12.5 -32t-30.5 -13zM685 297q-39 -145 -113 -218q-88 -88 -212 -88q-114 0 -181.5 58
t-67.5 164q0 47 17 117l120 453h42l-124 -467q-14 -48 -14 -99q0 -89 56 -138.5t154 -49.5q106 0 180 75q68 68 104 200l127 479h42z" />
    <glyph glyph-name="Yacute" unicode="&#xdd;" horiz-adv-x="718" 
d="M610 1027h48l-166 -173h-40zM260 0l92 340l-185 443h44l169 -409l387 409h54l-431 -452l-88 -331h-42z" />
    <glyph glyph-name="Thorn" unicode="&#xde;" horiz-adv-x="664" 
d="M405 628q126 0 193 -53.5t67 -147.5q0 -119 -96.5 -189.5t-264.5 -70.5h-167l-45 -167h-41l209 784h42l-42 -156h145zM624 425q0 67 -42 109q-56 56 -178 56h-155l-103 -385h162q149 0 232.5 60t83.5 160z" />
    <glyph glyph-name="germandbls" unicode="&#xdf;" horiz-adv-x="642" 
d="M533 130q0 25 -12 46.5t-24.5 32.5t-34.5 26l-31 23q-70 48 -70 107q0 76 86 115l51 23q105 49 105 139q0 69 -44.5 104t-112.5 35q-92 0 -145 -49t-77 -144l-156 -588h-38l156 593q29 109 90.5 166.5t170.5 57.5q94 0 145.5 -50t51.5 -123q0 -115 -131 -175l-45 -20
q-14 -6 -20.5 -10t-20 -14t-20 -24.5t-6.5 -33.5t9.5 -35.5t18 -24t24.5 -19.5l33 -24q86 -60 86 -132q0 -53 -42.5 -97t-127.5 -44q-47 0 -82 17t-51.5 42.5t-24 49.5t-6.5 44l37 2q-3 -38 28.5 -78.5t99.5 -40.5q62 0 96 31t34 72z" />
    <glyph glyph-name="agrave" unicode="&#xe0;" horiz-adv-x="682" 
d="M383 625h-32l-76 172h40zM477 0l33 126q-34 -53 -98.5 -93.5t-141.5 -40.5q-94 0 -154.5 63t-60.5 159q0 131 86 230t210 99q93 0 150 -50.5t72 -121.5h1l44 163h39l-142 -534h-38zM355 507q-112 0 -185.5 -88t-73.5 -199q0 -84 50.5 -138t129.5 -54q111 0 194.5 90
t83.5 189q0 86 -55 143t-144 57z" />
    <glyph glyph-name="aacute" unicode="&#xe1;" horiz-adv-x="682" 
d="M509 797h49l-167 -172h-39zM477 0l33 126q-34 -53 -98.5 -93.5t-141.5 -40.5q-94 0 -154.5 63t-60.5 159q0 131 86 230t210 99q93 0 150 -50.5t72 -121.5h1l44 163h39l-142 -534h-38zM355 507q-112 0 -185.5 -88t-73.5 -199q0 -84 50.5 -138t129.5 -54q111 0 194.5 90
t83.5 189q0 86 -55 143t-144 57z" />
    <glyph glyph-name="acircumflex" unicode="&#xe2;" horiz-adv-x="682" 
d="M277 625h-43l178 172h44l88 -172h-36l-77 142zM477 0l33 126q-34 -53 -98.5 -93.5t-141.5 -40.5q-94 0 -154.5 63t-60.5 159q0 131 86 230t210 99q93 0 150 -50.5t72 -121.5h1l44 163h39l-142 -534h-38zM355 507q-112 0 -185.5 -88t-73.5 -199q0 -84 50.5 -138t129.5 -54
q111 0 194.5 90t83.5 189q0 86 -55 143t-144 57z" />
    <glyph glyph-name="atilde" unicode="&#xe3;" horiz-adv-x="682" 
d="M578 712q-38 -86 -99 -86q-30 0 -72 33.5t-67 33.5q-40 0 -72 -61l-27 12q41 84 103 84q27 0 51.5 -17t46 -33.5t40.5 -16.5q22 0 40.5 18.5t29.5 42.5zM477 0l33 126q-34 -53 -98.5 -93.5t-141.5 -40.5q-94 0 -154.5 63t-60.5 159q0 131 86 230t210 99q93 0 150 -50.5
t72 -121.5h1l44 163h39l-142 -534h-38zM355 507q-112 0 -185.5 -88t-73.5 -199q0 -84 50.5 -138t129.5 -54q111 0 194.5 90t83.5 189q0 86 -55 143t-144 57z" />
    <glyph glyph-name="adieresis" unicode="&#xe4;" horiz-adv-x="682" 
d="M338 668q-16 0 -25.5 10t-9.5 26q0 19 12 32t31 13q16 0 25.5 -10t9.5 -26q0 -19 -12 -32t-31 -13zM496 668q-16 0 -26 10t-10 26q0 19 12.5 32t30.5 13q16 0 26 -10t10 -26q0 -19 -12.5 -32t-30.5 -13zM477 0l33 126q-34 -53 -98.5 -93.5t-141.5 -40.5q-94 0 -154.5 63
t-60.5 159q0 131 86 230t210 99q93 0 150 -50.5t72 -121.5h1l44 163h39l-142 -534h-38zM355 507q-112 0 -185.5 -88t-73.5 -199q0 -84 50.5 -138t129.5 -54q111 0 194.5 90t83.5 189q0 86 -55 143t-144 57z" />
    <glyph glyph-name="aring" unicode="&#xe5;" horiz-adv-x="682" 
d="M516 714q0 -46 -31.5 -78t-77.5 -32q-39 0 -64 25t-25 64q0 45 31.5 78t76.5 33q39 0 64.5 -25.5t25.5 -64.5zM481 713q0 24 -16 41t-41 17q-30 0 -51 -23.5t-21 -53.5q0 -25 16.5 -41t41.5 -16q30 0 50.5 22.5t20.5 53.5zM477 0l33 126q-34 -53 -98.5 -93.5
t-141.5 -40.5q-94 0 -154.5 63t-60.5 159q0 131 86 230t210 99q93 0 150 -50.5t72 -121.5h1l44 163h39l-142 -534h-38zM355 507q-112 0 -185.5 -88t-73.5 -199q0 -84 50.5 -138t129.5 -54q111 0 194.5 90t83.5 189q0 86 -55 143t-144 57z" />
    <glyph glyph-name="ae" unicode="&#xe6;" horiz-adv-x="959" 
d="M189 -9q-68 0 -116 35t-48 98q0 83 68 123.5t166 43.5l154 4q14 64 52 119q-8 41 -44 67t-87 26q-48 0 -87 -16t-61.5 -40.5t-34.5 -45.5t-18 -40l-37 12q7 23 22.5 48.5t43 53.5t73 46t101.5 18q55 0 97.5 -25t58.5 -70q88 95 203 95q105 0 161 -60.5t56 -165.5
q0 -34 -4 -57h-462q-1 -9 -1 -27q0 -90 54.5 -147.5t143.5 -57.5q141 0 213 134l33 -18q-85 -153 -250 -153q-75 0 -131.5 37.5t-82.5 101.5q-39 -63 -101.5 -101t-134.5 -38zM872 317q0 88 -46 139t-134 51q-80 0 -153.5 -64.5t-87.5 -146.5h420q1 7 1 21zM262 256
q-36 -1 -68.5 -7.5t-62.5 -21t-47.5 -41t-17.5 -62.5q0 -43 36 -70t90 -27q71 0 129.5 42t89.5 106q-6 27 -6 57q0 10 2 28z" />
    <glyph glyph-name="ccedilla" unicode="&#xe7;" horiz-adv-x="618" 
d="M297 28q73 0 133 40.5t91 107.5l34 -15q-33 -75 -97 -119.5t-145 -50.5q40 -40 40 -90q0 -64 -44 -103t-110 -39q-60 0 -93 19l8 31q40 -15 81 -15q51 0 85.5 30.5t34.5 79.5q0 47 -40 87q-98 7 -158.5 72t-60.5 166q0 123 90 218.5t213 95.5q90 0 150.5 -49.5
t74.5 -129.5l-37 -12q-10 68 -61.5 111.5t-130.5 43.5q-103 0 -180 -85t-77 -192q0 -90 55 -146t144 -56z" />
    <glyph glyph-name="egrave" unicode="&#xe8;" horiz-adv-x="611" 
d="M368 625h-32l-75 172h40zM559 260q4 23 4 57q0 105 -55.5 165.5t-160.5 60.5q-117 0 -203.5 -95.5t-86.5 -215.5q0 -104 65.5 -172.5t168.5 -68.5q165 0 250 153l-33 18q-72 -134 -214 -134q-88 0 -142.5 58t-54.5 147q0 9 2 27h460zM103 296q14 82 88 146.5t153 64.5
q88 0 133.5 -51t45.5 -139q0 -14 -1 -21h-419z" />
    <glyph glyph-name="eacute" unicode="&#xe9;" horiz-adv-x="611" 
d="M488 797h49l-167 -172h-39zM559 260q4 23 4 57q0 105 -55.5 165.5t-160.5 60.5q-117 0 -203.5 -95.5t-86.5 -215.5q0 -104 65.5 -172.5t168.5 -68.5q165 0 250 153l-33 18q-72 -134 -214 -134q-88 0 -142.5 58t-54.5 147q0 9 2 27h460zM103 296q14 82 88 146.5t153 64.5
q88 0 133.5 -51t45.5 -139q0 -14 -1 -21h-419z" />
    <glyph glyph-name="ecircumflex" unicode="&#xea;" horiz-adv-x="611" 
d="M248 625h-43l178 172h43l89 -172h-36l-78 142zM559 260q4 23 4 57q0 105 -55.5 165.5t-160.5 60.5q-117 0 -203.5 -95.5t-86.5 -215.5q0 -104 65.5 -172.5t168.5 -68.5q165 0 250 153l-33 18q-72 -134 -214 -134q-88 0 -142.5 58t-54.5 147q0 9 2 27h460zM103 296
q14 82 88 146.5t153 64.5q88 0 133.5 -51t45.5 -139q0 -14 -1 -21h-419z" />
    <glyph glyph-name="edieresis" unicode="&#xeb;" horiz-adv-x="611" 
d="M295 668q-16 0 -26 10t-10 26q0 19 12.5 32t31.5 13q15 0 25 -10t10 -26q0 -19 -12.5 -32t-30.5 -13zM452 668q-16 0 -25.5 10t-9.5 26q0 19 12.5 32t30.5 13q16 0 26 -10t10 -26q0 -19 -12.5 -32t-31.5 -13zM559 260q4 23 4 57q0 105 -55.5 165.5t-160.5 60.5
q-117 0 -203.5 -95.5t-86.5 -215.5q0 -104 65.5 -172.5t168.5 -68.5q165 0 250 153l-33 18q-72 -134 -214 -134q-88 0 -142.5 58t-54.5 147q0 9 2 27h460zM103 296q14 82 88 146.5t153 64.5q88 0 133.5 -51t45.5 -139q0 -14 -1 -21h-419z" />
    <glyph glyph-name="igrave" unicode="&#xec;" horiz-adv-x="234" 
d="M213 625h-32l-76 172h41zM30 0h40l140 534h-40z" />
    <glyph glyph-name="iacute" unicode="&#xed;" horiz-adv-x="234" 
d="M344 797h48l-166 -172h-40zM170 534h40l-140 -534h-40z" />
    <glyph glyph-name="icircumflex" unicode="&#xee;" horiz-adv-x="234" 
d="M90 625h-42l178 172h43l88 -172h-35l-78 142zM170 534h40l-140 -534h-40z" />
    <glyph glyph-name="idieresis" unicode="&#xef;" horiz-adv-x="234" 
d="M149 668q-16 0 -26 10t-10 26q0 19 12.5 32t31.5 13q15 0 25 -10t10 -26q0 -19 -12.5 -32t-30.5 -13zM306 668q-16 0 -25.5 10t-9.5 26q0 19 12.5 32t30.5 13q16 0 26 -10t10 -26q0 -19 -12.5 -32t-31.5 -13zM170 534h40l-140 -534h-40z" />
    <glyph glyph-name="eth" unicode="&#xf0;" horiz-adv-x="659" 
d="M542 587q66 -109 66 -232q0 -95 -23 -158q-32 -90 -109.5 -148t-179.5 -58q-104 0 -173 66t-69 163q0 121 89 213.5t213 92.5q65 0 120.5 -29.5t88.5 -85.5l1 1q-19 156 -149 267l-171 -81l-16 29l159 74q-74 55 -168 87l15 33q111 -38 190 -103l136 64l15 -28l-124 -58
q55 -51 89 -109zM298 28q112 0 190 81t78 188q0 87 -61 140t-150 53q-108 0 -184 -80.5t-76 -186.5q0 -87 56.5 -141t146.5 -54z" />
    <glyph glyph-name="ntilde" unicode="&#xf1;" horiz-adv-x="631" 
d="M595 712q-38 -86 -99 -86q-30 0 -72 33.5t-67 33.5q-40 0 -72 -61l-27 12q41 84 103 84q33 0 75 -33.5t64 -33.5t40 18.5t29 42.5zM392 543q-133 0 -216 -133l33 124h-39l-140 -534h39l79 301q25 92 93.5 149t141.5 57q70 0 105.5 -35.5t35.5 -97.5q0 -42 -9 -77
l-79 -297h39l77 293q13 48 13 83q0 75 -45 121t-128 46z" />
    <glyph glyph-name="ograve" unicode="&#xf2;" horiz-adv-x="655" 
d="M396 625h-31l-76 172h40zM293 -9q-105 0 -171.5 66.5t-66.5 168.5q0 79 40 151.5t112.5 119t158.5 46.5q105 0 172 -66t67 -168q0 -124 -91.5 -221t-220.5 -97zM298 28q109 0 187.5 84.5t78.5 193.5q0 89 -55.5 145t-145.5 56q-110 0 -188.5 -85t-78.5 -193
q0 -89 56 -145t146 -56z" />
    <glyph glyph-name="oacute" unicode="&#xf3;" horiz-adv-x="655" 
d="M510 797h48l-166 -172h-40zM293 -9q-105 0 -171.5 66.5t-66.5 168.5q0 79 40 151.5t112.5 119t158.5 46.5q105 0 172 -66t67 -168q0 -124 -91.5 -221t-220.5 -97zM298 28q109 0 187.5 84.5t78.5 193.5q0 89 -55.5 145t-145.5 56q-110 0 -188.5 -85t-78.5 -193
q0 -89 56 -145t146 -56z" />
    <glyph glyph-name="ocircumflex" unicode="&#xf4;" horiz-adv-x="655" 
d="M265 625h-47l178 172h43l88 -172h-38l-75 142zM293 -9q-105 0 -171.5 66.5t-66.5 168.5q0 79 40 151.5t112.5 119t158.5 46.5q105 0 172 -66t67 -168q0 -124 -91.5 -221t-220.5 -97zM298 28q109 0 187.5 84.5t78.5 193.5q0 89 -55.5 145t-145.5 56q-110 0 -188.5 -85
t-78.5 -193q0 -89 56 -145t146 -56z" />
    <glyph glyph-name="otilde" unicode="&#xf5;" horiz-adv-x="655" 
d="M601 712q-38 -86 -100 -86q-29 0 -71 33.5t-67 33.5q-40 0 -72 -61l-27 12q41 84 103 84q33 0 75 -33.5t63 -33.5q41 0 70 61zM293 -9q-105 0 -171.5 66.5t-66.5 168.5q0 79 40 151.5t112.5 119t158.5 46.5q105 0 172 -66t67 -168q0 -124 -91.5 -221t-220.5 -97zM298 28
q109 0 187.5 84.5t78.5 193.5q0 89 -55.5 145t-145.5 56q-110 0 -188.5 -85t-78.5 -193q0 -89 56 -145t146 -56z" />
    <glyph glyph-name="odieresis" unicode="&#xf6;" horiz-adv-x="655" 
d="M321 668q-16 0 -26 10t-10 26q0 19 12.5 32t31.5 13q15 0 25 -10t10 -26q0 -19 -12.5 -32t-30.5 -13zM478 668q-16 0 -25.5 10t-9.5 26q0 19 12 32t31 13q16 0 25.5 -10t9.5 -26q0 -19 -12.5 -32t-30.5 -13zM293 -9q-105 0 -171.5 66.5t-66.5 168.5q0 79 40 151.5
t112.5 119t158.5 46.5q105 0 172 -66t67 -168q0 -124 -91.5 -221t-220.5 -97zM298 28q109 0 187.5 84.5t78.5 193.5q0 89 -55.5 145t-145.5 56q-110 0 -188.5 -85t-78.5 -193q0 -89 56 -145t146 -56z" />
    <glyph glyph-name="divide" unicode="&#xf7;" horiz-adv-x="669" 
d="M415 532q-17 0 -28 10.5t-11 27.5q0 20 13.5 33.5t33.5 13.5q17 0 27.5 -10.5t10.5 -27.5q0 -19 -13.5 -33t-32.5 -14zM614 394l-10 -37h-485l9 37h486zM309 131q-17 0 -27.5 10.5t-10.5 27.5q0 20 13.5 33.5t32.5 13.5q17 0 27.5 -10.5t10.5 -27.5q0 -20 -13.5 -33.5
t-32.5 -13.5z" />
    <glyph glyph-name="oslash" unicode="&#xf8;" horiz-adv-x="655" 
d="M552 463q53 -66 53 -154q0 -124 -91.5 -221t-220.5 -97q-91 0 -157 53l-75 -76l-23 24l74 75q-57 65 -57 159q0 79 40 151.5t112.5 119t158.5 46.5q96 0 162 -57l73 73l23 -23zM96 229q0 -79 45 -133l361 363q-50 48 -139 48q-110 0 -188.5 -85t-78.5 -193zM564 306
q0 77 -41 129l-358 -362q51 -45 133 -45q109 0 187.5 84.5t78.5 193.5z" />
    <glyph glyph-name="ugrave" unicode="&#xf9;" horiz-adv-x="633" 
d="M425 625h-32l-76 172h40zM427 0l33 124q-36 -57 -90.5 -95.5t-124.5 -38.5q-83 0 -128 46.5t-45 121.5q0 39 12 83l78 293h39l-79 -297q-10 -40 -10 -76q0 -62 35.5 -98t106.5 -36q74 0 141.5 56.5t92.5 149.5l79 301h40l-141 -534h-39z" />
    <glyph glyph-name="uacute" unicode="&#xfa;" horiz-adv-x="633" 
d="M538 797h48l-167 -172h-39zM427 0l33 124q-36 -57 -90.5 -95.5t-124.5 -38.5q-83 0 -128 46.5t-45 121.5q0 39 12 83l78 293h39l-79 -297q-10 -40 -10 -76q0 -62 35.5 -98t106.5 -36q74 0 141.5 56.5t92.5 149.5l79 301h40l-141 -534h-39z" />
    <glyph glyph-name="ucircumflex" unicode="&#xfb;" horiz-adv-x="633" 
d="M287 625h-43l178 172h43l89 -172h-36l-78 142zM427 0l33 124q-36 -57 -90.5 -95.5t-124.5 -38.5q-83 0 -128 46.5t-45 121.5q0 39 12 83l78 293h39l-79 -297q-10 -40 -10 -76q0 -62 35.5 -98t106.5 -36q74 0 141.5 56.5t92.5 149.5l79 301h40l-141 -534h-39z" />
    <glyph glyph-name="udieresis" unicode="&#xfc;" horiz-adv-x="633" 
d="M343 668q-16 0 -25.5 10t-9.5 26q0 19 12 32t31 13q16 0 25.5 -10t9.5 -26q0 -19 -12 -32t-31 -13zM500 668q-16 0 -25.5 10t-9.5 26q0 19 12.5 32t30.5 13q16 0 26 -10t10 -26q0 -19 -12.5 -32t-31.5 -13zM427 0l33 124q-36 -57 -90.5 -95.5t-124.5 -38.5
q-83 0 -128 46.5t-45 121.5q0 39 12 83l78 293h39l-79 -297q-10 -40 -10 -76q0 -62 35.5 -98t106.5 -36q74 0 141.5 56.5t92.5 149.5l79 301h40l-141 -534h-39z" />
    <glyph glyph-name="yacute" unicode="&#xfd;" horiz-adv-x="577" 
d="M511 797h48l-166 -172h-40zM209 1l-114 533h42l102 -493l339 493h47l-554 -797h-48z" />
    <glyph glyph-name="thorn" unicode="&#xfe;" horiz-adv-x="681" 
d="M631 320q0 -131 -86 -229.5t-210 -98.5q-93 0 -150.5 51t-72.5 122l-113 -428h-39l284 1077h39l-107 -406q34 53 98.5 94t141.5 41q94 0 154.5 -63.5t60.5 -159.5zM332 28q111 0 184.5 88t73.5 198q0 84 -50.5 138.5t-129.5 54.5q-111 0 -194.5 -89.5t-83.5 -188.5
q0 -87 55.5 -144t144.5 -57z" />
    <glyph glyph-name="ydieresis" unicode="&#xff;" horiz-adv-x="577" 
d="M312 668q-15 0 -25 10t-10 26q0 19 12 32t31 13q16 0 25.5 -10t9.5 -26q0 -19 -12 -32t-31 -13zM470 668q-16 0 -25.5 10t-9.5 26q0 19 12 32t31 13q16 0 25.5 -10t9.5 -26q0 -19 -12.5 -32t-30.5 -13zM209 1l-114 533h42l102 -493l339 493h47l-554 -797h-48z" />
    <glyph glyph-name="Amacron" unicode="&#x100;" horiz-adv-x="756" 
d="M710 880h-334l10 37h333zM150 223l-159 -223h-46l557 783h44l136 -783h-41l-38 223h-453zM516 739l-339 -478h420z" />
    <glyph glyph-name="amacron" unicode="&#x101;" horiz-adv-x="682" 
d="M589 641h-334l10 37h333zM477 0l33 126q-34 -53 -98.5 -93.5t-141.5 -40.5q-94 0 -154.5 63t-60.5 159q0 131 86 230t210 99q93 0 150 -50.5t72 -121.5h1l44 163h39l-142 -534h-38zM355 507q-112 0 -185.5 -88t-73.5 -199q0 -84 50.5 -138t129.5 -54q111 0 194.5 90
t83.5 189q0 86 -55 143t-144 57z" />
    <glyph glyph-name="Abreve" unicode="&#x102;" horiz-adv-x="756" 
d="M741 1025q-23 -74 -75.5 -117t-127.5 -43q-47 0 -78.5 17.5t-42 42t-16 52t0.5 48.5h30q-7 -124 112 -124q108 0 165 124h32zM150 223l-159 -223h-46l557 783h44l136 -783h-41l-38 223h-453zM516 739l-339 -478h420z" />
    <glyph glyph-name="abreve" unicode="&#x103;" horiz-adv-x="682" 
d="M561 789q-17 -76 -65 -120t-114 -44q-43 0 -73.5 17t-44 44t-18 52.5t-3.5 50.5h36q-3 -128 105 -128q54 0 91 36.5t50 91.5h36zM477 0q23 86 33 126q-34 -53 -98.5 -93.5t-141.5 -40.5q-94 0 -154.5 63t-60.5 159q0 131 86 230t210 99q93 0 150 -50.5t72 -121.5h1
l44 163h39l-142 -534h-38zM355 507q-112 0 -185.5 -88t-73.5 -199q0 -84 50.5 -138t129.5 -54q111 0 194.5 90t83.5 189q0 86 -55 143t-144 57z" />
    <glyph glyph-name="Aogonek" unicode="&#x104;" horiz-adv-x="756" 
d="M658 -241q-15 -3 -29 -3q-43 0 -73.5 25t-30.5 67q0 44 36 85t82 67h-2l-38 223h-453l-159 -223h-46l557 783h44l136 -783q-120 -76 -120 -141q0 -35 23.5 -51.5t60.5 -16.5q14 0 20 1zM597 261l-81 478l-339 -478h420z" />
    <glyph glyph-name="aogonek" unicode="&#x105;" horiz-adv-x="682" 
d="M515 0q-119 -75 -119 -141q0 -68 83 -68q13 0 20 1l-9 -33q-14 -3 -27 -3q-44 0 -74.5 24.5t-30.5 67.5q0 44 36.5 85t82.5 67l33 126q-34 -53 -98.5 -93.5t-141.5 -40.5q-94 0 -154.5 63t-60.5 159q0 131 86 230t210 99q93 0 150 -50.5t72 -121.5h1l44 163h39zM355 507
q-112 0 -185.5 -88t-73.5 -199q0 -84 50.5 -138t129.5 -54q111 0 194.5 90t83.5 189q0 86 -55 143t-144 57z" />
    <glyph glyph-name="Cacute" unicode="&#x106;" horiz-adv-x="849" 
d="M685 1027h48l-166 -173h-40zM812 250q-50 -118 -150.5 -188t-236.5 -70q-143 0 -237 96.5t-94 245.5q0 120 59 225t163 169t226 64q116 0 208 -73t110 -190l-39 -11q-16 104 -96.5 170t-188.5 66q-164 0 -281.5 -126.5t-117.5 -292.5q0 -133 80.5 -220t212.5 -87
q118 0 206.5 64.5t137.5 172.5z" />
    <glyph glyph-name="cacute" unicode="&#x107;" horiz-adv-x="618" 
d="M511 797h48l-166 -172h-40zM293 -9q-104 0 -170.5 66t-66.5 172q0 123 90 218.5t213 95.5q90 0 150.5 -49.5t74.5 -129.5l-37 -12q-10 68 -61.5 111.5t-130.5 43.5q-103 0 -180 -85t-77 -192q0 -90 55 -146t144 -56q73 0 133 40.5t91 107.5l34 -15q-35 -80 -104.5 -125
t-157.5 -45z" />
    <glyph glyph-name="Ccircumflex" unicode="&#x108;" horiz-adv-x="849" 
d="M429 854h-43l178 173h43l89 -172h-36l-77 142zM812 250q-50 -118 -150.5 -188t-236.5 -70q-143 0 -237 96.5t-94 245.5q0 120 59 225t163 169t226 64q116 0 208 -73t110 -190l-39 -11q-16 104 -96.5 170t-188.5 66q-164 0 -281.5 -126.5t-117.5 -292.5q0 -133 80.5 -220
t212.5 -87q118 0 206.5 64.5t137.5 172.5z" />
    <glyph glyph-name="ccircumflex" unicode="&#x109;" horiz-adv-x="618" 
d="M254 625h-42l178 172h43l88 -172h-35l-78 142zM293 -9q-104 0 -170.5 66t-66.5 172q0 123 90 218.5t213 95.5q90 0 150.5 -49.5t74.5 -129.5l-37 -12q-10 68 -61.5 111.5t-130.5 43.5q-103 0 -180 -85t-77 -192q0 -90 55 -146t144 -56q73 0 133 40.5t91 107.5l34 -15
q-35 -80 -104.5 -125t-157.5 -45z" />
    <glyph glyph-name="Cdotaccent" unicode="&#x10a;" horiz-adv-x="849" 
d="M571 899q-16 0 -26 10t-10 26q0 18 13 31t31 13q16 0 26 -9.5t10 -25.5q0 -19 -12.5 -32t-31.5 -13zM812 250q-50 -118 -150.5 -188t-236.5 -70q-143 0 -237 96.5t-94 245.5q0 120 59 225t163 169t226 64q116 0 208 -73t110 -190l-39 -11q-16 104 -96.5 170t-188.5 66
q-164 0 -281.5 -126.5t-117.5 -292.5q0 -133 80.5 -220t212.5 -87q118 0 206.5 64.5t137.5 172.5z" />
    <glyph glyph-name="cdotaccent" unicode="&#x10b;" horiz-adv-x="618" 
d="M379 668q-16 0 -26 10t-10 26q0 19 13 32t31 13q16 0 26 -10t10 -26q0 -19 -12.5 -32t-31.5 -13zM293 -9q-104 0 -170.5 66t-66.5 172q0 123 90 218.5t213 95.5q90 0 150.5 -49.5t74.5 -129.5l-37 -12q-10 68 -61.5 111.5t-130.5 43.5q-103 0 -180 -85t-77 -192
q0 -90 55 -146t144 -56q73 0 133 40.5t91 107.5l34 -15q-35 -80 -104.5 -125t-157.5 -45z" />
    <glyph glyph-name="Ccaron" unicode="&#x10c;" horiz-adv-x="849" 
d="M713 1026h42l-177 -172h-44l-88 172h35l78 -141zM812 250q-50 -118 -150.5 -188t-236.5 -70q-143 0 -237 96.5t-94 245.5q0 120 59 225t163 169t226 64q116 0 208 -73t110 -190l-39 -11q-16 104 -96.5 170t-188.5 66q-164 0 -281.5 -126.5t-117.5 -292.5
q0 -133 80.5 -220t212.5 -87q118 0 206.5 64.5t137.5 172.5z" />
    <glyph glyph-name="ccaron" unicode="&#x10d;" horiz-adv-x="618" 
d="M534 797h42l-178 -172h-43l-88 172h35l78 -142zM293 -9q-104 0 -170.5 66t-66.5 172q0 123 90 218.5t213 95.5q90 0 150.5 -49.5t74.5 -129.5l-37 -12q-10 68 -61.5 111.5t-130.5 43.5q-103 0 -180 -85t-77 -192q0 -90 55 -146t144 -56q73 0 133 40.5t91 107.5l34 -15
q-35 -80 -104.5 -125t-157.5 -45z" />
    <glyph glyph-name="Dcaron" unicode="&#x10e;" horiz-adv-x="806" 
d="M645 1026h42l-178 -172h-43l-89 172h36l78 -141zM260 783h128q203 0 311 -106q86 -86 86 -223q0 -182 -123 -305q-72 -72 -176 -110.5t-223 -38.5h-212zM742 452q0 122 -75 197q-95 97 -277 97h-98l-189 -708h166q224 0 360 134q113 111 113 280z" />
    <glyph glyph-name="dcaron" unicode="&#x10f;" horiz-adv-x="702" 
d="M823 815h48l-86 -200h-29zM351 543q94 0 151 -51t72 -122l117 444h39q-175 -666 -215 -814h-38l34 126h-1q-34 -53 -98.5 -93.5t-141.5 -40.5q-94 0 -154.5 63t-60.5 159q0 131 86 230t210 99zM355 507q-112 0 -185.5 -88t-73.5 -199q0 -84 50.5 -138t129.5 -54
q111 0 194.5 90t83.5 189q0 86 -55 143t-144 57z" />
    <glyph glyph-name="Dcroat" unicode="&#x110;" horiz-adv-x="820" 
d="M167 380h-83l11 38h82l97 365h127q205 0 311 -106q86 -85 86 -223q0 -181 -122 -305q-72 -72 -175.5 -110.5t-223.5 -38.5h-212zM756 452q0 120 -75 197q-95 97 -277 97h-99l-87 -328h272l-10 -38h-272l-92 -342h167q224 0 360 134q113 113 113 280z" />
    <glyph glyph-name="dcroat" unicode="&#x111;" horiz-adv-x="681" 
d="M55 214q0 131 86 230t210 99q94 0 151 -51t72 -122h1l75 287h-218l9 35h218l32 122h39l-32 -122h79l-9 -35h-79l-173 -657h-39l34 126h-1q-34 -53 -98.5 -93.5t-141.5 -40.5q-94 0 -154.5 63t-60.5 159zM355 507q-111 0 -185 -88t-74 -199q0 -84 50.5 -138t129.5 -54
q111 0 194.5 90t83.5 189q0 86 -55 143t-144 57z" />
    <glyph glyph-name="Emacron" unicode="&#x112;" horiz-adv-x="653" 
d="M682 880h-334l9 37h334zM260 783h468l-10 -37h-427l-87 -328h392l-10 -38h-392l-91 -342h430l-10 -38h-472z" />
    <glyph glyph-name="emacron" unicode="&#x113;" horiz-adv-x="611" 
d="M538 641h-334l9 37h334zM559 260q4 23 4 57q0 105 -55.5 165.5t-160.5 60.5q-117 0 -203.5 -95.5t-86.5 -215.5q0 -104 65.5 -172.5t168.5 -68.5q165 0 250 153l-33 18q-72 -134 -214 -134q-88 0 -142.5 58t-54.5 147q0 9 2 27h460zM103 296q14 82 88 146.5t153 64.5
q88 0 133.5 -51t45.5 -139q0 -14 -1 -21h-419z" />
    <glyph glyph-name="Edotaccent" unicode="&#x116;" horiz-adv-x="653" 
d="M520 899q-16 0 -26.5 10t-10.5 26q0 18 13 31t31 13q16 0 26 -9.5t10 -25.5q0 -19 -12.5 -32t-30.5 -13zM260 783h468l-10 -37h-427l-87 -328h392l-10 -38h-392l-91 -342h430l-10 -38h-472z" />
    <glyph glyph-name="edotaccent" unicode="&#x117;" horiz-adv-x="611" 
d="M365 668q-16 0 -26 10t-10 26q0 19 12.5 32t31.5 13q15 0 25.5 -10t10.5 -26q0 -19 -13 -32t-31 -13zM559 260q4 23 4 57q0 105 -55.5 165.5t-160.5 60.5q-117 0 -203.5 -95.5t-86.5 -215.5q0 -104 65.5 -172.5t168.5 -68.5q165 0 250 153l-33 18q-72 -134 -214 -134
q-88 0 -142.5 58t-54.5 147q0 9 2 27h460zM103 296q14 82 88 146.5t153 64.5q88 0 133.5 -51t45.5 -139q0 -14 -1 -21h-419z" />
    <glyph glyph-name="Eogonek" unicode="&#x118;" horiz-adv-x="653" 
d="M499 -241q-13 -3 -28 -3q-44 0 -74.5 24.5t-30.5 67.5q0 44 36 85t82 67h-433l209 783h468l-10 -37h-427l-87 -328h392l-10 -38h-392l-91 -342h430l-10 -38q-119 -75 -119 -141q0 -68 83 -68q13 0 20 1z" />
    <glyph glyph-name="eogonek" unicode="&#x119;" horiz-adv-x="611" 
d="M99 260q-2 -18 -2 -27q0 -89 54.5 -147t142.5 -58q142 0 214 134l33 -18q-66 -119 -183 -145q-117 -76 -117 -140q0 -35 23.5 -51.5t60.5 -16.5q13 0 20 1l-9 -33q-14 -3 -28 -3q-44 0 -74.5 24.5t-30.5 67.5q0 40 31 78t74 66q-6 -1 -17 -1q-103 0 -168.5 68.5
t-65.5 172.5q0 120 86.5 215.5t203.5 95.5q105 0 160.5 -60.5t55.5 -165.5q0 -34 -4 -57h-460zM344 507q-79 0 -153 -64.5t-88 -146.5h419q1 7 1 21q0 88 -45.5 139t-133.5 51z" />
    <glyph glyph-name="Ecaron" unicode="&#x11a;" horiz-adv-x="653" 
d="M661 1026h42l-178 -172h-43l-88 172h35l78 -141zM260 783h468l-10 -37h-427l-87 -328h392l-10 -38h-392l-91 -342h430l-10 -38h-472z" />
    <glyph glyph-name="ecaron" unicode="&#x11b;" horiz-adv-x="611" 
d="M521 797h43l-178 -172h-43l-89 172h36l78 -142zM559 260q4 23 4 57q0 105 -55.5 165.5t-160.5 60.5q-117 0 -203.5 -95.5t-86.5 -215.5q0 -104 65.5 -172.5t168.5 -68.5q165 0 250 153l-33 18q-72 -134 -214 -134q-88 0 -142.5 58t-54.5 147q0 9 2 27h460zM103 296
q14 82 88 146.5t153 64.5q88 0 133.5 -51t45.5 -139q0 -14 -1 -21h-419z" />
    <glyph glyph-name="Gcircumflex" unicode="&#x11c;" horiz-adv-x="865" 
d="M422 854h-43l178 173h44l88 -172h-36l-77 142zM443 365h403q-21 -171 -142.5 -272t-278.5 -101q-147 0 -239.5 93t-92.5 240q0 191 131 329t310 138q73 0 133 -24t97 -62t58.5 -78.5t28.5 -80.5l-38 -11q-4 21 -13 44.5t-30.5 56t-50.5 57t-77.5 42.5t-108.5 18
q-115 0 -208 -63t-142 -160t-49 -205q0 -132 81 -215t211 -83q189 0 301 146q56 74 71 153h-365z" />
    <glyph glyph-name="gcircumflex" unicode="&#x11d;" horiz-adv-x="682" 
d="M263 625h-43l178 172h43l89 -172h-36l-77 142zM619 534l-42 -157q-13 66 -73 116t-147 50q-126 0 -212 -91.5t-86 -222.5q0 -93 62 -156.5t153 -63.5q74 0 141 39t98 89h1l-38 -146q-29 -109 -97.5 -165t-169.5 -56q-58 0 -100.5 20t-63 51.5t-29.5 60t-9 55.5l-38 -8
q1 -37 15 -73.5t41 -69t74.5 -53t108.5 -20.5q118 0 196 65.5t109 183.5l144 552h-38zM558 316q0 -98 -82.5 -184t-194.5 -86q-77 0 -129 53t-52 133q0 111 72.5 192.5t184.5 81.5q89 0 145 -55t56 -135z" />
    <glyph glyph-name="Gbreve" unicode="&#x11e;" horiz-adv-x="865" 
d="M752 1025q-23 -74 -75.5 -117t-127.5 -43q-47 0 -78.5 17.5t-42 42t-16 52t0.5 48.5h30q-7 -124 112 -124q108 0 165 124h32zM798 327q-15 -79 -71 -153q-112 -146 -301 -146q-130 0 -211 83t-81 215q0 108 49 205t142 160t208 63q60 0 108.5 -18t77.5 -42.5t50.5 -57
t30.5 -56t13 -44.5l38 11q-7 40 -28.5 80.5t-58.5 78.5t-97 62t-133 24q-179 0 -310 -138t-131 -329q0 -147 92.5 -240t239.5 -93q157 0 278.5 101t142.5 272h-403l-10 -38h365z" />
    <glyph glyph-name="gbreve" unicode="&#x11f;" horiz-adv-x="682" 
d="M576 785q-23 -74 -75.5 -117t-127.5 -43q-47 0 -78.5 17.5t-42 42t-16 52t0.5 48.5h30q-7 -124 112 -124q108 0 165 124h32zM619 534l-42 -157q-13 66 -73 116t-147 50q-126 0 -212 -91.5t-86 -222.5q0 -93 62 -156.5t153 -63.5q74 0 141 39t98 89h1l-38 -146
q-29 -109 -97.5 -165t-169.5 -56q-58 0 -100.5 20t-63 51.5t-29.5 60t-9 55.5l-38 -8q1 -37 15 -73.5t41 -69t74.5 -53t108.5 -20.5q118 0 196 65.5t109 183.5l144 552h-38zM558 316q0 -98 -82.5 -184t-194.5 -86q-77 0 -129 53t-52 133q0 111 72.5 192.5t184.5 81.5
q89 0 145 -55t56 -135z" />
    <glyph glyph-name="Gdotaccent" unicode="&#x120;" horiz-adv-x="865" 
d="M552 899q-16 0 -26 10t-10 26q0 18 13 31t31 13q16 0 26 -9.5t10 -25.5q0 -19 -12.5 -32t-31.5 -13zM443 365h403q-21 -171 -142.5 -272t-278.5 -101q-147 0 -239.5 93t-92.5 240q0 191 131 329t310 138q73 0 133 -24t97 -62t58.5 -78.5t28.5 -80.5l-38 -11
q-4 21 -13 44.5t-30.5 56t-50.5 57t-77.5 42.5t-108.5 18q-115 0 -208 -63t-142 -160t-49 -205q0 -132 81 -215t211 -83q189 0 301 146q56 74 71 153h-365z" />
    <glyph glyph-name="gdotaccent" unicode="&#x121;" horiz-adv-x="682" 
d="M390 668q-16 0 -26 10t-10 26q0 19 12.5 32t30.5 13q16 0 26.5 -10t10.5 -26q0 -19 -13 -32t-31 -13zM619 534l-42 -157q-13 66 -73 116t-147 50q-126 0 -212 -91.5t-86 -222.5q0 -93 62 -156.5t153 -63.5q74 0 141 39t98 89h1l-38 -146q-29 -109 -97.5 -165t-169.5 -56
q-58 0 -100.5 20t-63 51.5t-29.5 60t-9 55.5l-38 -8q1 -37 15 -73.5t41 -69t74.5 -53t108.5 -20.5q118 0 196 65.5t109 183.5l144 552h-38zM558 316q0 -98 -82.5 -184t-194.5 -86q-77 0 -129 53t-52 133q0 111 72.5 192.5t184.5 81.5q89 0 145 -55t56 -135z" />
    <glyph glyph-name="Gcommaaccent" unicode="&#x122;" horiz-adv-x="865" 
d="M443 365h403q-21 -171 -142.5 -272t-278.5 -101q-147 0 -239.5 93t-92.5 240q0 191 131 329t310 138q73 0 133 -24t97 -62t58.5 -78.5t28.5 -80.5l-38 -11q-4 21 -13 44.5t-30.5 56t-50.5 57t-77.5 42.5t-108.5 18q-115 0 -208 -63t-142 -160t-49 -205q0 -132 81 -215
t211 -83q189 0 301 146q56 74 71 153h-365zM396 -143q-14 0 -22.5 8.5t-8.5 20.5q0 18 11.5 30.5t29.5 12.5q16 0 26.5 -11t10.5 -31q0 -39 -25.5 -72.5t-64.5 -54.5l-16 20q58 37 70 78q-4 -1 -11 -1z" />
    <glyph glyph-name="gcommaaccent" unicode="&#x123;" horiz-adv-x="682" 
d="M407 702q15 0 23.5 -8.5t8.5 -21.5q0 -17 -12 -30t-29 -13t-27.5 11t-10.5 31q0 76 90 128l17 -21q-60 -38 -70 -77zM619 534l-42 -157q-13 66 -73 116t-147 50q-126 0 -212 -91.5t-86 -222.5q0 -93 62 -156.5t153 -63.5q74 0 141 39t98 89h1l-38 -146
q-29 -109 -97.5 -165t-169.5 -56q-58 0 -100.5 20t-63 51.5t-29.5 60t-9 55.5l-38 -8q1 -37 15 -73.5t41 -69t74.5 -53t108.5 -20.5q118 0 196 65.5t109 183.5l144 552h-38zM558 316q0 -98 -82.5 -184t-194.5 -86q-77 0 -129 53t-52 133q0 111 72.5 192.5t184.5 81.5
q89 0 145 -55t56 -135z" />
    <glyph glyph-name="Hbar" unicode="&#x126;" horiz-adv-x="828" 
d="M798 590l-158 -590h-41l101 380h-506l-101 -380h-42l158 590h-82l10 37h82l41 156h42l-42 -156h506l42 156h41l-41 -156h82l-10 -37h-82zM250 590l-46 -172h506l46 172h-506z" />
    <glyph glyph-name="hbar" unicode="&#x127;" horiz-adv-x="630" 
d="M392 543q82 0 127 -46t45 -121q0 -35 -13 -83l-76 -293h-39l78 297q10 39 10 77q0 62 -35.5 97.5t-105.5 35.5q-74 0 -142 -57t-93 -149l-80 -301h-39l174 657h-79l8 35h79l33 122h39l-33 -122h219l-10 -35h-218l-65 -247q83 133 216 133z" />
    <glyph glyph-name="Itilde" unicode="&#x128;" horiz-adv-x="280" 
d="M474 942q-16 -36 -41.5 -61.5t-57.5 -25.5q-30 0 -72 34t-67 34q-41 0 -72 -62l-27 13q41 83 103 83q34 0 75 -33.5t63 -33.5q42 0 70 61zM260 783l-209 -783h41l210 783h-42z" />
    <glyph glyph-name="itilde" unicode="&#x129;" horiz-adv-x="234" 
d="M395 712q-40 -86 -100 -86q-30 0 -71.5 33.5t-66.5 33.5q-41 0 -73 -61l-26 12q41 84 103 84q33 0 74.5 -33.5t63.5 -33.5q41 0 70 61zM30 0h40l140 534h-40z" />
    <glyph glyph-name="Imacron" unicode="&#x12a;" horiz-adv-x="280" 
d="M433 880h-269l9 37h270zM302 783l-210 -783h-41l209 783h42z" />
    <glyph glyph-name="imacron" unicode="&#x12b;" horiz-adv-x="234" 
d="M351 641h-265l10 37h265zM170 534h40l-140 -534h-40z" />
    <glyph glyph-name="Ibreve" unicode="&#x12c;" horiz-adv-x="280" 
d="M494 1025q-23 -74 -75.5 -117t-127.5 -43q-47 0 -78.5 17.5t-42 42t-16 52t0.5 48.5h30q-7 -124 112 -124q108 0 165 124h32zM302 783l-210 -783h-41l209 783h42z" />
    <glyph glyph-name="ibreve" unicode="&#x12d;" horiz-adv-x="234" 
d="M412 785q-23 -74 -75.5 -117t-127.5 -43q-47 0 -78.5 17.5t-42 42t-16 52t0.5 48.5h30q-7 -124 112 -124q108 0 165 124h32zM170 534h40l-140 -534h-40z" />
    <glyph glyph-name="Iogonek" unicode="&#x12e;" horiz-adv-x="281" 
d="M302 783l-209 -783q-120 -74 -120 -141q0 -35 23.5 -51.5t60.5 -16.5q13 0 20 1l-9 -33q-14 -3 -28 -3q-44 0 -74 24.5t-30 67.5q0 44 36 85t81 67h-2l210 783h41z" />
    <glyph glyph-name="iogonek" unicode="&#x12f;" horiz-adv-x="234" 
d="M242 759q16 0 26.5 -10t10.5 -26q0 -19 -13 -31.5t-32 -12.5q-15 0 -25 9.5t-10 25.5q0 19 12.5 32t30.5 13zM209 534l-140 -534q-119 -75 -119 -141q0 -68 83 -68q13 0 20 1l-9 -33q-14 -3 -27 -3q-44 0 -74.5 24.5t-30.5 67.5q0 44 36 85t82 67l140 534h39z" />
    <glyph glyph-name="Idotaccent" unicode="&#x130;" horiz-adv-x="280" 
d="M306 899q-16 0 -26 10t-10 26q0 18 12.5 31t30.5 13q16 0 26.5 -9.5t10.5 -25.5q0 -19 -13 -32t-31 -13zM302 783l-210 -783h-41l209 783h42z" />
    <glyph glyph-name="dotlessi" unicode="&#x131;" horiz-adv-x="234" 
d="M170 534h40l-140 -534h-40z" />
    <glyph glyph-name="IJ" unicode="&#x132;" horiz-adv-x="679" 
d="M156 279l-2 -8q-11 -40 -11 -75q0 -76 45 -121.5t119 -45.5q83 0 135.5 53t75.5 138l149 563h42l-151 -568q-60 -223 -253 -223q-94 0 -148.5 55.5t-54.5 141.5q0 38 12 88zM146 395h41l104 388h-42z" />
    <glyph glyph-name="Kcommaaccent" unicode="&#x136;" horiz-adv-x="646" 
d="M92 0h-41l209 783h42l-97 -364h4l499 364h61l-521 -381l335 -402h-54l-325 397h-5zM266 -143q-14 0 -22.5 8.5t-8.5 20.5q0 18 11.5 30.5t29.5 12.5q16 0 26.5 -11t10.5 -31q0 -39 -25.5 -72.5t-64.5 -54.5l-16 20q58 37 70 78q-4 -1 -11 -1z" />
    <glyph glyph-name="kcommaaccent" unicode="&#x137;" horiz-adv-x="505" 
d="M496 534h66l-374 -246l248 -288h-51l-240 282h-2l-75 -282h-39l215 814h39l-135 -512h2zM184 -143q-14 0 -22.5 8.5t-8.5 20.5q0 18 11.5 30.5t29.5 12.5q16 0 26.5 -11t10.5 -31q0 -39 -25.5 -72.5t-64.5 -54.5l-16 20q58 37 70 78q-4 -1 -11 -1z" />
    <glyph glyph-name="Lacute" unicode="&#x139;" horiz-adv-x="567" 
d="M432 1027h48l-167 -173h-39zM260 783h42l-199 -745h391l-11 -38h-432z" />
    <glyph glyph-name="lacute" unicode="&#x13a;" horiz-adv-x="234" 
d="M409 1056h49l-167 -173h-40zM284 814l-215 -814h-40l215 814h40z" />
    <glyph glyph-name="Lcommaaccent" unicode="&#x13b;" horiz-adv-x="567" 
d="M260 783h42l-199 -745h391l-11 -38h-432zM253 -143q-14 0 -22.5 8.5t-8.5 20.5q0 18 11.5 30.5t29.5 12.5q16 0 26.5 -11t10.5 -31q0 -39 -25.5 -72.5t-64.5 -54.5l-16 20q58 37 70 78q-4 -1 -11 -1z" />
    <glyph glyph-name="lcommaaccent" unicode="&#x13c;" horiz-adv-x="234" 
d="M284 814l-215 -814h-40l215 814h40zM19 -143q-14 0 -22.5 8.5t-8.5 20.5q0 18 11.5 30.5t29.5 12.5q16 0 26.5 -11t10.5 -31q0 -39 -25.5 -72.5t-64.5 -54.5l-16 20q58 37 70 78q-4 -1 -11 -1z" />
    <glyph glyph-name="Lcaron" unicode="&#x13d;" horiz-adv-x="570" 
d="M546 800h48l-86 -199h-29zM260 783h42l-199 -745h391l-11 -38h-432z" />
    <glyph glyph-name="lcaron" unicode="&#x13e;" horiz-adv-x="253" 
d="M376 815h48l-86 -200h-28zM284 814l-215 -814h-40l215 814h40z" />
    <glyph glyph-name="Ldot" unicode="&#x13f;" horiz-adv-x="588" 
d="M260 783h42l-199 -745h391l-11 -38h-432zM539 336q-16 0 -26 10t-10 26q0 18 12.5 31.5t30.5 13.5q16 0 26.5 -10t10.5 -26q0 -19 -13 -32t-31 -13z" />
    <glyph glyph-name="ldot" unicode="&#x140;" horiz-adv-x="317" 
d="M284 814l-215 -814h-40l215 814h40zM303 336q-16 0 -26 10t-10 26q0 18 13 31.5t31 13.5q16 0 26 -10t10 -26q0 -19 -12.5 -32t-31.5 -13z" />
    <glyph glyph-name="Lslash" unicode="&#x141;" horiz-adv-x="576" 
d="M111 38h390l-10 -38h-432l90 339l-117 -47l10 44l119 47l107 400h42l-102 -382l274 110l-11 -44l-275 -110z" />
    <glyph glyph-name="lslash" unicode="&#x142;" horiz-adv-x="310" 
d="M109 0h-40l104 395l-114 -49l12 43l114 49l99 376h39l-94 -357l114 49l-11 -42l-115 -50z" />
    <glyph glyph-name="Nacute" unicode="&#x143;" horiz-adv-x="855" 
d="M720 1027h48l-166 -173h-40zM91 0h-40l209 783h49l332 -730l195 730h41l-210 -783h-45l-334 734z" />
    <glyph glyph-name="nacute" unicode="&#x144;" horiz-adv-x="631" 
d="M535 797h48l-166 -172h-40zM392 543q-133 0 -216 -133l33 124h-39l-140 -534h39l79 301q25 92 93.5 149t141.5 57q70 0 105.5 -35.5t35.5 -97.5q0 -42 -9 -77l-79 -297h39l77 293q13 48 13 83q0 75 -45 121t-128 46z" />
    <glyph glyph-name="Ncommaaccent" unicode="&#x145;" horiz-adv-x="855" 
d="M91 0h-40l209 783h49l332 -730l195 730h41l-210 -783h-45l-334 734zM328 -143q-14 0 -22.5 8.5t-8.5 20.5q0 18 11.5 30.5t29.5 12.5q16 0 26.5 -11t10.5 -31q0 -39 -25.5 -72.5t-64.5 -54.5l-16 20q58 37 70 78q-4 -1 -11 -1z" />
    <glyph glyph-name="ncommaaccent" unicode="&#x146;" horiz-adv-x="631" 
d="M392 543q83 0 128 -46t45 -121q0 -35 -13 -83l-77 -293h-39l79 297q9 35 9 77q0 62 -35.5 97.5t-105.5 35.5q-73 0 -141.5 -57t-93.5 -149l-79 -301h-39l140 534h39l-33 -124q83 133 216 133zM243 -143q-14 0 -22.5 8.5t-8.5 20.5q0 18 11.5 30.5t29.5 12.5
q16 0 26.5 -11t10.5 -31q0 -39 -25.5 -72.5t-64.5 -54.5l-16 20q58 37 70 78q-4 -1 -11 -1z" />
    <glyph glyph-name="Ncaron" unicode="&#x147;" horiz-adv-x="855" 
d="M747 1017h43l-178 -172h-44l-88 172h35l78 -142zM91 0h-40l209 783h49l332 -730l195 730h41l-210 -783h-45l-334 734z" />
    <glyph glyph-name="ncaron" unicode="&#x148;" horiz-adv-x="631" 
d="M567 797h43l-178 -172h-43l-89 172h35l79 -142zM392 543q-133 0 -216 -133l33 124h-39l-140 -534h39l79 301q25 92 93.5 149t141.5 57q70 0 105.5 -35.5t35.5 -97.5q0 -42 -9 -77l-79 -297h39l77 293q13 48 13 83q0 75 -45 121t-128 46z" />
    <glyph glyph-name="Eng" unicode="&#x14a;" horiz-adv-x="855" 
d="M91 0h-40l209 783h49l332 -730l195 730h41l-246 -920q-17 -63 -54 -96.5t-106 -33.5q-23 0 -45 8l10 35q17 -6 36 -6q95 0 120 98l33 126l-337 740z" />
    <glyph glyph-name="eng" unicode="&#x14b;" horiz-adv-x="631" 
d="M515 297q9 35 9 77q0 62 -35.5 97.5t-105.5 35.5q-73 0 -141.5 -57t-93.5 -149l-79 -301h-39l140 534h39l-33 -124q83 133 216 133q83 0 128 -46t45 -121q0 -35 -13 -83l-113 -430q-17 -63 -53 -96.5t-105 -33.5q-23 0 -45 8l10 35q16 -6 36 -6q94 0 119 98z" />
    <glyph glyph-name="Omacron" unicode="&#x14c;" horiz-adv-x="886" 
d="M718 880h-334l10 37h333zM424 -8q-145 0 -238.5 96t-93.5 237q0 119 58.5 226.5t161 174t221.5 66.5q146 0 239.5 -96t93.5 -238q0 -119 -58.5 -226.5t-161.5 -173.5t-222 -66zM425 28q109 0 202 61t145 159.5t52 207.5q0 128 -81.5 213t-210.5 85q-109 0 -202 -61
t-145 -159t-52 -208q0 -127 81.5 -212.5t210.5 -85.5z" />
    <glyph glyph-name="omacron" unicode="&#x14d;" horiz-adv-x="655" 
d="M552 641h-334l10 37h333zM293 -9q-105 0 -171.5 66.5t-66.5 168.5q0 79 40 151.5t112.5 119t158.5 46.5q105 0 172 -66t67 -168q0 -124 -91.5 -221t-220.5 -97zM298 28q109 0 187.5 84.5t78.5 193.5q0 89 -55.5 145t-145.5 56q-110 0 -188.5 -85t-78.5 -193
q0 -89 56 -145t146 -56z" />
    <glyph glyph-name="Ohungarumlaut" unicode="&#x150;" horiz-adv-x="886" 
d="M606 1027h48l-166 -173h-40zM752 1027h49l-167 -173h-39zM424 -8q-145 0 -238.5 96t-93.5 237q0 119 58.5 226.5t161 174t221.5 66.5q146 0 239.5 -96t93.5 -238q0 -119 -58.5 -226.5t-161.5 -173.5t-222 -66zM425 28q109 0 202 61t145 159.5t52 207.5q0 128 -81.5 213
t-210.5 85q-109 0 -202 -61t-145 -159t-52 -208q0 -127 81.5 -212.5t210.5 -85.5z" />
    <glyph glyph-name="ohungarumlaut" unicode="&#x151;" horiz-adv-x="655" 
d="M445 797h48l-166 -172h-40zM591 797h49l-167 -172h-39zM293 -9q-105 0 -171.5 66.5t-66.5 168.5q0 79 40 151.5t112.5 119t158.5 46.5q105 0 172 -66t67 -168q0 -124 -91.5 -221t-220.5 -97zM298 28q109 0 187.5 84.5t78.5 193.5q0 89 -55.5 145t-145.5 56
q-110 0 -188.5 -85t-78.5 -193q0 -89 56 -145t146 -56z" />
    <glyph glyph-name="OE" unicode="&#x152;" horiz-adv-x="1317" 
d="M764 179h-1q-61 -87 -148.5 -137t-190.5 -50q-145 0 -238.5 96t-93.5 237q0 119 58.5 226.5t161 174t221.5 66.5q131 0 216.5 -80t100.5 -205h2l73 276h467l-11 -37h-425l-87 -328h391l-10 -38h-391l-91 -342h429l-10 -38h-471zM425 28q109 0 203 62t146 160
q50 94 50 206q0 127 -81.5 212.5t-210.5 85.5q-109 0 -202 -61t-145 -159t-52 -208q0 -127 81.5 -212.5t210.5 -85.5z" />
    <glyph glyph-name="oe" unicode="&#x153;" horiz-adv-x="1107" 
d="M595 260q-1 -9 -1 -27q0 -89 54.5 -147t142.5 -58q139 0 214 134l32 -18q-83 -153 -249 -153q-86 0 -145.5 48t-77.5 128q-38 -78 -110 -127t-161 -49q-105 0 -172 66.5t-67 168.5q0 79 40 151.5t112.5 119t158.5 46.5q89 0 148.5 -47.5t75.5 -127.5q37 77 105 126
t149 49q105 0 160.5 -60.5t55.5 -165.5q0 -34 -4 -57h-461zM298 28q109 0 187 84.5t78 193.5q0 89 -55 145t-144 56q-111 0 -189.5 -85t-78.5 -193q0 -89 56 -145t146 -56zM1019 296q1 7 1 21q0 88 -46 139t-133 51q-79 0 -153 -64.5t-88 -146.5h419z" />
    <glyph glyph-name="Racute" unicode="&#x154;" horiz-adv-x="702" 
d="M507 854h-40l158 173h48zM455 783q123 0 191 -51.5t68 -145.5q0 -98 -66 -162q-81 -80 -236 -89l182 -335h-48l-178 332h-187l-89 -332h-41l209 783h195zM619 449q53 55 53 134q0 78 -56 120.5t-163 42.5h-162l-100 -376h182q167 0 246 79z" />
    <glyph glyph-name="racute" unicode="&#x155;" horiz-adv-x="353" 
d="M432 797h48l-167 -172h-39zM416 541q-69 2 -138 -39.5t-104 -103.5l-1 -1l36 137h-39l-140 -534h39l74 278q23 88 94.5 155t165.5 67h3z" />
    <glyph glyph-name="Rcommaaccent" unicode="&#x156;" horiz-adv-x="702" 
d="M455 783q124 0 191.5 -51.5t67.5 -145.5q0 -98 -66 -162q-81 -80 -236 -89l182 -335h-48l-178 332h-187l-89 -332h-41l209 783h195zM619 449q53 55 53 134q0 78 -56 120.5t-163 42.5h-162l-100 -376h182q167 0 246 79zM276 -143q-14 0 -22.5 8.5t-8.5 20.5
q0 18 11.5 30.5t29.5 12.5q16 0 26.5 -11t10.5 -31q0 -39 -25.5 -72.5t-64.5 -54.5l-16 20q58 37 70 78q-4 -1 -11 -1z" />
    <glyph glyph-name="rcommaaccent" unicode="&#x157;" horiz-adv-x="353" 
d="M406 500h-3q-94 0 -165.5 -67t-94.5 -155l-74 -278h-39l140 534h39l-36 -137l1 1q35 62 104 103.5t138 39.5zM27 -143q-14 0 -22.5 8.5t-8.5 20.5q0 18 11.5 30.5t29.5 12.5q16 0 26.5 -11t10.5 -31q0 -39 -25.5 -72.5t-64.5 -54.5l-16 20q58 37 70 78q-4 -1 -11 -1z" />
    <glyph glyph-name="Rcaron" unicode="&#x158;" horiz-adv-x="702" 
d="M650 1026h42l-177 -172h-44l-88 172h35l78 -141zM455 783q123 0 191 -51.5t68 -145.5q0 -98 -66 -162q-81 -80 -236 -89l182 -335h-48l-178 332h-187l-89 -332h-41l209 783h195zM619 449q53 55 53 134q0 78 -56 120.5t-163 42.5h-162l-100 -376h182q167 0 246 79z" />
    <glyph glyph-name="rcaron" unicode="&#x159;" horiz-adv-x="353" 
d="M462 797h43l-178 -172h-43l-89 172h35l79 -142zM416 541q-69 2 -138 -39.5t-104 -103.5l-1 -1l36 137h-39l-140 -534h39l74 278q23 88 94.5 155t165.5 67h3z" />
    <glyph glyph-name="Sacute" unicode="&#x15a;" horiz-adv-x="633" 
d="M552 1027h48l-166 -173h-40zM308 -9q105 0 180 57t75 159q0 66 -45 109t-124 82l-56 28q-31 16 -50 27.5t-43.5 31t-37 43t-12.5 51.5q0 83 62.5 128.5t149.5 45.5q57 0 99 -20.5t62 -51t28.5 -58t8.5 -49.5l40 7q0 47 -28 97q-64 113 -209 113q-105 0 -179.5 -57.5
t-74.5 -156.5q0 -34 15 -64t42 -53t50.5 -37t54.5 -30l57 -29q34 -17 53 -28.5t45 -31.5t38 -44.5t12 -54.5q0 -85 -62 -131t-149 -46q-94 0 -156 66t-61 162l-40 -6q0 -108 73.5 -183.5t181.5 -75.5z" />
    <glyph glyph-name="sacute" unicode="&#x15b;" horiz-adv-x="490" 
d="M422 797h49l-167 -172h-39zM282 543q-74 0 -129 -40.5t-55 -111.5q0 -74 107 -120l68 -29q95 -40 95 -99q0 -56 -43.5 -85.5t-102.5 -29.5q-81 0 -120 44.5t-38 100.5l-39 -9q0 -65 49.5 -119t146.5 -54q75 0 130.5 41t55.5 114q0 81 -112 127l-73 31q-39 17 -61.5 37.5
t-22.5 52.5q0 54 42.5 83t99.5 29q38 0 67 -12t45 -31.5t24 -37.5t11 -36l37 9q-2 23 -13.5 47t-32 46.5t-56 37t-80.5 14.5z" />
    <glyph glyph-name="Scircumflex" unicode="&#x15c;" horiz-adv-x="633" 
d="M304 854h-42l177 173h44l88 -172h-35l-78 142zM308 -9q105 0 180 57t75 159q0 66 -45 109t-124 82l-56 28q-31 16 -50 27.5t-43.5 31t-37 43t-12.5 51.5q0 83 62.5 128.5t149.5 45.5q57 0 99 -20.5t62 -51t28.5 -58t8.5 -49.5l40 7q0 47 -28 97q-64 113 -209 113
q-105 0 -179.5 -57.5t-74.5 -156.5q0 -34 15 -64t42 -53t50.5 -37t54.5 -30l57 -29q34 -17 53 -28.5t45 -31.5t38 -44.5t12 -54.5q0 -85 -62 -131t-149 -46q-94 0 -156 66t-61 162l-40 -6q0 -108 73.5 -183.5t181.5 -75.5z" />
    <glyph glyph-name="scircumflex" unicode="&#x15d;" horiz-adv-x="490" 
d="M182 625h-42l177 172h44l88 -172h-35l-78 142zM282 543q-74 0 -129 -40.5t-55 -111.5q0 -74 107 -120l68 -29q95 -40 95 -99q0 -56 -43.5 -85.5t-102.5 -29.5q-81 0 -120 44.5t-38 100.5l-39 -9q0 -65 49.5 -119t146.5 -54q75 0 130.5 41t55.5 114q0 81 -112 127l-73 31
q-39 17 -61.5 37.5t-22.5 52.5q0 54 42.5 83t99.5 29q38 0 67 -12t45 -31.5t24 -37.5t11 -36l37 9q-2 23 -13.5 47t-32 46.5t-56 37t-80.5 14.5z" />
    <glyph glyph-name="Scedilla" unicode="&#x15e;" horiz-adv-x="633" 
d="M289 -9q-101 8 -168.5 82t-67.5 177l40 6q-1 -96 61 -162t156 -66q87 0 149 46t62 131q0 30 -12 54.5t-38 44.5t-45 31.5t-53 28.5l-57 29q-31 16 -54.5 30t-50.5 37t-42 53t-15 64q0 99 74.5 156.5t179.5 57.5q145 0 209 -113q28 -50 28 -97l-40 -7q0 22 -8.5 49.5
t-28.5 58t-62 51t-99 20.5q-87 0 -149.5 -45.5t-62.5 -128.5q0 -28 12.5 -51.5t37 -43t43.5 -31t50 -27.5l56 -28q79 -39 124 -82t45 -109q0 -97 -67.5 -153.5t-167.5 -62.5q39 -39 39 -90q0 -64 -44 -103t-110 -39q-59 0 -93 19l8 31q40 -15 80 -15q52 0 86.5 30.5
t34.5 79.5q0 47 -40 87z" />
    <glyph glyph-name="scedilla" unicode="&#x15f;" horiz-adv-x="490" 
d="M282 543q45 0 80.5 -14.5t56 -37t32 -46.5t13.5 -47l-37 -9q-3 18 -11 36t-24 37.5t-45 31.5t-67 12q-57 0 -99.5 -29t-42.5 -83q0 -32 22.5 -52.5t61.5 -37.5l73 -31q112 -46 112 -127q0 -70 -49.5 -110t-120.5 -45q39 -39 39 -90q0 -64 -44 -103t-110 -39q-60 0 -93 19
l8 31q40 -15 81 -15q51 0 85.5 30.5t34.5 79.5q0 48 -40 88q-86 7 -129.5 59t-43.5 113l39 9q-1 -56 38 -100.5t120 -44.5q59 0 102.5 29.5t43.5 85.5q0 59 -95 99l-68 29q-107 46 -107 120q0 71 55 111.5t129 40.5z" />
    <glyph glyph-name="Scaron" unicode="&#x160;" horiz-adv-x="633" 
d="M578 1026h42l-178 -172h-43l-88 172h35l78 -141zM308 -9q105 0 180 57t75 159q0 66 -45 109t-124 82l-56 28q-31 16 -50 27.5t-43.5 31t-37 43t-12.5 51.5q0 83 62.5 128.5t149.5 45.5q57 0 99 -20.5t62 -51t28.5 -58t8.5 -49.5l40 7q0 47 -28 97q-64 113 -209 113
q-105 0 -179.5 -57.5t-74.5 -156.5q0 -34 15 -64t42 -53t50.5 -37t54.5 -30l57 -29q34 -17 53 -28.5t45 -31.5t38 -44.5t12 -54.5q0 -85 -62 -131t-149 -46q-94 0 -156 66t-61 162l-40 -6q0 -108 73.5 -183.5t181.5 -75.5z" />
    <glyph glyph-name="scaron" unicode="&#x161;" horiz-adv-x="490" 
d="M461 797h43l-178 -172h-43l-89 172h35l79 -142zM282 543q-74 0 -129 -40.5t-55 -111.5q0 -74 107 -120l68 -29q95 -40 95 -99q0 -56 -43.5 -85.5t-102.5 -29.5q-81 0 -120 44.5t-38 100.5l-39 -9q0 -65 49.5 -119t146.5 -54q75 0 130.5 41t55.5 114q0 81 -112 127l-73 31
q-39 17 -61.5 37.5t-22.5 52.5q0 54 42.5 83t99.5 29q38 0 67 -12t45 -31.5t24 -37.5t11 -36l37 9q-2 23 -13.5 47t-32 46.5t-56 37t-80.5 14.5z" />
    <glyph glyph-name="uni0162" unicode="&#x162;" horiz-adv-x="608" 
d="M413 746h-264l11 37h564l-11 -37h-258l-200 -746h-1q21 -18 35 -45.5t14 -53.5q0 -64 -44.5 -103t-110.5 -39q-59 0 -93 19l8 31q40 -15 81 -15q51 0 85.5 30.5t34.5 79.5q0 56 -49 96h-1z" />
    <glyph glyph-name="uni0163" unicode="&#x163;" horiz-adv-x="340" 
d="M108 23q-23 23 -23 66q0 28 10 61l92 348h-102l9 36h102l40 152h40l-41 -152h138l-10 -36h-137l-93 -354q-8 -27 -8 -51q0 -61 79 -61q18 0 43 5l-10 -37q-23 -5 -41 -5q-20 0 -36 3q25 -29 25 -65q0 -64 -44 -103t-110 -39q-60 0 -93 20l9 30q40 -15 80 -15
q51 0 85.5 31t34.5 80q0 45 -39 86z" />
    <glyph glyph-name="Tcaron" unicode="&#x164;" horiz-adv-x="608" 
d="M617 1026h43l-178 -172h-44l-88 172h35l78 -141zM214 0l199 746h-264l11 37h564l-11 -37h-258l-200 -746h-41z" />
    <glyph glyph-name="tcaron" unicode="&#x165;" horiz-adv-x="339" 
d="M426 815h48l-86 -200h-29zM132 144q-7 -24 -7 -51q0 -61 78 -61q18 0 43 5l-10 -37q-23 -5 -41 -5q-111 0 -111 94q0 21 10 61l92 348h-102l9 36h102l40 152h40l-41 -152h138l-10 -36h-137z" />
    <glyph glyph-name="Tbar" unicode="&#x166;" horiz-adv-x="633" 
d="M337 418l87 328h-263l9 37h564l-9 -37h-259l-88 -328h166l-10 -38h-166l-101 -380h-42l102 380h-166l10 38h166z" />
    <glyph glyph-name="tbar" unicode="&#x167;" horiz-adv-x="346" 
d="M181 313h128l-9 -35h-128l-35 -134q-8 -27 -8 -51q0 -61 79 -61q19 0 42 5l-9 -37q-23 -5 -41 -5q-111 0 -111 94q0 21 10 61l33 128h-96l9 35h97l48 185h-101l9 36h102l40 152h40l-41 -152h137l-9 -36h-137z" />
    <glyph glyph-name="Utilde" unicode="&#x168;" horiz-adv-x="783" 
d="M723 942q-39 -87 -100 -87q-30 0 -71.5 34t-66.5 34q-42 0 -73 -62l-26 13q42 83 103 83q33 0 74.5 -33.5t63.5 -33.5q39 0 70 61zM646 304q-36 -132 -104 -200q-74 -75 -180 -75q-98 0 -154 49.5t-56 138.5q0 51 14 99l124 467h-42l-120 -453q-17 -70 -17 -117
q0 -106 67.5 -164t181.5 -58q124 0 212 88q74 73 113 218l130 486h-42z" />
    <glyph glyph-name="utilde" unicode="&#x169;" horiz-adv-x="633" 
d="M584 712q-40 -86 -100 -86q-29 0 -71 33.5t-67 33.5q-39 0 -73 -61l-26 12q41 84 103 84q33 0 74.5 -33.5t63.5 -33.5q41 0 70 61zM427 0l33 124q-36 -57 -90.5 -95.5t-124.5 -38.5q-83 0 -128 46.5t-45 121.5q0 39 12 83l78 293h39l-79 -297q-10 -40 -10 -76
q0 -62 35.5 -98t106.5 -36q74 0 141.5 56.5t92.5 149.5l79 301h40l-141 -534h-39z" />
    <glyph glyph-name="Umacron" unicode="&#x16a;" horiz-adv-x="783" 
d="M719 880h-334l10 37h333zM685 297q-39 -145 -113 -218q-88 -88 -212 -88q-114 0 -181.5 58t-67.5 164q0 47 17 117l120 453h42l-124 -467q-14 -48 -14 -99q0 -89 56 -138.5t154 -49.5q106 0 180 75q68 68 104 200l127 479h42z" />
    <glyph glyph-name="umacron" unicode="&#x16b;" horiz-adv-x="633" 
d="M573 641h-333l9 37h334zM427 0l33 124q-36 -57 -90.5 -95.5t-124.5 -38.5q-83 0 -128 46.5t-45 121.5q0 39 12 83l78 293h39l-79 -297q-10 -40 -10 -76q0 -62 35.5 -98t106.5 -36q74 0 141.5 56.5t92.5 149.5l79 301h40l-141 -534h-39z" />
    <glyph glyph-name="Uring" unicode="&#x16e;" horiz-adv-x="783" 
d="M642 944q0 -46 -31.5 -78t-77.5 -32q-39 0 -64.5 25t-25.5 64q0 46 31.5 78.5t77.5 32.5q39 0 64.5 -25.5t25.5 -64.5zM607 943q0 24 -16.5 41t-41.5 17q-30 0 -50.5 -23.5t-20.5 -53.5q0 -25 16 -41t41 -16q31 0 51.5 22.5t20.5 53.5zM685 297q-39 -145 -113 -218
q-88 -88 -212 -88q-114 0 -181.5 58t-67.5 164q0 47 17 117l120 453h42l-124 -467q-14 -48 -14 -99q0 -89 56 -138.5t154 -49.5q106 0 180 75q68 68 104 200l127 479h42z" />
    <glyph glyph-name="uring" unicode="&#x16f;" horiz-adv-x="633" 
d="M507 714q0 -46 -31.5 -78t-77.5 -32q-39 0 -64 25t-25 64q0 46 31 78.5t77 32.5q39 0 64.5 -25.5t25.5 -64.5zM472 713q0 24 -16.5 41t-40.5 17q-30 0 -51 -23.5t-21 -53.5q0 -25 16 -41t41 -16q31 0 51.5 22.5t20.5 53.5zM427 0l33 124q-36 -57 -90.5 -95.5
t-124.5 -38.5q-83 0 -128 46.5t-45 121.5q0 39 12 83l78 293h39l-79 -297q-10 -40 -10 -76q0 -62 35.5 -98t106.5 -36q74 0 141.5 56.5t92.5 149.5l79 301h40l-141 -534h-39z" />
    <glyph glyph-name="Uhungarumlaut" unicode="&#x170;" horiz-adv-x="783" 
d="M595 1027h48l-166 -173h-40zM741 1027h49l-167 -173h-40zM685 297q-39 -145 -113 -218q-88 -88 -212 -88q-114 0 -181.5 58t-67.5 164q0 47 17 117l120 453h42l-124 -467q-14 -48 -14 -99q0 -89 56 -138.5t154 -49.5q106 0 180 75q68 68 104 200l127 479h42z" />
    <glyph glyph-name="uhungarumlaut" unicode="&#x171;" horiz-adv-x="633" 
d="M465 797h48l-161 -172h-45zM611 797h49l-162 -172h-44zM427 0l33 124q-36 -57 -90.5 -95.5t-124.5 -38.5q-83 0 -128 46.5t-45 121.5q0 39 12 83l78 293h39l-79 -297q-10 -40 -10 -76q0 -62 35.5 -98t106.5 -36q74 0 141.5 56.5t92.5 149.5l79 301h40l-141 -534h-39z" />
    <glyph glyph-name="Uogonek" unicode="&#x172;" horiz-adv-x="783" 
d="M685 297q-39 -145 -113 -218q-57 -58 -138 -79h4q-119 -75 -119 -141q0 -68 83 -68q14 0 20 1l-8 -33q-15 -3 -28 -3q-44 0 -74.5 24.5t-30.5 67.5q0 40 31 78t74 66q-4 0 -13 -0.5t-13 -0.5q-114 0 -181.5 58t-67.5 164q0 47 17 117l120 453h42l-124 -467
q-14 -48 -14 -99q0 -89 56 -138.5t154 -49.5q106 0 180 75q68 68 104 200l127 479h42z" />
    <glyph glyph-name="uogonek" unicode="&#x173;" horiz-adv-x="633" 
d="M347 -141q0 -68 83 -68q14 0 20 1l-8 -33q-15 -3 -29 -3q-43 0 -73.5 25t-30.5 67q0 44 35.5 84t82.5 68l33 124q-36 -57 -90.5 -95.5t-124.5 -38.5q-83 0 -128 46.5t-45 121.5q0 39 12 83l78 293h39l-79 -297q-10 -40 -10 -76q0 -62 35.5 -98t106.5 -36q74 0 141.5 56.5
t92.5 149.5l79 301h40l-141 -534q-119 -75 -119 -141z" />
    <glyph glyph-name="Wcircumflex" unicode="&#x174;" horiz-adv-x="1110" 
d="M579 854h-43l178 173h43l89 -172h-36l-78 142zM1168 783l-425 -733l-37 733h-39l-416 -733l-45 733h-41l51 -783h45l412 720l35 -720h45l460 783h-45z" />
    <glyph glyph-name="wcircumflex" unicode="&#x175;" horiz-adv-x="856" 
d="M408 625h-43l178 172h43l89 -172h-36l-77 142zM531 0l-45 479l-297 -479h-40l-49 534h39l42 -485l298 485h40l43 -485l294 485h43l-327 -534h-41z" />
    <glyph glyph-name="Ycircumflex" unicode="&#x176;" horiz-adv-x="718" 
d="M379 854h-42l178 173h43l88 -172h-35l-78 142zM260 0l92 340l-185 443h44l169 -409l387 409h54l-431 -452l-88 -331h-42z" />
    <glyph glyph-name="ycircumflex" unicode="&#x177;" horiz-adv-x="577" 
d="M271 625h-42l177 172h44l88 -172h-36l-77 142zM209 1l-114 533h42l102 -493l339 493h47l-554 -797h-48z" />
    <glyph glyph-name="Ydieresis" unicode="&#x178;" horiz-adv-x="718" 
d="M438 898q-16 0 -25.5 10t-9.5 26q0 19 12 32t31 13q16 0 25.5 -10t9.5 -26q0 -19 -12 -32t-31 -13zM602 898q-16 0 -26 10t-10 26q0 19 12.5 32t30.5 13q16 0 26 -10t10 -26q0 -19 -12.5 -32t-30.5 -13zM260 0l92 340l-185 443h44l169 -409l387 409h54l-431 -452
l-88 -331h-42z" />
    <glyph glyph-name="Zacute" unicode="&#x179;" horiz-adv-x="607" 
d="M581 1027h48l-161 -173h-45zM-40 0l10 37l678 709h-473l10 37h527l-11 -37l-677 -708h492l-11 -38h-545z" />
    <glyph glyph-name="zacute" unicode="&#x17a;" horiz-adv-x="491" 
d="M457 797h48l-167 -172h-39zM-24 34l488 465h-357l10 35h407l-8 -34l-487 -465h366l-9 -35h-419z" />
    <glyph glyph-name="Zdotaccent" unicode="&#x17b;" horiz-adv-x="607" 
d="M462 899q-16 0 -26 10t-10 26q0 18 13 31t31 13q16 0 26 -9.5t10 -25.5q0 -19 -12.5 -32t-31.5 -13zM-40 0l10 37l678 709h-473l10 37h527l-11 -37l-677 -708h492l-11 -38h-545z" />
    <glyph glyph-name="zdotaccent" unicode="&#x17c;" horiz-adv-x="491" 
d="M351 668q-16 0 -26 10t-10 26q0 19 12.5 32t31.5 13q15 0 25.5 -10t10.5 -26q0 -19 -13 -32t-31 -13zM-24 34l488 465h-357l10 35h407l-8 -34l-487 -465h366l-9 -35h-419z" />
    <glyph glyph-name="Zcaron" unicode="&#x17d;" horiz-adv-x="607" 
d="M614 1026h42l-177 -172h-44l-88 172h35l78 -141zM516 38l-11 -38h-545l10 37l678 709h-473l10 37h527l-11 -37l-677 -708h492z" />
    <glyph glyph-name="zcaron" unicode="&#x17e;" horiz-adv-x="491" 
d="M497 797h47l-178 -172h-43l-89 172h39l75 -142zM-24 34l488 465h-357l10 35h407l-8 -34l-487 -465h366l-9 -35h-419z" />
    <glyph glyph-name="florin" unicode="&#x192;" horiz-adv-x="542" 
d="M233 534h129l55 121q61 131 179 131q32 0 57 -10l-10 -36q-25 9 -50 9q-92 0 -141 -107l-50 -108h147l-9 -36h-154l-173 -376q-60 -131 -179 -131q-31 0 -56 10l10 36q18 -9 49 -9q93 0 142 107l167 363h-122z" />
    <glyph glyph-name="uni01B5" unicode="&#x1b5;" horiz-adv-x="617" 
d="M653 746h-473l9 37h527l-10 -37l-314 -328h224l-10 -38h-250l-328 -342h492l-10 -38h-546l10 37l329 343h-221l10 38h247z" />
    <glyph glyph-name="uni01B6" unicode="&#x1b6;" horiz-adv-x="498" 
d="M243 285l224 214h-357l10 35h407l-8 -34l-226 -215h169l-9 -35h-196l-225 -215h366l-9 -35h-419l9 34l227 216h-160l10 35h187z" />
    <glyph glyph-name="uni01CD" unicode="&#x1cd;" horiz-adv-x="756" 
d="M689 1026h43l-178 -172h-43l-89 172h36l78 -141zM150 223l-159 -223h-46l557 783h44l136 -783h-41l-38 223h-453zM516 739l-339 -478h420z" />
    <glyph glyph-name="uni01CE" unicode="&#x1ce;" horiz-adv-x="682" 
d="M531 797h42l-177 -172h-44l-88 172h35l78 -142zM477 0q23 86 33 126q-34 -53 -98.5 -93.5t-141.5 -40.5q-94 0 -154.5 63t-60.5 159q0 131 86 230t210 99q93 0 150 -50.5t72 -121.5h1l44 163h39l-142 -534h-38zM355 507q-112 0 -185.5 -88t-73.5 -199q0 -84 50.5 -138
t129.5 -54q111 0 194.5 90t83.5 189q0 86 -55 143t-144 57z" />
    <glyph glyph-name="uni01CF" unicode="&#x1cf;" horiz-adv-x="280" 
d="M453 1026h42l-178 -172h-43l-88 172h35l78 -141zM302 783l-210 -783h-41l209 783h42z" />
    <glyph glyph-name="uni01D0" unicode="&#x1d0;" horiz-adv-x="234" 
d="M372 797h42l-178 -172h-43l-89 172h36l78 -142zM170 534h40l-140 -534h-40z" />
    <glyph glyph-name="uni01D1" unicode="&#x1d1;" horiz-adv-x="886" 
d="M702 1026h42l-178 -172h-43l-88 172h35l78 -141zM424 -8q-145 0 -238.5 96t-93.5 237q0 119 58.5 226.5t161 174t221.5 66.5q146 0 239.5 -96t93.5 -238q0 -119 -58.5 -226.5t-161.5 -173.5t-222 -66zM425 28q109 0 202 61t145 159.5t52 207.5q0 128 -81.5 213t-210.5 85
q-109 0 -202 -61t-145 -159t-52 -208q0 -127 81.5 -212.5t210.5 -85.5z" />
    <glyph glyph-name="uni01D2" unicode="&#x1d2;" horiz-adv-x="655" 
d="M537 797h43l-178 -172h-44l-88 172h35l78 -142zM293 -9q-105 0 -171.5 66.5t-66.5 168.5q0 79 40 151.5t112.5 119t158.5 46.5q105 0 172 -66t67 -168q0 -124 -91.5 -221t-220.5 -97zM298 28q109 0 187.5 84.5t78.5 193.5q0 89 -55.5 145t-145.5 56q-110 0 -188.5 -85
t-78.5 -193q0 -89 56 -145t146 -56z" />
    <glyph glyph-name="uni01D3" unicode="&#x1d3;" horiz-adv-x="783" 
d="M702 1016h43l-178 -172h-44l-88 172h35l78 -142zM685 297q-39 -145 -113 -218q-88 -88 -212 -88q-114 0 -181.5 58t-67.5 164q0 47 17 117l120 453h42l-124 -467q-14 -48 -14 -99q0 -89 56 -138.5t154 -49.5q106 0 180 75q68 68 104 200l127 479h42z" />
    <glyph glyph-name="uni01D4" unicode="&#x1d4;" horiz-adv-x="633" 
d="M563 797h42l-177 -172h-44l-88 172h35l78 -142zM427 0l33 124q-36 -57 -90.5 -95.5t-124.5 -38.5q-83 0 -128 46.5t-45 121.5q0 39 12 83l78 293h39l-79 -297q-10 -40 -10 -76q0 -62 35.5 -98t106.5 -36q74 0 141.5 56.5t92.5 149.5l79 301h40l-141 -534h-39z" />
    <glyph glyph-name="uni01D5" unicode="&#x1d5;" horiz-adv-x="783" 
d="M746 964h-334l9 36h334zM463 820q-16 0 -25.5 10t-9.5 26q0 19 12 32t31 13q16 0 25.5 -10t9.5 -26q0 -19 -12 -32t-31 -13zM627 820q-16 0 -26 10t-10 26q0 19 12.5 32t30.5 13q16 0 26 -10t10 -26q0 -19 -12.5 -32t-30.5 -13zM685 297q-39 -145 -113 -218
q-88 -88 -212 -88q-114 0 -181.5 58t-67.5 164q0 47 17 117l120 453h42l-124 -467q-14 -48 -14 -99q0 -89 56 -138.5t154 -49.5q106 0 180 75q68 68 104 200l127 479h42z" />
    <glyph glyph-name="uni01D6" unicode="&#x1d6;" horiz-adv-x="633" 
d="M623 806h-334l9 37h334zM338 633q-16 0 -25.5 10t-9.5 26q0 18 12.5 31t30.5 13q16 0 25.5 -9.5t9.5 -25.5q0 -19 -12 -32t-31 -13zM496 633q-16 0 -25.5 10t-9.5 26q0 18 12.5 31t30.5 13q16 0 25.5 -9.5t9.5 -25.5q0 -19 -12.5 -32t-30.5 -13zM427 0l33 124
q-36 -57 -90.5 -95.5t-124.5 -38.5q-83 0 -128 46.5t-45 121.5q0 39 12 83l78 293h39l-79 -297q-10 -40 -10 -76q0 -62 35.5 -98t106.5 -36q74 0 141.5 56.5t92.5 149.5l79 301h40l-141 -534h-39z" />
    <glyph glyph-name="uni01D7" unicode="&#x1d7;" horiz-adv-x="783" 
d="M692 1106h48l-157 -162h-40zM463 820q-16 0 -25.5 10t-9.5 26q0 19 12 32t31 13q16 0 25.5 -10t9.5 -26q0 -19 -12 -32t-31 -13zM627 820q-16 0 -26 10t-10 26q0 19 12.5 32t30.5 13q16 0 26 -10t10 -26q0 -19 -12.5 -32t-30.5 -13zM685 297q-39 -145 -113 -218
q-88 -88 -212 -88q-114 0 -181.5 58t-67.5 164q0 47 17 117l120 453h42l-124 -467q-14 -48 -14 -99q0 -89 56 -138.5t154 -49.5q106 0 180 75q68 68 104 200l127 479h42z" />
    <glyph glyph-name="uni01D8" unicode="&#x1d8;" horiz-adv-x="633" 
d="M571 948h48l-157 -162h-39zM338 633q-16 0 -25.5 10t-9.5 26q0 18 12.5 31t30.5 13q16 0 25.5 -9.5t9.5 -25.5q0 -19 -12 -32t-31 -13zM496 633q-16 0 -25.5 10t-9.5 26q0 18 12.5 31t30.5 13q16 0 25.5 -9.5t9.5 -25.5q0 -19 -12.5 -32t-30.5 -13zM427 0l33 124
q-36 -57 -90.5 -95.5t-124.5 -38.5q-83 0 -128 46.5t-45 121.5q0 39 12 83l78 293h39l-79 -297q-10 -40 -10 -76q0 -62 35.5 -98t106.5 -36q74 0 141.5 56.5t92.5 149.5l79 301h40l-141 -534h-39z" />
    <glyph glyph-name="uni01D9" unicode="&#x1d9;" horiz-adv-x="783" 
d="M721 1106h40l-169 -162h-43l-84 162h34l74 -132zM463 820q-16 0 -25.5 10t-9.5 26q0 19 12 32t31 13q16 0 25.5 -10t9.5 -26q0 -19 -12 -32t-31 -13zM627 820q-16 0 -26 10t-10 26q0 19 12.5 32t30.5 13q16 0 26 -10t10 -26q0 -19 -12.5 -32t-30.5 -13zM685 297
q-39 -145 -113 -218q-88 -88 -212 -88q-114 0 -181.5 58t-67.5 164q0 47 17 117l120 453h42l-124 -467q-14 -48 -14 -99q0 -89 56 -138.5t154 -49.5q106 0 180 75q68 68 104 200l127 479h42z" />
    <glyph glyph-name="uni01DA" unicode="&#x1da;" horiz-adv-x="633" 
d="M598 949h40l-168 -162h-44l-83 162h34l74 -132zM338 633q-16 0 -25.5 10t-9.5 26q0 18 12.5 31t30.5 13q16 0 25.5 -9.5t9.5 -25.5q0 -19 -12 -32t-31 -13zM496 633q-16 0 -25.5 10t-9.5 26q0 18 12.5 31t30.5 13q16 0 25.5 -9.5t9.5 -25.5q0 -19 -12.5 -32t-30.5 -13z
M427 0l33 124q-36 -57 -90.5 -95.5t-124.5 -38.5q-83 0 -128 46.5t-45 121.5q0 39 12 83l78 293h39l-79 -297q-10 -40 -10 -76q0 -62 35.5 -98t106.5 -36q74 0 141.5 56.5t92.5 149.5l79 301h40l-141 -534h-39z" />
    <glyph glyph-name="uni01DB" unicode="&#x1db;" horiz-adv-x="783" 
d="M577 944h-32l-71 162h40zM463 820q-16 0 -25.5 10t-9.5 26q0 19 12 32t31 13q16 0 25.5 -10t9.5 -26q0 -19 -12 -32t-31 -13zM627 820q-16 0 -26 10t-10 26q0 19 12.5 32t30.5 13q16 0 26 -10t10 -26q0 -19 -12.5 -32t-30.5 -13zM685 297q-39 -145 -113 -218
q-88 -88 -212 -88q-114 0 -181.5 58t-67.5 164q0 47 17 117l120 453h42l-124 -467q-14 -48 -14 -99q0 -89 56 -138.5t154 -49.5q106 0 180 75q68 68 104 200l127 479h42z" />
    <glyph glyph-name="uni01DC" unicode="&#x1dc;" horiz-adv-x="633" 
d="M457 786h-31l-72 162h39zM338 633q-16 0 -25.5 10t-9.5 26q0 18 12.5 31t30.5 13q16 0 25.5 -9.5t9.5 -25.5q0 -19 -12 -32t-31 -13zM496 633q-16 0 -25.5 10t-9.5 26q0 18 12.5 31t30.5 13q16 0 25.5 -9.5t9.5 -25.5q0 -19 -12.5 -32t-30.5 -13zM427 0l33 124
q-36 -57 -90.5 -95.5t-124.5 -38.5q-83 0 -128 46.5t-45 121.5q0 39 12 83l78 293h39l-79 -297q-10 -40 -10 -76q0 -62 35.5 -98t106.5 -36q74 0 141.5 56.5t92.5 149.5l79 301h40l-141 -534h-39z" />
    <glyph glyph-name="Gcaron" unicode="&#x1e6;" horiz-adv-x="865" 
d="M703 1026h42l-178 -172h-43l-88 172h35l78 -141zM443 365h403q-21 -171 -142.5 -272t-278.5 -101q-147 0 -239.5 93t-92.5 240q0 191 131 329t310 138q73 0 133 -24t97 -62t58.5 -78.5t28.5 -80.5l-38 -11q-4 21 -13 44.5t-30.5 56t-50.5 57t-77.5 42.5t-108.5 18
q-115 0 -208 -63t-142 -160t-49 -205q0 -132 81 -215t211 -83q189 0 301 146q56 74 71 153h-365z" />
    <glyph glyph-name="gcaron" unicode="&#x1e7;" horiz-adv-x="682" 
d="M537 797h43l-178 -172h-44l-88 172h35l78 -142zM619 534l-42 -157q-13 66 -73 116t-147 50q-126 0 -212 -91.5t-86 -222.5q0 -93 62 -156.5t153 -63.5q74 0 141 39t98 89h1l-38 -146q-29 -109 -97.5 -165t-169.5 -56q-58 0 -100.5 20t-63 51.5t-29.5 60t-9 55.5l-38 -8
q1 -37 15 -73.5t41 -69t74.5 -53t108.5 -20.5q118 0 196 65.5t109 183.5l144 552h-38zM558 316q0 -98 -82.5 -184t-194.5 -86q-77 0 -129 53t-52 133q0 111 72.5 192.5t184.5 81.5q89 0 145 -55t56 -135z" />
    <glyph glyph-name="uni01E8" unicode="&#x1e8;" horiz-adv-x="646" 
d="M652 1017h43l-178 -172h-43l-89 172h35l79 -142zM529 0h54l-335 402l521 381h-61l-499 -364h-4l97 364h-42l-209 -783h41l107 397h5z" />
    <glyph glyph-name="uni01E9" unicode="&#x1e9;" horiz-adv-x="505" 
d="M496 534h66l-374 -246l248 -288h-51l-240 282h-2l-75 -282h-39l215 814h39l-135 -512h2zM626 797h43l-178 -172h-43l-89 172h36l78 -142z" />
    <glyph glyph-name="uni01F4" unicode="&#x1f4;" horiz-adv-x="865" 
d="M666 1027h48l-167 -173h-39zM443 365h403q-21 -171 -142.5 -272t-278.5 -101q-147 0 -239.5 93t-92.5 240q0 191 131 329t310 138q73 0 133 -24t97 -62t58.5 -78.5t28.5 -80.5l-38 -11q-4 21 -13 44.5t-30.5 56t-50.5 57t-77.5 42.5t-108.5 18q-115 0 -208 -63t-142 -160
t-49 -205q0 -132 81 -215t211 -83q189 0 301 146q56 74 71 153h-365z" />
    <glyph glyph-name="uni01F5" unicode="&#x1f5;" horiz-adv-x="682" 
d="M516 797h48l-167 -172h-39zM513 -18q-31 -118 -109 -183.5t-196 -65.5q-61 0 -108.5 20.5t-74.5 53t-41 69t-15 73.5l38 8q0 -27 9 -55.5t29.5 -60t63 -51.5t100.5 -20q101 0 169.5 56t97.5 165l38 146h-1q-31 -50 -98 -89t-141 -39q-91 0 -153 63.5t-62 156.5
q0 131 86 222.5t212 91.5q87 0 147 -50t73 -116l42 157h38zM558 316q0 80 -56 135t-145 55q-112 0 -184.5 -81.5t-72.5 -192.5q0 -80 52 -133t129 -53q112 0 194.5 86t82.5 184z" />
    <glyph glyph-name="Aringacute" unicode="&#x1fa;" horiz-adv-x="756" 
d="M595 929q35 -25 35 -72q0 -37 -22 -66t-57 -39l131 -752h-41l-38 223h-453l-159 -223h-46l537 755q-50 23 -50 81q0 45 31.5 78t76.5 33q14 0 24 -3l131 143h48zM595 856q0 24 -16.5 41t-40.5 17q-30 0 -51 -23.5t-21 -53.5q0 -25 16 -41t41 -16q31 0 51.5 22.5
t20.5 53.5zM597 261l-81 478l-339 -478h420z" />
    <glyph glyph-name="aringacute" unicode="&#x1fb;" horiz-adv-x="682" 
d="M482 786q34 -26 34 -72t-31.5 -78t-77.5 -32q-39 0 -64 25t-25 64q0 45 31.5 78t76.5 33q13 0 25 -3l131 142h48zM481 713q0 24 -16 41t-41 17q-30 0 -51 -23.5t-21 -53.5q0 -25 16.5 -41t41.5 -16q30 0 50.5 22.5t20.5 53.5zM477 0l33 126q-34 -53 -98.5 -93.5
t-141.5 -40.5q-94 0 -154.5 63t-60.5 159q0 131 86 230t210 99q93 0 150 -50.5t72 -121.5h1l44 163h39l-142 -534h-38zM355 507q-112 0 -185.5 -88t-73.5 -199q0 -84 50.5 -138t129.5 -54q111 0 194.5 90t83.5 189q0 86 -55 143t-144 57z" />
    <glyph glyph-name="AEacute" unicode="&#x1fc;" horiz-adv-x="1028" 
d="M864 1027h48l-166 -173h-40zM-18 0h-50l683 783h488l-11 -37h-407l-88 -328h374l-11 -38h-374l-91 -342h413l-10 -38h-454l60 223h-327zM631 746l-422 -485h305l130 485h-13z" />
    <glyph glyph-name="aeacute" unicode="&#x1fd;" horiz-adv-x="959" 
d="M667 797h48l-167 -172h-39zM189 -9q-68 0 -116 35t-48 98q0 83 68 123.5t166 43.5l154 4q14 64 52 119q-8 41 -44 67t-87 26q-48 0 -87 -16t-61.5 -40.5t-34.5 -45.5t-18 -40l-37 12q7 23 22.5 48.5t43 53.5t73 46t101.5 18q55 0 97.5 -25t58.5 -70q88 95 203 95
q105 0 161 -60.5t56 -165.5q0 -34 -4 -57h-462q-1 -9 -1 -27q0 -90 54.5 -147.5t143.5 -57.5q141 0 213 134l33 -18q-85 -153 -250 -153q-75 0 -131.5 37.5t-82.5 101.5q-39 -63 -101.5 -101t-134.5 -38zM872 317q0 88 -46 139t-134 51q-80 0 -153.5 -64.5t-87.5 -146.5h420
q1 7 1 21zM262 256q-36 -1 -68.5 -7.5t-62.5 -21t-47.5 -41t-17.5 -62.5q0 -43 36 -70t90 -27q71 0 129.5 42t89.5 106q-6 27 -6 57q0 10 2 28z" />
    <glyph glyph-name="Oslashacute" unicode="&#x1fe;" horiz-adv-x="886" 
d="M677 1027h48l-166 -173h-40zM783 686q83 -96 83 -228q0 -119 -58.5 -226.5t-161.5 -173.5t-222 -66q-141 0 -234 91l-95 -97l-27 27l97 98q-73 90 -73 214q0 119 58.5 226.5t161 174t221.5 66.5q131 0 222 -80l84 85l27 -26zM532 754q-109 0 -202 -61t-145 -159t-52 -208
q0 -108 60 -187l535 544q-79 71 -196 71zM425 28q109 0 202 61t145 159.5t52 207.5q0 120 -70 201l-537 -547q84 -82 208 -82z" />
    <glyph glyph-name="oslashacute" unicode="&#x1ff;" horiz-adv-x="655" 
d="M510 797h48l-166 -172h-40zM552 463q53 -66 53 -154q0 -124 -91.5 -221t-220.5 -97q-91 0 -157 53l-75 -76l-23 24l74 75q-57 65 -57 159q0 79 40 151.5t112.5 119t158.5 46.5q96 0 162 -57l73 73l23 -23zM96 229q0 -79 45 -133l361 363q-50 48 -139 48
q-110 0 -188.5 -85t-78.5 -193zM564 306q0 77 -41 129l-358 -362q51 -45 133 -45q109 0 187.5 84.5t78.5 193.5z" />
    <glyph glyph-name="Scommaaccent" unicode="&#x218;" horiz-adv-x="633" 
d="M308 -9q-108 0 -181.5 75.5t-73.5 183.5l40 6q-1 -96 61 -162t156 -66q87 0 149 46t62 131q0 30 -12 54.5t-38 44.5t-45 31.5t-53 28.5l-57 29q-31 16 -54.5 30t-50.5 37t-42 53t-15 64q0 99 74.5 156.5t179.5 57.5q145 0 209 -113q28 -50 28 -97l-40 -7q0 22 -8.5 49.5
t-28.5 58t-62 51t-99 20.5q-87 0 -149.5 -45.5t-62.5 -128.5q0 -28 12.5 -51.5t37 -43t43.5 -31t50 -27.5l56 -28q79 -39 124 -82t45 -109q0 -102 -75 -159t-180 -57zM270 -143q-14 0 -22.5 8.5t-8.5 20.5q0 18 11.5 30.5t29.5 12.5q16 0 26.5 -11t10.5 -31
q0 -39 -25.5 -72.5t-64.5 -54.5l-16 20q58 37 70 78q-4 -1 -11 -1z" />
    <glyph glyph-name="scommaaccent" unicode="&#x219;" horiz-adv-x="490" 
d="M282 543q45 0 80.5 -14.5t56 -37t32 -46.5t13.5 -47l-37 -9q-3 18 -11 36t-24 37.5t-45 31.5t-67 12q-57 0 -99.5 -29t-42.5 -83q0 -32 22.5 -52.5t61.5 -37.5l73 -31q112 -46 112 -127q0 -73 -55.5 -114t-130.5 -41q-97 0 -146.5 54t-49.5 119l39 9q-1 -56 38 -100.5
t120 -44.5q59 0 102.5 29.5t43.5 85.5q0 59 -95 99l-68 29q-107 46 -107 120q0 71 55 111.5t129 40.5zM198 -143q-14 0 -22.5 8.5t-8.5 20.5q0 18 11.5 30.5t29.5 12.5q16 0 26.5 -11t10.5 -31q0 -39 -25.5 -72.5t-64.5 -54.5l-16 20q58 37 70 78q-4 -1 -11 -1z" />
    <glyph glyph-name="uni021A" unicode="&#x21a;" horiz-adv-x="608" 
d="M214 0l199 746h-264l11 37h564l-11 -37h-258l-200 -746h-41zM204 -143q-14 0 -22.5 8.5t-8.5 20.5q0 18 11.5 30.5t29.5 12.5q16 0 26.5 -11t10.5 -31q0 -39 -25.5 -72.5t-64.5 -54.5l-16 20q58 37 70 78q-4 -1 -11 -1z" />
    <glyph glyph-name="uni021B" unicode="&#x21b;" horiz-adv-x="339" 
d="M132 144q-7 -24 -7 -51q0 -61 78 -61q18 0 43 5l-10 -37q-23 -5 -41 -5q-111 0 -111 94q0 21 10 61l92 348h-102l9 36h102l40 152h40l-41 -152h138l-10 -36h-137zM103 -143q-14 0 -22.5 8.5t-8.5 20.5q0 18 11.5 30.5t29.5 12.5q16 0 26.5 -11t10.5 -31
q0 -39 -25.5 -72.5t-64.5 -54.5l-16 20q58 37 70 78q-4 -1 -11 -1z" />
    <glyph glyph-name="uni0237" unicode="&#x237;" horiz-adv-x="241" 
d="M41 -137q-17 -63 -53 -96.5t-106 -33.5q-24 0 -44 8l9 35q17 -6 37 -6q94 0 119 98l175 666h39z" />
    <glyph glyph-name="circumflex" unicode="&#x2c6;" horiz-adv-x="310" 
d="M143 625h-43l178 172h43l89 -172h-36l-77 142z" />
    <glyph glyph-name="breve" unicode="&#x2d8;" horiz-adv-x="286" 
d="M435 785q-23 -74 -75.5 -117t-127.5 -43q-47 0 -78.5 17.5t-42 42t-16 52t0.5 48.5h30q-7 -124 112 -124q108 0 165 124h32z" />
    <glyph glyph-name="dotaccent" unicode="&#x2d9;" horiz-adv-x="80" 
d="M136 668q-16 0 -26 10t-10 26q0 19 12.5 32t31.5 13q15 0 25.5 -10t10.5 -26q0 -19 -12.5 -32t-31.5 -13z" />
    <glyph glyph-name="tilde" unicode="&#x2dc;" horiz-adv-x="336" 
d="M436 712q-38 -86 -99 -86q-30 0 -71.5 33.5t-66.5 33.5q-41 0 -73 -61l-26 12q41 84 103 84q33 0 74.5 -33.5t63.5 -33.5q41 0 70 61z" />
    <glyph glyph-name="hungarumlaut" unicode="&#x2dd;" horiz-adv-x="297" 
d="M257 797h49l-167 -172h-39zM404 797h48l-166 -172h-40z" />
    <glyph glyph-name="gravecomb" unicode="&#x300;" horiz-adv-x="0" 
d="M54 625h-32l-76 172h40z" />
    <glyph glyph-name="acutecomb" unicode="&#x301;" horiz-adv-x="0" 
d="M55 797h48l-166 -172h-40z" />
    <glyph glyph-name="uni0302" unicode="&#x302;" horiz-adv-x="0" 
d="M-112 625h-43l178 172h43l89 -172h-36l-77 142z" />
    <glyph glyph-name="tildecomb" unicode="&#x303;" horiz-adv-x="0" 
d="M168 712q-38 -86 -99 -86q-30 0 -71.5 33.5t-66.5 33.5q-41 0 -73 -61l-26 12q41 84 103 84q33 0 74.5 -33.5t63.5 -33.5q41 0 70 61z" />
    <glyph glyph-name="uni0304" unicode="&#x304;" horiz-adv-x="0" 
d="M162 641h-333l9 37h333z" />
    <glyph glyph-name="uni0306" unicode="&#x306;" horiz-adv-x="0" 
d="M167 785q-23 -74 -75.5 -117t-127.5 -43q-47 0 -78.5 17.5t-42 42t-16 52t0.5 48.5h30q-7 -124 112 -124q108 0 165 124h32z" />
    <glyph glyph-name="uni0307" unicode="&#x307;" horiz-adv-x="0" 
d="M-4 668q-16 0 -26 10t-10 26q0 19 12.5 32t31.5 13q15 0 25.5 -10t10.5 -26q0 -19 -12.5 -32t-31.5 -13z" />
    <glyph glyph-name="uni0308" unicode="&#x308;" horiz-adv-x="0" 
d="M-83 668q-16 0 -25.5 10t-9.5 26q0 19 12 32t31 13q16 0 25.5 -10t9.5 -26q0 -19 -12 -32t-31 -13zM75 668q-16 0 -25.5 10t-9.5 26q0 19 12 32t31 13q16 0 25.5 -10t9.5 -26q0 -19 -12.5 -32t-30.5 -13z" />
    <glyph glyph-name="uni030A" unicode="&#x30a;" horiz-adv-x="0" 
d="M99 714q0 -46 -31.5 -78t-77.5 -32q-39 0 -64 25t-25 64q0 45 31.5 78t76.5 33q39 0 64.5 -25.5t25.5 -64.5zM64 713q0 24 -16 41t-41 17q-30 0 -51 -23.5t-21 -53.5q0 -25 16.5 -41t41.5 -16q30 0 50.5 22.5t20.5 53.5z" />
    <glyph glyph-name="uni030B" unicode="&#x30b;" horiz-adv-x="0" 
d="M-19 797h49l-167 -172h-39zM128 797h48l-166 -172h-40z" />
    <glyph glyph-name="uni030C" unicode="&#x30c;" horiz-adv-x="0" 
d="M112 797h43l-178 -172h-43l-89 172h35l78 -142z" />
    <glyph glyph-name="uni0312" unicode="&#x312;" horiz-adv-x="0" 
d="M-7 702q15 0 23.5 -8.5t8.5 -21.5q0 -17 -12 -30t-29 -13t-27.5 11t-10.5 31q0 76 90 128l17 -21q-60 -38 -70 -77z" />
    <glyph glyph-name="uni0326" unicode="&#x326;" horiz-adv-x="0" 
d="M-50 -243q72 14 81 94q-11 -7 -24 -7q-14 0 -24 9t-10 23q0 17 13.5 29t31.5 12q39 0 39 -51q0 -58 -33.5 -93t-80.5 -40z" />
    <glyph glyph-name="uni0327" unicode="&#x327;" horiz-adv-x="0" 
d="M75 0q21 -18 35 -45t14 -54q0 -64 -44.5 -103t-110.5 -39q-59 0 -93 19l9 31q40 -15 80 -15q51 0 85.5 30.5t34.5 79.5q0 56 -49 96h39z" />
    <glyph glyph-name="uni0328" unicode="&#x328;" horiz-adv-x="0" 
d="M54 -241q-14 -3 -28 -3q-44 0 -74.5 25t-30.5 67q0 43 36 84.5t82 67.5h40q-120 -76 -120 -141q0 -35 23.5 -51.5t59.5 -16.5q14 0 20 1z" />
    <glyph glyph-name="Theta" unicode="&#x398;" horiz-adv-x="886" 
d="M424 -8q-145 0 -238.5 96t-93.5 237q0 119 58.5 226.5t161 174t221.5 66.5q146 0 239.5 -96t93.5 -238q0 -119 -58.5 -226.5t-161.5 -173.5t-222 -66zM425 28q109 0 202 61t145 159.5t52 207.5q0 128 -81.5 213t-210.5 85q-109 0 -202 -61t-145 -159t-52 -208
q0 -127 81.5 -212.5t210.5 -85.5zM741 418h-511l-10 -37h510z" />
    <glyph glyph-name="uni03A9" unicode="&#x3a9;" horiz-adv-x="888" 
d="M492 115q146 26 243.5 131t97.5 248q0 112 -81.5 186t-196.5 74q-168 0 -288.5 -112.5t-120.5 -277.5q0 -89 51 -161t133 -88l-30 -115h-289l10 38h250l14 50q-84 25 -132 104.5t-48 173.5q0 119 64 218t167.5 153.5t219.5 54.5q139 0 229 -87t90 -209q0 -150 -99 -264.5
t-254 -147.5l-12 -46h245l-10 -38h-283z" />
    <glyph glyph-name="theta" unicode="&#x3b8;" horiz-adv-x="726" 
d="M319 -9q-115 0 -173.5 82.5t-58.5 207.5q0 133 45.5 254t134.5 201.5t202 80.5q117 0 175.5 -81.5t58.5 -208.5q0 -133 -46 -254.5t-135.5 -201.5t-202.5 -80zM654 424q8 45 8 101q0 110 -49 183t-146 73q-119 0 -206 -102.5t-119 -254.5h512zM136 389q-9 -53 -9 -107
q0 -109 49.5 -181.5t144.5 -72.5q121 0 208.5 104t118.5 257h-512z" />
    <glyph glyph-name="pi" unicode="&#x3c0;" horiz-adv-x="610" 
d="M500 -4q-5 -1 -16 -1q-110 0 -110 94q0 28 10 61l91 348h-244l-131 -498h-39l131 498h-118l9 36h559l-10 -36h-118l-93 -354q-7 -30 -7 -51q0 -61 79 -61q11 0 17 1z" />
    <glyph glyph-name="uni0401" unicode="&#x401;" horiz-adv-x="653" 
d="M437 898q-16 0 -25.5 10t-9.5 26q0 19 12 32t31 13q16 0 25.5 -10t9.5 -26q0 -19 -12 -32t-31 -13zM601 898q-16 0 -26 10t-10 26q0 19 12.5 32t30.5 13q16 0 26 -10t10 -26q0 -19 -12.5 -32t-30.5 -13zM260 783h468l-10 -37h-427l-87 -328h392l-10 -38h-392l-91 -342
h430l-10 -38h-472z" />
    <glyph glyph-name="uni0402" unicode="&#x402;" horiz-adv-x="824" 
d="M473 -8q-71 0 -117 26l20 33q39 -21 99 -21q114 0 189.5 72.5t75.5 186.5q0 74 -50.5 117.5t-128.5 43.5q-138 0 -271 -94l-96 -356h-41l199 746h-202l10 37h524l-11 -37h-279l-92 -344q136 86 262 86q95 0 156.5 -53.5t61.5 -143.5q0 -133 -87.5 -216t-221.5 -83z" />
    <glyph glyph-name="uni0403" unicode="&#x403;" horiz-adv-x="577" 
d="M588 1027h49l-167 -173h-39zM51 0h41l200 746h381l10 37h-423z" />
    <glyph glyph-name="uni0404" unicode="&#x404;" horiz-adv-x="852" 
d="M774 265l38 -15q-50 -118 -150.5 -188t-236.5 -70q-143 0 -237 96.5t-94 245.5q0 120 59 225t163 169t226 64q117 0 208.5 -73t109.5 -190l-38 -11q-16 104 -97 170t-188 66q-143 0 -253.5 -98.5t-138.5 -237.5h404l-9 -38h-401q-2 -14 -2 -45q0 -133 80.5 -220
t212.5 -87q118 0 206.5 64.5t137.5 172.5z" />
    <glyph glyph-name="uni0405" unicode="&#x405;" horiz-adv-x="633" 
d="M308 -9q-108 0 -181.5 75.5t-73.5 183.5l40 6q-1 -96 61 -162t156 -66q87 0 149 46t62 131q0 30 -12 54.5t-38 44.5t-45 31.5t-53 28.5l-57 29q-31 16 -54.5 30t-50.5 37t-42 53t-15 64q0 99 74.5 156.5t179.5 57.5q145 0 209 -113q28 -50 28 -97l-40 -7q0 22 -8.5 49.5
t-28.5 58t-62 51t-99 20.5q-87 0 -149.5 -45.5t-62.5 -128.5q0 -28 12.5 -51.5t37 -43t43.5 -31t50 -27.5l56 -28q79 -39 124 -82t45 -109q0 -102 -75 -159t-180 -57z" />
    <glyph glyph-name="uni0406" unicode="&#x406;" horiz-adv-x="280" 
d="M302 783l-210 -783h-41l209 783h42z" />
    <glyph glyph-name="uni0407" unicode="&#x407;" horiz-adv-x="280" 
d="M238 898q-16 0 -25.5 10t-9.5 26q0 19 12 32t31 13q16 0 25.5 -10t9.5 -26q0 -19 -12 -32t-31 -13zM389 898q-16 0 -26 10t-10 26q0 19 12.5 32t30.5 13q16 0 26 -10t10 -26q0 -19 -12.5 -32t-30.5 -13zM302 783l-210 -783h-41l209 783h42z" />
    <glyph glyph-name="uni0408" unicode="&#x408;" horiz-adv-x="609" 
d="M235 -8q-94 0 -148.5 55.5t-54.5 141.5q0 40 14 96l9 32l40 2l-11 -48q-11 -48 -11 -75q0 -76 45 -121.5t119 -45.5q82 0 134.5 53t75.5 138l151 563h41l-151 -568q-60 -223 -253 -223z" />
    <glyph glyph-name="uni0409" unicode="&#x409;" horiz-adv-x="1222" 
d="M929 451q113 0 181.5 -47.5t68.5 -143.5q0 -123 -97.5 -191.5t-266.5 -68.5h-242l199 746h-361l-115 -307q-37 -99 -71 -173t-75 -138t-87.5 -97.5t-96.5 -33.5q-2 0 -7 0.5t-8 0.5l10 37q56 0 111.5 61t98 147.5t89.5 212.5l122 327h441l-89 -332h195zM809 38
q159 0 244 57.5t85 164.5q0 80 -58.5 117t-152.5 37h-202l-101 -376h185z" />
    <glyph glyph-name="uni040A" unicode="&#x40a;" horiz-adv-x="1252" 
d="M706 402h-506l-108 -402h-41l209 783h42l-92 -343h506l92 343h42l-92 -343h206q113 0 178.5 -47.5t65.5 -139.5q0 -120 -95.5 -186.5t-262.5 -66.5h-252zM748 402l-98 -364h201q143 0 229.5 54t86.5 160q0 76 -55 113t-150 37h-214z" />
    <glyph glyph-name="uni040B" unicode="&#x40b;" horiz-adv-x="818" 
d="M726 270q7 28 7 50q0 67 -48 98.5t-119 31.5q-112 0 -272 -76l-100 -374h-41l199 746h-202l10 37h524l-11 -37h-279l-88 -331q157 73 259 73q86 0 147.5 -39.5t61.5 -119.5q0 -31 -8 -63l-71 -266h-41z" />
    <glyph glyph-name="uni040C" unicode="&#x40c;" horiz-adv-x="646" 
d="M607 1027h49l-167 -173h-39zM248 402l521 381h-61l-499 -364h-4l97 364h-42l-209 -783h41l107 397h5l325 -397h54z" />
    <glyph glyph-name="uni040E" unicode="&#x40e;" horiz-adv-x="695" 
d="M487 865q-80 0 -111 44.5t-27 99.5l31 7q-2 -115 112 -115q107 0 161 114l32 -7q-26 -67 -77 -105t-121 -38zM368 183q-68 -91 -137.5 -141t-160.5 -50q-39 0 -78 9l9 38q45 -9 70 -9q133 0 257 164l-179 589h43l166 -550l412 550h48z" />
    <glyph glyph-name="uni040F" unicode="&#x40f;" horiz-adv-x="808" 
d="M356 0l-43 -161h-41l43 161h-264l209 783h41l-199 -745h486l200 745h41l-209 -783h-264z" />
    <glyph glyph-name="uni0410" unicode="&#x410;" horiz-adv-x="756" 
d="M641 0l-38 223h-453l-159 -223h-46l557 783h44l136 -783h-41zM177 261h420l-81 478z" />
    <glyph glyph-name="uni0411" unicode="&#x411;" horiz-adv-x="724" 
d="M260 783h499l-9 -37h-458l-82 -306h216q114 0 179 -48t65 -139q0 -119 -95.5 -186t-262.5 -67h-261zM103 38h200q158 0 242 56t84 160q0 59 -37 97q-51 51 -168 51h-224z" />
    <glyph glyph-name="uni0412" unicode="&#x412;" horiz-adv-x="732" 
d="M487 783q103 0 167.5 -46.5t64.5 -128.5q0 -87 -63 -141.5t-153 -67.5q159 -37 159 -169q0 -100 -85.5 -165t-238.5 -65h-287l209 783h227zM291 746l-87 -328h202q126 0 198 50.5t72 136.5q0 68 -52 104.5t-142 36.5h-191zM193 380l-91 -342h237q134 0 208 54.5t74 141.5
q0 70 -61.5 108t-160.5 38h-206z" />
    <glyph glyph-name="uni0413" unicode="&#x413;" horiz-adv-x="577" 
d="M92 0h-41l209 783h423l-10 -37h-381z" />
    <glyph glyph-name="uni0414" unicode="&#x414;" horiz-adv-x="814" 
d="M820 783l-199 -745h84l-53 -199h-41l43 161h-670l-43 -161h-41l53 198q83 0 157.5 114.5t151.5 320.5l116 311h442zM769 746h-363l-108 -290q-71 -188 -127.5 -283t-128.5 -135h538z" />
    <glyph glyph-name="uni0415" unicode="&#x415;" horiz-adv-x="653" 
d="M260 783h468l-10 -37h-427l-87 -328h392l-10 -38h-392l-91 -342h430l-10 -38h-472z" />
    <glyph glyph-name="uni0416" unicode="&#x416;" horiz-adv-x="960" 
d="M-2 0h-66l523 415l-297 368h48l293 -365h5l98 365h41l-98 -365h5l474 365h62l-497 -379l304 -404h-52l-296 398h-5l-106 -398h-42l107 398h-6z" />
    <glyph glyph-name="uni0417" unicode="&#x417;" horiz-adv-x="613" 
d="M540 218q0 -91 -77.5 -158.5t-200.5 -67.5q-106 0 -174 62t-66 150l39 8q-4 -79 56 -131t148 -52q91 0 162 52.5t71 139.5q0 72 -47 115.5t-141 43.5h-95l9 38h93q111 0 185.5 49t74.5 132q0 70 -49.5 112.5t-132.5 42.5t-143 -38.5t-91 -103.5l-36 15q32 75 107 119.5
t166 44.5q105 0 162.5 -56.5t57.5 -133.5q0 -80 -55 -132.5t-152 -71.5q57 -19 93 -65.5t36 -113.5z" />
    <glyph glyph-name="uni0418" unicode="&#x418;" horiz-adv-x="836" 
d="M301 783l-194 -725l698 725h52l-209 -783h-42l195 726l-697 -726h-53l209 783h41z" />
    <glyph glyph-name="uni0419" unicode="&#x419;" horiz-adv-x="836" 
d="M581 865q-80 0 -111 44.5t-27 99.5l31 7q-2 -115 112 -115q105 0 161 114l31 -7q-26 -66 -76.5 -104.5t-120.5 -38.5zM606 0h42l209 783h-52l-698 -725l194 725h-41l-209 -783h53l697 726z" />
    <glyph glyph-name="uni041A" unicode="&#x41a;" horiz-adv-x="646" 
d="M92 0h-41l209 783h42l-97 -364h4l499 364h61l-521 -381l335 -402h-54l-325 397h-5z" />
    <glyph glyph-name="uni041B" unicode="&#x41b;" horiz-adv-x="802" 
d="M296 439q-37 -99 -71 -173t-75 -138t-87.5 -97.5t-96.5 -33.5q-2 0 -7 0.5t-8 0.5l10 37q56 0 111.5 61t98 147.5t89.5 212.5l122 327h441l-209 -783h-41l199 746h-361z" />
    <glyph glyph-name="uni041C" unicode="&#x41c;" horiz-adv-x="1037" 
d="M433 0l-148 724l-194 -724h-40l209 783h52l149 -735l540 735h57l-209 -783h-41l192 724l-530 -724h-37z" />
    <glyph glyph-name="uni041D" unicode="&#x41d;" horiz-adv-x="828" 
d="M194 380l-102 -380h-41l209 783h42l-98 -365h505l99 365h41l-209 -783h-41l101 380h-506z" />
    <glyph glyph-name="uni041E" unicode="&#x41e;" horiz-adv-x="886" 
d="M424 -8q-145 0 -238.5 96t-93.5 237q0 119 58.5 226.5t161 174t221.5 66.5q146 0 239.5 -96t93.5 -238q0 -119 -58.5 -226.5t-161.5 -173.5t-222 -66zM425 28q109 0 202 61t145 159.5t52 207.5q0 128 -81.5 213t-210.5 85q-109 0 -202 -61t-145 -159t-52 -208
q0 -127 81.5 -212.5t210.5 -85.5z" />
    <glyph glyph-name="uni041F" unicode="&#x41f;" horiz-adv-x="808" 
d="M292 746l-200 -746h-41l209 783h569l-209 -783h-41l199 746h-486z" />
    <glyph glyph-name="uni0420" unicode="&#x420;" horiz-adv-x="668" 
d="M51 0l209 783h188q124 0 191 -53t67 -147q0 -120 -96.5 -190.5t-264.5 -70.5h-167l-86 -322h-41zM665 580q0 68 -41 109q-57 57 -178 57h-155l-104 -386h163q149 0 232 60t83 160z" />
    <glyph glyph-name="uni0421" unicode="&#x421;" horiz-adv-x="849" 
d="M812 250q-50 -118 -150.5 -188t-236.5 -70q-143 0 -237 96.5t-94 245.5q0 120 59 225t163 169t226 64q116 0 208 -73t110 -190l-39 -11q-16 104 -96.5 170t-188.5 66q-164 0 -281.5 -126.5t-117.5 -292.5q0 -133 80.5 -220t212.5 -87q118 0 206.5 64.5t137.5 172.5z" />
    <glyph glyph-name="uni0422" unicode="&#x422;" horiz-adv-x="608" 
d="M214 0l199 746h-264l11 37h564l-11 -37h-258l-200 -746h-41z" />
    <glyph glyph-name="uni0423" unicode="&#x423;" horiz-adv-x="695" 
d="M368 183q-68 -91 -137.5 -141t-160.5 -50q-39 0 -78 9l9 38q45 -9 70 -9q133 0 257 164l-179 589h43l166 -550l412 550h48z" />
    <glyph glyph-name="uni0424" unicode="&#x424;" horiz-adv-x="959" 
d="M627 729h1q146 0 228.5 -85t82.5 -210q0 -73 -30.5 -140.5t-85 -120.5t-138 -84.5t-182.5 -31.5h-56l-21 -81h-41l21 81h-1q-146 0 -229 85t-83 210q0 73 30.5 140.5t85 120.5t138 84.5t182.5 31.5h56l21 79h42zM522 692q-177 0 -282.5 -96.5t-105.5 -241.5
q0 -115 74 -187.5t208 -72.5l160 598h-54zM510 94q178 0 283 96.5t105 241.5q0 115 -73.5 187.5t-208.5 72.5l-159 -598h53z" />
    <glyph glyph-name="uni0425" unicode="&#x425;" horiz-adv-x="688" 
d="M2 0h-52l409 404l-199 379h43l185 -354l360 354h52l-394 -387l208 -396h-45l-192 370z" />
    <glyph glyph-name="uni0426" unicode="&#x426;" horiz-adv-x="823" 
d="M302 783l-199 -745h485l200 745h41l-199 -745h84l-53 -199h-41l43 161h-612l209 783h42z" />
    <glyph glyph-name="uni0427" unicode="&#x427;" horiz-adv-x="735" 
d="M604 372q-163 -80 -266 -80q-107 0 -162.5 43t-55.5 117q0 31 9 65l71 266h41l-72 -272q-9 -32 -9 -55q0 -128 176 -128q106 0 280 88l98 367h42l-209 -783h-42z" />
    <glyph glyph-name="uni0428" unicode="&#x428;" horiz-adv-x="1223" 
d="M1203 783h41l-209 -783h-984l209 783h42l-199 -745h430l198 745h42l-199 -745h430z" />
    <glyph glyph-name="uni0429" unicode="&#x429;" horiz-adv-x="1238" 
d="M1077 -161h-42l43 161h-1027l209 783h42l-199 -745h429l199 745h42l-199 -745h430l199 745h41l-199 -745h84z" />
    <glyph glyph-name="uni042A" unicode="&#x42a;" horiz-adv-x="778" 
d="M486 451q113 0 181 -47.5t68 -143.5q0 -123 -97.5 -191.5t-265.5 -68.5h-243l200 746h-191l10 37h232l-88 -332h194zM366 38q159 0 243.5 57.5t84.5 164.5q0 80 -58.5 117t-151.5 37h-203l-100 -376h185z" />
    <glyph glyph-name="uni042B" unicode="&#x42b;" horiz-adv-x="954" 
d="M408 451q113 0 181 -47.5t68 -143.5q0 -123 -97.5 -191.5t-266.5 -68.5h-242l209 783h42l-89 -332h195zM976 783l-210 -783h-41l209 783h42zM287 38q160 0 244.5 57.5t84.5 164.5q0 80 -58.5 117t-151.5 37h-203l-100 -376h184z" />
    <glyph glyph-name="uni042C" unicode="&#x42c;" horiz-adv-x="700" 
d="M408 451q113 0 181 -47.5t68 -143.5q0 -123 -97.5 -191.5t-266.5 -68.5h-242l209 783h42l-89 -332h195zM287 38q160 0 244.5 57.5t84.5 164.5q0 80 -58.5 117t-151.5 37h-203l-100 -376h184z" />
    <glyph glyph-name="uni042D" unicode="&#x42d;" horiz-adv-x="851" 
d="M384 -8q-124 0 -214 74.5t-108 193.5l38 11q17 -106 96.5 -174.5t192.5 -68.5q147 0 257 101t134 251h-409l10 38h404q2 13 2 38q0 128 -80.5 213t-212.5 85q-117 0 -206 -60.5t-134 -165.5l-37 15q48 114 150 181.5t231 67.5q143 0 237 -95t94 -239q0 -126 -59 -233
t-161.5 -170t-224.5 -63z" />
    <glyph glyph-name="uni042E" unicode="&#x42e;" horiz-adv-x="1119" 
d="M192 372l-100 -372h-41l209 783h42l-100 -373h176q31 165 148.5 273.5t265.5 108.5q138 0 222 -91.5t84 -231.5q0 -196 -125.5 -336.5t-296.5 -140.5q-138 0 -222.5 90.5t-84.5 230.5q0 19 4 59h-181zM1057 469q0 124 -73.5 205t-191.5 81q-155 0 -268 -130t-113 -311
q0 -124 73.5 -205t191.5 -81q103 0 191 60t139 161.5t51 219.5z" />
    <glyph glyph-name="uni042F" unicode="&#x42f;" horiz-adv-x="702" 
d="M364 321l-324 -321h-56l331 326q-173 32 -173 190q0 126 100.5 196.5t273.5 70.5h207l-209 -783h-42l86 321h-194zM671 746h-156q-156 0 -243.5 -60t-87.5 -169q0 -82 58.5 -120t156.5 -38h169z" />
    <glyph glyph-name="uni0430" unicode="&#x430;" horiz-adv-x="682" 
d="M477 0l33 126q-34 -53 -98.5 -93.5t-141.5 -40.5q-94 0 -154.5 63t-60.5 159q0 131 86 230t210 99q93 0 150 -50.5t72 -121.5h1l44 163h39l-142 -534h-38zM355 507q-112 0 -185.5 -88t-73.5 -199q0 -84 50.5 -138t129.5 -54q111 0 194.5 90t83.5 189q0 86 -55 143
t-144 57z" />
    <glyph glyph-name="uni0431" unicode="&#x431;" horiz-adv-x="676" 
d="M691 764l-198 -47q-92 -21 -159.5 -56.5t-107 -81t-60.5 -91.5t-31 -100h2q41 67 107.5 110t147.5 43q103 0 169.5 -64t66.5 -165q0 -118 -93 -219.5t-215 -101.5q-108 0 -174 66t-66 190q0 93 21 171.5t66.5 146t124.5 116t188 72.5l202 44zM588 312q0 89 -55.5 141
t-146.5 52q-108 0 -187 -86t-79 -184q0 -92 53.5 -149.5t146.5 -57.5q100 0 184 88t84 196z" />
    <glyph glyph-name="uni0432" unicode="&#x432;" horiz-adv-x="608" 
d="M562 413q0 -56 -39.5 -91t-103.5 -49q45 -10 74 -40t29 -76q0 -70 -60.5 -113.5t-162.5 -43.5h-269l140 534h231q74 0 117.5 -32.5t43.5 -88.5zM521 414q0 84 -124 84h-196l-55 -206h191q84 0 134 33.5t50 88.5zM483 159q0 47 -40 72t-105 25h-201l-58 -220h218
q86 0 136 33t50 90z" />
    <glyph glyph-name="uni0433" unicode="&#x433;" horiz-adv-x="457" 
d="M29 0l141 534h339l-9 -36h-301l-131 -498h-39z" />
    <glyph glyph-name="uni0434" unicode="&#x434;" horiz-adv-x="654" 
d="M481 36h63l-53 -201h-39l44 165h-497l-43 -165h-39l52 201h5q52 0 99.5 75.5t98.5 212.5l77 210h363zM564 498h-288l-75 -204q-40 -109 -76.5 -169t-80.5 -89h398z" />
    <glyph glyph-name="uni0435" unicode="&#x435;" horiz-adv-x="611" 
d="M559 260q4 23 4 57q0 105 -55.5 165.5t-160.5 60.5q-117 0 -203.5 -95.5t-86.5 -215.5q0 -104 65.5 -172.5t168.5 -68.5q165 0 250 153l-33 18q-72 -134 -214 -134q-88 0 -142.5 58t-54.5 147q0 9 2 27h460zM103 296q14 82 88 146.5t153 64.5q88 0 133.5 -51t45.5 -139
q0 -14 -1 -21h-419z" />
    <glyph glyph-name="uni0436" unicode="&#x436;" horiz-adv-x="754" 
d="M407 294h4l333 240h61l-354 -256l222 -278h-49l-218 275h-4l-72 -275h-39l72 275h-4l-351 -275h-61l372 290l-223 244h50l218 -240h4l63 240h39z" />
    <glyph glyph-name="uni0437" unicode="&#x437;" horiz-adv-x="477" 
d="M299 268q49 -12 71.5 -43.5t22.5 -70.5q0 -69 -58 -116t-151 -47q-84 0 -130 47t-46 113l40 7q0 -54 34 -92t102 -38q65 0 117 33t52 93q0 50 -37.5 75t-102.5 25h-53l9 35h59q81 0 128.5 31t47.5 85q0 47 -37 74t-94 27q-54 0 -98.5 -28.5t-64.5 -79.5l-37 13
q23 62 80 97t126 35q74 0 119.5 -39.5t45.5 -95.5q0 -51 -39 -90.5t-106 -48.5v-1z" />
    <glyph glyph-name="uni0438" unicode="&#x438;" horiz-adv-x="641" 
d="M29 0l141 534h39l-125 -472l494 472h39l-140 -534h-40l125 473l-493 -473h-40z" />
    <glyph glyph-name="uni0439" unicode="&#x439;" horiz-adv-x="641" 
d="M404 625q-80 0 -111 44.5t-27 99.5l31 7q-2 -115 112 -115q105 0 161 114l31 -7q-26 -66 -76.5 -104.5t-120.5 -38.5zM617 534h-39l-494 -472l125 472h-39l-141 -534h40l493 473l-125 -473h40z" />
    <glyph glyph-name="uni043A" unicode="&#x43a;" horiz-adv-x="505" 
d="M498 534h64l-373 -250l247 -284h-51l-240 278h-3l-73 -278h-39l140 534h39l-62 -235h2z" />
    <glyph glyph-name="uni043B" unicode="&#x43b;" horiz-adv-x="625" 
d="M191 294q-23 -64 -43 -109t-48.5 -92t-63 -71.5t-73.5 -24.5q-7 0 -10 1l9 36q55 0 102 75t95 206l80 219h363l-141 -534h-39l131 498h-287z" />
    <glyph glyph-name="uni043C" unicode="&#x43c;" horiz-adv-x="792" 
d="M311 0l-119 476l-125 -476h-38l141 534h46l121 -495l380 495h51l-141 -534h-39l125 474l-361 -474h-41z" />
    <glyph glyph-name="uni043D" unicode="&#x43d;" horiz-adv-x="638" 
d="M137 260l-69 -260h-39l141 534h39l-63 -238h367l62 238h39l-140 -534h-39l68 260h-366z" />
    <glyph glyph-name="uni043E" unicode="&#x43e;" horiz-adv-x="655" 
d="M293 -9q-105 0 -171.5 66.5t-66.5 168.5q0 79 40 151.5t112.5 119t158.5 46.5q105 0 172 -66t67 -168q0 -124 -91.5 -221t-220.5 -97zM298 28q109 0 187.5 84.5t78.5 193.5q0 89 -55.5 145t-145.5 56q-110 0 -188.5 -85t-78.5 -193q0 -89 56 -145t146 -56z" />
    <glyph glyph-name="uni043F" unicode="&#x43f;" horiz-adv-x="627" 
d="M199 498l-131 -498h-39l141 534h434l-141 -534h-39l131 498h-356z" />
    <glyph glyph-name="uni0440" unicode="&#x440;" horiz-adv-x="681" 
d="M631 320q0 -131 -86 -229.5t-210 -98.5q-93 0 -150.5 51t-72.5 122l-113 -428h-39l210 797h38l-32 -126q34 53 98.5 94t141.5 41q94 0 154.5 -63.5t60.5 -159.5zM332 28q111 0 184.5 88t73.5 198q0 84 -50.5 138.5t-129.5 54.5q-111 0 -194.5 -89.5t-83.5 -188.5
q0 -87 55.5 -144t144.5 -57z" />
    <glyph glyph-name="uni0441" unicode="&#x441;" horiz-adv-x="618" 
d="M293 -9q-104 0 -170.5 66t-66.5 172q0 123 90 218.5t213 95.5q90 0 150.5 -49.5t74.5 -129.5l-37 -12q-10 68 -61.5 111.5t-130.5 43.5q-103 0 -180 -85t-77 -192q0 -90 55 -146t144 -56q73 0 133 40.5t91 107.5l34 -15q-35 -80 -104.5 -125t-157.5 -45z" />
    <glyph glyph-name="uni0442" unicode="&#x442;" horiz-adv-x="472" 
d="M147 0l132 498h-199l9 36h439l-9 -36h-199l-131 -498h-42z" />
    <glyph glyph-name="uni0443" unicode="&#x443;" horiz-adv-x="577" 
d="M209 1l-114 533h42l102 -493l339 493h47l-554 -797h-48z" />
    <glyph glyph-name="uni0444" unicode="&#x444;" horiz-adv-x="857" 
d="M507 482q75 61 143 61q76 0 119.5 -45t43.5 -136q0 -61 -19 -125t-53.5 -119.5t-90.5 -90.5t-124 -35q-84 0 -132 59l-78 -295h-39l77 290q-73 -54 -141 -54q-75 0 -118.5 46.5t-43.5 138.5q0 62 18.5 125t52.5 117.5t90 89t124 34.5q80 0 133 -61l79 301h39zM459 448
q-19 27 -53 43t-73 16q-75 0 -132 -55t-83 -128.5t-26 -146.5q0 -68 29.5 -108.5t93.5 -40.5q75 0 151 64zM403 87q45 -59 127 -59q74 0 131 56t83.5 130t26.5 147q0 146 -123 146q-75 0 -151 -66z" />
    <glyph glyph-name="uni0445" unicode="&#x445;" horiz-adv-x="523" 
d="M261 248l-256 -248h-50l291 277l-139 257h42l122 -234l242 234h51l-275 -262l146 -272h-43z" />
    <glyph glyph-name="uni0446" unicode="&#x446;" horiz-adv-x="645" 
d="M209 534l-131 -498h356l130 498h40l-131 -498h63l-53 -201h-39l43 165h-457l140 534h39z" />
    <glyph glyph-name="uni0447" unicode="&#x447;" horiz-adv-x="559" 
d="M394 0h-39l60 227q-121 -56 -203 -56q-67 0 -107 30t-40 87q0 14 8 48l52 198h39l-54 -205q-6 -21 -6 -37q0 -84 113 -84q100 0 209 61l70 265h39z" />
    <glyph glyph-name="uni0448" unicode="&#x448;" horiz-adv-x="928" 
d="M763 0h-734l141 534h39l-131 -498h311l131 498h39l-131 -498h306l131 498h39z" />
    <glyph glyph-name="uni0449" unicode="&#x449;" horiz-adv-x="946" 
d="M783 -165h-39l44 165h-758l140 534h39l-131 -498h311l131 498h39l-131 -498h306l131 498h39l-131 -498h63z" />
    <glyph glyph-name="uni044A" unicode="&#x44a;" horiz-adv-x="657" 
d="M226 318h196q85 0 130.5 -35.5t45.5 -99.5q0 -88 -68 -135.5t-187 -47.5h-239l130 498h-158l9 36h198zM217 282l-65 -246h187q102 0 160.5 37.5t58.5 109.5q0 51 -40.5 75t-98.5 24h-202z" />
    <glyph glyph-name="uni044B" unicode="&#x44b;" horiz-adv-x="818" 
d="M348 318q85 0 130.5 -35.5t45.5 -99.5q0 -87 -68 -135t-187 -48h-240l141 534h39l-57 -216h196zM754 534h40l-141 -534h-39zM265 36q101 0 160 37.5t59 109.5q0 51 -40.5 75t-98.5 24h-202l-65 -246h187z" />
    <glyph glyph-name="uni044C" unicode="&#x44c;" horiz-adv-x="583" 
d="M348 318q85 0 130.5 -35.5t45.5 -99.5q0 -87 -68 -135t-187 -48h-240l141 534h39l-57 -216h196zM265 36q101 0 160 37.5t59 109.5q0 51 -40.5 75t-98.5 24h-202l-65 -246h187z" />
    <glyph glyph-name="uni044D" unicode="&#x44d;" horiz-adv-x="614" 
d="M271 -9q-98 0 -157.5 48.5t-73.5 124.5l37 12q14 -74 67.5 -111t128.5 -37q87 0 159 68t86 164h-288l10 36h281v10q0 87 -52 144t-141 57q-73 0 -133.5 -40.5t-91.5 -106.5l-36 13q33 75 103.5 122.5t158.5 47.5q105 0 169.5 -67.5t64.5 -168.5q0 -73 -35.5 -145
t-104.5 -121.5t-152 -49.5z" />
    <glyph glyph-name="uni044E" unicode="&#x44e;" horiz-adv-x="833" 
d="M135 250l-66 -250h-40l141 534h39l-64 -246h128q25 110 105 182.5t188 72.5q100 0 159 -63t59 -160q0 -132 -87 -230.5t-214 -98.5q-99 0 -158.5 62.5t-59.5 159.5q0 25 1 37h-131zM486 28q106 0 181.5 87t75.5 206q0 85 -49 135.5t-132 50.5q-106 0 -181 -88t-75 -205
q0 -86 48.5 -136t131.5 -50z" />
    <glyph glyph-name="uni044F" unicode="&#x44f;" horiz-adv-x="585" 
d="M381 0l56 213h-184l-218 -213h-52l225 217q-58 10 -89 45.5t-31 89.5q0 83 69.5 132.5t183.5 49.5h220l-141 -534h-39zM513 498h-172q-89 0 -152 -36t-63 -111q0 -57 42 -80t95 -23h184z" />
    <glyph glyph-name="uni0451" unicode="&#x451;" horiz-adv-x="611" 
d="M295 668q-16 0 -26 10t-10 26q0 19 12.5 32t31.5 13q15 0 25 -10t10 -26q0 -19 -12.5 -32t-30.5 -13zM452 668q-16 0 -25.5 10t-9.5 26q0 19 12.5 32t30.5 13q16 0 26 -10t10 -26q0 -19 -12.5 -32t-31.5 -13zM559 260q4 23 4 57q0 105 -55.5 165.5t-160.5 60.5
q-117 0 -203.5 -95.5t-86.5 -215.5q0 -104 65.5 -172.5t168.5 -68.5q165 0 250 153l-33 18q-72 -134 -214 -134q-88 0 -142.5 58t-54.5 147q0 9 2 27h460zM103 296q14 82 88 146.5t153 64.5q88 0 133.5 -51t45.5 -139q0 -14 -1 -21h-419z" />
    <glyph glyph-name="uni0452" unicode="&#x452;" horiz-adv-x="606" 
d="M565 376q0 -36 -13 -84l-88 -332q-27 -101 -94.5 -162t-166.5 -61q-62 0 -99 23l19 32q31 -19 83 -19q79 0 138 53.5t83 139.5l88 331q9 35 9 77q0 62 -35.5 97.5t-105.5 35.5q-74 0 -142 -57t-93 -149l-80 -301h-38l173 657h-79l9 35h79l32 122h39l-32 -122h218l-10 -35
h-218l-65 -247q83 133 216 133q82 0 127.5 -46.5t45.5 -120.5z" />
    <glyph glyph-name="uni0453" unicode="&#x453;" horiz-adv-x="457" 
d="M470 797h49l-167 -172h-40zM29 0l141 534h339l-9 -36h-301l-131 -498h-39z" />
    <glyph glyph-name="uni0454" unicode="&#x454;" horiz-adv-x="618" 
d="M293 -9q-104 0 -170.5 66t-66.5 172q0 123 90 218.5t213 95.5q90 0 150.5 -49.5t73.5 -129.5l-37 -12q-10 68 -61.5 111.5t-130.5 43.5q-86 0 -156 -61.5t-93 -149.5h287l-9 -36h-284q-2 -20 -2 -30q0 -90 55.5 -146t144.5 -56q73 0 133 40.5t90 107.5l35 -15
q-36 -80 -105.5 -125t-156.5 -45z" />
    <glyph glyph-name="uni0455" unicode="&#x455;" horiz-adv-x="490" 
d="M282 543q45 0 80.5 -14.5t56 -37t32 -46.5t13.5 -47l-37 -9q-3 18 -11 36t-24 37.5t-45 31.5t-67 12q-57 0 -99.5 -29t-42.5 -83t84 -90l73 -31q112 -46 112 -127q0 -73 -55.5 -114t-130.5 -41q-97 0 -146.5 54t-49.5 119l39 9q-1 -56 38 -100.5t120 -44.5
q59 0 102.5 29.5t43.5 85.5q0 59 -95 99l-68 29q-107 46 -107 120q0 71 55 111.5t129 40.5z" />
    <glyph glyph-name="uni0456" unicode="&#x456;" horiz-adv-x="234" 
d="M234 679q-15 0 -25 9.5t-10 25.5q0 19 12.5 32t30.5 13q16 0 26.5 -10t10.5 -26q0 -19 -13 -31.5t-32 -12.5zM170 534h39l-140 -534h-39z" />
    <glyph glyph-name="uni0457" unicode="&#x457;" horiz-adv-x="234" 
d="M149 668q-16 0 -26 10t-10 26q0 19 12.5 32t31.5 13q15 0 25 -10t10 -26q0 -19 -12.5 -32t-30.5 -13zM306 668q-16 0 -25.5 10t-9.5 26q0 19 12.5 32t30.5 13q16 0 26 -10t10 -26q0 -19 -12.5 -32t-31.5 -13zM170 534h40l-140 -534h-40z" />
    <glyph glyph-name="uni0458" unicode="&#x458;" horiz-adv-x="241" 
d="M242 679q-16 0 -26 9.5t-10 25.5q0 19 13 32t31 13q16 0 26 -10t10 -26q0 -19 -12.5 -31.5t-31.5 -12.5zM2 -132q-25 -98 -119 -98q-19 0 -36 6l-10 -35q22 -8 45 -8q69 0 105.5 33.5t52.5 96.5l177 671h-39z" />
    <glyph glyph-name="uni0459" unicode="&#x459;" horiz-adv-x="976" 
d="M553 498h-287l-75 -204q-23 -64 -43 -109t-48.5 -92t-63 -71.5t-73.5 -24.5q-7 0 -10 1l9 36q29 0 56.5 22t52.5 64.5t45 87t43 107.5l80 219h363l-57 -216h195q85 0 131 -35.5t46 -99.5q0 -87 -68 -135t-187 -48h-240zM471 36h187q102 0 160 37.5t58 109.5q0 51 -40 75
t-98 24h-202z" />
    <glyph glyph-name="uni045A" unicode="&#x45a;" horiz-adv-x="988" 
d="M505 268h-366l-71 -268h-39l141 534h39l-61 -231h367l60 231h39l-60 -231h197q82 0 130 -34t48 -97q0 -80 -69.5 -126t-185.5 -46h-239zM544 268l-61 -232h187q99 0 159 36.5t60 97.5q0 51 -41.5 74.5t-99.5 23.5h-204z" />
    <glyph glyph-name="uni045B" unicode="&#x45b;" horiz-adv-x="630" 
d="M392 543q82 0 127 -46t45 -121q0 -35 -13 -83l-76 -293h-39l78 297q10 39 10 77q0 62 -35.5 97.5t-105.5 35.5q-74 0 -142 -57t-93 -149l-80 -301h-39l174 657h-79l8 35h79l33 122h39l-33 -122h219l-10 -35h-218l-65 -247q83 133 216 133z" />
    <glyph glyph-name="uni045C" unicode="&#x45c;" horiz-adv-x="505" 
d="M487 797h48l-166 -172h-40zM30 0h39l73 278h3l240 -278h51l-247 284l373 250h-64l-349 -235h-2l62 235h-39z" />
    <glyph glyph-name="uni045E" unicode="&#x45e;" horiz-adv-x="577" 
d="M373 625q-80 0 -111 44.5t-27 99.5l31 7q-2 -115 112 -115q105 0 161 114l31 -7q-26 -66 -76.5 -104.5t-120.5 -38.5zM209 1l-114 533h42l102 -493l339 493h47l-554 -797h-48z" />
    <glyph glyph-name="uni045F" unicode="&#x45f;" horiz-adv-x="628" 
d="M30 0l140 534h39l-131 -498h356l130 498h40l-141 -534h-197l-43 -165h-39l43 165h-197z" />
    <glyph glyph-name="uni0490" unicode="&#x490;" horiz-adv-x="577" 
d="M51 0l209 783h382l40 150h41l-50 -187h-381l-200 -746h-41z" />
    <glyph glyph-name="uni0491" unicode="&#x491;" horiz-adv-x="457" 
d="M30 0l140 534h300l41 153h39l-50 -189h-300l-132 -498h-38z" />
    <glyph glyph-name="uni0496" unicode="&#x496;" horiz-adv-x="972" 
d="M841 0l-296 398h-5l-106 -398h-42l107 398h-6l-495 -398h-66l523 415l-297 368h48l293 -365h5l98 365h41l-98 -365h5l474 365h62l-497 -379l275 -366h42l-53 -199h-41l42 161h-13z" />
    <glyph glyph-name="uni0497" unicode="&#x497;" horiz-adv-x="765" 
d="M406 275h-4l-72 -275h-39l72 275h-4l-351 -275h-61l372 290l-223 244h50l218 -240h4l63 240h39l-63 -240h4l333 240h61l-354 -256l194 -242h40l-53 -201h-39l43 165h-12z" />
    <glyph glyph-name="uni0498" unicode="&#x498;" horiz-adv-x="613" 
d="M540 218q0 -90 -74.5 -156.5t-192.5 -69.5l-42 -153h-41l42 154q-95 10 -153.5 69.5t-56.5 141.5l39 8q-4 -79 56 -131t148 -52q91 0 162 52.5t71 139.5q0 72 -47 115.5t-141 43.5h-95l9 38h93q111 0 185.5 49t74.5 132q0 70 -49.5 112.5t-132.5 42.5t-143 -38.5
t-91 -103.5l-36 15q32 75 107 119.5t166 44.5q105 0 162.5 -56.5t57.5 -133.5q0 -80 -55 -132.5t-152 -71.5q57 -19 93 -65.5t36 -113.5z" />
    <glyph glyph-name="uni0499" unicode="&#x499;" horiz-adv-x="477" 
d="M299 268q49 -12 71.5 -43.5t22.5 -70.5q0 -65 -51.5 -111t-136.5 -51l-42 -157h-39l41 157q-75 6 -116 51.5t-41 107.5l40 7q0 -54 34 -92t102 -38q65 0 117 33t52 93q0 50 -37.5 75t-102.5 25h-53l9 35h59q81 0 128.5 31t47.5 85q0 47 -37 74t-94 27q-54 0 -98.5 -28.5
t-64.5 -79.5l-37 13q23 62 80 97t126 35q74 0 119.5 -39.5t45.5 -95.5q0 -51 -39 -90.5t-106 -48.5v-1z" />
    <glyph glyph-name="uni049A" unicode="&#x49a;" horiz-adv-x="659" 
d="M529 0l-325 397h-5l-107 -397h-41l209 783h42l-97 -364h4l499 364h61l-521 -381l304 -364h45l-54 -199h-41l43 161h-16z" />
    <glyph glyph-name="uni049B" unicode="&#x49b;" horiz-adv-x="518" 
d="M145 278h-3l-73 -278h-39l140 534h39l-62 -235h2l349 235h64l-373 -250l216 -248h43l-53 -201h-39l43 165h-14z" />
    <glyph glyph-name="uni04A2" unicode="&#x4a2;" horiz-adv-x="843" 
d="M599 0l101 380h-506l-102 -380h-41l209 783h42l-98 -365h505l99 365h41l-199 -745h85l-53 -199h-41l43 161h-85z" />
    <glyph glyph-name="uni04A3" unicode="&#x4a3;" horiz-adv-x="656" 
d="M503 260h-366l-69 -260h-39l141 534h39l-63 -238h367l62 238h39l-131 -498h63l-53 -201h-39l44 165h-63z" />
    <glyph glyph-name="uni04AA" unicode="&#x4aa;" horiz-adv-x="849" 
d="M405 -8q-136 8 -223.5 103t-87.5 239q0 120 59 225t163 169t226 64q116 0 208 -73t110 -190l-39 -11q-16 104 -96.5 170t-188.5 66q-164 0 -281.5 -126.5t-117.5 -292.5q0 -133 80.5 -220t212.5 -87q118 0 206.5 64.5t137.5 172.5l38 -15q-48 -113 -142.5 -182.5
t-223.5 -75.5l-41 -153h-41z" />
    <glyph glyph-name="uni04AB" unicode="&#x4ab;" horiz-adv-x="618" 
d="M274 -9q-97 7 -157.5 72t-60.5 166q0 123 90 218.5t213 95.5q90 0 150.5 -49.5t74.5 -129.5l-37 -12q-10 68 -61.5 111.5t-130.5 43.5q-103 0 -180 -85t-77 -192q0 -90 55 -146t144 -56q73 0 133 40.5t91 107.5l34 -15q-33 -75 -97 -120t-145 -50l-41 -156h-39z" />
    <glyph glyph-name="uni04AC" unicode="&#x4ac;" horiz-adv-x="610" 
d="M214 0l199 746h-264l11 37h564l-11 -37h-258l-189 -708h84l-53 -199h-41l43 161h-85z" />
    <glyph glyph-name="uni04AD" unicode="&#x4ad;" horiz-adv-x="474" 
d="M147 0l132 498h-199l9 36h439l-9 -36h-199l-122 -462h64l-54 -201h-39l44 165h-66z" />
    <glyph glyph-name="uni04B2" unicode="&#x4b2;" horiz-adv-x="698" 
d="M569 0l-192 370l-375 -370h-52l409 404l-199 379h43l185 -354l360 354h52l-394 -387l188 -358h33l-53 -199h-41l43 161h-7z" />
    <glyph glyph-name="uni04B3" unicode="&#x4b3;" horiz-adv-x="533" 
d="M392 0l-131 248l-256 -248h-50l291 277l-139 257h42l122 -234l242 234h51l-275 -262l127 -236h31l-53 -201h-40l44 165h-6z" />
    <glyph glyph-name="uni04B6" unicode="&#x4b6;" horiz-adv-x="750" 
d="M604 372q-163 -80 -266 -80q-107 0 -162.5 43t-55.5 117q0 31 9 65l71 266h41l-72 -272q-9 -32 -9 -55q0 -128 176 -128q106 0 280 88l98 367h42l-199 -745h84l-53 -199h-41l43 161h-85z" />
    <glyph glyph-name="uni04B7" unicode="&#x4b7;" horiz-adv-x="576" 
d="M415 227q-121 -56 -203 -56q-67 0 -107 30t-40 87q0 14 8 48l52 198h39l-54 -205q-6 -21 -6 -37q0 -84 113 -84q100 0 209 61l70 265h39l-132 -498h64l-53 -201h-39l43 165h-63z" />
    <glyph glyph-name="uni04C0" unicode="&#x4c0;" horiz-adv-x="280" 
d="M302 783l-210 -783h-41l209 783h42z" />
    <glyph glyph-name="uni04C1" unicode="&#x4c1;" horiz-adv-x="960" 
d="M632 865q-80 0 -111 44.5t-27 99.5l31 7q-2 -115 112 -115q105 0 161 114l31 -7q-26 -66 -76.5 -104.5t-120.5 -38.5zM-2 0h-66l523 415l-297 368h48l293 -365h5l98 365h41l-98 -365h5l474 365h62l-497 -379l304 -404h-52l-296 398h-5l-106 -398h-42l107 398h-6z" />
    <glyph glyph-name="uni04C2" unicode="&#x4c2;" horiz-adv-x="754" 
d="M470 625q-80 0 -111 44.5t-27 99.5l31 7q-2 -115 112 -115q105 0 161 114l31 -7q-26 -66 -76.5 -104.5t-120.5 -38.5zM407 294h4l333 240h61l-354 -256l222 -278h-49l-218 275h-4l-72 -275h-39l72 275h-4l-351 -275h-61l372 290l-223 244h50l218 -240h4l63 240h39z" />
    <glyph glyph-name="uni04CF" unicode="&#x4cf;" horiz-adv-x="234" 
d="M170 534h40l-141 -534h-40z" />
    <glyph glyph-name="uni04D0" unicode="&#x4d0;" horiz-adv-x="756" 
d="M527 865q-80 0 -111 44.5t-27 99.5l31 7q-2 -115 112 -115q107 0 161 114l32 -7q-26 -67 -76.5 -105t-121.5 -38zM150 223l-159 -223h-46l557 783h44l136 -783h-41l-38 223h-453zM516 739l-339 -478h420z" />
    <glyph glyph-name="uni04D1" unicode="&#x4d1;" horiz-adv-x="682" 
d="M366 625q-80 0 -111 44.5t-27 99.5l31 7q-2 -115 112 -115q105 0 161 114l31 -7q-26 -66 -76.5 -104.5t-120.5 -38.5zM477 0l33 126q-34 -53 -98.5 -93.5t-141.5 -40.5q-94 0 -154.5 63t-60.5 159q0 131 86 230t210 99q93 0 150 -50.5t72 -121.5h1l44 163h39l-142 -534
h-38zM355 507q-112 0 -185.5 -88t-73.5 -199q0 -84 50.5 -138t129.5 -54q111 0 194.5 90t83.5 189q0 86 -55 143t-144 57z" />
    <glyph glyph-name="uni04D2" unicode="&#x4d2;" horiz-adv-x="756" 
d="M464 898q-16 0 -25.5 10t-9.5 26q0 19 12 32t31 13q16 0 25.5 -10t9.5 -26q0 -19 -12 -32t-31 -13zM628 898q-16 0 -26 10t-10 26q0 19 12.5 32t30.5 13q16 0 26 -10t10 -26q0 -19 -12.5 -32t-30.5 -13zM150 223l-159 -223h-46l557 783h44l136 -783h-41l-38 223h-453z
M516 739l-339 -478h420z" />
    <glyph glyph-name="uni04D3" unicode="&#x4d3;" horiz-adv-x="682" 
d="M306 668q-16 0 -25.5 10t-9.5 26q0 19 12 32t31 13q15 0 25 -10t10 -26q0 -19 -12 -32t-31 -13zM463 668q-16 0 -25.5 10t-9.5 26q0 19 12.5 32t30.5 13q16 0 26 -10t10 -26q0 -19 -12.5 -32t-31.5 -13zM477 0l33 126q-34 -53 -98.5 -93.5t-141.5 -40.5q-94 0 -154.5 63
t-60.5 159q0 131 86 230t210 99q93 0 150 -50.5t72 -121.5h1l44 163h39l-142 -534h-38zM355 507q-112 0 -185.5 -88t-73.5 -199q0 -84 50.5 -138t129.5 -54q111 0 194.5 90t83.5 189q0 86 -55 143t-144 57z" />
    <glyph glyph-name="uni04D4" unicode="&#x4d4;" horiz-adv-x="1028" 
d="M-18 0h-50l683 783h488l-11 -37h-407l-88 -328h374l-11 -38h-374l-91 -342h413l-10 -38h-454l60 223h-327zM631 746l-422 -485h305l130 485h-13z" />
    <glyph glyph-name="uni04D5" unicode="&#x4d5;" horiz-adv-x="959" 
d="M189 -9q-68 0 -116 35t-48 98q0 83 68 123.5t166 43.5l154 4q14 64 52 119q-8 41 -44 67t-87 26q-48 0 -87 -16t-61.5 -40.5t-34.5 -45.5t-18 -40l-37 12q7 23 22.5 48.5t43 53.5t73 46t101.5 18q55 0 97.5 -25t58.5 -70q88 95 203 95q105 0 161 -60.5t56 -165.5
q0 -34 -4 -57h-462q-1 -9 -1 -27q0 -90 54.5 -147.5t143.5 -57.5q141 0 213 134l33 -18q-85 -153 -250 -153q-75 0 -131.5 37.5t-82.5 101.5q-39 -63 -101.5 -101t-134.5 -38zM872 317q0 88 -46 139t-134 51q-80 0 -153.5 -64.5t-87.5 -146.5h420q1 7 1 21zM262 256
q-36 -1 -68.5 -7.5t-62.5 -21t-47.5 -41t-17.5 -62.5q0 -43 36 -70t90 -27q71 0 129.5 42t89.5 106q-6 27 -6 57q0 10 2 28z" />
    <glyph glyph-name="uni04D6" unicode="&#x4d6;" horiz-adv-x="653" 
d="M493 865q-80 0 -111 44.5t-27 99.5l31 7q-2 -115 112 -115q105 0 161 114l31 -7q-26 -66 -76.5 -104.5t-120.5 -38.5zM260 783h468l-10 -37h-427l-87 -328h392l-10 -38h-392l-91 -342h430l-10 -38h-472z" />
    <glyph glyph-name="uni04D7" unicode="&#x4d7;" horiz-adv-x="611" 
d="M354 625q-80 0 -111 44.5t-27 99.5l32 7q-2 -115 111 -115q106 0 162 114l31 -7q-26 -67 -76.5 -105t-121.5 -38zM559 260q4 23 4 57q0 105 -55.5 165.5t-160.5 60.5q-117 0 -203.5 -95.5t-86.5 -215.5q0 -104 65.5 -172.5t168.5 -68.5q165 0 250 153l-33 18
q-72 -134 -214 -134q-88 0 -142.5 58t-54.5 147q0 9 2 27h460zM103 296q14 82 88 146.5t153 64.5q88 0 133.5 -51t45.5 -139q0 -14 -1 -21h-419z" />
    <glyph glyph-name="uni04DC" unicode="&#x4dc;" horiz-adv-x="960" 
d="M564 898q-16 0 -25.5 10t-9.5 26q0 19 12 32t31 13q16 0 25.5 -10t9.5 -26q0 -19 -12 -32t-31 -13zM728 898q-16 0 -26 10t-10 26q0 19 12.5 32t30.5 13q16 0 26 -10t10 -26q0 -19 -12.5 -32t-30.5 -13zM-2 0h-66l523 415l-297 368h48l293 -365h5l98 365h41l-98 -365h5
l474 365h62l-497 -379l304 -404h-52l-296 398h-5l-106 -398h-42l107 398h-6z" />
    <glyph glyph-name="uni04DD" unicode="&#x4dd;" horiz-adv-x="754" 
d="M404 668q-16 0 -26 10t-10 26q0 19 12.5 32t31.5 13q15 0 25 -10t10 -26q0 -19 -12.5 -32t-30.5 -13zM561 668q-16 0 -25.5 10t-9.5 26q0 19 12 32t31 13q16 0 25.5 -10t9.5 -26q0 -19 -12.5 -32t-30.5 -13zM407 294h4l333 240h61l-354 -256l222 -278h-49l-218 275h-4
l-72 -275h-39l72 275h-4l-351 -275h-61l372 290l-223 244h50l218 -240h4l63 240h39z" />
    <glyph glyph-name="uni04DE" unicode="&#x4de;" horiz-adv-x="613" 
d="M363 898q-16 0 -25.5 10t-9.5 26q0 19 12 32t31 13q16 0 25.5 -10t9.5 -26q0 -19 -12 -32t-31 -13zM527 898q-16 0 -26 10t-10 26q0 19 12.5 32t30.5 13q16 0 26 -10t10 -26q0 -19 -12.5 -32t-30.5 -13zM540 218q0 -91 -77.5 -158.5t-200.5 -67.5q-106 0 -174 62t-66 150
l39 8q-4 -79 56 -131t148 -52q91 0 162 52.5t71 139.5q0 72 -47 115.5t-141 43.5h-95l9 38h93q111 0 185.5 49t74.5 132q0 70 -49.5 112.5t-132.5 42.5t-143 -38.5t-91 -103.5l-36 15q32 75 107 119.5t166 44.5q105 0 162.5 -56.5t57.5 -133.5q0 -80 -55 -132.5t-152 -71.5
q57 -19 93 -65.5t36 -113.5z" />
    <glyph glyph-name="uni04DF" unicode="&#x4df;" horiz-adv-x="477" 
d="M240 668q-16 0 -26 10t-10 26q0 19 12.5 32t31.5 13q15 0 25 -10t10 -26q0 -19 -12 -32t-31 -13zM397 668q-16 0 -25.5 10t-9.5 26q0 19 12.5 32t30.5 13q16 0 26 -10t10 -26q0 -19 -12.5 -32t-31.5 -13zM299 268q49 -12 71.5 -43.5t22.5 -70.5q0 -69 -58 -116t-151 -47
q-84 0 -130 47t-46 113l40 7q0 -54 34 -92t102 -38q65 0 117 33t52 93q0 50 -37.5 75t-102.5 25h-53l9 35h59q81 0 128.5 31t47.5 85q0 47 -37 74t-94 27q-54 0 -98.5 -28.5t-64.5 -79.5l-37 13q23 62 80 97t126 35q74 0 119.5 -39.5t45.5 -95.5q0 -51 -39 -90.5t-106 -48.5
v-1z" />
    <glyph glyph-name="uni04E2" unicode="&#x4e2;" horiz-adv-x="836" 
d="M748 880h-334l9 37h334zM301 783l-194 -725l698 725h52l-209 -783h-42l195 726l-697 -726h-53l209 783h41z" />
    <glyph glyph-name="uni04E3" unicode="&#x4e3;" horiz-adv-x="641" 
d="M583 641h-333l9 37h333zM29 0l141 534h39l-125 -472l494 472h39l-140 -534h-40l125 473l-493 -473h-40z" />
    <glyph glyph-name="uni04E4" unicode="&#x4e4;" horiz-adv-x="836" 
d="M498 898q-16 0 -25.5 10t-9.5 26q0 19 12 32t31 13q16 0 25.5 -10t9.5 -26q0 -19 -12 -32t-31 -13zM662 898q-16 0 -26 10t-10 26q0 19 12.5 32t30.5 13q16 0 26 -10t10 -26q0 -19 -12.5 -32t-30.5 -13zM301 783l-194 -725l698 725h52l-209 -783h-42l195 726l-697 -726
h-53l209 783h41z" />
    <glyph glyph-name="uni04E5" unicode="&#x4e5;" horiz-adv-x="641" 
d="M348 668q-16 0 -26 10t-10 26q0 19 12.5 32t30.5 13q16 0 26 -10t10 -26q0 -19 -12.5 -32t-30.5 -13zM505 668q-16 0 -25.5 10t-9.5 26q0 19 12 32t31 13q16 0 25.5 -10t9.5 -26q0 -19 -12.5 -32t-30.5 -13zM29 0l141 534h39l-125 -472l494 472h39l-140 -534h-40l125 473
l-493 -473h-40z" />
    <glyph glyph-name="uni04E6" unicode="&#x4e6;" horiz-adv-x="886" 
d="M483 898q-16 0 -25.5 10t-9.5 26q0 19 12 32t31 13q16 0 25.5 -10t9.5 -26q0 -19 -12 -32t-31 -13zM647 898q-16 0 -26 10t-10 26q0 19 12.5 32t30.5 13q16 0 26 -10t10 -26q0 -19 -12.5 -32t-30.5 -13zM424 -8q-145 0 -238.5 96t-93.5 237q0 119 58.5 226.5t161 174
t221.5 66.5q146 0 239.5 -96t93.5 -238q0 -119 -58.5 -226.5t-161.5 -173.5t-222 -66zM425 28q109 0 202 61t145 159.5t52 207.5q0 128 -81.5 213t-210.5 85q-109 0 -202 -61t-145 -159t-52 -208q0 -127 81.5 -212.5t210.5 -85.5z" />
    <glyph glyph-name="uni04E7" unicode="&#x4e7;" horiz-adv-x="655" 
d="M321 668q-16 0 -26 10t-10 26q0 19 12.5 32t31.5 13q15 0 25 -10t10 -26q0 -19 -12.5 -32t-30.5 -13zM478 668q-16 0 -25.5 10t-9.5 26q0 19 12 32t31 13q16 0 25.5 -10t9.5 -26q0 -19 -12.5 -32t-30.5 -13zM293 -9q-105 0 -171.5 66.5t-66.5 168.5q0 79 40 151.5
t112.5 119t158.5 46.5q105 0 172 -66t67 -168q0 -124 -91.5 -221t-220.5 -97zM298 28q109 0 187.5 84.5t78.5 193.5q0 89 -55.5 145t-145.5 56q-110 0 -188.5 -85t-78.5 -193q0 -89 56 -145t146 -56z" />
    <glyph glyph-name="uni04E8" unicode="&#x4e8;" horiz-adv-x="886" 
d="M424 -8q-145 0 -238.5 96t-93.5 237q0 119 58.5 226.5t161 174t221.5 66.5q146 0 239.5 -96t93.5 -238q0 -119 -58.5 -226.5t-161.5 -173.5t-222 -66zM822 418q2 26 2 38q0 128 -81.5 213t-210.5 85q-141 0 -249.5 -97.5t-139.5 -238.5h679zM137 380q-4 -24 -4 -54
q0 -127 81.5 -212.5t210.5 -85.5q145 0 255.5 103t136.5 249h-680z" />
    <glyph glyph-name="uni04E9" unicode="&#x4e9;" horiz-adv-x="655" 
d="M293 -9q-105 0 -171.5 66.5t-66.5 168.5q0 79 40 151.5t112.5 119t158.5 46.5q105 0 172 -66t67 -168q0 -124 -91.5 -221t-220.5 -97zM563 286q1 6 1 20q0 89 -55.5 145t-145.5 56q-95 0 -168.5 -65t-92.5 -156h461zM97 251q-1 -7 -1 -22q0 -89 56 -145t146 -56
q94 0 168.5 66t92.5 157h-462z" />
    <glyph glyph-name="uni04EA" unicode="&#x4ea;" horiz-adv-x="886" 
d="M483 898q-16 0 -25.5 10t-9.5 26q0 19 12 32t31 13q16 0 25.5 -10t9.5 -26q0 -19 -12 -32t-31 -13zM647 898q-16 0 -26 10t-10 26q0 19 12.5 32t30.5 13q16 0 26 -10t10 -26q0 -19 -12.5 -32t-30.5 -13zM424 -8q-145 0 -238.5 96t-93.5 237q0 119 58.5 226.5t161 174
t221.5 66.5q146 0 239.5 -96t93.5 -238q0 -119 -58.5 -226.5t-161.5 -173.5t-222 -66zM822 418q2 26 2 38q0 128 -81.5 213t-210.5 85q-141 0 -249.5 -97.5t-139.5 -238.5h679zM137 380q-4 -24 -4 -54q0 -127 81.5 -212.5t210.5 -85.5q145 0 255.5 103t136.5 249h-680z" />
    <glyph glyph-name="uni04EB" unicode="&#x4eb;" horiz-adv-x="655" 
d="M321 668q-16 0 -26 10t-10 26q0 19 12.5 32t31.5 13q15 0 25 -10t10 -26q0 -19 -12.5 -32t-30.5 -13zM478 668q-16 0 -25.5 10t-9.5 26q0 19 12 32t31 13q16 0 25.5 -10t9.5 -26q0 -19 -12.5 -32t-30.5 -13zM293 -9q-105 0 -171.5 66.5t-66.5 168.5q0 79 40 151.5
t112.5 119t158.5 46.5q105 0 172 -66t67 -168q0 -124 -91.5 -221t-220.5 -97zM563 286q1 6 1 20q0 89 -55.5 145t-145.5 56q-95 0 -168.5 -65t-92.5 -156h461zM97 251q-1 -7 -1 -22q0 -89 56 -145t146 -56q94 0 168.5 66t92.5 157h-462z" />
    <glyph glyph-name="uni04EC" unicode="&#x4ec;" horiz-adv-x="851" 
d="M437 898q-16 0 -25.5 10t-9.5 26q0 19 12 32t31 13q16 0 25.5 -10t9.5 -26q0 -19 -12 -32t-31 -13zM601 898q-16 0 -26 10t-10 26q0 19 12.5 32t30.5 13q16 0 26 -10t10 -26q0 -19 -12.5 -32t-30.5 -13zM384 -8q-124 0 -214 74.5t-108 193.5l38 11q17 -106 96.5 -174.5
t192.5 -68.5q147 0 257 101t134 251h-409l10 38h404q2 13 2 38q0 128 -80.5 213t-212.5 85q-117 0 -206 -60.5t-134 -165.5l-37 15q48 114 150 181.5t231 67.5q143 0 237 -95t94 -239q0 -126 -59 -233t-161.5 -170t-224.5 -63z" />
    <glyph glyph-name="uni04ED" unicode="&#x4ed;" horiz-adv-x="614" 
d="M278 668q-16 0 -25.5 10t-9.5 26q0 19 12 32t31 13q16 0 25.5 -10t9.5 -26q0 -19 -12 -32t-31 -13zM436 668q-16 0 -26 10t-10 26q0 19 12.5 32t30.5 13q16 0 26 -10t10 -26q0 -19 -12.5 -32t-30.5 -13zM271 -9q-98 0 -157.5 48.5t-73.5 124.5l37 12q14 -74 67.5 -111
t128.5 -37q87 0 159 68t86 164h-288l10 36h281v10q0 87 -52 144t-141 57q-73 0 -133.5 -40.5t-91.5 -106.5l-36 13q33 75 103.5 122.5t158.5 47.5q105 0 169.5 -67.5t64.5 -168.5q0 -73 -35.5 -145t-104.5 -121.5t-152 -49.5z" />
    <glyph glyph-name="uni04EE" unicode="&#x4ee;" horiz-adv-x="695" 
d="M671 880h-333l9 37h334zM368 183q-68 -91 -137.5 -141t-160.5 -50q-39 0 -78 9l9 38q45 -9 70 -9q133 0 257 164l-179 589h43l166 -550l412 550h48z" />
    <glyph glyph-name="uni04EF" unicode="&#x4ef;" horiz-adv-x="577" 
d="M549 641h-334l10 37h333zM209 1l-114 533h42l102 -493l339 493h47l-554 -797h-48z" />
    <glyph glyph-name="uni04F0" unicode="&#x4f0;" horiz-adv-x="695" 
d="M424 898q-16 0 -25.5 10t-9.5 26q0 19 12 32t31 13q16 0 25.5 -10t9.5 -26q0 -19 -12 -32t-31 -13zM588 898q-16 0 -26 10t-10 26q0 19 12.5 32t30.5 13q16 0 26 -10t10 -26q0 -19 -12.5 -32t-30.5 -13zM368 183q-68 -91 -137.5 -141t-160.5 -50q-39 0 -78 9l9 38
q45 -9 70 -9q133 0 257 164l-179 589h43l166 -550l412 550h48z" />
    <glyph glyph-name="uni04F1" unicode="&#x4f1;" horiz-adv-x="577" 
d="M316 668q-16 0 -25.5 10t-9.5 26q0 19 12 32t31 13q16 0 25.5 -10t9.5 -26q0 -19 -12 -32t-31 -13zM474 668q-16 0 -26 10t-10 26q0 19 12.5 32t30.5 13q16 0 26 -10t10 -26q0 -19 -12.5 -32t-30.5 -13zM209 1l-114 533h42l102 -493l339 493h47l-554 -797h-48z" />
    <glyph glyph-name="uni04F2" unicode="&#x4f2;" horiz-adv-x="695" 
d="M549 1027h49l-167 -173h-39zM696 1027h48l-166 -173h-40zM368 183q-68 -91 -137.5 -141t-160.5 -50q-39 0 -78 9l9 38q45 -9 70 -9q133 0 257 164l-179 589h43l166 -550l412 550h48z" />
    <glyph glyph-name="uni04F3" unicode="&#x4f3;" horiz-adv-x="577" 
d="M430 797h48l-166 -172h-40zM576 797h49l-167 -172h-40zM209 1l-114 533h42l102 -493l339 493h47l-554 -797h-48z" />
    <glyph glyph-name="uni04F4" unicode="&#x4f4;" horiz-adv-x="735" 
d="M419 898q-16 0 -25.5 10t-9.5 26q0 19 12 32t31 13q16 0 25.5 -10t9.5 -26q0 -19 -12 -32t-31 -13zM583 898q-16 0 -26 10t-10 26q0 19 12.5 32t30.5 13q16 0 26 -10t10 -26q0 -19 -12.5 -32t-30.5 -13zM547 0l209 783h-42l-98 -367q-174 -88 -280 -88q-176 0 -176 128
q0 23 9 55l72 272h-41l-71 -266q-9 -34 -9 -65q0 -74 55.5 -117t162.5 -43q103 0 266 80l-99 -372h42z" />
    <glyph glyph-name="uni04F5" unicode="&#x4f5;" horiz-adv-x="559" 
d="M288 668q-16 0 -26 10t-10 26q0 19 12.5 32t30.5 13q16 0 26 -10t10 -26q0 -19 -12.5 -32t-30.5 -13zM445 668q-16 0 -25.5 10t-9.5 26q0 19 12 32t31 13q16 0 25.5 -10t9.5 -26q0 -19 -12.5 -32t-30.5 -13zM394 0h-39l60 227q-121 -56 -203 -56q-67 0 -107 30t-40 87
q0 14 8 48l52 198h39l-54 -205q-6 -21 -6 -37q0 -84 113 -84q100 0 209 61l70 265h39z" />
    <glyph glyph-name="uni04F8" unicode="&#x4f8;" horiz-adv-x="954" 
d="M571 898q-16 0 -25.5 10t-9.5 26q0 19 12 32t31 13q16 0 25.5 -10t9.5 -26q0 -19 -12 -32t-31 -13zM735 898q-16 0 -26 10t-10 26q0 19 12.5 32t30.5 13q16 0 26 -10t10 -26q0 -19 -12.5 -32t-30.5 -13zM408 451q113 0 181 -47.5t68 -143.5q0 -123 -97.5 -191.5
t-266.5 -68.5h-242l209 783h42l-89 -332h195zM976 783l-210 -783h-41l209 783h42zM287 38q160 0 244.5 57.5t84.5 164.5q0 80 -58.5 117t-151.5 37h-203l-100 -376h184z" />
    <glyph glyph-name="uni04F9" unicode="&#x4f9;" horiz-adv-x="818" 
d="M444 668q-16 0 -26 10t-10 26q0 19 12.5 32t31.5 13q15 0 25 -10t10 -26q0 -19 -12.5 -32t-30.5 -13zM601 668q-16 0 -25.5 10t-9.5 26q0 19 12 32t31 13q16 0 26 -10t10 -26q0 -19 -13 -32t-31 -13zM348 318q85 0 130.5 -35.5t45.5 -99.5q0 -87 -68 -135t-187 -48h-240
l141 534h39l-57 -216h196zM754 534h40l-141 -534h-39zM265 36q101 0 160 37.5t59 109.5q0 51 -40.5 75t-98.5 24h-202l-65 -246h187z" />
    <glyph glyph-name="uni0E3F" unicode="&#xe3f;" horiz-adv-x="731" 
d="M51 0l210 783h224l28 108h40l-29 -109q88 -8 141.5 -54t53.5 -120q0 -88 -62.5 -142t-153.5 -67q159 -37 159 -169q0 -100 -85 -165t-238 -65h-21l-26 -102h-41l27 102h-227zM292 746l-87 -328h184l86 328h-183zM428 419q116 5 182.5 54.5t66.5 131.5q0 61 -43.5 97
t-119.5 42zM193 380l-90 -342h186l90 342h-186zM340 38q133 0 207 54.5t74 141.5q0 67 -55.5 104.5t-148.5 41.5l-89 -342h12z" />
    <glyph glyph-name="uni1E20" unicode="&#x1e20;" horiz-adv-x="865" 
d="M715 880h-334l10 37h333zM443 365h403q-21 -171 -142.5 -272t-278.5 -101q-147 0 -239.5 93t-92.5 240q0 191 131 329t310 138q73 0 133 -24t97 -62t58.5 -78.5t28.5 -80.5l-38 -11q-4 21 -13 44.5t-30.5 56t-50.5 57t-77.5 42.5t-108.5 18q-115 0 -208 -63t-142 -160
t-49 -205q0 -132 81 -215t211 -83q189 0 301 146q56 74 71 153h-365z" />
    <glyph glyph-name="uni1E21" unicode="&#x1e21;" horiz-adv-x="682" 
d="M547 641h-334l10 37h333zM513 -18q-31 -118 -109 -183.5t-196 -65.5q-61 0 -108.5 20.5t-74.5 53t-41 69t-15 73.5l38 8q0 -27 9 -55.5t29.5 -60t63 -51.5t100.5 -20q101 0 169.5 56t97.5 165l38 146h-1q-31 -50 -98 -89t-141 -39q-91 0 -153 63.5t-62 156.5
q0 131 86 222.5t212 91.5q87 0 147 -50t73 -116l42 157h38zM558 316q0 80 -56 135t-145 55q-112 0 -184.5 -81.5t-72.5 -192.5q0 -80 52 -133t129 -53q112 0 194.5 86t82.5 184z" />
    <glyph glyph-name="uni1E30" unicode="&#x1e30;" horiz-adv-x="646" 
d="M607 1027h49l-167 -173h-39zM248 402l521 381h-61l-499 -364h-4l97 364h-42l-209 -783h41l107 397h5l325 -397h54z" />
    <glyph glyph-name="uni1E31" unicode="&#x1e31;" horiz-adv-x="505" 
d="M496 534h66l-374 -246l248 -288h-51l-240 282h-2l-75 -282h-39l215 814h39l-135 -512h2zM346 625h39l167 172h-49z" />
    <glyph glyph-name="uni1E60" unicode="&#x1e60;" horiz-adv-x="633" 
d="M426 899q-16 0 -26 10t-10 26q0 18 12.5 31t31.5 13q15 0 25.5 -10t10.5 -25q0 -19 -13 -32t-31 -13zM308 -9q105 0 180 57t75 159q0 66 -45 109t-124 82l-56 28q-31 16 -50 27.5t-43.5 31t-37 43t-12.5 51.5q0 83 62.5 128.5t149.5 45.5q57 0 99 -20.5t62 -51t28.5 -58
t8.5 -49.5l40 7q0 47 -28 97q-64 113 -209 113q-105 0 -179.5 -57.5t-74.5 -156.5q0 -34 15 -64t42 -53t50.5 -37t54.5 -30l57 -29q34 -17 53 -28.5t45 -31.5t38 -44.5t12 -54.5q0 -85 -62 -131t-149 -46q-94 0 -156 66t-61 162l-40 -6q0 -108 73.5 -183.5t181.5 -75.5z" />
    <glyph glyph-name="uni1E61" unicode="&#x1e61;" horiz-adv-x="490" 
d="M310 668q-16 0 -26.5 10t-10.5 26q0 19 13 32t31 13q16 0 26.5 -10t10.5 -26q0 -19 -13 -32t-31 -13zM282 543q45 0 80.5 -14.5t56 -37t32 -46.5t13.5 -47l-37 -9q-3 18 -11 36t-24 37.5t-45 31.5t-67 12q-57 0 -99.5 -29t-42.5 -83t84 -90l73 -31q112 -46 112 -127
q0 -73 -55.5 -114t-130.5 -41q-97 0 -146.5 54t-49.5 119l39 9q-1 -56 38 -100.5t120 -44.5q59 0 102.5 29.5t43.5 85.5q0 59 -95 99l-68 29q-107 46 -107 120q0 71 55 111.5t129 40.5z" />
    <glyph glyph-name="Wgrave" unicode="&#x1e80;" horiz-adv-x="1110" 
d="M717 854h-32l-76 173h40zM1168 783l-425 -733l-37 733h-39l-416 -733l-45 733h-41l51 -783h45l412 720l35 -720h45l460 783h-45z" />
    <glyph glyph-name="wgrave" unicode="&#x1e81;" horiz-adv-x="856" 
d="M521 625h-32l-76 172h40zM531 0l-45 479l-297 -479h-40l-49 534h39l42 -485l298 485h40l43 -485l294 485h43l-327 -534h-41z" />
    <glyph glyph-name="Wacute" unicode="&#x1e82;" horiz-adv-x="1110" 
d="M837 1027h49l-167 -173h-39zM1168 783l-425 -733l-37 733h-39l-416 -733l-45 733h-41l51 -783h45l412 720l35 -720h45l460 783h-45z" />
    <glyph glyph-name="wacute" unicode="&#x1e83;" horiz-adv-x="856" 
d="M637 797h48l-166 -172h-40zM531 0l-45 479l-297 -479h-40l-49 534h39l42 -485l298 485h40l43 -485l294 485h43l-327 -534h-41z" />
    <glyph glyph-name="Wdieresis" unicode="&#x1e84;" horiz-adv-x="1110" 
d="M631 898q-16 0 -25.5 10t-9.5 26q0 19 12 32t31 13q16 0 25.5 -10t9.5 -26q0 -19 -12 -32t-31 -13zM795 898q-16 0 -26 10t-10 26q0 19 12.5 32t30.5 13q16 0 26 -10t10 -26q0 -19 -12.5 -32t-30.5 -13zM1168 783l-425 -733l-37 733h-39l-416 -733l-45 733h-41l51 -783
h45l412 720l35 -720h45l460 783h-45z" />
    <glyph glyph-name="wdieresis" unicode="&#x1e85;" horiz-adv-x="856" 
d="M459 668q-16 0 -26 10t-10 26q0 19 12.5 32t31.5 13q15 0 25 -10t10 -26q0 -19 -12.5 -32t-30.5 -13zM616 668q-16 0 -25.5 10t-9.5 26q0 19 12.5 32t30.5 13q16 0 26 -10t10 -26q0 -19 -12.5 -32t-31.5 -13zM531 0l-45 479l-297 -479h-40l-49 534h39l42 -485l298 485h40
l43 -485l294 485h43l-327 -534h-41z" />
    <glyph glyph-name="uni1E90" unicode="&#x1e90;" horiz-adv-x="607" 
d="M339 854h-42l178 173h43l88 -172h-35l-78 142zM-40 0l10 37l678 709h-473l10 37h527l-11 -37l-677 -708h492l-11 -38h-545z" />
    <glyph glyph-name="uni1E91" unicode="&#x1e91;" horiz-adv-x="491" 
d="M222 625h-43l178 172h43l89 -172h-36l-78 142zM-24 34l488 465h-357l10 35h407l-8 -34l-487 -465h366l-9 -35h-419z" />
    <glyph glyph-name="uni1EBC" unicode="&#x1ebc;" horiz-adv-x="653" 
d="M695 942q-16 -36 -41.5 -61.5t-57.5 -25.5q-30 0 -71.5 34t-66.5 34q-42 0 -73 -62l-27 13q42 83 103 83q33 0 75 -33.5t64 -33.5q41 0 69 61zM194 380h392l10 38h-392l87 328h427l10 37h-468l-209 -783h472l10 38h-430z" />
    <glyph glyph-name="uni1EBD" unicode="&#x1ebd;" horiz-adv-x="611" 
d="M551 712q-40 -86 -100 -86q-29 0 -71 33.5t-67 33.5q-41 0 -73 -61l-26 12q41 84 103 84q33 0 74.5 -33.5t63.5 -33.5q41 0 70 61zM559 260q4 23 4 57q0 105 -55.5 165.5t-160.5 60.5q-117 0 -203.5 -95.5t-86.5 -215.5q0 -104 65.5 -172.5t168.5 -68.5q165 0 250 153
l-33 18q-72 -134 -214 -134q-88 0 -142.5 58t-54.5 147q0 9 2 27h460zM103 296q14 82 88 146.5t153 64.5q88 0 133.5 -51t45.5 -139q0 -14 -1 -21h-419z" />
    <glyph glyph-name="Ygrave" unicode="&#x1ef2;" horiz-adv-x="718" 
d="M521 854h-32l-76 173h40zM260 0l92 340l-185 443h44l169 -409l387 409h54l-431 -452l-88 -331h-42z" />
    <glyph glyph-name="ygrave" unicode="&#x1ef3;" horiz-adv-x="577" 
d="M420 625h-32l-76 172h41zM209 1l-114 533h42l102 -493l339 493h47l-554 -797h-48z" />
    <glyph glyph-name="endash" unicode="&#x2013;" horiz-adv-x="624" 
d="M561 335l-9 -36h-460l10 36h459z" />
    <glyph glyph-name="emdash" unicode="&#x2014;" horiz-adv-x="1037" 
d="M974 335l-9 -36h-873l10 36h872z" />
    <glyph glyph-name="quoteleft" unicode="&#x2018;" horiz-adv-x="271" 
d="M225 678q17 0 26.5 -10t9.5 -24q0 -20 -13.5 -34.5t-33.5 -14.5q-18 0 -30 12t-12 35q0 45 29.5 83.5t73.5 63.5l18 -24q-67 -42 -80 -88q4 1 12 1z" />
    <glyph glyph-name="quoteright" unicode="&#x2019;" horiz-adv-x="240" 
d="M239 706q-17 0 -26.5 10t-9.5 24q0 20 13.5 34.5t33.5 14.5q18 0 30 -12t12 -35q0 -45 -29 -83t-74 -64l-18 24q67 42 80 89q-4 -2 -12 -2z" />
    <glyph glyph-name="quotesinglbase" unicode="&#x201a;" horiz-adv-x="257" 
d="M69 -4q-17 0 -26.5 10t-9.5 24q0 20 13.5 34.5t33.5 14.5q19 0 31 -12t12 -35q0 -45 -29 -83t-74 -64l-17 21q69 43 81 93q-6 -3 -15 -3z" />
    <glyph glyph-name="quotedblleft" unicode="&#x201c;" horiz-adv-x="418" 
d="M226 678q17 0 26.5 -10t9.5 -24q0 -20 -13.5 -34.5t-33.5 -14.5q-19 0 -31 12t-12 35q0 45 29 83t74 64l17 -21q-69 -43 -81 -93q6 3 15 3zM372 678q17 0 26.5 -10t9.5 -24q0 -20 -13.5 -34.5t-33.5 -14.5q-19 0 -31 12t-12 35q0 45 29 83t74 64l17 -21q-69 -43 -81 -93
q6 3 15 3z" />
    <glyph glyph-name="quotedblright" unicode="&#x201d;" horiz-adv-x="387" 
d="M239 706q-17 0 -26.5 10t-9.5 24q0 20 13.5 34.5t33.5 14.5q19 0 31 -12t12 -35q0 -45 -29 -83t-74 -64l-17 21q69 43 81 93q-6 -3 -15 -3zM385 706q-17 0 -26.5 10t-9.5 24q0 20 13.5 34.5t33.5 14.5q19 0 31 -12t12 -35q0 -45 -29 -83t-74 -64l-17 21q69 43 81 93
q-6 -3 -15 -3z" />
    <glyph glyph-name="quotedblbase" unicode="&#x201e;" horiz-adv-x="411" 
d="M77 -4q-17 0 -26.5 10t-9.5 24q0 20 13.5 34.5t33.5 14.5q19 0 31 -12t12 -35q0 -45 -29 -83t-74 -64l-17 21q69 43 81 93q-6 -3 -15 -3zM223 -4q-17 0 -26.5 10t-9.5 24q0 20 13.5 34.5t33.5 14.5q19 0 31 -12t12 -35q0 -45 -29 -83t-74 -64l-17 21q69 43 81 93
q-6 -3 -15 -3z" />
    <glyph glyph-name="dagger" unicode="&#x2020;" horiz-adv-x="612" 
d="M219 0l123 466h-201l9 36h201l63 239h39l-63 -239h202l-9 -36h-203l-122 -466h-39z" />
    <glyph glyph-name="daggerdbl" unicode="&#x2021;" horiz-adv-x="612" 
d="M167 -206l54 206h-221l10 37h220l123 463h-222l10 36h221l54 205h39l-55 -205h223l-10 -36h-222l-121 -463h221l-10 -37h-221l-55 -206h-38z" />
    <glyph glyph-name="bullet" unicode="&#x2022;" horiz-adv-x="521" 
d="M286 190q-72 0 -123 51.5t-51 123.5t51 124.5t123 52.5q71 0 122 -52.5t51 -124.5t-50.5 -123.5t-122.5 -51.5z" />
    <glyph glyph-name="ellipsis" unicode="&#x2026;" horiz-adv-x="709" 
d="M70 -8q-17 0 -28 11t-11 28q0 20 14 34t34 14q17 0 28 -11t11 -28q0 -20 -14 -34t-34 -14zM302 -8q-17 0 -28 11t-11 28q0 20 14 34t34 14q17 0 28 -11t11 -28q0 -20 -14 -34t-34 -14zM534 -8q-17 0 -28 11t-11 28q0 20 14 34t33 14q17 0 28.5 -11t11.5 -28
q0 -20 -14 -34t-34 -14z" />
    <glyph glyph-name="perthousand" unicode="&#x2030;" horiz-adv-x="1353" 
d="M485 633q0 -81 -55 -137.5t-136 -56.5q-67 0 -111.5 43.5t-44.5 113.5q0 80 55 137.5t135 57.5q67 0 112 -44.5t45 -113.5zM151 0l678 783h46l-677 -783h-47zM451 634q0 52 -35.5 87.5t-88.5 35.5q-68 0 -111.5 -49t-43.5 -113q0 -52 35.5 -87t88.5 -35q67 0 111 48
t44 113zM890 189q0 -81 -55 -137.5t-136 -56.5q-68 0 -112.5 43.5t-44.5 113.5q0 80 55.5 137.5t134.5 57.5q68 0 113 -44.5t45 -113.5zM1289 189q0 -81 -55 -137.5t-135 -56.5q-68 0 -112.5 43.5t-44.5 113.5q0 80 55 137.5t135 57.5q67 0 112 -44.5t45 -113.5zM855 189
q0 52 -35 87.5t-89 35.5q-67 0 -110.5 -49t-43.5 -113q0 -52 35 -86.5t89 -34.5q66 0 110 48t44 112zM1255 189q0 52 -35 87.5t-89 35.5q-68 0 -111.5 -49t-43.5 -113q0 -52 35.5 -86.5t88.5 -34.5q67 0 111 48t44 112z" />
    <glyph glyph-name="guilsinglleft" unicode="&#x2039;" horiz-adv-x="344" 
d="M295 479l22 -28l-200 -156l113 -147l-28 -22l-136 175z" />
    <glyph glyph-name="guilsinglright" unicode="&#x203a;" horiz-adv-x="342" 
d="M73 126l-23 29l201 155l-114 147l29 22l135 -175z" />
    <glyph glyph-name="uni203D" unicode="&#x203d;" horiz-adv-x="554" 
d="M591 617q0 -18 -5 -36t-10 -32t-19.5 -33.5t-22.5 -29.5t-30 -31.5t-30.5 -29.5t-36 -32.5t-35.5 -31.5q-107 -95 -122 -153h-41l104 393h40l-76 -289h1q27 36 79 82q6 6 35 31t39 35t32 33.5t30.5 39t17 38.5t8.5 45q0 60 -48 98.5t-116 38.5q-94 0 -154.5 -60.5
t-60.5 -136.5l-41 3q4 97 77 165t181 68q85 0 144.5 -50.5t59.5 -124.5zM175 31q0 17 11 28.5t27 11.5t27.5 -11.5t11.5 -28.5t-11.5 -28.5t-27.5 -11.5t-27 11.5t-11 28.5z" />
    <glyph glyph-name="uni2042" unicode="&#x2042;" horiz-adv-x="934" 
d="M491 586l-154 99l17 27l148 -105l44 180l33 -9l-55 -176l180 13l2 -32l-184 -5l71 -165l-31 -12l-60 165l-136 -110l-20 25zM206 167l-155 99l18 26l147 -105l44 180l33 -9l-55 -176l180 14l2 -32l-184 -6l71 -165l-30 -12l-61 165l-136 -110l-20 25zM657 167l-155 99
l19 26l147 -105l44 180l33 -9l-56 -176l181 14l2 -32l-184 -6l71 -165l-30 -12l-61 165l-136 -110l-20 25z" />
    <glyph glyph-name="fraction" unicode="&#x2044;" horiz-adv-x="562" 
d="M-44 0l678 783h45l-677 -783h-46z" />
    <glyph glyph-name="uni2051" unicode="&#x2051;" horiz-adv-x="525" 
d="M335 586l-154 99l17 27l148 -105l44 180l32 -9l-54 -176l180 13l1 -32l-183 -5l71 -165l-31 -12l-60 165l-137 -110l-20 25zM224 167l-155 99l18 26l147 -105l44 180l33 -9l-55 -176l181 14l1 -32l-184 -6l71 -165l-30 -12l-60 165l-137 -110l-20 25z" />
    <glyph glyph-name="lira" unicode="&#x20a4;" horiz-adv-x="633" 
d="M568 179q-14 -79 -71.5 -129t-136.5 -50h-355l11 39q170 111 200 232h-134l9 37h131q0 4 0.5 12t0.5 12q0 32 -13 114h-87l9 37h73q-4 40 -4 60q0 109 62 178t170 69q64 0 112 -28.5t68 -79.5q12 -30 12 -69v-9l-39 -5v10q0 68 -42.5 106t-112.5 38q-90 0 -139.5 -59
t-49.5 -151q0 -27 5 -60h257l-10 -37h-243q12 -74 12 -112q0 -18 -1 -26h196l-10 -37h-192q-32 -134 -186 -233h286q66 0 113.5 41.5t58.5 106.5z" />
    <glyph glyph-name="uni20A6" unicode="&#x20a6;" horiz-adv-x="908" 
d="M211 505l75 278h48l126 -278h327l75 278h40l-75 -278h91l-10 -36h-90l-38 -141h90l-9 -37h-91l-77 -291h-45l-133 291h-321l-78 -291h-39l77 291h-89l10 37h89l38 141h-90l10 36h89zM251 505h166l-104 229zM204 328h294l-64 141h-192zM541 328h199l38 141h-301zM667 53
l63 238h-172z" />
    <glyph glyph-name="uni20A9" unicode="&#x20a9;" horiz-adv-x="1143" 
d="M1120 402l-9 -35h-120l-216 -367h-45l-18 368h-219l-210 -368h-45l-24 367h-120l9 35h109l-25 381h41l23 -382h221l216 382h40l19 -382h221l222 382h45l-224 -381h109zM694 720l-182 -319h198zM253 368l20 -318l180 318h-200zM748 368l16 -318l185 318h-201z" />
    <glyph glyph-name="uni20AA" unicode="&#x20aa;" horiz-adv-x="1013" 
d="M632 200l59 223q18 66 18 104q0 75 -47.5 103t-129.5 28h-296l-175 -658h42l165 621h260q31 0 52.5 -3t43.5 -12.5t33 -29.5t11 -50t-18 -98l-60 -228h42zM989 658l-116 -439q-32 -122 -94.5 -170.5t-186.5 -48.5h-296l121 455h42l-111 -418h255q103 0 153 44.5t77 144.5
l114 432h42z" />
    <glyph glyph-name="dong" unicode="&#x20ab;" horiz-adv-x="707" 
d="M53 214q0 131 86 230t210 99q94 0 151 -51t72 -122l76 287h-208l9 35h208l32 122h40l-33 -122h75l-10 -35h-74l-173 -657h-39l34 126h-1q-34 -53 -98.5 -93.5t-141.5 -40.5q-94 0 -154.5 63t-60.5 159zM353 507q-112 0 -185.5 -88t-73.5 -199q0 -84 50.5 -138t129.5 -54
q111 0 194.5 90t83.5 189q0 86 -55 143t-144 57zM478 -136l-9 -35h-498l9 35h498z" />
    <glyph glyph-name="Euro" unicode="&#x20ac;" horiz-adv-x="937" 
d="M853 265l37 -15q-49 -117 -149.5 -187.5t-236.5 -70.5q-130 0 -221 81t-107 212h-116l10 38h103v11q0 60 18 127h-90l10 38h93q51 129 164 211t252 82q117 0 208.5 -73t109.5 -190l-38 -11q-16 104 -96.5 170t-188.5 66q-120 0 -219 -71.5t-147 -183.5h406l-23 -38h-397
q-20 -62 -20 -126v-12h344l-22 -38h-318q15 -114 93 -185.5t196 -71.5q119 0 207.5 64.5t137.5 172.5z" />
    <glyph glyph-name="uni20AE" unicode="&#x20ae;" horiz-adv-x="651" 
d="M400 459l219 88l-11 -41l-219 -88l-32 -121l219 87l-12 -41l-218 -87l-69 -256h-41l64 237l-219 -88l11 42l219 88l32 121l-219 -88l11 42l219 87l81 304h-264l11 38h564l-11 -38h-258z" />
    <glyph glyph-name="uni20B1" unicode="&#x20b1;" horiz-adv-x="764" 
d="M77 0l143 534h-89l11 38h87l57 211h188q124 0 191 -53t67 -147q0 -2 -0.5 -6t-0.5 -5h75l-10 -38h-69q-19 -99 -112.5 -155.5t-243.5 -56.5h-167l-86 -322h-41zM691 580q0 68 -42 109q-55 57 -177 57h-156l-46 -175h420q0 1 0.5 4t0.5 5zM375 360q131 0 212 47t99 127
h-426l-47 -174h162z" />
    <glyph glyph-name="uni20B4" unicode="&#x20b4;" horiz-adv-x="695" 
d="M559 498q61 58 61 129q0 59 -47 92.5t-108 33.5q-74 0 -143.5 -45t-106.5 -103l-33 21q45 69 122 117t163 48t140 -45t54 -121q0 -37 -16.5 -72t-37.5 -55h76l-10 -37h-545l10 37h421zM205 295q-22 -25 -34.5 -41t-23 -41.5t-10.5 -52.5q0 -64 49.5 -97t115.5 -33
q156 0 260 151l35 -21q-118 -167 -297 -167q-89 0 -146.5 43t-57.5 123q0 75 63 136h-76l10 38h546l-11 -38h-423z" />
    <glyph glyph-name="uni20B8" unicode="&#x20b8;" horiz-adv-x="675" 
d="M750 745h-564l10 38h564zM250 0l152 569h-263l10 38h564l-10 -38h-259l-152 -569h-42z" />
    <glyph glyph-name="uni20B9" unicode="&#x20b9;" horiz-adv-x="635" 
d="M442 748q49 -15 84.5 -58t35.5 -104v-9h106l-9 -37h-101q-13 -67 -62 -116q-81 -80 -236 -89l182 -335h-48l-178 332h-130l10 38h126q167 0 246 79q38 40 49 91h-375l10 37h369v6q0 77 -56 120t-163 43h-105l10 37h512l-10 -36z" />
    <glyph glyph-name="uni20BA" unicode="&#x20ba;" horiz-adv-x="632" 
d="M608 330q-26 -144 -147.5 -237t-311.5 -93h-45l81 302l-1 -1l-126 -50l11 41l127 51l33 121l-1 -1l-126 -50l11 41l127 51l74 278h41l-69 -260l256 103l-11 -41l-257 -103l-32 -121l257 103l-12 -41l-256 -103l-75 -281q83 0 151.5 20t113 51t77 71.5t48.5 77.5t22 74z
" />
    <glyph glyph-name="uni20BD" unicode="&#x20bd;" horiz-adv-x="704" 
d="M383 183l-9 -37h-203l-38 -146h-42l39 146h-96l10 37h96l37 139h-96l10 37h96l113 424h178q124 0 191 -53t67 -147q0 -120 -96.5 -190.5t-264.5 -70.5h-157l-37 -139h202zM695 580q0 69 -41 109q-55 57 -177 57h-146l-103 -386h152q149 0 232 60t83 160z" />
    <glyph glyph-name="uni2113" unicode="&#x2113;" horiz-adv-x="461" 
d="M151 166q-7 -30 -7 -50q0 -88 118 -88q30 0 70 9l-10 -37q-40 -9 -69 -9q-66 0 -107.5 27.5t-41.5 89.5q0 23 9 59l25 95q-54 -19 -101 -32l10 39q51 15 102 36l79 298q17 67 59 106t108 39q54 0 86 -32.5t32 -85.5q0 -60 -28.5 -115t-78 -98.5t-105 -77t-120.5 -61.5z
M193 321q121 55 201 132.5t80 175.5q0 38 -22 60.5t-58 22.5q-99 0 -129 -116z" />
    <glyph glyph-name="uni2116" unicode="&#x2116;" horiz-adv-x="1273" 
d="M91 0h-40l209 783h49l332 -730l195 730h41l-210 -783h-45l-334 734zM1278 510q0 -86 -64 -153.5t-154 -67.5q-73 0 -119.5 46t-46.5 117q0 86 63 154t153 68q73 0 120.5 -46.5t47.5 -117.5zM1239 506q0 60 -36 97t-96 37q-72 0 -124 -56t-52 -127q0 -60 36.5 -97
t96.5 -37q73 0 124 55.5t51 127.5zM813 115l9 34h354l-9 -34h-354z" />
    <glyph glyph-name="trademark" unicode="&#x2122;" horiz-adv-x="1021" 
d="M239 332h-40l110 416h-138l9 35h316l-10 -35h-137zM1009 750l-289 -418h-34l-74 414h-2l-109 -414h-38l119 451h58l72 -406l280 406h66l-119 -451h-39l111 418h-2z" />
    <glyph glyph-name="estimated" unicode="&#x212e;" horiz-adv-x="899" 
d="M263 120q43 -45 107 -68.5t128 -23.5q211 0 301 167l33 -18q-44 -86 -131 -136t-203 -50q-178 0 -281.5 115.5t-103.5 291.5q0 168 107.5 281t277.5 113q168 0 275 -110.5t109 -277.5h-619v-284zM734 663q-43 46 -108 69.5t-129 23.5q-137 0 -234 -91v-226h471v224z" />
    <glyph glyph-name="uni2153" unicode="&#x2153;" horiz-adv-x="890" 
d="M72 0l678 783h46l-677 -783h-47zM221 328l109 415l-164 -74l-13 29l188 85h37l-119 -455h-38zM732 230q38 -10 56.5 -37.5t18.5 -60.5q0 -59 -48 -99.5t-124 -40.5q-67 0 -104.5 40.5t-37.5 97.5l35 7q0 -46 27.5 -79t80.5 -33q51 0 92 28.5t41 78.5q0 84 -109 84h-38
l9 33h42q63 0 101 26t38 72q0 38 -28.5 61.5t-72.5 23.5q-97 0 -130 -92l-33 11q18 47 60.5 80.5t108.5 33.5q59 0 96 -34.5t37 -81.5q0 -44 -31 -78t-87 -41z" />
    <glyph glyph-name="uni2154" unicode="&#x2154;" horiz-adv-x="1054" 
d="M76 328q23 107 156 173l94 46q99 50 99 117q0 41 -27 68.5t-77 27.5q-61 0 -91 -40t-30 -84l-37 4q0 54 42 103t118 49q65 0 102.5 -37.5t37.5 -89.5q0 -88 -119 -147l-94 -46q-91 -44 -119 -110h266l-9 -34h-312zM211 0l678 783h46l-677 -783h-47zM895 230
q38 -10 56.5 -37.5t18.5 -60.5q0 -59 -48 -99.5t-124 -40.5q-67 0 -104.5 40.5t-37.5 97.5l35 7q0 -46 27.5 -79t80.5 -33q51 0 92 28.5t41 78.5q0 84 -109 84h-38l9 33h42q63 0 101 26t38 72q0 38 -28.5 61.5t-72.5 23.5q-97 0 -130 -92l-33 11q18 47 60.5 80.5t108.5 33.5
q59 0 96 -34.5t37 -81.5q0 -44 -31 -78t-87 -41z" />
    <glyph glyph-name="oneeighth" unicode="&#x215b;" horiz-adv-x="916" 
d="M72 0l678 783h45l-676 -783h-47zM222 328l109 415l-165 -74l-12 29l188 85h37l-120 -455h-37zM869 350q0 -43 -33.5 -75.5t-84.5 -45.5q37 -16 60.5 -43.5t23.5 -60.5q0 -59 -50 -96.5t-128 -37.5q-73 0 -120.5 34t-47.5 88q0 48 39 82t99 47q-70 34 -70 94q0 56 47 92.5
t116 36.5q63 0 106 -32t43 -83zM833 349q0 36 -32 59.5t-82 23.5q-56 0 -91.5 -28t-35.5 -69q0 -35 31 -60.5t78 -25.5q58 0 95 29.5t37 70.5zM798 125q0 39 -35 66.5t-92 27.5q-64 0 -104.5 -31t-40.5 -73q0 -41 35.5 -66t95.5 -25q66 0 103.5 28.5t37.5 72.5z" />
    <glyph glyph-name="threeeighths" unicode="&#x215c;" horiz-adv-x="1016" 
d="M333 557q38 -10 56.5 -37.5t18.5 -60.5q0 -59 -48 -99.5t-124 -40.5q-67 0 -104.5 40.5t-37.5 97.5l35 7q0 -46 27.5 -79t80.5 -33q51 0 92 28.5t41 78.5q0 84 -109 84h-38l9 33h42q63 0 101 26t38 72q0 38 -28.5 61.5t-72.5 23.5q-97 0 -130 -92l-33 11q18 47 60.5 80.5
t108.5 33.5q59 0 96 -34.5t37 -81.5q0 -44 -31 -78t-87 -41zM171 0l679 783h45l-677 -783h-47zM969 350q0 -43 -33.5 -75.5t-84.5 -45.5q37 -16 60.5 -43.5t23.5 -60.5q0 -59 -50.5 -96.5t-128.5 -37.5q-73 0 -120.5 34t-47.5 88q0 48 39 82t100 47q-71 35 -71 94
q0 56 47.5 92.5t116.5 36.5q62 0 105.5 -32t43.5 -83zM933 349q0 36 -32 59.5t-82 23.5q-56 0 -91.5 -28t-35.5 -69q0 -35 31 -60.5t78 -25.5q58 0 95 29.5t37 70.5zM898 125q0 39 -35 66.5t-92 27.5q-64 0 -105 -31t-41 -73q0 -41 36 -66t96 -25q66 0 103.5 28.5t37.5 72.5
z" />
    <glyph glyph-name="fiveeighths" unicode="&#x215d;" horiz-adv-x="1004" 
d="M187 583q48 37 101 37q58 0 93.5 -39t35.5 -93q0 -75 -50 -123t-124 -48q-63 0 -104.5 38t-41.5 95l36 8q-1 -49 31 -78t80 -29q60 0 98 38.5t38 98.5q0 41 -26.5 69.5t-70.5 28.5q-57 0 -113 -45l-32 14l101 228h235l-9 -34h-204zM160 0l678 783h45l-676 -783h-47z
M957 350q0 -43 -33.5 -75.5t-84.5 -45.5q37 -16 60.5 -43.5t23.5 -60.5q0 -59 -50 -96.5t-128 -37.5q-73 0 -120.5 34t-47.5 88q0 48 39 82t99 47q-70 34 -70 94q0 56 47 92.5t116 36.5q63 0 106 -32t43 -83zM921 349q0 36 -32 59.5t-82 23.5q-56 0 -91.5 -28t-35.5 -69
q0 -35 31 -60.5t78 -25.5q58 0 95 29.5t37 70.5zM886 125q0 39 -35 66.5t-92 27.5q-64 0 -104.5 -31t-40.5 -73q0 -41 35.5 -66t95.5 -25q66 0 103.5 28.5t37.5 72.5z" />
    <glyph glyph-name="seveneighths" unicode="&#x215e;" horiz-adv-x="945" 
d="M72 0l678 783h46l-677 -783h-47zM434 749h-264l10 34h306l-10 -37l-298 -418h-46zM899 350q0 -43 -33.5 -75.5t-84.5 -45.5q37 -16 60.5 -43.5t23.5 -60.5q0 -59 -50 -96.5t-128 -37.5q-73 0 -120.5 34t-47.5 88q0 48 39 82t99 47q-71 35 -71 94q0 56 47.5 92.5
t116.5 36.5q63 0 106 -32t43 -83zM863 349q0 36 -32 59.5t-82 23.5q-56 0 -91.5 -28t-35.5 -69q0 -35 31 -60.5t78 -25.5q58 0 95 29.5t37 70.5zM828 125q0 39 -35 66.5t-92 27.5q-64 0 -104.5 -31t-40.5 -73q0 -41 35.5 -66t95.5 -25q66 0 103.5 28.5t37.5 72.5z" />
    <glyph glyph-name="arrowleft" unicode="&#x2190;" horiz-adv-x="664" 
d="M346 618l-228 -236h548v-37h-548l228 -236l-27 -26l-264 274v13l264 274z" />
    <glyph glyph-name="arrowup" unicode="&#x2191;" horiz-adv-x="664" 
d="M625 379l-235 228v-547h-37v547l-236 -228l-26 26l274 264h13l273 -264z" />
    <glyph glyph-name="arrowright" unicode="&#x2192;" horiz-adv-x="664" 
d="M375 109l228 236h-548v37h548l-228 236l26 26l265 -274v-13l-265 -274z" />
    <glyph glyph-name="arrowdown" unicode="&#x2193;" horiz-adv-x="664" 
d="M97 350l236 -227v547h36l1 -548l235 228l26 -26l-274 -264h-13l-273 264z" />
    <glyph glyph-name="uni2196" unicode="&#x2196;" horiz-adv-x="664" 
d="M542 554l-328 -6l387 -387l-26 -26l-387 387l-6 -328h-37l7 381l9 9l380 6z" />
    <glyph glyph-name="uni2197" unicode="&#x2197;" horiz-adv-x="664" 
d="M520 194l-6 328l-387 -387l-26 26l387 387l-328 6l1 36l380 -6l9 -9l7 -381h-37z" />
    <glyph glyph-name="uni2198" unicode="&#x2198;" horiz-adv-x="664" 
d="M175 172l328 5l-387 387l27 26l386 -386l6 327h37l-7 -380l-9 -9l-380 -7z" />
    <glyph glyph-name="uni2199" unicode="&#x2199;" horiz-adv-x="664" 
d="M192 531l6 -327l386 386l26 -26l-386 -387l327 -5v-37l-380 7l-9 9l-7 380h37z" />
    <glyph glyph-name="uni21A9" unicode="&#x21a9;" horiz-adv-x="1004" 
d="M998 471q0 -129 -84 -207.5t-225 -78.5h-603l227 -236l-26 -26l-264 274v13l264 273l26 -25l-228 -236h602q120 0 195.5 66t75.5 183q0 121 -73.5 184.5t-199.5 63.5h-194v37h196q146 0 228.5 -77.5t82.5 -207.5z" />
    <glyph glyph-name="uni21B0" unicode="&#x21b0;" horiz-adv-x="865" 
d="M723 291q0 117 -59 164t-186 47h-305l228 -236l-26 -26l-265 274v13l265 273l26 -26l-228 -235h309q144 0 212 -60t68 -189v-290h-39v291z" />
    <glyph glyph-name="uni21B1" unicode="&#x21b1;" horiz-adv-x="698" 
d="M79 290q0 129 67.5 189t211.5 60h310l-228 235l26 26l264 -273v-13l-264 -274l-26 26l228 236h-305q-127 0 -186 -47t-59 -164v-291h-39v290z" />
    <glyph glyph-name="uni21B2" unicode="&#x21b2;" horiz-adv-x="699" 
d="M692 493q0 -129 -68 -188.5t-212 -59.5h-309l228 -236l-27 -26l-264 274v13l264 273l27 -25l-228 -236h305q126 0 185 47t59 164v290h40v-290z" />
    <glyph glyph-name="uni21B3" unicode="&#x21b3;" horiz-adv-x="865" 
d="M214 493q0 -117 59 -164t186 -47h305l-228 236l26 25l265 -273v-13l-265 -274l-26 26l228 236h-309q-144 0 -212 59.5t-68 188.5v290h39v-290z" />
    <glyph glyph-name="uni21B4" unicode="&#x21b4;" horiz-adv-x="976" 
d="M458 783q129 0 189 -68t60 -212v-309l236 228l26 -26l-274 -265h-13l-273 265l25 26l236 -228v305q0 127 -47 186t-164 59h-291v39h290z" />
    <glyph glyph-name="partialdiff" unicode="&#x2202;" horiz-adv-x="651" 
d="M267 -8q-95 0 -155.5 60t-60.5 155q0 121 85 203.5t207 82.5q135 0 222 -110q11 57 11 111q0 119 -58 189t-177 71q-60 0 -128 -20l-8 36q71 22 138 22q136 0 205 -80.5t69 -215.5q0 -76 -20 -161q-16 -69 -43.5 -128.5t-67.5 -108.5t-96.5 -77.5t-122.5 -28.5zM556 337
q-86 119 -215 119q-103 0 -176 -72.5t-73 -174.5q0 -80 49.5 -130t128.5 -50q58 0 108.5 28t85 74t57.5 98t35 108z" />
    <glyph glyph-name="uni2206" unicode="&#x2206;" horiz-adv-x="820" 
d="M574 783l136 -783h-737l555 783h46zM664 37l-122 702l-496 -702h618z" />
    <glyph glyph-name="product" unicode="&#x220f;" horiz-adv-x="682" 
d="M400 0l200 746h-260l-199 -746h-41l199 746h-130l11 37h600l-9 -37h-130l-199 -746h-42z" />
    <glyph glyph-name="summation" unicode="&#x2211;" horiz-adv-x="594" 
d="M480 38l-10 -38h-495l9 39l427 364l-223 345l9 35h480l-10 -37h-434l227 -350l-418 -358h438z" />
    <glyph glyph-name="minus" unicode="&#x2212;" horiz-adv-x="660" 
d="M111 357l10 37h485l-10 -37h-485z" />
    <glyph glyph-name="radical" unicode="&#x221a;" horiz-adv-x="696" 
d="M377 49l420 909h40l-444 -958h-45l-130 579h-117l10 36h140z" />
    <glyph glyph-name="infinity" unicode="&#x221e;" horiz-adv-x="1011" 
d="M754 126q-26 0 -51 8.5t-43.5 20t-40.5 32.5t-34 35t-33.5 40t-29.5 36q-7 -7 -43.5 -44.5t-52 -50t-47.5 -36t-61 -32.5t-62 -9q-76 0 -124.5 52t-48.5 129q0 88 60.5 152.5t148.5 64.5q26 0 51 -8.5t43 -19.5t40.5 -32.5t34 -34.5t34 -40.5t30.5 -36.5l36 36t41.5 41
t39.5 34.5t47 33t46 18.5t53 9q77 0 125.5 -53t48.5 -131q0 -89 -60.5 -151.5t-147.5 -62.5zM290 488q-71 0 -121 -54.5t-50 -125.5q0 -62 38.5 -103t100.5 -41q28 0 55 9.5t55 30.5t45.5 36.5t47 46t39.5 39.5q-2 3 -23 29t-27.5 33t-26 28.5t-31.5 29.5t-30 20.5t-36 17
t-36 4.5zM787 488q-26 0 -52.5 -9.5t-57 -33.5t-45 -36.5t-49 -47.5t-36.5 -37q9 -10 33 -40.5t38 -45.5t37.5 -35.5t48 -29.5t51.5 -9q72 0 121.5 52.5t49.5 122.5q0 62 -38.5 105.5t-100.5 43.5z" />
    <glyph glyph-name="integral" unicode="&#x222b;" horiz-adv-x="371" 
d="M103 -134q-35 -131 -163 -131q-35 0 -59 10l9 33q26 -7 52 -7q97 0 124 104l205 779q35 131 163 131q35 0 59 -10l-9 -33q-26 7 -52 7q-97 0 -124 -103z" />
    <glyph glyph-name="uni2236" unicode="&#x2236;" horiz-adv-x="268" 
d="M218 542q-17 0 -28 11t-11 28q0 20 13.5 34t33.5 14q17 0 28.5 -10.5t11.5 -27.5q0 -20 -14 -34.5t-34 -14.5zM96 80q-17 0 -28 10.5t-11 27.5q0 20 14 34.5t33 14.5q17 0 28.5 -11.5t11.5 -28.5q0 -19 -14 -33t-34 -14z" />
    <glyph glyph-name="approxequal" unicode="&#x2248;" horiz-adv-x="624" 
d="M271 556q33 0 63 -15.5t49 -34.5t45 -34.5t50 -15.5q45 0 99 43l18 -24q-57 -57 -124 -57q-29 0 -57 16t-48 35t-47.5 35t-54.5 16q-43 0 -97 -44l-18 24q56 56 122 56zM212 334q33 0 63 -16t49 -34.5t45 -34.5t50 -16q47 0 99 43l18 -24q-58 -56 -124 -56
q-44 0 -105.5 50.5t-101.5 50.5q-43 0 -97 -44l-18 25q58 56 122 56z" />
    <glyph glyph-name="notequal" unicode="&#x2260;" horiz-adv-x="635" 
d="M309 277h242l-10 -38h-253l-63 -113l-31 16l55 97h-167l9 38h180l112 198h-239l9 38h250l76 133l30 -14l-69 -119h173l-10 -38h-182z" />
    <glyph glyph-name="lessequal" unicode="&#x2264;" horiz-adv-x="662" 
d="M150 371l398 -206l-10 -39l-433 229l11 40l552 227l-12 -45zM12 0l9 36h494l-9 -36h-494z" />
    <glyph glyph-name="greaterequal" unicode="&#x2265;" horiz-adv-x="652" 
d="M579 377l-397 206l9 39l433 -229l-11 -39l-552 -228l12 45zM27 0l9 36h494l-9 -36h-494z" />
    <glyph glyph-name="uni2318" unicode="&#x2318;" horiz-adv-x="698" 
d="M632 106q-32 -34 -79 -34q-46 0 -80 33.5t-34 79.5v79h-180v-79q0 -47 -34 -79q-34 -34 -80 -34t-79 33.5t-33 79.5t32 80q35 33 80 33h78v180h-77q-46 0 -80 34q-33 33 -33 80q0 46 33.5 79.5t79.5 33.5t79 -33q34 -34 34 -80v-79h180v79q0 46 33.5 79.5t80.5 33.5
q46 0 79 -33t33 -80t-33 -80.5t-79 -33.5h-78v-180h78q46 0 79 -33t33 -80q0 -48 -33 -79zM223 592q0 33 -23 56t-54 23q-33 0 -56.5 -23t-23.5 -56q0 -31 24 -55q22 -24 56 -24h77v79zM608 648q-25 23 -55 23q-33 0 -55.5 -23t-22.5 -56v-79h78q33 0 55 24q23 23 23 55
q0 31 -23 56zM439 478h-180v-180h180v180zM223 264h-78q-32 0 -55 -23q-24 -24 -24 -56t23 -55.5t56 -23.5q32 0 55 23q23 21 23 56v79zM608 241q-23 23 -55 23h-78v-79q0 -33 22.5 -56t55.5 -23t55.5 23t22.5 56t-23 56z" />
    <glyph glyph-name="filledbox" unicode="&#x25a0;" horiz-adv-x="908" 
d="M810 0h-709v711h709v-711z" />
    <glyph glyph-name="uni25A1" unicode="&#x25a1;" horiz-adv-x="956" 
d="M101 711h709v-711h-709v711zM141 674v-636h629v636h-629z" />
    <glyph glyph-name="triagup" unicode="&#x25b2;" horiz-adv-x="838" 
d="M421 730l417 -730h-838z" />
    <glyph glyph-name="uni25B3" unicode="&#x25b3;" horiz-adv-x="838" 
d="M831 0h-824l412 720zM764 38l-345 604l-346 -604h691z" />
    <glyph glyph-name="lozenge" unicode="&#x25ca;" horiz-adv-x="716" 
d="M50 392l395 391h41l187 -390l-396 -393h-41zM261 39l365 361l-165 346l-364 -361z" />
    <glyph glyph-name="circle" unicode="&#x25cb;" horiz-adv-x="813" 
d="M407 -14q-154 0 -262.5 108t-108.5 262t108.5 263t262.5 109t262 -108.5t108 -263.5q0 -154 -108 -262t-262 -108zM407 690q-138 0 -234.5 -98t-96.5 -236t96.5 -235.5t234.5 -97.5q136 0 232 98t96 235q0 138 -96 236t-232 98z" />
    <glyph glyph-name="uni25CF" unicode="&#x25cf;" horiz-adv-x="813" 
d="M36 356q0 155 108 263.5t262 108.5t262.5 -109t108.5 -263t-108.5 -262t-262.5 -108t-262 108t-108 262z" />
    <glyph glyph-name="uni2605" unicode="&#x2605;" horiz-adv-x="838" 
d="M814 443l-244 -177l93 -287l-244 177l-245 -175l94 285l-244 177h302l93 287l93 -287h302z" />
    <glyph glyph-name="uni2611" unicode="&#x2611;" horiz-adv-x="956" 
d="M810 0h-709v711h670l122 209l32 -19l-115 -199v-702zM474 125l-242 290l31 25l206 -248l280 482h-608v-636h629v596z" />
    <glyph glyph-name="uni2612" unicode="&#x2612;" horiz-adv-x="908" 
d="M101 711h709v-711h-709v711zM141 674v-636h629v636h-629zM271 140l-26 27l184 188l-183 187l26 26l183 -186l181 185l26 -25l-182 -187l182 -184l-26 -27l-181 184z" />
    <glyph glyph-name="uni2639" unicode="&#x2639;" horiz-adv-x="813" 
d="M777 356q0 -154 -108 -262t-262 -108t-262.5 108t-108.5 262t108.5 263t262.5 109t262 -108.5t108 -263.5zM735 356q0 138 -96 236t-232 98q-138 0 -234.5 -98t-96.5 -236t96.5 -235.5t234.5 -97.5q136 0 232 98t96 235zM369 459q0 -22 -15.5 -37.5t-37.5 -15.5
t-37.5 15.5t-15.5 37.5t15.5 37.5t37.5 15.5t37.5 -15.5t15.5 -37.5zM550 459q0 -22 -15.5 -37.5t-37.5 -15.5t-37.5 15.5t-15.5 37.5t15.5 37.5t37.5 15.5t37.5 -15.5t15.5 -37.5zM599 166q-7 80 -64.5 128.5t-127.5 48.5t-127.5 -48.5t-64.5 -128.5h35q7 58 51.5 98.5
t105.5 40.5t105.5 -40.5t51.5 -98.5h35z" />
    <glyph glyph-name="smileface" unicode="&#x263a;" horiz-adv-x="813" 
d="M777 356q0 -154 -108 -262t-262 -108t-262.5 108t-108.5 262t108.5 263t262.5 109t262 -108.5t108 -263.5zM735 356q0 138 -96 236t-232 98q-138 0 -234.5 -98t-96.5 -236t96.5 -235.5t234.5 -97.5q136 0 232 98t96 235zM369 459q0 -22 -15.5 -37.5t-37.5 -15.5
t-37.5 15.5t-15.5 37.5t15.5 37.5t37.5 15.5t37.5 -15.5t15.5 -37.5zM550 459q0 -22 -15.5 -37.5t-37.5 -15.5t-37.5 15.5t-15.5 37.5t15.5 37.5t37.5 15.5t37.5 -15.5t15.5 -37.5zM599 332q-7 -80 -64.5 -128.5t-127.5 -48.5q-71 0 -128 48t-64 129h35q7 -58 51.5 -98.5
t105.5 -40.5t105.5 40.5t51.5 98.5h35z" />
    <glyph glyph-name="invsmileface" unicode="&#x263b;" horiz-adv-x="813" 
d="M777 356q0 -154 -108 -262t-262 -108t-262.5 108t-108.5 262t108.5 263t262.5 109t262 -108.5t108 -263.5zM369 459q0 22 -15.5 37.5t-37.5 15.5t-37.5 -15.5t-15.5 -37.5t15.5 -37.5t37.5 -15.5t37.5 15.5t15.5 37.5zM550 459q0 22 -15.5 37.5t-37.5 15.5t-37.5 -15.5
t-15.5 -37.5t15.5 -37.5t37.5 -15.5t37.5 15.5t15.5 37.5zM564 332q-7 -58 -51.5 -98.5t-105.5 -40.5t-105.5 40.5t-51.5 98.5h-35q7 -81 64 -129t128 -48q70 0 127.5 48.5t64.5 128.5h-35z" />
    <glyph glyph-name="heart" unicode="&#x2665;" horiz-adv-x="872" 
d="M3 480q0 97 65.5 163t162.5 66q58 0 106 -28t72 -78q24 52 73 79t108 27q95 0 160 -67t65 -162q0 -61 -27 -123.5t-68 -113.5t-97.5 -101.5t-107 -86.5t-106.5 -69q-56 33 -106.5 69t-107 86.5t-97.5 101.5t-68 113.5t-27 123.5z" />
    <glyph glyph-name="uni2713" unicode="&#x2713;" horiz-adv-x="942" 
d="M65 315l236 -261l573 633l27 -27l-601 -665l-263 293z" />
    <glyph glyph-name="uni2715" unicode="&#x2715;" horiz-adv-x="755" 
d="M62 14l-25 26l313 315l-312 313l25 26l313 -313l310 313l25 -26l-310 -313l317 -315l-26 -27l-317 316z" />
    <glyph glyph-name="uni2E18" unicode="&#x2e18;" horiz-adv-x="539" 
d="M373 503q0 -17 -11.5 -28.5t-27.5 -11.5t-27 11.5t-11 28.5t11 28.5t27 11.5t27.5 -11.5t11.5 -28.5zM-43 -83q0 18 5 36t10 32t19.5 33.5t22.5 29.5t30 31.5t30.5 29.5t36 32.5t35.5 31.5q107 97 122 154h41l-104 -394h-40l76 290h-1q-27 -36 -79 -82q-5 -4 -35 -31
t-39 -35.5t-32 -33t-31 -39.5t-16.5 -38t-8.5 -45q0 -60 48 -99t117 -39q93 0 153 61t60 137l42 -3q-4 -97 -77 -165t-181 -68q-85 0 -144.5 50t-59.5 124z" />
    <glyph glyph-name="uniE09D" unicode="&#xe09d;" horiz-adv-x="633" 
d="M426 144q-7 -30 -7 -51q0 -61 79 -61q19 0 42 5l-10 -37q-22 -5 -41 -5q-110 0 -110 94q0 25 9 61l92 348h-253l-131 -498h-39l130 498h-100l10 36h100l40 152q35 131 162 131q36 0 60 -10l-9 -36q-25 9 -52 9q-97 0 -124 -103l-38 -143h253l40 152h40l-41 -152h138
l-9 -36h-137z" />
    <glyph glyph-name="dollar.lowercase" unicode="&#xf653;" horiz-adv-x="504" 
d="M430 388q-6 33 -28.5 65t-67.5 45l-57 -216l22 -9q111 -47 111 -126q0 -73 -55 -113t-130 -40q-16 0 -23 1l-25 -97h-40l28 103q-66 17 -99.5 64.5t-33.5 99.5l38 9q-1 -44 25.5 -83.5t79.5 -53.5l59 224l-24 10q-106 46 -106 119q0 71 54.5 111t127.5 40q14 0 21 -1
l25 97h39l-27 -103q57 -15 87.5 -55.5t34.5 -81.5zM298 504h-14q-56 0 -98.5 -29t-42.5 -82q0 -32 22.5 -51.5t61.5 -37.5l17 -8zM211 31q5 -1 15 -1q58 0 101.5 29.5t43.5 85.5q0 33 -24 55t-79 46z" />
    <glyph glyph-name="uniF6C3" unicode="&#xf6c3;" horiz-adv-x="0" 
d="M-207 -243q72 14 81 94q-11 -7 -24 -7q-14 0 -24 9t-10 23q0 17 13.5 29t31.5 12q39 0 39 -51q0 -58 -33.5 -93t-80.5 -40z" />
    <glyph glyph-name="uniF730" unicode="&#xf730;" horiz-adv-x="635" 
d="M284 -9q-103 0 -163.5 66.5t-60.5 170.5q0 122 88 218.5t208 96.5q95 0 160 -67.5t65 -168.5q0 -123 -89 -219.5t-208 -96.5zM288 28q100 0 176 84t76 191q0 88 -53.5 146t-132.5 58q-101 0 -177 -84.5t-76 -190.5q0 -92 49 -148t138 -56z" />
    <glyph glyph-name="uniF731" unicode="&#xf731;" horiz-adv-x="321" 
d="M241 488l-154 -67l-12 33l182 80h35l-141 -534h-39z" />
    <glyph glyph-name="uniF732" unicode="&#xf732;" horiz-adv-x="475" 
d="M445 393q0 -99 -139 -169l-109 -54q-114 -54 -142 -133h313l-10 -37h-361q27 126 181 201l109 54q119 59 119 137q0 49 -33 82.5t-92 33.5q-71 0 -108 -47.5t-37 -99.5l-38 4q2 64 50 121t135 57q76 0 119 -45t43 -105z" />
    <glyph glyph-name="uniF733" unicode="&#xf733;" horiz-adv-x="473" 
d="M287 269q95 -25 95 -115q0 -68 -54.5 -115.5t-142.5 -47.5q-76 0 -119.5 46.5t-44.5 112.5l37 6q1 -53 33.5 -91t94.5 -38q60 0 108.5 33.5t48.5 93.5q0 50 -35 75t-94 25h-42l10 35h48q74 0 119 31t45 86q0 46 -34 74t-86 28q-114 0 -153 -108l-35 12q22 55 70.5 93
t124.5 38q67 0 110 -40t43 -95q0 -51 -37.5 -90t-109.5 -49z" />
    <glyph glyph-name="uniF734" unicode="&#xf734;" horiz-adv-x="517" 
d="M281 0l33 123h-312l11 42l404 369h43l-98 -375h82l-9 -36h-82l-33 -123h-39zM323 159l85 323l-354 -323h269z" />
    <glyph glyph-name="uniF735" unicode="&#xf735;" horiz-adv-x="473" 
d="M121 296q57 47 122 47q68 0 109 -45t41 -108q0 -87 -58.5 -143t-144.5 -56q-72 0 -119 43t-50 110l39 7q0 -57 37.5 -90.5t94.5 -33.5q71 0 116.5 45.5t45.5 116.5q0 50 -32 84t-85 34q-65 0 -131 -54l-37 16l118 265h272l-10 -36h-239z" />
    <glyph glyph-name="uniF736" unicode="&#xf736;" horiz-adv-x="505" 
d="M267 346q53 0 94 -27q71 -46 71 -130q0 -79 -59 -138.5t-145 -59.5q-84 0 -133 58q-42 50 -42 126q0 65 20.5 129t57.5 118t96.5 87.5t130.5 33.5q67 0 121 -30l-17 -32q-56 27 -105 27q-110 0 -186 -91q-56 -69 -74 -167q28 43 74 69.5t96 26.5zM265 311
q-68 0 -120 -44.5t-52 -107.5q0 -59 38.5 -95.5t97.5 -36.5q72 0 118 47.5t46 112.5q0 56 -36.5 90t-91.5 34z" />
    <glyph glyph-name="uniF737" unicode="&#xf737;" horiz-adv-x="420" 
d="M42 0l356 498h-308l10 36h354l-12 -40l-350 -494h-50z" />
    <glyph glyph-name="uniF738" unicode="&#xf738;" horiz-adv-x="528" 
d="M477 410q0 -50 -41 -89t-100 -52q46 -17 73.5 -50t27.5 -73q0 -69 -58 -112t-150 -43q-86 0 -141 39t-55 102q0 56 46 96.5t119 54.5q-85 40 -85 111q0 63 55 106t135 43q74 0 124 -37t50 -96zM438 413q0 41 -39 68t-97 27q-66 0 -108 -31.5t-42 -79.5q0 -42 36.5 -72.5
t91.5 -30.5q69 0 113.5 35.5t44.5 83.5zM397 146q0 47 -42 80t-110 33q-75 0 -123 -37.5t-48 -87.5q0 -48 42 -77.5t113 -29.5q78 0 123 33.5t45 85.5z" />
    <glyph glyph-name="uniF739" unicode="&#xf739;" horiz-adv-x="506" 
d="M458 359q0 -71 -23 -141.5t-67 -122.5q-86 -104 -213 -104q-73 0 -123 31l17 33q54 -28 106 -28q112 0 185 91q55 67 75 167q-28 -44 -74.5 -71t-96.5 -27q-54 0 -94 27q-70 44 -70 132q0 80 59 138.5t145 58.5q85 0 133 -58q41 -49 41 -126zM418 375q0 60 -38.5 96.5
t-98.5 36.5q-71 0 -116.5 -48t-45.5 -113q0 -55 36 -89.5t91 -34.5q68 0 120 44.5t52 107.5z" />
    <glyph glyph-name="uniF8FF" unicode="&#xf8ff;" horiz-adv-x="1313" 
d="M1323 770q-25 9 -53 9q-45 0 -72.5 -29t-27.5 -86v-130h148v-36h-148v-498h-39v498h-98v36h98v131q0 67 37 109.5t102 42.5q27 0 53 -10v-37zM900 146q-27 -67 -87.5 -110.5t-136.5 -43.5q-116 0 -187.5 81t-71.5 195t73 194.5t186 80.5q78 0 137 -42t87 -110v423h39
v-814h-39v146zM338 0q-20 -4 -46 -4q-74 0 -105 33.5t-31 107.5v361h-101v36h101v153h39v-153h143v-36h-143v-357q0 -59 21 -83.5t78 -24.5q16 0 44 4v-37zM902 269q0 95 -63 165.5t-161 70.5t-159.5 -67t-61.5 -168v-1q0 -102 61.5 -170.5t159.5 -68.5q97 0 160.5 70
t63.5 166v3z" />
    <glyph glyph-name="Aring.alt" horiz-adv-x="756" 
d="M640 944q0 -46 -31.5 -78t-77.5 -32q-39 0 -64 25t-25 64q0 45 31.5 78t76.5 33q39 0 64.5 -25.5t25.5 -64.5zM605 943q0 24 -16 41t-41 17q-30 0 -51 -23.5t-21 -53.5q0 -25 16.5 -41t41.5 -16q30 0 50.5 22.5t20.5 53.5zM150 223l-159 -223h-46l557 783h44l136 -783
h-41l-38 223h-453zM516 739l-339 -478h420z" />
    <glyph glyph-name="OE.alt" horiz-adv-x="1165" 
d="M491 0q-203 0 -311 106q-86 85 -86 223q0 181 122 305q72 72 176 110.5t223 38.5h625l-11 -37h-419l-87 -328h385l-10 -38h-385l-92 -342h424l-10 -38h-544zM609 746q-223 0 -360 -135q-113 -113 -113 -279q0 -120 75 -198q94 -96 277 -96h92l189 708h-160z" />
    <glyph glyph-name="Q.alt" horiz-adv-x="893" 
d="M859 461q0 -132 -80.5 -251.5t-199.5 -172.5v-1l266 2l-11 -38h-409q-146 0 -238.5 95t-92.5 235q0 119 57.5 225t159 171.5t219.5 65.5q144 0 236.5 -95t92.5 -236zM817 459q0 127 -80 211t-209 84q-107 0 -198.5 -60t-143 -157.5t-51.5 -205.5q0 -125 80.5 -209.5
t207.5 -84.5q58 0 104 14q126 40 208 156t82 252z" />
    <glyph glyph-name="O.slash" horiz-adv-x="886" 
d="M533 792q146 0 239.5 -96t93.5 -238q0 -119 -58.5 -226.5t-161.5 -173.5t-222 -66q-145 0 -238.5 96t-93.5 237q0 119 58.5 226.5t161 174t221.5 66.5zM532 754q-109 0 -202 -61t-145 -159t-52 -208q0 -94 46 -166l577 494q-82 100 -224 100zM425 28q109 0 202 61
t145 159.5t52 207.5q0 94 -46 168l-577 -495q83 -101 224 -101z" />
    <glyph glyph-name="a.alt" horiz-adv-x="567" 
d="M189 -9q-68 0 -116 35t-48 98q0 43 19.5 75.5t53.5 51t72.5 28t84.5 12.5l196 12l6 24q9 36 9 62q0 57 -36 87.5t-96 30.5q-48 0 -87 -16t-61.5 -40.5t-34.5 -45.5t-18 -40l-37 12q7 23 22.5 48.5t43 53.5t73.5 46t102 18q71 0 120 -39.5t49 -108.5q0 -31 -12 -77
l-85 -318h-39l31 118q-38 -58 -93 -92.5t-119 -34.5zM442 268l-184 -12q-192 -13 -192 -132q0 -43 36 -70t90 -27q84 0 149 57.5t88 138.5z" />
    <glyph glyph-name="aacute.alt" horiz-adv-x="567" 
d="M476 797h48l-166 -172h-40zM189 -9q-68 0 -116 35t-48 98q0 43 19.5 75.5t53.5 51t72.5 28t84.5 12.5l196 12l6 24q9 36 9 62q0 57 -36 87.5t-96 30.5q-48 0 -87 -16t-61.5 -40.5t-34.5 -45.5t-18 -40l-37 12q7 23 22.5 48.5t43 53.5t73.5 46t102 18q71 0 120 -39.5
t49 -108.5q0 -31 -12 -77l-85 -318h-39l31 118q-38 -58 -93 -92.5t-119 -34.5zM442 268l-184 -12q-192 -13 -192 -132q0 -43 36 -70t90 -27q84 0 149 57.5t88 138.5z" />
    <glyph glyph-name="abreve.alt" horiz-adv-x="567" 
d="M550 785q-23 -74 -75.5 -117t-127.5 -43q-47 0 -78.5 17.5t-42 42t-16 52t0.5 48.5h30q-7 -124 112 -124q108 0 165 124h32zM189 -9q-68 0 -116 35t-48 98q0 43 19.5 75.5t53.5 51t72.5 28t84.5 12.5l196 12l6 24q9 36 9 62q0 57 -36 87.5t-96 30.5q-48 0 -87 -16
t-61.5 -40.5t-34.5 -45.5t-18 -40l-37 12q7 23 22.5 48.5t43 53.5t73.5 46t102 18q71 0 120 -39.5t49 -108.5q0 -31 -12 -77l-85 -318h-39l31 118q-38 -58 -93 -92.5t-119 -34.5zM442 268l-184 -12q-192 -13 -192 -132q0 -43 36 -70t90 -27q84 0 149 57.5t88 138.5z" />
    <glyph glyph-name="uni01CE.alt" horiz-adv-x="567" 
d="M516 797h43l-178 -172h-44l-88 172h35l78 -142zM189 -9q-68 0 -116 35t-48 98q0 43 19.5 75.5t53.5 51t72.5 28t84.5 12.5l196 12l6 24q9 36 9 62q0 57 -36 87.5t-96 30.5q-48 0 -87 -16t-61.5 -40.5t-34.5 -45.5t-18 -40l-37 12q7 23 22.5 48.5t43 53.5t73.5 46t102 18
q71 0 120 -39.5t49 -108.5q0 -31 -12 -77l-85 -318h-39l31 118q-38 -58 -93 -92.5t-119 -34.5zM442 268l-184 -12q-192 -13 -192 -132q0 -43 36 -70t90 -27q84 0 149 57.5t88 138.5z" />
    <glyph glyph-name="acircumflex.alt" horiz-adv-x="567" 
d="M236 625h-43l178 172h44l88 -172h-36l-77 142zM189 -9q-68 0 -116 35t-48 98q0 43 19.5 75.5t53.5 51t72.5 28t84.5 12.5l196 12l6 24q9 36 9 62q0 57 -36 87.5t-96 30.5q-48 0 -87 -16t-61.5 -40.5t-34.5 -45.5t-18 -40l-37 12q7 23 22.5 48.5t43 53.5t73.5 46t102 18
q71 0 120 -39.5t49 -108.5q0 -31 -12 -77l-85 -318h-39l31 118q-38 -58 -93 -92.5t-119 -34.5zM442 268l-184 -12q-192 -13 -192 -132q0 -43 36 -70t90 -27q84 0 149 57.5t88 138.5z" />
    <glyph glyph-name="adieresis.alt" horiz-adv-x="567" 
d="M288 668q-16 0 -26 10t-10 26q0 19 12.5 32t30.5 13q16 0 26 -10t10 -26q0 -19 -12.5 -32t-30.5 -13zM445 668q-16 0 -25.5 10t-9.5 26q0 19 12 32t31 13q16 0 25.5 -10t9.5 -26q0 -19 -12.5 -32t-30.5 -13zM189 -9q-68 0 -116 35t-48 98q0 43 19.5 75.5t53.5 51t72.5 28
t84.5 12.5l196 12l6 24q9 36 9 62q0 57 -36 87.5t-96 30.5q-48 0 -87 -16t-61.5 -40.5t-34.5 -45.5t-18 -40l-37 12q7 23 22.5 48.5t43 53.5t73.5 46t102 18q71 0 120 -39.5t49 -108.5q0 -31 -12 -77l-85 -318h-39l31 118q-38 -58 -93 -92.5t-119 -34.5zM442 268l-184 -12
q-192 -13 -192 -132q0 -43 36 -70t90 -27q84 0 149 57.5t88 138.5z" />
    <glyph glyph-name="agrave.alt" horiz-adv-x="567" 
d="M357 625h-31l-76 172h40zM189 -9q-68 0 -116 35t-48 98q0 43 19.5 75.5t53.5 51t72.5 28t84.5 12.5l196 12l6 24q9 36 9 62q0 57 -36 87.5t-96 30.5q-48 0 -87 -16t-61.5 -40.5t-34.5 -45.5t-18 -40l-37 12q7 23 22.5 48.5t43 53.5t73.5 46t102 18q71 0 120 -39.5
t49 -108.5q0 -31 -12 -77l-85 -318h-39l31 118q-38 -58 -93 -92.5t-119 -34.5zM442 268l-184 -12q-192 -13 -192 -132q0 -43 36 -70t90 -27q84 0 149 57.5t88 138.5z" />
    <glyph glyph-name="amacron.alt" horiz-adv-x="567" 
d="M512 641h-333l9 37h333zM189 -9q-68 0 -116 35t-48 98q0 43 19.5 75.5t53.5 51t72.5 28t84.5 12.5l196 12l6 24q9 36 9 62q0 57 -36 87.5t-96 30.5q-48 0 -87 -16t-61.5 -40.5t-34.5 -45.5t-18 -40l-37 12q7 23 22.5 48.5t43 53.5t73.5 46t102 18q71 0 120 -39.5
t49 -108.5q0 -31 -12 -77l-85 -318h-39l31 118q-38 -58 -93 -92.5t-119 -34.5zM442 268l-184 -12q-192 -13 -192 -132q0 -43 36 -70t90 -27q84 0 149 57.5t88 138.5z" />
    <glyph glyph-name="aogonek.alt" horiz-adv-x="567" 
d="M370 0l31 118q-38 -58 -93 -92.5t-119 -34.5q-68 0 -116 35t-48 98q0 43 19.5 75.5t53.5 51t72.5 28t84.5 12.5l196 12l6 24q9 36 9 62q0 57 -36 87.5t-96 30.5q-48 0 -87 -16t-61.5 -40.5t-34.5 -45.5t-18 -40l-37 12q7 23 22.5 48.5t43 53.5t73.5 46t102 18
q71 0 120 -39.5t49 -108.5q0 -31 -12 -77l-85 -318q-120 -76 -120 -141q0 -35 23.5 -51.5t60.5 -16.5q14 0 20 1l-8 -33q-15 -3 -29 -3q-43 0 -73.5 25t-30.5 67q0 44 35.5 84t82.5 68zM442 268l-184 -12q-192 -13 -192 -132q0 -43 36 -70t90 -27q84 0 149 57.5t88 138.5z
" />
    <glyph glyph-name="aring.alt" horiz-adv-x="567" 
d="M506 395q0 -31 -12 -77l-85 -318h-39l31 118q-38 -58 -93 -92.5t-119 -34.5q-68 0 -116 35t-48 98q0 43 19.5 75.5t53.5 51t72.5 28t84.5 12.5l196 12l6 24q9 36 9 62q0 57 -36 87.5t-96 30.5q-48 0 -87 -16t-61.5 -40.5t-34.5 -45.5t-18 -40l-37 12q13 46 58 94.5
t121 65.5q-25 23 -25 60q0 45 31.5 78t76.5 33q39 0 64.5 -25.5t25.5 -64.5q0 -53 -45 -85q47 -16 75 -51.5t28 -86.5zM356 675q-30 0 -50.5 -23.5t-20.5 -53.5q0 -25 16 -41t41 -16q31 0 51.5 22.5t20.5 53.5q0 24 -16.5 41t-41.5 17zM442 268l-184 -12q-192 -13 -192 -132
q0 -43 36 -70t90 -27q84 0 149 57.5t88 138.5z" />
    <glyph glyph-name="atilde.alt" horiz-adv-x="567" 
d="M531 712q-40 -86 -100 -86q-29 0 -71 33.5t-67 33.5q-41 0 -73 -61l-26 12q41 84 103 84q33 0 74.5 -33.5t63.5 -33.5q41 0 70 61zM189 -9q-68 0 -116 35t-48 98q0 43 19.5 75.5t53.5 51t72.5 28t84.5 12.5l196 12l6 24q9 36 9 62q0 57 -36 87.5t-96 30.5q-48 0 -87 -16
t-61.5 -40.5t-34.5 -45.5t-18 -40l-37 12q7 23 22.5 48.5t43 53.5t73.5 46t102 18q71 0 120 -39.5t49 -108.5q0 -31 -12 -77l-85 -318h-39l31 118q-38 -58 -93 -92.5t-119 -34.5zM442 268l-184 -12q-192 -13 -192 -132q0 -43 36 -70t90 -27q84 0 149 57.5t88 138.5z" />
    <glyph glyph-name="l.alt" horiz-adv-x="272" 
d="M278 814l-176 -670q-8 -27 -8 -51q0 -61 77 -61q19 0 42 5l-9 -37q-23 -5 -41 -5q-109 0 -109 94q0 25 9 61l176 664h39z" />
    <glyph glyph-name="lslash.alt" horiz-adv-x="335" 
d="M214 414l-71 -270q-8 -27 -8 -51q0 -61 77 -61q19 0 42 5l-9 -37q-23 -5 -41 -5q-109 0 -109 94q0 25 9 61l65 245l-110 -48l12 44l109 47l100 376h39l-94 -357l128 55l-11 -42z" />
    <glyph glyph-name="y.alt" horiz-adv-x="577" 
d="M95 534h42l102 -493l339 493h47l-458 -659q-58 -84 -113.5 -113t-124.5 -29q-18 0 -28 4l9 35q10 -2 23 -2q26 0 45 3.5t45.5 15t54 38t56.5 68.5l75 106z" />
    <glyph glyph-name="aring.alt2" horiz-adv-x="567" 
d="M458 714q0 -46 -31.5 -78t-77.5 -32q-39 0 -64.5 25t-25.5 64q0 46 31.5 78.5t77.5 32.5q38 0 64 -25.5t26 -64.5zM423 713q0 24 -16.5 41t-41.5 17q-30 0 -51 -23.5t-21 -53.5q0 -25 16.5 -41t41.5 -16q31 0 51.5 22.5t20.5 53.5zM189 -9q-68 0 -116 35t-48 98
q0 43 19.5 75.5t53.5 51t72.5 28t84.5 12.5l196 12l6 24q9 36 9 62q0 57 -36 87.5t-96 30.5q-48 0 -87 -16t-61.5 -40.5t-34.5 -45.5t-18 -40l-37 12q7 23 22.5 48.5t43 53.5t73.5 46t102 18q71 0 120 -39.5t49 -108.5q0 -31 -12 -77l-85 -318h-39l31 118q-38 -58 -93 -92.5
t-119 -34.5zM442 268l-184 -12q-192 -13 -192 -132q0 -43 36 -70t90 -27q84 0 149 57.5t88 138.5z" />
    <glyph glyph-name="i.loclTRK" horiz-adv-x="234" 
d="M231 668q-16 0 -26 10t-10 26q0 19 13 32t31 13q16 0 26 -10t10 -26q0 -19 -12.5 -32t-31.5 -13zM170 534h40l-140 -534h-40z" />
    <glyph glyph-name="uni0414.alt" horiz-adv-x="795" 
d="M512 783h46l113 -745h44l-53 -199h-41l43 161h-670l-43 -161h-41l53 199h43zM53 38h576l-103 700z" />
    <glyph glyph-name="uni041B.alt" horiz-adv-x="718" 
d="M478 783h45l120 -783h-42l-109 738l-499 -738h-46z" />
    <glyph glyph-name="uni0434.alt" horiz-adv-x="644" 
d="M372 534h40l89 -498h49l-53 -201h-39l43 165h-496l-44 -165h-39l53 201h46zM462 36l-78 455l-318 -455h396z" />
    <glyph glyph-name="uni0438.alt" horiz-adv-x="633" 
d="M427 0l33 124q-36 -57 -90.5 -95.5t-124.5 -38.5q-83 0 -128 46.5t-45 121.5q0 39 12 83l78 293h39l-79 -297q-10 -40 -10 -76q0 -62 35.5 -98t106.5 -36q74 0 141.5 56.5t92.5 149.5l79 301h40l-141 -534h-39z" />
    <glyph glyph-name="uni0439.alt" horiz-adv-x="633" 
d="M396 625q-80 0 -111 44.5t-27 99.5l32 7q-2 -115 111 -115q107 0 161 114l32 -7q-26 -67 -76.5 -105t-121.5 -38zM427 0l33 124q-36 -57 -90.5 -95.5t-124.5 -38.5q-83 0 -128 46.5t-45 121.5q0 39 12 83l78 293h39l-79 -297q-10 -40 -10 -76q0 -62 35.5 -98t106.5 -36
q74 0 141.5 56.5t92.5 149.5l79 301h40l-141 -534h-39z" />
    <glyph glyph-name="uni043B.alt" horiz-adv-x="562" 
d="M467 0h-40l-83 490l-340 -490h-45l374 534h40z" />
    <glyph glyph-name="uni043F.alt" horiz-adv-x="631" 
d="M392 543q83 0 128 -46t45 -121q0 -35 -13 -83l-77 -293h-39l79 297q9 35 9 77q0 62 -35.5 97.5t-105.5 35.5q-73 0 -141.5 -57t-93.5 -149l-79 -301h-39l140 534h39l-33 -124q83 133 216 133z" />
    <glyph glyph-name="uni0446.alt" horiz-adv-x="654" 
d="M496 0h-69l33 124q-36 -57 -90.5 -95.5t-124.5 -38.5q-83 0 -128 46.5t-45 121.5q0 39 12 83l78 293h39l-79 -297q-10 -40 -10 -76q0 -62 35.5 -98t106.5 -36q74 0 141.5 56.5t92.5 149.5l79 301h40l-131 -498h69l-53 -201h-39z" />
    <glyph glyph-name="uni0448.alt" horiz-adv-x="971" 
d="M574 534l-78 -294q-14 -56 -14 -84q0 -61 34.5 -95t93.5 -34q72 0 134 61.5t84 145.5l79 300h39l-140 -534h-39l32 124q-84 -134 -198 -134q-70 0 -111 42t-44 109q-34 -64 -89 -107.5t-128 -43.5q-71 0 -115 46t-44 118q0 29 14 87l78 293h39l-79 -297q-11 -46 -11 -81
q0 -67 36.5 -98t89.5 -31q73 0 134.5 62t84.5 146l79 299h39z" />
    <glyph glyph-name="uni0449.alt" horiz-adv-x="993" 
d="M767 0l32 124q-84 -134 -198 -134q-70 0 -111 42t-44 109q-34 -64 -89 -107.5t-128 -43.5q-71 0 -115 46t-44 118q0 37 14 87l78 293h39l-79 -297q-11 -44 -11 -81q0 -67 36.5 -98t89.5 -31q73 0 135 62t84 146l79 299h39l-78 -294q-14 -56 -14 -84q0 -61 34.5 -95
t93.5 -34q72 0 134 62t84 145l79 300h39l-130 -498h69l-53 -201h-39l43 165h-69z" />
    <glyph glyph-name="one.alt" horiz-adv-x="488" 
d="M418 38l-9 -38h-417l10 38h191l170 635h-1q-23 -26 -68.5 -43.5t-100.5 -17.5h-39l10 37h30q85 0 136.5 40.5t65.5 94.5h38l-200 -746h184z" />
    </font>
</defs>
</svg>
