<?xml version="1.0" standalone="no"?>
<!DOCTYPE svg PUBLIC "-//W3C//DTD SVG 1.1//EN" "http://www.w3.org/Graphics/SVG/1.1/DTD/svg11.dtd" >
<svg xmlns="http://www.w3.org/2000/svg" xmlns:xlink="http://www.w3.org/1999/xlink" version="1.1">
<metadata>
Created by FontForge 20170731 at Wed Nov  1 16:24:12 2017
 By ,,,
Copyright (c) 2016 by THOMAS GILLETT. All rights reserved.
</metadata>
<defs>
<font id="Gordita-Black" horiz-adv-x="680" >
  <font-face 
    font-family="Gordita Black"
    font-weight="900"
    font-stretch="normal"
    units-per-em="1000"
    panose-1="0 0 0 0 0 0 0 0 0 0"
    ascent="800"
    descent="-200"
    x-height="534"
    cap-height="783"
    bbox="-376 -392 1558 1219"
    underline-thickness="50"
    underline-position="-200"
    unicode-range="U+0020-FB04"
  />
<missing-glyph horiz-adv-x="799" 
d="M90 783h660v-783h-660v783zM677 82v620h-509z" />
    <glyph glyph-name="ff" unicode="ff" horiz-adv-x="855" 
d="M844 656q-22 6 -55 6q-80 0 -80 -86v-42h130v-156h-130v-378h-189v378h-208v-378h-188v378h-99v156h99v45q0 106 57.5 172t169.5 66q54 0 96 -13v-148q-20 6 -54 6q-81 0 -81 -86v-42h208v45q0 106 58 172t170 66q54 0 96 -13v-148z" />
    <glyph glyph-name="fi" unicode="fi" horiz-adv-x="774" 
d="M615 605q-46 0 -79 32.5t-33 78.5t33 79t79 33q47 0 79.5 -33t32.5 -79q0 -45 -32.5 -78t-79.5 -33zM312 576q0 86 81 86q34 0 54 -6v148q-42 13 -96 13q-112 0 -169.5 -66t-57.5 -172v-45h-99v-156h99v-378h188v378h208v-378h191v534h-399v42z" />
    <glyph glyph-name="fl" unicode="fl" horiz-adv-x="774" 
d="M25 534h99v45q0 106 57.5 172t169.5 66q54 0 96 -13v-148q-20 6 -54 6q-81 0 -81 -86v-42h208v281h192v-815h-192v378h-208v-378h-188v378h-99v156z" />
    <glyph glyph-name="ffi" unicode="ffi" horiz-adv-x="1204" 
d="M1012 605q-46 0 -79 32.5t-33 78.5t33 79t79 33q47 0 79.5 -33t32.5 -79q0 -45 -33 -78t-79 -33zM520 579q0 106 57.5 172t169.5 66q54 0 96 -13v-148q-20 6 -54 6q-81 0 -81 -86v-42h399v-534h-191v378h-208v-378h-188v378h-208v-378h-188v378h-99v156h99v45
q0 106 57.5 172t169.5 66q54 0 96 -13v-148q-20 6 -54 6q-81 0 -81 -86v-42h208v45z" />
    <glyph glyph-name="ffl" unicode="ffl" horiz-adv-x="1204" 
d="M447 656q-20 6 -54 6q-43 0 -61.5 -21.5t-18.5 -64.5v-42h207v45q0 107 58 172.5t170 65.5q55 0 95 -13v-148q-20 6 -54 6q-43 0 -61.5 -21.5t-18.5 -64.5v-42h207v281h191v-815h-191v378h-207v-378h-189v378h-207v-378h-189v378h-98v156h98v45q0 107 58 172.5t170 65.5
q53 0 95 -13v-148z" />
    <glyph glyph-name=".notdef" horiz-adv-x="799" 
d="M90 783h660v-783h-660v783zM677 82v620h-509z" />
    <glyph glyph-name=".null" horiz-adv-x="0" 
 />
    <glyph glyph-name="nonmarkingreturn" horiz-adv-x="333" 
 />
    <glyph glyph-name="space" unicode=" " horiz-adv-x="234" 
 />
    <glyph glyph-name="exclam" unicode="!" horiz-adv-x="351" 
d="M73 667v116h204v-115l-15 -402h-173zM67 97q0 45 32 77t77 32t77 -32t32 -77t-32 -77t-77 -32t-77 32t-32 77z" />
    <glyph glyph-name="quotedbl" unicode="&#x22;" horiz-adv-x="528" 
d="M101 413l-47 179q-13 50 -13 74q0 47 27 79.5t74 32.5q48 0 75 -32t27 -80q0 -24 -13 -74l-47 -179h-83zM346 413l-47 179q-13 50 -13 74q0 47 27 79.5t74 32.5q48 0 75 -32t27 -80q0 -24 -13 -74l-47 -179h-83z" />
    <glyph glyph-name="numbersign" unicode="#" horiz-adv-x="827" 
d="M301 160l-29 -160h-157l29 160h-104v162h134l26 142h-107v163h135l27 148h158l-27 -148l143 -1l26 149h158l-26 -149h99v-162h-128l-25 -142h99v-162h-130l-30 -160h-156l29 160h-144zM355 466l-26 -146h149l25 146h-148z" />
    <glyph glyph-name="dollar" unicode="$" horiz-adv-x="690" 
d="M650 240q0 -92 -70.5 -163t-189.5 -80v-99h-75v99q-121 10 -191 75t-89 170l174 42q14 -101 108 -121v144l-35 6q-98 19 -157.5 78.5t-59.5 149.5q0 99 72.5 168t177.5 80v102h75v-103q113 -11 174 -75t72 -146l-171 -47q-12 81 -77 101v-141l34 -5q107 -18 167.5 -82.5
t60.5 -152.5zM317 623q-28 -7 -43.5 -26.5t-15.5 -40.5q0 -49 59 -64v131zM388 162q33 6 49.5 26.5t16.5 43.5q0 49 -66 61v-131z" />
    <glyph glyph-name="percent" unicode="%" horiz-adv-x="964" 
d="M413 601q0 -79 -55.5 -134.5t-134.5 -55.5t-135 55.5t-56 134.5t56 134.5t135 55.5t134.5 -55.5t55.5 -134.5zM659 783h159l-513 -783h-159zM279 601q0 24 -15.5 41t-40.5 17t-40.5 -17t-15.5 -41t15.5 -41t40.5 -17q24 0 40 17t16 41zM932 184q0 -79 -55.5 -134.5
t-134.5 -55.5t-135 55.5t-56 134.5q0 80 55.5 135.5t135.5 55.5q79 0 134.5 -56t55.5 -135zM798 184q0 24 -16 41.5t-40 17.5q-25 0 -40.5 -17.5t-15.5 -41.5t15.5 -41t40.5 -17q24 0 40 17t16 41z" />
    <glyph glyph-name="ampersand" unicode="&#x26;" horiz-adv-x="753" 
d="M486 59q-98 -70 -188 -70q-108 0 -183.5 55.5t-75.5 163.5q0 116 135 204l-25 28q-60 70 -60 143q0 87 67 150t166 63q93 0 163 -61.5t70 -147.5q0 -113 -111 -178l-40 -23l98 -111q43 62 58 118h157q-14 -106 -117 -228l146 -165h-207zM325 646q-32 0 -53 -19.5
t-21 -43.5t29 -58l29 -33l52 31q35 20 35 60q0 24 -20.5 43.5t-50.5 19.5zM309 139q39 0 83 27l-124 140q-61 -40 -61 -82q0 -45 30.5 -65t71.5 -20z" />
    <glyph glyph-name="quotesingle" unicode="'" horiz-adv-x="284" 
d="M101 413l-47 179q-13 50 -13 74q0 47 27 79.5t74 32.5q48 0 75 -32t27 -80q0 -24 -13 -74l-47 -179h-83z" />
    <glyph glyph-name="parenleft" unicode="(" horiz-adv-x="414" 
d="M200 359q0 -266 199 -397l-78 -102q-136 71 -209 199.5t-73 299.5v18q0 171 73 299.5t209 199.5l78 -102q-199 -132 -199 -398v-17z" />
    <glyph glyph-name="parenright" unicode=")" horiz-adv-x="414" 
d="M214 376q0 265 -199 398l77 102q136 -71 209.5 -199.5t73.5 -299.5v-18q0 -171 -73.5 -299.5t-209.5 -199.5l-77 102q199 132 199 397v17z" />
    <glyph glyph-name="asterisk" unicode="*" horiz-adv-x="506" 
d="M329 371l-77 103l-75 -103l-95 69l74 102l-121 40l37 111l120 -39v129h120v-129l121 39l38 -111l-121 -40l73 -102z" />
    <glyph glyph-name="plus" unicode="+" horiz-adv-x="611" 
d="M389 97h-166v189h-186v159h186v187h166v-187h185v-159h-185v-189z" />
    <glyph glyph-name="comma" unicode="," horiz-adv-x="331" 
d="M285 67q0 -67 -40 -130t-109 -110l-66 61q79 54 114 128q-18 -9 -42 -9q-41 0 -69.5 29t-28.5 73q0 47 34.5 79.5t83.5 32.5q55 0 89 -40.5t34 -105.5v-8z" />
    <glyph glyph-name="hyphen" unicode="-" horiz-adv-x="447" 
d="M388 405v-159h-329v159h329z" />
    <glyph glyph-name="period" unicode="." horiz-adv-x="316" 
d="M158 -11q-48 0 -82 34t-34 81q0 49 34 84t82 35q49 0 83 -35t34 -84q0 -47 -34 -81t-83 -34z" />
    <glyph glyph-name="slash" unicode="/" horiz-adv-x="582" 
d="M386 815h169l-358 -820h-169z" />
    <glyph glyph-name="zero" unicode="0" horiz-adv-x="767" 
d="M42 390q0 79 22 150.5t63.5 129.5t108 92t149.5 34q82 0 148 -33.5t107 -90t62.5 -128t21.5 -150.5q0 -80 -21.5 -152t-62.5 -129t-108 -91t-150 -34q-110 0 -189 57.5t-115 146.5t-36 198zM242 391q0 -36 7 -72t22 -71t44 -56.5t68 -21.5t68 21.5t44.5 56.5t22.5 71
t7 72q0 37 -6.5 72.5t-21.5 71t-44.5 57.5t-69.5 22t-69 -22t-44 -57.5t-21.5 -71t-6.5 -72.5z" />
    <glyph glyph-name="one" unicode="1" horiz-adv-x="513" 
d="M235 548l-148 -83l-89 162l273 156h161v-783h-197v548z" />
    <glyph glyph-name="two" unicode="2" horiz-adv-x="696" 
d="M44 38q0 102 46.5 179t159.5 142l96 54q100 57 100 124q0 32 -26.5 58t-72.5 26q-18 0 -36 -5t-38 -18t-31.5 -42.5t-9.5 -70.5l-183 21q-1 73 23.5 130t67.5 91t95.5 51.5t110.5 17.5q134 0 214.5 -72.5t80.5 -180.5q0 -156 -180 -256l-87 -48q-39 -21 -61 -39.5
t-25 -25.5l-3 -8h360v-166h-601v38z" />
    <glyph glyph-name="three" unicode="3" horiz-adv-x="678" 
d="M332 -12q-111 0 -195 59t-107 171l179 43q11 -55 45.5 -80t78.5 -25q46 0 74 23t28 55q0 78 -102 78h-79v166h73q46 0 70.5 22.5t24.5 53.5q0 32 -24.5 53.5t-71.5 21.5q-91 0 -113 -97l-178 43q24 114 108.5 167.5t192.5 53.5q117 0 199 -59.5t82 -162.5
q0 -118 -111 -168q127 -53 127 -180q0 -108 -86 -173t-215 -65z" />
    <glyph glyph-name="four" unicode="4" horiz-adv-x="756" 
d="M407 0v146h-380v195l346 442h229v-471h117v-166h-117v-146h-195zM407 312v260l-204 -260h204z" />
    <glyph glyph-name="five" unicode="5" horiz-adv-x="683" 
d="M641 259q0 -125 -92.5 -198.5t-216.5 -73.5q-111 0 -195 59t-107 171l179 43q12 -54 46 -79.5t78 -25.5q48 0 80.5 28t32.5 74q0 47 -31 76t-80 29q-62 0 -101 -46l-5 -5l-168 73l66 399h480v-165h-335l-26 -151q60 48 153 48q59 0 109.5 -25t83.5 -69q49 -63 49 -162z
" />
    <glyph glyph-name="six" unicode="6" horiz-adv-x="711" 
d="M42 355q0 99 32.5 187t94.5 148q106 106 268 106q123 0 211 -51l-74 -155q-62 35 -141 35q-75 0 -131.5 -54t-68.5 -134h1q73 81 193 81q101 0 171 -70t70 -178q0 -131 -89 -207t-217 -76q-141 0 -223 85q-97 102 -97 283zM245 257q0 -44 33.5 -73.5t81.5 -29.5
q49 0 82 28.5t33 74.5q0 44 -32 73.5t-83 29.5q-47 0 -81 -31t-34 -72z" />
    <glyph glyph-name="seven" unicode="7" horiz-adv-x="647" 
d="M408 613h-380v170h595v-163l-334 -620h-217z" />
    <glyph glyph-name="eight" unicode="8" horiz-adv-x="691" 
d="M346 -12q-130 0 -217 63.5t-87 168.5q0 119 136 186v1q-58 23 -87.5 69.5t-29.5 99.5q0 69 43 120.5t106.5 75.5t135.5 24q114 0 199 -59t85 -161q0 -53 -29.5 -99.5t-86.5 -69.5v-1q135 -65 135 -186q0 -104 -85.5 -168t-217.5 -64zM255 552q0 -33 26.5 -56.5
t64.5 -23.5t64.5 23.5t26.5 56.5t-26.5 56.5t-64.5 23.5t-64.5 -23.5t-26.5 -56.5zM237 241q0 -38 30.5 -62.5t78.5 -24.5t78.5 24.5t30.5 62.5q0 37 -30.5 61.5t-78.5 24.5t-78.5 -24t-30.5 -62z" />
    <glyph glyph-name="nine" unicode="9" horiz-adv-x="708" 
d="M664 426q0 -223 -116 -338q-104 -101 -262 -101q-63 0 -125 16.5t-99 38.5l65 152q66 -35 154 -35q75 0 132 53.5t66 136.5h-1q-74 -84 -195 -84q-98 0 -169 70t-71 178q0 133 88.5 208t216.5 75q137 0 220 -88q96 -101 96 -282zM460 526q0 45 -33 74t-81 29t-81.5 -29
t-33.5 -75q0 -44 31.5 -72.5t83.5 -28.5q47 0 80.5 30.5t33.5 71.5z" />
    <glyph glyph-name="colon" unicode=":" horiz-adv-x="335" 
d="M167 312q-47 0 -81.5 34.5t-34.5 81.5q0 49 34 83.5t82 34.5q49 0 83 -34.5t34 -83.5q0 -48 -34 -82t-83 -34zM167 -11q-47 0 -81.5 34t-34.5 81q0 49 34 83.5t82 34.5q49 0 83 -34.5t34 -83.5q0 -47 -34 -81t-83 -34z" />
    <glyph glyph-name="semicolon" unicode=";" horiz-adv-x="350" 
d="M169 312q-48 0 -82 34.5t-34 81.5q0 49 34 83.5t82 34.5q49 0 83 -34.5t34 -83.5q0 -48 -34 -82t-83 -34zM293 67q0 -67 -40 -130t-109 -110l-66 61q79 54 114 128q-18 -9 -42 -9q-41 0 -69.5 29t-28.5 73q0 47 34.5 79.5t83.5 32.5q55 0 89 -40.5t34 -105.5v-8z" />
    <glyph glyph-name="less" unicode="&#x3c;" horiz-adv-x="634" 
d="M564 62l-529 237v134l529 237v-168l-339 -135l339 -137v-168z" />
    <glyph glyph-name="equal" unicode="=" horiz-adv-x="632" 
d="M570 572v-157h-508v157h508zM570 316v-156h-508v156h508z" />
    <glyph glyph-name="greater" unicode="&#x3e;" horiz-adv-x="634" 
d="M600 433v-134l-530 -237v167l340 137l-340 136v168z" />
    <glyph glyph-name="question" unicode="?" horiz-adv-x="606" 
d="M204 261q-3 18 -3 35q0 39 25.5 78t56 65t56 59.5t25.5 62.5q0 28 -21 46.5t-50 18.5q-43 0 -65 -30.5t-22 -76.5l-180 21v13q-4 111 77 177t195 66q108 0 184 -60.5t76 -165.5q0 -34 -8.5 -62t-30 -55.5t-36 -43t-47.5 -46.5q-27 -25 -39.5 -43.5t-15.5 -48.5l-1 -10
h-176zM182 97q0 45 32 77t77 32t77 -32t32 -77t-32 -77t-77 -32t-77 32t-32 77z" />
    <glyph glyph-name="at" unicode="@" horiz-adv-x="866" 
d="M608 258q-8 -53 31 -53q41 0 77.5 48.5t36.5 120.5q0 115 -83 192.5t-212 77.5q-136 0 -235.5 -99t-99.5 -236q0 -136 89 -229t239 -93q51 0 108.5 18.5t101.5 51.5l41 -62q-41 -37 -114 -61t-137 -24q-179 0 -293 114t-114 284q0 171 121.5 291t291.5 120
q159 0 267 -97.5t108 -246.5q0 -116 -62.5 -189.5t-148.5 -73.5q-36 0 -68 16t-45 40q-19 -25 -53.5 -41t-65.5 -16q-69 0 -116 53.5t-47 118.5q0 94 59 162.5t146 68.5q28 0 55.5 -14t37.5 -38l9 47h118zM506 331q0 30 -17.5 49t-46.5 19q-38 0 -65.5 -32.5t-26.5 -73.5
q1 -27 19 -48.5t46 -21.5q37 0 64 33t27 75z" />
    <glyph glyph-name="A" unicode="A" horiz-adv-x="808" 
d="M251 144l-52 -144h-207l301 783h222l301 -783h-209l-54 144h-302zM497 311l-95 250l-93 -250h188z" />
    <glyph glyph-name="B" unicode="B" horiz-adv-x="740" 
d="M704 221q0 -109 -80.5 -165t-198.5 -56h-344v783h339q126 0 198 -73q52 -54 52 -134q0 -58 -33.5 -101t-91.5 -67v-3q74 -12 116.5 -62t42.5 -122zM474 544q0 70 -90 70h-112v-141h114q42 0 65 19t23 52zM507 244q0 36 -25.5 54.5t-64.5 18.5h-145v-147h146q39 0 64 19
t25 55z" />
    <glyph glyph-name="C" unicode="C" horiz-adv-x="843" 
d="M441 -12q-170 0 -287 116t-117 288q0 169 116 286.5t293 117.5q68 0 127 -18.5t99 -47t71 -66t48.5 -72t26.5 -69.5l-184 -57q-13 50 -61 97.5t-130 47.5q-88 0 -146 -63.5t-58 -154.5t56.5 -154.5t147.5 -63.5q81 0 130.5 45.5t63.5 99.5l186 -58q-10 -41 -36 -84.5
t-70.5 -88t-116.5 -73t-159 -28.5z" />
    <glyph glyph-name="D" unicode="D" horiz-adv-x="817" 
d="M81 783h259q192 0 315 -100.5t123 -288.5q0 -125 -59.5 -215.5t-157 -134.5t-220.5 -44h-260v783zM278 183h63q103 0 169 55t66 155q0 99 -66.5 154t-167.5 55h-64v-419z" />
    <glyph glyph-name="E" unicode="E" horiz-adv-x="684" 
d="M628 783v-175h-352v-128h320v-169h-320v-135h355v-176h-550v783h547z" />
    <glyph glyph-name="F" unicode="F" horiz-adv-x="667" 
d="M277 462h315v-173h-315v-289h-196v783h544v-179h-348v-142z" />
    <glyph glyph-name="G" unicode="G" horiz-adv-x="854" 
d="M820 352q0 -155 -103.5 -259.5t-269.5 -104.5q-176 0 -293 115t-117 289q0 165 120 284.5t290 119.5q78 0 143.5 -23t107.5 -61t68.5 -78.5t38.5 -83.5l-191 -51q-10 42 -52.5 80.5t-116.5 38.5q-89 0 -149 -63t-60 -161q0 -96 59 -162t152 -66q59 0 107.5 29t59.5 75
h-225v158h431v-76z" />
    <glyph glyph-name="H" unicode="H" horiz-adv-x="846" 
d="M278 305v-305h-197v783h197v-296h290v296h198v-783h-198v305h-290z" />
    <glyph glyph-name="I" unicode="I" horiz-adv-x="359" 
d="M279 783v-783h-198v783h198z" />
    <glyph glyph-name="J" unicode="J" horiz-adv-x="653" 
d="M305 -11q-125 0 -202 71.5t-77 196.5v86h190v-80q0 -44 23.5 -67t60.5 -23q36 0 58 24t22 63v523h199v-521q0 -126 -77 -199.5t-197 -73.5z" />
    <glyph glyph-name="K" unicode="K" horiz-adv-x="764" 
d="M279 0h-198v783h198v-336l242 336h232l-269 -372l288 -411h-245l-248 371v-371z" />
    <glyph glyph-name="L" unicode="L" horiz-adv-x="621" 
d="M81 783h197v-603h329v-180h-526v783z" />
    <glyph glyph-name="M" unicode="M" horiz-adv-x="1053" 
d="M779 470h-2l-191 -470h-121l-193 464h-2v-464h-189v783h237l208 -493l200 493h246v-783h-193v470z" />
    <glyph glyph-name="N" unicode="N" horiz-adv-x="864" 
d="M278 472h-1v-472h-196v783h218l288 -441h1v441h196v-783h-199z" />
    <glyph glyph-name="O" unicode="O" horiz-adv-x="892" 
d="M37 392q0 169 120.5 286.5t290.5 117.5t288.5 -116t118.5 -285q0 -170 -119.5 -288.5t-289.5 -118.5t-289.5 117t-119.5 287zM238 393q0 -89 60 -154.5t148 -65.5t148 65.5t60 154.5t-60 154t-148 65t-148 -65t-60 -154z" />
    <glyph glyph-name="P" unicode="P" horiz-adv-x="705" 
d="M81 0v783h306q131 0 212 -64.5t81 -189.5q0 -128 -85.5 -193.5t-219.5 -65.5h-97v-270h-197zM278 438h94q110 0 110 83q0 89 -111 89h-93v-172z" />
    <glyph glyph-name="Q" unicode="Q" horiz-adv-x="894" 
d="M674 57q-104 -69 -228 -69q-170 0 -289.5 117t-119.5 287q0 169 120.5 286.5t290.5 117.5t288.5 -116t118.5 -285q0 -122 -67 -224l79 -69l-108 -123zM238 393q0 -89 60 -155t148 -66q42 0 80 16l-107 95l108 123l111 -101q17 43 17 89q0 88 -60.5 153t-148.5 65
t-148 -65t-60 -154z" />
    <glyph glyph-name="R" unicode="R" horiz-adv-x="742" 
d="M359 275h-81v-275h-197v783h321q134 0 213.5 -64t79.5 -188q0 -163 -144 -222l162 -309h-210zM387 443q53 0 81.5 21t28.5 60q0 40 -26.5 64.5t-84.5 24.5h-108v-170h109z" />
    <glyph glyph-name="S" unicode="S" horiz-adv-x="694" 
d="M357 -11q-142 0 -225 67.5t-103 183.5l177 42q9 -66 51 -96.5t101 -30.5q49 0 73 23t24 51q0 50 -67 63l-108 21q-100 19 -160 79t-60 151q0 109 85 181t203 72q70 0 125.5 -20.5t89 -54.5t52.5 -72t25 -79l-174 -49q-7 50 -37.5 80t-81.5 30q-43 0 -67 -22.5t-24 -49.5
q0 -54 58 -65l112 -21q109 -21 168.5 -84t59.5 -151q0 -101 -81.5 -175t-215.5 -74z" />
    <glyph glyph-name="T" unicode="T" horiz-adv-x="676" 
d="M240 0v604h-222v179h640v-179h-221v-604h-197z" />
    <glyph glyph-name="U" unicode="U" horiz-adv-x="799" 
d="M726 312q0 -153 -82.5 -238t-246.5 -85t-244 86.5t-80 233.5v474h199v-471q0 -62 32 -100.5t95 -38.5q68 0 98 38.5t30 96.5v475h199v-471z" />
    <glyph glyph-name="V" unicode="V" horiz-adv-x="790" 
d="M9 783h218l170 -518l171 518h213l-282 -783h-208z" />
    <glyph glyph-name="W" unicode="W" horiz-adv-x="1197" 
d="M437 0h-195l-230 783h206l132 -495h3l151 495h190l155 -496h2l135 496h200l-231 -783h-199l-157 530h-1z" />
    <glyph glyph-name="X" unicode="X" horiz-adv-x="767" 
d="M219 0h-224l273 401l-259 382h227l151 -231l149 231h222l-257 -381l271 -402h-227l-162 249z" />
    <glyph glyph-name="Y" unicode="Y" horiz-adv-x="768" 
d="M285 0v302l-279 481h223l157 -281l159 281h218l-280 -481v-302h-198z" />
    <glyph glyph-name="Z" unicode="Z" horiz-adv-x="702" 
d="M39 0v167l361 442h-344v174h599v-165l-363 -442h364v-176h-617z" />
    <glyph glyph-name="bracketleft" unicode="[" horiz-adv-x="458" 
d="M425 867v-136h-186v-724h186v-136h-343v996h343z" />
    <glyph glyph-name="backslash" unicode="\" horiz-adv-x="581" 
d="M553 -5h-169l-358 820h170z" />
    <glyph glyph-name="bracketright" unicode="]" horiz-adv-x="458" 
d="M218 7v724h-186v136h343v-996h-343v136h186z" />
    <glyph glyph-name="asciicircum" unicode="^" horiz-adv-x="656" 
d="M211 451h-176l215 332h156l215 -332h-174l-119 197z" />
    <glyph glyph-name="underscore" unicode="_" horiz-adv-x="583" 
d="M583 -50v-141h-583v141h583z" />
    <glyph glyph-name="grave" unicode="`" horiz-adv-x="339" 
d="M183 623l-170 196h202l111 -196h-143z" />
    <glyph glyph-name="a" unicode="a" horiz-adv-x="599" 
d="M283 401q-29 0 -51.5 -16.5t-27.5 -42.5l-159 35q15 85 86.5 127t158.5 42q111 0 181.5 -56.5t70.5 -163.5v-326h-181v62l-2 1q-63 -73 -162 -73q-67 0 -114.5 45t-47.5 112q0 46 23 80.5t61.5 52.5t80.5 26.5t88 8.5h28q38 0 38 33q0 22 -18.5 37.5t-52.5 15.5zM273 122
q36 0 58.5 20t22.5 55v16h-66q-25 0 -44 -11.5t-19 -34.5q0 -19 14.5 -32t33.5 -13z" />
    <glyph glyph-name="b" unicode="b" horiz-adv-x="692" 
d="M658 267q0 -110 -71 -194t-182 -84q-93 0 -150 75h-4v-64h-189v815h191v-345h2q57 74 153 74q108 0 179 -82t71 -195zM464 268q0 45 -31 76.5t-76 31.5q-44 0 -75 -32t-31 -76q0 -45 31 -77t75 -32q45 0 76 32t31 77z" />
    <glyph glyph-name="c" unicode="c" horiz-adv-x="614" 
d="M326 -12q-124 0 -208.5 78.5t-84.5 200.5q0 119 87.5 199t207.5 80q92 0 165 -49.5t93 -136.5l-168 -51q-10 30 -34.5 48t-56.5 18q-44 0 -72.5 -31t-28.5 -75q0 -46 27.5 -77t73.5 -31q32 0 57 18t37 48l168 -51q-24 -89 -96.5 -138.5t-166.5 -49.5z" />
    <glyph glyph-name="d" unicode="d" horiz-adv-x="692" 
d="M284 -11q-107 0 -178.5 81.5t-71.5 197.5q0 119 75.5 197.5t178.5 78.5q94 0 148 -71h4v342h190v-815h-189v65h-4q-59 -76 -153 -76zM441 268q0 44 -31 76t-75 32t-75 -32t-31 -76t31 -76t75 -32t75 32t31 76z" />
    <glyph glyph-name="e" unicode="e" horiz-adv-x="624" 
d="M218 219q7 -38 38 -60.5t71 -22.5q60 0 93 54l157 -55q-67 -147 -254 -147q-120 0 -205 80t-85 200q0 117 84 197.5t201 80.5q116 0 194.5 -78t78.5 -193q0 -37 -3 -56h-370zM315 401q-33 0 -60 -22t-34 -54h185q-5 36 -30 56t-61 20z" />
    <glyph glyph-name="f" unicode="f" horiz-adv-x="458" 
d="M447 656q-20 6 -54 6q-81 0 -81 -86v-42h130v-156h-130v-378h-188v378h-99v156h99v45q0 106 57.5 172t169.5 66q54 0 96 -13v-148z" />
    <glyph glyph-name="g" unicode="g" horiz-adv-x="688" 
d="M432 80q-59 -76 -147 -76q-111 0 -180.5 76t-69.5 191q0 119 74 194.5t177 75.5q92 0 148 -72h3v65h188v-522q0 -132 -82.5 -205.5t-217.5 -73.5q-124 0 -197 56t-93 136l168 51q19 -80 116 -80q53 0 84.5 27.5t31.5 84.5v72h-3zM437 273q0 44 -30 73.5t-74 29.5t-74 -30
t-30 -74t30 -74.5t74 -30.5t74 31t30 75z" />
    <glyph glyph-name="h" unicode="h" horiz-adv-x="650" 
d="M403 290q0 34 -20 57.5t-53 23.5q-35 0 -56.5 -21.5t-21.5 -59.5v-290h-190v815h191v-343h1q59 73 152 73q51 0 88.5 -19.5t58 -53t30.5 -70.5t10 -79v-323h-190v290z" />
    <glyph glyph-name="i" unicode="i" horiz-adv-x="316" 
d="M158 605q-45 0 -78 32.5t-33 77.5q0 46 32.5 78.5t78.5 32.5q47 0 79 -32.5t32 -78.5q0 -45 -32.5 -77.5t-78.5 -32.5zM62 534h192v-534h-192v534z" />
    <glyph glyph-name="j" unicode="j" horiz-adv-x="324" 
d="M167 605q-46 0 -78.5 32.5t-32.5 77.5q0 46 32.5 78.5t78.5 32.5t78.5 -32.5t32.5 -78.5q0 -45 -32.5 -77.5t-78.5 -32.5zM70 -42q0 -62 -73 -62q-24 0 -47 5v-150q40 -15 101 -15q103 0 157 60t54 157v581h-192v-576z" />
    <glyph glyph-name="k" unicode="k" horiz-adv-x="640" 
d="M252 260v-260h-190v815h190v-503l161 222h220l-180 -248l186 -286h-222l-161 260h-4z" />
    <glyph glyph-name="l" unicode="l" horiz-adv-x="317" 
d="M254 815v-815h-192v815h192z" />
    <glyph glyph-name="m" unicode="m" horiz-adv-x="981" 
d="M398 291q0 33 -18 56.5t-51 23.5q-37 0 -57 -21t-20 -60v-290h-190v534h189v-67h1q29 39 70.5 58.5t82.5 19.5q106 0 152 -84q76 84 181 84q52 0 90 -19.5t58 -53t29 -70.5t9 -79v-323h-190v292q0 33 -18 56t-51 23q-37 0 -57 -20.5t-20 -59.5v-291h-190v291z" />
    <glyph glyph-name="n" unicode="n" horiz-adv-x="650" 
d="M403 289q0 34 -20 58t-53 24q-35 0 -56.5 -21.5t-21.5 -60.5v-289h-190v534h189v-67h2q29 39 70.5 58.5t82.5 19.5q51 0 88.5 -19.5t58 -53t30.5 -70.5t10 -79v-323h-190v289z" />
    <glyph glyph-name="o" unicode="o" horiz-adv-x="655" 
d="M33 267q0 119 88.5 199t208.5 80t206 -78t86 -197q0 -121 -87 -202t-209 -81t-207.5 79.5t-85.5 199.5zM224 268q0 -44 30 -76.5t74 -32.5q43 0 73 32.5t30 76.5t-29.5 76t-73.5 32t-74 -32t-30 -76z" />
    <glyph glyph-name="p" unicode="p" horiz-adv-x="692" 
d="M405 -11q-93 0 -149 74h-3v-327h-191v798h189v-64h4q26 35 67.5 54.5t85.5 19.5q108 0 179 -82t71 -195q0 -110 -71 -194t-182 -84zM251 268q0 -45 31 -77t75 -32q45 0 76 32t31 77t-31 76.5t-76 31.5q-44 0 -75 -32t-31 -76z" />
    <glyph glyph-name="q" unicode="q" horiz-adv-x="692" 
d="M284 -11q-107 0 -178.5 81.5t-71.5 197.5q0 119 75.5 197.5t178.5 78.5q93 0 149 -71h4v61h189v-798h-190v328h-3q-59 -75 -153 -75zM441 268q0 44 -31 76t-75 32t-75 -32t-31 -76t31 -76t75 -32t75 32t31 76z" />
    <glyph glyph-name="r" unicode="r" horiz-adv-x="457" 
d="M437 351q-21 4 -47 4q-137 0 -137 -135v-220h-191v534h189v-77h1q28 47 70.5 64.5t79.5 17.5q18 0 35 -4v-184z" />
    <glyph glyph-name="s" unicode="s" horiz-adv-x="533" 
d="M498 171q0 -75 -61 -129t-172 -54q-61 0 -107 15.5t-71 40.5t-38 49t-17 49l152 40q4 -29 24.5 -44t51.5 -15q29 0 42 12t13 25q0 30 -73 39q-197 30 -197 166q0 76 64 128.5t156 52.5q100 0 157.5 -43.5t64.5 -98.5l-153 -38q-10 47 -63 47q-25 0 -37 -11t-12 -23
q0 -28 64 -34q40 -5 74.5 -16t67 -30.5t51.5 -52.5t19 -75z" />
    <glyph glyph-name="t" unicode="t" horiz-adv-x="472" 
d="M427 6q-44 -15 -101 -15q-95 0 -151.5 52.5t-56.5 149.5v183h-100v158h105v173h185v-173h124v-158h-124v-163q0 -62 69 -62q21 0 50 3v-148z" />
    <glyph glyph-name="u" unicode="u" horiz-adv-x="650" 
d="M247 245q0 -35 20 -58.5t53 -23.5q35 0 56.5 21.5t21.5 60.5v289h190v-534h-189v66h-2q-29 -39 -70 -58t-83 -19q-50 0 -87.5 19.5t-58.5 52.5t-31 70.5t-10 78.5v324h190v-289z" />
    <glyph glyph-name="v" unicode="v" horiz-adv-x="634" 
d="M8 534h200l110 -308h1l110 308h197l-215 -534h-189z" />
    <glyph glyph-name="w" unicode="w" horiz-adv-x="911" 
d="M12 534h189l83 -287h1l93 287h155l96 -289h1l88 289h182l-172 -534h-181l-91 286h-2l-94 -286h-179z" />
    <glyph glyph-name="x" unicode="x" horiz-adv-x="630" 
d="M215 0h-211l200 270l-197 264h213l97 -139l97 139h209l-198 -265l201 -269h-214l-98 144z" />
    <glyph glyph-name="y" unicode="y" horiz-adv-x="643" 
d="M236 52l-233 482h209l122 -273h1l102 273h200l-326 -797h-202z" />
    <glyph glyph-name="z" unicode="z" horiz-adv-x="561" 
d="M265 377h-215v157h465v-141l-234 -237h237v-156h-476v150z" />
    <glyph glyph-name="braceleft" unicode="{" horiz-adv-x="468" 
d="M279 152q-9 -85 6 -115.5t85 -30.5h66v-135h-82q-136 0 -194 52.5t-44 186.5l10 99q5 50 -19.5 67.5t-84.5 18.5v150q60 1 84.5 18t19.5 67l-10 100q-14 133 44 185t194 52h82v-136h-66q-70 0 -85 -29.5t-6 -113.5l8 -75q12 -119 -120 -141v-4q133 -19 120 -141z" />
    <glyph glyph-name="bar" unicode="|" horiz-adv-x="319" 
d="M237 891v-1007h-155v1007h155z" />
    <glyph glyph-name="braceright" unicode="}" horiz-adv-x="468" 
d="M182 227q-14 122 120 141v4q-134 22 -120 141l7 75q9 84 -5.5 113.5t-84.5 29.5h-66v136h81q136 0 194.5 -52t44.5 -185l-11 -100q-5 -50 19.5 -67t84.5 -18v-150q-60 -1 -84.5 -18.5t-19.5 -67.5l11 -99q14 -134 -44.5 -186.5t-194.5 -52.5h-81v135h66q69 0 84 30.5
t6 115.5z" />
    <glyph glyph-name="asciitilde" unicode="~" horiz-adv-x="663" 
d="M438 203q-37 0 -77 19.5t-73.5 39t-54.5 19.5q-45 0 -83 -61l-112 94q76 134 185 134q39 0 81 -20t74 -39.5t49 -19.5q47 0 83 59l114 -92q-75 -133 -186 -133z" />
    <glyph glyph-name="exclamdown" unicode="&#xa1;" horiz-adv-x="336" 
d="M276 437q0 -45 -31.5 -77t-77.5 -32q-45 0 -77 32t-32 77q0 46 32 77.5t77 31.5q46 0 77.5 -31.5t31.5 -77.5zM254 268l17 -401v-116h-205v115l16 402h172z" />
    <glyph glyph-name="cent" unicode="&#xa2;" horiz-adv-x="633" 
d="M597 172q-23 -79 -87 -125.5t-146 -54.5v-94h-72v95q-109 12 -180.5 87t-71.5 187q0 108 73 184t179 91v95h72v-94q81 -8 146 -54.5t84 -124.5l-167 -52q-17 51 -65 62v-212q46 11 69 63zM231 269q0 -37 16 -64.5t47 -38.5v204q-30 -12 -46.5 -39.5t-16.5 -61.5z" />
    <glyph glyph-name="sterling" unicode="&#xa3;" horiz-adv-x="711" 
d="M676 257q0 -111 -67.5 -184t-174.5 -73h-382v149q46 21 82.5 62t36.5 89q0 16 -2 25h-112v127h74q-17 59 -17 98q0 108 78 177t189 69q128 0 196 -71.5t70 -166.5l-186 -30q-1 47 -22.5 74t-59.5 27q-33 0 -56 -23t-23 -58q0 -24 24 -96h187v-127h-154v-9
q0 -43 -20.5 -82.5t-57.5 -63.5h128q42 0 69.5 27t27.5 71z" />
    <glyph glyph-name="currency" unicode="&#xa4;" horiz-adv-x="669" 
d="M94 271q0 62 28 112l-83 85l100 100l86 -88q49 26 109 26q64 0 109 -26l86 87l100 -100l-82 -84q29 -50 29 -112q0 -58 -29 -114l84 -83l-101 -101l-86 88q-52 -26 -110 -26q-57 0 -109 26l-86 -87l-100 101l84 84q-29 48 -29 112zM240 270q0 -40 26 -66t67 -26t67.5 26
t26.5 66q0 41 -26.5 66.5t-67.5 25.5t-67 -25.5t-26 -66.5z" />
    <glyph glyph-name="yen" unicode="&#xa5;" horiz-adv-x="791" 
d="M710 146h-215v-146h-199v146h-213v114h213v61h-213v115h166l-218 347h227l140 -251l140 251h221l-218 -347h169v-115h-215v-61h215v-114z" />
    <glyph glyph-name="brokenbar" unicode="&#xa6;" horiz-adv-x="316" 
d="M236 501h-155v390h155v-390zM236 -116h-155v390h155v-390z" />
    <glyph glyph-name="section" unicode="&#xa7;" horiz-adv-x="666" 
d="M392 168q0 28 -56 41l-99 23q-200 48 -200 150q0 89 102 125q-54 46 -54 108q0 85 73 133t179 48q171 0 256 -114l-114 -91q-59 65 -146 65q-21 0 -40 -9.5t-19 -29.5q0 -28 56 -42l102 -24q197 -46 197 -149q0 -86 -102 -123q54 -42 54 -107q0 -61 -38 -104t-93.5 -61.5
t-120.5 -18.5q-175 0 -258 116l114 91q58 -67 148 -67q20 0 39.5 10t19.5 30zM414 334q22 0 38.5 9.5t16.5 30.5q0 15 -18 26.5t-43 17.5l-96 24q-32 8 -61 8q-22 0 -39 -9.5t-17 -29.5q0 -29 61 -44l95 -24q31 -9 63 -9z" />
    <glyph glyph-name="dieresis" unicode="&#xa8;" horiz-adv-x="504" 
d="M218 716q0 -43 -28 -71.5t-71 -28.5t-71 28.5t-28 71.5q0 42 28 70.5t71 28.5q42 0 70.5 -28.5t28.5 -70.5zM479 716q0 -43 -29 -71.5t-72 -28.5t-70.5 28.5t-27.5 71.5q0 42 28 70.5t70 28.5q43 0 72 -28.5t29 -70.5z" />
    <glyph glyph-name="copyright" unicode="&#xa9;" horiz-adv-x="884" 
d="M442 -10q-166 0 -284 117t-118 286q0 166 118.5 284.5t283.5 118.5q167 0 284.5 -117.5t117.5 -284.5t-118.5 -285.5t-283.5 -118.5zM441 728q-137 0 -233 -97.5t-96 -236.5q0 -138 97 -237t232 -99q136 0 233 97t97 238q0 138 -96 236.5t-234 98.5zM683 312
q-22 -79 -85 -122.5t-147 -43.5q-109 0 -185 70.5t-76 178.5q0 105 77 175t184 70q82 0 147 -44t82 -121l-148 -45q-9 27 -30.5 42.5t-50.5 15.5q-38 0 -64 -27.5t-26 -66.5t26 -67.5t65 -28.5q58 0 82 59z" />
    <glyph glyph-name="ordfeminine" unicode="&#xaa;" horiz-adv-x="550" 
d="M343 436q-39 -56 -108 -56q-74 0 -124 57t-50 137q0 83 53 138t124 55q24 0 54.5 -12t50.5 -42h2v46h131v-372h-131v49h-2zM345 574q0 31 -21.5 53t-52.5 22t-53 -22t-22 -53t22 -53t53 -22t52.5 22t21.5 53zM476 184h-410v117h410v-117z" />
    <glyph glyph-name="guillemotleft" unicode="&#xab;" horiz-adv-x="695" 
d="M354 164l-96 -93l-233 230l233 231l96 -94l-140 -136zM650 164l-96 -93l-233 230l233 231l96 -94l-140 -136z" />
    <glyph glyph-name="logicalnot" unicode="&#xac;" horiz-adv-x="724" 
d="M482 414h-440v156h618v-339h-178v183z" />
    <glyph glyph-name="registered" unicode="&#xae;" horiz-adv-x="641" 
d="M595 522q0 -113 -80.5 -193.5t-194.5 -80.5t-194 80.5t-80 193.5q0 114 80 194.5t194 80.5t194.5 -80.5t80.5 -194.5zM533 523q0 90 -62.5 153.5t-150.5 63.5q-89 0 -151.5 -63.5t-62.5 -153.5t62.5 -153.5t151.5 -63.5q88 0 150.5 63.5t62.5 153.5zM208 680h129
q53 0 85.5 -26t32.5 -75q0 -66 -59 -90l63 -124h-84l-56 111h-32v-111h-79v315zM331 543q44 0 44 33q0 35 -44 35h-44v-68h44z" />
    <glyph glyph-name="macron" unicode="&#xaf;" horiz-adv-x="426" 
d="M406 628h-386v137h386v-137z" />
    <glyph glyph-name="degree" unicode="&#xb0;" horiz-adv-x="464" 
d="M231 394q-81 0 -139 58t-58 141q0 80 58 138.5t139 58.5q83 0 141 -58t58 -139q0 -83 -58 -141t-141 -58zM231 668q-32 0 -53.5 -21.5t-21.5 -53.5t22 -54.5t53 -22.5q32 0 54 22.5t22 54.5q0 29 -23 52t-53 23z" />
    <glyph glyph-name="plusminus" unicode="&#xb1;" horiz-adv-x="659" 
d="M247 697h166v-157h185v-159h-185v-158h-166v158h-186v159h186v157zM598 -15h-537v161h537v-161z" />
    <glyph glyph-name="uni00B2" unicode="&#xb2;" horiz-adv-x="480" 
d="M50 459q0 60 29 105t98 83l55 30q52 28 52 57q0 12 -11.5 23t-32.5 11q-53 0 -53 -73l-134 15q1 88 55.5 134t130.5 46q83 0 134 -44t51 -109q0 -93 -112 -152l-50 -26l-29 -17h193v-116h-376v33z" />
    <glyph glyph-name="uni00B3" unicode="&#xb3;" horiz-adv-x="465" 
d="M232 415q-68 0 -123.5 33t-70.5 99l129 33q11 -50 62 -50q24 0 38.5 12t14.5 27q0 39 -53 39h-38v99h39q23 0 34.5 10.5t11.5 25.5q0 14 -12 24t-36 10q-50 0 -60 -50l-127 33q10 47 43.5 77.5t70 41.5t76.5 11q83 0 133 -37.5t50 -102.5q0 -67 -61 -91q69 -24 69 -96
q0 -69 -55 -108.5t-135 -39.5z" />
    <glyph glyph-name="acute" unicode="&#xb4;" horiz-adv-x="342" 
d="M331 819l-170 -196h-143l111 196h202z" />
    <glyph glyph-name="uni00B5" unicode="&#xb5;" horiz-adv-x="676" 
d="M413 66q-18 -33 -46 -53.5t-55 -20.5q-34 0 -57 24v-180h-182v698h190v-284q0 -36 19 -61.5t54 -25.5q37 0 57.5 24.5t20.5 62.5v284h190v-534h-189v66h-2z" />
    <glyph glyph-name="paragraph" unicode="&#xb6;" horiz-adv-x="588" 
d="M271 346q-99 0 -169.5 64t-70.5 155t70.5 154.5t169.5 63.5h227v-783h-190v346h-37z" />
    <glyph glyph-name="periodcentered" unicode="&#xb7;" horiz-adv-x="323" 
d="M162 200q-48 0 -83 34t-35 82q0 49 34.5 83.5t83.5 34.5q48 0 82 -35t34 -83t-33.5 -82t-82.5 -34z" />
    <glyph glyph-name="cedilla" unicode="&#xb8;" horiz-adv-x="302" 
d="M282 -101q0 -160 -189 -160q-44 0 -73 9v105q28 -5 52 -5q43 0 64.5 25.5t21.5 69.5q0 30 -12 57h113q23 -43 23 -101z" />
    <glyph glyph-name="uni00B9" unicode="&#xb9;" horiz-adv-x="402" 
d="M180 426v293l-111 -62l-62 110l199 112h132v-453h-158z" />
    <glyph glyph-name="ordmasculine" unicode="&#xba;" horiz-adv-x="527" 
d="M60 573q0 83 60.5 138.5t144.5 55.5q83 0 142.5 -54.5t59.5 -136.5q0 -84 -60 -140t-145 -56t-143.5 54.5t-58.5 138.5zM192 574q0 -30 21 -52.5t51 -22.5t50.5 22.5t20.5 52.5t-21 52.5t-51 22.5t-50.5 -22t-20.5 -53zM462 184h-397v117h397v-117z" />
    <glyph glyph-name="guillemotright" unicode="&#xbb;" horiz-adv-x="695" 
d="M142 532l233 -231l-233 -230l-97 93l141 137l-141 137zM437 532l233 -231l-233 -230l-96 93l140 137l-140 137z" />
    <glyph glyph-name="onequarter" unicode="&#xbc;" horiz-adv-x="1100" 
d="M225 783h132v-453h-158v293l-110 -62l-62 110zM189 0l514 783h168l-513 -783h-169zM599 219l206 235h187v-266h66v-116h-66v-72h-151v72h-242v147zM841 188v133l-113 -133h113z" />
    <glyph glyph-name="onehalf" unicode="&#xbd;" horiz-adv-x="1080" 
d="M225 783h132v-453h-158v293l-110 -62l-62 110zM188 0l514 783h169l-513 -783h-170zM655 34q0 60 29 104.5t98 82.5l56 30q51 28 51 58q0 12 -11.5 22.5t-32.5 10.5q-53 0 -53 -72l-134 14q1 89 55 134.5t131 45.5q83 0 134 -43.5t51 -108.5q0 -95 -112 -152l-50 -27
q-27 -12 -28 -16h193v-117h-377v34z" />
    <glyph glyph-name="threequarters" unicode="&#xbe;" horiz-adv-x="1117" 
d="M225 319q-68 0 -123.5 32.5t-70.5 98.5l129 34q11 -50 62 -50q24 0 38.5 12t14.5 27q0 39 -53 39h-38v99h39q23 0 34.5 10.5t11.5 25.5q0 14 -12 24t-36 10q-50 0 -60 -50l-127 33q10 47 43 77.5t70 41.5t77 11q83 0 132.5 -37.5t49.5 -103.5q0 -67 -60 -90
q69 -26 69 -96q0 -69 -55 -108.5t-135 -39.5zM214 0l514 783h168l-512 -783h-170zM625 219l205 235h187v-266h66v-116h-66v-72h-151v72h-241v147zM866 188v133l-114 -133h114z" />
    <glyph glyph-name="questiondown" unicode="&#xbf;" horiz-adv-x="595" 
d="M411 437q0 -45 -32 -77t-77 -32t-77 32t-32 77q0 46 32 77.5t77 31.5t77 -31.5t32 -77.5zM388 272q4 -22 4 -34q0 -39 -25.5 -78t-56 -65t-56 -59.5t-25.5 -62.5q0 -28 21 -46.5t50 -18.5q43 0 65 30.5t22 76.5l180 -21v-13q0 -111 -79.5 -177t-192.5 -66
q-108 0 -184.5 60.5t-76.5 165.5q0 44 20 84t40 61t63 61q46 44 54 94l2 8h175z" />
    <glyph glyph-name="Agrave" unicode="&#xc0;" horiz-adv-x="808" 
d="M340 852l-171 196h203l111 -196h-143zM816 0h-209l-54 144h-302l-52 -144h-207l301 783h222zM309 311h188l-95 250z" />
    <glyph glyph-name="Aacute" unicode="&#xc1;" horiz-adv-x="808" 
d="M644 1048l-170 -196h-143l111 196h202zM816 0h-209l-54 144h-302l-52 -144h-207l301 783h222zM309 311h188l-95 250z" />
    <glyph glyph-name="Acircumflex" unicode="&#xc2;" horiz-adv-x="808" 
d="M615 852h-152l-61 101l-61 -101h-154l127 188h176zM816 0h-209l-54 144h-302l-52 -144h-207l301 783h222zM309 311h188l-95 250z" />
    <glyph glyph-name="Atilde" unicode="&#xc3;" horiz-adv-x="808" 
d="M489 854q-44 0 -98 32q-40 24 -59 22q-14 -1 -22 -11t-9 -18.5t-2 -23.5h-101l-1 29q-2 68 30.5 108t95.5 40q37 0 91 -31q40 -22 60 -22q36 0 38 50h97l1 -29q2 -66 -28 -106t-93 -40zM816 0h-209l-54 144h-302l-52 -144h-207l301 783h222zM309 311h188l-95 250z" />
    <glyph glyph-name="Adieresis" unicode="&#xc4;" horiz-adv-x="808" 
d="M369 965q0 -43 -28.5 -71.5t-71.5 -28.5t-71 28.5t-28 71.5q0 42 28 70.5t71 28.5t71.5 -28.5t28.5 -70.5zM638 965q0 -43 -28 -71.5t-71 -28.5t-71.5 28.5t-28.5 71.5q0 42 28.5 70.5t71.5 28.5q42 0 70.5 -28.5t28.5 -70.5zM816 0h-209l-54 144h-302l-52 -144h-207
l301 783h222zM309 311h188l-95 250z" />
    <glyph glyph-name="Aring" unicode="&#xc5;" horiz-adv-x="808" 
d="M276 739q-31 41 -31 90q0 62 46.5 106t110.5 44q65 0 111.5 -44t46.5 -106q0 -48 -29 -88l285 -741h-209l-54 144h-302l-52 -144h-207zM402 885q-23 0 -40 -16.5t-17 -40.5t17 -40.5t40 -16.5q24 0 41 16.5t17 40.5t-17 40.5t-41 16.5zM497 311l-95 250l-93 -250h188z
" />
    <glyph glyph-name="AE" unicode="&#xc6;" horiz-adv-x="1074" 
d="M671 480h315v-169h-315v-135h350v-176h-541v124h-229l-55 -124h-208l367 783h663v-175h-347v-128zM480 291v320h-9l-143 -320h152z" />
    <glyph glyph-name="Ccedilla" unicode="&#xc7;" horiz-adv-x="843" 
d="M522 -101q0 -160 -189 -160q-44 0 -73 9v105q28 -5 52 -5q43 0 64.5 25.5t21.5 69.5q0 28 -8 48q-153 18 -253 130.5t-100 270.5q0 169 116 286.5t293 117.5q68 0 127 -18.5t99 -47t71 -66t48.5 -72t26.5 -69.5l-184 -57q-13 50 -61 97.5t-130 47.5q-88 0 -146 -63.5
t-58 -154.5t56.5 -154.5t147.5 -63.5q81 0 130.5 45.5t63.5 99.5l186 -58q-9 -36 -31.5 -76t-59.5 -81t-97 -72t-132 -41q19 -41 19 -93z" />
    <glyph glyph-name="Egrave" unicode="&#xc8;" horiz-adv-x="685" 
d="M321 852l-170 196h202l111 -196h-143zM277 608h352v175h-548v-783h551v176h-355v135h320v169h-320v128z" />
    <glyph glyph-name="Eacute" unicode="&#xc9;" horiz-adv-x="685" 
d="M562 1048l-170 -196h-143l111 196h202zM597 311h-320v-135h355v-176h-551v783h548v-175h-352v-128h320v-169z" />
    <glyph glyph-name="Ecircumflex" unicode="&#xca;" horiz-adv-x="685" 
d="M570 854h-152l-62 101l-60 -101h-153l126 188h175zM277 608h352v175h-548v-783h551v176h-355v135h320v169h-320v128z" />
    <glyph glyph-name="Edieresis" unicode="&#xcb;" horiz-adv-x="684" 
d="M318 965q0 -43 -28.5 -71.5t-71.5 -28.5t-71 28.5t-28 71.5q0 42 28 70.5t71 28.5t71.5 -28.5t28.5 -70.5zM587 965q0 -43 -28 -71.5t-71 -28.5t-71 28.5t-28 71.5q0 42 28 70.5t71 28.5q42 0 70.5 -28.5t28.5 -70.5zM596 311h-320v-135h355v-176h-550v783h547v-175h-352
v-128h320v-169z" />
    <glyph glyph-name="Igrave" unicode="&#xcc;" horiz-adv-x="360" 
d="M110 852l-170 196h202l112 -196h-144zM81 0h198v783h-198v-783z" />
    <glyph glyph-name="Iacute" unicode="&#xcd;" horiz-adv-x="359" 
d="M419 1049l-170 -196h-143l111 196h202zM279 0h-198v783h198v-783z" />
    <glyph glyph-name="Icircumflex" unicode="&#xce;" horiz-adv-x="359" 
d="M393 854h-152l-61 101l-61 -101h-153l126 188h176zM81 0h198v783h-198v-783z" />
    <glyph glyph-name="Idieresis" unicode="&#xcf;" horiz-adv-x="359" 
d="M152 965q0 -43 -28.5 -71.5t-71.5 -28.5t-71 28.5t-28 71.5q0 42 28 70.5t71 28.5t71.5 -28.5t28.5 -70.5zM408 965q0 -43 -28.5 -71.5t-71.5 -28.5t-71 28.5t-28 71.5q0 42 28 70.5t71 28.5t71.5 -28.5t28.5 -70.5zM279 0h-198v783h198v-783z" />
    <glyph glyph-name="Eth" unicode="&#xd0;" horiz-adv-x="850" 
d="M373 783q194 0 316 -102t122 -287q0 -79 -24.5 -145.5t-66.5 -111.5t-98.5 -76.5t-120 -46t-131.5 -14.5h-257v311h-92v168h92v304h260zM377 181q104 0 167.5 56.5t63.5 155.5q0 95 -62.5 152t-167.5 57h-69v-123h141v-168h-141v-130h68z" />
    <glyph glyph-name="Ntilde" unicode="&#xd1;" horiz-adv-x="864" 
d="M519 854q-44 0 -98 32q-40 24 -59 22q-14 -1 -22 -11t-9 -18.5t-2 -23.5h-101l-1 29q-2 68 30.5 108t95.5 40q37 0 91 -31q40 -22 60 -22q36 0 38 50h97l1 -29q2 -66 -28 -106t-93 -40zM278 472h-1v-472h-196v783h218l288 -441h1v441h196v-783h-199z" />
    <glyph glyph-name="Ograve" unicode="&#xd2;" horiz-adv-x="893" 
d="M377 852l-170 196h202l112 -196h-144zM37 392q0 169 120.5 286.5t290.5 117.5t288.5 -115.5t118.5 -285.5t-119.5 -288.5t-289.5 -118.5t-289.5 117t-119.5 287zM239 393q0 -89 60 -154.5t148 -65.5t147.5 65.5t59.5 154.5t-59.5 154t-147.5 65t-148 -65t-60 -154z" />
    <glyph glyph-name="Oacute" unicode="&#xd3;" horiz-adv-x="893" 
d="M687 1048l-171 -196h-143l111 196h203zM37 392q0 169 120.5 286.5t290.5 117.5t288.5 -115.5t118.5 -285.5t-119.5 -288.5t-289.5 -118.5t-289.5 117t-119.5 287zM239 393q0 -89 60 -154.5t148 -65.5t147.5 65.5t59.5 154.5t-59.5 154t-147.5 65t-148 -65t-60 -154z" />
    <glyph glyph-name="Ocircumflex" unicode="&#xd4;" horiz-adv-x="893" 
d="M660 854h-152l-61 101l-61 -101h-153l126 188h176zM37 392q0 169 120.5 286.5t290.5 117.5t288.5 -115.5t118.5 -285.5t-119.5 -288.5t-289.5 -118.5t-289.5 117t-119.5 287zM239 393q0 -89 60 -154.5t148 -65.5t147.5 65.5t59.5 154.5t-59.5 154t-147.5 65t-148 -65
t-60 -154z" />
    <glyph glyph-name="Otilde" unicode="&#xd5;" horiz-adv-x="893" 
d="M532 854q-44 0 -98 32q-40 24 -59 22q-14 -1 -22 -11t-9 -18.5t-2 -23.5h-101l-1 29q-2 68 30.5 108t95.5 40q37 0 91 -31q40 -22 60 -22q36 0 38 50h97l1 -29q2 -66 -28 -106t-93 -40zM37 392q0 169 120.5 286.5t290.5 117.5t288.5 -115.5t118.5 -285.5t-119.5 -288.5
t-289.5 -118.5t-289.5 117t-119.5 287zM239 393q0 -89 60 -154.5t148 -65.5t147.5 65.5t59.5 154.5t-59.5 154t-147.5 65t-148 -65t-60 -154z" />
    <glyph glyph-name="Odieresis" unicode="&#xd6;" horiz-adv-x="892" 
d="M410 965q0 -43 -28.5 -71.5t-71.5 -28.5t-71 28.5t-28 71.5q0 42 28 70.5t71 28.5t71.5 -28.5t28.5 -70.5zM679 965q0 -43 -28 -71.5t-71 -28.5t-71.5 28.5t-28.5 71.5q0 42 28.5 70.5t71.5 28.5q42 0 70.5 -28.5t28.5 -70.5zM37 392q0 169 120.5 286.5t290.5 117.5
t288.5 -116t118.5 -285q0 -170 -119.5 -288.5t-289.5 -118.5t-289.5 117t-119.5 287zM238 393q0 -89 60 -154.5t148 -65.5t148 65.5t60 154.5t-60 154t-148 65t-148 -65t-60 -154z" />
    <glyph glyph-name="multiply" unicode="&#xd7;" horiz-adv-x="633" 
d="M316 404l176 176l102 -103l-175 -175l175 -176l-102 -103l-176 176l-175 -176l-102 103l175 176l-175 175l102 103z" />
    <glyph glyph-name="Oslash" unicode="&#xd8;" horiz-adv-x="894" 
d="M769 646q87 -108 87 -251q0 -170 -119.5 -288.5t-289.5 -118.5q-128 0 -231 70l-86 -92l-92 85l86 91q-86 108 -86 250q0 169 120.5 286.5t290.5 117.5q124 0 226 -66l89 94l91 -85zM448 615q-89 0 -149.5 -65.5t-60.5 -155.5q0 -55 24 -105l284 302q-45 24 -98 24z
M448 172q88 0 149 66.5t61 155.5q0 54 -26 108l-286 -304q47 -26 102 -26z" />
    <glyph glyph-name="Ugrave" unicode="&#xd9;" horiz-adv-x="800" 
d="M335 852l-170 196h202l112 -196h-144zM528 308q0 -58 -30 -96.5t-98 -38.5q-63 0 -95 38.5t-32 100.5v471h-200v-474q0 -146 80.5 -233t244.5 -87t246.5 85t82.5 238v471h-199v-475z" />
    <glyph glyph-name="Uacute" unicode="&#xda;" horiz-adv-x="800" 
d="M640 1048l-171 -196h-143l111 196h203zM727 312q0 -153 -82.5 -238t-246.5 -85t-244.5 87t-80.5 233v474h200v-471q0 -62 32 -100.5t95 -38.5q68 0 98 38.5t30 96.5v475h199v-471z" />
    <glyph glyph-name="Ucircumflex" unicode="&#xdb;" horiz-adv-x="800" 
d="M613 854h-152l-61 101l-61 -101h-152l125 188h176zM528 308q0 -58 -30 -96.5t-98 -38.5q-63 0 -95 38.5t-32 100.5v471h-200v-474q0 -146 80.5 -233t244.5 -87t246.5 85t82.5 238v471h-199v-475z" />
    <glyph glyph-name="Udieresis" unicode="&#xdc;" horiz-adv-x="799" 
d="M364 965q0 -43 -28 -71.5t-71 -28.5t-71 28.5t-28 71.5q0 42 28 70.5t71 28.5q42 0 70.5 -28.5t28.5 -70.5zM634 965q0 -43 -28.5 -71.5t-71.5 -28.5t-71 28.5t-28 71.5q0 42 28 70.5t71 28.5t71.5 -28.5t28.5 -70.5zM726 312q0 -153 -82.5 -238t-246.5 -85t-244 86.5
t-80 233.5v474h199v-471q0 -62 32 -100.5t95 -38.5q68 0 98 38.5t30 96.5v475h199v-471z" />
    <glyph glyph-name="Yacute" unicode="&#xdd;" horiz-adv-x="768" 
d="M624 1048l-170 -196h-143l111 196h202zM545 783h218l-280 -481v-302h-198v302l-279 481h223l157 -281z" />
    <glyph glyph-name="Thorn" unicode="&#xde;" horiz-adv-x="704" 
d="M387 654q131 0 212 -64.5t81 -189.5q0 -128 -85.5 -193.5t-219.5 -65.5h-98v-141h-196v783h196v-129h110zM372 310q110 0 110 82q0 89 -111 89h-94v-171h95z" />
    <glyph glyph-name="germandbls" unicode="&#xdf;" horiz-adv-x="719" 
d="M529 423q-27 -16 -27 -36q0 -22 37 -35l27 -11q123 -46 123 -169q0 -86 -68 -135t-149 -49q-73 0 -129 39t-60 121l135 22q1 -23 15 -34t34 -11q19 0 31.5 13t12.5 27q0 18 -13 29t-42 22l-28 11q-118 48 -118 146q0 84 74 136l16 11q24 17 33.5 31.5t9.5 36.5
q0 32 -27 48.5t-62 16.5q-47 0 -76 -35.5t-29 -90.5v-527h-187v537q0 130 82 205t210 75q68 0 130 -22.5t105.5 -73.5t43.5 -120q0 -113 -88 -168z" />
    <glyph glyph-name="agrave" unicode="&#xe0;" horiz-adv-x="599" 
d="M221 623l-171 196h202l112 -196h-143zM283 401q-29 0 -51.5 -16.5t-27.5 -42.5l-159 35q15 85 86.5 127t158.5 42q111 0 181.5 -56.5t70.5 -163.5v-326h-181v62l-2 1q-63 -73 -162 -73q-67 0 -114.5 45t-47.5 112q0 46 23 80.5t61.5 52.5t80.5 26.5t88 8.5h28q38 0 38 33
q0 22 -18.5 37.5t-52.5 15.5zM273 122q36 0 58.5 20t22.5 55v16h-66q-25 0 -44 -11.5t-19 -34.5q0 -19 14.5 -32t33.5 -13z" />
    <glyph glyph-name="aacute" unicode="&#xe1;" horiz-adv-x="599" 
d="M530 819l-171 -196h-143l112 196h202zM283 401q-29 0 -51.5 -16.5t-27.5 -42.5l-159 35q15 85 86.5 127t158.5 42q111 0 181.5 -56.5t70.5 -163.5v-326h-181v62l-2 1q-63 -73 -162 -73q-67 0 -114.5 45t-47.5 112q0 46 23 80.5t61.5 52.5t80.5 26.5t88 8.5h28q38 0 38 33
q0 22 -18.5 37.5t-52.5 15.5zM273 122q36 0 58.5 20t22.5 55v16h-66q-25 0 -44 -11.5t-19 -34.5q0 -19 14.5 -32t33.5 -13z" />
    <glyph glyph-name="acircumflex" unicode="&#xe2;" horiz-adv-x="599" 
d="M506 624h-152l-61 101l-61 -101h-154l127 189h176zM283 401q-29 0 -51.5 -16.5t-27.5 -42.5l-159 35q15 85 86.5 127t158.5 42q111 0 181.5 -56.5t70.5 -163.5v-326h-181v62l-2 1q-63 -73 -162 -73q-67 0 -114.5 45t-47.5 112q0 46 23 80.5t61.5 52.5t80.5 26.5t88 8.5
h28q38 0 38 33q0 22 -18.5 37.5t-52.5 15.5zM273 122q36 0 58.5 20t22.5 55v16h-66q-25 0 -44 -11.5t-19 -34.5q0 -19 14.5 -32t33.5 -13z" />
    <glyph glyph-name="atilde" unicode="&#xe3;" horiz-adv-x="599" 
d="M376 624q-44 0 -98 32q-40 24 -59 22q-14 -1 -22 -11t-9 -18.5t-2 -23.5h-101l-1 29q-2 68 30.5 108t95.5 40q37 0 91 -31q40 -22 60 -22q36 0 38 50h97l1 -29q2 -66 -28 -106t-93 -40zM283 401q-29 0 -51.5 -16.5t-27.5 -42.5l-159 35q15 85 86.5 127t158.5 42
q111 0 181.5 -56.5t70.5 -163.5v-326h-181v62l-2 1q-63 -73 -162 -73q-67 0 -114.5 45t-47.5 112q0 46 23 80.5t61.5 52.5t80.5 26.5t88 8.5h28q38 0 38 33q0 22 -18.5 37.5t-52.5 15.5zM273 122q36 0 58.5 20t22.5 55v16h-66q-25 0 -44 -11.5t-19 -34.5q0 -19 14.5 -32
t33.5 -13z" />
    <glyph glyph-name="adieresis" unicode="&#xe4;" horiz-adv-x="599" 
d="M261 716q0 -43 -28.5 -71.5t-71.5 -28.5t-71 28.5t-28 71.5q0 42 28 70.5t71 28.5t71.5 -28.5t28.5 -70.5zM521 716q0 -43 -28.5 -71.5t-71.5 -28.5t-71 28.5t-28 71.5q0 42 28 70.5t71 28.5t71.5 -28.5t28.5 -70.5zM283 401q-29 0 -51.5 -16.5t-27.5 -42.5l-159 35
q15 85 86.5 127t158.5 42q111 0 181.5 -56.5t70.5 -163.5v-326h-181v62l-2 1q-63 -73 -162 -73q-67 0 -114.5 45t-47.5 112q0 46 23 80.5t61.5 52.5t80.5 26.5t88 8.5h28q38 0 38 33q0 22 -18.5 37.5t-52.5 15.5zM273 122q36 0 58.5 20t22.5 55v16h-66q-25 0 -44 -11.5
t-19 -34.5q0 -19 14.5 -32t33.5 -13z" />
    <glyph glyph-name="aring" unicode="&#xe5;" horiz-adv-x="600" 
d="M542 86q0 -44 5 -86h-181q-5 30 -5 62l-2 1q-63 -73 -161 -73q-68 0 -115.5 45t-47.5 112q0 46 23 80.5t61.5 52.5t80.5 26.5t88 8.5h28q39 0 39 33q0 22 -18.5 37.5t-52.5 15.5q-30 0 -52 -16.5t-28 -42.5l-159 35q18 97 115 142q-21 33 -21 75q0 63 46.5 106.5
t110.5 43.5q66 0 112 -43.5t46 -106.5q0 -44 -23 -78q111 -56 111 -190v-240zM296 651q-24 0 -40.5 -17t-16.5 -40q0 -24 16.5 -41t40.5 -17t41 17t17 41q0 23 -17 40t-41 17zM289 213q-25 0 -44.5 -11.5t-19.5 -34.5q0 -19 14.5 -32t33.5 -13q36 0 58.5 20t22.5 55v16h-65z
" />
    <glyph glyph-name="ae" unicode="&#xe6;" horiz-adv-x="945" 
d="M539 219q5 -36 34.5 -59.5t73.5 -23.5q62 0 94 54l156 -55q-67 -147 -259 -147q-132 0 -211 96q-83 -96 -216 -96h-5q-72 0 -121.5 46t-49.5 113q0 46 23 80.5t61.5 52.5t80.5 26.5t88 8.5h28q38 0 38 33q0 22 -18.5 37.5t-52.5 15.5q-29 0 -51.5 -16.5t-27.5 -42.5
l-159 35q15 85 86.5 127t158.5 42q114 0 180 -56q74 56 169 56q115 0 194 -78t79 -193l-3 -56h-370zM636 401q-35 0 -61.5 -23t-32.5 -53h185q-5 36 -30 56t-61 20zM273 122q36 0 58.5 20t22.5 55v16h-66q-25 0 -44 -11.5t-19 -34.5q0 -19 14.5 -32t33.5 -13z" />
    <glyph glyph-name="ccedilla" unicode="&#xe7;" horiz-adv-x="614" 
d="M407 -101q0 -160 -189 -160q-43 0 -72 9v105q27 -5 52 -5q43 0 64.5 25.5t21.5 69.5q0 27 -9 49q-105 16 -173.5 91t-68.5 184q0 119 87.5 199t207.5 80q92 0 165 -49.5t93 -136.5l-168 -51q-10 30 -34.5 48t-56.5 18q-44 0 -72.5 -31t-28.5 -75q0 -46 27.5 -77t73.5 -31
q32 0 57 18t37 48l168 -51q-20 -74 -73.5 -120.5t-127.5 -61.5q19 -44 19 -95z" />
    <glyph glyph-name="egrave" unicode="&#xe8;" horiz-adv-x="624" 
d="M248 623l-171 196h202l112 -196h-143zM588 219q3 29 3 56q0 115 -78.5 193t-194.5 78q-117 0 -201 -80.5t-84 -197.5q0 -120 84.5 -200t205.5 -80q187 0 254 147l-157 55q-34 -54 -93 -54q-40 0 -71 22.5t-38 60.5h370zM315 401q36 0 61 -20.5t30 -55.5h-185q7 32 34 54
t60 22z" />
    <glyph glyph-name="eacute" unicode="&#xe9;" horiz-adv-x="624" 
d="M547 819l-170 -196h-144l112 196h202zM588 219q3 29 3 56q0 115 -78.5 193t-194.5 78q-117 0 -201 -80.5t-84 -197.5q0 -120 84.5 -200t205.5 -80q187 0 253 147l-156 55q-34 -54 -94 -54q-39 0 -70 22.5t-38 60.5h370zM314 401q37 0 62 -20.5t30 -55.5h-186
q7 32 34.5 54t59.5 22z" />
    <glyph glyph-name="ecircumflex" unicode="&#xea;" horiz-adv-x="624" 
d="M534 624h-152l-61 101l-61 -101h-153l125 189h177zM588 219q3 29 3 56q0 115 -78.5 193t-194.5 78q-117 0 -201 -80.5t-84 -197.5q0 -120 84.5 -200t205.5 -80q187 0 253 147l-156 55q-34 -54 -94 -54q-39 0 -70 22.5t-38 60.5h370zM314 401q37 0 62 -20.5t30 -55.5h-186
q7 32 34.5 54t59.5 22z" />
    <glyph glyph-name="edieresis" unicode="&#xeb;" horiz-adv-x="624" 
d="M288 716q0 -43 -28.5 -71.5t-71.5 -28.5t-71 28.5t-28 71.5q0 42 28 70.5t71 28.5t71.5 -28.5t28.5 -70.5zM548 716q0 -43 -28.5 -71.5t-71.5 -28.5t-71 28.5t-28 71.5q0 42 28 70.5t71 28.5q42 0 71 -28.5t29 -70.5zM588 219q3 19 3 56q0 115 -78.5 193t-193.5 78
q-117 0 -201.5 -80.5t-84.5 -197.5q0 -120 85 -200t205 -80q187 0 254 147l-156 55q-34 -54 -94 -54q-40 0 -70.5 22.5t-37.5 60.5h369zM315 401q36 0 61 -20t30 -56h-185q7 32 34 54t60 22z" />
    <glyph glyph-name="igrave" unicode="&#xec;" horiz-adv-x="318" 
d="M90 623l-172 196h204l111 -196h-143zM255 0v534h-193v-534h193z" />
    <glyph glyph-name="iacute" unicode="&#xed;" horiz-adv-x="319" 
d="M400 819l-171 -196h-145l113 196h203zM256 534v-534h-194v534h194z" />
    <glyph glyph-name="icircumflex" unicode="&#xee;" horiz-adv-x="319" 
d="M374 624h-153l-61 101l-61 -101h-154l127 189h176zM256 0v534h-194v-534h194z" />
    <glyph glyph-name="idieresis" unicode="&#xef;" horiz-adv-x="318" 
d="M131 716q0 -43 -28 -71.5t-71 -28.5t-71 28.5t-28 71.5q0 42 28 70.5t71 28.5q42 0 70.5 -28.5t28.5 -70.5zM386 716q0 -43 -28 -71.5t-71 -28.5t-71.5 28.5t-28.5 71.5q0 42 28.5 70.5t71.5 28.5q42 0 70.5 -28.5t28.5 -70.5zM255 534v-534h-193v534h193z" />
    <glyph glyph-name="eth" unicode="&#xf0;" horiz-adv-x="653" 
d="M498 643q114 -135 114 -331q0 -143 -76 -233.5t-213 -90.5q-123 0 -206.5 74.5t-83.5 190.5q0 76 39.5 134t98 86t123.5 28t118 -32l1 1q-20 77 -70 111l-149 -62l-40 91l94 37q-46 22 -121 44l52 136q141 -34 239 -109l116 48l41 -92zM321 151q49 0 79 32.5t30 74.5
q0 44 -29 76.5t-78 32.5q-47 0 -77 -32.5t-30 -75.5q0 -44 31 -76t74 -32z" />
    <glyph glyph-name="ntilde" unicode="&#xf1;" horiz-adv-x="651" 
d="M413 624q-44 0 -98 32q-40 24 -59 22q-14 -1 -22 -11t-9 -18.5t-2 -23.5h-101l-1 29q-2 68 30.5 108t95.5 40q37 0 91 -31q40 -22 60 -22q36 0 38 50h97l1 -29q2 -66 -28 -106t-93 -40zM404 289q0 34 -20 58t-53 24q-35 0 -56.5 -21.5t-21.5 -60.5v-289h-191v534h190v-67
h2q29 39 70.5 58.5t82.5 19.5q51 0 88.5 -19.5t58 -53t30.5 -70.5t10 -79v-323h-190v289z" />
    <glyph glyph-name="ograve" unicode="&#xf2;" horiz-adv-x="655" 
d="M259 623l-171 196h203l111 -196h-143zM33 267q0 119 88.5 199t208.5 80t206 -78t86 -197q0 -121 -87 -202t-209 -81t-207.5 79.5t-85.5 199.5zM224 268q0 -44 30 -76.5t74 -32.5q43 0 73 32.5t30 76.5t-29.5 76t-73.5 32t-74 -32t-30 -76z" />
    <glyph glyph-name="oacute" unicode="&#xf3;" horiz-adv-x="655" 
d="M568 819l-171 -196h-143l112 196h202zM33 267q0 119 88.5 199t208.5 80t206 -78t86 -197q0 -121 -87 -202t-209 -81t-207.5 79.5t-85.5 199.5zM224 268q0 -44 30 -76.5t74 -32.5q43 0 73 32.5t30 76.5t-29.5 76t-73.5 32t-74 -32t-30 -76z" />
    <glyph glyph-name="ocircumflex" unicode="&#xf4;" horiz-adv-x="655" 
d="M542 624h-152l-62 101l-60 -101h-154l126 189h176zM33 267q0 119 88.5 199t208.5 80t206 -78t86 -197q0 -121 -87 -202t-209 -81t-207.5 79.5t-85.5 199.5zM224 268q0 -44 30 -76.5t74 -32.5q43 0 73 32.5t30 76.5t-29.5 76t-73.5 32t-74 -32t-30 -76z" />
    <glyph glyph-name="otilde" unicode="&#xf5;" horiz-adv-x="655" 
d="M415 624q-44 0 -98 32q-40 24 -59 22q-14 -1 -22 -11t-9 -18.5t-2 -23.5h-101l-1 29q-2 68 30.5 108t95.5 40q37 0 91 -31q40 -22 60 -22q36 0 38 50h97l1 -29q2 -66 -28 -106t-93 -40zM33 267q0 119 88.5 199t208.5 80t206 -78t86 -197q0 -121 -87 -202t-209 -81
t-207.5 79.5t-85.5 199.5zM224 268q0 -44 30 -76.5t74 -32.5q43 0 73 32.5t30 76.5t-29.5 76t-73.5 32t-74 -32t-30 -76z" />
    <glyph glyph-name="odieresis" unicode="&#xf6;" horiz-adv-x="655" 
d="M298 716q0 -43 -28 -71.5t-71 -28.5t-71 28.5t-28 71.5q0 42 28 70.5t71 28.5q42 0 70.5 -28.5t28.5 -70.5zM559 716q0 -43 -29 -71.5t-72 -28.5t-70.5 28.5t-27.5 71.5q0 42 28 70.5t70 28.5q43 0 72 -28.5t29 -70.5zM33 267q0 119 88.5 199t208.5 80t206 -78t86 -197
q0 -121 -87 -202t-209 -81t-207.5 79.5t-85.5 199.5zM224 268q0 -44 30 -76.5t74 -32.5q43 0 73 32.5t30 76.5t-29.5 76t-73.5 32t-74 -32t-30 -76z" />
    <glyph glyph-name="divide" unicode="&#xf7;" horiz-adv-x="603" 
d="M399 608q0 -41 -28.5 -69.5t-68.5 -28.5q-41 0 -70 28.5t-29 69.5t29 70t70 29q40 0 68.5 -29.5t28.5 -69.5zM565 288h-528v158h528v-158zM302 26q-41 0 -70 29t-29 70q0 40 29 69.5t70 29.5t69 -29.5t28 -69.5t-28 -69.5t-69 -29.5z" />
    <glyph glyph-name="oslash" unicode="&#xf8;" horiz-adv-x="656" 
d="M556 449q67 -75 67 -178q0 -121 -87.5 -202t-209.5 -81q-91 0 -165 47l-69 -70l-58 56l65 67q-65 75 -65 180q0 118 88 198t208 80q89 0 164 -47l70 73l58 -54zM224 268q0 -21 8 -42l137 142q-21 8 -41 8q-44 0 -74 -32t-30 -76zM329 159q43 0 73 32.5t30 76.5
q0 23 -9 44l-137 -143q22 -10 43 -10z" />
    <glyph glyph-name="ugrave" unicode="&#xf9;" horiz-adv-x="650" 
d="M253 623l-170 196h202l111 -196h-143zM247 245q0 -35 20 -58.5t53 -23.5q35 0 56.5 21.5t21.5 60.5v289h190v-534h-189v66h-2q-29 -39 -70 -58t-83 -19q-50 0 -87.5 19.5t-58.5 52.5t-31 70.5t-10 78.5v324h190v-289z" />
    <glyph glyph-name="uacute" unicode="&#xfa;" horiz-adv-x="651" 
d="M563 819l-170 -196h-144l112 196h202zM247 245q0 -35 20 -58.5t53 -23.5q35 0 56.5 21.5t21.5 60.5v289h190v-534h-189v66h-2q-29 -39 -70 -58t-83 -19q-50 0 -87.5 19.5t-58.5 52.5t-31 70.5t-10 78.5v324h190v-289z" />
    <glyph glyph-name="ucircumflex" unicode="&#xfb;" horiz-adv-x="650" 
d="M536 624h-152l-61 101l-61 -101h-153l126 189h176zM247 245q0 -35 20 -58.5t53 -23.5q35 0 56.5 21.5t21.5 60.5v289h190v-534h-189v66h-2q-29 -39 -70 -58t-83 -19q-50 0 -87.5 19.5t-58.5 52.5t-31 70.5t-10 78.5v324h190v-289z" />
    <glyph glyph-name="udieresis" unicode="&#xfc;" horiz-adv-x="650" 
d="M292 716q0 -43 -28.5 -71.5t-71.5 -28.5t-71 28.5t-28 71.5q0 42 28.5 70.5t70.5 28.5q43 0 71.5 -28.5t28.5 -70.5zM552 716q0 -43 -28.5 -71.5t-71.5 -28.5t-70.5 28.5t-27.5 71.5q0 42 28 70.5t70 28.5q43 0 71.5 -28.5t28.5 -70.5zM247 245q0 -35 20 -58.5t53 -23.5
q35 0 56.5 21.5t21.5 60.5v289h190v-534h-189v66h-2q-29 -39 -70 -58t-83 -19q-50 0 -87.5 19.5t-58.5 52.5t-31 70.5t-10 78.5v324h190v-289z" />
    <glyph glyph-name="yacute" unicode="&#xfd;" horiz-adv-x="643" 
d="M575 819l-171 -196h-143l112 196h202zM437 534h200l-326 -797h-202l127 315l-233 482h209l122 -273h1z" />
    <glyph glyph-name="thorn" unicode="&#xfe;" horiz-adv-x="691" 
d="M257 484q56 59 151 59q101 0 175 -79.5t74 -191.5q0 -115 -73 -198t-180 -83q-89 0 -147 57l1 -312h-196v1079h195v-331zM464 270q0 44 -31 74.5t-74 30.5q-44 0 -76 -32t-32 -77q0 -44 30.5 -74.5t73.5 -30.5q45 0 77 32t32 77z" />
    <glyph glyph-name="ydieresis" unicode="&#xff;" horiz-adv-x="643" 
d="M294 716q0 -43 -28 -71.5t-71 -28.5t-71 28.5t-28 71.5q0 42 28 70.5t71 28.5q42 0 70.5 -28.5t28.5 -70.5zM555 716q0 -43 -28.5 -71.5t-71.5 -28.5t-71 28.5t-28 71.5q0 42 28 70.5t71 28.5q42 0 71 -28.5t29 -70.5zM437 534h200l-326 -797h-202l127 315l-233 482h209
l122 -273h1z" />
    <glyph glyph-name="Amacron" unicode="&#x100;" horiz-adv-x="808" 
d="M597 868h-386v136h386v-136zM816 0h-209l-54 144h-302l-52 -144h-207l301 783h222zM309 311h188l-95 250z" />
    <glyph glyph-name="amacron" unicode="&#x101;" horiz-adv-x="599" 
d="M483 628h-386v137h386v-137zM283 401q-29 0 -51.5 -16.5t-27.5 -42.5l-159 35q15 85 86.5 127t158.5 42q111 0 181.5 -56.5t70.5 -163.5v-326h-181v62l-2 1q-63 -73 -162 -73q-67 0 -114.5 45t-47.5 112q0 46 23 80.5t61.5 52.5t80.5 26.5t88 8.5h28q38 0 38 33
q0 22 -18.5 37.5t-52.5 15.5zM273 122q36 0 58.5 20t22.5 55v16h-66q-25 0 -44 -11.5t-19 -34.5q0 -19 14.5 -32t33.5 -13z" />
    <glyph glyph-name="Abreve" unicode="&#x102;" horiz-adv-x="808" 
d="M611 1053q-8 -87 -65.5 -140.5t-141.5 -53.5t-141.5 54.5t-64.5 139.5h130q5 -35 24 -55.5t52 -20.5q32 0 52 20.5t25 55.5h130zM816 0h-209l-54 144h-302l-52 -144h-207l301 783h222zM309 311h188l-95 250z" />
    <glyph glyph-name="abreve" unicode="&#x103;" horiz-adv-x="599" 
d="M497 813q-8 -87 -65.5 -140t-141.5 -53t-142 54t-66 139h132q5 -34 24.5 -55t51.5 -21t52.5 20.5t25.5 55.5h129zM283 401q-29 0 -51.5 -16.5t-27.5 -42.5l-159 35q15 85 86.5 127t158.5 42q111 0 181.5 -56.5t70.5 -163.5v-326h-181v62l-2 1q-63 -73 -162 -73
q-67 0 -114.5 45t-47.5 112q0 46 23 80.5t61.5 52.5t80.5 26.5t88 8.5h28q38 0 38 33q0 22 -18.5 37.5t-52.5 15.5zM273 122q36 0 58.5 20t22.5 55v16h-66q-25 0 -44 -11.5t-19 -34.5q0 -19 14.5 -32t33.5 -13z" />
    <glyph glyph-name="Aogonek" unicode="&#x104;" horiz-adv-x="809" 
d="M816 0q-38 -19 -76 -52t-38 -62q0 -21 20 -32.5t43 -11.5q17 0 47 6v-99q-33 -15 -93 -15q-69 0 -117 29t-48 86q0 78 110 151h-57l-53 144h-302l-52 -144h-208l301 783h223zM311 311h188l-95 250z" />
    <glyph glyph-name="aogonek" unicode="&#x105;" horiz-adv-x="600" 
d="M543 0q-38 -19 -76.5 -52t-38.5 -62q0 -21 20.5 -32.5t43.5 -11.5q17 0 47 6v-99q-35 -15 -94 -15q-68 0 -116.5 29t-48.5 86q0 77 111 151h-29v62l-2 1q-63 -73 -162 -73q-68 0 -115.5 45t-47.5 112q0 46 23 80.5t62 52.5t81 26.5t88 8.5h28q38 0 38 33q0 22 -18.5 37.5
t-52.5 15.5q-29 0 -51.5 -16.5t-27.5 -42.5l-160 35q15 85 87 127t159 42q111 0 181.5 -56.5t70.5 -163.5v-326zM275 122q36 0 58.5 20t22.5 55v16h-66q-25 0 -44 -11.5t-19 -34.5q0 -19 14.5 -32t33.5 -13z" />
    <glyph glyph-name="Cacute" unicode="&#x106;" horiz-adv-x="844" 
d="M685 1048l-171 -196h-143l111 196h203zM441 -12q-170 0 -287 116t-117 288q0 169 116.5 286.5t293.5 117.5q84 0 153 -27t112 -70.5t69 -87.5t37 -88l-184 -57q-13 50 -60.5 97.5t-129.5 47.5q-88 0 -146 -63.5t-58 -154.5t56.5 -154.5t147.5 -63.5q81 0 130 45.5
t64 99.5l185 -58q-7 -32 -24 -66t-49.5 -72t-74 -67.5t-103 -49t-131.5 -19.5z" />
    <glyph glyph-name="cacute" unicode="&#x107;" horiz-adv-x="614" 
d="M569 819l-170 -196h-143l111 196h202zM326 -12q-123 0 -208 78.5t-85 200.5q0 119 87.5 199t207.5 80q93 0 166 -49.5t93 -136.5l-168 -51q-10 31 -35 48.5t-57 17.5q-44 0 -72.5 -31t-28.5 -75q0 -46 27.5 -77t74.5 -31q31 0 56.5 18t37.5 48l168 -51
q-25 -89 -97 -138.5t-167 -49.5z" />
    <glyph glyph-name="Ccircumflex" unicode="&#x108;" horiz-adv-x="847" 
d="M666 854h-152l-62 101l-60 -101h-154l126 188h176zM444 -12q70 0 131.5 19.5t103 49t74 67.5t49.5 72.5t24 65.5l-185 58q-15 -54 -64 -99.5t-130 -45.5q-91 0 -147.5 63.5t-56.5 154.5t58 154.5t146 63.5q82 0 129.5 -47.5t60.5 -97.5l184 57q-9 35 -26.5 69.5t-48.5 72
t-71 66t-98.5 47t-126.5 18.5q-178 0 -295.5 -117.5t-117.5 -286.5q0 -172 118.5 -288t288.5 -116z" />
    <glyph glyph-name="ccircumflex" unicode="&#x109;" horiz-adv-x="614" 
d="M540 624h-152l-62 101l-60 -101h-153l125 189h176zM326 -12q95 0 167 49.5t97 138.5l-168 51q-12 -30 -37.5 -48t-56.5 -18q-47 0 -74.5 31t-27.5 77q0 44 28.5 75t72.5 31q32 0 57 -17.5t35 -48.5l168 51q-20 87 -93 136.5t-166 49.5q-120 0 -207.5 -80t-87.5 -199
q0 -122 85 -200.5t208 -78.5z" />
    <glyph glyph-name="Cdotaccent" unicode="&#x10a;" horiz-adv-x="846" 
d="M451 854q-45 0 -78 32.5t-33 77.5q0 46 32.5 78.5t78.5 32.5q47 0 79 -32.5t32 -78.5q0 -45 -32.5 -77.5t-78.5 -32.5zM443 -12q-170 0 -288 116t-118 288q0 169 117 286.5t295 117.5q68 0 126.5 -18.5t98.5 -47t71 -66t48.5 -72t26.5 -69.5l-184 -57q-13 50 -60.5 97.5
t-129.5 47.5q-88 0 -146 -63.5t-58 -154.5t56.5 -154.5t147.5 -63.5q81 0 130 45.5t64 99.5l185 -58q-7 -31 -24 -65.5t-49.5 -72.5t-74 -67.5t-103 -49t-131.5 -19.5z" />
    <glyph glyph-name="cdotaccent" unicode="&#x10b;" horiz-adv-x="615" 
d="M330 605q-46 0 -78.5 32.5t-32.5 77.5q0 46 32.5 78.5t78.5 32.5t78 -32.5t32 -78.5q0 -45 -32 -77.5t-78 -32.5zM327 -12q-124 0 -209 78.5t-85 200.5q0 119 88 199t208 80q92 0 165 -49.5t93 -136.5l-168 -51q-10 30 -34.5 48t-56.5 18q-44 0 -72.5 -31t-28.5 -75
q0 -46 27.5 -77t73.5 -31q32 0 57 18t37 48l168 -51q-24 -89 -96.5 -138.5t-166.5 -49.5z" />
    <glyph glyph-name="Ccaron" unicode="&#x10c;" horiz-adv-x="847" 
d="M238 1043h152l62 -101l60 101h153l-125 -189h-176zM444 -12q70 0 131.5 19.5t103 49t74 67.5t49.5 72.5t24 65.5l-185 58q-15 -54 -64 -99.5t-130 -45.5q-91 0 -147.5 63.5t-56.5 154.5t58 154.5t146 63.5q82 0 129.5 -47.5t60.5 -97.5l184 57q-9 35 -26.5 69.5t-48.5 72
t-71 66t-98.5 47t-126.5 18.5q-178 0 -295.5 -117.5t-117.5 -286.5q0 -172 118.5 -288t288.5 -116z" />
    <glyph glyph-name="ccaron" unicode="&#x10d;" horiz-adv-x="615" 
d="M117 813h152l61 -101l61 101h152l-125 -188h-176zM327 -12q94 0 166.5 49.5t96.5 138.5l-168 51q-12 -30 -37 -48t-57 -18q-46 0 -73.5 31t-27.5 77q0 44 28.5 75t72.5 31q32 0 56.5 -18t34.5 -48l168 51q-20 87 -93 136.5t-165 49.5q-120 0 -208 -80t-88 -199
q0 -122 85 -200.5t209 -78.5z" />
    <glyph glyph-name="Dcaron" unicode="&#x10e;" horiz-adv-x="818" 
d="M125 1043h153l61 -101l60 101h154l-126 -189h-176zM341 0q92 0 171 25.5t138.5 74t94 124.5t34.5 170q0 126 -59.5 215.5t-157 131.5t-221.5 42h-260v-783h260zM345 602q101 0 167.5 -55t66.5 -154q0 -100 -66 -155t-169 -55h-63v419h64z" />
    <glyph glyph-name="dcaron" unicode="&#x10f;" horiz-adv-x="712" 
d="M284 -11q-107 0 -178.5 81.5t-71.5 197.5q0 119 75.5 197.5t178.5 78.5q94 0 148 -71h4v342h190v-815h-189v65h-4q-59 -76 -153 -76zM880 815l-53 -234h-143v234h196zM441 268q0 44 -31 76t-75 32t-75 -32t-31 -76t31 -76t75 -32t75 32t31 76z" />
    <glyph glyph-name="Dcroat" unicode="&#x110;" horiz-adv-x="850" 
d="M373 783q194 0 316 -102t122 -287q0 -79 -24.5 -145.5t-66.5 -111.5t-98.5 -76.5t-120 -46t-131.5 -14.5h-257v311h-92v168h92v304h260zM377 181q104 0 167.5 56.5t63.5 155.5q0 95 -62.5 152t-167.5 57h-69v-123h141v-168h-141v-130h68z" />
    <glyph glyph-name="dcroat" unicode="&#x111;" horiz-adv-x="692" 
d="M437 65q-61 -76 -154 -76q-106 0 -177.5 82t-71.5 197q0 119 75.5 197.5t178.5 78.5q93 0 148 -71h3v135h-151v127h151v79h191v-79h73v-127h-73v-608h-189v65h-4zM335 160q44 0 75 32t31 76t-31 76t-75 32t-75.5 -32t-31.5 -76t31.5 -76t75.5 -32z" />
    <glyph glyph-name="Emacron" unicode="&#x112;" horiz-adv-x="685" 
d="M549 868h-386v136h386v-136zM597 311h-320v-135h354v-176h-550v783h547v-175h-351v-128h320v-169z" />
    <glyph glyph-name="emacron" unicode="&#x113;" horiz-adv-x="624" 
d="M506 628h-386v137h386v-137zM588 219q3 19 3 56q0 115 -78.5 193t-193.5 78q-117 0 -201.5 -80.5t-84.5 -197.5q0 -120 85 -200t205 -80q187 0 254 147l-156 55q-34 -54 -94 -54q-40 0 -70.5 22.5t-37.5 60.5h369zM315 401q36 0 61 -20t30 -56h-185q7 32 34 54t60 22z
" />
    <glyph glyph-name="Edotaccent" unicode="&#x116;" horiz-adv-x="685" 
d="M356 854q-45 0 -78 32.5t-33 77.5q0 46 32.5 78.5t78.5 32.5q47 0 79 -32.5t32 -78.5q0 -45 -32.5 -77.5t-78.5 -32.5zM597 311h-320v-135h354v-176h-550v783h547v-175h-351v-128h320v-169z" />
    <glyph glyph-name="edotaccent" unicode="&#x117;" horiz-adv-x="624" 
d="M318 605q-46 0 -78.5 32.5t-32.5 77.5q0 46 32.5 78.5t78.5 32.5t78.5 -32.5t32.5 -78.5q0 -45 -32.5 -77.5t-78.5 -32.5zM588 219q3 19 3 56q0 115 -78.5 193t-193.5 78q-117 0 -201.5 -80.5t-84.5 -197.5q0 -120 85 -200t205 -80q187 0 254 147l-156 55
q-34 -54 -94 -54q-40 0 -70.5 22.5t-37.5 60.5h369zM315 401q36 0 61 -20t30 -56h-185q7 32 34 54t60 22z" />
    <glyph glyph-name="Eogonek" unicode="&#x118;" horiz-adv-x="685" 
d="M631 0q-38 -19 -76 -52t-38 -62q0 -21 20 -32.5t44 -11.5q15 0 47 6v-99q-35 -15 -94 -15q-69 0 -117 29t-48 86q0 78 110 151h-398v783h547v-175h-351v-128h320v-169h-320v-135h354v-176z" />
    <glyph glyph-name="eogonek" unicode="&#x119;" horiz-adv-x="624" 
d="M302 -114q0 -21 20 -32.5t43 -11.5q17 0 47 6v-99q-33 -15 -94 -15q-68 0 -116.5 29t-48.5 86q0 74 104 147q-98 21 -161 95.5t-63 176.5q0 117 84.5 197.5t201.5 80.5q115 0 193.5 -78t78.5 -193q0 -37 -3 -56h-369q7 -38 37.5 -60.5t70.5 -22.5q60 0 94 54l156 -55
q-46 -101 -162 -135q-33 -10 -73 -47t-40 -67zM315 401q-33 0 -60 -22t-34 -54h185q-5 36 -30 56t-61 20z" />
    <glyph glyph-name="Ecaron" unicode="&#x11a;" horiz-adv-x="685" 
d="M143 1043h152l61 -101l61 101h153l-126 -189h-175zM277 608h351v175h-547v-783h550v176h-354v135h320v169h-320v128z" />
    <glyph glyph-name="ecaron" unicode="&#x11b;" horiz-adv-x="624" 
d="M104 813h152l62 -101l60 101h153l-125 -188h-176zM588 219q3 19 3 56q0 115 -78.5 193t-193.5 78q-117 0 -201.5 -80.5t-84.5 -197.5q0 -120 85 -200t205 -80q187 0 254 147l-156 55q-34 -54 -94 -54q-40 0 -70.5 22.5t-37.5 60.5h369zM315 401q36 0 61 -20t30 -56h-185
q7 32 34 54t60 22z" />
    <glyph glyph-name="Gcircumflex" unicode="&#x11c;" horiz-adv-x="856" 
d="M663 854h-152l-61 101l-61 -101h-153l126 188h176zM617 270q-11 -45 -59.5 -74.5t-107.5 -29.5q-94 0 -153 66t-59 162q0 98 60.5 161t148.5 63q74 0 116.5 -38t52.5 -81l192 51q-12 43 -38.5 83.5t-69 78.5t-108 61t-143.5 23q-170 0 -291 -119.5t-121 -284.5
q0 -174 118 -289t295 -115q166 0 269.5 104.5t103.5 259.5v76h-431v-158h225z" />
    <glyph glyph-name="gcircumflex" unicode="&#x11d;" horiz-adv-x="688" 
d="M543 624h-152l-61 101l-61 -101h-153l126 189h175zM432 80q-59 -76 -147 -76q-111 0 -180.5 76t-69.5 191q0 119 74 194.5t177 75.5q92 0 148 -72h3v65h188v-522q0 -132 -82.5 -205.5t-217.5 -73.5q-124 0 -197 56t-93 136l168 51q19 -80 116 -80q53 0 84.5 27.5
t31.5 84.5v72h-3zM437 273q0 44 -30 73.5t-74 29.5t-74 -30t-30 -74t30 -74.5t74 -30.5t74 31t30 75z" />
    <glyph glyph-name="Gbreve" unicode="&#x11e;" horiz-adv-x="855" 
d="M656 1053q-8 -87 -65.5 -140.5t-141.5 -53.5t-141.5 54t-65.5 140h131q5 -35 24 -55.5t52 -20.5q32 0 52 20.5t25 55.5h130zM616 270q-11 -45 -59.5 -74.5t-107.5 -29.5q-94 0 -153 66t-59 162q0 98 60.5 161t148.5 63q74 0 116.5 -38t52.5 -81l192 51q-12 43 -38.5 83.5
t-69 78.5t-108 61t-143.5 23q-170 0 -290.5 -119.5t-120.5 -284.5q0 -174 117.5 -289t294.5 -115q166 0 269.5 104.5t103.5 259.5v76h-431v-158h225z" />
    <glyph glyph-name="gbreve" unicode="&#x11f;" horiz-adv-x="688" 
d="M536 813q-8 -87 -65.5 -140t-141.5 -53t-141.5 54t-64.5 139h130q5 -34 24.5 -55t51.5 -21t52.5 20.5t25.5 55.5h129zM432 80q-59 -76 -147 -76q-111 0 -180.5 76t-69.5 191q0 119 74 194.5t177 75.5q92 0 148 -72h3v65h188v-522q0 -132 -82.5 -205.5t-217.5 -73.5
q-124 0 -197 56t-93 136l168 51q19 -80 116 -80q53 0 84.5 27.5t31.5 84.5v72h-3zM437 273q0 44 -30 73.5t-74 29.5t-74 -30t-30 -74t30 -74.5t74 -30.5t74 31t30 75z" />
    <glyph glyph-name="Gdotaccent" unicode="&#x120;" horiz-adv-x="854" 
d="M448 854q-46 0 -79 32.5t-33 77.5q0 46 33 78.5t79 32.5t78.5 -32.5t32.5 -78.5q0 -45 -32.5 -77.5t-78.5 -32.5zM820 352q0 -155 -103.5 -259.5t-269.5 -104.5q-176 0 -293 115t-117 289q0 165 120 284.5t290 119.5q78 0 143.5 -23t107.5 -61t68.5 -78.5t38.5 -83.5
l-191 -51q-10 42 -52.5 80.5t-116.5 38.5q-89 0 -149 -63t-60 -161q0 -96 59 -162t152 -66q59 0 107.5 29t59.5 75h-225v158h431v-76z" />
    <glyph glyph-name="gdotaccent" unicode="&#x121;" horiz-adv-x="688" 
d="M330 605q-45 0 -78 32.5t-33 77.5q0 46 32.5 78.5t78.5 32.5q47 0 79 -32.5t32 -78.5q0 -45 -32.5 -77.5t-78.5 -32.5zM432 80q-59 -76 -147 -76q-111 0 -180.5 76t-69.5 191q0 119 74 194.5t177 75.5q92 0 148 -72h3v65h188v-522q0 -132 -82.5 -205.5t-217.5 -73.5
q-124 0 -197 56t-93 136l168 51q19 -80 116 -80q53 0 84.5 27.5t31.5 84.5v72h-3zM437 273q0 44 -30 73.5t-74 29.5t-74 -30t-30 -74t30 -74.5t74 -30.5t74 31t30 75z" />
    <glyph glyph-name="Gcommaaccent" unicode="&#x122;" horiz-adv-x="854" 
d="M820 352q0 -155 -103.5 -259.5t-269.5 -104.5q-176 0 -293 115t-117 289q0 165 120 284.5t290 119.5q78 0 143.5 -23t107.5 -61t68.5 -78.5t38.5 -83.5l-191 -51q-10 42 -52.5 80.5t-116.5 38.5q-89 0 -149 -63t-60 -161q0 -96 59 -162t152 -66q59 0 107.5 29t59.5 75
h-225v158h431v-76zM531 -174q0 -53 -32.5 -103t-88.5 -88l-53 49q64 43 92 101q-17 -7 -34 -7q-33 0 -56 23.5t-23 58.5q0 37 27.5 63t67.5 26q44 0 72 -32.5t28 -83.5v-7z" />
    <glyph glyph-name="gcommaaccent" unicode="&#x123;" horiz-adv-x="688" 
d="M220 738q0 54 32.5 104t87.5 88l54 -49q-65 -44 -93 -102q15 7 35 7q33 0 55.5 -23t22.5 -58q0 -37 -27.5 -63t-67.5 -26q-44 0 -71.5 32t-27.5 84v6zM432 80q-59 -76 -147 -76q-111 0 -180.5 76t-69.5 191q0 119 74 194.5t177 75.5q92 0 148 -72h3v65h188v-522
q0 -132 -82.5 -205.5t-217.5 -73.5q-124 0 -197 56t-93 136l168 51q19 -80 116 -80q53 0 84.5 27.5t31.5 84.5v72h-3zM437 273q0 44 -30 73.5t-74 29.5t-74 -30t-30 -74t30 -74.5t74 -30.5t74 31t30 75z" />
    <glyph glyph-name="Hbar" unicode="&#x126;" horiz-adv-x="894" 
d="M301 0h-197v572h-87v131h87v80h197v-80h291v80h197v-80h88v-131h-88v-572h-197v300h-291v-300zM301 482h291v90h-291v-90z" />
    <glyph glyph-name="hbar" unicode="&#x127;" horiz-adv-x="650" 
d="M406 545q51 0 88.5 -19.5t58 -53t30.5 -70.5t10 -79v-323h-190v290q0 34 -20 57.5t-53 23.5q-35 0 -56.5 -21.5t-21.5 -59.5v-290h-190v608h-73v127h73v79h190v-79h152v-127h-152v-136h2q59 73 152 73z" />
    <glyph glyph-name="Itilde" unicode="&#x128;" horiz-adv-x="359" 
d="M264 854q-44 0 -98 32q-40 24 -59 22q-14 -1 -22 -11t-9 -18.5t-2 -23.5h-101l-1 29q-2 68 30.5 108t95.5 40q37 0 91 -31q40 -22 60 -22q36 0 38 50h97l1 -29q2 -66 -28 -106t-93 -40zM277 0h-198v783h198v-783z" />
    <glyph glyph-name="itilde" unicode="&#x129;" horiz-adv-x="316" 
d="M242 624q-44 0 -98 32q-40 24 -59 22q-14 -1 -22 -11t-9 -18.5t-2 -23.5h-101l-1 29q-2 68 30.5 108t95.5 40q37 0 91 -31q40 -22 60 -22q36 0 38 50h97l1 -29q2 -66 -28 -106t-93 -40zM253 534v-534h-192v534h192z" />
    <glyph glyph-name="Imacron" unicode="&#x12a;" horiz-adv-x="360" 
d="M358 868h-357v136h357v-136zM279 0h-198v783h198v-783z" />
    <glyph glyph-name="imacron" unicode="&#x12b;" horiz-adv-x="316" 
d="M329 628h-342v137h342v-137zM254 534v-534h-192v534h192z" />
    <glyph glyph-name="Ibreve" unicode="&#x12c;" horiz-adv-x="360" 
d="M386 1053q-7 -87 -64.5 -140.5t-141.5 -53.5t-141.5 54.5t-64.5 139.5h130q5 -35 24 -55.5t52 -20.5q32 0 52 20.5t25 55.5h129zM81 0h198v783h-198v-783z" />
    <glyph glyph-name="ibreve" unicode="&#x12d;" horiz-adv-x="317" 
d="M366 813q-8 -87 -65.5 -140t-141.5 -53t-142 54t-65 139h131q5 -35 24 -55.5t52 -20.5q32 0 52 20.5t25 55.5h130zM255 0v534h-193v-534h193z" />
    <glyph glyph-name="Iogonek" unicode="&#x12e;" horiz-adv-x="359" 
d="M279 0q-38 -20 -76.5 -52.5t-38.5 -61.5q0 -21 20.5 -32.5t43.5 -11.5q16 0 48 6v-99q-54 -15 -106 -15q-59 0 -106.5 29.5t-47.5 85.5q0 76 110 151h-45v783h198v-783z" />
    <glyph glyph-name="iogonek" unicode="&#x12f;" horiz-adv-x="316" 
d="M158 605q-45 0 -78 32.5t-33 77.5q0 46 32.5 78.5t78.5 32.5q47 0 79 -32.5t32 -78.5q0 -45 -32.5 -77.5t-78.5 -32.5zM254 0q-38 -19 -76 -52t-38 -62q0 -21 20 -32.5t43 -11.5q17 0 47 6v-99q-35 -15 -94 -15q-68 0 -116.5 29t-48.5 86q0 77 111 151h-40v534h192v-534z
" />
    <glyph glyph-name="Idotaccent" unicode="&#x130;" horiz-adv-x="360" 
d="M180 854q-45 0 -78 32.5t-33 77.5q0 46 32.5 78.5t78.5 32.5q47 0 79 -32.5t32 -78.5q0 -45 -32.5 -77.5t-78.5 -32.5zM279 0h-198v783h198v-783z" />
    <glyph glyph-name="dotlessi" unicode="&#x131;" horiz-adv-x="316" 
d="M254 534v-534h-192v534h192z" />
    <glyph glyph-name="IJ" unicode="&#x132;" horiz-adv-x="707" 
d="M356 -11q-125 0 -204 71.5t-79 196.5v36h199v-30q0 -47 23 -68.5t60 -21.5q36 0 57.5 24t21.5 63v523h199v-521q0 -126 -77 -199.5t-200 -73.5zM73 395v388h199v-388h-199z" />
    <glyph glyph-name="Kcommaaccent" unicode="&#x136;" horiz-adv-x="764" 
d="M521 783h232l-269 -372l288 -411h-245l-248 371v-371h-198v783h198v-336zM483 -174q0 -53 -32.5 -103t-88.5 -88l-53 49q64 43 92 101q-18 -7 -34 -7q-33 0 -56 23.5t-23 58.5q0 37 27.5 63t67.5 26q44 0 72 -32.5t28 -83.5v-7z" />
    <glyph glyph-name="kcommaaccent" unicode="&#x137;" horiz-adv-x="640" 
d="M252 312l161 222h220l-180 -248l186 -286h-222l-161 260h-4v-260h-190v815h190v-503zM423 -174q0 -53 -32.5 -103t-88.5 -88l-53 49q64 43 92 101q-18 -7 -34 -7q-33 0 -56 23.5t-23 58.5q0 37 27.5 63t67.5 26q44 0 72 -32.5t28 -83.5v-7z" />
    <glyph glyph-name="Lacute" unicode="&#x139;" horiz-adv-x="622" 
d="M429 1048l-170 -196h-143l111 196h202zM81 0v783h198v-603h329v-180h-527z" />
    <glyph glyph-name="lacute" unicode="&#x13a;" horiz-adv-x="317" 
d="M399 1079l-170 -197h-144l112 197h202zM255 0h-193v815h193v-815z" />
    <glyph glyph-name="Lcommaaccent" unicode="&#x13b;" horiz-adv-x="621" 
d="M81 0v783h197v-603h329v-180h-526zM441 -174q0 -53 -32.5 -103t-88.5 -88l-53 49q64 43 92 101q-17 -7 -34 -7q-33 0 -56 23.5t-23 58.5q0 37 27.5 63t67.5 26q44 0 72 -32.5t28 -83.5v-7z" />
    <glyph glyph-name="lcommaaccent" unicode="&#x13c;" horiz-adv-x="317" 
d="M254 0h-192v815h192v-815zM255 -174q0 -53 -32.5 -103t-88.5 -88l-53 49q64 43 92 101q-18 -7 -34 -7q-33 0 -56 23.5t-23 58.5q0 37 27.5 63t67.5 26q44 0 72 -32.5t28 -83.5v-7z" />
    <glyph glyph-name="Lcaron" unicode="&#x13d;" horiz-adv-x="633" 
d="M607 805l-53 -234h-143v234h196zM81 0v783h197v-603h329v-180h-526z" />
    <glyph glyph-name="lcaron" unicode="&#x13e;" horiz-adv-x="336" 
d="M254 0h-192v815h192v-815zM505 815l-54 -234h-142v234h196z" />
    <glyph glyph-name="Ldot" unicode="&#x13f;" horiz-adv-x="630" 
d="M81 0v783h197v-603h329v-180h-526zM496 296q-46 0 -78.5 32.5t-32.5 77.5q0 46 32.5 78.5t78.5 32.5t78 -32.5t32 -78.5q0 -45 -32 -77.5t-78 -32.5z" />
    <glyph glyph-name="ldot" unicode="&#x140;" horiz-adv-x="501" 
d="M254 0h-192v815h192v-815zM409 204q-45 0 -78 32t-33 77q0 46 32.5 78.5t78.5 32.5q47 0 79 -32.5t32 -78.5q0 -45 -32.5 -77t-78.5 -32z" />
    <glyph glyph-name="Lslash" unicode="&#x141;" horiz-adv-x="679" 
d="M336 783v-253l205 92v-175l-205 -92v-175h330v-180h-527v267l-103 -47v175l103 46v342h197z" />
    <glyph glyph-name="lslash" unicode="&#x142;" horiz-adv-x="464" 
d="M433 371l-102 -50v-321h-192v226l-102 -51v174l102 49v417h192v-322l102 51v-173z" />
    <glyph glyph-name="Nacute" unicode="&#x143;" horiz-adv-x="865" 
d="M687 1048l-170 -196h-143l111 196h202zM278 472h-1v-472h-196v783h218l288 -441h1v441h196v-783h-199z" />
    <glyph glyph-name="nacute" unicode="&#x144;" horiz-adv-x="651" 
d="M561 821l-171 -196h-143l112 196h202zM404 289q0 34 -20 58t-53 24q-35 0 -56.5 -21.5t-21.5 -60.5v-289h-191v534h190v-67h1q29 39 70.5 58.5t83.5 19.5q96 0 141.5 -66t45.5 -156v-323h-190v289z" />
    <glyph glyph-name="Ncommaaccent" unicode="&#x145;" horiz-adv-x="864" 
d="M278 472h-1v-472h-196v783h218l288 -441h1v441h196v-783h-199zM529 -174q0 -53 -32.5 -103t-88.5 -88l-53 49q64 43 92 101q-17 -7 -34 -7q-33 0 -56 23.5t-23 58.5q0 37 27.5 63t67.5 26q44 0 72 -32.5t28 -83.5v-7z" />
    <glyph glyph-name="ncommaaccent" unicode="&#x146;" horiz-adv-x="650" 
d="M403 289q0 34 -20 58t-53 24q-35 0 -56.5 -21.5t-21.5 -60.5v-289h-190v534h189v-67h2q29 39 70.5 58.5t82.5 19.5q51 0 88.5 -19.5t58 -53t30.5 -70.5t10 -79v-323h-190v289zM425 -174q0 -53 -32.5 -103t-88.5 -88l-53 49q64 43 92 101q-17 -7 -34 -7q-33 0 -56 23.5
t-23 58.5q0 37 27.5 63t67.5 26q44 0 72 -32.5t28 -83.5v-7z" />
    <glyph glyph-name="Ncaron" unicode="&#x147;" horiz-adv-x="865" 
d="M249 1043h151l62 -101l60 101h153l-125 -189h-176zM278 472h-1v-472h-196v783h218l288 -441h1v441h196v-783h-199z" />
    <glyph glyph-name="ncaron" unicode="&#x148;" horiz-adv-x="651" 
d="M115 813h152l61 -101l61 101h153l-126 -188h-176zM594 323q0 90 -45.5 156t-141.5 66q-42 0 -83.5 -19.5t-70.5 -58.5h-1v67h-190v-534h191v289q0 39 21.5 60.5t56.5 21.5q33 0 53 -24t20 -58v-289h190v323z" />
    <glyph glyph-name="Eng" unicode="&#x14a;" horiz-adv-x="864" 
d="M277 477v-477h-196v783h221l285 -436h1v436h196v-844q0 -97 -56.5 -149.5t-151.5 -52.5q-61 0 -101 15v147q5 0 22.5 -1.5t27.5 -1.5q69 0 69 63v40l-316 478h-1z" />
    <glyph glyph-name="eng" unicode="&#x14b;" horiz-adv-x="650" 
d="M593 -62q0 -96 -56.5 -148.5t-150.5 -52.5q-62 0 -101 15v147q4 0 21 -1.5t28 -1.5q69 0 69 63v330q0 34 -20 58t-53 24q-35 0 -56.5 -21.5t-21.5 -60.5v-289h-190v534h189v-67h2q29 39 70.5 58.5t82.5 19.5q51 0 88.5 -19.5t58 -53t30.5 -70.5t10 -79v-385z" />
    <glyph glyph-name="Omacron" unicode="&#x14c;" horiz-adv-x="893" 
d="M640 868h-386v136h386v-136zM37 392q0 169 120.5 286.5t290.5 117.5t288.5 -115.5t118.5 -285.5t-119.5 -288.5t-289.5 -118.5t-289.5 117t-119.5 287zM239 393q0 -89 60 -154.5t148 -65.5t147.5 65.5t59.5 154.5t-59.5 154t-147.5 65t-148 -65t-60 -154z" />
    <glyph glyph-name="omacron" unicode="&#x14d;" horiz-adv-x="655" 
d="M521 628h-386v137h386v-137zM33 267q0 119 88.5 199t208.5 80t206 -78t86 -197q0 -121 -87 -202t-209 -81t-207.5 79.5t-85.5 199.5zM224 268q0 -44 30 -76.5t74 -32.5q43 0 73 32.5t30 76.5t-29.5 76t-73.5 32t-74 -32t-30 -76z" />
    <glyph glyph-name="Ohungarumlaut" unicode="&#x150;" horiz-adv-x="892" 
d="M557 1048l-166 -196h-138l112 196h192zM797 1048l-166 -196h-138l111 196h193zM37 392q0 169 120.5 286.5t290.5 117.5t288.5 -116t118.5 -285q0 -170 -119.5 -288.5t-289.5 -118.5t-289.5 117t-119.5 287zM238 393q0 -89 60 -154.5t148 -65.5t148 65.5t60 154.5t-60 154
t-148 65t-148 -65t-60 -154z" />
    <glyph glyph-name="ohungarumlaut" unicode="&#x151;" horiz-adv-x="655" 
d="M439 819l-166 -196h-138l112 196h192zM679 819l-166 -196h-138l112 196h192zM33 267q0 119 88.5 199t208.5 80t206 -78t86 -197q0 -121 -87 -202t-209 -81t-207.5 79.5t-85.5 199.5zM224 268q0 -44 30 -76.5t74 -32.5q43 0 73 32.5t30 76.5t-29.5 76t-73.5 32t-74 -32
t-30 -76z" />
    <glyph glyph-name="OE" unicode="&#x152;" horiz-adv-x="1258" 
d="M651 69q-93 -81 -213 -81q-169 0 -285 116.5t-116 287.5q0 111 56.5 204.5t149.5 146.5t199 53q117 0 210 -79h2v66h548v-175h-354v-128h322v-169h-322v-135h357v-176h-551v69h-3zM238 393q0 -89 61 -154.5t149 -65.5q89 0 149.5 66t60.5 156q0 88 -60.5 152.5
t-149.5 64.5t-149.5 -65t-60.5 -154z" />
    <glyph glyph-name="oe" unicode="&#x153;" horiz-adv-x="1020" 
d="M613 219q6 -35 35.5 -59t72.5 -24q63 0 95 54l156 -55q-21 -48 -55.5 -80t-73.5 -45t-66.5 -17.5t-54.5 -4.5q-120 0 -201 79q-86 -79 -197 -79q-120 0 -205.5 80.5t-85.5 201.5q0 118 86.5 197t204.5 79q111 0 197 -79q79 79 197 79q112 0 190.5 -78t78.5 -193
q0 -27 -3 -56h-371zM709 401q-35 0 -61 -22.5t-33 -53.5h188q-5 36 -31.5 56t-62.5 20zM224 268q0 -45 29 -77t72 -32t72 32.5t29 76.5t-29 76t-73 32q-43 0 -71.5 -31.5t-28.5 -76.5z" />
    <glyph glyph-name="Racute" unicode="&#x154;" horiz-adv-x="742" 
d="M575 1048l-171 -196h-143l112 196h202zM402 783q134 0 213.5 -64t79.5 -188q0 -163 -144 -222l162 -309h-210l-144 275h-81v-275h-197v783h321zM387 443q53 0 81.5 21t28.5 60q0 40 -26.5 64.5t-84.5 24.5h-108v-170h109z" />
    <glyph glyph-name="racute" unicode="&#x155;" horiz-adv-x="458" 
d="M456 819l-171 -196h-143l111 196h203zM437 351q-20 4 -46 4q-137 0 -137 -135v-220h-192v534h190v-77h1q28 47 70.5 64.5t79.5 17.5q18 0 35 -4z" />
    <glyph glyph-name="Rcommaaccent" unicode="&#x156;" horiz-adv-x="742" 
d="M402 783q134 0 213.5 -64t79.5 -188q0 -163 -144 -222l162 -309h-210l-144 275h-81v-275h-197v783h321zM387 443q53 0 81.5 21t28.5 60q0 40 -26.5 64.5t-84.5 24.5h-108v-170h109zM470 -174q0 -53 -32.5 -103t-88.5 -88l-53 49q64 43 92 101q-17 -7 -34 -7
q-33 0 -56 23.5t-23 58.5q0 37 27.5 63t67.5 26q44 0 72 -32.5t28 -83.5v-7z" />
    <glyph glyph-name="rcommaaccent" unicode="&#x157;" horiz-adv-x="457" 
d="M437 351q-21 4 -47 4q-137 0 -137 -135v-220h-191v534h189v-77h1q28 47 70.5 64.5t79.5 17.5q18 0 35 -4v-184zM265 -174q0 -53 -32.5 -103t-88.5 -88l-53 49q64 43 92 101q-18 -7 -34 -7q-33 0 -56 23.5t-23 58.5q0 37 27.5 63t67.5 26q44 0 72 -32.5t28 -83.5v-7z" />
    <glyph glyph-name="Rcaron" unicode="&#x158;" horiz-adv-x="742" 
d="M143 1043h151l62 -101l61 101h152l-125 -189h-176zM402 783q134 0 213.5 -64t79.5 -188q0 -163 -144 -222l162 -309h-210l-144 275h-81v-275h-197v783h321zM387 443q53 0 81.5 21t28.5 60q0 40 -26.5 64.5t-84.5 24.5h-108v-170h109z" />
    <glyph glyph-name="rcaron" unicode="&#x159;" horiz-adv-x="458" 
d="M36 813h153l62 -101l61 101h152l-125 -188h-176zM438 535q-17 4 -35 4q-37 0 -79.5 -17.5t-70.5 -64.5h-1v77h-190v-534h192v220q0 135 137 135q26 0 46 -4z" />
    <glyph glyph-name="Sacute" unicode="&#x15a;" horiz-adv-x="695" 
d="M582 1048l-171 -196h-143l111 196h203zM357 -11q-142 0 -224.5 67.5t-103.5 183.5l178 42q8 -66 50 -96.5t101 -30.5q49 0 73 23t24 51q0 50 -67 63l-108 21q-100 19 -160 79t-60 151q0 109 85 181t203 72q70 0 126 -20.5t89.5 -54.5t52 -72t24.5 -79l-173 -49
q-7 50 -38 80t-82 30q-42 0 -66.5 -23t-24.5 -49q0 -53 58 -65l113 -21q109 -21 168 -84t59 -151q0 -101 -81 -175t-216 -74z" />
    <glyph glyph-name="sacute" unicode="&#x15b;" horiz-adv-x="535" 
d="M501 819l-170 -196h-143l111 196h202zM498 171q0 -75 -61 -129t-172 -54q-61 0 -107 15.5t-71 40.5t-38 49t-17 49l152 40q4 -29 24.5 -44t51.5 -15q29 0 42 12t13 25q0 30 -73 39q-197 30 -197 166q0 76 64 128.5t156 52.5q100 0 157.5 -43.5t64.5 -98.5l-153 -38
q-10 47 -63 47q-25 0 -37 -11t-12 -23q0 -28 64 -34q40 -5 74.5 -16t67 -30.5t51.5 -52.5t19 -75z" />
    <glyph glyph-name="Scircumflex" unicode="&#x15c;" horiz-adv-x="695" 
d="M565 854h-152l-61 101l-61 -101h-153l126 188h175zM357 -11q135 0 216 74t81 175q0 88 -59 151t-168 84l-113 21q-58 12 -58 65q0 26 24.5 49t66.5 23q51 0 82 -30t38 -80l173 49q-6 41 -24.5 79t-52 72t-89.5 54.5t-126 20.5q-118 0 -203 -72t-85 -181q0 -91 60 -151
t160 -79l108 -21q67 -13 67 -63q0 -28 -24 -51t-73 -23q-59 0 -101 30.5t-50 96.5l-178 -42q21 -116 103.5 -183.5t224.5 -67.5z" />
    <glyph glyph-name="scircumflex" unicode="&#x15d;" horiz-adv-x="535" 
d="M484 624h-152l-61 101l-61 -101h-154l127 189h175zM498 171q0 -75 -61 -129t-172 -54q-61 0 -107 15.5t-71 40.5t-38 49t-17 49l152 40q4 -29 24.5 -44t51.5 -15q29 0 42 12t13 25q0 30 -73 39q-197 30 -197 166q0 76 64 128.5t156 52.5q100 0 157.5 -43.5t64.5 -98.5
l-153 -38q-10 47 -63 47q-25 0 -37 -11t-12 -23q0 -28 64 -34q40 -5 74.5 -16t67 -30.5t51.5 -52.5t19 -75z" />
    <glyph glyph-name="Scedilla" unicode="&#x15e;" horiz-adv-x="694" 
d="M654 238q0 -86 -61 -155t-165 -88q19 -41 19 -96q0 -77 -46.5 -121t-142.5 -44q-43 0 -75 12v106l38 -3q95 -9 95 91q0 21 -6 51q-121 11 -191.5 77t-89.5 172l177 42q9 -66 51 -96.5t101 -30.5q49 0 73 23t24 51q0 50 -67 63l-108 21q-100 19 -160 79t-60 151
q0 109 85 181t203 72q70 0 125.5 -20.5t89 -54.5t52.5 -72t25 -79l-174 -49q-7 50 -37.5 80t-81.5 30q-43 0 -67 -22.5t-24 -49.5q0 -54 58 -65l112 -21q109 -21 168.5 -84t59.5 -151z" />
    <glyph glyph-name="scedilla" unicode="&#x15f;" horiz-adv-x="533" 
d="M232 -60q0 17 -5 50q-95 9 -140.5 54.5t-54.5 97.5l152 40q4 -29 24.5 -44t51.5 -15q29 0 42 12t13 25q0 30 -73 39q-197 30 -197 166q0 76 64 128.5t156 52.5q100 0 157.5 -43.5t64.5 -98.5l-153 -38q-10 47 -63 47q-25 0 -37 -11t-12 -23q0 -28 64 -34q40 -5 74.5 -16
t67 -30.5t51.5 -52.5t19 -75q0 -60 -40 -108.5t-114 -66.5q19 -41 19 -97q0 -77 -46.5 -121t-142.5 -44q-43 0 -75 12v106l38 -3q49 -4 72 18.5t23 72.5z" />
    <glyph glyph-name="Scaron" unicode="&#x160;" horiz-adv-x="695" 
d="M138 1047h152l62 -101l60 101h153l-126 -189h-175zM357 -11q135 0 216 74t81 175q0 88 -59 151t-168 84l-113 21q-58 12 -58 65q0 26 24.5 49t66.5 23q51 0 82 -30t38 -80l173 49q-6 41 -24.5 79t-52 72t-89.5 54.5t-126 20.5q-118 0 -203 -72t-85 -181q0 -91 60 -151
t160 -79l108 -21q67 -13 67 -63q0 -28 -24 -51t-73 -23q-59 0 -101 30.5t-50 96.5l-178 -42q20 -116 103 -183.5t225 -67.5z" />
    <glyph glyph-name="scaron" unicode="&#x161;" horiz-adv-x="534" 
d="M51 813h152l62 -101l60 101h153l-125 -188h-176zM498 171q0 -75 -61 -129t-172 -54q-61 0 -107 15.5t-71 40.5t-38 49t-17 49l152 40q4 -29 24.5 -44t51.5 -15q29 0 42 12t13 25q0 30 -73 39q-197 30 -197 166q0 76 64 128.5t156 52.5q100 0 157.5 -43.5t64.5 -98.5
l-153 -38q-10 47 -63 47q-25 0 -37 -11t-12 -23q0 -28 64 -34q40 -5 74.5 -16t67 -30.5t51.5 -52.5t19 -75z" />
    <glyph glyph-name="uni0162" unicode="&#x162;" horiz-adv-x="676" 
d="M437 0q21 -39 21 -101q0 -77 -46.5 -121t-141.5 -44q-44 0 -76 12v106l38 -3q95 -9 95 91q0 31 -8 60h-79v604h-222v179h640v-179h-221v-604z" />
    <glyph glyph-name="uni0163" unicode="&#x163;" horiz-adv-x="477" 
d="M312 213q0 -62 69 -62q23 0 50 3v-148q-38 -13 -89 -15q17 -40 17 -92q0 -77 -46.5 -121t-142.5 -44q-44 0 -75 12v106l37 -3q96 -9 96 91q0 44 -13 77h1q-94 50 -94 176v182h-104v159h109v173h185v-173h124v-159h-124v-162z" />
    <glyph glyph-name="Tcaron" unicode="&#x164;" horiz-adv-x="677" 
d="M125 1043h152l61 -101l61 101h153l-126 -189h-176zM437 604h222v179h-641v-179h222v-604h197v604z" />
    <glyph glyph-name="tcaron" unicode="&#x165;" horiz-adv-x="472" 
d="M560 820l-54 -234h-142v234h196zM427 6q-44 -15 -101 -15q-95 0 -151.5 52.5t-56.5 149.5v183h-100v158h105v173h185v-173h124v-158h-124v-163q0 -62 69 -62q21 0 50 3v-148z" />
    <glyph glyph-name="Tbar" unicode="&#x166;" horiz-adv-x="691" 
d="M247 396v208h-222v179h641v-179h-222v-208h118v-134h-118v-262h-197v262h-117v134h117z" />
    <glyph glyph-name="tbar" unicode="&#x167;" horiz-adv-x="475" 
d="M121 316v61h-100v157h104v173h186v-173h124v-157h-124v-61h94v-104h-94q1 -61 69 -61q22 0 50 3v-148q-44 -15 -101 -15q-95 0 -151.5 52.5t-56.5 149.5v19h-96v104h96z" />
    <glyph glyph-name="Utilde" unicode="&#x168;" horiz-adv-x="799" 
d="M484 853q-44 0 -98 32q-40 24 -59 22q-14 -1 -22 -11t-9 -18.5t-2 -23.5h-101l-1 29q-2 68 30.5 108t95.5 40q37 0 91 -31q40 -22 60 -22q36 0 38 50h97l1 -29q2 -66 -28 -106t-93 -40zM726 312q0 -153 -82.5 -238t-246.5 -85t-244 86.5t-80 233.5v474h199v-471
q0 -62 32 -100.5t95 -38.5q68 0 98 38.5t30 96.5v475h199v-471z" />
    <glyph glyph-name="utilde" unicode="&#x169;" horiz-adv-x="652" 
d="M408 624q-44 0 -98 32q-40 24 -59 22q-14 -1 -22 -11t-9 -18.5t-2 -23.5h-101l-1 29q-2 68 30.5 108t95.5 40q37 0 91 -31q40 -22 60 -22q36 0 38 50h97l1 -29q2 -66 -28 -106t-93 -40zM249 245q0 -35 20 -58.5t53 -23.5q35 0 56.5 21.5t21.5 60.5v289h190v-534h-189v66
h-2q-29 -39 -70 -58t-83 -19q-67 0 -111.5 35t-61 82.5t-16.5 103.5v324h192v-289z" />
    <glyph glyph-name="Umacron" unicode="&#x16a;" horiz-adv-x="799" 
d="M592 868h-385v136h385v-136zM726 312q0 -153 -82.5 -238t-246.5 -85t-244 86.5t-80 233.5v474h199v-471q0 -62 32 -100.5t95 -38.5q68 0 98 38.5t30 96.5v475h199v-471z" />
    <glyph glyph-name="umacron" unicode="&#x16b;" horiz-adv-x="651" 
d="M516 628h-386v137h386v-137zM247 245q0 -35 20 -58.5t53 -23.5q35 0 56.5 21.5t21.5 60.5v289h190v-534h-189v66h-2q-29 -39 -70 -58t-83 -19q-50 0 -87.5 19.5t-58.5 52.5t-31 70.5t-10 78.5v324h190v-289z" />
    <glyph glyph-name="Uring" unicode="&#x16e;" horiz-adv-x="800" 
d="M399 847q-64 0 -110.5 44t-46.5 107q0 62 46.5 106t110.5 44q66 0 112.5 -43.5t46.5 -106.5t-46.5 -107t-112.5 -44zM343 998q0 -24 16.5 -41t40.5 -17t41 17t17 41q0 23 -17 40t-41 17t-40.5 -17t-16.5 -40zM727 312q0 -153 -82.5 -238t-246.5 -85t-244.5 87t-80.5 233
v474h200v-471q0 -62 32 -100.5t95 -38.5q68 0 98 38.5t30 96.5v475h199v-471z" />
    <glyph glyph-name="uring" unicode="&#x16f;" horiz-adv-x="652" 
d="M323 608q-64 0 -110.5 44t-46.5 107t46.5 106.5t110.5 43.5q66 0 112 -43.5t46 -106.5t-46 -107t-112 -44zM266 758q0 -23 17 -40t40 -17q24 0 41 17t17 40q0 24 -17 41t-41 17q-23 0 -40 -17t-17 -41zM247 245q0 -35 20 -58.5t53 -23.5q35 0 56.5 21.5t21.5 60.5v289
h190v-534h-189v66h-2q-29 -39 -70 -58t-83 -19q-50 0 -87.5 19.5t-58.5 52.5t-31 70.5t-10 78.5v324h190v-289z" />
    <glyph glyph-name="Uhungarumlaut" unicode="&#x170;" horiz-adv-x="800" 
d="M516 1048l-166 -196h-139l112 196h193zM755 1048l-166 -196h-138l112 196h192zM727 312q0 -153 -82.5 -238t-246.5 -85t-244.5 87t-80.5 233v474h200v-471q0 -62 32 -100.5t95 -38.5q68 0 98 38.5t30 96.5v475h199v-471z" />
    <glyph glyph-name="uhungarumlaut" unicode="&#x171;" horiz-adv-x="652" 
d="M440 819l-166 -196h-138l112 196h192zM680 819l-166 -196h-139l112 196h193zM247 245q0 -35 20 -58.5t53 -23.5q35 0 56.5 21.5t21.5 60.5v289h190v-534h-189v66h-2q-29 -39 -70 -58t-83 -19q-50 0 -87.5 19.5t-58.5 52.5t-31 70.5t-10 78.5v324h190v-289z" />
    <glyph glyph-name="Uogonek" unicode="&#x172;" horiz-adv-x="799" 
d="M449 -114q0 -21 20.5 -32.5t43.5 -11.5q15 0 47 6v-99q-35 -15 -94 -15q-69 0 -117 29t-48 86q0 71 87 140q-80 1 -142.5 28.5t-99 72t-55 96.5t-18.5 109v488h199v-481q0 -59 33 -92.5t91 -33.5q63 0 97 36.5t34 90.5l-1 480h200v-489q0 -153 -115 -239l-16 -12
q-77 -58 -111.5 -92.5t-34.5 -64.5z" />
    <glyph glyph-name="uogonek" unicode="&#x173;" horiz-adv-x="651" 
d="M247 245q0 -35 20 -58.5t53 -23.5q35 0 56.5 21.5t21.5 60.5v289h190v-534q-38 -19 -76.5 -52t-38.5 -62q0 -21 20.5 -32.5t43.5 -11.5q15 0 47 6v-99q-35 -15 -94 -15q-68 0 -116.5 29t-48.5 86q0 79 111 151h-37v66h-2q-29 -39 -70 -58t-83 -19q-50 0 -87.5 19.5
t-58.5 52.5t-31 70.5t-10 78.5v324h190v-289z" />
    <glyph glyph-name="Wcircumflex" unicode="&#x174;" horiz-adv-x="1197" 
d="M811 852h-152l-61 101l-61 -101h-152l125 189h176zM353 288l151 495h190l155 -496h2l135 496h200l-231 -783h-199l-157 530h-1l-161 -530h-195l-230 783h206l132 -495h3z" />
    <glyph glyph-name="wcircumflex" unicode="&#x175;" horiz-adv-x="911" 
d="M670 624h-152l-61 101l-61 -101h-153l126 189h175zM533 534l96 -289h1l88 289h182l-172 -534h-181l-91 286h-2l-94 -286h-179l-169 534h189l83 -287h1l93 287h155z" />
    <glyph glyph-name="Ycircumflex" unicode="&#x176;" horiz-adv-x="768" 
d="M600 852h-153l-61 101l-61 -101h-152l125 189h176zM545 783h218l-280 -481v-302h-198v302l-279 481h223l157 -281z" />
    <glyph glyph-name="ycircumflex" unicode="&#x177;" horiz-adv-x="643" 
d="M544 624h-152l-61 101l-61 -101h-153l126 189h175zM437 534h200l-326 -797h-202l127 315l-233 482h209l122 -273h1z" />
    <glyph glyph-name="Ydieresis" unicode="&#x178;" horiz-adv-x="768" 
d="M331 965q0 -43 -28.5 -71.5t-71.5 -28.5t-71 28.5t-28 71.5q0 42 28 70.5t71 28.5t71.5 -28.5t28.5 -70.5zM620 965q0 -43 -28 -71.5t-71 -28.5t-71.5 28.5t-28.5 71.5q0 42 28.5 70.5t71.5 28.5q42 0 70.5 -28.5t28.5 -70.5zM545 783h218l-280 -481v-302h-198v302
l-279 481h223l157 -281z" />
    <glyph glyph-name="Zacute" unicode="&#x179;" horiz-adv-x="703" 
d="M602 1048l-170 -196h-143l111 196h202zM655 783v-165l-362 -442h363v-176h-617v167l361 442h-344v174h599z" />
    <glyph glyph-name="zacute" unicode="&#x17a;" horiz-adv-x="561" 
d="M519 819l-170 -196h-143l111 196h202zM281 156h237v-156h-476v150l223 227h-215v157h465v-141z" />
    <glyph glyph-name="Zdotaccent" unicode="&#x17b;" horiz-adv-x="703" 
d="M348 854q-46 0 -78.5 32.5t-32.5 77.5q0 46 32.5 78.5t78.5 32.5t78 -32.5t32 -78.5q0 -45 -32 -77.5t-78 -32.5zM655 783v-165l-362 -442h363v-176h-617v167l361 442h-344v174h599z" />
    <glyph glyph-name="zdotaccent" unicode="&#x17c;" horiz-adv-x="561" 
d="M279 605q-45 0 -78 32.5t-33 77.5q0 46 32.5 78.5t78.5 32.5q47 0 79 -32.5t32 -78.5q0 -45 -32.5 -77.5t-78.5 -32.5zM281 156h237v-156h-476v150l223 227h-215v157h465v-141z" />
    <glyph glyph-name="Zcaron" unicode="&#x17d;" horiz-adv-x="703" 
d="M134 1042h152l62 -101l60 101h153l-125 -189h-176zM39 0h617v176h-363l362 442v165h-599v-174h344l-361 -442v-167z" />
    <glyph glyph-name="zcaron" unicode="&#x17e;" horiz-adv-x="561" 
d="M66 813h152l62 -101l60 101h153l-125 -188h-176zM265 377l-223 -227v-150h476v156h-237l234 237v141h-465v-157h215z" />
    <glyph glyph-name="florin" unicode="&#x192;" horiz-adv-x="635" 
d="M389 183q-39 -195 -239 -195q-57 0 -105 16v152q43 -12 78 -12q32 0 52.5 19t26.5 48l34 168h-94v155h125l12 57q39 195 238 195q56 0 105 -16v-152q-43 12 -78 12q-32 0 -52.5 -19.5t-26.5 -48.5l-6 -28h118v-155h-148z" />
    <glyph glyph-name="uni01B5" unicode="&#x1b5;" horiz-adv-x="703" 
d="M56 783h599v-163l-140 -170h141v-110h-230l-134 -164h364v-176h-617v165l144 175h-127v110h215l129 159h-344v174z" />
    <glyph glyph-name="uni01B6" unicode="&#x1b6;" horiz-adv-x="561" 
d="M409 304h106v-75h-174l-74 -78h251v-151h-476v131l93 98h-85v75h156l74 78h-230v152h465v-121z" />
    <glyph glyph-name="uni01CD" unicode="&#x1cd;" horiz-adv-x="808" 
d="M191 1047h152l61 -101l61 101h153l-126 -189h-176zM816 0h-209l-54 144h-302l-52 -144h-207l301 783h222zM309 311h188l-95 250z" />
    <glyph glyph-name="uni01CE" unicode="&#x1ce;" horiz-adv-x="599" 
d="M75 813h154l62 -101l60 101h153l-126 -188h-175zM283 401q-29 0 -51.5 -16.5t-27.5 -42.5l-159 35q15 85 86.5 127t158.5 42q111 0 181.5 -56.5t70.5 -163.5v-326h-181v62l-2 1q-63 -73 -162 -73q-67 0 -114.5 45t-47.5 112q0 46 23 80.5t61.5 52.5t80.5 26.5t88 8.5h28
q38 0 38 33q0 22 -18.5 37.5t-52.5 15.5zM273 122q36 0 58.5 20t22.5 55v16h-66q-25 0 -44 -11.5t-19 -34.5q0 -19 14.5 -32t33.5 -13z" />
    <glyph glyph-name="uni01CF" unicode="&#x1cf;" horiz-adv-x="360" 
d="M-34 1043h153l61 -101l61 101h153l-126 -189h-176zM81 0h198v783h-198v-783z" />
    <glyph glyph-name="uni01D0" unicode="&#x1d0;" horiz-adv-x="316" 
d="M-56 813h153l62 -101l60 101h153l-125 -188h-176zM254 0v534h-192v-534h192z" />
    <glyph glyph-name="uni01D1" unicode="&#x1d1;" horiz-adv-x="892" 
d="M232 1047h152l62 -101l60 101h153l-125 -189h-176zM37 392q0 169 120.5 286.5t290.5 117.5t288.5 -116t118.5 -285q0 -170 -119.5 -288.5t-289.5 -118.5t-289.5 117t-119.5 287zM238 393q0 -89 60 -154.5t148 -65.5t148 65.5t60 154.5t-60 154t-148 65t-148 -65t-60 -154
z" />
    <glyph glyph-name="uni01D2" unicode="&#x1d2;" horiz-adv-x="655" 
d="M114 813h152l62 -101l60 101h153l-125 -188h-176zM33 267q0 119 88.5 199t208.5 80t206 -78t86 -197q0 -121 -87 -202t-209 -81t-207.5 79.5t-85.5 199.5zM224 268q0 -44 30 -76.5t74 -32.5q43 0 73 32.5t30 76.5t-29.5 76t-73.5 32t-74 -32t-30 -76z" />
    <glyph glyph-name="uni01D3" unicode="&#x1d3;" horiz-adv-x="799" 
d="M186 1047h152l61 -101l61 101h153l-126 -189h-175zM726 312q0 -153 -82.5 -238t-246.5 -85t-244 86.5t-80 233.5v474h199v-471q0 -62 32 -100.5t95 -38.5q68 0 98 38.5t30 96.5v475h199v-471z" />
    <glyph glyph-name="uni01D4" unicode="&#x1d4;" horiz-adv-x="650" 
d="M109 813h152l62 -101l60 101h153l-125 -188h-176zM247 245q0 -35 20 -58.5t53 -23.5q35 0 56.5 21.5t21.5 60.5v289h190v-534h-189v66h-2q-29 -39 -70 -58t-83 -19q-50 0 -87.5 19.5t-58.5 52.5t-31 70.5t-10 78.5v324h190v-289z" />
    <glyph glyph-name="uni01D5" unicode="&#x1d5;" horiz-adv-x="799" 
d="M592 1052h-385v136h385v-136zM364 920q0 -43 -28 -71t-71 -28t-71 28t-28 71t28 71.5t71 28.5q42 0 70.5 -28.5t28.5 -71.5zM634 920q0 -43 -28.5 -71t-71.5 -28t-71 28t-28 71t28 71.5t71 28.5t71.5 -28.5t28.5 -71.5zM726 312q0 -153 -82.5 -238t-246.5 -85t-244 86.5
t-80 233.5v474h199v-471q0 -62 32 -100.5t95 -38.5q68 0 98 38.5t30 96.5v475h199v-471z" />
    <glyph glyph-name="uni01D6" unicode="&#x1d6;" horiz-adv-x="650" 
d="M516 828h-386v136h386v-136zM292 681q0 -43 -28.5 -71t-71.5 -28t-71 28t-28 71t28 71.5t71 28.5t71.5 -28.5t28.5 -71.5zM552 681q0 -43 -28.5 -71t-71.5 -28t-71 28t-28 71t28 71.5t71 28.5q42 0 71 -28.5t29 -71.5zM247 245q0 -35 20 -58.5t53 -23.5q35 0 56.5 21.5
t21.5 60.5v289h190v-534h-189v66h-2q-29 -39 -70 -58t-83 -19q-50 0 -87.5 19.5t-58.5 52.5t-31 70.5t-10 78.5v324h190v-289z" />
    <glyph glyph-name="uni01D7" unicode="&#x1d7;" horiz-adv-x="799" 
d="M628 1219l-159 -182h-143l104 182h198zM369 920q0 -43 -28 -71.5t-71 -28.5t-71.5 28.5t-28.5 71.5q0 42 28.5 70.5t71.5 28.5q42 0 70.5 -28.5t28.5 -70.5zM629 920q0 -43 -28.5 -71.5t-71.5 -28.5t-70.5 28.5t-27.5 71.5q0 42 28 70.5t70 28.5q43 0 71.5 -28.5
t28.5 -70.5zM726 312q0 -153 -82.5 -238t-246.5 -85t-244 86.5t-80 233.5v474h199v-471q0 -62 32 -100.5t95 -38.5q68 0 98 38.5t30 96.5v475h199v-471z" />
    <glyph glyph-name="uni01D8" unicode="&#x1d8;" horiz-adv-x="650" 
d="M563 1004l-171 -196h-143l111 196h203zM292 681q0 -43 -28.5 -71t-71.5 -28t-71 28t-28 71t28.5 71.5t70.5 28.5q43 0 71.5 -28.5t28.5 -71.5zM552 681q0 -43 -28.5 -71t-71.5 -28t-70.5 28t-27.5 71t28 71.5t70 28.5q43 0 71.5 -28.5t28.5 -71.5zM247 245
q0 -35 20 -58.5t53 -23.5q35 0 56.5 21.5t21.5 60.5v289h190v-534h-189v66h-2q-29 -39 -70 -58t-83 -19q-50 0 -87.5 19.5t-58.5 52.5t-31 70.5t-10 78.5v324h190v-289z" />
    <glyph glyph-name="uni01D9" unicode="&#x1d9;" horiz-adv-x="799" 
d="M186 1219h152l61 -94l61 94h153l-130 -182h-167zM370 920q0 -43 -28.5 -71.5t-71.5 -28.5t-71 28.5t-28 71.5q0 42 28 70.5t71 28.5t71.5 -28.5t28.5 -70.5zM630 920q0 -43 -28.5 -71.5t-71.5 -28.5t-71 28.5t-28 71.5q0 42 28 70.5t71 28.5q42 0 71 -28.5t29 -70.5z
M726 312q0 -153 -82.5 -238t-246.5 -85t-244 86.5t-80 233.5v474h199v-471q0 -62 32 -100.5t95 -38.5q68 0 98 38.5t30 96.5v475h199v-471z" />
    <glyph glyph-name="uni01DA" unicode="&#x1da;" horiz-adv-x="650" 
d="M109 998h152l62 -101l60 101h153l-125 -189h-176zM292 681q0 -43 -28.5 -71t-71.5 -28t-71 28t-28 71t28.5 71.5t70.5 28.5q43 0 71.5 -28.5t28.5 -71.5zM552 681q0 -43 -28.5 -71t-71.5 -28t-70.5 28t-27.5 71t28 71.5t70 28.5q43 0 71.5 -28.5t28.5 -71.5zM247 245
q0 -35 20 -58.5t53 -23.5q35 0 56.5 21.5t21.5 60.5v289h190v-534h-189v66h-2q-29 -39 -70 -58t-83 -19q-50 0 -87.5 19.5t-58.5 52.5t-31 70.5t-10 78.5v324h190v-289z" />
    <glyph glyph-name="uni01DB" unicode="&#x1db;" horiz-adv-x="799" 
d="M369 1219l104 -182h-143l-159 182h198zM369 920q0 42 -28.5 70.5t-70.5 28.5q-43 0 -71.5 -28.5t-28.5 -70.5q0 -43 28.5 -71.5t71.5 -28.5t71 28.5t28 71.5zM629 920q0 42 -28.5 70.5t-71.5 28.5q-42 0 -70 -28.5t-28 -70.5q0 -43 27.5 -71.5t70.5 -28.5t71.5 28.5
t28.5 71.5zM726 312q0 -153 -82.5 -238t-246.5 -85t-244 86.5t-80 233.5v474h199v-471q0 -62 32 -100.5t95 -38.5q68 0 98 38.5t30 96.5v475h199v-471z" />
    <glyph glyph-name="uni01DC" unicode="&#x1dc;" horiz-adv-x="650" 
d="M256 808l-171 196h203l111 -196h-143zM292 681q0 -43 -28.5 -71t-71.5 -28t-71 28t-28 71t28.5 71.5t70.5 28.5q43 0 71.5 -28.5t28.5 -71.5zM552 681q0 -43 -28.5 -71t-71.5 -28t-70.5 28t-27.5 71t28 71.5t70 28.5q43 0 71.5 -28.5t28.5 -71.5zM247 245q0 -35 20 -58.5
t53 -23.5q35 0 56.5 21.5t21.5 60.5v289h190v-534h-189v66h-2q-29 -39 -70 -58t-83 -19q-50 0 -87.5 19.5t-58.5 52.5t-31 70.5t-10 78.5v324h190v-289z" />
    <glyph glyph-name="Gcaron" unicode="&#x1e6;" horiz-adv-x="855" 
d="M235 1043h152l62 -101l61 101h153l-126 -189h-176zM616 270q-11 -45 -59.5 -74.5t-107.5 -29.5q-94 0 -153 66t-59 162q0 98 60.5 161t148.5 63q74 0 116.5 -38t52.5 -81l192 51q-12 43 -38.5 83.5t-69 78.5t-108 61t-143.5 23q-170 0 -290.5 -119.5t-120.5 -284.5
q0 -174 117.5 -289t294.5 -115q166 0 269.5 104.5t103.5 259.5v76h-431v-158h225z" />
    <glyph glyph-name="gcaron" unicode="&#x1e7;" horiz-adv-x="688" 
d="M116 813h152l62 -101l60 101h153l-126 -188h-175zM432 80q-59 -76 -147 -76q-111 0 -180.5 76t-69.5 191q0 119 74 194.5t177 75.5q92 0 148 -72h3v65h188v-522q0 -132 -82.5 -205.5t-217.5 -73.5q-124 0 -197 56t-93 136l168 51q19 -80 116 -80q53 0 84.5 27.5
t31.5 84.5v72h-3zM437 273q0 44 -30 73.5t-74 29.5t-74 -30t-30 -74t30 -74.5t74 -30.5t74 31t30 75z" />
    <glyph glyph-name="uni01E8" unicode="&#x1e8;" horiz-adv-x="765" 
d="M204 1043h152l61 -101l61 101h153l-126 -189h-175zM81 0h199v371l247 -371h246l-288 411l269 372h-232l-242 -336v336h-199v-783z" />
    <glyph glyph-name="uni01E9" unicode="&#x1e9;" horiz-adv-x="640" 
d="M252 312l161 222h220l-180 -248l186 -286h-222l-161 260h-4v-260h-190v815h190v-503zM422 625h176l126 188h-153l-61 -101l-61 101h-152z" />
    <glyph glyph-name="uni01F4" unicode="&#x1f4;" horiz-adv-x="856" 
d="M685 1048l-171 -196h-143l111 196h203zM823 352q0 -155 -103.5 -259.5t-269.5 -104.5q-177 0 -295 115t-118 289q0 165 121 284.5t291 119.5q78 0 143.5 -23t108 -61t69 -78.5t38.5 -83.5l-192 -51q-10 43 -52.5 81t-116.5 38q-88 0 -148.5 -63t-60.5 -161q0 -96 59 -162
t153 -66q59 0 107.5 29.5t59.5 74.5h-225v158h431v-76z" />
    <glyph glyph-name="uni01F5" unicode="&#x1f5;" horiz-adv-x="688" 
d="M550 819l-171 -196h-143l112 196h202zM432 80q-59 -76 -147 -76q-111 0 -180.5 76t-69.5 191q0 119 74 194.5t177 75.5q92 0 148 -72h3v65h188v-522q0 -132 -82.5 -205.5t-217.5 -73.5q-124 0 -197 56t-93 136l168 51q19 -80 116 -80q53 0 84.5 27.5t31.5 84.5v72h-3z
M437 273q0 44 -30 73.5t-74 29.5t-74 -30t-30 -74t30 -74.5t74 -30.5t74 31t30 75z" />
    <glyph glyph-name="Aringacute" unicode="&#x1fa;" horiz-adv-x="808" 
d="M547 888q13 -26 13 -59q0 -48 -29 -88l285 -741h-209l-54 144h-302l-52 -144h-207l284 739q-31 41 -31 90q0 62 46.5 106t110.5 44q25 0 49 -8l63 111h202zM402 885q-23 0 -40 -16.5t-17 -40.5t17 -40.5t40 -16.5q24 0 41 16.5t17 40.5t-17 40.5t-41 16.5zM309 311h188
l-95 250z" />
    <glyph glyph-name="aringacute" unicode="&#x1fb;" horiz-adv-x="600" 
d="M542 0h-181v62l-2 1q-63 -73 -161 -73q-68 0 -115.5 45t-47.5 112q0 46 23 80.5t61.5 52.5t80.5 26.5t88 8.5h28q39 0 39 33q0 22 -18.5 37.5t-52.5 15.5q-30 0 -52 -16.5t-28 -42.5l-159 35q18 97 115 142q-21 33 -21 75q0 63 46.5 106.5t110.5 43.5q27 0 48 -7l64 112
h202l-169 -195q13 -29 13 -60q0 -44 -23 -78q111 -56 111 -190v-326zM296 651q-24 0 -40.5 -17t-16.5 -40q0 -24 16.5 -41t40.5 -17t41 17t17 41q0 23 -17 40t-41 17zM289 213q-25 0 -44.5 -11.5t-19.5 -34.5q0 -19 14.5 -32t33.5 -13q36 0 58.5 20t22.5 55v16h-65z" />
    <glyph glyph-name="AEacute" unicode="&#x1fc;" horiz-adv-x="1074" 
d="M820 1048l-171 -196h-143l112 196h202zM671 480h315v-169h-315v-135h350v-176h-541v124h-229l-55 -124h-208l367 783h663v-175h-347v-128zM480 291v320h-9l-143 -320h152z" />
    <glyph glyph-name="aeacute" unicode="&#x1fd;" horiz-adv-x="945" 
d="M710 819l-170 -196h-143l111 196h202zM909 219q3 16 3 56q0 115 -79 193t-194 78q-95 0 -169 -56q-66 56 -180 56q-87 0 -158.5 -42t-86.5 -127l159 -35q5 26 27.5 42.5t51.5 16.5q34 0 52.5 -15.5t18.5 -37.5q0 -33 -38 -33h-28q-46 0 -88 -8.5t-80.5 -26.5t-61.5 -52.5
t-23 -80.5q0 -67 49.5 -113t121.5 -46h5q133 0 216 96q79 -96 211 -96q192 0 259 147l-156 55q-32 -54 -94 -54q-44 0 -73.5 23.5t-34.5 59.5h370zM636 401q36 0 61 -20t30 -56h-185q6 30 32.5 53t61.5 23zM273 122q-19 0 -33.5 13t-14.5 32q0 23 19 34.5t44 11.5h66v-16
q0 -35 -22.5 -55t-58.5 -20z" />
    <glyph glyph-name="Oslashacute" unicode="&#x1fe;" horiz-adv-x="894" 
d="M687 1048l-170 -196h-143l111 196h202zM769 646q87 -108 87 -251q0 -170 -119.5 -288.5t-289.5 -118.5q-128 0 -231 70l-86 -92l-92 85l86 91q-86 108 -86 250q0 169 120.5 286.5t290.5 117.5q124 0 226 -66l89 94l91 -85zM448 615q-89 0 -149.5 -65.5t-60.5 -155.5
q0 -55 24 -105l284 302q-45 24 -98 24zM448 172q88 0 149 66.5t61 155.5q0 54 -26 108l-286 -304q47 -26 102 -26z" />
    <glyph glyph-name="oslashacute" unicode="&#x1ff;" horiz-adv-x="656" 
d="M569 819l-171 -196h-143l112 196h202zM556 449q67 -75 67 -178q0 -121 -87.5 -202t-209.5 -81q-91 0 -165 47l-69 -70l-58 56l65 67q-65 75 -65 180q0 118 88 198t208 80q89 0 164 -47l70 73l58 -54zM224 268q0 -21 8 -42l137 142q-21 8 -41 8q-44 0 -74 -32t-30 -76z
M329 159q43 0 73 32.5t30 76.5q0 23 -9 44l-137 -143q22 -10 43 -10z" />
    <glyph glyph-name="Scommaaccent" unicode="&#x218;" horiz-adv-x="694" 
d="M357 -11q-142 0 -225 67.5t-103 183.5l177 42q9 -66 51 -96.5t101 -30.5q49 0 73 23t24 51q0 50 -67 63l-108 21q-100 19 -160 79t-60 151q0 109 85 181t203 72q70 0 125.5 -20.5t89 -54.5t52.5 -72t25 -79l-174 -49q-7 50 -37.5 80t-81.5 30q-43 0 -67 -22.5t-24 -49.5
q0 -54 58 -65l112 -21q109 -21 168.5 -84t59.5 -151q0 -101 -81.5 -175t-215.5 -74zM435 -174q0 -53 -32.5 -103t-88.5 -88l-53 49q64 43 92 101q-17 -7 -34 -7q-33 0 -56 23.5t-23 58.5q0 37 27.5 63t67.5 26q44 0 72 -32.5t28 -83.5v-7z" />
    <glyph glyph-name="scommaaccent" unicode="&#x219;" horiz-adv-x="533" 
d="M498 171q0 -75 -61 -129t-172 -54q-61 0 -107 15.5t-71 40.5t-38 49t-17 49l152 40q4 -29 24.5 -44t51.5 -15q29 0 42 12t13 25q0 30 -73 39q-197 30 -197 166q0 76 64 128.5t156 52.5q100 0 157.5 -43.5t64.5 -98.5l-153 -38q-10 47 -63 47q-25 0 -37 -11t-12 -23
q0 -28 64 -34q40 -5 74.5 -16t67 -30.5t51.5 -52.5t19 -75zM355 -174q0 -53 -32.5 -103t-88.5 -88l-53 49q64 43 92 101q-18 -7 -34 -7q-33 0 -56 23.5t-23 58.5q0 37 27.5 63t67.5 26q44 0 72 -32.5t28 -83.5v-7z" />
    <glyph glyph-name="uni021A" unicode="&#x21a;" horiz-adv-x="676" 
d="M658 604h-221v-604h-197v604h-222v179h640v-179zM435 -174q0 -53 -32.5 -103t-88.5 -88l-53 49q64 43 92 101q-17 -7 -34 -7q-33 0 -56 23.5t-23 58.5q0 37 27.5 63t67.5 26q44 0 72 -32.5t28 -83.5v-7z" />
    <glyph glyph-name="uni021B" unicode="&#x21b;" horiz-adv-x="472" 
d="M427 6q-44 -15 -101 -15q-95 0 -151.5 52.5t-56.5 149.5v183h-100v158h105v173h185v-173h124v-158h-124v-163q0 -62 69 -62q21 0 50 3v-148zM342 -174q0 -53 -32.5 -103t-88.5 -88l-53 49q64 43 92 101q-18 -7 -34 -7q-33 0 -56 23.5t-23 58.5q0 37 27.5 63t67.5 26
q44 0 72 -32.5t28 -83.5v-7z" />
    <glyph glyph-name="uni0237" unicode="&#x237;" horiz-adv-x="324" 
d="M70 534h192v-581q0 -97 -54 -157t-157 -60q-61 0 -101 15v150q23 -5 47 -5q73 0 73 62v576z" />
    <glyph glyph-name="circumflex" unicode="&#x2c6;" horiz-adv-x="468" 
d="M448 624h-152l-61 101l-61 -101h-154l127 189h176z" />
    <glyph glyph-name="breve" unicode="&#x2d8;" horiz-adv-x="454" 
d="M434 813q-8 -87 -65.5 -140t-141.5 -53t-141.5 54t-65.5 139h130q6 -35 25.5 -55.5t51.5 -20.5t52 21t25 55h130z" />
    <glyph glyph-name="dotaccent" unicode="&#x2d9;" horiz-adv-x="262" 
d="M131 605q-46 0 -78.5 32.5t-32.5 77.5q0 46 32.5 78.5t78.5 32.5t78.5 -32.5t32.5 -78.5q0 -45 -32.5 -77.5t-78.5 -32.5z" />
    <glyph glyph-name="tilde" unicode="&#x2dc;" horiz-adv-x="453" 
d="M312 624q-44 0 -98 32q-40 24 -59 22q-14 -1 -22 -11t-9 -18.5t-2 -23.5h-101l-1 29q-2 68 30.5 108t95.5 40q37 0 91 -31q40 -22 60 -22q36 0 38 50h97l1 -29q2 -66 -28 -106t-93 -40z" />
    <glyph glyph-name="hungarumlaut" unicode="&#x2dd;" horiz-adv-x="584" 
d="M324 819l-166 -196h-138l112 196h192zM564 819l-166 -196h-138l112 196h192z" />
    <glyph glyph-name="gravecomb" unicode="&#x300;" horiz-adv-x="0" 
d="M14 623l-171 196h202l112 -196h-143z" />
    <glyph glyph-name="acutecomb" unicode="&#x301;" horiz-adv-x="0" 
d="M157 819l-171 -196h-143l112 196h202z" />
    <glyph glyph-name="uni0302" unicode="&#x302;" horiz-adv-x="0" 
d="M213 624h-151l-62 101l-61 -101h-152l125 189h176z" />
    <glyph glyph-name="tildecomb" unicode="&#x303;" horiz-adv-x="0" 
d="M83 624q-44 0 -98 32q-40 24 -59 22q-14 -1 -22 -11t-9 -18.5t-2 -23.5h-101l-1 29q-2 68 30.5 108t95.5 40q37 0 91 -31q40 -22 60 -22q36 0 38 50h97l1 -29q2 -66 -28 -106t-93 -40z" />
    <glyph glyph-name="uni0304" unicode="&#x304;" horiz-adv-x="0" 
d="M193 628h-386v137h386v-137z" />
    <glyph glyph-name="uni0306" unicode="&#x306;" horiz-adv-x="0" 
d="M207 813q-8 -87 -65.5 -140t-141.5 -53t-141.5 54t-65.5 139h130q6 -35 25.5 -55.5t51.5 -20.5t52 21t25 55h130z" />
    <glyph glyph-name="uni0307" unicode="&#x307;" horiz-adv-x="0" 
d="M0 605q-46 0 -78.5 32.5t-32.5 77.5q0 46 32.5 78.5t78.5 32.5t78.5 -32.5t32.5 -78.5q0 -45 -32.5 -77.5t-78.5 -32.5z" />
    <glyph glyph-name="uni0308" unicode="&#x308;" horiz-adv-x="0" 
d="M-177 716q0 -43 -28.5 -71.5t-71.5 -28.5t-71 28.5t-28 71.5q0 42 28.5 70.5t70.5 28.5q43 0 71.5 -28.5t28.5 -70.5zM83 716q0 -43 -28.5 -71.5t-71.5 -28.5t-71 28.5t-28 71.5q0 42 28 70.5t71 28.5t71.5 -28.5t28.5 -70.5z" />
    <glyph glyph-name="uni030A" unicode="&#x30a;" horiz-adv-x="0" 
d="M0 608q-64 0 -111 44t-47 107q0 62 47 106t111 44q65 0 111.5 -43.5t46.5 -106.5t-46.5 -107t-111.5 -44zM-58 758q0 -23 17 -40t41 -17t40.5 17t16.5 40q0 24 -16.5 41t-40.5 17t-41 -17t-17 -41z" />
    <glyph glyph-name="uni030B" unicode="&#x30b;" horiz-adv-x="0" 
d="M32 819l-166 -196h-138l112 196h192zM272 819l-166 -196h-138l112 196h192z" />
    <glyph glyph-name="uni030C" unicode="&#x30c;" horiz-adv-x="0" 
d="M-213 813h151l62 -101l61 101h152l-125 -188h-176z" />
    <glyph glyph-name="uni0312" unicode="&#x312;" horiz-adv-x="0" 
d="M83 861q-87 -16 -101 -71q13 4 29 4q37 0 61.5 -24.5t24.5 -61.5q0 -39 -29 -65.5t-68 -26.5q-50 0 -77 35t-27 86q0 82 51.5 131t135.5 58v-65z" />
    <glyph glyph-name="uni0326" unicode="&#x326;" horiz-adv-x="0" 
d="M-83 -327q87 16 100 71q-12 -4 -28 -4q-37 0 -61.5 24t-24.5 62q0 39 29 65t68 26q51 0 77.5 -34.5t26.5 -86.5q0 -81 -52 -130t-135 -58v65z" />
    <glyph glyph-name="uni0327" unicode="&#x327;" horiz-adv-x="0" 
d="M131 -101q0 -160 -189 -160q-44 0 -73 9v105q28 -5 52 -5q43 0 64.5 25.5t21.5 69.5q0 30 -12 57h113q23 -43 23 -101z" />
    <glyph glyph-name="uni0328" unicode="&#x328;" horiz-adv-x="0" 
d="M17 -114q0 -21 20 -32.5t43 -11.5q17 0 47 6v-99q-33 -15 -93 -15q-69 0 -117 29t-48 86q0 78 110 151h152q-38 -19 -76 -52t-38 -62z" />
    <glyph glyph-name="Theta" unicode="&#x398;" horiz-adv-x="892" 
d="M446 -12q-170 0 -289.5 117t-119.5 287q0 169 120.5 286.5t290.5 117.5t288.5 -116t118.5 -285q0 -170 -119.5 -288.5t-289.5 -118.5zM446 614q-89 0 -150 -66t-61 -155q0 -90 61 -156t150 -66t150 66t61 156q0 89 -61 155t-150 66zM577 473v-156h-261v156h261z" />
    <glyph glyph-name="uni03A9" unicode="&#x3a9;" horiz-adv-x="902" 
d="M488 218q68 13 113 71t45 129q0 81 -57 138t-138 57t-137.5 -57t-56.5 -138q0 -71 44.5 -129t113.5 -71v-218h-355v174h119q-58 40 -90.5 110.5t-32.5 144.5q0 102 57.5 187.5t148.5 132.5t192 47q100 0 190 -47t146.5 -132.5t56.5 -187.5q0 -74 -32.5 -144.5
t-90.5 -110.5h118v-174h-355z" />
    <glyph glyph-name="theta" unicode="&#x3b8;" horiz-adv-x="756" 
d="M377 -12q-110 0 -188.5 59t-114.5 150t-36 203q0 81 22 155t63.5 133t108 94t148.5 35t148 -34t107 -92t62.5 -131.5t21.5 -155.5q0 -83 -21.5 -156.5t-63 -132t-108 -93t-149.5 -34.5zM522 484q-10 67 -46 113.5t-98 46.5q-61 0 -98 -47.5t-45 -112.5h287zM233 329
q10 -71 46.5 -119.5t98.5 -48.5q63 0 100 50t45 118h-290z" />
    <glyph glyph-name="pi" unicode="&#x3c0;" horiz-adv-x="785" 
d="M620 213q0 -62 68 -62q23 0 50 3v-148q-42 -15 -101 -15q-93 0 -148 52.5t-55 149.5v183h-115v-376h-189v376h-108v158h716v-158h-118v-163z" />
    <glyph glyph-name="uni0401" unicode="&#x401;" horiz-adv-x="684" 
d="M318 965q0 -43 -28.5 -71.5t-71.5 -28.5t-71 28.5t-28 71.5q0 42 28 70.5t71 28.5t71.5 -28.5t28.5 -70.5zM587 965q0 -43 -28 -71.5t-71 -28.5t-71 28.5t-28 71.5q0 42 28 70.5t71 28.5q42 0 70.5 -28.5t28.5 -70.5zM596 311h-320v-135h355v-176h-550v783h547v-175h-352
v-128h320v-169z" />
    <glyph glyph-name="uni0402" unicode="&#x402;" horiz-adv-x="862" 
d="M396 458q82 45 177 45q120 0 191.5 -72t71.5 -213q0 -142 -72 -216.5t-191 -74.5q-42 0 -93 8v178q12 -1 34 -1q119 0 119 102q0 48 -32.5 76t-89.5 28q-63 0 -115 -31v-287h-198v604h-179v179h660v-179h-283v-146z" />
    <glyph glyph-name="uni0403" unicode="&#x403;" horiz-adv-x="620" 
d="M572 1048l-171 -196h-143l112 196h202zM278 0h-197v783h522v-181h-325v-602z" />
    <glyph glyph-name="uni0404" unicode="&#x404;" horiz-adv-x="846" 
d="M823 260q-10 -41 -36.5 -84.5t-71 -87.5t-116.5 -72t-158 -28q-170 0 -286.5 116t-116.5 288q0 169 116 286.5t293 117.5q67 0 125.5 -18t98.5 -46.5t71.5 -65.5t49 -71.5t26.5 -69.5l-178 -54q-14 51 -64 97.5t-132 46.5q-68 0 -120 -38.5t-74 -100.5h276v-161h-278
q21 -64 73 -104t123 -40q82 0 132.5 45t66.5 100z" />
    <glyph glyph-name="uni0405" unicode="&#x405;" horiz-adv-x="694" 
d="M357 -11q-142 0 -225 67.5t-103 183.5l177 42q9 -66 51 -96.5t101 -30.5q49 0 73 23t24 51q0 50 -67 63l-108 21q-100 19 -160 79t-60 151q0 109 85 181t203 72q70 0 125.5 -20.5t89 -54.5t52.5 -72t25 -79l-174 -49q-7 50 -37.5 80t-81.5 30q-43 0 -67 -22.5t-24 -49.5
q0 -54 58 -65l112 -21q109 -21 168.5 -84t59.5 -151q0 -101 -81.5 -175t-215.5 -74z" />
    <glyph glyph-name="uni0406" unicode="&#x406;" horiz-adv-x="359" 
d="M279 0h-198v783h198v-783z" />
    <glyph glyph-name="uni0407" unicode="&#x407;" horiz-adv-x="359" 
d="M152 965q0 -43 -28.5 -71.5t-71.5 -28.5t-71 28.5t-28 71.5q0 42 28 70.5t71 28.5t71.5 -28.5t28.5 -70.5zM408 965q0 -43 -28.5 -71.5t-71.5 -28.5t-71 28.5t-28 71.5q0 42 28 70.5t71 28.5t71.5 -28.5t28.5 -70.5zM279 0h-198v783h198v-783z" />
    <glyph glyph-name="uni0408" unicode="&#x408;" horiz-adv-x="652" 
d="M304 -11q-124 0 -201.5 71.5t-77.5 196.5v86h190v-80q0 -44 24 -67t60 -23t58 24t22 63v523h200v-521q0 -126 -77 -199.5t-198 -73.5z" />
    <glyph glyph-name="uni0409" unicode="&#x409;" horiz-adv-x="1253" 
d="M949 507q123 0 201.5 -62.5t78.5 -186.5q0 -126 -82.5 -192t-208.5 -66h-336v602h-212l-22 -247q-6 -71 -25.5 -131.5t-54.5 -113.5t-95 -83.5t-138 -30.5l-34 3v171q37 0 66.5 20.5t46.5 52.5t26 63.5t12 61.5l38 415h589v-276h150zM931 174q102 0 102 86q0 80 -103 80
h-131v-166h132z" />
    <glyph glyph-name="uni040A" unicode="&#x40a;" horiz-adv-x="1230" 
d="M929 496q120 0 198.5 -61.5t78.5 -183.5q0 -126 -81 -188.5t-207 -62.5h-350v314h-290v-314h-197v783h197v-287h290v287h198v-287h163zM911 174q98 0 98 81q0 78 -99 78h-144v-159h145z" />
    <glyph glyph-name="uni040B" unicode="&#x40b;" horiz-adv-x="871" 
d="M638 185q0 133 -117 133q-79 0 -125 -31v-287h-198v604h-179v179h660v-179h-283v-146q82 45 177 45q115 0 188.5 -68.5t73.5 -178.5v-256h-197v185z" />
    <glyph glyph-name="uni040C" unicode="&#x40c;" horiz-adv-x="765" 
d="M632 1048l-170 -196h-143l111 196h202zM522 783h232l-269 -372l288 -411h-246l-247 371v-371h-199v783h199v-336z" />
    <glyph glyph-name="uni040E" unicode="&#x40e;" horiz-adv-x="738" 
d="M277 1063q27 -88 99 -88q71 0 98 88l109 -19q-12 -83 -67.5 -135.5t-140.5 -52.5q-84 0 -140.5 53.5t-64.5 134.5zM284 258q-23 -50 -49 -66t-69 -16h-103v-176h125q50 0 93 15.5t70.5 35.5t55.5 58t42.5 63t36.5 70l269 541h-213l-152 -325l-171 325h-221z" />
    <glyph glyph-name="uni040F" unicode="&#x40f;" horiz-adv-x="836" 
d="M81 783h197v-602h280v602h197v-783h-242v-164h-190v164h-242v783z" />
    <glyph glyph-name="uni0410" unicode="&#x410;" horiz-adv-x="808" 
d="M816 0h-209l-54 144h-302l-52 -144h-207l301 783h222zM309 311h188l-95 250z" />
    <glyph glyph-name="uni0411" unicode="&#x411;" horiz-adv-x="752" 
d="M443 493q122 0 199 -61.5t77 -181.5q0 -127 -82 -188.5t-211 -61.5h-345v783h589v-174h-395v-116h168zM425 174q98 0 98 81q0 76 -99 76h-149v-157h150z" />
    <glyph glyph-name="uni0412" unicode="&#x412;" horiz-adv-x="740" 
d="M704 221q0 -109 -80.5 -165t-198.5 -56h-344v783h339q126 0 198 -73q52 -54 52 -134q0 -58 -33.5 -101t-91.5 -67v-3q74 -12 116.5 -62t42.5 -122zM474 544q0 70 -90 70h-112v-141h114q42 0 65 19t23 52zM507 244q0 36 -25.5 54.5t-64.5 18.5h-145v-147h146q39 0 64 19
t25 55z" />
    <glyph glyph-name="uni0413" unicode="&#x413;" horiz-adv-x="619" 
d="M278 0h-197v783h522v-181h-325v-602z" />
    <glyph glyph-name="uni0414" unicode="&#x414;" horiz-adv-x="943" 
d="M18 177q51 0 92 41.5t63 101.5t28 129l29 334h589v-602h82v-345h-190v164h-507v-164h-190v341h4zM394 427q-7 -76 -25.5 -136t-66.5 -110h321v421h-214z" />
    <glyph glyph-name="uni0415" unicode="&#x415;" horiz-adv-x="684" 
d="M596 311h-320v-135h355v-176h-550v783h547v-175h-352v-128h320v-169z" />
    <glyph glyph-name="uni0416" unicode="&#x416;" horiz-adv-x="1167" 
d="M480 416l4 1v366h199v-367h3l248 367h228l-261 -384l267 -399h-233l-249 380h-3v-380h-199v380h-3l-249 -380h-234l267 399l-260 384h227z" />
    <glyph glyph-name="uni0417" unicode="&#x417;" horiz-adv-x="684" 
d="M335 -12q-113 0 -197.5 59t-107.5 171l179 43q11 -55 46 -80t81 -25q47 0 75.5 23t28.5 55q0 77 -104 77h-100v168h94q47 0 72 22t25 53q0 32 -25 53.5t-73 21.5q-41 0 -73 -23.5t-43 -73.5l-178 43q24 114 109 167.5t195 53.5q118 0 201 -59.5t83 -162.5
q0 -118 -110 -166v-1q126 -52 126 -181q0 -108 -87 -173t-217 -65z" />
    <glyph glyph-name="uni0418" unicode="&#x418;" horiz-adv-x="860" 
d="M582 477l-297 -477h-203v783h195v-451h1l284 451h218v-783h-197v477h-1z" />
    <glyph glyph-name="uni0419" unicode="&#x419;" horiz-adv-x="859" 
d="M330 1063q25 -88 98 -88t98 88l109 -19q-11 -83 -67 -135.5t-140 -52.5t-141 53.5t-65 134.5zM581 477l-297 -477h-203v783h195v-451h1l284 451h218v-783h-197v477h-1z" />
    <glyph glyph-name="uni041A" unicode="&#x41a;" horiz-adv-x="764" 
d="M521 783h232l-269 -372l288 -411h-245l-248 371v-371h-198v783h198v-336z" />
    <glyph glyph-name="uni041B" unicode="&#x41b;" horiz-adv-x="880" 
d="M21 170q48 0 83.5 36t50 78t18.5 84l37 415h589v-783h-197v602h-212l-22 -247q-6 -72 -25.5 -132.5t-54.5 -113.5t-95 -83t-138 -30l-34 3v171z" />
    <glyph glyph-name="uni041C" unicode="&#x41c;" horiz-adv-x="1053" 
d="M779 470h-2l-191 -470h-121l-193 464h-2v-464h-189v783h237l208 -493l200 493h246v-783h-193v470z" />
    <glyph glyph-name="uni041D" unicode="&#x41d;" horiz-adv-x="846" 
d="M278 487h290v296h198v-783h-198v305h-290v-305h-197v783h197v-296z" />
    <glyph glyph-name="uni041E" unicode="&#x41e;" horiz-adv-x="893" 
d="M37 392q0 169 120.5 286.5t290.5 117.5t288.5 -115.5t118.5 -285.5t-119.5 -288.5t-289.5 -118.5t-289.5 117t-119.5 287zM239 393q0 -89 60 -154.5t148 -65.5t147.5 65.5t59.5 154.5t-59.5 154t-147.5 65t-148 -65t-60 -154z" />
    <glyph glyph-name="uni041F" unicode="&#x41f;" horiz-adv-x="836" 
d="M755 0h-197v602h-280v-602h-197v783h674v-783z" />
    <glyph glyph-name="uni0420" unicode="&#x420;" horiz-adv-x="704" 
d="M387 783q131 0 212 -64.5t81 -189.5q0 -128 -85.5 -193.5t-219.5 -65.5h-97v-270h-197v783h306zM372 438q110 0 110 83q0 89 -111 89h-93v-172h94z" />
    <glyph glyph-name="uni0421" unicode="&#x421;" horiz-adv-x="844" 
d="M441 -12q-170 0 -286.5 116t-116.5 288q0 169 116 286.5t293 117.5q84 0 153 -27t112 -70.5t69 -87.5t37 -88l-184 -57q-13 50 -60.5 97.5t-129.5 47.5q-88 0 -146 -63.5t-58 -154.5t56.5 -154.5t147.5 -63.5q81 0 130 45.5t64 99.5l185 -58q-7 -32 -24 -66t-49.5 -72
t-74 -67.5t-103 -49t-131.5 -19.5z" />
    <glyph glyph-name="uni0422" unicode="&#x422;" horiz-adv-x="674" 
d="M657 604h-221v-604h-197v604h-222v179h640v-179z" />
    <glyph glyph-name="uni0423" unicode="&#x423;" horiz-adv-x="738" 
d="M486 242q-22 -45 -36.5 -70t-42.5 -63t-55.5 -58t-70.5 -35.5t-93 -15.5h-125v176h103q43 0 69 16t49 66l-286 525h221l171 -325l152 325h213z" />
    <glyph glyph-name="uni0424" unicode="&#x424;" horiz-adv-x="1029" 
d="M416 59q-97 0 -172.5 29.5t-120.5 79.5t-67.5 109.5t-22.5 124.5q0 158 110 246.5t273 88.5v71h197v-71q105 0 191 -37t139.5 -114.5t53.5 -183.5q0 -65 -23 -124.5t-68 -109.5t-120.5 -79.5t-172.5 -29.5v-83h-197v83zM416 560q-84 0 -134 -44t-50 -118
q0 -75 51.5 -118.5t132.5 -43.5v324zM613 236q81 0 132.5 43.5t51.5 118.5q0 74 -50 118t-134 44v-324z" />
    <glyph glyph-name="uni0425" unicode="&#x425;" horiz-adv-x="767" 
d="M387 552l149 231h222l-257 -381l271 -402h-227l-162 249l-164 -249h-224l273 401l-259 382h227z" />
    <glyph glyph-name="uni0426" unicode="&#x426;" horiz-adv-x="879" 
d="M278 783v-602h280v602h197v-602h82v-345h-190v164h-566v783h197z" />
    <glyph glyph-name="uni0427" unicode="&#x427;" horiz-adv-x="789" 
d="M511 301q-118 -58 -204 -58q-32 0 -62.5 5t-67.5 22t-64 44t-45.5 75.5t-18.5 111.5v282h198v-234q0 -122 101 -122q97 0 163 50v306h197v-783h-197v301z" />
    <glyph glyph-name="uni0428" unicode="&#x428;" horiz-adv-x="1246" 
d="M722 181h246v602h198v-783h-1085v783h197v-602h246v602h198v-602z" />
    <glyph glyph-name="uni0429" unicode="&#x429;" horiz-adv-x="1289" 
d="M278 181h246v602h198v-602h246v602h198v-602h81v-345h-189v164h-977v783h197v-602z" />
    <glyph glyph-name="uni042A" unicode="&#x42a;" horiz-adv-x="843" 
d="M538 507q123 0 201.5 -62.5t78.5 -186.5q0 -127 -82 -192.5t-209 -65.5h-346v609h-161v174h359v-276h159zM520 174q102 0 102 86q0 80 -103 80h-140v-166h141z" />
    <glyph glyph-name="uni042B" unicode="&#x42b;" horiz-adv-x="1106" 
d="M437 507q123 0 202 -62.5t79 -186.5q0 -126 -82.5 -192t-208.5 -66h-346v783h197v-276h159zM1026 0h-198v783h198v-783zM419 174q102 0 102 86q0 80 -103 80h-140v-166h141z" />
    <glyph glyph-name="uni042C" unicode="&#x42c;" horiz-adv-x="742" 
d="M437 507q123 0 202 -62.5t79 -186.5q0 -126 -82.5 -192t-208.5 -66h-346v783h197v-276h159zM419 174q102 0 102 86q0 80 -103 80h-140v-166h141z" />
    <glyph glyph-name="uni042D" unicode="&#x42d;" horiz-adv-x="845" 
d="M406 796q174 0 288 -117t114 -284q0 -174 -117 -290.5t-290 -116.5q-68 0 -128.5 19t-101.5 48.5t-73.5 67t-50 71.5t-25.5 66l180 56q16 -54 68 -99.5t134 -45.5q70 0 121.5 40t72.5 104h-279v161h277q-22 62 -73.5 100.5t-118.5 38.5q-83 0 -134 -47t-64 -97l-179 54
q12 44 39.5 88t72 86.5t114.5 69.5t153 27z" />
    <glyph glyph-name="uni042E" unicode="&#x42e;" horiz-adv-x="1223" 
d="M791 796q169 0 281.5 -116t112.5 -287t-112.5 -288t-281.5 -117q-148 0 -256 89t-135 233h-121v-310h-198v783h198v-304h122q29 139 136.5 228t253.5 89zM791 172q87 0 141 65t54 156t-54 155.5t-141 64.5q-89 0 -143 -61.5t-54 -158.5q0 -91 54.5 -156t142.5 -65z" />
    <glyph glyph-name="uni042F" unicode="&#x42f;" horiz-adv-x="743" 
d="M193 308q-145 60 -145 225q0 122 79.5 186t213.5 64h321v-783h-197v275h-82l-144 -275h-210zM357 613q-111 0 -111 -91q0 -38 28 -58.5t82 -20.5h109v170h-108z" />
    <glyph glyph-name="uni0430" unicode="&#x430;" horiz-adv-x="599" 
d="M283 401q-29 0 -51.5 -16.5t-27.5 -42.5l-159 35q15 85 86.5 127t158.5 42q111 0 181.5 -56.5t70.5 -163.5v-326h-181v62l-2 1q-63 -73 -162 -73q-67 0 -114.5 45t-47.5 112q0 46 23 80.5t61.5 52.5t80.5 26.5t88 8.5h28q38 0 38 33q0 22 -18.5 37.5t-52.5 15.5zM273 122
q36 0 58.5 20t22.5 55v16h-66q-25 0 -44 -11.5t-19 -34.5q0 -19 14.5 -32t33.5 -13z" />
    <glyph glyph-name="uni0431" unicode="&#x431;" horiz-adv-x="670" 
d="M197 430q74 93 196 93q103 0 173 -71t70 -176q0 -128 -81.5 -208t-215.5 -80q-135 0 -214.5 86t-79.5 248q0 48 2.5 84t11.5 83.5t25 83t45.5 74t70.5 66t102.5 51t139.5 35.5l131 20l25 -157l-141 -26q-68 -12 -117.5 -33t-75 -40t-42 -47.5t-20.5 -44t-8 -40.5z
M234 271q0 -47 29 -79.5t76 -32.5q48 0 78 31.5t30 78.5t-29 78.5t-79 31.5q-47 0 -76 -31t-29 -77z" />
    <glyph glyph-name="uni0432" unicode="&#x432;" horiz-adv-x="638" 
d="M406 534q74 0 126 -34.5t52 -99.5q0 -41 -23.5 -73.5t-64.5 -46.5v-1q105 -27 105 -132q0 -75 -60 -113q-53 -34 -141 -34h-338v534h344zM349 325q47 0 47 40q0 36 -45 36h-101v-76h99zM356 136q55 0 55 42q0 41 -57 41h-104v-83h106z" />
    <glyph glyph-name="uni0433" unicode="&#x433;" horiz-adv-x="509" 
d="M252 0h-190v534h430v-158h-240v-376z" />
    <glyph glyph-name="uni0434" unicode="&#x434;" horiz-adv-x="750" 
d="M200 0v-164h-173v319q48 0 70.5 42.5t29.5 121.5l20 215h494v-378h68v-320h-173v164h-336zM314 377q-5 -49 -9.5 -79.5t-20 -73t-39.5 -68.5h211v221h-142z" />
    <glyph glyph-name="uni0435" unicode="&#x435;" horiz-adv-x="624" 
d="M218 219q7 -38 38 -60.5t71 -22.5q60 0 93 54l157 -55q-67 -147 -254 -147q-120 0 -205 80t-85 200q0 117 84 197.5t201 80.5q116 0 194.5 -78t78.5 -193q0 -37 -3 -56h-370zM315 401q-33 0 -60 -22t-34 -54h185q-5 36 -30 56t-61 20z" />
    <glyph glyph-name="uni0436" unicode="&#x436;" horiz-adv-x="959" 
d="M952 0h-217l-156 259h-4v-259h-191v259h-4l-156 -259h-217l173 275l-166 259h212l155 -247h3v247h191v-247h3l155 247h213l-167 -259z" />
    <glyph glyph-name="uni0437" unicode="&#x437;" horiz-adv-x="533" 
d="M271 -12q-89 0 -157 36.5t-86 118.5l152 39q6 -29 25.5 -44t47.5 -15t44.5 14t16.5 32q0 46 -61 46h-49v116h50q26 0 39.5 13t13.5 30q0 16 -13.5 28t-41.5 12q-59 0 -71 -59l-149 39q17 81 81.5 116.5t151.5 35.5q95 0 156.5 -44t61.5 -121q0 -78 -71 -106
q82 -29 82 -113q0 -76 -63.5 -125t-159.5 -49z" />
    <glyph glyph-name="uni0438" unicode="&#x438;" horiz-adv-x="664" 
d="M250 277l169 257h182v-534h-185v262l-2 1l-173 -263h-179v534h186v-256z" />
    <glyph glyph-name="uni0439" unicode="&#x439;" horiz-adv-x="664" 
d="M233 827q26 -89 99 -89q72 0 98 89l108 -20q-11 -83 -66.5 -135t-140.5 -52q-84 0 -140.5 53.5t-65.5 134.5zM250 277l169 257h182v-534h-185v262l-2 1l-173 -263h-179v534h186v-256z" />
    <glyph glyph-name="uni043A" unicode="&#x43a;" horiz-adv-x="656" 
d="M253 290h3l181 244h217l-201 -258l206 -276h-224l-178 249h-4v-249h-191v534h191v-244z" />
    <glyph glyph-name="uni043B" unicode="&#x43b;" horiz-adv-x="695" 
d="M24 153q40 0 63 31t28 83l23 267h495v-534h-190v376h-134l-12 -118q-5 -53 -19.5 -97.5t-42.5 -83t-74.5 -60t-108.5 -21.5l-28 3v154z" />
    <glyph glyph-name="uni043C" unicode="&#x43c;" horiz-adv-x="844" 
d="M246 0h-184v534h240l122 -294l117 294h241v-534h-185v315h-1l-123 -315h-100l-125 304h-2v-304z" />
    <glyph glyph-name="uni043D" unicode="&#x43d;" horiz-adv-x="657" 
d="M253 343h151v191h190v-534h-190v190h-151v-190h-191v534h191v-191z" />
    <glyph glyph-name="uni043E" unicode="&#x43e;" horiz-adv-x="655" 
d="M33 267q0 119 88.5 199t208.5 80t206 -78t86 -197q0 -121 -87 -202t-209 -81t-207.5 79.5t-85.5 199.5zM224 268q0 -44 30 -76.5t74 -32.5q43 0 73 32.5t30 76.5t-29.5 76t-73.5 32t-74 -32t-30 -76z" />
    <glyph glyph-name="uni043F" unicode="&#x43f;" horiz-adv-x="652" 
d="M590 534v-534h-190v377h-149v-377h-189v534h528z" />
    <glyph glyph-name="uni0440" unicode="&#x440;" horiz-adv-x="692" 
d="M405 -11q-93 0 -149 74h-3v-327h-191v798h189v-64h4q26 35 67.5 54.5t85.5 19.5q108 0 179 -82t71 -195q0 -110 -71 -194t-182 -84zM251 268q0 -45 31 -77t75 -32q45 0 76 32t31 77t-31 76.5t-76 31.5q-44 0 -75 -32t-31 -76z" />
    <glyph glyph-name="uni0441" unicode="&#x441;" horiz-adv-x="614" 
d="M326 -12q-123 0 -207.5 78.5t-84.5 200.5q0 119 87 199t207 80q93 0 166 -49.5t93 -136.5l-168 -51q-10 31 -35 48.5t-57 17.5q-44 0 -72.5 -31t-28.5 -75q0 -46 27.5 -77t74.5 -31q31 0 56.5 18t37.5 48l168 -51q-25 -89 -97 -138.5t-167 -49.5z" />
    <glyph glyph-name="uni0442" unicode="&#x442;" horiz-adv-x="554" 
d="M536 376h-162v-376h-193v376h-163v158h518v-158z" />
    <glyph glyph-name="uni0443" unicode="&#x443;" horiz-adv-x="643" 
d="M437 534h200l-326 -797h-202l127 315l-233 482h209l122 -273h1z" />
    <glyph glyph-name="uni0444" unicode="&#x444;" horiz-adv-x="937" 
d="M373 26q-57 -33 -109 -33q-76 0 -129.5 41t-76 101.5t-22.5 134.5q0 51 13.5 98t40 86.5t72 63t103.5 23.5q57 0 108 -38v280h191v-280q49 38 108 38q113 0 170.5 -80t57.5 -193q0 -72 -22.5 -132t-75.5 -101.5t-130 -41.5q-51 0 -108 33v-270h-191v270zM230 268
q0 -45 24.5 -76t70.5 -31q27 0 48 10v192q-24 11 -48 11q-42 0 -68.5 -31.5t-26.5 -74.5zM707 269q0 42 -26.5 73.5t-68.5 31.5q-26 0 -48 -11v-192q20 -10 48 -10q46 0 70.5 31t24.5 77z" />
    <glyph glyph-name="uni0445" unicode="&#x445;" horiz-adv-x="630" 
d="M317 395l97 139h209l-198 -265l201 -269h-214l-98 144l-99 -144h-211l200 270l-197 264h213z" />
    <glyph glyph-name="uni0446" unicode="&#x446;" horiz-adv-x="700" 
d="M252 534v-378h148v378h190v-378h68v-320h-173v164h-423v534h190z" />
    <glyph glyph-name="uni0447" unicode="&#x447;" horiz-adv-x="623" 
d="M371 163q-56 -24 -142 -24q-84 0 -138 50t-54 133v212h192v-161q0 -76 60 -76q51 0 82 22v215h190v-534h-190v163z" />
    <glyph glyph-name="uni0448" unicode="&#x448;" horiz-adv-x="971" 
d="M580 156h137v378h191v-534h-846v534h190v-378h138v378h190v-378z" />
    <glyph glyph-name="uni0449" unicode="&#x449;" horiz-adv-x="1018" 
d="M252 534v-378h138v378h190v-378h137v378h191v-378h68v-320h-173v164h-741v534h190z" />
    <glyph glyph-name="uni044A" unicode="&#x44a;" horiz-adv-x="712" 
d="M461 385q112 0 171 -52t59 -137q0 -87 -56 -141.5t-165 -54.5h-319v379h-131v155h322v-149h119zM433 138q67 0 67 58q0 54 -68 54h-90v-112h91z" />
    <glyph glyph-name="uni044B" unicode="&#x44b;" horiz-adv-x="939" 
d="M373 385q112 0 171 -52t59 -137q0 -87 -56.5 -141.5t-165.5 -54.5h-319v534h191v-149h120zM877 534v-534h-191v534h191zM344 138q68 0 68 58q0 22 -16 38t-53 16h-90v-112h91z" />
    <glyph glyph-name="uni044C" unicode="&#x44c;" horiz-adv-x="624" 
d="M373 385q112 0 171 -52t59 -137q0 -87 -56.5 -141.5t-165.5 -54.5h-319v534h191v-149h120zM344 138q68 0 68 58q0 22 -16 38t-53 16h-90v-112h91z" />
    <glyph glyph-name="uni044D" unicode="&#x44d;" horiz-adv-x="609" 
d="M285 546q123 0 207 -79t84 -198q0 -122 -85.5 -201.5t-208.5 -79.5q-91 0 -161 46t-98 128l152 47q35 -63 109 -63q38 0 65.5 19.5t39.5 51.5h-152v102h152q-13 32 -41 51.5t-64 19.5q-75 0 -106 -62l-151 48q25 80 97 125t161 45z" />
    <glyph glyph-name="uni044E" unicode="&#x44e;" horiz-adv-x="941" 
d="M625 546q119 0 201 -79t82 -199q0 -122 -83 -201t-204 -79q-100 0 -175 55t-99 146h-93v-189h-192v534h192v-189h93q25 90 102.5 145.5t175.5 55.5zM624 159q42 0 67.5 32t25.5 77t-25.5 76.5t-68.5 31.5q-45 0 -70.5 -30.5t-25.5 -77.5q0 -45 26.5 -77t70.5 -32z" />
    <glyph glyph-name="uni044F" unicode="&#x44f;" horiz-adv-x="654" 
d="M157 201q-112 47 -112 153q0 78 62 129t155 51h329v-534h-188v160h-70l-101 -160h-211zM300 391q-35 0 -50 -15t-15 -35t15.5 -34.5t50.5 -14.5h102v99h-103z" />
    <glyph glyph-name="uni0451" unicode="&#x451;" horiz-adv-x="624" 
d="M289 716q0 -43 -28.5 -71.5t-71.5 -28.5t-71 28.5t-28 71.5q0 42 28 70.5t71 28.5t71.5 -28.5t28.5 -70.5zM549 716q0 -43 -28.5 -71.5t-71.5 -28.5t-71 28.5t-28 71.5q0 42 28 70.5t71 28.5q42 0 71 -28.5t29 -70.5zM588 219q3 19 3 56q0 115 -78.5 193t-194.5 78
q-117 0 -201 -80.5t-84 -197.5q0 -120 85 -200t205 -80q187 0 254 147l-157 55q-33 -54 -93 -54q-40 0 -71 22.5t-38 60.5h370zM315 401q36 0 61 -20t30 -56h-185q7 32 34 54t60 22z" />
    <glyph glyph-name="uni0452" unicode="&#x452;" horiz-adv-x="640" 
d="M312 -98q5 -1 15 -1q35 0 55.5 24t20.5 67v298q0 34 -20 57.5t-53 23.5q-35 0 -56.5 -21.5t-21.5 -59.5v-290h-190v608h-73v127h73v79h190v-79h152v-127h-152v-136h2q59 73 152 73q51 0 88.5 -19.5t58 -53t30.5 -70.5t10 -79v-388q0 -93 -49 -146t-135 -53q-46 0 -97 11
v155z" />
    <glyph glyph-name="uni0453" unicode="&#x453;" horiz-adv-x="509" 
d="M491 819l-171 -196h-143l112 196h202zM252 0h-190v534h430v-158h-240v-376z" />
    <glyph glyph-name="uni0454" unicode="&#x454;" horiz-adv-x="609" 
d="M585 162q-27 -82 -97 -128t-162 -46q-124 0 -208.5 78.5t-84.5 200.5q0 119 87 199t208 80q89 0 158.5 -45t95.5 -125l-151 -48q-31 62 -104 62q-36 0 -64.5 -19.5t-41.5 -51.5h151v-102h-151q12 -32 40.5 -51.5t66.5 -19.5q71 0 106 63z" />
    <glyph glyph-name="uni0455" unicode="&#x455;" horiz-adv-x="533" 
d="M498 171q0 -75 -61 -129t-172 -54q-61 0 -107 15.5t-71 40.5t-38 49t-17 49l152 40q4 -29 24.5 -44t51.5 -15q29 0 42 12t13 25q0 30 -73 39q-197 30 -197 166q0 76 64 128.5t156 52.5q100 0 157.5 -43.5t64.5 -98.5l-153 -38q-10 47 -63 47q-25 0 -37 -11t-12 -23
q0 -28 64 -34q40 -5 74.5 -16t67 -30.5t51.5 -52.5t19 -75z" />
    <glyph glyph-name="uni0456" unicode="&#x456;" horiz-adv-x="316" 
d="M158 605q-45 0 -78 32.5t-33 77.5q0 46 32.5 78.5t78.5 32.5q47 0 79 -32.5t32 -78.5q0 -45 -32.5 -77.5t-78.5 -32.5zM254 534v-534h-192v534h192z" />
    <glyph glyph-name="uni0457" unicode="&#x457;" horiz-adv-x="318" 
d="M131 716q0 -43 -28.5 -71.5t-71.5 -28.5t-71 28.5t-28 71.5q0 42 28 70.5t71 28.5t71.5 -28.5t28.5 -70.5zM386 716q0 -43 -28.5 -71.5t-71.5 -28.5t-71 28.5t-28 71.5q0 42 28 70.5t71 28.5t71.5 -28.5t28.5 -70.5zM255 534v-534h-193v534h193z" />
    <glyph glyph-name="uni0458" unicode="&#x458;" horiz-adv-x="324" 
d="M167 605q-46 0 -78.5 32.5t-32.5 77.5q0 46 32.5 78.5t78.5 32.5t78.5 -32.5t32.5 -78.5q0 -45 -32.5 -77.5t-78.5 -32.5zM70 -42q0 -62 -73 -62q-24 0 -47 5v-150q40 -15 101 -15q103 0 157 60t54 157v581h-192v-576z" />
    <glyph glyph-name="uni0459" unicode="&#x459;" horiz-adv-x="1004" 
d="M297 258q-5 -53 -19.5 -97.5t-42.5 -83t-74.5 -60t-108.5 -21.5l-28 3v154q40 0 63 31t28 83l23 267h495v-149h120q112 0 171 -52t59 -137q0 -87 -56 -141.5t-165 -54.5h-319v376h-134zM724 138q68 0 68 58q0 54 -69 54h-90v-112h91z" />
    <glyph glyph-name="uni045A" unicode="&#x45a;" horiz-adv-x="965" 
d="M253 534v-155h152v155h190v-155h120q112 0 171 -50.5t59 -135.5q0 -86 -56.5 -139.5t-165.5 -53.5h-318v227h-152v-227h-191v534h191zM686 138q68 0 68 55q0 51 -69 51h-90v-106h91z" />
    <glyph glyph-name="uni045B" unicode="&#x45b;" horiz-adv-x="650" 
d="M406 545q51 0 88.5 -19.5t58 -53t30.5 -70.5t10 -79v-323h-190v290q0 34 -20 57.5t-53 23.5q-35 0 -56.5 -21.5t-21.5 -59.5v-290h-190v608h-73v127h73v79h190v-79h152v-127h-152v-136h2q59 73 152 73z" />
    <glyph glyph-name="uni045C" unicode="&#x45c;" horiz-adv-x="657" 
d="M586 819l-170 -196h-144l112 196h202zM253 290h3l181 244h217l-200 -258l205 -276h-223l-179 249h-4v-249h-191v534h191v-244z" />
    <glyph glyph-name="uni045E" unicode="&#x45e;" horiz-adv-x="643" 
d="M226 827q26 -89 99 -89q72 0 98 89l108 -20q-11 -83 -66.5 -135t-140.5 -52q-84 0 -140.5 53.5t-64.5 134.5zM109 -263h202l326 797h-200l-102 -273h-1l-122 273h-209l233 -482z" />
    <glyph glyph-name="uni045F" unicode="&#x45f;" horiz-adv-x="652" 
d="M62 534h190v-378h148v378h190v-534h-177v-164h-174v164h-177v534z" />
    <glyph glyph-name="uni0490" unicode="&#x490;" horiz-adv-x="619" 
d="M603 602h-325v-602h-197v783h331v167h191v-348z" />
    <glyph glyph-name="uni0491" unicode="&#x491;" horiz-adv-x="509" 
d="M319 703h173v-327h-240v-376h-190v534h257v169z" />
    <glyph glyph-name="uni0496" unicode="&#x496;" horiz-adv-x="1195" 
d="M979 0h-44l-249 380h-3v-380h-199v380h-3l-249 -380h-234l267 399l-260 384h227l248 -367l4 1v366h199v-367h3l248 367h228l-261 -384l146 -218h122v-345h-190v164z" />
    <glyph glyph-name="uni0497" unicode="&#x497;" horiz-adv-x="982" 
d="M778 0h-43l-156 259h-4v-259h-191v259h-4l-156 -259h-217l173 275l-166 259h212l155 -247h3v247h191v-247h3l155 247h213l-167 -259l75 -119h98v-320h-174v164z" />
    <glyph glyph-name="uni0498" unicode="&#x498;" horiz-adv-x="684" 
d="M248 -2q-83 19 -141.5 74.5t-76.5 145.5l179 43q11 -55 46 -80t81 -25q47 0 75.5 23t28.5 55q0 77 -104 77h-100v168h94q47 0 72 22t25 53q0 32 -25 53.5t-73 21.5q-41 0 -73 -23.5t-43 -73.5l-177 43q16 78 65 129.5t109 71.5t129 20q118 0 201.5 -59.5t83.5 -162.5
q0 -118 -111 -166v-1q126 -52 126 -181q0 -85 -55 -144t-147 -82v-164h-189v162z" />
    <glyph glyph-name="uni0499" unicode="&#x499;" horiz-adv-x="532" 
d="M175 0q-123 32 -147 143l152 39q12 -59 72 -59q28 0 44.5 14t16.5 32q0 46 -61 46h-48v116h50q26 0 39 13t13 30q0 16 -13.5 28t-40.5 12q-59 0 -71 -59l-150 39q17 81 81.5 116.5t151.5 35.5q95 0 157 -44t62 -121q0 -78 -72 -106q82 -29 82 -113q0 -59 -40 -103
t-106 -61v-162h-172v164z" />
    <glyph glyph-name="uni049A" unicode="&#x49a;" horiz-adv-x="795" 
d="M583 0h-56l-248 371v-371h-198v783h198v-336l242 336h232l-269 -372l161 -230h127v-345h-189v164z" />
    <glyph glyph-name="uni049B" unicode="&#x49b;" horiz-adv-x="681" 
d="M485 0h-50l-178 249h-4v-249h-191v534h191v-244h3l181 244h217l-201 -258l89 -120h116v-320h-173v164z" />
    <glyph glyph-name="uni04A2" unicode="&#x4a2;" horiz-adv-x="889" 
d="M658 0h-90v305h-290v-305h-197v783h197v-296h290v296h198v-602h81v-345h-189v164z" />
    <glyph glyph-name="uni04A3" unicode="&#x4a3;" horiz-adv-x="704" 
d="M489 0h-85v190h-151v-190h-191v534h191v-191h151v191h190v-378h69v-320h-174v164z" />
    <glyph glyph-name="uni04AA" unicode="&#x4aa;" horiz-adv-x="844" 
d="M342 0q-134 32 -219 140t-85 252q0 169 116 286.5t293 117.5q84 0 153 -27t112 -70.5t69 -87.5t37 -88l-184 -57q-13 50 -60.5 97.5t-129.5 47.5q-88 0 -146 -63.5t-58 -154.5t56.5 -154.5t147.5 -63.5q81 0 130 45.5t64 99.5l185 -58q-8 -34 -28.5 -72t-54.5 -77.5
t-88.5 -71t-119.5 -44.5v-161h-190v164z" />
    <glyph glyph-name="uni04AB" unicode="&#x4ab;" horiz-adv-x="614" 
d="M239 0q-92 25 -149 96.5t-57 170.5q0 119 87.5 199t207.5 80q92 0 165 -49.5t93 -136.5l-168 -51q-10 30 -34.5 48t-56.5 18q-44 0 -72.5 -31t-28.5 -75q0 -46 27.5 -77t73.5 -31q32 0 57 18t37 48l168 -51q-18 -67 -64.5 -112.5t-112.5 -63.5v-164h-173v164z" />
    <glyph glyph-name="uni04AC" unicode="&#x4ac;" 
d="M328 0h-89v604h-222v179h640v-179h-221v-423h82v-345h-190v164z" />
    <glyph glyph-name="uni04AD" unicode="&#x4ad;" horiz-adv-x="559" 
d="M269 0h-88v376h-163v158h518v-158h-162v-220h68v-320h-173v164z" />
    <glyph glyph-name="uni04B2" unicode="&#x4b2;" horiz-adv-x="797" 
d="M583 0h-38l-162 249l-164 -249h-224l273 401l-259 382h227l151 -231l149 231h222l-257 -381l149 -221h122v-345h-189v164z" />
    <glyph glyph-name="uni04B3" unicode="&#x4b3;" horiz-adv-x="655" 
d="M453 0h-41l-98 144l-99 -144h-211l200 270l-197 264h213l97 -139l97 139h209l-198 -265l84 -113h117v-320h-173v164z" />
    <glyph glyph-name="uni04B6" unicode="&#x4b6;" horiz-adv-x="832" 
d="M600 0h-89v301q-118 -58 -204 -58q-32 0 -62.5 5t-67.5 22t-64 44t-45.5 75.5t-18.5 111.5v282h198v-234q0 -122 101 -122q97 0 163 50v306h197v-602h82v-345h-190v164z" />
    <glyph glyph-name="uni04B7" unicode="&#x4b7;" horiz-adv-x="670" 
d="M456 0h-85v163q-56 -24 -142 -24q-84 0 -138 50t-54 133v212h192v-161q0 -76 60 -76q51 0 82 22v215h190v-378h68v-320h-173v164z" />
    <glyph glyph-name="uni04C0" unicode="&#x4c0;" horiz-adv-x="359" 
d="M279 0h-198v783h198v-783z" />
    <glyph glyph-name="uni04C1" unicode="&#x4c1;" horiz-adv-x="1167" 
d="M484 1063q27 -88 99 -88q71 0 98 88l109 -19q-12 -83 -67.5 -135.5t-139.5 -52.5t-141 53.5t-65 134.5zM480 416l4 1v366h199v-367h3l248 367h228l-261 -384l267 -399h-233l-249 380h-3v-380h-199v380h-3l-249 -380h-234l267 399l-260 384h227z" />
    <glyph glyph-name="uni04C2" unicode="&#x4c2;" horiz-adv-x="959" 
d="M381 827q26 -89 98 -89q73 0 99 89l108 -20q-11 -83 -66.5 -135t-140.5 -52q-84 0 -140.5 53.5t-65.5 134.5zM952 0h-217l-156 259h-4v-259h-191v259h-4l-156 -259h-217l173 275l-166 259h212l155 -247h3v247h191v-247h3l155 247h213l-167 -259z" />
    <glyph glyph-name="uni04CF" unicode="&#x4cf;" horiz-adv-x="316" 
d="M254 534v-534h-192v534h192z" />
    <glyph glyph-name="uni04D0" unicode="&#x4d0;" horiz-adv-x="808" 
d="M305 1063q27 -88 99 -88q71 0 98 88l108 -19q-11 -83 -66.5 -135.5t-140.5 -52.5q-84 0 -140.5 53.5t-64.5 134.5zM816 0h-209l-54 144h-302l-52 -144h-207l301 783h222zM309 311h188l-95 250z" />
    <glyph glyph-name="uni04D1" unicode="&#x4d1;" horiz-adv-x="599" 
d="M194 827q26 -89 98 -89q73 0 99 89l108 -20q-11 -83 -66.5 -135t-140.5 -52q-84 0 -140.5 53.5t-65.5 134.5zM283 401q-29 0 -51.5 -16.5t-27.5 -42.5l-159 35q15 85 86.5 127t158.5 42q111 0 181.5 -56.5t70.5 -163.5v-326h-181v62l-2 1q-63 -73 -162 -73
q-67 0 -114.5 45t-47.5 112q0 46 23 80.5t61.5 52.5t80.5 26.5t88 8.5h28q38 0 38 33q0 22 -18.5 37.5t-52.5 15.5zM273 122q36 0 58.5 20t22.5 55v16h-66q-25 0 -44 -11.5t-19 -34.5q0 -19 14.5 -32t33.5 -13z" />
    <glyph glyph-name="uni04D2" unicode="&#x4d2;" horiz-adv-x="808" 
d="M369 965q0 -43 -28.5 -71.5t-71.5 -28.5t-71 28.5t-28 71.5q0 42 28 70.5t71 28.5t71.5 -28.5t28.5 -70.5zM638 965q0 -43 -28 -71.5t-71 -28.5t-71.5 28.5t-28.5 71.5q0 42 28.5 70.5t71.5 28.5q42 0 70.5 -28.5t28.5 -70.5zM816 0h-209l-54 144h-302l-52 -144h-207
l301 783h222zM309 311h188l-95 250z" />
    <glyph glyph-name="uni04D3" unicode="&#x4d3;" horiz-adv-x="599" 
d="M261 716q0 -43 -28.5 -71.5t-71.5 -28.5t-71 28.5t-28 71.5q0 42 28 70.5t71 28.5t71.5 -28.5t28.5 -70.5zM521 716q0 -43 -28.5 -71.5t-71.5 -28.5t-71 28.5t-28 71.5q0 42 28 70.5t71 28.5t71.5 -28.5t28.5 -70.5zM283 401q-29 0 -51.5 -16.5t-27.5 -42.5l-159 35
q15 85 86.5 127t158.5 42q111 0 181.5 -56.5t70.5 -163.5v-326h-181v62l-2 1q-63 -73 -162 -73q-67 0 -114.5 45t-47.5 112q0 46 23 80.5t61.5 52.5t80.5 26.5t88 8.5h28q38 0 38 33q0 22 -18.5 37.5t-52.5 15.5zM273 122q36 0 58.5 20t22.5 55v16h-66q-25 0 -44 -11.5
t-19 -34.5q0 -19 14.5 -32t33.5 -13z" />
    <glyph glyph-name="uni04D4" unicode="&#x4d4;" horiz-adv-x="1074" 
d="M671 480h315v-169h-315v-135h350v-176h-541v124h-229l-55 -124h-208l367 783h663v-175h-347v-128zM480 291v320h-9l-143 -320h152z" />
    <glyph glyph-name="uni04D5" unicode="&#x4d5;" horiz-adv-x="945" 
d="M539 219q5 -36 34.5 -59.5t73.5 -23.5q62 0 94 54l156 -55q-67 -147 -259 -147q-132 0 -211 96q-83 -96 -216 -96h-5q-72 0 -121.5 46t-49.5 113q0 46 23 80.5t61.5 52.5t80.5 26.5t88 8.5h28q38 0 38 33q0 22 -18.5 37.5t-52.5 15.5q-29 0 -51.5 -16.5t-27.5 -42.5
l-159 35q15 85 86.5 127t158.5 42q114 0 180 -56q74 56 169 56q115 0 194 -78t79 -193l-3 -56h-370zM636 401q-35 0 -61.5 -23t-32.5 -53h185q-5 36 -30 56t-61 20zM273 122q36 0 58.5 20t22.5 55v16h-66q-25 0 -44 -11.5t-19 -34.5q0 -19 14.5 -32t33.5 -13z" />
    <glyph glyph-name="uni04D6" unicode="&#x4d6;" horiz-adv-x="684" 
d="M257 1063q27 -88 98 -88q72 0 99 88l108 -19q-11 -83 -67 -135.5t-140 -52.5t-140.5 53.5t-65.5 134.5zM596 311h-320v-135h355v-176h-550v783h547v-175h-352v-128h320v-169z" />
    <glyph glyph-name="uni04D7" unicode="&#x4d7;" horiz-adv-x="624" 
d="M216 827q26 -89 99 -89q72 0 98 89l108 -20q-11 -83 -66.5 -135t-140.5 -52q-84 0 -140.5 53.5t-64.5 134.5zM218 219q7 -38 38 -60.5t71 -22.5q60 0 93 54l157 -55q-67 -147 -254 -147q-120 0 -205 80t-85 200q0 117 84 197.5t201 80.5q116 0 194.5 -78t78.5 -193
q0 -37 -3 -56h-370zM315 401q-33 0 -60 -22t-34 -54h185q-5 36 -30 56t-61 20z" />
    <glyph glyph-name="uni04DC" unicode="&#x4dc;" horiz-adv-x="1167" 
d="M549 965q0 -43 -28.5 -71.5t-71.5 -28.5t-71 28.5t-28 71.5q0 42 28 70.5t71 28.5t71.5 -28.5t28.5 -70.5zM818 965q0 -43 -28 -71.5t-71 -28.5t-71 28.5t-28 71.5q0 42 28 70.5t71 28.5q42 0 70.5 -28.5t28.5 -70.5zM480 416l4 1v366h199v-367h3l248 367h228l-261 -384
l267 -399h-233l-249 380h-3v-380h-199v380h-3l-249 -380h-234l267 399l-260 384h227z" />
    <glyph glyph-name="uni04DD" unicode="&#x4dd;" horiz-adv-x="959" 
d="M449 716q0 -43 -28.5 -71.5t-71.5 -28.5t-71 28.5t-28 71.5q0 42 28 70.5t71 28.5t71.5 -28.5t28.5 -70.5zM709 716q0 -43 -28.5 -71.5t-71.5 -28.5t-71 28.5t-28 71.5q0 42 28 70.5t71 28.5t71.5 -28.5t28.5 -70.5zM952 0h-217l-156 259h-4v-259h-191v259h-4l-156 -259
h-217l173 275l-166 259h212l155 -247h3v247h191v-247h3l155 247h213l-167 -259z" />
    <glyph glyph-name="uni04DE" unicode="&#x4de;" horiz-adv-x="684" 
d="M303 967q0 -43 -28.5 -72t-72.5 -29q-43 0 -71.5 28.5t-28.5 72.5q0 43 28.5 72t71.5 29t72 -29t29 -72zM576 967q0 -43 -29 -72t-72 -29t-71.5 28.5t-28.5 72.5q0 43 28.5 72t71.5 29t72 -29t29 -72zM335 -12q-113 0 -197.5 59t-107.5 171l179 43q11 -55 46 -80t81 -25
q47 0 75.5 23t28.5 55q0 77 -104 77h-100v168h94q47 0 72 22t25 53q0 32 -25 53.5t-73 21.5q-41 0 -73 -23.5t-43 -73.5l-178 43q24 114 109 167.5t195 53.5q118 0 201 -59.5t83 -162.5q0 -118 -110 -166v-1q126 -52 126 -181q0 -108 -87 -173t-217 -65z" />
    <glyph glyph-name="uni04DF" unicode="&#x4df;" horiz-adv-x="533" 
d="M230 716q0 -43 -28 -71.5t-71 -28.5t-71 28.5t-28 71.5q0 42 28 70.5t71 28.5q42 0 70.5 -28.5t28.5 -70.5zM491 716q0 -43 -29 -71.5t-72 -28.5t-70.5 28.5t-27.5 71.5q0 42 28 70.5t70 28.5q43 0 72 -28.5t29 -70.5zM271 -12q-89 0 -157 36.5t-86 118.5l152 39
q6 -29 25.5 -44t47.5 -15t44.5 14t16.5 32q0 46 -61 46h-49v116h50q26 0 39.5 13t13.5 30q0 16 -13.5 28t-41.5 12q-59 0 -71 -59l-149 39q17 81 81.5 116.5t151.5 35.5q95 0 156.5 -44t61.5 -121q0 -78 -71 -106q82 -29 82 -113q0 -76 -63.5 -125t-159.5 -49z" />
    <glyph glyph-name="uni04E2" unicode="&#x4e2;" horiz-adv-x="859" 
d="M622 868h-387v136h387v-136zM581 477l-297 -477h-203v783h195v-451h1l284 451h218v-783h-197v477h-1z" />
    <glyph glyph-name="uni04E3" unicode="&#x4e3;" horiz-adv-x="664" 
d="M525 628h-385v137h385v-137zM250 277l169 257h182v-534h-185v262l-2 1l-173 -263h-179v534h186v-256z" />
    <glyph glyph-name="uni04E4" unicode="&#x4e4;" horiz-adv-x="859" 
d="M393 965q0 -43 -28.5 -71.5t-71.5 -28.5t-71 28.5t-28 71.5q0 42 28 70.5t71 28.5t71.5 -28.5t28.5 -70.5zM662 965q0 -43 -28.5 -71.5t-71.5 -28.5t-71 28.5t-28 71.5q0 42 28.5 70.5t70.5 28.5q43 0 71.5 -28.5t28.5 -70.5zM581 477l-297 -477h-203v783h195v-451h1
l284 451h218v-783h-197v477h-1z" />
    <glyph glyph-name="uni04E5" unicode="&#x4e5;" horiz-adv-x="664" 
d="M301 716q0 -43 -28.5 -71.5t-71.5 -28.5t-71 28.5t-28 71.5q0 42 28.5 70.5t70.5 28.5q43 0 71.5 -28.5t28.5 -70.5zM561 716q0 -43 -28.5 -71.5t-71.5 -28.5t-71 28.5t-28 71.5q0 42 28 70.5t71 28.5t71.5 -28.5t28.5 -70.5zM250 277l169 257h182v-534h-185v262l-2 1
l-173 -263h-179v534h186v-256z" />
    <glyph glyph-name="uni04E6" unicode="&#x4e6;" horiz-adv-x="893" 
d="M410 965q0 -43 -28 -71.5t-71 -28.5t-71.5 28.5t-28.5 71.5q0 42 28.5 70.5t71.5 28.5q42 0 70.5 -28.5t28.5 -70.5zM680 965q0 -43 -28.5 -71.5t-71.5 -28.5t-71 28.5t-28 71.5q0 42 28 70.5t71 28.5t71.5 -28.5t28.5 -70.5zM37 392q0 169 120.5 286.5t290.5 117.5
t288.5 -115.5t118.5 -285.5t-119.5 -288.5t-289.5 -118.5t-289.5 117t-119.5 287zM239 393q0 -89 60 -154.5t148 -65.5t147.5 65.5t59.5 154.5t-59.5 154t-147.5 65t-148 -65t-60 -154z" />
    <glyph glyph-name="uni04E7" unicode="&#x4e7;" horiz-adv-x="655" 
d="M298 716q0 -43 -28 -71.5t-71 -28.5t-71 28.5t-28 71.5q0 42 28 70.5t71 28.5q42 0 70.5 -28.5t28.5 -70.5zM559 716q0 -43 -29 -71.5t-72 -28.5t-70.5 28.5t-27.5 71.5q0 42 28 70.5t70 28.5q43 0 72 -28.5t29 -70.5zM33 267q0 119 88.5 199t208.5 80t206 -78t86 -197
q0 -121 -87 -202t-209 -81t-207.5 79.5t-85.5 199.5zM224 268q0 -44 30 -76.5t74 -32.5q43 0 73 32.5t30 76.5t-29.5 76t-73.5 32t-74 -32t-30 -76z" />
    <glyph glyph-name="uni04E8" unicode="&#x4e8;" horiz-adv-x="893" 
d="M446 -12q-170 0 -289.5 117t-119.5 287q0 169 120.5 286.5t290.5 117.5t288.5 -115.5t118.5 -285.5t-119.5 -288.5t-289.5 -118.5zM447 616q-69 0 -124.5 -41t-74.5 -102h398q-18 60 -74 101.5t-125 41.5zM246 317q19 -63 75 -105.5t126 -42.5t126 42.5t74 105.5h-401z
" />
    <glyph glyph-name="uni04E9" unicode="&#x4e9;" horiz-adv-x="654" 
d="M325 -12q-122 0 -207 79t-85 200q0 119 88 199t208 80t206.5 -78.5t86.5 -196.5q0 -121 -87 -202t-210 -81zM327 396q-39 0 -70.5 -22.5t-43.5 -57.5h228q-12 35 -43 57.5t-71 22.5zM213 220q12 -35 43.5 -58t71.5 -23q39 0 70 23.5t43 57.5h-228z" />
    <glyph glyph-name="uni04EA" unicode="&#x4ea;" horiz-adv-x="893" 
d="M410 965q0 -43 -28 -71.5t-71 -28.5t-71.5 28.5t-28.5 71.5q0 42 28.5 70.5t71.5 28.5q42 0 70.5 -28.5t28.5 -70.5zM680 965q0 -43 -28.5 -71.5t-71.5 -28.5t-71 28.5t-28 71.5q0 42 28 70.5t71 28.5t71.5 -28.5t28.5 -70.5zM446 -12q-170 0 -289.5 117t-119.5 287
q0 169 120.5 286.5t290.5 117.5t288.5 -115.5t118.5 -285.5t-119.5 -288.5t-289.5 -118.5zM447 616q-69 0 -124.5 -41t-74.5 -102h398q-18 60 -74 101.5t-125 41.5zM246 317q19 -63 75 -105.5t126 -42.5t126 42.5t74 105.5h-401z" />
    <glyph glyph-name="uni04EB" unicode="&#x4eb;" horiz-adv-x="655" 
d="M298 716q0 -43 -28 -71.5t-71 -28.5t-71 28.5t-28 71.5q0 42 28 70.5t71 28.5q42 0 70.5 -28.5t28.5 -70.5zM559 716q0 -43 -29 -71.5t-72 -28.5t-70.5 28.5t-27.5 71.5q0 42 28 70.5t70 28.5q43 0 72 -28.5t29 -70.5zM326 -12q123 0 210 81t87 202q0 118 -86.5 196.5
t-206.5 78.5t-208.5 -80.5t-88.5 -198.5q0 -120 85.5 -199.5t207.5 -79.5zM328 396q39 0 71 -23t43 -57h-228q12 35 43 57.5t71 22.5zM442 220q-12 -34 -43 -57.5t-70 -23.5q-40 0 -71.5 23t-43.5 58h228z" />
    <glyph glyph-name="uni04EC" unicode="&#x4ec;" horiz-adv-x="845" 
d="M374 965q0 -43 -28.5 -71.5t-71.5 -28.5t-71 28.5t-28 71.5q0 42 28 70.5t71 28.5t71.5 -28.5t28.5 -70.5zM643 965q0 -43 -28.5 -71.5t-71.5 -28.5t-71 28.5t-28 71.5q0 42 28.5 70.5t70.5 28.5q43 0 71.5 -28.5t28.5 -70.5zM406 796q174 0 288 -117t114 -284
q0 -174 -117 -290.5t-290 -116.5q-68 0 -128.5 19t-101.5 48.5t-73.5 67t-50 71.5t-25.5 66l180 56q16 -54 68 -99.5t134 -45.5q70 0 121.5 40t72.5 104h-279v161h277q-22 62 -73.5 100.5t-118.5 38.5q-83 0 -134 -47t-64 -97l-179 54q12 44 39.5 88t72 86.5t114.5 69.5
t153 27z" />
    <glyph glyph-name="uni04ED" unicode="&#x4ed;" horiz-adv-x="609" 
d="M269 716q0 -43 -28.5 -71.5t-71.5 -28.5t-71 28.5t-28 71.5q0 42 28.5 70.5t70.5 28.5q43 0 71.5 -28.5t28.5 -70.5zM529 716q0 -43 -28.5 -71.5t-71.5 -28.5t-70.5 28.5t-27.5 71.5q0 42 28 70.5t70 28.5q43 0 71.5 -28.5t28.5 -70.5zM285 546q123 0 207 -79t84 -198
q0 -122 -85.5 -201.5t-208.5 -79.5q-91 0 -161 46t-98 128l152 47q35 -63 109 -63q38 0 65.5 19.5t39.5 51.5h-152v102h152q-13 32 -41 51.5t-64 19.5q-75 0 -106 -62l-151 48q25 80 97 125t161 45z" />
    <glyph glyph-name="uni04EE" unicode="&#x4ee;" horiz-adv-x="738" 
d="M569 868h-386v136h386v-136zM486 242q-22 -45 -36.5 -70t-42.5 -63t-55.5 -58t-70.5 -35.5t-93 -15.5h-125v176h103q43 0 69 16t49 66l-286 525h221l171 -325l152 325h213z" />
    <glyph glyph-name="uni04EF" unicode="&#x4ef;" horiz-adv-x="643" 
d="M513 628h-386v137h386v-137zM437 534h200l-326 -797h-202l127 315l-233 482h209l122 -273h1z" />
    <glyph glyph-name="uni04F0" unicode="&#x4f0;" horiz-adv-x="738" 
d="M344 965q0 -43 -28 -71.5t-71 -28.5t-71 28.5t-28 71.5q0 42 28 70.5t71 28.5q42 0 70.5 -28.5t28.5 -70.5zM614 965q0 -43 -28.5 -71.5t-71.5 -28.5t-71 28.5t-28 71.5q0 42 28.5 70.5t70.5 28.5q43 0 71.5 -28.5t28.5 -70.5zM486 242q-22 -45 -36.5 -70t-42.5 -63
t-55.5 -58t-70.5 -35.5t-93 -15.5h-125v176h103q43 0 69 16t49 66l-286 525h221l171 -325l152 325h213z" />
    <glyph glyph-name="uni04F1" unicode="&#x4f1;" horiz-adv-x="643" 
d="M294 716q0 -43 -28 -71.5t-71 -28.5t-71 28.5t-28 71.5q0 42 28 70.5t71 28.5q42 0 70.5 -28.5t28.5 -70.5zM555 716q0 -43 -28.5 -71.5t-71.5 -28.5t-71 28.5t-28 71.5q0 42 28 70.5t71 28.5q42 0 71 -28.5t29 -70.5zM437 534h200l-326 -797h-202l127 315l-233 482h209
l122 -273h1z" />
    <glyph glyph-name="uni04F2" unicode="&#x4f2;" horiz-adv-x="738" 
d="M493 1048l-166 -196h-139l112 196h193zM732 1048l-166 -196h-138l112 196h192zM486 242q-22 -45 -36.5 -70t-42.5 -63t-55.5 -58t-70.5 -35.5t-93 -15.5h-125v176h103q43 0 69 16t49 66l-286 525h221l171 -325l152 325h213z" />
    <glyph glyph-name="uni04F3" unicode="&#x4f3;" horiz-adv-x="643" 
d="M430 819l-166 -196h-139l112 196h193zM669 819l-166 -196h-138l112 196h192zM437 534h200l-326 -797h-202l127 315l-233 482h209l122 -273h1z" />
    <glyph glyph-name="uni04F4" unicode="&#x4f4;" horiz-adv-x="789" 
d="M342 965q0 -43 -28 -71.5t-71 -28.5t-71 28.5t-28 71.5q0 42 28 70.5t71 28.5q42 0 70.5 -28.5t28.5 -70.5zM612 965q0 -43 -28.5 -71.5t-71.5 -28.5t-71 28.5t-28 71.5q0 42 28 70.5t71 28.5t71.5 -28.5t28.5 -70.5zM511 301q-118 -58 -204 -58q-32 0 -62.5 5t-67.5 22
t-64 44t-45.5 75.5t-18.5 111.5v282h198v-234q0 -122 101 -122q97 0 163 50v306h197v-783h-197v301z" />
    <glyph glyph-name="uni04F5" unicode="&#x4f5;" horiz-adv-x="623" 
d="M268 716q0 -43 -28.5 -71.5t-71.5 -28.5t-71 28.5t-28 71.5q0 42 28.5 70.5t70.5 28.5q43 0 71.5 -28.5t28.5 -70.5zM528 716q0 -43 -28.5 -71.5t-71.5 -28.5t-70.5 28.5t-27.5 71.5q0 42 28 70.5t70 28.5q43 0 71.5 -28.5t28.5 -70.5zM371 163q-56 -24 -142 -24
q-84 0 -138 50t-54 133v212h192v-161q0 -76 60 -76q51 0 82 22v215h190v-534h-190v163z" />
    <glyph glyph-name="uni04F8" unicode="&#x4f8;" horiz-adv-x="1106" 
d="M521 965q0 -43 -28.5 -71.5t-71.5 -28.5t-71 28.5t-28 71.5q0 42 28 70.5t71 28.5t71.5 -28.5t28.5 -70.5zM790 965q0 -43 -28.5 -71.5t-71.5 -28.5t-71 28.5t-28 71.5q0 42 28.5 70.5t70.5 28.5q43 0 71.5 -28.5t28.5 -70.5zM437 507q123 0 202 -62.5t79 -186.5
q0 -126 -82.5 -192t-208.5 -66h-346v783h197v-276h159zM1026 0h-198v783h198v-783zM419 174q102 0 102 86q0 80 -103 80h-140v-166h141z" />
    <glyph glyph-name="uni04F9" unicode="&#x4f9;" horiz-adv-x="939" 
d="M438 716q0 -43 -28 -71.5t-71 -28.5t-71 28.5t-28 71.5q0 42 28 70.5t71 28.5t71 -28.5t28 -70.5zM699 716q0 -43 -28.5 -71.5t-71.5 -28.5t-71 28.5t-28 71.5q0 42 28 70.5t71 28.5q42 0 71 -28.5t29 -70.5zM373 385q112 0 171 -52t59 -137q0 -87 -56.5 -141.5
t-165.5 -54.5h-319v534h191v-149h120zM877 534v-534h-191v534h191zM344 138q68 0 68 58q0 22 -16 38t-53 16h-90v-112h91z" />
    <glyph glyph-name="uni0E3F" unicode="&#xe3f;" horiz-adv-x="745" 
d="M545 404q74 -12 116.5 -62t42.5 -121q0 -109 -80.5 -165t-198.5 -56h-15v-102h-74v102h-255v783h255v108h74v-108h10q126 0 198 -73q52 -52 52 -133q0 -59 -33 -102t-92 -67v-4zM338 619h-67v-146h67v146zM481 547q0 69 -73 72v-146q36 2 54.5 21.5t18.5 52.5zM338 319
h-67v-152h67v152zM424 167q39 0 62.5 20t23.5 56q0 37 -24 56.5t-62 19.5h-16v-152h16z" />
    <glyph glyph-name="uni1E20" unicode="&#x1e20;" horiz-adv-x="854" 
d="M642 858h-387v136h387v-136zM821 352q0 -155 -103.5 -259.5t-269.5 -104.5q-177 0 -294 115t-117 289q0 165 120 284.5t290 119.5q78 0 143.5 -23t108 -61t69 -78.5t38.5 -83.5l-192 -51q-10 43 -52.5 81t-116.5 38q-88 0 -148.5 -63t-60.5 -161q0 -96 59 -162t153 -66
q59 0 107.5 29.5t59.5 74.5h-225v158h431v-76z" />
    <glyph glyph-name="uni1E21" unicode="&#x1e21;" horiz-adv-x="688" 
d="M522 628h-385v137h385v-137zM432 80q-59 -76 -147 -76q-111 0 -180.5 76t-69.5 191q0 119 74 194.5t177 75.5q92 0 148 -72h3v65h188v-522q0 -132 -82.5 -205.5t-217.5 -73.5q-124 0 -197 56t-93 136l168 51q19 -80 116 -80q53 0 84.5 27.5t31.5 84.5v72h-3zM437 273
q0 44 -30 73.5t-74 29.5t-74 -30t-30 -74t30 -74.5t74 -30.5t74 31t30 75z" />
    <glyph glyph-name="uni1E30" unicode="&#x1e30;" horiz-adv-x="765" 
d="M632 1048l-170 -196h-143l111 196h202zM522 783h232l-269 -372l288 -411h-246l-247 371v-371h-199v783h199v-336z" />
    <glyph glyph-name="uni1E31" unicode="&#x1e31;" horiz-adv-x="640" 
d="M680 819l-170 -196h-143l111 196h202zM252 312l161 222h220l-180 -248l186 -286h-222l-161 260h-4v-260h-190v815h190v-503z" />
    <glyph glyph-name="uni1E60" unicode="&#x1e60;" horiz-adv-x="695" 
d="M352 854q-46 0 -78.5 32.5t-32.5 77.5q0 46 32.5 78.5t78.5 32.5t78 -32.5t32 -78.5q0 -45 -32 -77.5t-78 -32.5zM357 -11q-142 0 -225 67.5t-103 183.5l178 42q8 -66 50 -96.5t101 -30.5q49 0 73 23t24 51q0 50 -67 63l-108 21q-100 19 -160 79t-60 151q0 109 85 181
t203 72q70 0 126 -20.5t89.5 -54.5t52 -72t24.5 -79l-173 -49q-7 50 -38 80t-82 30q-42 0 -66.5 -23t-24.5 -49q0 -53 58 -65l113 -21q109 -21 168 -84t59 -151q0 -101 -81 -175t-216 -74z" />
    <glyph glyph-name="uni1E61" unicode="&#x1e61;" horiz-adv-x="535" 
d="M269 605q-45 0 -77.5 32.5t-32.5 77.5q0 46 32 78.5t78 32.5q47 0 79 -32.5t32 -78.5q0 -45 -32 -77.5t-79 -32.5zM266 546q-91 0 -156 -52.5t-65 -128.5q0 -68 47 -106t118 -52l59 -12q48 -11 48 -35q0 -13 -13 -25t-42 -12q-32 0 -53 15.5t-23 43.5l-156 -30
q3 -25 15 -50.5t37.5 -52.5t74.5 -44t114 -17q106 0 167.5 54t61.5 129q0 69 -48.5 109t-121.5 55l-76 16q-30 5 -30 28q0 12 12 23t36 11q56 0 63 -47l154 29q-4 56 -61 103.5t-162 47.5z" />
    <glyph glyph-name="Wgrave" unicode="&#x1e80;" horiz-adv-x="1197" 
d="M522 852l-170 196h202l111 -196h-143zM353 288l151 495h190l155 -496h2l135 496h200l-231 -783h-199l-157 530h-1l-161 -530h-195l-230 783h206l132 -495h3z" />
    <glyph glyph-name="wgrave" unicode="&#x1e81;" horiz-adv-x="911" 
d="M385 623l-170 196h202l111 -196h-143zM533 534l96 -289h1l88 289h182l-172 -534h-181l-91 286h-2l-94 -286h-179l-169 534h189l83 -287h1l93 287h155z" />
    <glyph glyph-name="Wacute" unicode="&#x1e82;" horiz-adv-x="1197" 
d="M844 1048l-171 -196h-143l112 196h202zM353 288l151 495h190l155 -496h2l135 496h200l-231 -783h-199l-157 530h-1l-161 -530h-195l-230 783h206l132 -495h3z" />
    <glyph glyph-name="wacute" unicode="&#x1e83;" horiz-adv-x="911" 
d="M701 819l-171 -196h-143l112 196h202zM533 534l96 -289h1l88 289h182l-172 -534h-181l-91 286h-2l-94 -286h-179l-169 534h189l83 -287h1l93 287h155z" />
    <glyph glyph-name="Wdieresis" unicode="&#x1e84;" horiz-adv-x="1197" 
d="M568 965q0 -43 -28 -71t-71 -28t-71 28t-28 71t28 71.5t71 28.5q42 0 70.5 -28.5t28.5 -71.5zM829 965q0 -43 -28.5 -71t-71.5 -28t-71 28t-28 71t28 71.5t71 28.5q42 0 71 -28.5t29 -71.5zM353 288l151 495h190l155 -496h2l135 496h200l-231 -783h-199l-157 530h-1
l-161 -530h-195l-230 783h206l132 -495h3z" />
    <glyph glyph-name="wdieresis" unicode="&#x1e85;" horiz-adv-x="911" 
d="M426 716q0 -43 -28.5 -71.5t-71.5 -28.5t-71 28.5t-28 71.5q0 42 28.5 70.5t70.5 28.5q43 0 71.5 -28.5t28.5 -70.5zM686 716q0 -43 -28.5 -71.5t-71.5 -28.5t-71 28.5t-28 71.5q0 42 28 70.5t71 28.5t71.5 -28.5t28.5 -70.5zM533 534l96 -289h1l88 289h182l-172 -534
h-181l-91 286h-2l-94 -286h-179l-169 534h189l83 -287h1l93 287h155z" />
    <glyph glyph-name="uni1E90" unicode="&#x1e90;" horiz-adv-x="703" 
d="M561 854h-152l-61 101l-61 -101h-153l126 188h176zM39 0h617v176h-363l362 442v165h-599v-174h344l-361 -442v-167z" />
    <glyph glyph-name="uni1E91" unicode="&#x1e91;" horiz-adv-x="561" 
d="M493 624h-152l-61 101l-61 -101h-153l126 189h176zM265 377l-223 -227v-150h476v156h-237l234 237v141h-465v-157h215z" />
    <glyph glyph-name="uni1EBC" unicode="&#x1ebc;" horiz-adv-x="684" 
d="M441 854q-39 0 -89 27q-21 12 -35 18q-20 9 -33 9q-31 0 -34 -53h-100l-1 28q-1 67 29.5 107.5t93.5 40.5q36 0 86 -26q16 -9 35 -18q18 -8 33 -8q30 0 35 33l3 17h97l1 -29q2 -66 -28 -106t-93 -40zM596 311h-320v-135h355v-176h-550v783h547v-175h-352v-128h320v-169z
" />
    <glyph glyph-name="uni1EBD" unicode="&#x1ebd;" horiz-adv-x="624" 
d="M398 624q-38 0 -88 27q-30 16 -35 18q-17 9 -34 9q-30 0 -33 -53h-101v29q-2 67 28.5 107.5t93.5 40.5q40 0 86 -27q6 -3 17.5 -9t18.5 -9q18 -8 32 -8q29 0 36 33l2 17h97l1 -29q2 -66 -28 -106t-93 -40zM588 219q3 29 3 56q0 115 -78.5 193t-194.5 78
q-117 0 -201 -80.5t-84 -197.5q0 -120 84.5 -200t205.5 -80q187 0 254 147l-157 55q-34 -54 -94 -54q-39 0 -70 22.5t-38 60.5h370zM314 401q37 0 62 -20.5t30 -55.5h-185q7 32 34 54t59 22z" />
    <glyph glyph-name="Ygrave" unicode="&#x1ef2;" horiz-adv-x="768" 
d="M314 852l-171 196h202l112 -196h-143zM545 783h218l-280 -481v-302h-198v302l-279 481h223l157 -281z" />
    <glyph glyph-name="ygrave" unicode="&#x1ef3;" horiz-adv-x="643" 
d="M265 623l-171 196h202l112 -196h-143zM437 534h200l-326 -797h-202l127 315l-233 482h209l122 -273h1z" />
    <glyph glyph-name="endash" unicode="&#x2013;" horiz-adv-x="612" 
d="M554 247h-496v157h496v-157z" />
    <glyph glyph-name="emdash" unicode="&#x2014;" horiz-adv-x="995" 
d="M937 247h-879v157h879v-157z" />
    <glyph glyph-name="quoteleft" unicode="&#x2018;" horiz-adv-x="323" 
d="M38 562q0 67 40.5 130t108.5 110l66 -61q-79 -54 -114 -128q20 9 43 9q40 0 68.5 -29t28.5 -73q0 -47 -34.5 -79t-83.5 -32q-55 0 -89 40t-34 105v8z" />
    <glyph glyph-name="quoteright" unicode="&#x2019;" horiz-adv-x="318" 
d="M284 635q0 -67 -40 -130t-109 -110l-66 61q79 54 114 128q-18 -9 -42 -9q-41 0 -69.5 29t-28.5 73q0 47 34.5 79.5t83.5 32.5q55 0 89 -40.5t34 -105.5v-8z" />
    <glyph glyph-name="quotesinglbase" unicode="&#x201a;" horiz-adv-x="322" 
d="M281 67q0 -67 -40.5 -130t-108.5 -110l-66 61q79 54 114 128q-20 -9 -43 -9q-40 0 -68.5 29t-28.5 73q0 47 34.5 79.5t83.5 32.5q55 0 89 -40.5t34 -105.5v-8z" />
    <glyph glyph-name="quotedblleft" unicode="&#x201c;" horiz-adv-x="603" 
d="M38 562q0 67 40 130t109 110l66 -61q-79 -54 -114 -128q18 9 42 9q41 0 69.5 -29t28.5 -73q0 -47 -34.5 -79t-83.5 -32q-55 0 -89 40t-34 105v8zM319 562q0 67 40.5 130t108.5 110l66 -61q-79 -54 -114 -128q20 9 43 9q40 0 68.5 -29t28.5 -73q0 -47 -34.5 -79t-83.5 -32
q-55 0 -89 40t-34 105v8z" />
    <glyph glyph-name="quotedblright" unicode="&#x201d;" horiz-adv-x="607" 
d="M291 635q0 -67 -40.5 -130t-108.5 -110l-66 61q79 54 114 128q-20 -9 -43 -9q-40 0 -68.5 29t-28.5 73q0 47 34.5 79.5t83.5 32.5q55 0 89 -40.5t34 -105.5v-8zM572 635q0 -67 -40 -130t-109 -110l-66 61q79 54 114 128q-18 -9 -42 -9q-41 0 -69.5 29t-28.5 73
q0 47 34.5 79.5t83.5 32.5q55 0 89 -40.5t34 -105.5v-8z" />
    <glyph glyph-name="quotedblbase" unicode="&#x201e;" horiz-adv-x="595" 
d="M281 67q0 -67 -40.5 -130t-108.5 -110l-66 61q79 54 114 128q-20 -9 -43 -9q-40 0 -68.5 29t-28.5 73q0 47 34.5 79.5t83.5 32.5q55 0 89 -40.5t34 -105.5v-8zM562 67q0 -67 -40 -130t-109 -110l-66 61q79 54 114 128q-18 -9 -42 -9q-41 0 -69.5 29t-28.5 73
q0 47 34.5 79.5t83.5 32.5q55 0 89 -40.5t34 -105.5v-8z" />
    <glyph glyph-name="dagger" unicode="&#x2020;" horiz-adv-x="709" 
d="M265 784h178v-229h189v-158h-189v-397h-178v397h-187v158h187v229z" />
    <glyph glyph-name="daggerdbl" unicode="&#x2021;" horiz-adv-x="709" 
d="M265 376h-212v158h212v207h178v-207h213v-158h-213v-217h213v-159h-213v-206h-178v206h-212v159h212v217z" />
    <glyph glyph-name="bullet" unicode="&#x2022;" horiz-adv-x="468" 
d="M234 190q-72 0 -122.5 51.5t-50.5 123.5t51 124.5t122 52.5q72 0 123 -52.5t51 -124.5t-51 -123.5t-123 -51.5z" />
    <glyph glyph-name="ellipsis" unicode="&#x2026;" horiz-adv-x="1037" 
d="M158 -11q-48 0 -82 34t-34 81q0 49 34 84t82 35q49 0 83 -35t34 -84q0 -47 -34 -81t-83 -34zM518 -11q-48 0 -82.5 34t-34.5 81q0 49 34.5 84t82.5 35q49 0 83 -35t34 -84q0 -47 -34.5 -81t-82.5 -34zM878 -11q-48 0 -82.5 34t-34.5 81q0 49 34 84t83 35t83 -35t34 -84
q0 -47 -34.5 -81t-82.5 -34z" />
    <glyph glyph-name="perthousand" unicode="&#x2030;" horiz-adv-x="1369" 
d="M223 411q-79 0 -135 55.5t-56 134.5t56 134.5t135 55.5t134.5 -55.5t55.5 -134.5t-55.5 -134.5t-134.5 -55.5zM817 783l-512 -783h-160l514 783h158zM223 659q-25 0 -40.5 -17t-15.5 -41t15.5 -41t40.5 -17q24 0 40 17t16 41t-15.5 41t-40.5 17zM741 -6q-79 0 -135 55.5
t-56 134.5t56 135t135 56t134.5 -56t55.5 -135t-55.5 -134.5t-134.5 -55.5zM1151 -6q-79 0 -135 55.5t-56 134.5t56 135t135 56t134.5 -56t55.5 -135t-55.5 -134.5t-134.5 -55.5zM741 243q-24 0 -40 -17.5t-16 -41.5t16 -41t40 -17t40 17t16 41t-15.5 41.5t-40.5 17.5z
M1151 243q-24 0 -40 -17.5t-16 -41.5t16 -41t40 -17q25 0 40.5 17t15.5 41t-15.5 41.5t-40.5 17.5z" />
    <glyph glyph-name="guilsinglleft" unicode="&#x2039;" horiz-adv-x="400" 
d="M354 164l-96 -93l-233 230l233 231l96 -94l-140 -136z" />
    <glyph glyph-name="guilsinglright" unicode="&#x203a;" horiz-adv-x="400" 
d="M142 532l233 -231l-233 -230l-97 93l141 137l-141 137z" />
    <glyph glyph-name="uni203D" unicode="&#x203d;" horiz-adv-x="604" 
d="M340 413q53 66 53 118q0 48 -23 79t-71 31q-47 0 -75.5 -28t-34.5 -75l-158 17q0 103 78.5 172t187.5 69t185 -66t76 -178q0 -37 -11.5 -71.5t-38.5 -73t-52 -67.5t-72 -79h-176l-30 238h155zM295 206q45 0 77 -32t32 -77t-32 -77t-77 -32t-77 32t-32 77t32 77t77 32z
" />
    <glyph glyph-name="uni2042" unicode="&#x2042;" horiz-adv-x="918" 
d="M263 603l33 99l108 -35v116h109v-116l108 35l34 -99l-109 -36l66 -92l-85 -62l-69 92l-68 -92l-84 62l66 92zM29 172l33 99l108 -34v116h108v-116l108 34l34 -99l-108 -35l66 -92l-85 -63l-69 93l-68 -93l-85 63l66 92zM498 172l33 99l108 -34v116h108v-116l108 34
l34 -99l-109 -35l67 -92l-85 -63l-69 93l-68 -93l-85 63l66 92z" />
    <glyph glyph-name="fraction" unicode="&#x2044;" horiz-adv-x="675" 
d="M679 783l-512 -783h-170l513 783h169z" />
    <glyph glyph-name="uni2051" unicode="&#x2051;" horiz-adv-x="478" 
d="M43 603l33 99l108 -35v116h108v-116l108 35l35 -99l-109 -36l66 -92l-85 -62l-69 92l-68 -92l-85 62l66 92zM43 172l33 99l108 -34v116h108v-116l108 34l35 -99l-109 -35l66 -92l-85 -63l-69 93l-68 -93l-85 63l66 92z" />
    <glyph glyph-name="lira" unicode="&#x20a4;" horiz-adv-x="723" 
d="M687 259q-13 -121 -70.5 -190t-181.5 -69h-377v148q37 17 69 47t44 67h-113v88h113q-1 4 -15 49h-98v88h70q-7 35 -7 63q0 108 76.5 177t185.5 69q105 0 183 -63.5t87 -173.5l-184 -29q-1 46 -23.5 73t-60.5 27q-33 0 -56 -23t-23 -58q0 -21 8 -51l4 -11h156v-88h-126
q8 -26 11 -49h115v-88h-120q-21 -59 -72 -94h122q32 0 53.5 7.5t33.5 24.5t18 32t12 43z" />
    <glyph glyph-name="uni20A6" unicode="&#x20a6;" horiz-adv-x="957" 
d="M324 472h-1v-472h-196v243h-73v113h73v50h-73v113h73v264h218l288 -441h1v441h196v-264h73v-113h-73v-50h73v-113h-73v-243h-198z" />
    <glyph glyph-name="uni20A9" unicode="&#x20a9;" horiz-adv-x="1269" 
d="M1217 243h-155l-72 -243h-198l-158 530h-1l-160 -530h-196l-71 243h-153v113h119l-14 50h-105v113h72l-78 264h206l132 -495h3l151 495h190l155 -496h2l135 496h200l-78 -264h74v-113h-107l-15 -50h122v-113z" />
    <glyph glyph-name="uni20AA" unicode="&#x20aa;" horiz-adv-x="1066" 
d="M744 208h-185v176q0 64 -18 89q-22 33 -87 33h-188v-506h-185v658h378q165 0 230 -70q55 -58 55 -192v-188zM320 0v449h185v-297h188q63 0 88 33q18 25 18 88v385h185v-396q0 -133 -56 -192q-65 -70 -230 -70h-378z" />
    <glyph glyph-name="dong" unicode="&#x20ab;" horiz-adv-x="737" 
d="M439 65q-61 -76 -154 -76q-106 0 -177.5 82t-71.5 197q0 119 75.5 197.5t178.5 78.5q93 0 147 -71h4v135h-131v127h131v79h191v-79h64v-127h-64v-608h-189v65h-4zM337 160q44 0 75 32t31 76t-31 76t-75 32t-75.5 -32t-31.5 -76t31.5 -76t75.5 -32zM632 -215h-558v157h558
v-157z" />
    <glyph glyph-name="Euro" unicode="&#x20ac;" horiz-adv-x="935" 
d="M899 262q-7 -32 -24 -66t-49.5 -72t-74 -67.5t-102.5 -49t-131 -19.5q-135 0 -240 76t-144 199h-97v106h77v23q0 18 1 26h-78v106h98q41 121 145 196.5t243 75.5q84 0 153 -27t112 -70.5t69 -87.5t38 -88l-185 -57q-13 50 -60.5 97.5t-129.5 47.5q-104 0 -165 -87h236
l-34 -106h-240q-1 -8 -1 -25t1 -24h227l-34 -106h-156q60 -88 166 -88q81 0 130 45.5t64 99.5z" />
    <glyph glyph-name="uni20AE" unicode="&#x20ae;" horiz-adv-x="721" 
d="M638 371v-121l-176 -59v-191h-195v126l-176 -58v121l176 58v53l-176 -58v121l176 58v183h-223v179h640v-179h-222v-118l176 58v-120l-176 -59v-53z" />
    <glyph glyph-name="uni20B1" unicode="&#x20b1;" horiz-adv-x="834" 
d="M725 481q-17 -104 -99 -157t-202 -53h-101v-271h-194v481h-84v88h84v214h307q120 0 198.5 -54.5t91.5 -159.5h78v-88h-79zM530 569q-18 45 -93 45h-115v-45h208zM438 436q76 0 93 45h-209v-45h116z" />
    <glyph glyph-name="uni20B4" unicode="&#x20b4;" horiz-adv-x="768" 
d="M458 539q3 9 3 20q0 27 -21.5 49.5t-64.5 22.5q-32 0 -67 -21.5t-57 -61.5l-145 107q37 67 111 104t162 37q118 0 198 -67t80 -176v-14h60v-116h-669v116h410zM301 259q-9 -13 -9 -30q0 -29 22 -51.5t70 -22.5q41 0 90.5 21t82.5 74l145 -109q-70 -90 -139.5 -121
t-183.5 -31q-134 0 -210 69t-76 170q0 11 2 31h-47v115h669v-115h-416z" />
    <glyph glyph-name="uni20B8" unicode="&#x20b8;" horiz-adv-x="731" 
d="M45 605v178h641v-178h-641zM686 370h-222v-370h-197v370h-222v177h641v-177z" />
    <glyph glyph-name="uni20B9" unicode="&#x20b9;" horiz-adv-x="660" 
d="M495 640q24 -29 31 -65h97v-92h-96q-20 -126 -141 -175l157 -308h-214l-136 275h-141v159h166q79 0 105 49h-271v92h269q-28 50 -104 50h-165v158h571v-143h-128z" />
    <glyph glyph-name="uni20BA" unicode="&#x20ba;" horiz-adv-x="744" 
d="M710 337q0 -159 -94.5 -248t-291.5 -89h-167v255l-103 -46v126l103 46v49l-103 -46v125l103 47v227h196v-139l206 92v-126l-206 -92v-48l206 92v-126l-206 -92v-164q157 0 167 163l1 21l189 -19v-8z" />
    <glyph glyph-name="uni20BD" unicode="&#x20bd;" horiz-adv-x="770" 
d="M147 0v111h-92v99h92v61h-92v152h92v360h297q131 0 212 -64.5t81 -189.5q0 -128 -85.5 -193.5t-219.5 -65.5h-88v-60h170v-99h-170v-111h-197zM429 437q53 0 81.5 21.5t28.5 62.5q0 89 -111 89h-84v-173h85z" />
    <glyph glyph-name="uni2113" unicode="&#x2113;" horiz-adv-x="478" 
d="M452 571q0 -92 -59 -177.5t-145 -140.5v-25q0 -56 21 -80.5t75 -24.5q42 0 84 16v-125q-46 -23 -107 -23q-95 0 -152 53t-60 147q-37 -11 -78 -19v133q38 8 78 26v231q0 82 46 134.5t127 52.5t125.5 -48t44.5 -130zM316 577q0 43 -33 43q-35 0 -35 -51v-151q68 66 68 159
z" />
    <glyph glyph-name="uni2116" unicode="&#x2116;" horiz-adv-x="1332" 
d="M587 325h1v458h196v-783h-218l-288 464h-1v-464h-196v783h221zM1282 490q0 -80 -56 -136.5t-142 -56.5q-84 0 -140.5 56.5t-56.5 136.5q0 79 57 135.5t140 56.5q84 0 141 -56t57 -136zM1145 490q0 25 -18.5 42.5t-41.5 17.5q-24 0 -42 -17t-18 -43q0 -25 17.5 -42.5
t42.5 -17.5t42.5 17.5t17.5 42.5zM1277 229v-136h-384v136h384z" />
    <glyph glyph-name="trademark" unicode="&#x2122;" horiz-adv-x="1056" 
d="M403 680h-127v-348h-114v348h-127v103h368v-103zM578 332h-109v451h156l101 -277l96 277h160v-451h-111v292h-3l-104 -292h-77l-105 289h-4v-289z" />
    <glyph glyph-name="estimated" unicode="&#x212e;" horiz-adv-x="855" 
d="M434 -12q-179 0 -283.5 116.5t-104.5 293.5q0 168 108.5 282.5t279.5 114.5q170 0 278.5 -113.5t108.5 -281.5v-9h-604v-254q39 -40 99 -64t118 -24q102 0 175.5 43.5t113.5 123.5l52 -29q-41 -91 -131 -145t-210 -54zM652 650q-38 40 -98.5 62.5t-120.5 22.5
q-129 0 -216 -84v-198h435v197z" />
    <glyph glyph-name="uni2153" unicode="&#x2153;" horiz-adv-x="1131" 
d="M37 363q0 60 28.5 105.5t98.5 82.5l55 30q52 27 52 57q0 12 -11.5 23t-33.5 11q-52 0 -53 -73l-133 15q1 88 55 133.5t131 45.5q83 0 134 -43.5t51 -108.5q0 -92 -112 -152l-50 -26q-28 -15 -29 -17h193v-116h-376v33zM232 0l514 783h168l-513 -783h-169zM903 -12
q-68 0 -123.5 32.5t-70.5 98.5l129 34q11 -50 62 -50q24 0 38.5 12t14.5 27q0 39 -53 39h-38v99h39q23 0 34.5 10.5t11.5 25.5q0 14 -12 24t-36 10q-50 0 -60 -50l-127 33q10 47 43 77.5t70 41.5t77 11q83 0 132.5 -37.5t49.5 -103.5q0 -67 -60 -90q69 -26 69 -96
q0 -69 -55 -108.5t-135 -39.5z" />
    <glyph glyph-name="uni2154" unicode="&#x2154;" horiz-adv-x="1100" 
d="M225 783h132v-453h-158v293l-110 -62l-62 110zM188 0l514 783h169l-513 -783h-170zM860 -12q-68 0 -123.5 32.5t-70.5 98.5l129 34q11 -50 62 -50q24 0 38.5 12t14.5 27q0 39 -53 39h-38v99h39q23 0 34.5 10.5t11.5 25.5q0 14 -12 24t-36 10q-50 0 -60 -50l-127 33
q10 47 43 77.5t70 41.5t77 11q83 0 132.5 -37.5t49.5 -103.5q0 -67 -60 -90q69 -26 69 -96q0 -69 -55 -108.5t-135 -39.5z" />
    <glyph glyph-name="oneeighth" unicode="&#x215b;" horiz-adv-x="1092" 
d="M225 783h132v-453h-158v293l-110 -62l-62 110zM188 0l514 783h169l-513 -783h-170zM853 464q-67 0 -126 -37t-59 -100q0 -62 65 -96q-33 -14 -54.5 -41.5t-21.5 -61.5q0 -48 32 -81t74.5 -46t89.5 -13q76 0 135.5 34.5t59.5 105.5q0 34 -21.5 61.5t-54.5 41.5
q65 35 65 96q0 63 -58.5 100t-125.5 37zM806 315q0 17 15 26t32 9t32 -9t15 -26t-15 -26t-32 -9t-32 9t-15 26zM797 141q0 18 18 28t38 10t38 -10t18 -28t-18 -27.5t-38 -9.5t-38 9.5t-18 27.5z" />
    <glyph glyph-name="threeeighths" unicode="&#x215c;" horiz-adv-x="1108" 
d="M225 319q-68 0 -123.5 32.5t-70.5 98.5l129 34q11 -50 62 -50q24 0 38.5 12t14.5 27q0 39 -53 39h-38v99h39q23 0 34.5 10.5t11.5 25.5q0 14 -12 24t-36 10q-50 0 -60 -50l-127 33q10 47 43 77.5t70 41.5t77 11q83 0 132.5 -37.5t49.5 -103.5q0 -67 -60 -90
q69 -26 69 -96q0 -69 -55 -108.5t-135 -39.5zM214 0l514 783h168l-512 -783h-170zM878 464q-67 0 -126 -37t-59 -100q0 -61 66 -96q-33 -14 -54.5 -41.5t-21.5 -61.5q0 -48 32 -81t74 -46t89 -13q76 0 136 34.5t60 105.5q0 34 -21.5 61.5t-54.5 41.5q65 35 65 96
q0 63 -59 100t-126 37zM832 315q0 17 14.5 26t31.5 9t32 -9t15 -26t-15 -26t-32 -9t-31.5 9t-14.5 26zM823 141q0 18 17.5 28t37.5 10t38 -10t18 -28t-18 -27.5t-38 -9.5t-37.5 9.5t-17.5 27.5z" />
    <glyph glyph-name="fiveeighths" unicode="&#x215d;" horiz-adv-x="1109" 
d="M273 486q0 20 -14.5 31.5t-37.5 11.5q-22 0 -49 -18l-121 51l56 221h293v-121h-198l-13 -46q27 14 70 14q68 0 113 -39t45 -105q0 -72 -58.5 -119.5t-134.5 -47.5q-79 0 -130.5 36.5t-62.5 84.5l112 56q25 -55 80 -55q21 0 35.5 13t14.5 32zM212 0l514 783h168l-513 -783
h-169zM876 464q-67 0 -126 -37t-59 -100q0 -61 66 -96q-33 -14 -54.5 -41.5t-21.5 -61.5q0 -48 32 -81t74 -46t89 -13q76 0 136 34.5t60 105.5q0 34 -21.5 61.5t-55.5 41.5q66 36 66 96q0 63 -59 100t-126 37zM829 315q0 17 15 26t32 9t32 -9t15 -26t-15 -26t-32 -9t-32 9
t-15 26zM820 141q0 18 18 28t38 10t38 -10t18 -28t-18 -27.5t-38 -9.5t-38 9.5t-18 27.5z" />
    <glyph glyph-name="seveneighths" unicode="&#x215e;" horiz-adv-x="1022" 
d="M405 783v-134l-176 -319h-177l178 316h-189v137h364zM128 0l514 783h168l-513 -783h-169zM792 464q-67 0 -126 -37t-59 -100q0 -61 66 -96q-33 -14 -54.5 -41.5t-21.5 -61.5q0 -48 32 -81t74 -46t89 -13q76 0 136 34.5t60 105.5q0 34 -21.5 61.5t-55.5 41.5q66 36 66 96
q0 63 -59 100t-126 37zM745 315q0 17 15 26t32 9t32 -9t15 -26t-15 -26t-32 -9t-32 9t-15 26zM736 141q0 18 18.5 28t37.5 10q20 0 38 -10t18 -28t-18 -27.5t-38 -9.5t-38 9.5t-18 27.5z" />
    <glyph glyph-name="arrowleft" unicode="&#x2190;" horiz-adv-x="664" 
d="M291 277q75 -74 133 -134l-113 -107l-292 315v26l292 316l113 -108q-43 -45 -133 -133h338v-175h-338z" />
    <glyph glyph-name="arrowup" unicode="&#x2191;" horiz-adv-x="664" 
d="M244 397q-111 -111 -134 -133l-107 113l315 292h26l316 -292l-107 -113q-23 22 -134 133v-337h-175v337z" />
    <glyph glyph-name="arrowright" unicode="&#x2192;" horiz-adv-x="664" 
d="M373 452q-90 88 -134 133l114 108l292 -316v-26l-292 -315l-114 107q66 68 134 134h-338v175h338z" />
    <glyph glyph-name="arrowdown" unicode="&#x2193;" horiz-adv-x="664" 
d="M419 331q44 45 134 133l107 -113l-315 -292h-26l-316 292l108 113q90 -88 134 -133v337h174v-337z" />
    <glyph glyph-name="uni2196" unicode="&#x2196;" horiz-adv-x="664" 
d="M249 319q1 -95 0 -189l-157 4l17 429l18 19l430 17l4 -156q-84 -3 -189 -1l239 -238l-123 -124z" />
    <glyph glyph-name="uni2197" unicode="&#x2197;" horiz-adv-x="664" 
d="M292 442q-105 -2 -189 1l4 156l430 -17l18 -19l17 -429l-156 -4q-1 31 -1 189l-239 -239l-123 124z" />
    <glyph glyph-name="uni2198" unicode="&#x2198;" horiz-adv-x="664" 
d="M414 360q0 158 1 189l156 -5l-17 -429l-18 -18l-430 -17l-4 156q94 2 189 0l-239 240l123 123z" />
    <glyph glyph-name="uni2199" unicode="&#x2199;" horiz-adv-x="664" 
d="M373 236q95 2 189 0l-5 -156l-430 17l-18 18l-16 429l156 5q1 -95 0 -189l239 239l124 -123z" />
    <glyph glyph-name="uni21A9" unicode="&#x21a9;" horiz-adv-x="1148" 
d="M432 436q-58 -61 -133 -134h444q80 0 133.5 43t53.5 111q0 70 -52 112t-138 42h-193v173h202q158 0 258 -93t100 -234t-100 -235t-258 -94h-450q75 -73 133 -134l-114 -107l-292 315v26l292 316z" />
    <glyph glyph-name="uni21B0" unicode="&#x21b0;" horiz-adv-x="866" 
d="M470 612q154 0 249 -79.5t95 -216.5v-316h-177v298q0 67 -46.5 103t-126.5 36h-164q56 -54 133 -134l-114 -107l-292 316v26l292 315l114 -107q-58 -61 -133 -134h170z" />
    <glyph glyph-name="uni21B1" unicode="&#x21b1;" horiz-adv-x="866" 
d="M566 612q-75 73 -133 134l114 107l292 -315v-26l-292 -316l-114 107q77 80 133 134h-164q-80 0 -126.5 -36t-46.5 -103v-298h-177v316q0 137 95 216.5t249 79.5h170z" />
    <glyph glyph-name="uni21B2" unicode="&#x21b2;" horiz-adv-x="866" 
d="M300 171q67 -66 133 -133l-114 -108l-292 316v25l292 316l114 -107q-88 -90 -133 -134h164q80 0 126.5 36t46.5 104v297h177v-316q0 -137 -95 -216.5t-249 -79.5h-170z" />
    <glyph glyph-name="uni21B3" unicode="&#x21b3;" horiz-adv-x="866" 
d="M396 171q-154 0 -249 79.5t-95 216.5v316h177v-297q0 -68 46.5 -104t126.5 -36h164q-45 44 -133 134l113 107l292 -316v-25l-292 -316l-113 108q44 45 132 133h-169z" />
    <glyph glyph-name="uni21B4" unicode="&#x21b4;" horiz-adv-x="919" 
d="M652 270q77 78 134 132l107 -113l-315 -292h-26l-316 292l107 113q58 -54 134 -132v163q0 81 -36 129.5t-103 48.5h-298v172h316q137 0 216.5 -95t79.5 -249v-169z" />
    <glyph glyph-name="partialdiff" unicode="&#x2202;" horiz-adv-x="699" 
d="M327 -13q-126 0 -209.5 73.5t-83.5 194.5q0 111 83.5 182t193.5 71q81 0 143 -31q-15 66 -59 107.5t-110 41.5q-67 0 -154 -44l-72 147q109 67 234 67q94 0 166.5 -36.5t115 -98.5t63.5 -137t21 -158q0 -76 -19.5 -142.5t-58 -120.5t-104 -85t-150.5 -31zM352 346
q-57 0 -90.5 -23.5t-33.5 -71.5q0 -40 30.5 -66t74.5 -26q61 0 94.5 42t35.5 107q-45 38 -111 38z" />
    <glyph glyph-name="uni2206" unicode="&#x2206;" horiz-adv-x="881" 
d="M853 0h-824l301 783h222zM290 170h298l-150 392z" />
    <glyph glyph-name="product" unicode="&#x220f;" horiz-adv-x="818" 
d="M156 608h-119v175h744v-175h-119v-608h-191v608h-124v-608h-191v608z" />
    <glyph glyph-name="summation" unicode="&#x2211;" horiz-adv-x="698" 
d="M330 606l219 -204l-236 -225h333v-177h-596v165l246 235l-234 219v164h583v-177h-315z" />
    <glyph glyph-name="minus" unicode="&#x2212;" horiz-adv-x="632" 
d="M570 286h-508v158h508v-158z" />
    <glyph glyph-name="radical" unicode="&#x221a;" horiz-adv-x="805" 
d="M504 0h-169l-180 494h-143v128h269l141 -388h4l229 724h149z" />
    <glyph glyph-name="infinity" unicode="&#x221e;" horiz-adv-x="1012" 
d="M735 98q-62 0 -115.5 33t-114.5 91q-43 -42 -71.5 -64.5t-73.5 -41t-94 -18.5q-98 0 -160.5 64.5t-62.5 161.5q0 98 67.5 163.5t165.5 65.5q62 0 115.5 -33t115.5 -92q44 42 72 64.5t73.5 41.5t94.5 19q98 0 160 -65t62 -164q0 -98 -68 -162t-166 -64zM281 405
q-33 0 -57 -23t-24 -56t23 -57t56 -24q22 0 48 14.5t40.5 27.5t37.5 36q-24 25 -36.5 37t-39 28.5t-48.5 16.5zM735 405q-22 0 -49 -15.5t-40.5 -27.5t-38.5 -36l10 -10l11 -11t11 -10.5t12.5 -11t12 -9.5t13.5 -10t13 -7.5t14 -6.5t13.5 -3.5t14.5 -1.5q32 0 56 24t24 56
t-22.5 56t-54.5 24z" />
    <glyph glyph-name="integral" unicode="&#x222b;" horiz-adv-x="477" 
d="M334 7q0 -272 -258 -272h-62v168q75 2 102.5 26t27.5 98v496q0 142 65 207.5t192 65.5h63v-166q-74 -2 -102 -27t-28 -96v-500z" />
    <glyph glyph-name="uni2236" unicode="&#x2236;" horiz-adv-x="350" 
d="M175 400q-48 0 -82.5 34.5t-34.5 81.5q0 49 34 83.5t83 34.5t83 -34.5t34 -83.5q0 -48 -34 -82t-83 -34zM175 77q-48 0 -82.5 34t-34.5 81q0 49 34 83.5t83 34.5t83 -34.5t34 -83.5q0 -47 -34 -81t-83 -34z" />
    <glyph glyph-name="approxequal" unicode="&#x2248;" horiz-adv-x="675" 
d="M445 385q-37 0 -77.5 19.5t-74.5 39.5t-56 20q-43 0 -78 -51l-105 78q71 125 175 125q41 0 83 -20t74.5 -39.5t51.5 -19.5q44 0 78 50l105 -78q-70 -124 -176 -124zM445 115q-37 0 -77.5 19.5t-74.5 39.5t-56 20q-42 0 -78 -51l-105 78q71 125 175 125q41 0 83 -20
t74.5 -40t51.5 -20q43 0 78 51l105 -78q-70 -124 -176 -124z" />
    <glyph glyph-name="notequal" unicode="&#x2260;" horiz-adv-x="632" 
d="M118 69l37 91h-93v156h157l41 99h-198v157h263l63 155l127 -63l-38 -92h93v-157h-158l-42 -99h200v-156h-264l-63 -153z" />
    <glyph glyph-name="lessequal" unicode="&#x2264;" horiz-adv-x="659" 
d="M247 465v-1l340 -97v-165l-530 182v161l530 180v-163zM594 -15h-537v161h537v-161z" />
    <glyph glyph-name="greaterequal" unicode="&#x2265;" horiz-adv-x="659" 
d="M412 463v1l-341 98v163l531 -180v-161l-531 -182v164zM602 -15h-538v161h538v-161z" />
    <glyph glyph-name="uni2318" unicode="&#x2318;" horiz-adv-x="698" 
d="M546 69q-50 0 -87 37q-36 36 -36 86v63h-148v-63q0 -50 -36 -86q-35 -37 -87 -37q-51 0 -86 37q-36 36 -36 86t36 86t86 36h62v148h-61q-51 0 -86 37q-37 35 -37 86t37 86q36 36 86 36t86 -36t36 -86v-63h148v63q0 50 36 86q38 36 87 36q50 0 86 -36t36 -86t-36 -86
q-35 -37 -86 -37h-62v-148h62q50 0 86 -36t36 -86t-36 -86q-35 -37 -86 -37zM214 585q0 26 -18 44q-17 18 -43 18q-29 0 -45 -18q-18 -17 -18 -44q0 -26 18 -44q21 -19 45 -19h61v63zM546 647q-28 0 -44 -18q-18 -17 -18 -44v-63h62q25 0 44 19q18 18 18 44t-18 44t-44 18z
M423 462h-148v-148h148v148zM214 255h-62q-27 0 -44 -19q-18 -16 -18 -44q0 -25 18 -45q20 -18 44 -18t44 18q18 20 18 45v63zM484 255v-63q0 -25 18 -45q18 -18 44 -18q24 0 44 18q18 20 18 45q0 28 -18 44q-17 19 -44 19h-62z" />
    <glyph glyph-name="filledbox" unicode="&#x25a0;" horiz-adv-x="908" 
d="M101 0v711h709v-711h-709z" />
    <glyph glyph-name="uni25A1" unicode="&#x25a1;" horiz-adv-x="908" 
d="M810 0h-709v711h709v-711zM215 600v-489h477v489h-477z" />
    <glyph glyph-name="triagup" unicode="&#x25b2;" horiz-adv-x="838" 
d="M0 0l421 730l417 -730h-838z" />
    <glyph glyph-name="uni25B3" unicode="&#x25b3;" horiz-adv-x="838" 
d="M0 0l419 730l419 -730h-838zM198 112h441l-220 388z" />
    <glyph glyph-name="lozenge" unicode="&#x25ca;" horiz-adv-x="796" 
d="M299 0l-277 393l277 390h199l276 -390l-276 -393h-199zM542 393l-144 205l-143 -205l143 -206z" />
    <glyph glyph-name="circle" unicode="&#x25cb;" horiz-adv-x="813" 
d="M36 356q0 154 108.5 263t262.5 109t262 -108.5t108 -263.5q0 -154 -108 -262t-262 -108t-262.5 108t-108.5 262zM151 356q0 -107 75 -182t181 -75q105 0 179 75t74 182t-74 182.5t-179 75.5q-106 0 -181 -75.5t-75 -182.5z" />
    <glyph glyph-name="uni25CF" unicode="&#x25cf;" horiz-adv-x="813" 
d="M36 356q0 155 108 263.5t262 108.5t262.5 -109t108.5 -263t-108.5 -262t-262.5 -108t-262 108t-108 262z" />
    <glyph glyph-name="uni2605" unicode="&#x2605;" horiz-adv-x="838" 
d="M268 266l-244 177h302l93 287l93 -287h302l-244 -177l93 -287l-244 177l-245 -175z" />
    <glyph glyph-name="uni2611" unicode="&#x2611;" horiz-adv-x="956" 
d="M944 877l-134 -232v-645h-709v711h612l130 227zM213 431l89 76l173 -211l175 305h-437v-170zM694 444l-194 -335h194v335zM213 109h264l-264 318v-318z" />
    <glyph glyph-name="uni2612" unicode="&#x2612;" horiz-adv-x="908" 
d="M810 0h-709v711h709v-711zM694 109v492h-481v-492h481zM222 509l154 -154l-154 -156l78 -79l155 155l152 -152l79 80l-153 152l153 154l-79 79l-152 -154l-154 153z" />
    <glyph glyph-name="uni2639" unicode="&#x2639;" horiz-adv-x="813" 
d="M777 356q0 -154 -108 -262t-262 -108t-262.5 108t-108.5 262t108.5 263t262.5 109t262 -108.5t108 -263.5zM677 356q0 114 -79 194.5t-191 80.5q-114 0 -193.5 -80.5t-79.5 -194.5t79.5 -194t193.5 -80q112 0 191 80.5t79 193.5zM382 454q0 -28 -19 -47t-47 -19t-47 19
t-19 47t19 47.5t47 19.5t47 -19.5t19 -47.5zM563 454q0 -28 -19 -47t-47 -19t-47 19t-19 47t19 47.5t47 19.5t47 -19.5t19 -47.5zM525 180q-6 46 -41.5 74.5t-76.5 28.5q-43 0 -78.5 -28t-41.5 -75h-78q10 78 66.5 127t131.5 49q74 0 130 -50t66 -126h-78z" />
    <glyph glyph-name="smileface" unicode="&#x263a;" horiz-adv-x="813" 
d="M407 -14q-154 0 -262.5 108t-108.5 262t108.5 263t262.5 109t262 -108.5t108 -263.5q0 -154 -108 -262t-262 -108zM407 631q-114 0 -193.5 -80.5t-79.5 -194.5t79.5 -194t193.5 -80q112 0 191 80.5t79 193.5q0 114 -79 194.5t-191 80.5zM382 454q0 -28 -19 -47t-47 -19
t-47 19t-19 47t19 47.5t47 19.5t47 -19.5t19 -47.5zM563 454q0 -28 -19 -47t-47 -19t-47 19t-19 47t19 47.5t47 19.5t47 -19.5t19 -47.5zM603 332q-10 -77 -66.5 -127t-129.5 -50q-75 0 -131.5 49.5t-66.5 127.5h78q6 -47 41.5 -75t78.5 -28q41 0 76.5 28.5t41.5 74.5h78z
" />
    <glyph glyph-name="invsmileface" unicode="&#x263b;" horiz-adv-x="813" 
d="M407 -14q-154 0 -262.5 108t-108.5 262t108.5 263t262.5 109t262 -108.5t108 -263.5q0 -154 -108 -262t-262 -108zM382 454q0 28 -19 47.5t-47 19.5t-47 -19.5t-19 -47.5t19 -47t47 -19t47 19t19 47zM563 454q0 28 -19 47.5t-47 19.5t-47 -19.5t-19 -47.5t19 -47t47 -19
t47 19t19 47zM525 332q-6 -46 -41.5 -74.5t-76.5 -28.5q-43 0 -78.5 28t-41.5 75h-78q10 -78 66.5 -127.5t131.5 -49.5q73 0 129.5 50t66.5 127h-78z" />
    <glyph glyph-name="heart" unicode="&#x2665;" horiz-adv-x="872" 
d="M3 480q0 97 65.5 163t162.5 66q58 0 106 -28t72 -78q24 52 73 79t108 27q95 0 160 -67t65 -162q0 -61 -27 -123.5t-68 -113.5t-97.5 -101.5t-107 -86.5t-106.5 -69q-56 33 -106.5 69t-107 86.5t-97.5 101.5t-68 113.5t-27 123.5z" />
    <glyph glyph-name="uni2713" unicode="&#x2713;" horiz-adv-x="942" 
d="M15 307l82 78l215 -232l517 563l83 -81l-603 -651z" />
    <glyph glyph-name="uni2715" unicode="&#x2715;" horiz-adv-x="755" 
d="M650 712l80 -80l-274 -277l280 -279l-80 -81l-280 279l-277 -279l-80 81l277 279l-277 277l81 80l276 -276z" />
    <glyph glyph-name="uni2E18" unicode="&#x2e18;" horiz-adv-x="630" 
d="M349 328q-45 0 -77 32t-32 77q0 46 32 77.5t77 31.5t77 -31.5t32 -77.5q0 -45 -32 -77t-77 -32zM613 -21q0 -103 -78.5 -172t-187.5 -69t-185 66t-76 178q0 70 41 131.5t133 159.5h176l30 -237h-155l-7 86q-53 -68 -53 -119q0 -48 23 -79t71 -31q47 0 75.5 28.5
t34.5 75.5z" />
    <glyph glyph-name="zero.slash" unicode="&#xe008;" horiz-adv-x="771" 
d="M387 796q109 0 188.5 -58t116.5 -147.5t37 -196.5q0 -108 -37 -198t-117 -149t-191 -59q-110 0 -189.5 57.5t-116 147t-36.5 197.5q0 107 38 197.5t118 149.5t189 59zM386 616q-40 0 -70 -22t-45.5 -58t-23 -72.5t-7.5 -72.5q0 -45 8 -82l205 289q-29 18 -67 18zM386 168
q51 0 85.5 39t47.5 87t13 97q0 45 -8 85l-205 -290q29 -18 67 -18z" />
    <glyph glyph-name="uniE09D" unicode="&#xe09d;" horiz-adv-x="875" 
d="M124 579q0 106 57.5 172t169.5 66q54 0 96 -13v-148q-20 6 -54 6q-81 0 -81 -86v-42h213v173h185v-173h124v-157h-124v-164q0 -62 69 -62q23 0 50 3v-148q-44 -15 -101 -15q-95 0 -151.5 52.5t-56.5 149.5v184h-208v-377h-188v377h-99v157h99v45z" />
    <glyph glyph-name="at.case" unicode="&#xf633;" horiz-adv-x="866" 
d="M608 335q-8 -53 31 -53q41 0 77.5 48.5t36.5 120.5q0 115 -83 192.5t-212 77.5q-136 0 -235.5 -99t-99.5 -236q0 -136 89 -229t239 -93q51 0 108.5 18.5t101.5 51.5l41 -62q-41 -37 -114 -61t-137 -24q-179 0 -293 114.5t-114 283.5q0 171 121.5 291t291.5 120
q159 0 267 -97.5t108 -246.5q0 -116 -62.5 -189.5t-148.5 -73.5q-36 0 -68 16t-45 40q-19 -25 -53.5 -41t-65.5 -16q-69 0 -116 53.5t-47 118.5q0 94 59 162.5t146 68.5q28 0 55.5 -14t37.5 -38l9 47h118zM506 408q0 30 -17.5 49t-46.5 19q-38 0 -66 -32.5t-26 -73.5
q1 -27 19 -48.5t46 -21.5q37 0 64 33t27 75z" />
    <glyph glyph-name="dollar.lowercase" unicode="&#xf653;" horiz-adv-x="540" 
d="M502 171q0 -62 -44 -112t-123 -65v-96h-128v95q-87 15 -127.5 62t-45.5 97l154 30q3 -28 24 -43.5t53 -15.5q28 0 41 12t13 25q0 24 -48 35l-58 12q-71 14 -117.5 52t-46.5 106q0 62 44.5 110t113.5 64v98h128v-97q73 -15 113.5 -57t43.5 -88l-154 -29q-7 47 -64 47
q-24 0 -36 -11t-12 -23q0 -21 31 -28l76 -16q72 -15 120.5 -55t48.5 -109z" />
    <glyph glyph-name="uniF6C3" unicode="&#xf6c3;" horiz-adv-x="0" 
d="M-34 861q-87 -16 -101 -71q13 4 29 4q37 0 61.5 -24.5t24.5 -61.5q0 -39 -29 -65.5t-68 -26.5q-50 0 -77 35t-27 86q0 82 51.5 131t135.5 58v-65z" />
    <glyph glyph-name="uniF730" unicode="&#xf730;" horiz-adv-x="654" 
d="M325 -12q-121 0 -204.5 79t-83.5 200q0 119 86 199t206 80q119 0 203 -78t84 -197q0 -122 -84.5 -202.5t-206.5 -80.5zM327 377q-44 0 -72 -32t-28 -77q0 -46 28 -78t72 -32t72 32.5t28 77.5t-28 77t-72 32z" />
    <glyph glyph-name="uniF731" unicode="&#xf731;" horiz-adv-x="469" 
d="M395 0h-186v345l-130 -73l-73 130l234 132h155v-534z" />
    <glyph glyph-name="uniF732" unicode="&#xf732;" horiz-adv-x="533" 
d="M43 40q0 70 34 123.5t116 97.5l65 34q60 32 60 68q0 15 -13 27.5t-39 12.5q-61 0 -62 -86l-158 17q1 104 65.5 158t154.5 54q97 0 157 -51t60 -128q0 -109 -131 -179l-60 -31q-31 -17 -33 -20h227v-137h-443v40z" />
    <glyph glyph-name="uniF733" unicode="&#xf733;" horiz-adv-x="533" 
d="M263 -12q-81 0 -146 38.5t-83 116.5l152 39q6 -28 25.5 -43.5t46.5 -15.5q29 0 46 13.5t17 32.5q0 46 -63 46h-44v116h46q27 0 40.5 12.5t13.5 29.5q0 16 -14 28t-42 12q-59 0 -71 -58l-150 39q12 55 51 91t82.5 48.5t90.5 12.5q98 0 156 -44t58 -121q0 -78 -71 -106
q82 -30 82 -113q0 -81 -64 -127.5t-159 -46.5z" />
    <glyph glyph-name="uniF734" unicode="&#xf734;" horiz-adv-x="610" 
d="M495 534v-312h77v-138h-77v-84h-178v84h-285v174l242 276h221zM183 222h134v155z" />
    <glyph glyph-name="uniF735" unicode="&#xf735;" horiz-adv-x="524" 
d="M314 185q0 23 -17 36.5t-45 13.5q-26 0 -56 -21l-143 60l67 260h343v-143h-233l-14 -54q29 17 82 17q79 0 132 -45.5t53 -123.5q0 -85 -68.5 -141t-157.5 -56q-93 0 -154 42.5t-74 99.5l132 66q30 -65 94 -65q25 0 42 15.5t17 38.5z" />
    <glyph glyph-name="uniF736" unicode="&#xf736;" horiz-adv-x="550" 
d="M278 -12q-115 0 -177 72.5t-62 181.5q0 127 78 215.5t211 88.5q90 0 167 -36l-46 -133q-57 30 -115 30q-44 0 -82.5 -20t-49.5 -57q44 30 117 30q82 0 137 -47.5t55 -123.5q0 -90 -69 -145.5t-164 -55.5zM208 184q0 -24 19.5 -40t48.5 -16q28 0 48 16t20 40q0 22 -20 38
t-48 16t-48 -15.5t-20 -38.5z" />
    <glyph glyph-name="uniF737" unicode="&#xf737;" horiz-adv-x="497" 
d="M259 0h-209l210 373h-222v161h428v-158z" />
    <glyph glyph-name="uniF738" unicode="&#xf738;" horiz-adv-x="540" 
d="M270 546q49 0 97 -17t83.5 -55.5t35.5 -89.5q0 -70 -77 -112q39 -17 64.5 -48.5t25.5 -71.5q0 -57 -37.5 -95.5t-87 -53.5t-104.5 -15t-104.5 15t-87 54t-37.5 95q0 40 25 71.5t64 48.5q-77 42 -77 112q0 75 69 118.5t148 43.5zM215 371q0 -19 17 -30t38 -11
q20 0 37.5 11t17.5 30t-17.5 29.5t-37.5 10.5t-37.5 -10.5t-17.5 -29.5zM205 167q0 -22 20.5 -33t44.5 -11q23 0 44 11.5t21 32.5q0 22 -21 33t-44 11q-24 0 -44.5 -11t-20.5 -33z" />
    <glyph glyph-name="uniF739" unicode="&#xf739;" horiz-adv-x="548" 
d="M272 546q114 0 175.5 -73.5t61.5 -182.5q0 -129 -74 -215.5t-205 -86.5q-94 0 -174 36l47 132q57 -29 115 -29q109 0 133 81q-45 -33 -118 -33q-83 0 -138.5 47.5t-55.5 122.5q0 94 68.5 147.5t164.5 53.5zM340 351q0 23 -19.5 39t-47.5 16q-29 0 -48.5 -16t-19.5 -39
t19 -39.5t47 -16.5q29 0 49 16.5t20 39.5z" />
    <glyph glyph-name="uniF8FF" unicode="&#xf8ff;" horiz-adv-x="1667" 
d="M1558 656q-20 6 -55 6q-79 0 -79 -86v-42h129v-156h-129v-378h-190v378h-97v156h97v45q0 106 58 172t170 66q54 0 96 -13v-148zM732 -11q94 0 155 76h4v-65h188v815h-190v-342h-4q-55 71 -148 71q-103 0 -178.5 -78.5t-75.5 -197.5q0 -115 71.5 -197t177.5 -82zM429 154
q-28 -3 -50 -3q-69 0 -69 62v163h124v158h-124v173h-185v-173h-105v-158h100v-183q0 -97 56.5 -149.5t151.5 -52.5q57 0 101 15v148zM891 268q0 -44 -31.5 -76t-75.5 -32t-75.5 32t-31.5 76t31.5 76t75.5 32t75.5 -32t31.5 -76z" />
    <glyph glyph-name="Aring.alt" horiz-adv-x="809" 
d="M404 847q-64 0 -110.5 44t-46.5 107t46.5 106.5t110.5 43.5q66 0 112 -43.5t46 -106.5t-46 -107t-112 -44zM347 998q0 -24 17 -41t40 -17q25 0 41.5 17t16.5 41t-17 40.5t-41 16.5q-23 0 -40 -17t-17 -40zM816 0h-209l-53 144h-303l-51 -144h-208l301 783h223zM311 311
h188l-95 250z" />
    <glyph glyph-name="OE.alt" horiz-adv-x="1124" 
d="M477 0q-192 0 -315 101t-123 288t123 290.5t315 103.5h591v-175h-342v-128h310v-169h-310v-135h345v-176h-594zM476 608q-99 0 -166.5 -59t-67.5 -159t66.5 -157t168.5 -57h53v432h-54z" />
    <glyph glyph-name="Q.alt" horiz-adv-x="907" 
d="M462 0q-189 0 -306.5 112t-117.5 292q0 167 118 279.5t292 112.5q175 0 290.5 -112.5t115.5 -278.5q0 -70 -35 -134t-93 -108v-3h185v-160h-449zM239 399q0 -88 59.5 -152t147.5 -64t147.5 64t59.5 152q0 90 -59.5 153t-147.5 63q-89 0 -148 -62.5t-59 -153.5z" />
    <glyph glyph-name="O.slash" horiz-adv-x="892" 
d="M448 796q170 0 288.5 -116t118.5 -285q0 -170 -119.5 -288.5t-289.5 -118.5t-289.5 117t-119.5 287q0 169 120.5 286.5t290.5 117.5zM446 613q-88 0 -148.5 -65.5t-60.5 -154.5q0 -57 25 -105l263 309q-38 16 -79 16zM446 172q88 0 148.5 66t60.5 155q0 57 -25 107
l-265 -312q40 -16 81 -16z" />
    <glyph glyph-name="a.alt" horiz-adv-x="692" 
d="M438 70q-56 -81 -154 -81q-107 0 -178.5 81.5t-71.5 197.5q0 119 75.5 197.5t178.5 78.5q35 0 79 -17t71 -60h3v67h189v-534h-189v70h-3zM441 268q0 44 -31 76t-75 32t-75 -32t-31 -76t31 -76t75 -32t75 32t31 76z" />
    <glyph glyph-name="aacute.alt" horiz-adv-x="693" 
d="M574 819l-171 -196h-143l112 196h202zM438 70q-56 -81 -154 -81q-107 0 -178.5 81.5t-71.5 197.5q0 119 75.5 197.5t178.5 78.5q35 0 79 -17t71 -60h3v67h189v-534h-189v70h-3zM441 268q0 44 -31 76t-75 32t-75 -32t-31 -76t31 -76t75 -32t75 32t31 76z" />
    <glyph glyph-name="uni01CE.alt" horiz-adv-x="693" 
d="M121 813h152l61 -101l61 101h153l-126 -188h-175zM438 70q-56 -81 -154 -81q-107 0 -178.5 81.5t-71.5 197.5q0 119 75.5 197.5t178.5 78.5q35 0 79 -17t71 -60h3v67h189v-534h-189v70h-3zM441 268q0 44 -31 76t-75 32t-75 -32t-31 -76t31 -76t75 -32t75 32t31 76z" />
    <glyph glyph-name="acircumflex.alt" horiz-adv-x="694" 
d="M548 624h-152l-61 101l-61 -101h-152l125 189h176zM438 70q-56 -81 -154 -81q-107 0 -178.5 81.5t-71.5 197.5q0 119 75.5 197.5t178.5 78.5q35 0 79 -17t71 -60h3v67h189v-534h-189v70h-3zM441 268q0 44 -31 76t-75 32t-75 -32t-31 -76t31 -76t75 -32t75 32t31 76z" />
    <glyph glyph-name="adieresis.alt" horiz-adv-x="692" 
d="M307 716q0 -43 -28 -71.5t-71 -28.5t-71.5 28.5t-28.5 71.5q0 42 28.5 70.5t71.5 28.5q42 0 70.5 -28.5t28.5 -70.5zM567 716q0 -43 -28.5 -71.5t-71.5 -28.5t-70.5 28.5t-27.5 71.5q0 42 28 70.5t70 28.5q43 0 71.5 -28.5t28.5 -70.5zM438 70q-56 -81 -154 -81
q-107 0 -178.5 81.5t-71.5 197.5q0 119 75.5 197.5t178.5 78.5q35 0 79 -17t71 -60h3v67h189v-534h-189v70h-3zM441 268q0 44 -31 76t-75 32t-75 -32t-31 -76t31 -76t75 -32t75 32t31 76z" />
    <glyph glyph-name="agrave.alt" horiz-adv-x="694" 
d="M266 623l-171 196h202l112 -196h-143zM438 70q-56 -81 -154 -81q-107 0 -178.5 81.5t-71.5 197.5q0 119 75.5 197.5t178.5 78.5q35 0 79 -17t71 -60h3v67h189v-534h-189v70h-3zM441 268q0 44 -31 76t-75 32t-75 -32t-31 -76t31 -76t75 -32t75 32t31 76z" />
    <glyph glyph-name="amacron.alt" horiz-adv-x="693" 
d="M527 628h-386v137h386v-137zM438 70q-56 -81 -154 -81q-107 0 -178.5 81.5t-71.5 197.5q0 119 75.5 197.5t178.5 78.5q35 0 79 -17t71 -60h3v67h189v-534h-189v70h-3zM441 268q0 44 -31 76t-75 32t-75 -32t-31 -76t31 -76t75 -32t75 32t31 76z" />
    <glyph glyph-name="aogonek.alt" horiz-adv-x="692" 
d="M630 0q-38 -19 -76 -52t-38 -62q0 -21 20 -32.5t43 -11.5q17 0 47 6v-99q-35 -15 -94 -15q-68 0 -116.5 29t-48.5 86q0 77 111 151h-37v70h-3q-56 -81 -154 -81q-107 0 -178.5 81.5t-71.5 197.5q0 119 75.5 197.5t178.5 78.5q35 0 79 -17t71 -60h3v67h189v-534zM441 268
q0 44 -31 76t-75 32t-75 -32t-31 -76t31 -76t75 -32t75 32t31 76z" />
    <glyph glyph-name="aring.alt" horiz-adv-x="692" 
d="M359 608q-64 0 -110.5 44t-46.5 107q0 62 46.5 106t110.5 44q66 0 112.5 -43.5t46.5 -106.5t-46.5 -107t-112.5 -44zM302 758q0 -23 17 -40t40 -17q25 0 41.5 16.5t16.5 40.5t-16.5 41t-41.5 17q-23 0 -40 -17t-17 -41zM438 70q-56 -81 -154 -81q-107 0 -178.5 81.5
t-71.5 197.5q0 119 75.5 197.5t178.5 78.5q35 0 79 -17t71 -60h3v67h189v-448q0 -53 4 -86h-188q-5 30 -5 70h-3zM441 268q0 44 -31 76t-75 32t-75 -32t-31 -76t31 -76t75 -32t75 32t31 76z" />
    <glyph glyph-name="atilde.alt" horiz-adv-x="693" 
d="M419 624q-44 0 -98 32q-40 24 -59 22q-14 -1 -22 -11t-9 -18.5t-2 -23.5h-101l-1 29q-2 68 30.5 108t95.5 40q37 0 91 -31q40 -22 60 -22q36 0 38 50h97l1 -29q2 -66 -28 -106t-93 -40zM438 70q-55 -81 -154 -81q-106 0 -178 82t-72 197q0 119 76 197.5t179 78.5
q34 0 78 -17t72 -60h2v67h189v-448q0 -53 4 -86h-188q-5 30 -5 70h-3zM440 268q0 44 -31 76t-75 32t-75 -32t-31 -76t31 -76t75 -32t75 32t31 76z" />
    <glyph glyph-name="l.alt" horiz-adv-x="373" 
d="M249 213q0 -62 65 -62q10 0 48 2v-148q-41 -14 -99 -14q-92 0 -148.5 53t-56.5 149v622h191v-602z" />
    <glyph glyph-name="lslash.alt" horiz-adv-x="468" 
d="M318 493l103 51v-173l-103 -50v-108q0 -62 65 -62q10 0 48 2v-148q-41 -14 -99 -14q-92 0 -149 53t-57 149v33l-94 -47v174l94 45v417h192v-322z" />
    <glyph glyph-name="y.alt" horiz-adv-x="634" 
d="M401 -44q-41 -106 -106.5 -164.5t-173.5 -58.5q-50 0 -91 14v147q33 -6 56 -6q93 0 124 80l15 35l-217 531h199l115 -313h1l109 313h194z" />
    <glyph glyph-name="aring.alt2" horiz-adv-x="599" 
d="M290 608q-64 0 -110.5 44t-46.5 107q0 62 46.5 106t110.5 44q66 0 112 -43.5t46 -106.5t-46 -107t-112 -44zM233 758q0 -23 17 -40t41 -17t40.5 17t16.5 40q0 24 -16.5 41t-40.5 17t-41 -17t-17 -41zM283 401q-29 0 -51.5 -16.5t-27.5 -42.5l-159 35q15 85 86.5 127
t158.5 42q111 0 181.5 -56.5t70.5 -163.5v-326h-181v62l-2 1q-63 -73 -162 -73q-67 0 -114.5 45t-47.5 112q0 46 23 80.5t61.5 52.5t80.5 26.5t88 8.5h28q38 0 38 33q0 22 -18.5 37.5t-52.5 15.5zM273 122q36 0 58.5 20t22.5 55v16h-66q-25 0 -44 -11.5t-19 -34.5
q0 -19 14.5 -32t33.5 -13z" />
    <glyph glyph-name="i.loclTRK" horiz-adv-x="316" 
d="M158 605q-45 0 -78 32.5t-33 77.5q0 46 32.5 78.5t78.5 32.5q47 0 79 -32.5t32 -78.5q0 -45 -32.5 -77.5t-78.5 -32.5zM254 534v-534h-192v534h192z" />
    <glyph glyph-name="uni0414.alt" horiz-adv-x="924" 
d="M838 170h63v-334h-185v164h-508v-164h-185v334h62l272 613h210zM461 571l-176 -401h347z" />
    <glyph glyph-name="uni041B.alt" horiz-adv-x="795" 
d="M294 783h208l301 -783h-218l-189 523l-191 -523h-213z" />
    <glyph glyph-name="uni0434.alt" horiz-adv-x="741" 
d="M191 -164h-159v318h52l181 380h213l176 -380h54v-318h-158v164h-359v-164zM471 154l-101 224l-102 -224h203z" />
    <glyph glyph-name="uni0438.alt" horiz-adv-x="650" 
d="M247 245q0 -35 20 -58.5t53 -23.5q35 0 56.5 21.5t21.5 60.5v289h190v-534h-189v66h-2q-29 -39 -70 -58t-83 -19q-50 0 -87.5 19.5t-58.5 52.5t-31 70.5t-10 78.5v324h190v-289z" />
    <glyph glyph-name="uni0439.alt" horiz-adv-x="650" 
d="M224 827q10 -38 34.5 -63.5t63.5 -25.5t63.5 25.5t34.5 63.5l109 -20q-11 -83 -66.5 -135t-140.5 -52q-84 0 -141 53.5t-65 134.5zM247 245q0 -35 20 -58.5t53 -23.5q35 0 56.5 21.5t21.5 60.5v289h190v-534h-189v66h-2q-29 -39 -70 -58t-83 -19q-50 0 -87.5 19.5
t-58.5 52.5t-31 70.5t-10 78.5v324h190v-289z" />
    <glyph glyph-name="uni043B.alt" horiz-adv-x="636" 
d="M412 534l215 -534h-197l-110 308h-1l-111 -308h-199l214 534h189z" />
    <glyph glyph-name="uni043F.alt" horiz-adv-x="650" 
d="M403 289q0 34 -20 58t-53 24q-35 0 -56.5 -21.5t-21.5 -60.5v-289h-190v534h189v-67h2q29 39 70.5 58.5t82.5 19.5q51 0 88.5 -19.5t58 -53t30.5 -70.5t10 -79v-323h-190v289z" />
    <glyph glyph-name="uni0446.alt" horiz-adv-x="698" 
d="M397 66q-29 -39 -70 -58t-83 -19q-50 0 -87.5 19.5t-58.5 52.5t-31 70.5t-10 78.5v324h190v-289q0 -35 20 -58.5t53 -23.5q35 0 56.5 21.5t21.5 60.5v289h190v-378h68v-320h-173v164h-84v66h-2z" />
    <glyph glyph-name="uni0448.alt" horiz-adv-x="981" 
d="M583 243q0 -33 18 -56.5t51 -23.5q37 0 57 21t20 60v290h189v-534h-189v67q-57 -78 -153 -78q-105 0 -152 83q-76 -83 -181 -83q-52 0 -90 19.5t-58 53t-29 70t-9 78.5v324h190v-292q0 -33 18 -56t51 -23q37 0 57 20.5t20 59.5v291h190v-291z" />
    <glyph glyph-name="uni0449.alt" horiz-adv-x="1028" 
d="M729 67q-57 -78 -153 -78q-105 0 -152 83q-76 -83 -181 -83q-52 0 -90 19.5t-58 53t-29 70t-9 78.5v324h190v-292q0 -33 18 -56t51 -23q37 0 57 20.5t20 59.5v291h190v-291q0 -33 18 -56.5t51 -23.5q37 0 57 21t20 60v290h189v-378h69v-320h-174v164h-84v67z" />
    <glyph glyph-name="one.alt" horiz-adv-x="637" 
d="M245 500h-189v131h6q79 0 141 47t70 106h169v-620h178v-164h-571v164h196v336z" />
    <glyph glyph-name="colon.case" horiz-adv-x="359" 
d="M180 437q-48 0 -82.5 34.5t-34.5 81.5q0 49 34 83.5t83 34.5t82.5 -34.5t33.5 -83.5q0 -48 -34 -82t-82 -34zM180 113q-48 0 -82.5 34.5t-34.5 81.5q0 49 34 83.5t83 34.5t82.5 -34.5t33.5 -83.5q0 -48 -34 -82t-82 -34z" />
    <glyph glyph-name="exclamdown.case" horiz-adv-x="349" 
d="M283 687q0 -46 -32 -78t-77 -32q-46 0 -78 32t-32 78q0 45 32 76.5t78 31.5q45 0 77 -31.5t32 -76.5zM261 517l16 -401v-116h-205v115l16 402h173z" />
    <glyph glyph-name="uni2E18.case" horiz-adv-x="604" 
d="M310 578q-46 0 -78 31.5t-32 77.5q0 45 32 77t78 32q45 0 76.5 -32t31.5 -77q0 -46 -31.5 -77.5t-76.5 -31.5zM574 229q0 -103 -78.5 -172t-187.5 -69q-110 0 -185.5 65.5t-75.5 177.5q0 70 40 131t133 160h176l31 -237h-156l-7 86q-52 -67 -52 -119q0 -48 23 -78.5
t71 -30.5q47 0 75 28t34 75z" />
    <glyph glyph-name="questiondown.case" horiz-adv-x="606" 
d="M418 687q0 -46 -32 -77.5t-77 -31.5t-77 31.5t-32 77.5q0 45 32 77t77 32t77 -32t32 -77zM396 522q3 -33 3 -34q0 -39 -25.5 -78t-56 -65t-56 -59.5t-25.5 -62.5q0 -28 21.5 -47t50.5 -19q43 0 65 31t22 77l179 -21v-13q0 -111 -79 -177t-193 -66q-107 0 -183.5 60
t-76.5 165q0 44 19.5 84.5t40 62t62.5 60.5q26 25 38 44t17 49l1 9h176z" />
    <glyph glyph-name="semicolon.case" horiz-adv-x="358" 
d="M177 437q-48 0 -82 34.5t-34 81.5q0 49 34 83.5t82 34.5q49 0 83 -34.5t34 -83.5q0 -48 -34 -82t-83 -34zM301 167q0 -67 -40 -130t-109 -110l-66 61q79 54 114 128q-18 -9 -42 -9q-41 0 -69.5 29t-28.5 73q0 47 34.5 79.5t83.5 32.5q55 0 89 -40.5t34 -105.5v-8z" />
    <glyph glyph-name="braceleft.case" horiz-adv-x="483" 
d="M365 -106q-135 0 -193.5 53t-44.5 187l10 99q6 49 -18.5 66t-84.5 18v152q60 1 84.5 17.5t18.5 66.5l-10 99q-14 134 44.5 186t193.5 52h82v-138h-67q-68 0 -82.5 -29t-5.5 -113l7 -74q14 -119 -119 -141v-4q133 -20 119 -141l-7 -75q-9 -84 5.5 -114t82.5 -30h67v-137
h-82z" />
    <glyph glyph-name="braceright.case" horiz-adv-x="483" 
d="M103 31q68 0 82.5 30t5.5 114l-7 75q-14 121 119 141v4q-133 22 -119 141l7 74q9 84 -5.5 113t-82.5 29h-67v138h82q136 0 194 -52t44 -186l-10 -99q-6 -50 18.5 -66.5t84.5 -17.5v-152q-60 -1 -84.5 -17.5t-18.5 -66.5l10 -99q14 -135 -44 -187.5t-194 -52.5h-82v137h67
z" />
    <glyph glyph-name="bracketleft.case" horiz-adv-x="459" 
d="M424 32v-138h-343v996h343v-138h-184v-720h184z" />
    <glyph glyph-name="bracketright.case" horiz-adv-x="459" 
d="M378 -106h-343v138h185v720h-185v138h343v-996z" />
    <glyph glyph-name="parenleft.case" horiz-adv-x="419" 
d="M323 -118q-136 71 -209 200t-73 300v17q0 171 73 300t209 200l79 -104q-199 -132 -199 -396v-17q0 -263 199 -396z" />
    <glyph glyph-name="parenright.case" horiz-adv-x="419" 
d="M17 -14q198 133 198 396v17q0 265 -198 396l79 104q136 -71 209 -200t73 -300v-17q0 -171 -73 -300t-209 -200z" />
    <glyph glyph-name="emdash.case" horiz-adv-x="1001" 
d="M940 314h-879v157h879v-157z" />
    <glyph glyph-name="endash.case" horiz-adv-x="618" 
d="M557 314h-496v157h496v-157z" />
    <glyph glyph-name="hyphen.case" horiz-adv-x="453" 
d="M391 314h-329v159h329v-159z" />
    <glyph glyph-name="guillemotleft.case" horiz-adv-x="712" 
d="M365 251l-96 -92l-233 230l233 231l96 -94l-140 -136zM661 251l-96 -92l-233 230l233 231l96 -94l-140 -136z" />
    <glyph glyph-name="guillemotright.case" horiz-adv-x="712" 
d="M148 620l233 -231l-233 -230l-96 92l140 138l-140 137zM443 620l234 -231l-234 -230l-95 92l140 138l-140 137z" />
    <glyph glyph-name="guilsinglleft.case" horiz-adv-x="417" 
d="M365 251l-96 -92l-233 230l233 231l96 -94l-140 -136z" />
    <glyph glyph-name="guilsinglright.case" horiz-adv-x="417" 
d="M148 620l233 -231l-233 -230l-96 92l140 138l-140 137z" />
    <glyph glyph-name="cent.alt" horiz-adv-x="633" 
d="M598 176q-20 -72 -73 -119t-126 -62v-97h-142v99q-95 23 -155 95.5t-60 174.5q0 98 60.5 171t154.5 98v101h142v-97q73 -15 126 -62t69 -118l-168 -51q-10 30 -34.5 48t-56.5 18q-44 0 -72.5 -31t-28.5 -75q0 -46 27.5 -77t73.5 -31q32 0 57.5 18t37.5 48z" />
    <glyph glyph-name="dollar.alt" horiz-adv-x="696" 
d="M431 783q95 -20 147 -82.5t63 -137.5l-164 -47q-25 112 -126 112q-44 0 -68 -22.5t-24 -49.5q0 -51 62 -64l108 -23q108 -24 167 -85t59 -148q0 -85 -60 -153t-164 -87v-108h-150v108q-107 18 -168 83t-78 164l174 41q11 -61 53.5 -94.5t98.5 -33.5q52 0 75 21t23 50
q0 49 -70 65l-106 24q-99 22 -157.5 81t-58.5 145q0 90 60.5 155.5t153.5 85.5v108h150v-108z" />
    <glyph glyph-name="brevecyr" horiz-adv-x="293" 
d="M266 827q10 -38 34.5 -63.5t63.5 -25.5t63.5 25.5t34.5 63.5l109 -20q-11 -83 -66.5 -135t-140.5 -52q-84 0 -141 53.5t-65 134.5z" />
    <glyph glyph-name="abreve.alt" horiz-adv-x="692" 
d="M558 813q-8 -87 -65.5 -140t-141.5 -53t-141.5 54t-64.5 139h130q5 -34 24.5 -55t51.5 -21t52.5 20.5t25.5 55.5h129zM438 70q-56 -81 -154 -81q-107 0 -178.5 81.5t-71.5 197.5q0 119 75.5 197.5t178.5 78.5q35 0 79 -17t71 -60h3v67h189v-448q0 -53 4 -86h-188
q-5 30 -5 70h-3zM441 268q0 44 -31 76t-75 32t-75 -32t-31 -76t31 -76t75 -32t75 32t31 76z" />
    <glyph glyph-name="zero.slash.osf" horiz-adv-x="719" 
d="M42 306q0 135 87.5 226t231.5 91q143 0 229.5 -91t86.5 -226t-88 -226.5t-230 -91.5q-137 0 -227 89t-90 229zM235 306q0 -28 8 -55l137 195q-14 2 -21 2q-60 0 -92 -40t-32 -102zM483 306q0 23 -7 53l-136 -194q6 -1 19 -1q60 0 92 40t32 102z" />
    <glyph glyph-name="zero.osf" horiz-adv-x="719" 
d="M42 306q0 135 87.5 226t231.5 91q143 0 229.5 -91t86.5 -226t-88 -226.5t-230 -91.5q-137 0 -227 89t-90 229zM240 306q0 -59 31 -97.5t88 -38.5q58 0 89 38.5t31 97.5t-31 97.5t-89 38.5t-88.5 -38t-30.5 -98z" />
    <glyph glyph-name="one.osf" horiz-adv-x="504" 
d="M227 383l-141 -83l-88 147l264 164h161v-611h-196v383z" />
    <glyph glyph-name="two.osf" horiz-adv-x="675" 
d="M624 0h-566v26q0 70 42.5 121.5t146.5 95.5l88 37q52 21 71.5 41t19.5 45q0 38 -27.5 60t-66.5 22q-43 0 -71 -24t-35 -66l-182 43q17 99 95.5 160.5t193.5 61.5q123 0 205.5 -69.5t82.5 -174.5q0 -81 -51.5 -130t-161.5 -91h216v-158z" />
    <glyph glyph-name="three.osf" horiz-adv-x="678" 
d="M332 -185q-111 0 -195 58.5t-107 170.5l179 43q12 -54 46 -79.5t79 -25.5t73 23t28 55q0 78 -101 78h-80v166h73q46 0 70.5 22.5t24.5 53.5q0 32 -24.5 53.5t-71.5 21.5q-40 0 -71 -23t-42 -73l-177 43q23 113 108 167t192 54q117 0 199.5 -59.5t82.5 -162.5
q0 -119 -112 -168v-1q127 -53 127 -180q0 -108 -86 -172.5t-215 -64.5z" />
    <glyph glyph-name="four.osf" horiz-adv-x="756" 
d="M407 -173v173h-380v195l346 415h229v-444h117v-166h-117v-173h-195zM407 166v241l-200 -241h200z" />
    <glyph glyph-name="five.osf" horiz-adv-x="683" 
d="M641 86q0 -84 -45.5 -147t-115 -93.5t-148.5 -30.5q-111 0 -195 58.5t-107 170.5l179 44q12 -55 46 -80.5t78 -25.5q48 0 80.5 28.5t32.5 74.5q0 47 -31.5 76t-79.5 29q-63 0 -101 -46l-5 -6l-168 74l66 399h479v-166h-334l-26 -150q60 47 153 47q58 0 109 -24.5
t84 -68.5q49 -64 49 -163z" />
    <glyph glyph-name="six.osf" horiz-adv-x="711" 
d="M42 355q0 98 32.5 186t94.5 149q109 106 268 106q123 0 211 -51l-74 -155q-62 35 -141 35q-75 0 -131.5 -54t-68.5 -134h1q73 81 193 81q101 0 171 -70t70 -178q0 -131 -89 -207t-217 -76q-141 0 -223 85q-97 102 -97 283zM245 257q0 -44 33.5 -73.5t81.5 -29.5
q49 0 82 28.5t33 74.5q0 44 -32 73.5t-83 29.5q-47 0 -81 -31t-34 -72z" />
    <glyph glyph-name="seven.osf" horiz-adv-x="647" 
d="M408 440h-380v171h595v-164l-334 -620h-217z" />
    <glyph glyph-name="eight.osf" horiz-adv-x="691" 
d="M346 -12q-130 0 -217 63.5t-87 168.5q0 119 136 186v1q-58 23 -87.5 69.5t-29.5 99.5q0 69 43 120.5t106.5 75.5t135.5 24q114 0 199 -59t85 -161q0 -53 -29.5 -99.5t-86.5 -69.5v-1q135 -65 135 -186q0 -104 -85.5 -168t-217.5 -64zM255 552q0 -33 26.5 -56.5
t64.5 -23.5t64.5 23.5t26.5 56.5t-26.5 56.5t-64.5 23.5t-64.5 -23.5t-26.5 -56.5zM237 241q0 -38 30.5 -62.5t78.5 -24.5t78.5 24.5t30.5 62.5q0 37 -30.5 61.5t-78.5 24.5t-78.5 -24t-30.5 -62z" />
    <glyph glyph-name="nine.osf" horiz-adv-x="708" 
d="M664 253q0 -108 -26 -189q-30 -91 -90 -149q-103 -101 -262 -101q-62 0 -128 17q-59 16 -96 37l65 153q39 -21 89 -30q34 -5 65 -5q77 0 132 52q57 54 66 138h-1q-40 -47 -102 -68q-47 -16 -93 -16q-97 0 -167 68q-73 71 -73 180q0 88 43 155q40 62 111 96q69 32 151 32
q74 0 130 -25q52 -22 90 -63q56 -59 79 -148q17 -62 17 -134zM460 353q0 46 -33 74q-31 29 -81 29q-48 0 -81 -28q-34 -29 -34 -76q0 -44 31 -72q32 -29 84 -29q48 0 81 30q33 33 33 72z" />
    <glyph glyph-name="zero.slash.tosf" 
d="M28 305q0 139 87 228.5t226 89.5q137 0 224 -89t87 -228q0 -138 -87.5 -228t-225.5 -90q-137 0 -224 89t-87 228zM216 305q0 -30 7 -54l142 200q-12 3 -25 3q-60 0 -92 -43.5t-32 -105.5zM464 304q0 30 -7 55l-141 -200q8 -2 24 -2q58 0 91 43.5t33 103.5z" />
    <glyph glyph-name="zero.tosf" 
d="M28 305q0 139 87 228.5t226 89.5q137 0 224 -89t87 -228q0 -138 -87.5 -228t-225.5 -90q-137 0 -224 89t-87 228zM224 305q0 -56 30.5 -97t85.5 -41t85.5 40.5t30.5 96.5q0 58 -30 99t-86 41t-86 -40.5t-30 -98.5z" />
    <glyph glyph-name="one.tosf" 
d="M69 0v158h197v241l-153 -59l-61 161l254 109h154v-452h168v-158h-559z" />
    <glyph glyph-name="two.tosf" 
d="M624 0h-566v26q0 70 42.5 121.5t146.5 95.5l88 37q52 21 71.5 41t19.5 45q0 38 -27.5 60t-66.5 22q-43 0 -71 -24t-35 -66l-182 43q17 99 95.5 160.5t193.5 61.5q123 0 205.5 -69.5t82.5 -174.5q0 -81 -51.5 -130t-161.5 -91h216v-158z" />
    <glyph glyph-name="three.tosf" 
d="M341 -185q-111 0 -195 58.5t-107 170.5l179 43q12 -54 46 -79.5t79 -25.5t73 23t28 55q0 78 -101 78h-80v166h73q46 0 70.5 22.5t24.5 53.5q0 32 -24.5 53.5t-71.5 21.5q-40 0 -71 -23t-42 -73l-177 43q23 113 108 167t192 54q117 0 199.5 -59.5t82.5 -162.5
q0 -119 -112 -168v-1q127 -53 127 -180q0 -108 -86 -172.5t-215 -64.5z" />
    <glyph glyph-name="four.tosf" 
d="M388 -173v173h-368v186l329 424h234v-444h78v-166h-78v-173h-195zM388 166v245l-188 -245h188z" />
    <glyph glyph-name="five.tosf" 
d="M645 86q0 -84 -45.5 -147t-114.5 -93.5t-148 -30.5q-111 0 -195 58.5t-107 170.5l179 44q11 -55 45.5 -80.5t78.5 -25.5q48 0 80.5 28.5t32.5 74.5q0 47 -31.5 76t-79.5 29q-63 0 -101 -46l-5 -6l-168 74l66 399h479v-166h-334l-26 -150q60 47 153 47q58 0 109 -24.5
t84 -68.5q48 -63 48 -163z" />
    <glyph glyph-name="six.tosf" 
d="M27 355q0 97 32 185t94 150q52 52 115 77q73 29 154 29q68 0 122 -15q50 -14 89 -36l-74 -155q-45 24 -82 30q-30 5 -59 5q-75 0 -133 -55q-56 -52 -68 -133h2q41 45 100 66q44 15 93 15q99 0 170 -69t71 -179q0 -132 -92 -209q-88 -74 -215 -74q-141 0 -223 85
q-53 56 -79 149q-17 62 -17 134zM230 257q0 -46 33 -74q34 -29 82 -29t81 28q34 29 34 75q0 45 -32 74t-83 29t-82 -30q-33 -31 -33 -73z" />
    <glyph glyph-name="seven.tosf" 
d="M423 440h-380v171h595v-164l-334 -620h-217z" />
    <glyph glyph-name="eight.tosf" 
d="M340 -12q-130 0 -217 63.5t-87 168.5q0 119 136 186v1q-58 23 -87.5 69.5t-29.5 99.5q0 69 43 120.5t106.5 75.5t135.5 24q73 0 137 -24.5t106 -76t42 -119.5q0 -53 -29.5 -99.5t-87.5 -69.5v-1q136 -64 136 -186q0 -104 -86 -168t-218 -64zM249 552q0 -33 26.5 -56.5
t64.5 -23.5t64.5 23.5t26.5 56.5t-26.5 56.5t-64.5 23.5t-64.5 -23.5t-26.5 -56.5zM231 241q0 -38 30.5 -62.5t78.5 -24.5t78.5 24.5t30.5 62.5q0 37 -30.5 61.5t-78.5 24.5t-78.5 -24t-30.5 -62z" />
    <glyph glyph-name="nine.tosf" 
d="M650 253q0 -108 -26 -189q-28 -90 -89 -149q-104 -101 -262 -101q-67 0 -129 17q-61 17 -96 37l66 153q42 -23 89 -30q34 -5 65 -5q77 0 132 52q57 54 66 138h-2q-41 -47 -101 -68q-47 -16 -94 -16q-99 0 -167 68q-72 72 -72 180q0 88 43 155q40 62 111 96q67 32 150 32
q71 0 131 -25q49 -20 90 -63q56 -59 79 -148q16 -63 16 -134zM447 353q0 44 -33 74q-32 29 -81 29t-82 -28t-33 -76q0 -44 31 -72q32 -29 83 -29q49 0 81 30q34 32 34 72z" />
    <glyph glyph-name="zero.slash.tf" 
d="M28 390q0 107 31 197q34 97 100 150q75 59 182 59q110 0 182 -58q65 -53 99 -147q30 -86 30 -197q0 -112 -30 -198q-33 -95 -100 -149q-73 -59 -183 -59q-109 0 -183 58q-66 52 -98 147q-30 89 -30 197zM215 391q0 -39 3 -60l187 265q-21 23 -65 23q-49 0 -80 -39
q-23 -29 -36 -90q-9 -44 -9 -99zM465 391q0 33 -4 62l-186 -265q24 -22 65 -22q50 0 79 39q27 35 37 88q9 49 9 98z" />
    <glyph glyph-name="zero.tf" 
d="M28 390q0 79 17 148.5t52.5 129t98 94t145.5 34.5q84 0 146.5 -34t97 -92.5t51 -127t16.5 -148.5t-16.5 -149.5t-51.5 -128.5t-98 -93.5t-147 -34.5q-68 0 -122 22.5t-89 60t-58 90.5t-32.5 109t-9.5 120zM218 391q0 -36 4.5 -69t16 -70.5t37.5 -59.5t64 -22
q37 0 63 22.5t38 59t16.5 70t4.5 69.5q0 223 -122 223t-122 -223z" />
    <glyph glyph-name="one.tf" 
d="M256 563l-158 -59l-64 167l263 113h155v-620h181v-164h-582v164h205v399z" />
    </font>
</defs>
</svg>
