<?xml version="1.0" standalone="no"?>
<!DOCTYPE svg PUBLIC "-//W3C//DTD SVG 1.1//EN" "http://www.w3.org/Graphics/SVG/1.1/DTD/svg11.dtd" >
<svg xmlns="http://www.w3.org/2000/svg" xmlns:xlink="http://www.w3.org/1999/xlink" version="1.1">
<metadata>
Created by FontForge 20170731 at Wed Nov  1 16:23:42 2017
 By ,,,
Copyright (c) 2016 by THOMAS GILLETT. All rights reserved.
</metadata>
<defs>
<font id="Gordita-BoldItalic" horiz-adv-x="680" >
  <font-face 
    font-family="Bold"
    font-weight="700"
    font-style="italic"
    font-stretch="normal"
    units-per-em="1000"
    panose-1="0 0 0 0 0 0 0 0 0 0"
    ascent="800"
    descent="-200"
    x-height="534"
    cap-height="783"
    bbox="-396 -359 1362 1187"
    underline-thickness="50"
    underline-position="-200"
    slope="-14.5"
    unicode-range="U+0020-FB04"
  />
<missing-glyph horiz-adv-x="799" 
d="M90 0v783h660v-783h-660zM691 725h-537l537 -662v662z" />
    <glyph glyph-name="ff" unicode="ff" horiz-adv-x="812" 
d="M835 401h-131l-106 -401h-158l105 401h-220l-105 -401h-158l105 401h-106l35 133h106l23 79q13 45 29.5 78t44 63.5t70 46.5t99.5 16q70 0 102 -19l-33 -127q-23 10 -50 10q-86 0 -111 -86l-17 -61h222l23 79q13 45 29.5 78t43.5 63.5t69.5 46.5t99.5 16q69 0 103 -19
l-33 -127q-24 10 -50 10q-87 0 -112 -86l-17 -61h133z" />
    <glyph glyph-name="fi" unicode="fi" horiz-adv-x="739" 
d="M545 401h-220l-105 -401h-158l105 401h-106l35 133h106l23 79q13 45 29.5 78t44 63.5t70 46.5t99.5 16q70 0 102 -19l-33 -127q-23 10 -50 10q-86 0 -111 -86l-17 -61h380l-141 -534h-159zM721 817q37 0 61.5 -23t24.5 -60q0 -46 -32.5 -78.5t-79.5 -32.5
q-37 0 -61.5 23.5t-24.5 60.5q-1 46 32 78t80 32z" />
    <glyph glyph-name="fl" unicode="fl" horiz-adv-x="738" 
d="M325 401l-105 -401h-158l105 401h-106l35 133h106l23 79q13 45 29.5 78t44 63.5t70 46.5t99.5 16q70 0 102 -19l-33 -127q-23 10 -50 10q-86 0 -111 -86l-17 -61h221l74 280h158l-215 -814h-158l106 401h-220z" />
    <glyph glyph-name="ffi" unicode="ffi" horiz-adv-x="1119" 
d="M925 401h-221l-106 -401h-158l106 401h-221l-105 -401h-158l105 401h-106l35 133h106l23 79q13 45 29.5 78t44 63.5t70 46.5t99.5 16q70 0 102 -19l-33 -127q-23 10 -50 10q-86 0 -111 -86l-17 -61h222l23 79q13 45 29.5 78t44 63.5t70 46.5t99.5 16q68 0 102 -19
l-33 -127q-23 10 -50 10q-86 0 -111 -86l-17 -61h382l-142 -534h-159zM1101 817q37 0 61.5 -23t24.5 -60q0 -46 -32.5 -78.5t-79.5 -32.5q-37 0 -61.5 23.5t-24.5 60.5q-1 46 32 78t80 32z" />
    <glyph glyph-name="ffl" unicode="ffl" horiz-adv-x="1118" 
d="M603 613q13 45 29.5 78t44 63.5t70 46.5t99.5 16q70 0 102 -19l-33 -127q-23 10 -50 10q-86 0 -111 -86l-17 -61h222l74 280h158l-214 -814h-159l106 401h-221l-105 -401h-159l106 401h-220l-105 -401h-158l105 401h-106l35 133h106l23 79q13 45 29.5 78t44 63.5t70 46.5
t99.5 16q70 0 102 -19l-33 -127q-23 10 -50 10q-86 0 -111 -86l-17 -61h221z" />
    <glyph glyph-name=".notdef" horiz-adv-x="799" 
d="M90 0v783h660v-783h-660zM691 725h-537l537 -662v662z" />
    <glyph glyph-name=".null" horiz-adv-x="0" 
 />
    <glyph glyph-name="nonmarkingreturn" horiz-adv-x="333" 
 />
    <glyph glyph-name="space" unicode=" " horiz-adv-x="251" 
 />
    <glyph glyph-name="exclam" unicode="!" horiz-adv-x="342" 
d="M246 271h-144l121 512h174zM140 182q37 0 61.5 -23t25.5 -60q0 -46 -33 -78.5t-80 -32.5q-37 0 -61 23t-25 60q0 46 33 78.5t79 32.5z" />
    <glyph glyph-name="quotedbl" unicode="&#x22;" horiz-adv-x="514" 
d="M226 418h-69l-6 216q-2 64 24 104t80 40q39 0 62 -22t23 -54q0 -34 -23 -81zM457 418h-68l-6 216q-2 64 24 104t80 40q38 0 61.5 -22t23.5 -54q0 -34 -23 -81z" />
    <glyph glyph-name="numbersign" unicode="#" horiz-adv-x="815" 
d="M684 482l-59 -166h142l-32 -114h-150l-71 -202h-124l70 202h-170l-71 -202h-125l71 202h-135l31 114h144l58 166h-138l31 115h148l66 187h125l-66 -187h171l66 187h124l-66 -187h138l-31 -115h-147zM388 485l-60 -171h174l60 171h-174z" />
    <glyph glyph-name="dollar" unicode="$" horiz-adv-x="701" 
d="M559 532q0 34 -16.5 61t-42.5 39l-47 -180q191 -73 191 -210q0 -84 -44 -142t-111 -83t-149 -24h-9l-25 -95h-95l29 107q-91 23 -147 85.5t-55 158.5v8l151 27v-5q0 -48 25 -84.5t64 -51.5l51 189q-189 74 -189 210q0 114 88 181.5t205 67.5h17l26 100h95l-31 -115
q78 -24 123.5 -79.5t45.5 -139.5zM413 649q-41 -3 -75 -28.5t-34 -66.5t65 -70zM367 130q41 3 75.5 26t34.5 61q0 52 -65 82z" />
    <glyph glyph-name="percent" unicode="%" horiz-adv-x="914" 
d="M335 791q70 0 113.5 -43t43.5 -108q0 -81 -58.5 -142t-146.5 -61q-68 0 -112 42t-44 110q0 82 59 142t145 60zM904 783l-679 -783h-145l680 783h144zM246 602q0 -25 15 -39.5t40 -14.5q31 0 53 24.5t22 54.5q0 24 -14.5 39t-40.5 15q-32 0 -53.5 -24.5t-21.5 -54.5z
M700 349q70 0 113 -43t43 -108q0 -81 -58.5 -141.5t-146.5 -60.5q-67 0 -111 42t-44 109q0 82 59 142t145 60zM611 160q0 -25 14.5 -39.5t40.5 -14.5q31 0 53 24.5t22 54.5q0 24 -15 39t-41 15q-32 0 -53 -24.5t-21 -54.5z" />
    <glyph glyph-name="ampersand" unicode="&#x26;" horiz-adv-x="743" 
d="M451 382l65 -109q47 55 73 103l121 -61q-24 -47 -67 -101q-23 -28 -54 -61l92 -153h-169l-36 60q-109 -71 -217 -71q-96 0 -162 52t-66 149q0 86 63 148t156 100l-5 11q-46 79 -46 134q0 93 74.5 153t170.5 60q91 0 153 -54.5t62 -143.5q0 -69 -50 -122t-123 -81z
M350 583q0 -31 23 -72l13 -22l57 22q28 10 47 30.5t19 48.5q0 31 -23.5 49t-55.5 18q-33 0 -56.5 -20.5t-23.5 -53.5zM285 127q54 0 123 47l-93 157q-123 -47 -123 -118q0 -41 26 -63.5t67 -22.5z" />
    <glyph glyph-name="quotesingle" unicode="'" horiz-adv-x="282" 
d="M227 418h-69l-7 216q-2 64 24.5 104t80.5 40q39 0 62 -22t23 -54q0 -30 -23 -81z" />
    <glyph glyph-name="parenleft" unicode="(" horiz-adv-x="479" 
d="M209 289q0 -99 46 -190t126 -157l-80 -79q-106 71 -169 185t-63 239q0 216 136 371.5t353 215.5l45 -99q-83 -35 -150.5 -80t-124 -104t-88 -136.5t-31.5 -165.5z" />
    <glyph glyph-name="parenright" unicode=")" horiz-adv-x="480" 
d="M331 448q0 99 -46.5 189.5t-125.5 156.5l80 80q106 -71 169 -185t63 -239q0 -217 -136 -372.5t-353 -214.5l-45 99q83 34 150.5 79t124 104.5t88 137t31.5 165.5z" />
    <glyph glyph-name="asterisk" unicode="*" horiz-adv-x="521" 
d="M418 523l48 -126l-94 -37l-51 128l-107 -86l-64 79l105 86l-114 75l56 84l113 -74l36 135l102 -27l-36 -135l135 8l7 -102z" />
    <glyph glyph-name="plus" unicode="+" horiz-adv-x="617" 
d="M586 292h-190l-53 -195h-149l53 195h-195l38 146h196l51 194h149l-51 -194h190z" />
    <glyph glyph-name="comma" unicode="," horiz-adv-x="327" 
d="M-5 -113q88 55 132 125q-19 -8 -37 -8q-33 0 -54.5 21.5t-21.5 55.5q0 50 35 86t84 36q44 0 71 -29.5t27 -74.5q0 -79 -54 -149t-131 -118z" />
    <glyph glyph-name="hyphen" unicode="-" horiz-adv-x="462" 
d="M63 248l41 154h331l-42 -154h-330z" />
    <glyph glyph-name="period" unicode="." horiz-adv-x="315" 
d="M113 -12q-43 0 -70 27t-27 69q0 51 34 86t84 35q42 0 70 -27.5t28 -69.5q0 -50 -35 -85t-84 -35z" />
    <glyph glyph-name="slash" unicode="/" horiz-adv-x="592" 
d="M131 -5h-158l568 820h160z" />
    <glyph glyph-name="zero" unicode="0" horiz-adv-x="773" 
d="M481 795q137 0 210.5 -90.5t73.5 -224.5q0 -89 -27.5 -175.5t-77 -157t-126.5 -114t-169 -43.5q-139 0 -211 86t-72 227q0 89 27 175.5t75.5 157.5t126 115t170.5 44zM249 313q0 -77 27.5 -123t100.5 -46q66 0 118.5 56t77.5 129.5t25 142.5q0 170 -134 170
q-66 0 -117 -56t-74.5 -129.5t-23.5 -143.5z" />
    <glyph glyph-name="one" unicode="1" horiz-adv-x="499" 
d="M336 0h-163l156 584l-176 -86l-60 123l318 162h134z" />
    <glyph glyph-name="two" unicode="2" horiz-adv-x="686" 
d="M536 547q0 44 -30 71t-77 27q-53 0 -93.5 -36.5t-40.5 -112.5l-161 18q0 128 90 204.5t216 76.5q123 0 191 -68t68 -165q0 -101 -57 -164.5t-161 -108.5l-140 -62q-78 -34 -100 -81h360l-39 -146h-566q14 129 85 214.5t194 138.5l111 47q32 14 42 19t37 21t38 28.5
t22 33.5t11 45z" />
    <glyph glyph-name="three" unicode="3" horiz-adv-x="674" 
d="M433 795q115 0 181.5 -61t66.5 -150q0 -75 -48 -126.5t-123 -68.5v-1q47 -22 74.5 -62.5t27.5 -92.5q0 -103 -88.5 -174t-224.5 -71q-105 0 -185 67.5t-81 179.5l162 32q-3 -57 29.5 -93t86.5 -36q50 0 92.5 28.5t42.5 74.5q0 37 -24 59t-72 22h-89l37 148h74
q67 0 105.5 28t38.5 72q0 36 -26.5 57.5t-69.5 21.5q-48 0 -86.5 -26t-59.5 -78l-147 57q39 92 120.5 142.5t185.5 50.5z" />
    <glyph glyph-name="four" unicode="4" horiz-adv-x="731" 
d="M551 156l-41 -156h-159l41 155h-387l48 180l468 448h198l-129 -482h109l-38 -145h-110zM510 596l-309 -296h230z" />
    <glyph glyph-name="five" unicode="5" horiz-adv-x="671" 
d="M300 -10q-117 0 -194 69.5t-76 176.5l164 31q0 -3 -0.5 -9t-0.5 -9q0 -48 33.5 -79t82.5 -31q63 0 106 40t43 97q0 44 -30 71.5t-80 27.5q-32 0 -65 -16t-50 -33l-139 65l168 392h457l-39 -145h-324l-72 -169q65 39 145 39q86 0 141 -59.5t55 -149.5q0 -142 -94.5 -225.5
t-230.5 -83.5z" />
    <glyph glyph-name="six" unicode="6" horiz-adv-x="717" 
d="M550 795q137 0 219 -52l-78 -138q-64 42 -161 42q-44 0 -94.5 -19.5t-90.5 -53.5q-67 -55 -85 -131q33 31 82 48.5t95 17.5q104 0 169.5 -60.5t65.5 -156.5q0 -130 -94 -216t-225 -86q-123 0 -199 74q-79 81 -79 215q0 112 40 215t115 176q130 125 320 125zM237 238
q0 -47 35 -75.5t83 -28.5q60 0 105 39.5t45 98.5q0 47 -34.5 75t-82.5 28q-57 0 -104 -40.5t-47 -96.5z" />
    <glyph glyph-name="seven" unicode="7" horiz-adv-x="630" 
d="M216 0h-192l487 637h-384l39 146h574l-39 -139z" />
    <glyph glyph-name="eight" unicode="8" horiz-adv-x="699" 
d="M334 -10q-110 0 -195 62.5t-85 159.5q0 158 189 213v1q-43 24 -69.5 63t-26.5 88q0 94 81.5 156t204.5 62q111 0 189 -56.5t78 -153.5q0 -72 -46.5 -123t-122.5 -71v-1q107 -55 107 -166q0 -104 -88 -169t-216 -65zM535 565q0 44 -35 69t-78 25t-79.5 -29t-36.5 -71
q0 -44 34 -70t77 -26q47 0 82.5 30t35.5 72zM346 126q48 0 90 29t42 82q0 51 -39.5 77.5t-86.5 26.5t-88.5 -29t-41.5 -81q0 -50 39 -77.5t85 -27.5z" />
    <glyph glyph-name="nine" unicode="9" horiz-adv-x="719" 
d="M248 -10q-145 0 -227 52l74 139q66 -42 172 -42q90 0 167 59t99 144q-33 -30 -83.5 -48t-96.5 -18q-101 0 -168.5 60.5t-67.5 156.5q0 134 94.5 218.5t225.5 84.5q125 0 200.5 -83.5t75.5 -212.5q0 -141 -52.5 -255t-160 -184.5t-252.5 -70.5zM552 547q0 48 -34.5 75.5
t-84.5 27.5q-60 0 -105 -39t-45 -97q0 -48 34.5 -76t83.5 -28q57 0 104 40.5t47 96.5z" />
    <glyph glyph-name="colon" unicode=":" horiz-adv-x="337" 
d="M206 330q-43 0 -70.5 26.5t-27.5 69.5q0 50 34.5 85t84.5 35q42 0 70 -27t28 -69q0 -50 -34.5 -85t-84.5 -35zM115 -12q-43 0 -70 27t-27 69q0 51 34 86t84 35q42 0 70 -27.5t28 -69.5q0 -50 -35 -85t-84 -35z" />
    <glyph glyph-name="semicolon" unicode=";" horiz-adv-x="345" 
d="M206 330q-42 0 -69.5 27t-27.5 69q0 50 34.5 85t84.5 35q42 0 69.5 -27t27.5 -69q0 -50 -34.5 -85t-84.5 -35zM-2 -113q88 55 132 125q-19 -8 -37 -8q-33 0 -54.5 21.5t-21.5 55.5q0 50 35 86t84 36q44 0 71 -29.5t27 -74.5q0 -79 -54 -149t-131 -118z" />
    <glyph glyph-name="less" unicode="&#x3c;" horiz-adv-x="635" 
d="M668 665l-42 -158l-385 -150v-2l306 -150l-37 -142l-460 239l33 123z" />
    <glyph glyph-name="equal" unicode="=" horiz-adv-x="636" 
d="M116 430l38 145h498l-39 -145h-497zM42 155l39 146h498l-39 -146h-498z" />
    <glyph glyph-name="greater" unicode="&#x3e;" horiz-adv-x="636" 
d="M25 63l42 158l385 150l1 3l-306 149l37 142l459 -239l-32 -123z" />
    <glyph glyph-name="question" unicode="?" horiz-adv-x="604" 
d="M243 265q0 20 2 29q6 41 32 76.5t58.5 59.5t64 47t53 50.5t21.5 58.5q0 32 -24 48.5t-58 16.5q-50 0 -85.5 -38.5t-35.5 -94.5l-153 13q0 116 87 190t209 74q90 0 157.5 -49.5t67.5 -138.5q0 -52 -20.5 -93.5t-53 -70t-66 -53.5t-64.5 -57t-44 -68h-148zM309 182
q36 0 61 -23.5t25 -59.5q0 -46 -32.5 -78.5t-79.5 -32.5q-37 0 -61.5 23t-24.5 60q0 46 32.5 78.5t79.5 32.5z" />
    <glyph glyph-name="at" unicode="@" horiz-adv-x="871" 
d="M617 118q-33 0 -63.5 15t-41.5 43q-22 -25 -57.5 -42t-68.5 -17q-58 0 -99.5 45t-41.5 106q0 93 69 170.5t164 77.5q28 0 54 -15t33 -40l17 51h115l-74 -249q-4 -12 -4 -25q0 -30 27 -30q41 0 74.5 34t49.5 78.5t16 84.5q0 108 -84 175.5t-193 67.5q-148 0 -257.5 -112.5
t-109.5 -264.5q0 -128 79 -204t207 -76q54 0 115 19.5t106 50.5l32 -61q-47 -36 -121.5 -59.5t-137.5 -23.5q-154 0 -255 97.5t-101 252.5q0 122 59.5 226t163 165.5t224.5 61.5q138 0 243.5 -85.5t105.5 -215.5q0 -76 -28.5 -143.5t-85.5 -112.5t-131 -45zM476 407
q-42 0 -75.5 -37t-33.5 -79q0 -27 16 -45.5t42 -18.5q42 0 75.5 39.5t33.5 82.5q0 26 -16 42t-42 16z" />
    <glyph glyph-name="A" unicode="A" horiz-adv-x="798" 
d="M579 0l-25 168h-336l-100 -168h-174l480 783h200l121 -783h-166zM492 625l-186 -309h227z" />
    <glyph glyph-name="B" unicode="B" horiz-adv-x="756" 
d="M25 0l209 783h260q49 0 93.5 -9.5t84.5 -30.5t63.5 -60t23.5 -92q0 -76 -46 -127.5t-122 -66.5q108 -48 108 -158q0 -52 -20.5 -94t-54 -68.5t-78.5 -44t-90.5 -25t-93.5 -7.5h-337zM355 635l-45 -170h139q146 0 146 97q0 73 -113 73h-127zM273 326l-47 -178h163
q60 0 103 25t43 77q0 41 -32.5 58.5t-79.5 17.5h-150z" />
    <glyph glyph-name="C" unicode="C" horiz-adv-x="867" 
d="M439 -12q-159 0 -259 95t-100 251q0 98 38.5 184.5t102.5 146.5t149 95t176 35q84 0 150 -24.5t105.5 -65t62 -84.5t30.5 -91l-157 -50q-5 26 -15.5 49.5t-32.5 51t-64 44t-99 16.5q-112 0 -195 -86t-83 -207q0 -99 53.5 -152t156.5 -53q46 0 84 12.5t61.5 29t44 42
t29.5 42.5t19 40l151 -59q-17 -45 -48 -87.5t-79 -83.5t-121 -66t-160 -25z" />
    <glyph glyph-name="D" unicode="D" horiz-adv-x="833" 
d="M25 0l209 783h202q196 0 294 -88t98 -241q0 -57 -15.5 -115.5t-55 -120.5t-98.5 -109.5t-155 -78t-216 -30.5h-263zM358 632l-128 -480h79q155 0 253 80t98 214q0 92 -62 139t-173 47h-67z" />
    <glyph glyph-name="E" unicode="E" horiz-adv-x="665" 
d="M539 0h-514l210 783h510l-40 -150h-348l-43 -163h311l-40 -149h-311l-46 -171h351z" />
    <glyph glyph-name="F" unicode="F" horiz-adv-x="654" 
d="M708 630h-350l-46 -169h313l-40 -152h-313l-83 -309h-164l209 783h515z" />
    <glyph glyph-name="G" unicode="G" horiz-adv-x="880" 
d="M435 -12q-113 0 -195.5 48.5t-121.5 126t-39 172.5q0 118 58.5 223t167 171t241.5 66q80 0 144.5 -23t103 -60t61 -76.5t29.5 -79.5l-156 -48q-32 135 -200 135q-115 0 -198 -88.5t-83 -210.5q0 -89 52 -146.5t155 -57.5q78 0 136.5 36t80.5 98h-238l35 146h411
q-7 -90 -36.5 -166t-82 -136.5t-136 -95t-189.5 -34.5z" />
    <glyph glyph-name="H" unicode="H" horiz-adv-x="839" 
d="M513 0l85 318h-324l-85 -318h-164l209 783h164l-83 -310h324l83 310h164l-209 -783h-164z" />
    <glyph glyph-name="I" unicode="I" horiz-adv-x="353" 
d="M25 0l209 783h165l-209 -783h-165z" />
    <glyph glyph-name="J" unicode="J" horiz-adv-x="628" 
d="M241 -10q-89 0 -154 57.5t-65 145.5q0 69 24 148l162 5q-27 -90 -27 -122q0 -36 20 -58.5t56 -22.5q42 0 72.5 26.5t42.5 68.5l146 545h164l-151 -564q-60 -229 -290 -229z" />
    <glyph glyph-name="K" unicode="K" horiz-adv-x="736" 
d="M490 0l-199 380l-102 -380h-164l209 783h164l-87 -329l340 329h217l-411 -390l219 -393h-186z" />
    <glyph glyph-name="L" unicode="L" horiz-adv-x="602" 
d="M521 0h-496l209 783h164l-169 -631h333z" />
    <glyph glyph-name="M" unicode="M" horiz-adv-x="1059" 
d="M735 0l143 538h-2l-360 -538h-106l-78 537h-2l-143 -537h-162l209 783h210l80 -521l344 521h238l-210 -783h-161z" />
    <glyph glyph-name="N" unicode="N" horiz-adv-x="873" 
d="M531 0l-197 546l-146 -546h-163l209 783h187l192 -538l144 538h162l-208 -783h-180z" />
    <glyph glyph-name="O" unicode="O" horiz-adv-x="910" 
d="M547 795q159 0 257.5 -98t98.5 -247q0 -120 -58.5 -225t-167.5 -171t-242 -66q-154 0 -255 96t-101 250q0 122 61 227.5t169 169.5t238 64zM247 344q0 -92 55.5 -146.5t151.5 -54.5q118 0 199.5 91t81.5 205q0 93 -55 147.5t-152 54.5q-121 0 -201 -92t-80 -205z" />
    <glyph glyph-name="P" unicode="P" horiz-adv-x="706" 
d="M264 277l-74 -277h-165l209 783h231q121 0 192 -44q92 -59 92 -178q0 -133 -99 -208.5t-253 -75.5h-133zM358 631l-55 -206h112q76 0 120.5 31.5t44.5 89.5q0 39 -30 62t-85 23h-107z" />
    <glyph glyph-name="Q" unicode="Q" horiz-adv-x="912" 
d="M903 450q0 -92 -36.5 -177.5t-102.5 -150.5l57 -83l-130 -86l-54 80q-96 -45 -202 -45q-154 0 -255 96t-101 250q0 122 61 227.5t169 169.5t238 64q159 0 257.5 -98t98.5 -247zM735 439q0 93 -55 147.5t-152 54.5q-121 0 -201 -92t-80 -205q0 -92 55.5 -146.5
t151.5 -54.5q52 0 96 18l-103 149l131 87l94 -142q63 83 63 184z" />
    <glyph glyph-name="R" unicode="R" horiz-adv-x="744" 
d="M644 0h-175l-93 281h-114l-75 -281h-162l209 783h242q87 0 147 -21q141 -51 141 -200q0 -197 -226 -259zM355 631l-53 -202h123q72 0 121 29.5t49 87.5q0 85 -123 85h-117z" />
    <glyph glyph-name="S" unicode="S" horiz-adv-x="700" 
d="M561 533q0 55 -37.5 86.5t-98.5 31.5q-46 0 -83.5 -25t-37.5 -70q0 -28 21.5 -44.5t56.5 -29.5l74 -29q83 -32 137 -85t54 -128q0 -124 -88.5 -187.5t-218.5 -63.5q-59 0 -113 16.5t-98 47t-69.5 81.5t-24.5 114v8l153 27v-5q-1 -67 45 -109t114 -42q48 0 90 22t42 66
q0 55 -79 87l-72 29q-191 76 -191 212q0 116 89 184t208 68q120 0 199.5 -62t79.5 -174z" />
    <glyph glyph-name="T" unicode="T" horiz-adv-x="671" 
d="M516 628l-167 -628h-164l167 628h-233l41 155h632l-42 -155h-234z" />
    <glyph glyph-name="U" unicode="U" horiz-adv-x="795" 
d="M361 -10q-54 0 -101 13.5t-86 41.5t-61.5 76.5t-22.5 112.5q0 48 18 116l116 433h164l-120 -450q-11 -40 -11 -78q0 -53 33.5 -83t86.5 -30q70 0 117.5 48.5t67.5 124.5l125 468h164l-132 -490q-18 -68 -44.5 -119.5t-67.5 -94.5t-103 -66t-143 -23z" />
    <glyph glyph-name="V" unicode="V" horiz-adv-x="788" 
d="M427 0h-188l-101 783h168l67 -588l359 588h184z" />
    <glyph glyph-name="W" unicode="W" horiz-adv-x="1204" 
d="M678 549h-1l-305 -549h-177l-44 783h168l17 -557l307 557h172l29 -560l299 560h177l-435 -783h-180z" />
    <glyph glyph-name="X" unicode="X" horiz-adv-x="753" 
d="M502 0l-114 276l-250 -276h-203l387 408l-172 375h183l108 -252l227 252h213l-374 -390l180 -393h-185z" />
    <glyph glyph-name="Y" unicode="Y" horiz-adv-x="753" 
d="M468 300l-81 -300h-165l83 310l-152 473h181l88 -323l265 323h193z" />
    <glyph glyph-name="Z" unicode="Z" horiz-adv-x="683" 
d="M612 149l-40 -149h-599l38 143l508 492h-360l39 148h571l-38 -139l-504 -495h385z" />
    <glyph glyph-name="bracketleft" unicode="[" horiz-adv-x="450" 
d="M-11 -126l265 993h324l-33 -122h-190l-199 -749h189l-32 -122h-324z" />
    <glyph glyph-name="backslash" unicode="\" horiz-adv-x="552" 
d="M175 815h133l146 -820h-133z" />
    <glyph glyph-name="bracketright" unicode="]" horiz-adv-x="450" 
d="M-67 -126l32 122h190l200 749h-189l32 122h323l-265 -993h-323z" />
    <glyph glyph-name="asciicircum" unicode="^" horiz-adv-x="653" 
d="M521 451l-74 207l-181 -207h-169l314 332h119l138 -332h-147z" />
    <glyph glyph-name="underscore" unicode="_" horiz-adv-x="553" 
d="M-120 -191l34 127h553l-34 -127h-553z" />
    <glyph glyph-name="grave" unicode="`" horiz-adv-x="295" 
d="M140 810h172l56 -187h-119z" />
    <glyph glyph-name="a" unicode="a" horiz-adv-x="688" 
d="M391 0l15 57h-2q-81 -67 -156 -67q-96 0 -151.5 66.5t-55.5 161.5q0 137 89 231.5t209 94.5q116 0 170 -90l21 80h157l-141 -534h-155zM203 233q0 -49 31.5 -76t80.5 -27q65 0 111.5 52.5t46.5 118.5q0 48 -33.5 76t-82.5 28q-65 0 -109.5 -53t-44.5 -119z" />
    <glyph glyph-name="b" unicode="b" horiz-adv-x="687" 
d="M220 814h158l-88 -334l2 -1q75 65 152 65q97 0 152 -66t55 -163q0 -136 -89.5 -230.5t-210.5 -94.5q-114 0 -169 89h-2l-20 -79h-154zM220 234q0 -48 33 -76t80 -28q61 0 108.5 49.5t47.5 122.5q0 48 -30.5 75.5t-82.5 27.5q-64 0 -110 -52.5t-46 -118.5z" />
    <glyph glyph-name="c" unicode="c" horiz-adv-x="628" 
d="M306 -12q-115 0 -189 66t-74 181q0 127 93.5 218.5t222.5 91.5q106 0 174 -53.5t80 -131.5l-144 -41q-6 34 -38 59t-78 25q-64 0 -109 -47.5t-45 -115.5q0 -49 29.5 -79.5t82.5 -30.5q48 0 83.5 25t51.5 57l135 -51q-32 -76 -106 -124.5t-169 -48.5z" />
    <glyph glyph-name="d" unicode="d" horiz-adv-x="689" 
d="M546 0h-153l15 58l-2 1q-78 -69 -157 -69q-96 0 -151.5 66.5t-55.5 161.5q0 137 89 231.5t209 94.5q114 0 169 -88l94 358h158zM204 233q0 -49 31.5 -76t80.5 -27q65 0 111.5 52.5t46.5 118.5q0 48 -33.5 76t-82.5 28q-65 0 -109.5 -53t-44.5 -119z" />
    <glyph glyph-name="e" unicode="e" horiz-adv-x="631" 
d="M193 224q0 -50 36 -77.5t83 -27.5q88 0 126 74l123 -57q-83 -148 -258 -148q-113 0 -187 68.5t-74 177.5q0 129 93.5 220t214.5 91q108 0 177.5 -61.5t69.5 -166.5q0 -46 -16 -93h-388zM446 327q1 4 1 11q0 41 -29.5 61.5t-72.5 20.5q-44 0 -82.5 -26.5t-51.5 -66.5h235z
" />
    <glyph glyph-name="f" unicode="f" horiz-adv-x="434" 
d="M359 534h133l-35 -133h-132l-105 -401h-158l105 401h-106l35 133h106l23 79q13 45 29.5 78t44 63.5t70 46.5t99.5 16q70 0 102 -19l-33 -127q-23 10 -50 10q-86 0 -111 -86z" />
    <glyph glyph-name="g" unicode="g" horiz-adv-x="690" 
d="M407 69q-62 -58 -155 -58q-91 0 -150 64t-59 156q0 131 89 221.5t201 90.5q119 0 181 -87l21 78h155l-138 -521q-74 -280 -322 -280q-130 0 -201 66.5t-71 155.5l146 29q0 -47 32.5 -81.5t93.5 -34.5q58 0 101 37t62 109zM312 146q60 0 106 47t46 113q0 45 -30 72t-77 27
q-63 0 -108 -47.5t-45 -112.5q0 -45 29.5 -72t78.5 -27z" />
    <glyph glyph-name="h" unicode="h" horiz-adv-x="637" 
d="M290 480q68 64 149 64q72 0 114.5 -43.5t42.5 -113.5q0 -21 -18 -104l-75 -283h-158l76 288q7 23 7 47q0 65 -73 65q-86 0 -114 -105l-77 -295h-158l214 814h158z" />
    <glyph glyph-name="i" unicode="i" horiz-adv-x="305" 
d="M287 817q37 0 61.5 -23t24.5 -60q0 -46 -32.5 -78.5t-79.5 -32.5q-37 0 -61.5 23.5t-24.5 60.5q0 46 33 78t79 32zM164 0h-159l141 534h159z" />
    <glyph glyph-name="j" unicode="j" horiz-adv-x="313" 
d="M295 817q37 0 61.5 -23t24.5 -60q0 -46 -32.5 -78.5t-79.5 -32.5q-37 0 -61.5 23.5t-24.5 60.5q0 46 33 78t79 32zM154 534h158l-165 -629q-21 -84 -76 -126.5t-136 -42.5q-72 0 -107 23l32 124q26 -11 52 -11q67 0 87 72z" />
    <glyph glyph-name="k" unicode="k" horiz-adv-x="618" 
d="M369 0l-136 256h-2l-67 -256h-158l215 815h157l-128 -487h2l221 206h215l-295 -261l158 -273h-182z" />
    <glyph glyph-name="l" unicode="l" horiz-adv-x="305" 
d="M6 0l214 814h158l-214 -814h-158z" />
    <glyph glyph-name="m" unicode="m" horiz-adv-x="967" 
d="M687 400q-83 0 -111 -105l-77 -295h-158l76 288q7 30 7 47q0 65 -70 65q-86 0 -112 -105l-78 -295h-158l140 534h154l-13 -57h1q68 67 149 67q46 0 83 -21t52 -63q91 84 199 84q73 0 114 -43.5t41 -113.5q0 -40 -19 -104l-74 -283h-158l76 288q7 24 7 47q0 65 -71 65z
" />
    <glyph glyph-name="n" unicode="n" horiz-adv-x="638" 
d="M345 0l77 288q7 26 7 47q0 32 -20.5 48.5t-53.5 16.5q-44 0 -73 -29t-41 -76l-77 -295h-158l140 534h154l-14 -57h2q71 67 151 67q70 0 113.5 -42.5t43.5 -114.5q0 -38 -18 -104l-75 -283h-158z" />
    <glyph glyph-name="o" unicode="o" horiz-adv-x="657" 
d="M358 545q116 0 189 -66.5t73 -180.5q0 -129 -93.5 -219.5t-222.5 -90.5q-113 0 -187.5 67.5t-74.5 180.5q0 124 92.5 216.5t223.5 92.5zM310 130q63 0 108.5 49t45.5 115q0 49 -31.5 79t-80.5 30q-66 0 -110 -49t-44 -114q0 -48 29 -79t83 -31z" />
    <glyph glyph-name="p" unicode="p" horiz-adv-x="687" 
d="M146 534h154l-14 -56l2 -1q78 67 157 67q97 0 151.5 -66t55.5 -163q0 -137 -90 -231t-210 -94q-111 0 -167 85h-1l-89 -339h-158zM220 234q0 -48 33 -76t81 -28q61 0 108 50t47 122q0 48 -30.5 75.5t-81.5 27.5q-64 0 -110.5 -52.5t-46.5 -118.5z" />
    <glyph glyph-name="q" unicode="q" horiz-adv-x="688" 
d="M320 -264l83 319h-1q-77 -65 -153 -65q-96 0 -151.5 66.5t-55.5 161.5q0 137 89 231.5t209 94.5q116 0 172 -92l21 82h154l-209 -798h-158zM204 233q0 -49 31.5 -76t80.5 -27q65 0 111.5 52.5t46.5 118.5q0 48 -33.5 76t-82.5 28q-65 0 -109.5 -53t-44.5 -119z" />
    <glyph glyph-name="r" unicode="r" horiz-adv-x="426" 
d="M435 378q-25 7 -48 7q-58 0 -102.5 -39t-63.5 -112l-62 -234h-153l140 534h148l-20 -78h1q63 84 161 84q20 0 40 -6z" />
    <glyph glyph-name="s" unicode="s" horiz-adv-x="521" 
d="M231 110q27 0 47.5 13t20.5 35q0 28 -36 43l-59 23q-119 47 -119 139q0 79 64.5 131.5t149.5 52.5q80 0 143.5 -47.5t63.5 -124.5l-139 -15q0 30 -21 48.5t-49 18.5q-24 0 -43 -12.5t-19 -33.5q0 -28 34 -41l55 -21q61 -24 96 -57.5t35 -88.5q0 -83 -67.5 -134
t-159.5 -51t-156.5 46t-64.5 129v4l139 22q-1 -37 24 -58t61 -21z" />
    <glyph glyph-name="t" unicode="t" horiz-adv-x="453" 
d="M263 200q-3 -12 -3 -24q0 -50 64 -50q32 0 52 6l-33 -125q-32 -14 -83 -14q-163 0 -163 140q0 35 9 70l52 196h-102l35 135h105l44 167h156l-44 -167h129l-37 -135h-128z" />
    <glyph glyph-name="u" unicode="u" horiz-adv-x="639" 
d="M204 -11q-68 0 -113 43t-45 115q0 34 19 104l75 283h157l-76 -288q-7 -26 -7 -47q0 -65 74 -65q85 0 113 105l78 295h157l-140 -534h-154l15 58h-2q-71 -69 -151 -69z" />
    <glyph glyph-name="v" unicode="v" horiz-adv-x="616" 
d="M319 0h-158l-75 534h159l39 -351l222 351h171z" />
    <glyph glyph-name="w" unicode="w" horiz-adv-x="892" 
d="M599 202l187 332h163l-309 -534h-155l-18 339l-199 -339h-153l-25 534h157l9 -329l186 329h144z" />
    <glyph glyph-name="x" unicode="x" horiz-adv-x="580" 
d="M380 265l123 -265h-176l-59 150l-135 -150h-187l263 275l-125 259h177l58 -147l130 147h187z" />
    <glyph glyph-name="y" unicode="y" horiz-adv-x="613" 
d="M155 -263h-171l175 270l-72 527h158l38 -350l216 350h175z" />
    <glyph glyph-name="z" unicode="z" horiz-adv-x="540" 
d="M-24 0l32 122l314 279h-233l35 133h440l-31 -120l-319 -281h248l-35 -133h-451z" />
    <glyph glyph-name="braceleft" unicode="{" horiz-adv-x="449" 
d="M245 -126q-78 0 -128.5 32.5t-50.5 106.5q0 48 23 107l36 93q11 27 11 46q0 18 -9 29t-27.5 15t-29.5 5t-32 1l32 123q64 0 97 18.5t41 77.5l17 116q18 125 83.5 174t193.5 49h72l-32 -122h-55q-75 0 -101 -35.5t-37 -118.5l-15 -98q-8 -58 -42.5 -86.5t-95.5 -37.5h-1
q82 -20 82 -94q0 -26 -12 -60l-28 -72q-27 -73 -27 -97q0 -17 7 -27.5t21 -15t26 -6t29 -1.5h51l-32 -122h-67z" />
    <glyph glyph-name="bar" unicode="|" horiz-adv-x="317" 
d="M-8 -116l269 1007h135l-270 -1007h-134z" />
    <glyph glyph-name="braceright" unicode="}" horiz-adv-x="448" 
d="M264 867q78 0 128.5 -33t50.5 -106q0 -51 -24 -107l-36 -93q-10 -30 -10 -46q0 -18 9 -29t27.5 -15t29.5 -5t32 -1l-32 -123q-63 0 -97 -19t-42 -77l-16 -117q-18 -124 -84 -173t-194 -49h-71l32 122h54q76 0 101.5 35t37.5 118l14 99q9 58 43 86t96 37v1q-81 18 -81 93
q0 31 13 61l27 72q26 68 26 97q0 17 -7 27.5t-21 15t-25.5 6t-28.5 1.5h-51l32 122h67z" />
    <glyph glyph-name="asciitilde" unicode="~" horiz-adv-x="642" 
d="M434 191q-46 0 -114 41t-94 41q-36 0 -78 -52l-84 82q69 110 166 110q40 0 81.5 -20.5t74.5 -41t52 -20.5q38 0 78 53l84 -82q-68 -111 -166 -111z" />
    <glyph glyph-name="exclamdown" unicode="&#xa1;" horiz-adv-x="326" 
d="M199 352q-37 0 -61.5 23t-24.5 60q-1 46 32 78t80 32q37 0 61.5 -23t24.5 -60q0 -46 -33 -78t-79 -32zM116 -250h-175l152 512h145z" />
    <glyph glyph-name="cent" unicode="&#xa2;" horiz-adv-x="653" 
d="M283 -102h-82l27 101q-81 22 -129.5 83.5t-48.5 152.5q0 127 94 219.5t222 90.5h6l24 92h81l-26 -102q71 -19 115.5 -66.5t53.5 -107.5l-143 -41q-10 52 -65 75l-70 -264q39 7 69 30t42 50l135 -51q-32 -76 -106.5 -124.5t-169.5 -47.5h-5zM336 403q-56 -9 -93.5 -55.5
t-37.5 -107.5q0 -75 62 -101z" />
    <glyph glyph-name="sterling" unicode="&#xa3;" horiz-adv-x="714" 
d="M83 325l32 127h76q-4 24 -4 54q0 129 79.5 206t215.5 77q110 0 172 -66.5t51 -171.5l-161 -16q4 42 -16 73.5t-65 31.5q-54 0 -80.5 -35t-26.5 -93q0 -25 5 -60h193l-33 -127h-152q-13 -118 -112 -172h143q96 0 111 92l153 -26q-14 -99 -80.5 -159t-178.5 -60h-410
l38 147q72 16 117 64t51 114h-118z" />
    <glyph glyph-name="currency" unicode="&#xa4;" horiz-adv-x="759" 
d="M495 63q-55 -27 -112 -27t-112 27l-87 -87l-95 96l84 84q-30 51 -30 115q0 60 29 115l-83 85l95 95l87 -88q53 27 112 27q62 0 111 -27l87 87l95 -94l-84 -85q31 -52 31 -115q0 -61 -30 -116l84 -84l-95 -96zM382 369q-44 0 -72 -27.5t-28 -71.5q0 -43 28 -71t72 -28
q43 0 71.5 28t28.5 71q0 44 -28.5 71.5t-71.5 27.5z" />
    <glyph glyph-name="yen" unicode="&#xa5;" horiz-adv-x="782" 
d="M739 414l-28 -103h-228l-21 -76h229l-27 -103h-229l-36 -132h-163l35 132h-228l28 103h228l20 76h-228l28 103h175l-118 369h181l78 -326l255 326h194l-315 -369h170z" />
    <glyph glyph-name="brokenbar" unicode="&#xa6;" horiz-adv-x="314" 
d="M290 501h-135l105 390h134zM95 274h134l-104 -390h-134z" />
    <glyph glyph-name="section" unicode="&#xa7;" horiz-adv-x="688" 
d="M411 156q0 18 -21 30t-73 27l-62 18q-173 48 -173 152q0 55 40 94t120 56q-47 42 -47 94q0 75 70 122t179 47q98 0 168 -44.5t97 -113.5l-115 -54q-16 37 -57.5 64t-100.5 27q-37 0 -60.5 -13t-23.5 -35q0 -18 20 -30t68 -26l62 -17q83 -24 131 -60t48 -94
q0 -55 -40 -93.5t-120 -54.5q46 -41 46 -96q0 -75 -70 -121.5t-179 -46.5q-114 0 -187 49.5t-92 120.5l117 50q9 -22 24 -42t54 -39t93 -19q37 0 60.5 13t23.5 35zM313 467q-31 0 -54.5 -17t-23.5 -42q0 -23 21.5 -37t68.5 -28l30 -9q60 -18 95 -18q30 0 53.5 17t23.5 42
q0 23 -21.5 37t-66.5 27l-31 10q-64 18 -95 18z" />
    <glyph glyph-name="dieresis" unicode="&#xa8;" horiz-adv-x="427" 
d="M224 778q32 0 51.5 -20t19.5 -50q0 -36 -26.5 -63.5t-66.5 -27.5q-31 0 -51.5 19t-20.5 50q0 37 27.5 64.5t66.5 27.5zM450 778q32 0 51.5 -20t19.5 -50q0 -36 -27 -63.5t-67 -27.5q-31 0 -51 19t-20 50q0 37 27 64.5t67 27.5z" />
    <glyph glyph-name="copyright" unicode="&#xa9;" horiz-adv-x="918" 
d="M493 -10q-165 0 -282 117.5t-117 284.5q0 166 118.5 284.5t283.5 118.5t283 -117t118 -283q0 -167 -119.5 -286t-284.5 -119zM495 729q-135 0 -232.5 -99t-97.5 -237q0 -139 97.5 -238t232.5 -99t233.5 99.5t98.5 237.5t-98.5 237t-233.5 99zM735 308q-21 -78 -87.5 -120
t-147.5 -42q-111 0 -183 69.5t-72 175.5q0 105 74 176.5t183 71.5q81 0 147 -42t83 -119l-126 -38q-8 30 -36 51t-70 21q-48 0 -80.5 -32.5t-32.5 -86.5q0 -53 31.5 -86.5t81.5 -33.5q43 0 70.5 21t38.5 52z" />
    <glyph glyph-name="ordfeminine" unicode="&#xaa;" horiz-adv-x="555" 
d="M297 381q-66 0 -104.5 46.5t-38.5 112.5q0 95 61.5 160.5t145.5 65.5q81 0 118 -62l14 55h109l-80 -303q-8 -38 -9 -55v-13h-109v12q0 9 4 27l-2 1q-55 -47 -109 -47zM267 550q0 -34 21.5 -52.5t56.5 -18.5q45 0 77 36.5t32 81.5q0 33 -23.5 52.5t-57.5 19.5
q-45 0 -75.5 -36.5t-30.5 -82.5zM484 296l-26 -97h-397l25 97h398z" />
    <glyph glyph-name="guillemotleft" unicode="&#xab;" horiz-adv-x="673" 
d="M320 146l-94 -75l-183 231l283 230l73 -90l-191 -154zM592 146l-93 -75l-183 231l283 230l72 -90l-191 -154z" />
    <glyph glyph-name="logicalnot" unicode="&#xac;" horiz-adv-x="716" 
d="M87 418l38 141h599l-86 -324h-158l49 183h-442z" />
    <glyph glyph-name="registered" unicode="&#xae;" horiz-adv-x="669" 
d="M403 241q-114 0 -194 80.5t-80 194.5t80 194.5t194 80.5t194.5 -81t80.5 -194q0 -114 -80.5 -194.5t-194.5 -80.5zM403 741q-92 0 -157 -65.5t-65 -159.5t65 -159.5t157 -65.5t157.5 65.5t65.5 159.5t-65.5 159.5t-157.5 65.5zM410 472h-47v-113h-65v314h124
q48 0 79.5 -25.5t31.5 -73.5q0 -66 -59 -90l65 -125h-71zM467 572q0 39 -50 39h-54v-78h54q21 0 35.5 9.5t14.5 29.5z" />
    <glyph glyph-name="macron" unicode="&#xaf;" horiz-adv-x="396" 
d="M496 745l-31 -117h-365l31 117h365z" />
    <glyph glyph-name="degree" unicode="&#xb0;" horiz-adv-x="463" 
d="M302 412q-74 0 -122 47t-48 122q0 86 60.5 147.5t146.5 61.5q74 0 122.5 -47.5t48.5 -120.5q0 -87 -60.5 -148.5t-147.5 -61.5zM310 519q38 0 64.5 29t26.5 67q0 29 -20 48.5t-49 19.5q-38 0 -64 -28.5t-26 -66.5q0 -30 19 -49.5t49 -19.5z" />
    <glyph glyph-name="plusminus" unicode="&#xb1;" horiz-adv-x="659" 
d="M390 209h-141l44 167h-197l38 144h198l44 166h141l-44 -166h193l-39 -144h-192zM559 139l-37 -139h-522l37 139h522z" />
    <glyph glyph-name="uni00B2" unicode="&#xb2;" horiz-adv-x="474" 
d="M114 458q15 63 60 112t107 74l73 29q69 26 69 72q0 40 -51 40q-35 0 -55 -26.5t-20 -53.5l-113 15q11 78 66 124.5t136 46.5q69 0 113 -39t44 -97q0 -67 -42 -107.5t-108 -66.5l-68 -27q-35 -15 -41 -24h201l-27 -104h-352z" />
    <glyph glyph-name="uni00B3" unicode="&#xb3;" horiz-adv-x="468" 
d="M439 649q56 -26 56 -89q0 -64 -56 -103.5t-150 -39.5q-72 0 -121 36.5t-52 106.5l107 18q2 -31 21.5 -47.5t49.5 -16.5q36 0 59 14.5t23 40.5q0 41 -62 41h-34l24 90h27q87 0 87 51q0 43 -63 43q-54 0 -82 -52l-103 33q28 55 79 85.5t120 30.5q77 0 122 -36t45 -93
q0 -42 -27 -72.5t-70 -40.5z" />
    <glyph glyph-name="acute" unicode="&#xb4;" horiz-adv-x="313" 
d="M265 811h191l-215 -188h-137z" />
    <glyph glyph-name="uni00B5" unicode="&#xb5;" horiz-adv-x="668" 
d="M227 -8q-39 0 -55 16l-45 -172h-153l183 698h158l-76 -288q-7 -26 -7 -47q0 -65 74 -65q85 0 113 105l78 295h157l-113 -436q-13 -49 -14 -79v-19h-157q-2 11 0 18q0 18 5 40h-2q-68 -66 -146 -66z" />
    <glyph glyph-name="paragraph" unicode="&#xb6;" horiz-adv-x="577" 
d="M120 544q0 102 75.5 170.5t230.5 68.5h189l-209 -783h-160l96 360q-108 2 -165 49t-57 135z" />
    <glyph glyph-name="periodcentered" unicode="&#xb7;" horiz-adv-x="323" 
d="M165 207q-43 0 -70.5 27t-27.5 70q0 50 35 85t84 35q42 0 70 -27.5t28 -69.5q0 -50 -35 -85t-84 -35z" />
    <glyph glyph-name="cedilla" unicode="&#xb8;" horiz-adv-x="339" 
d="M26 -261q-46 0 -81 11l26 101q28 -5 46 -5q48 0 74 33.5t26 86.5q0 23 -4 34h112q14 -23 14 -66q0 -97 -57 -146t-156 -49z" />
    <glyph glyph-name="uni00B9" unicode="&#xb9;" horiz-adv-x="374" 
d="M213 426l83 318l-104 -53l-44 87l202 101h117l-120 -453h-134z" />
    <glyph glyph-name="ordmasculine" unicode="&#xba;" horiz-adv-x="539" 
d="M375 767q80 0 130.5 -46.5t50.5 -125.5q0 -89 -65 -152t-154 -63q-79 0 -130.5 46.5t-51.5 125.5q0 86 64 150.5t156 64.5zM341 479q44 0 75.5 33.5t31.5 79.5q0 34 -22 55t-56 21q-46 0 -76.5 -34t-30.5 -79q0 -33 20.5 -54.5t57.5 -21.5zM479 296l-25 -97h-394l25 97
h394z" />
    <glyph glyph-name="guillemotright" unicode="&#xbb;" horiz-adv-x="674" 
d="M105 457l94 75l183 -231l-283 -230l-73 90l191 154zM378 457l94 75l183 -231l-283 -230l-73 90l191 154z" />
    <glyph glyph-name="onequarter" unicode="&#xbc;" horiz-adv-x="1079" 
d="M341 329h-134l84 318l-105 -52l-43 87l201 101h117zM966 783l-678 -783h-145l679 783h144zM915 83l-21 -83h-119l22 83h-229l34 130l262 241h149l-71 -268h74l-28 -103h-73zM863 333l-160 -147h121z" />
    <glyph glyph-name="onehalf" unicode="&#xbd;" horiz-adv-x="1081" 
d="M341 329l-134 1l84 317l-105 -52l-43 87l201 101h116zM967 783l-678 -783h-145l679 783h144zM607 0l7 32q15 63 60 112.5t107 73.5l74 30q68 25 68 71q0 40 -51 40q-34 0 -54 -26.5t-20 -53.5l-114 16q12 78 67.5 124t135.5 46q68 0 112 -39t44 -96q0 -68 -42 -108.5
t-108 -66.5l-67 -26q-33 -13 -41 -25h201l-28 -104h-351z" />
    <glyph glyph-name="threequarters" unicode="&#xbe;" horiz-adv-x="1136" 
d="M354 794q79 0 125.5 -36t46.5 -94q0 -43 -27.5 -72.5t-69.5 -39.5h-1q57 -27 57 -88q0 -65 -57.5 -104.5t-152.5 -39.5q-74 0 -125 38t-53 109l117 20q1 -31 18 -47.5t45 -16.5q31 0 53 14t22 39q0 37 -51 37h-59l24 91h45q81 0 81 49q0 17 -14 27.5t-40 10.5
q-55 0 -83 -51l-109 34q25 59 80 89.5t128 30.5zM906 783l-680 -783h145l679 783h-144zM1054 83l27 103h-73l71 268h-149l-262 -241l-34 -130h229l-22 -83h118l22 83h73zM890 186h-122l161 147z" />
    <glyph glyph-name="questiondown" unicode="&#xbf;" horiz-adv-x="594" 
d="M294 352q-37 0 -61.5 23t-24.5 60q0 46 32.5 78t79.5 32q37 0 61.5 -23t24.5 -60q0 -46 -32.5 -78t-79.5 -32zM360 269q0 -20 -2 -30q-6 -41 -32 -76t-58.5 -59.5t-64 -47.5t-53 -50.5t-21.5 -58.5q0 -32 24 -48.5t58 -16.5q50 0 85.5 39t35.5 95l153 -14
q0 -116 -87 -190t-209 -74q-90 0 -157.5 49.5t-67.5 138.5q0 52 20.5 93.5t53 70t66 53.5t64.5 57.5t44 68.5h148z" />
    <glyph glyph-name="Agrave" unicode="&#xc0;" horiz-adv-x="798" 
d="M596 855h-118l-109 187h172zM424 783l-480 -783h174l100 168h336l25 -168h166l-121 783h-200zM492 625l41 -309h-227z" />
    <glyph glyph-name="Aacute" unicode="&#xc1;" horiz-adv-x="798" 
d="M634 1043h190l-214 -188h-138zM218 168l-100 -168h-174l480 783h200l121 -783h-166l-25 168h-336zM533 316l-41 309l-186 -309h227z" />
    <glyph glyph-name="Acircumflex" unicode="&#xc2;" horiz-adv-x="798" 
d="M727 854h-127l-37 91l-85 -91h-139l166 174h146zM218 168l-100 -168h-174l480 783h200l121 -783h-166l-25 168h-336zM533 316l-41 309l-186 -309h227z" />
    <glyph glyph-name="Atilde" unicode="&#xc3;" horiz-adv-x="798" 
d="M617 854q-37 0 -76 23.5t-57 23.5q-28 0 -44 -47h-97l6 25q32 130 143 130q34 0 73.5 -23.5t56.5 -23.5q14 0 24.5 8.5t14 15.5t8.5 21h94l-6 -26q-31 -127 -140 -127zM218 168l-100 -168h-174l480 783h200l121 -783h-166l-25 168h-336zM533 316l-41 309l-186 -309h227z
" />
    <glyph glyph-name="Adieresis" unicode="&#xc4;" horiz-adv-x="798" 
d="M440 1007q32 0 52 -19.5t20 -49.5q0 -37 -27 -64.5t-67 -27.5q-31 0 -51 19t-20 50q0 37 27 64.5t66 27.5zM676 1007q32 0 51.5 -19.5t19.5 -49.5q0 -37 -26.5 -64.5t-67.5 -27.5q-30 0 -50 19t-20 50q0 37 27 64.5t66 27.5zM218 168l-100 -168h-174l480 783h200
l121 -783h-166l-25 168h-336zM533 316l-41 309l-186 -309h227z" />
    <glyph glyph-name="Aring" unicode="&#xc5;" horiz-adv-x="798" 
d="M579 0l-25 168h-336l-100 -168h-174l462 754q-15 27 -15 62q0 69 49.5 119t121.5 50q58 0 94 -36t36 -90q0 -78 -60 -129l113 -730h-166zM552 899q-29 0 -50 -22t-21 -51q0 -24 13.5 -37.5t37.5 -13.5q28 0 49.5 23t21.5 51q0 24 -13.5 37t-37.5 13zM492 625l-186 -309
h227z" />
    <glyph glyph-name="AE" unicode="&#xc6;" horiz-adv-x="1072" 
d="M-78 0l611 783h619l-40 -150h-344l-44 -162h308l-40 -150h-308l-45 -171h347l-40 -150h-510l42 156h-249l-119 -156h-188zM345 307h173l88 328h-10z" />
    <glyph glyph-name="Ccedilla" unicode="&#xc7;" horiz-adv-x="867" 
d="M458 143q46 0 84 12.5t61.5 29t44 42t29.5 42.5t19 40l151 -59q-36 -92 -122.5 -167t-224.5 -91q10 -27 10 -58q0 -97 -57.5 -146t-156.5 -49q-45 0 -81 11l27 101q27 -5 46 -5q48 0 74 33.5t26 86.5q0 7 -2 25q-138 17 -222 109.5t-84 233.5q0 98 38.5 184.5
t102.5 146.5t149 95t176 35q84 0 150 -24.5t105.5 -65t62 -84.5t30.5 -91l-157 -50q-5 26 -15.5 49.5t-32.5 51t-64 44t-99 16.5q-112 0 -195 -86t-83 -207q0 -99 53.5 -152t156.5 -53z" />
    <glyph glyph-name="Egrave" unicode="&#xc8;" horiz-adv-x="665" 
d="M563 855h-119l-109 187h172zM274 321h311l40 149h-311l43 163h348l40 150h-510l-210 -783h514l40 150h-351z" />
    <glyph glyph-name="Eacute" unicode="&#xc9;" horiz-adv-x="665" 
d="M592 1043h191l-215 -188h-137zM235 783h510l-40 -150h-348l-43 -163h311l-40 -149h-311l-46 -171h351l-40 -150h-514z" />
    <glyph glyph-name="Ecircumflex" unicode="&#xca;" horiz-adv-x="665" 
d="M691 854h-127l-36 91l-86 -91h-138l166 174h146zM235 783h510l-40 -150h-348l-43 -163h311l-40 -149h-311l-46 -171h351l-40 -150h-514z" />
    <glyph glyph-name="Edieresis" unicode="&#xcb;" horiz-adv-x="665" 
d="M411 1002q32 0 51.5 -19.5t19.5 -49.5q0 -37 -27 -64.5t-67 -27.5q-31 0 -51 19t-20 50q0 37 27 64.5t67 27.5zM646 1002q32 0 51.5 -19.5t19.5 -49.5q0 -37 -26.5 -64.5t-66.5 -27.5q-31 0 -51.5 19t-20.5 50q0 37 27.5 64.5t66.5 27.5zM235 783h510l-40 -150h-348
l-43 -163h311l-40 -149h-311l-46 -171h351l-40 -150h-514z" />
    <glyph glyph-name="Igrave" unicode="&#xcc;" horiz-adv-x="353" 
d="M396 855h-119l-109 187h172zM234 783l-209 -783h165l209 783h-165z" />
    <glyph glyph-name="Iacute" unicode="&#xcd;" horiz-adv-x="353" 
d="M429 1043h190l-214 -188h-138zM399 783l-209 -783h-165l209 783h165z" />
    <glyph glyph-name="Icircumflex" unicode="&#xce;" horiz-adv-x="353" 
d="M517 854h-127l-37 91l-85 -91h-139l166 174h146zM399 783l-209 -783h-165l209 783h165z" />
    <glyph glyph-name="Idieresis" unicode="&#xcf;" horiz-adv-x="353" 
d="M245 1007q32 0 51.5 -19.5t19.5 -49.5q0 -37 -26.5 -64.5t-66.5 -27.5q-31 0 -51 19t-20 50q0 37 27 64.5t66 27.5zM466 1007q32 0 52 -19.5t20 -49.5q0 -37 -26.5 -64.5t-67.5 -27.5q-31 0 -51 19t-20 50q0 37 27 64.5t66 27.5zM399 783l-209 -783h-165l209 783h165z
" />
    <glyph glyph-name="Eth" unicode="&#xd0;" horiz-adv-x="865" 
d="M143 321h-96l39 148h96l84 314h201q197 0 294.5 -88t97.5 -241q0 -57 -15.5 -115.5t-55 -120.5t-98 -109.5t-154.5 -78t-216 -30.5h-263zM346 469h169l-39 -148h-169l-45 -169h79q155 0 252.5 80t97.5 214q0 92 -62 139t-172 47h-67z" />
    <glyph glyph-name="Ntilde" unicode="&#xd1;" horiz-adv-x="873" 
d="M670 854q-36 0 -75 23.5t-57 23.5q-28 0 -44 -47h-97l6 25q14 59 49.5 94.5t92.5 35.5q34 0 73.5 -23.5t57.5 -23.5q14 0 24.5 8.5t14 15.5t8.5 21h94l-6 -26q-34 -127 -141 -127zM188 0h-163l209 783h187l192 -538l144 538h162l-208 -783h-180l-197 546z" />
    <glyph glyph-name="Ograve" unicode="&#xd2;" horiz-adv-x="910" 
d="M608 855h-119l-109 187h172zM547 795q-130 0 -238 -64t-169 -169.5t-61 -227.5q0 -154 101 -250t255 -96q133 0 242 66t167.5 171t58.5 225q0 149 -98.5 247t-257.5 98zM247 344q0 113 80 205t201 92q97 0 152 -54.5t55 -147.5q0 -114 -81.5 -205t-199.5 -91
q-96 0 -151.5 54.5t-55.5 146.5z" />
    <glyph glyph-name="Oacute" unicode="&#xd3;" horiz-adv-x="910" 
d="M645 1043h190l-214 -188h-138zM547 795q159 0 257.5 -98t98.5 -247q0 -120 -58.5 -225t-167.5 -171t-242 -66q-154 0 -255 96t-101 250q0 122 61 227.5t169 169.5t238 64zM247 344q0 -92 55.5 -146.5t151.5 -54.5q118 0 199.5 91t81.5 205q0 93 -55 147.5t-152 54.5
q-121 0 -201 -92t-80 -205z" />
    <glyph glyph-name="Ocircumflex" unicode="&#xd4;" horiz-adv-x="910" 
d="M752 854h-127l-37 91l-85 -91h-139l167 174h145zM547 795q159 0 257.5 -98t98.5 -247q0 -120 -58.5 -225t-167.5 -171t-242 -66q-154 0 -255 96t-101 250q0 122 61 227.5t169 169.5t238 64zM247 344q0 -92 55.5 -146.5t151.5 -54.5q118 0 199.5 91t81.5 205
q0 93 -55 147.5t-152 54.5q-121 0 -201 -92t-80 -205z" />
    <glyph glyph-name="Otilde" unicode="&#xd5;" horiz-adv-x="910" 
d="M644 854q-36 0 -75 23.5t-58 23.5q-30 0 -43 -47h-97l5 25q32 130 143 130q34 0 73.5 -23.5t56.5 -23.5q14 0 24.5 8.5t14 15t9.5 21.5h94l-7 -26q-31 -127 -140 -127zM547 795q159 0 257.5 -98t98.5 -247q0 -120 -58.5 -225t-167.5 -171t-242 -66q-154 0 -255 96
t-101 250q0 122 61 227.5t169 169.5t238 64zM247 344q0 -92 55.5 -146.5t151.5 -54.5q118 0 199.5 91t81.5 205q0 93 -55 147.5t-152 54.5q-121 0 -201 -92t-80 -205z" />
    <glyph glyph-name="Odieresis" unicode="&#xd6;" horiz-adv-x="910" 
d="M478 1007q32 0 51.5 -19.5t19.5 -49.5q0 -37 -26.5 -64.5t-66.5 -27.5q-31 0 -51 19t-20 50q0 37 27 64.5t66 27.5zM713 1007q32 0 52 -19.5t20 -49.5q0 -37 -26.5 -64.5t-67.5 -27.5q-31 0 -51 19t-20 50q0 37 27 64.5t66 27.5zM547 795q159 0 257.5 -98t98.5 -247
q0 -120 -58.5 -225t-167.5 -171t-242 -66q-154 0 -255 96t-101 250q0 122 61 227.5t169 169.5t238 64zM247 344q0 -92 55.5 -146.5t151.5 -54.5q118 0 199.5 91t81.5 205q0 93 -55 147.5t-152 54.5q-121 0 -201 -92t-80 -205z" />
    <glyph glyph-name="multiply" unicode="&#xd7;" horiz-adv-x="665" 
d="M114 85l-80 102l235 187l-136 185l110 80l133 -181l234 186l81 -103l-237 -187l134 -183l-110 -82l-132 180z" />
    <glyph glyph-name="Oslash" unicode="&#xd8;" horiz-adv-x="909" 
d="M846 646q57 -89 57 -196q0 -120 -58.5 -225t-167.5 -171t-242 -66q-128 0 -223 70l-88 -84l-76 79l88 85q-57 86 -57 196q0 122 61 227.5t169 169.5t238 64q131 0 224 -70l88 87l77 -80zM529 646q-82 0 -149 -45.5t-102 -114.5t-35 -143q0 -56 19 -92l384 365
q-40 30 -117 30zM452 138q120 0 203.5 93t83.5 209q0 57 -19 92l-383 -364q15 -13 48 -21.5t67 -8.5z" />
    <glyph glyph-name="Ugrave" unicode="&#xd9;" horiz-adv-x="795" 
d="M605 855h-118l-109 187h172zM361 -10q81 0 143 23t103 66t67.5 94.5t44.5 119.5l132 490h-164l-125 -468q-20 -76 -67.5 -124.5t-117.5 -48.5q-53 0 -86.5 30t-33.5 83q0 38 11 78l120 450h-164l-116 -433q-18 -68 -18 -116q0 -64 22.5 -112.5t61.5 -76.5t86 -41.5
t101 -13.5z" />
    <glyph glyph-name="Uacute" unicode="&#xda;" horiz-adv-x="795" 
d="M633 1043h191l-215 -188h-137zM361 -10q-54 0 -101 13.5t-86 41.5t-61.5 76.5t-22.5 112.5q0 48 18 116l116 433h164l-120 -450q-11 -40 -11 -78q0 -53 33.5 -83t86.5 -30q70 0 117.5 48.5t67.5 124.5l125 468h164l-132 -490q-18 -68 -44.5 -119.5t-67.5 -94.5t-103 -66
t-143 -23z" />
    <glyph glyph-name="Ucircumflex" unicode="&#xdb;" horiz-adv-x="795" 
d="M735 854h-127l-36 91l-86 -91h-138l166 174h146zM361 -10q-54 0 -101 13.5t-86 41.5t-61.5 76.5t-22.5 112.5q0 48 18 116l116 433h164l-120 -450q-11 -40 -11 -78q0 -53 33.5 -83t86.5 -30q70 0 117.5 48.5t67.5 124.5l125 468h164l-132 -490q-18 -68 -44.5 -119.5
t-67.5 -94.5t-103 -66t-143 -23z" />
    <glyph glyph-name="Udieresis" unicode="&#xdc;" horiz-adv-x="795" 
d="M458 1007q31 0 51 -19.5t20 -49.5q0 -37 -27 -64.5t-67 -27.5q-31 0 -51 19t-20 50q0 37 27 64.5t67 27.5zM693 1007q32 0 51.5 -19.5t19.5 -49.5q0 -37 -26.5 -64.5t-67.5 -27.5q-31 0 -51 19t-20 50q0 37 27.5 64.5t66.5 27.5zM361 -10q-54 0 -101 13.5t-86 41.5
t-61.5 76.5t-22.5 112.5q0 48 18 116l116 433h164l-120 -450q-11 -40 -11 -78q0 -53 33.5 -83t86.5 -30q70 0 117.5 48.5t67.5 124.5l125 468h164l-132 -490q-18 -68 -44.5 -119.5t-67.5 -94.5t-103 -66t-143 -23z" />
    <glyph glyph-name="Yacute" unicode="&#xdd;" horiz-adv-x="753" 
d="M611 1043h190l-214 -188h-138zM222 0l83 310l-152 473h181l88 -323l265 323h193l-412 -483l-81 -300h-165z" />
    <glyph glyph-name="Thorn" unicode="&#xde;" horiz-adv-x="702" 
d="M429 650q124 0 193 -44q91 -59 91 -178q0 -132 -99 -207.5t-252 -75.5h-134l-39 -145h-164l209 783h165l-36 -133h66zM379 292q76 0 120.5 31.5t44.5 89.5q0 39 -30 63q-30 23 -84 23h-107l-55 -207h111z" />
    <glyph glyph-name="germandbls" unicode="&#xdf;" horiz-adv-x="701" 
d="M695 619q0 -128 -134 -200l-32 -18q-34 -17 -34 -35q0 -16 28 -35l23 -16q100 -70 100 -150q0 -81 -63 -129t-149 -48q-102 0 -146.5 55t-35.5 120l128 8q-2 -22 11.5 -42t45.5 -20q23 0 39.5 13.5t16.5 33.5t-10.5 32.5t-38.5 29.5l-45 28q-25 16 -42.5 44.5t-17.5 60.5
q0 50 27.5 88.5t73.5 59.5l21 9q73 33 73 95q0 36 -26 54.5t-59 18.5q-108 0 -144 -140l-141 -536h-158l147 559q34 130 108 194t201 64q96 0 164.5 -56.5t68.5 -141.5z" />
    <glyph glyph-name="agrave" unicode="&#xe0;" horiz-adv-x="688" 
d="M437 623h-119l-109 187h172zM391 0l15 57h-2q-81 -67 -156 -67q-96 0 -151.5 66.5t-55.5 161.5q0 137 89 231.5t209 94.5q116 0 170 -90l21 80h157l-141 -534h-155zM203 233q0 -49 31.5 -76t80.5 -27q65 0 111.5 52.5t46.5 118.5q0 48 -33.5 76t-82.5 28
q-65 0 -109.5 -53t-44.5 -119z" />
    <glyph glyph-name="aacute" unicode="&#xe1;" horiz-adv-x="688" 
d="M468 811h190l-214 -188h-138zM391 0l15 57h-2q-81 -67 -156 -67q-96 0 -151.5 66.5t-55.5 161.5q0 137 89 231.5t209 94.5q116 0 170 -90l21 80h157l-141 -534h-155zM203 233q0 -49 31.5 -76t80.5 -27q65 0 111.5 52.5t46.5 118.5q0 48 -33.5 76t-82.5 28
q-65 0 -109.5 -53t-44.5 -119z" />
    <glyph glyph-name="acircumflex" unicode="&#xe2;" horiz-adv-x="688" 
d="M604 624h-127l-37 91l-85 -91h-139l167 174h145zM391 0l15 57h-2q-81 -67 -156 -67q-96 0 -151.5 66.5t-55.5 161.5q0 137 89 231.5t209 94.5q116 0 170 -90l21 80h157l-141 -534h-155zM203 233q0 -49 31.5 -76t80.5 -27q65 0 111.5 52.5t46.5 118.5q0 48 -33.5 76
t-82.5 28q-65 0 -109.5 -53t-44.5 -119z" />
    <glyph glyph-name="atilde" unicode="&#xe3;" horiz-adv-x="688" 
d="M491 624q-36 0 -75.5 23.5t-57.5 23.5q-29 0 -43 -46h-97l6 25q14 59 49.5 94t92.5 35q34 0 73.5 -23t57.5 -23q31 0 47 44h94l-7 -25q-32 -128 -140 -128zM391 0l15 57h-2q-81 -67 -156 -67q-96 0 -151.5 66.5t-55.5 161.5q0 137 89 231.5t209 94.5q116 0 170 -90l21 80
h157l-141 -534h-155zM203 233q0 -49 31.5 -76t80.5 -27q65 0 111.5 52.5t46.5 118.5q0 48 -33.5 76t-82.5 28q-65 0 -109.5 -53t-44.5 -119z" />
    <glyph glyph-name="adieresis" unicode="&#xe4;" horiz-adv-x="688" 
d="M325 778q32 0 51.5 -20t19.5 -50q0 -36 -27 -63.5t-67 -27.5q-31 0 -51 19t-20 50q0 37 27 64.5t67 27.5zM550 778q32 0 52 -20t20 -50q0 -36 -27 -63.5t-67 -27.5q-31 0 -51 19t-20 50q0 37 27 64.5t66 27.5zM391 0l15 57h-2q-81 -67 -156 -67q-96 0 -151.5 66.5
t-55.5 161.5q0 137 89 231.5t209 94.5q116 0 170 -90l21 80h157l-141 -534h-155zM203 233q0 -49 31.5 -76t80.5 -27q65 0 111.5 52.5t46.5 118.5q0 48 -33.5 76t-82.5 28q-65 0 -109.5 -53t-44.5 -119z" />
    <glyph glyph-name="aring" unicode="&#xe5;" horiz-adv-x="689" 
d="M576 771q0 -68 -48.5 -118.5t-122.5 -50.5q-56 0 -93.5 35t-37.5 92q0 68 50 118t122 50q58 0 94 -35.5t36 -90.5zM486 762q0 23 -13.5 36.5t-36.5 13.5q-29 0 -50.5 -22.5t-21.5 -51.5q0 -24 14 -37.5t37 -13.5q29 0 50 23t21 52zM391 0l15 57h-2q-81 -67 -156 -67
q-96 0 -151.5 66.5t-55.5 161.5q0 137 89 231.5t209 94.5q116 0 170 -90l21 80h157l-141 -534h-155zM203 233q0 -49 31.5 -76t80.5 -27q65 0 111.5 52.5t46.5 118.5q0 48 -33.5 76t-82.5 28q-65 0 -109.5 -53t-44.5 -119z" />
    <glyph glyph-name="ae" unicode="&#xe6;" horiz-adv-x="957" 
d="M519 224q0 -50 36 -77.5t83 -27.5q44 0 76.5 20.5t49.5 53.5l122 -57q-40 -73 -107 -110.5t-151 -37.5q-138 0 -207 100q-54 -53 -109.5 -75.5t-129.5 -22.5h-4q-73 0 -118 40.5t-45 99.5q0 84 64 127.5t151 48.5l113 6q58 4 58 53q0 24 -20 40t-57 16q-39 0 -71 -22
t-43 -57l-129 39q19 65 89 115t177 50q109 0 162 -65q77 64 166 64q108 0 178 -61.5t70 -166.5q0 -42 -16 -93h-388zM773 327l1 10q0 41 -30 62t-74 21q-43 0 -82 -26.5t-51 -66.5h236zM224 104q50 0 89 30t49 79l2 9l-93 -6q-39 -2 -69.5 -17t-30.5 -47q0 -21 15.5 -34.5
t37.5 -13.5z" />
    <glyph glyph-name="ccedilla" unicode="&#xe7;" horiz-adv-x="628" 
d="M167 -261q-45 0 -81 11l27 101q27 -5 46 -5q48 0 74 33.5t26 86.5q0 8 -2 26q-96 13 -155 77t-59 166q0 127 93.5 218.5t222.5 91.5q106 0 174 -53.5t80 -131.5l-144 -41q-6 34 -38 59t-78 25q-64 0 -109 -47.5t-45 -115.5q0 -49 29.5 -79.5t82.5 -30.5q48 0 83.5 25
t51.5 57l135 -51q-26 -62 -82 -107t-129 -59q11 -25 11 -61q0 -97 -57.5 -146t-156.5 -49z" />
    <glyph glyph-name="egrave" unicode="&#xe8;" horiz-adv-x="631" 
d="M420 623h-118l-109 187h172zM581 224q16 47 16 93q0 105 -69.5 166.5t-177.5 61.5q-121 0 -214.5 -91t-93.5 -220q0 -109 74 -177.5t187 -68.5q175 0 258 148l-123 57q-38 -74 -126 -74q-47 0 -83 27.5t-36 77.5h388zM211 327q13 40 51.5 66.5t82.5 26.5q43 0 72.5 -20.5
t29.5 -61.5q0 -7 -1 -11h-235z" />
    <glyph glyph-name="eacute" unicode="&#xe9;" horiz-adv-x="631" 
d="M449 811h190l-214 -188h-138zM581 224q16 47 16 93q0 105 -69.5 166.5t-177.5 61.5q-121 0 -214.5 -91t-93.5 -220q0 -109 74 -177.5t187 -68.5q175 0 258 148l-123 57q-38 -74 -126 -74q-47 0 -83 27.5t-36 77.5h388zM211 327q13 40 51.5 66.5t82.5 26.5
q43 0 72.5 -20.5t29.5 -61.5q0 -7 -1 -11h-235z" />
    <glyph glyph-name="ecircumflex" unicode="&#xea;" horiz-adv-x="631" 
d="M557 624h-127l-37 91l-85 -91h-139l166 174h146zM581 224q16 47 16 93q0 105 -69.5 166.5t-177.5 61.5q-121 0 -214.5 -91t-93.5 -220q0 -109 74 -177.5t187 -68.5q175 0 258 148l-123 57q-38 -74 -126 -74q-47 0 -83 27.5t-36 77.5h388zM211 327q13 40 51.5 66.5
t82.5 26.5q43 0 72.5 -20.5t29.5 -61.5q0 -7 -1 -11h-235z" />
    <glyph glyph-name="edieresis" unicode="&#xeb;" horiz-adv-x="631" 
d="M286 778q32 0 51.5 -20t19.5 -50q0 -36 -26.5 -63.5t-66.5 -27.5q-31 0 -51.5 19t-20.5 50q0 37 27.5 64.5t66.5 27.5zM512 778q32 0 51.5 -20t19.5 -50q0 -36 -27 -63.5t-67 -27.5q-31 0 -51 19t-20 50q0 37 27 64.5t67 27.5zM581 224q16 47 16 93q0 105 -69.5 166.5
t-177.5 61.5q-121 0 -214.5 -91t-93.5 -220q0 -109 74 -177.5t187 -68.5q175 0 258 148l-123 57q-38 -74 -126 -74q-47 0 -83 27.5t-36 77.5h388zM211 327q13 40 51.5 66.5t82.5 26.5q43 0 72.5 -20.5t29.5 -61.5q0 -7 -1 -11h-235z" />
    <glyph glyph-name="igrave" unicode="&#xec;" horiz-adv-x="305" 
d="M305 623h-118l-109 187h172zM5 0h159l141 534h-159z" />
    <glyph glyph-name="iacute" unicode="&#xed;" horiz-adv-x="305" 
d="M338 811h190l-214 -188h-138zM146 534h159l-141 -534h-159z" />
    <glyph glyph-name="icircumflex" unicode="&#xee;" horiz-adv-x="305" 
d="M431 624h-127l-37 91l-85 -91h-139l166 174h146zM146 534h159l-141 -534h-159z" />
    <glyph glyph-name="idieresis" unicode="&#xef;" horiz-adv-x="305" 
d="M165 778q32 0 51.5 -20t19.5 -50q0 -36 -27 -63.5t-67 -27.5q-31 0 -51 19t-20 50q0 37 27 64.5t67 27.5zM386 778q32 0 51.5 -20t19.5 -50q0 -36 -27 -63.5t-67 -27.5q-31 0 -51 19t-20 50q0 37 27.5 64.5t66.5 27.5zM146 534h159l-141 -534h-159z" />
    <glyph glyph-name="eth" unicode="&#xf0;" horiz-adv-x="659" 
d="M318 503q89 0 151 -52l2 2q-11 75 -78 142l-164 -72l-42 90l125 52q-52 32 -128 57l57 117q117 -40 204 -113l117 53l44 -91l-87 -38q105 -132 105 -308q0 -151 -84 -252t-233 -101q-114 0 -189.5 65.5t-75.5 177.5q0 114 81 192.5t195 78.5zM316 128q61 0 106.5 43
t45.5 104q0 51 -34.5 79.5t-86.5 28.5q-61 0 -105 -43.5t-44 -104.5q0 -50 33.5 -78.5t84.5 -28.5z" />
    <glyph glyph-name="ntilde" unicode="&#xf1;" horiz-adv-x="638" 
d="M495 624q-37 0 -76 23.5t-57 23.5q-28 0 -44 -46h-97l6 25q31 129 143 129q34 0 73 -23t57 -23q14 0 24.5 8t14 15.5t8.5 20.5h94l-6 -25q-32 -128 -140 -128zM503 0l75 283q18 66 18 104q0 72 -43.5 114.5t-113.5 42.5q-80 0 -151 -67h-2l14 57h-154l-140 -534h158
l77 295q12 47 41 76t73 29q33 0 53.5 -16.5t20.5 -48.5q0 -21 -7 -47l-77 -288h158z" />
    <glyph glyph-name="ograve" unicode="&#xf2;" horiz-adv-x="657" 
d="M434 623h-119l-109 187h172zM358 545q-131 0 -223.5 -92.5t-92.5 -216.5q0 -113 74.5 -180.5t187.5 -67.5q129 0 222.5 90.5t93.5 219.5q0 114 -73 180.5t-189 66.5zM310 130q-54 0 -83 31t-29 79q0 65 44 114t110 49q49 0 80.5 -30t31.5 -79q0 -66 -45.5 -115
t-108.5 -49z" />
    <glyph glyph-name="oacute" unicode="&#xf3;" horiz-adv-x="657" 
d="M459 811h191l-214 -188h-138zM358 545q-131 0 -223.5 -92.5t-92.5 -216.5q0 -113 74.5 -180.5t187.5 -67.5q129 0 222.5 90.5t93.5 219.5q0 114 -73 180.5t-189 66.5zM310 130q-54 0 -83 31t-29 79q0 65 44 114t110 49q49 0 80.5 -30t31.5 -79q0 -66 -45.5 -115
t-108.5 -49z" />
    <glyph glyph-name="ocircumflex" unicode="&#xf4;" horiz-adv-x="657" 
d="M574 624h-127l-36 91l-86 -91h-138l166 174h146zM358 545q-131 0 -223.5 -92.5t-92.5 -216.5q0 -113 74.5 -180.5t187.5 -67.5q129 0 222.5 90.5t93.5 219.5q0 114 -73 180.5t-189 66.5zM310 130q-54 0 -83 31t-29 79q0 65 44 114t110 49q49 0 80.5 -30t31.5 -79
q0 -66 -45.5 -115t-108.5 -49z" />
    <glyph glyph-name="otilde" unicode="&#xf5;" horiz-adv-x="657" 
d="M470 624q-37 0 -76 23.5t-57 23.5q-28 0 -44 -46h-97l6 25q31 129 143 129q34 0 73.5 -23t56.5 -23q14 0 24.5 8t14 15.5t8.5 20.5h94l-6 -25q-32 -128 -140 -128zM358 545q-131 0 -223.5 -92.5t-92.5 -216.5q0 -113 74.5 -180.5t187.5 -67.5q129 0 222.5 90.5
t93.5 219.5q0 114 -73 180.5t-189 66.5zM310 130q-54 0 -83 31t-29 79q0 65 44 114t110 49q49 0 80.5 -30t31.5 -79q0 -66 -45.5 -115t-108.5 -49z" />
    <glyph glyph-name="odieresis" unicode="&#xf6;" horiz-adv-x="657" 
d="M300 778q32 0 51.5 -20t19.5 -50q0 -37 -26.5 -64t-67.5 -27q-31 0 -51 19t-20 50q0 37 27.5 64.5t66.5 27.5zM525 778q32 0 52 -20t20 -50q0 -36 -27 -63.5t-67 -27.5q-31 0 -51 19t-20 50q0 37 27 64.5t66 27.5zM358 545q-131 0 -223.5 -92.5t-92.5 -216.5
q0 -113 74.5 -180.5t187.5 -67.5q129 0 222.5 90.5t93.5 219.5q0 114 -73 180.5t-189 66.5zM310 130q-54 0 -83 31t-29 79q0 65 44 114t110 49q49 0 80.5 -30t31.5 -79q0 -66 -45.5 -115t-108.5 -49z" />
    <glyph glyph-name="divide" unicode="&#xf7;" horiz-adv-x="589" 
d="M397 687q34 0 55.5 -20.5t21.5 -52.5q0 -40 -28.5 -69.5t-71.5 -29.5q-33 0 -54.5 20.5t-21.5 53.5q0 40 29 69t70 29zM592 439l-38 -144h-498l38 144h498zM274 219q34 0 55.5 -21t21.5 -52q0 -40 -28.5 -69.5t-72.5 -29.5q-32 0 -53.5 20.5t-21.5 53.5q0 40 29 69t70 29
z" />
    <glyph glyph-name="oslash" unicode="&#xf8;" horiz-adv-x="657" 
d="M577 444q43 -62 43 -146q0 -129 -93.5 -219.5t-221.5 -90.5q-93 0 -162 47l-73 -68l-54 57l70 67q-43 61 -43 145q0 124 92 216.5t224 92.5q94 0 162 -45l70 67l55 -57zM356 408q-70 0 -116 -51t-46 -118q0 -23 6 -43l210 201q-24 11 -54 11zM307 126q67 0 114 50t47 118
q0 27 -7 45l-210 -202q25 -11 56 -11z" />
    <glyph glyph-name="ugrave" unicode="&#xf9;" horiz-adv-x="639" 
d="M471 623h-118l-109 187h172zM204 -11q-68 0 -113 43t-45 115q0 34 19 104l75 283h157l-76 -288q-7 -26 -7 -47q0 -65 74 -65q85 0 113 105l78 295h157l-140 -534h-154l15 58h-2q-71 -69 -151 -69z" />
    <glyph glyph-name="uacute" unicode="&#xfa;" horiz-adv-x="639" 
d="M498 811h190l-214 -188h-138zM204 -11q-68 0 -113 43t-45 115q0 34 19 104l75 283h157l-76 -288q-7 -26 -7 -47q0 -65 74 -65q85 0 113 105l78 295h157l-140 -534h-154l15 58h-2q-71 -69 -151 -69z" />
    <glyph glyph-name="ucircumflex" unicode="&#xfb;" horiz-adv-x="639" 
d="M592 624h-127l-37 91l-85 -91h-139l167 174h145zM204 -11q-68 0 -113 43t-45 115q0 34 19 104l75 283h157l-76 -288q-7 -26 -7 -47q0 -65 74 -65q85 0 113 105l78 295h157l-140 -534h-154l15 58h-2q-71 -69 -151 -69z" />
    <glyph glyph-name="udieresis" unicode="&#xfc;" horiz-adv-x="639" 
d="M320 778q32 0 52 -20t20 -50q0 -36 -27 -63.5t-67 -27.5q-31 0 -51 19t-20 50q0 37 27 64.5t66 27.5zM546 778q32 0 51.5 -20t19.5 -50q0 -37 -26.5 -64t-67.5 -27q-31 0 -51 19t-20 50q0 37 27.5 64.5t66.5 27.5zM204 -11q-68 0 -113 43t-45 115q0 34 19 104l75 283h157
l-76 -288q-7 -26 -7 -47q0 -65 74 -65q85 0 113 105l78 295h157l-140 -534h-154l15 58h-2q-71 -69 -151 -69z" />
    <glyph glyph-name="yacute" unicode="&#xfd;" horiz-adv-x="613" 
d="M500 811h191l-214 -188h-138zM159 7l-72 527h158l38 -350l216 350h175l-519 -797h-171z" />
    <glyph glyph-name="thorn" unicode="&#xfe;" horiz-adv-x="687" 
d="M290 481l2 -1q75 64 153 64q97 0 151.5 -66t55.5 -163q0 -137 -90 -231t-210 -94q-111 0 -167 85h-1l-89 -339h-158l283 1078h158zM220 234q0 -48 33 -76t81 -28q61 0 108.5 50t46.5 122q0 48 -30.5 75.5t-81.5 27.5q-64 0 -110.5 -52.5t-46.5 -118.5z" />
    <glyph glyph-name="ydieresis" unicode="&#xff;" horiz-adv-x="613" 
d="M324 778q32 0 52 -20t20 -50q0 -36 -27 -63.5t-67 -27.5q-31 0 -51.5 19t-20.5 50q0 37 27.5 64.5t66.5 27.5zM550 778q32 0 51.5 -20t19.5 -50q0 -37 -26.5 -64t-67.5 -27q-31 0 -51 19t-20 50q0 37 27.5 64.5t66.5 27.5zM159 7l-72 527h158l38 -350l216 350h175
l-519 -797h-171z" />
    <glyph glyph-name="Amacron" unicode="&#x100;" horiz-adv-x="798" 
d="M746 984l-31 -116h-364l31 116h364zM218 168l-100 -168h-174l480 783h200l121 -783h-166l-25 168h-336zM533 316l-41 309l-186 -309h227z" />
    <glyph glyph-name="amacron" unicode="&#x101;" horiz-adv-x="688" 
d="M622 745l-32 -117h-364l31 117h365zM391 0l15 57h-2q-81 -67 -156 -67q-96 0 -151.5 66.5t-55.5 161.5q0 137 89 231.5t209 94.5q116 0 170 -90l21 80h157l-141 -534h-155zM203 233q0 -49 31.5 -76t80.5 -27q65 0 111.5 52.5t46.5 118.5q0 48 -33.5 76t-82.5 28
q-65 0 -109.5 -53t-44.5 -119z" />
    <glyph glyph-name="Abreve" unicode="&#x102;" horiz-adv-x="798" 
d="M550 859q-74 0 -122.5 46t-48.5 119v14h115q-1 -32 16 -52.5t48 -20.5t54 20.5t33 52.5h118q-21 -79 -77.5 -129t-135.5 -50zM218 168l-100 -168h-174l480 783h200l121 -783h-166l-25 168h-336zM533 316l-41 309l-186 -309h227z" />
    <glyph glyph-name="abreve" unicode="&#x103;" horiz-adv-x="688" 
d="M409 620q-74 0 -122.5 46t-48.5 119v13h115q-1 -32 16 -52t48 -20t53.5 20.5t32.5 51.5h119q-21 -79 -77.5 -128.5t-135.5 -49.5zM391 0l15 57h-2q-81 -67 -156 -67q-96 0 -151.5 66.5t-55.5 161.5q0 137 89 231.5t209 94.5q116 0 170 -90l21 80h157l-141 -534h-155z
M203 233q0 -49 31.5 -76t80.5 -27q65 0 111.5 52.5t46.5 118.5q0 48 -33.5 76t-82.5 28q-65 0 -109.5 -53t-44.5 -119z" />
    <glyph glyph-name="Aogonek" unicode="&#x104;" horiz-adv-x="798" 
d="M668 -261q-26 -5 -61 -5q-53 0 -93 26t-40 79q0 26 12.5 50.5t37 46t42 34t46.5 30.5h-33l-25 168h-336l-100 -168h-174l480 783h200l121 -783q-46 -23 -88 -56t-42 -64q0 -23 20.5 -35t45.5 -12q8 0 12 1zM533 316l-41 309l-186 -309h227z" />
    <glyph glyph-name="aogonek" unicode="&#x105;" horiz-adv-x="689" 
d="M417 -120q0 -23 20.5 -35t44.5 -12q2 0 6.5 0.5t5.5 0.5l-24 -95q-26 -5 -62 -5q-53 0 -93 26.5t-40 78.5q0 26 12.5 50t37.5 46t42 34.5t47 30.5h-23l15 57h-2q-81 -67 -156 -67q-96 0 -151.5 66.5t-55.5 161.5q0 137 89 231.5t209 94.5q116 0 170 -90l21 80h157
l-141 -534q-27 -14 -52 -29.5t-51 -42t-26 -48.5zM203 233q0 -49 31.5 -76t80.5 -27q65 0 111.5 52.5t46.5 118.5q0 48 -33.5 76t-82.5 28q-65 0 -109.5 -53t-44.5 -119z" />
    <glyph glyph-name="Cacute" unicode="&#x106;" horiz-adv-x="867" 
d="M649 1043h191l-215 -188h-137zM439 -12q-159 0 -259 95t-100 251q0 98 38.5 184.5t102.5 146.5t149 95t176 35q84 0 150 -24.5t105.5 -65t62 -84.5t30.5 -91l-157 -50q-5 26 -15.5 49.5t-32.5 51t-64 44t-99 16.5q-112 0 -195 -86t-83 -207q0 -99 53.5 -152t156.5 -53
q46 0 84 12.5t61.5 29t44 42t29.5 42.5t19 40l151 -59q-17 -45 -48 -87.5t-79 -83.5t-121 -66t-160 -25z" />
    <glyph glyph-name="cacute" unicode="&#x107;" horiz-adv-x="628" 
d="M446 811h191l-215 -188h-137zM306 -12q-115 0 -189 66t-74 181q0 127 93.5 218.5t222.5 91.5q106 0 174 -53.5t80 -131.5l-144 -41q-6 34 -38 59t-78 25q-64 0 -109 -47.5t-45 -115.5q0 -49 29.5 -79.5t82.5 -30.5q48 0 83.5 25t51.5 57l135 -51q-32 -76 -106 -124.5
t-169 -48.5z" />
    <glyph glyph-name="Ccircumflex" unicode="&#x108;" horiz-adv-x="867" 
d="M754 854h-127l-36 91l-86 -91h-138l166 174h146zM439 -12q-159 0 -259 95t-100 251q0 98 38.5 184.5t102.5 146.5t149 95t176 35q84 0 150 -24.5t105.5 -65t62 -84.5t30.5 -91l-157 -50q-5 26 -15.5 49.5t-32.5 51t-64 44t-99 16.5q-112 0 -195 -86t-83 -207
q0 -99 53.5 -152t156.5 -53q46 0 84 12.5t61.5 29t44 42t29.5 42.5t19 40l151 -59q-17 -45 -48 -87.5t-79 -83.5t-121 -66t-160 -25z" />
    <glyph glyph-name="ccircumflex" unicode="&#x109;" horiz-adv-x="628" 
d="M579 624h-127l-37 91l-85 -91h-139l166 174h146zM306 -12q-115 0 -189 66t-74 181q0 127 93.5 218.5t222.5 91.5q106 0 174 -53.5t80 -131.5l-144 -41q-6 34 -38 59t-78 25q-64 0 -109 -47.5t-45 -115.5q0 -49 29.5 -79.5t82.5 -30.5q48 0 83.5 25t51.5 57l135 -51
q-32 -76 -106 -124.5t-169 -48.5z" />
    <glyph glyph-name="Cdotaccent" unicode="&#x10a;" horiz-adv-x="867" 
d="M592 1038q38 0 61 -23t23 -59q0 -43 -31.5 -75.5t-78.5 -32.5q-37 0 -61 22.5t-24 58.5q0 44 32 76.5t79 32.5zM439 -12q-159 0 -259 95t-100 251q0 98 38.5 184.5t102.5 146.5t149 95t176 35q84 0 150 -24.5t105.5 -65t62 -84.5t30.5 -91l-157 -50q-5 26 -15.5 49.5
t-32.5 51t-64 44t-99 16.5q-112 0 -195 -86t-83 -207q0 -99 53.5 -152t156.5 -53q46 0 84 12.5t61.5 29t44 42t29.5 42.5t19 40l151 -59q-17 -45 -48 -87.5t-79 -83.5t-121 -66t-160 -25z" />
    <glyph glyph-name="cdotaccent" unicode="&#x10b;" horiz-adv-x="628" 
d="M411 808q38 0 61 -23.5t23 -58.5q0 -43 -31.5 -75.5t-79.5 -32.5q-37 0 -60.5 22.5t-23.5 58.5q0 44 32.5 76.5t78.5 32.5zM306 -12q-115 0 -189 66t-74 181q0 127 93.5 218.5t222.5 91.5q106 0 174 -53.5t80 -131.5l-144 -41q-6 34 -38 59t-78 25q-64 0 -109 -47.5
t-45 -115.5q0 -49 29.5 -79.5t82.5 -30.5q48 0 83.5 25t51.5 57l135 -51q-32 -76 -106 -124.5t-169 -48.5z" />
    <glyph glyph-name="Ccaron" unicode="&#x10c;" horiz-adv-x="867" 
d="M425 1028h127l36 -91l86 91h138l-166 -174h-146zM439 -12q-159 0 -259 95t-100 251q0 98 38.5 184.5t102.5 146.5t149 95t176 35q84 0 150 -24.5t105.5 -65t62 -84.5t30.5 -91l-157 -50q-5 26 -15.5 49.5t-32.5 51t-64 44t-99 16.5q-112 0 -195 -86t-83 -207
q0 -99 53.5 -152t156.5 -53q46 0 84 12.5t61.5 29t44 42t29.5 42.5t19 40l151 -59q-17 -45 -48 -87.5t-79 -83.5t-121 -66t-160 -25z" />
    <glyph glyph-name="ccaron" unicode="&#x10d;" horiz-adv-x="628" 
d="M248 798h127l37 -91l85 91h139l-167 -174h-145zM306 -12q-115 0 -189 66t-74 181q0 127 93.5 218.5t222.5 91.5q106 0 174 -53.5t80 -131.5l-144 -41q-6 34 -38 59t-78 25q-64 0 -109 -47.5t-45 -115.5q0 -49 29.5 -79.5t82.5 -30.5q48 0 83.5 25t51.5 57l135 -51
q-32 -76 -106 -124.5t-169 -48.5z" />
    <glyph glyph-name="Dcaron" unicode="&#x10e;" horiz-adv-x="833" 
d="M321 1028h127l37 -91l85 91h139l-167 -174h-145zM234 783h202q196 0 294 -88t98 -241q0 -57 -15.5 -115.5t-55 -120.5t-98.5 -109.5t-155 -78t-216 -30.5h-263zM230 152h79q155 0 253 80t98 214q0 92 -62 139t-173 47h-67z" />
    <glyph glyph-name="dcaron" unicode="&#x10f;" horiz-adv-x="708" 
d="M838 815h163l-131 -234h-109zM546 0h-153l15 58l-2 1q-78 -69 -157 -69q-96 0 -151.5 66.5t-55.5 161.5q0 137 89 231.5t209 94.5q114 0 169 -88l94 358h158zM204 233q0 -49 31.5 -76t80.5 -27q65 0 111.5 52.5t46.5 118.5q0 48 -33.5 76t-82.5 28q-65 0 -109.5 -53
t-44.5 -119z" />
    <glyph glyph-name="Dcroat" unicode="&#x110;" horiz-adv-x="865" 
d="M143 321h-96l39 148h96l84 314h201q197 0 294.5 -88t97.5 -241q0 -57 -15.5 -115.5t-55 -120.5t-98 -109.5t-154.5 -78t-216 -30.5h-263zM346 469h169l-39 -148h-169l-45 -169h79q155 0 252.5 80t97.5 214q0 92 -62 139t-172 47h-67z" />
    <glyph glyph-name="dcroat" unicode="&#x111;" horiz-adv-x="688" 
d="M761 814l-24 -89h67l-27 -105h-67l-164 -620h-153l15 58l-2 1q-78 -69 -157 -69q-96 0 -151.5 66.5t-55.5 161.5q0 137 89 231.5t209 94.5q114 0 169 -88l43 164h-156l27 105h157l23 89h158zM204 233q0 -49 31.5 -76t80.5 -27q65 0 111.5 52.5t46.5 118.5q0 48 -33.5 76
t-82.5 28q-65 0 -109.5 -53t-44.5 -119z" />
    <glyph glyph-name="Emacron" unicode="&#x112;" horiz-adv-x="665" 
d="M710 984l-31 -116h-364l31 116h364zM235 783h510l-40 -150h-348l-43 -163h311l-40 -149h-311l-46 -171h351l-40 -150h-514z" />
    <glyph glyph-name="emacron" unicode="&#x113;" horiz-adv-x="631" 
d="M588 745l-31 -117h-365l32 117h364zM581 224q16 47 16 93q0 105 -69.5 166.5t-177.5 61.5q-121 0 -214.5 -91t-93.5 -220q0 -109 74 -177.5t187 -68.5q175 0 258 148l-123 57q-38 -74 -126 -74q-47 0 -83 27.5t-36 77.5h388zM211 327q13 40 51.5 66.5t82.5 26.5
q43 0 72.5 -20.5t29.5 -61.5q0 -7 -1 -11h-235z" />
    <glyph glyph-name="Edotaccent" unicode="&#x116;" horiz-adv-x="665" 
d="M532 1038q38 0 61 -23t23 -59q0 -43 -32 -75.5t-79 -32.5q-36 0 -60 22.5t-24 58.5q0 44 32 76.5t79 32.5zM235 783h510l-40 -150h-348l-43 -163h311l-40 -149h-311l-46 -171h351l-40 -150h-514z" />
    <glyph glyph-name="edotaccent" unicode="&#x117;" horiz-adv-x="631" 
d="M399 808q38 0 61 -23.5t23 -58.5q0 -43 -31.5 -75.5t-78.5 -32.5q-37 0 -61 22.5t-24 58.5q0 44 32.5 76.5t78.5 32.5zM581 224q16 47 16 93q0 105 -69.5 166.5t-177.5 61.5q-121 0 -214.5 -91t-93.5 -220q0 -109 74 -177.5t187 -68.5q175 0 258 148l-123 57
q-38 -74 -126 -74q-47 0 -83 27.5t-36 77.5h388zM211 327q13 40 51.5 66.5t82.5 26.5q43 0 72.5 -20.5t29.5 -61.5q0 -7 -1 -11h-235z" />
    <glyph glyph-name="Eogonek" unicode="&#x118;" horiz-adv-x="665" 
d="M462 -261q-25 -5 -61 -5q-53 0 -93 26.5t-40 78.5q0 26 12.5 50t37.5 46t42 34.5t47 30.5h-382l210 783h510l-40 -150h-348l-43 -163h311l-40 -149h-311l-46 -171h351l-40 -150q-27 -14 -52 -29.5t-51 -42t-26 -48.5q0 -23 20.5 -35t44.5 -12q8 0 12 1z" />
    <glyph glyph-name="eogonek" unicode="&#x119;" horiz-adv-x="631" 
d="M315 -261q-25 -5 -61 -5q-53 0 -93 26.5t-40 78.5q0 32 22.5 63.5t45.5 49.5t59 41q-92 16 -149 81.5t-57 159.5q0 129 93.5 220t214.5 91q108 0 177.5 -61.5t69.5 -166.5q0 -46 -16 -93h-388q0 -50 36 -77.5t83 -27.5q88 0 126 74l123 -57q-58 -104 -169 -136
q-46 -23 -87.5 -56t-41.5 -64q0 -23 20.5 -35t44.5 -12q8 0 12 1zM446 327q1 4 1 11q0 41 -29.5 61.5t-72.5 20.5q-44 0 -82.5 -26.5t-51.5 -66.5h235z" />
    <glyph glyph-name="Ecaron" unicode="&#x11a;" horiz-adv-x="665" 
d="M359 1028h127l37 -91l85 91h139l-166 -174h-146zM235 783h510l-40 -150h-348l-43 -163h311l-40 -149h-311l-46 -171h351l-40 -150h-514z" />
    <glyph glyph-name="ecaron" unicode="&#x11b;" horiz-adv-x="631" 
d="M240 798h127l36 -91l86 91h138l-166 -174h-146zM581 224q16 47 16 93q0 105 -69.5 166.5t-177.5 61.5q-121 0 -214.5 -91t-93.5 -220q0 -109 74 -177.5t187 -68.5q175 0 258 148l-123 57q-38 -74 -126 -74q-47 0 -83 27.5t-36 77.5h388zM211 327q13 40 51.5 66.5
t82.5 26.5q43 0 72.5 -20.5t29.5 -61.5q0 -7 -1 -11h-235z" />
    <glyph glyph-name="Gcircumflex" unicode="&#x11c;" horiz-adv-x="880" 
d="M749 854h-127l-37 91l-85 -91h-139l167 174h145zM435 -12q-113 0 -195.5 48.5t-121.5 126t-39 172.5q0 118 58.5 223t167 171t241.5 66q80 0 144.5 -23t103 -60t61 -76.5t29.5 -79.5l-156 -48q-32 135 -200 135q-115 0 -198 -88.5t-83 -210.5q0 -89 52 -146.5t155 -57.5
q78 0 136.5 36t80.5 98h-238l35 146h411q-7 -90 -36.5 -166t-82 -136.5t-136 -95t-189.5 -34.5z" />
    <glyph glyph-name="gcircumflex" unicode="&#x11d;" horiz-adv-x="690" 
d="M604 624h-127l-37 91l-86 -91h-138l166 174h146zM407 69q-62 -58 -155 -58q-91 0 -150 64t-59 156q0 131 89 221.5t201 90.5q119 0 181 -87l21 78h155l-138 -521q-74 -280 -322 -280q-130 0 -201 66.5t-71 155.5l146 29q0 -47 32.5 -81.5t93.5 -34.5q58 0 101 37t62 109z
M312 146q60 0 106 47t46 113q0 45 -30 72t-77 27q-63 0 -108 -47.5t-45 -112.5q0 -45 29.5 -72t78.5 -27z" />
    <glyph glyph-name="Gbreve" unicode="&#x11e;" horiz-adv-x="880" 
d="M568 859q-74 0 -122.5 46t-48.5 119v14h115q0 -32 17 -52.5t48 -20.5q62 0 86 73h118q-20 -79 -77 -129t-136 -50zM435 -12q-113 0 -195.5 48.5t-121.5 126t-39 172.5q0 118 58.5 223t167 171t241.5 66q80 0 144.5 -23t103 -60t61 -76.5t29.5 -79.5l-156 -48
q-32 135 -200 135q-115 0 -198 -88.5t-83 -210.5q0 -89 52 -146.5t155 -57.5q78 0 136.5 36t80.5 98h-238l35 146h411q-7 -90 -36.5 -166t-82 -136.5t-136 -95t-189.5 -34.5z" />
    <glyph glyph-name="gbreve" unicode="&#x11f;" horiz-adv-x="690" 
d="M436 620q-74 0 -122.5 46t-48.5 119v13h115q-1 -32 16 -52t48 -20t54 20.5t33 51.5h118q-20 -78 -77 -128t-136 -50zM407 69q-62 -58 -155 -58q-91 0 -150 64t-59 156q0 131 89 221.5t201 90.5q119 0 181 -87l21 78h155l-138 -521q-74 -280 -322 -280q-130 0 -201 66.5
t-71 155.5l146 29q0 -47 32.5 -81.5t93.5 -34.5q58 0 101 37t62 109zM312 146q60 0 106 47t46 113q0 45 -30 72t-77 27q-63 0 -108 -47.5t-45 -112.5q0 -45 29.5 -72t78.5 -27z" />
    <glyph glyph-name="Gdotaccent" unicode="&#x120;" horiz-adv-x="880" 
d="M599 1038q38 0 61.5 -23t23.5 -59q0 -43 -32 -75.5t-79 -32.5q-37 0 -60.5 22.5t-23.5 58.5q0 44 32 76.5t78 32.5zM435 -12q-113 0 -195.5 48.5t-121.5 126t-39 172.5q0 118 58.5 223t167 171t241.5 66q80 0 144.5 -23t103 -60t61 -76.5t29.5 -79.5l-156 -48
q-32 135 -200 135q-115 0 -198 -88.5t-83 -210.5q0 -89 52 -146.5t155 -57.5q78 0 136.5 36t80.5 98h-238l35 146h411q-7 -90 -36.5 -166t-82 -136.5t-136 -95t-189.5 -34.5z" />
    <glyph glyph-name="gdotaccent" unicode="&#x121;" horiz-adv-x="690" 
d="M441 808q38 0 61 -23.5t23 -58.5q0 -43 -31.5 -75.5t-78.5 -32.5q-37 0 -60.5 22.5t-23.5 58.5q0 44 32 76.5t78 32.5zM407 69q-62 -58 -155 -58q-91 0 -150 64t-59 156q0 131 89 221.5t201 90.5q119 0 181 -87l21 78h155l-138 -521q-74 -280 -322 -280q-130 0 -201 66.5
t-71 155.5l146 29q0 -47 32.5 -81.5t93.5 -34.5q58 0 101 37t62 109zM312 146q60 0 106 47t46 113q0 45 -30 72t-77 27q-63 0 -108 -47.5t-45 -112.5q0 -45 29.5 -72t78.5 -27z" />
    <glyph glyph-name="Gcommaaccent" unicode="&#x122;" horiz-adv-x="880" 
d="M435 -12q-113 0 -195.5 48.5t-121.5 126t-39 172.5q0 118 58.5 223t167 171t241.5 66q80 0 144.5 -23t103 -60t61 -76.5t29.5 -79.5l-156 -48q-32 135 -200 135q-115 0 -198 -88.5t-83 -210.5q0 -89 52 -146.5t155 -57.5q78 0 136.5 36t80.5 98h-238l35 146h411
q-7 -90 -36.5 -166t-82 -136.5t-136 -95t-189.5 -34.5zM307 -314q73 47 106 101q-13 -6 -30 -6q-27 0 -44 17.5t-17 44.5q0 40 28 69t68 29q35 0 57 -24t22 -60q0 -63 -43.5 -120t-106.5 -95z" />
    <glyph glyph-name="gcommaaccent" unicode="&#x123;" horiz-adv-x="690" 
d="M528 871q-73 -47 -106 -101q14 6 30 6q27 0 44 -17t17 -45q0 -40 -28 -69t-68 -29q-35 0 -57 24t-22 60q0 63 44 120.5t106 94.5zM407 69q-62 -58 -155 -58q-91 0 -150 64t-59 156q0 131 89 221.5t201 90.5q119 0 181 -87l21 78h155l-138 -521q-74 -280 -322 -280
q-130 0 -201 66.5t-71 155.5l146 29q0 -47 32.5 -81.5t93.5 -34.5q58 0 101 37t62 109zM312 146q60 0 106 47t46 113q0 45 -30 72t-77 27q-63 0 -108 -47.5t-45 -112.5q0 -45 29.5 -72t78.5 -27z" />
    <glyph glyph-name="Hbar" unicode="&#x126;" horiz-adv-x="854" 
d="M841 586l-156 -586h-164l84 318h-323l-85 -318h-164l156 586h-82l29 105h82l24 92h164l-24 -92h323l24 92h165l-25 -92h83l-29 -105h-82zM354 586l-30 -113h322l31 113h-323z" />
    <glyph glyph-name="hbar" unicode="&#x127;" horiz-adv-x="637" 
d="M439 544q72 0 114.5 -43.5t42.5 -113.5q0 -21 -18 -104l-75 -283h-158l76 288q7 23 7 47q0 65 -73 65q-86 0 -114 -105l-77 -295h-158l163 620h-66l27 105h66l24 89h158l-24 -89h158l-28 -105h-157l-37 -140q69 64 149 64z" />
    <glyph glyph-name="Itilde" unicode="&#x128;" horiz-adv-x="353" 
d="M416 854q-36 0 -75 23.5t-58 23.5q-30 0 -43 -47h-97l5 25q32 130 143 130q34 0 73.5 -23.5t56.5 -23.5q14 0 24.5 8.5t14 15t9.5 21.5h93l-6 -26q-31 -127 -140 -127zM399 783l-209 -783h-165l209 783h165z" />
    <glyph glyph-name="itilde" unicode="&#x129;" horiz-adv-x="305" 
d="M326 624q-37 0 -76 23.5t-57 23.5q-28 0 -44 -46h-97l6 25q31 129 143 129q34 0 73.5 -23t56.5 -23q14 0 24.5 8t14 15.5t8.5 20.5h94l-6 -25q-32 -128 -140 -128zM146 534h159l-141 -534h-159z" />
    <glyph glyph-name="Imacron" unicode="&#x12a;" horiz-adv-x="353" 
d="M535 984l-32 -116h-356l31 116h357zM399 783l-209 -783h-165l209 783h165z" />
    <glyph glyph-name="imacron" unicode="&#x12b;" horiz-adv-x="305" 
d="M444 745l-30 -117h-342l31 117h341zM146 534h159l-141 -534h-159z" />
    <glyph glyph-name="Ibreve" unicode="&#x12c;" horiz-adv-x="353" 
d="M327 859q-74 0 -122.5 46t-48.5 119v14h115q0 -32 16.5 -52.5t47.5 -20.5t54 20.5t33 52.5h118q-20 -79 -77 -129t-136 -50zM399 783l-209 -783h-165l209 783h165z" />
    <glyph glyph-name="ibreve" unicode="&#x12d;" horiz-adv-x="305" 
d="M256 620q-74 0 -122.5 46t-48.5 119v13h115q-1 -32 16 -52t48 -20t54 20.5t33 51.5h118q-21 -79 -77.5 -128.5t-135.5 -49.5zM146 534h159l-141 -534h-159z" />
    <glyph glyph-name="Iogonek" unicode="&#x12e;" horiz-adv-x="352" 
d="M114 -261q-26 -5 -62 -5q-53 0 -93 26.5t-40 78.5q0 26 12.5 50.5t37 46t42.5 34t47 30.5h-33l209 783h165l-209 -783q-27 -14 -52 -29.5t-51 -42t-26 -48.5q0 -23 20.5 -35t44.5 -12q9 0 13 1z" />
    <glyph glyph-name="iogonek" unicode="&#x12f;" horiz-adv-x="305" 
d="M287 817q37 0 61.5 -23t24.5 -60q1 -46 -32 -78.5t-80 -32.5q-37 0 -61.5 23.5t-24.5 60.5q0 46 33 78t79 32zM87 -261q-25 -5 -61 -5q-53 0 -93 26.5t-40 78.5q0 26 12.5 50.5t37 46t42 34t46.5 30.5h-26l141 534h159l-141 -534q-27 -14 -52 -29.5t-51 -42t-26 -48.5
q0 -23 20.5 -35t44.5 -12q8 0 12 1z" />
    <glyph glyph-name="Idotaccent" unicode="&#x130;" horiz-adv-x="353" 
d="M365 1038q38 0 61.5 -23t23.5 -59q0 -43 -32 -75.5t-79 -32.5q-37 0 -60.5 22.5t-23.5 58.5q0 44 32 76.5t78 32.5zM399 783l-209 -783h-165l209 783h165z" />
    <glyph glyph-name="dotlessi" unicode="&#x131;" horiz-adv-x="305" 
d="M146 534h159l-141 -534h-159z" />
    <glyph glyph-name="IJ" unicode="&#x132;" horiz-adv-x="690" 
d="M245 224q0 -37 19 -59t56 -22q42 0 72 26.5t42 68.5l146 545h164l-151 -564q-62 -229 -291 -229q-89 0 -154.5 57.5t-65.5 145.5q0 44 11 91l164 8q-12 -45 -12 -68zM120 395l104 388h164l-104 -388h-164z" />
    <glyph glyph-name="Kcommaaccent" unicode="&#x136;" horiz-adv-x="736" 
d="M189 0h-164l209 783h164l-87 -329l340 329h217l-411 -390l219 -393h-186l-199 380zM212 -315q73 47 106 101q-14 -6 -30 -6q-27 0 -44 17.5t-17 44.5q0 40 28 69t68 29q35 0 57 -24t22 -60q0 -63 -43.5 -120t-106.5 -95z" />
    <glyph glyph-name="kcommaaccent" unicode="&#x137;" horiz-adv-x="618" 
d="M231 256l-67 -256h-158l215 815h157l-128 -487h2l221 206h215l-295 -261l158 -273h-182l-136 256h-2zM140 -314q73 47 106 101q-14 -6 -30 -6q-27 0 -44 17.5t-17 44.5q0 40 28 69t68 29q35 0 57 -24t22 -60q0 -63 -43.5 -120t-106.5 -95z" />
    <glyph glyph-name="Lacute" unicode="&#x139;" horiz-adv-x="602" 
d="M437 1043h190l-214 -188h-138zM234 783h164l-169 -631h333l-41 -152h-496z" />
    <glyph glyph-name="lacute" unicode="&#x13a;" horiz-adv-x="305" 
d="M407 1075h190l-214 -188h-138zM378 814l-214 -814h-158l214 814h158z" />
    <glyph glyph-name="Lcommaaccent" unicode="&#x13b;" horiz-adv-x="602" 
d="M234 783h164l-169 -631h333l-41 -152h-496zM144 -314q73 47 106 101q-14 -6 -30 -6q-27 0 -44 17.5t-17 44.5q0 40 28 69t68 29q35 0 57 -24t22 -60q0 -63 -43.5 -120t-106.5 -95z" />
    <glyph glyph-name="lcommaaccent" unicode="&#x13c;" horiz-adv-x="305" 
d="M378 814l-214 -814h-158l214 814h158zM-55 -314q73 47 106 101q-14 -6 -30 -6q-27 0 -44 17.5t-17 44.5q0 40 28 69t68 29q35 0 57 -24t22 -60q0 -63 -43.5 -120t-106.5 -95z" />
    <glyph glyph-name="Lcaron" unicode="&#x13d;" horiz-adv-x="610" 
d="M553 805h163l-131 -234h-109zM234 783h164l-169 -631h333l-41 -152h-496z" />
    <glyph glyph-name="lcaron" unicode="&#x13e;" horiz-adv-x="325" 
d="M455 815h163l-131 -234h-109zM378 814l-214 -814h-158l214 814h158z" />
    <glyph glyph-name="Ldot" unicode="&#x13f;" horiz-adv-x="612" 
d="M234 783h164l-169 -631h333l-41 -152h-496zM539 487q37 0 61.5 -23t24.5 -60q0 -46 -32.5 -78.5t-78.5 -32.5q-37 0 -61.5 23.5t-24.5 59.5q0 46 32.5 78.5t78.5 32.5z" />
    <glyph glyph-name="ldot" unicode="&#x140;" horiz-adv-x="484" 
d="M378 814l-214 -814h-158l214 814h158zM432 468q37 0 62 -23t25 -60q0 -47 -32.5 -79.5t-79.5 -32.5q-37 0 -61.5 23.5t-24.5 60.5q0 46 32.5 78.5t78.5 32.5z" />
    <glyph glyph-name="Lslash" unicode="&#x141;" horiz-adv-x="638" 
d="M137 284l-116 -47l41 149l115 47l94 350h164l-74 -276l227 92l-40 -149l-227 -92l-55 -206h332l-40 -152h-496z" />
    <glyph glyph-name="lslash" unicode="&#x142;" horiz-adv-x="434" 
d="M21 186l39 150l115 54l112 424h158l-89 -337l116 56l-39 -150l-116 -54l-87 -329h-158l64 241z" />
    <glyph glyph-name="Nacute" unicode="&#x143;" horiz-adv-x="873" 
d="M681 1043h190l-214 -188h-138zM188 0h-163l209 783h187l192 -538l144 538h162l-208 -783h-180l-197 546z" />
    <glyph glyph-name="nacute" unicode="&#x144;" horiz-adv-x="638" 
d="M495 811h190l-214 -188h-138zM503 0l75 283q18 66 18 104q0 72 -43.5 114.5t-113.5 42.5q-80 0 -151 -67h-2l14 57h-154l-140 -534h158l77 295q12 47 41 76t73 29q33 0 53.5 -16.5t20.5 -48.5q0 -21 -7 -47l-77 -288h158z" />
    <glyph glyph-name="Ncommaaccent" unicode="&#x145;" horiz-adv-x="873" 
d="M188 0h-163l209 783h187l192 -538l144 538h162l-208 -783h-180l-197 546zM255 -314q73 47 106 101q-13 -6 -30 -6q-27 0 -44 17.5t-17 44.5q0 40 28 69t68 29q35 0 57 -24t22 -60q0 -63 -43.5 -120t-106.5 -95z" />
    <glyph glyph-name="ncommaaccent" unicode="&#x146;" horiz-adv-x="638" 
d="M345 0l77 288q7 26 7 47q0 32 -20.5 48.5t-53.5 16.5q-44 0 -73 -29t-41 -76l-77 -295h-158l140 534h154l-14 -57h2q71 67 151 67q70 0 113.5 -42.5t43.5 -114.5q0 -38 -18 -104l-75 -283h-158zM126 -314q73 47 106 101q-14 -6 -30 -6q-27 0 -44 17.5t-17 44.5
q0 40 28 69t68 29q35 0 57 -24t22 -60q0 -63 -43.5 -120t-106.5 -95z" />
    <glyph glyph-name="Ncaron" unicode="&#x147;" horiz-adv-x="873" 
d="M446 1028h127l37 -91l85 91h139l-167 -174h-145zM188 0h-163l209 783h187l192 -538l144 538h162l-208 -783h-180l-197 546z" />
    <glyph glyph-name="ncaron" unicode="&#x148;" horiz-adv-x="638" 
d="M269 798h127l37 -91l85 91h139l-167 -174h-145zM503 0l75 283q18 66 18 104q0 72 -43.5 114.5t-113.5 42.5q-80 0 -151 -67h-2l14 57h-154l-140 -534h158l77 295q12 47 41 76t73 29q33 0 53.5 -16.5t20.5 -48.5q0 -21 -7 -47l-77 -288h158z" />
    <glyph glyph-name="Eng" unicode="&#x14a;" horiz-adv-x="873" 
d="M466 -264q-72 0 -107 23l33 124q28 -11 54 -11q67 0 87 72l13 49l-211 557l-147 -550h-163l209 783h187l196 -526l140 526h162l-233 -878q-23 -84 -79.5 -126.5t-140.5 -42.5z" />
    <glyph glyph-name="eng" unicode="&#x14b;" horiz-adv-x="638" 
d="M422 288q7 26 7 47q0 32 -20.5 48.5t-53.5 16.5q-44 0 -73 -29t-41 -76l-77 -295h-158l140 534h154l-14 -57h2q71 67 151 67q70 0 113.5 -42.5t43.5 -114.5q0 -38 -18 -104l-99 -378q-23 -84 -77.5 -126.5t-135.5 -42.5q-72 0 -107 23l32 124q26 -11 53 -11q67 0 87 72z
" />
    <glyph glyph-name="Omacron" unicode="&#x14c;" horiz-adv-x="910" 
d="M777 984l-31 -116h-364l31 116h364zM547 795q159 0 257.5 -98t98.5 -247q0 -120 -58.5 -225t-167.5 -171t-242 -66q-154 0 -255 96t-101 250q0 122 61 227.5t169 169.5t238 64zM247 344q0 -92 55.5 -146.5t151.5 -54.5q118 0 199.5 91t81.5 205q0 93 -55 147.5t-152 54.5
q-121 0 -201 -92t-80 -205z" />
    <glyph glyph-name="omacron" unicode="&#x14d;" horiz-adv-x="657" 
d="M600 745l-31 -117h-364l31 117h364zM358 545q-131 0 -223.5 -92.5t-92.5 -216.5q0 -113 74.5 -180.5t187.5 -67.5q129 0 222.5 90.5t93.5 219.5q0 114 -73 180.5t-189 66.5zM310 130q-54 0 -83 31t-29 79q0 65 44 114t110 49q49 0 80.5 -30t31.5 -79q0 -66 -45.5 -115
t-108.5 -49z" />
    <glyph glyph-name="Ohungarumlaut" unicode="&#x150;" horiz-adv-x="910" 
d="M550 1040h189l-215 -188h-135zM783 1040h188l-214 -188h-135zM547 795q159 0 257.5 -98t98.5 -247q0 -120 -58.5 -225t-167.5 -171t-242 -66q-154 0 -255 96t-101 250q0 122 61 227.5t169 169.5t238 64zM247 344q0 -92 55.5 -146.5t151.5 -54.5q118 0 199.5 91t81.5 205
q0 93 -55 147.5t-152 54.5q-121 0 -201 -92t-80 -205z" />
    <glyph glyph-name="ohungarumlaut" unicode="&#x151;" horiz-adv-x="657" 
d="M356 811h188l-214 -188h-135zM589 811h188l-215 -188h-135zM358 545q-131 0 -223.5 -92.5t-92.5 -216.5q0 -113 74.5 -180.5t187.5 -67.5q129 0 222.5 90.5t93.5 219.5q0 114 -73 180.5t-189 66.5zM310 130q-54 0 -83 31t-29 79q0 65 44 114t110 49q49 0 80.5 -30
t31.5 -79q0 -66 -45.5 -115t-108.5 -49z" />
    <glyph glyph-name="OE" unicode="&#x152;" horiz-adv-x="1260" 
d="M547 795q181 0 257 -134l32 122h505l-40 -150h-343l-43 -163h306l-40 -149h-306l-46 -171h346l-40 -150h-508l19 67q-102 -79 -224 -79q-148 0 -245.5 96t-97.5 250q0 122 61 227.5t169 169.5t238 64zM247 344q0 -92 55.5 -146.5t151.5 -54.5q118 0 200 91.5t82 204.5
q0 93 -55.5 147.5t-153.5 54.5q-120 0 -200 -92t-80 -205z" />
    <glyph glyph-name="oe" unicode="&#x153;" horiz-adv-x="1048" 
d="M610 224q0 -50 36 -77.5t83 -27.5q45 0 77.5 20.5t48.5 53.5l123 -57q-83 -148 -258 -148q-134 0 -198 96q-86 -96 -216 -96q-113 0 -188 67.5t-75 180.5q0 125 90.5 217t224.5 92q138 0 202 -95q84 95 207 95q108 0 178 -61.5t70 -166.5q0 -42 -16 -93h-389zM864 329
q0 41 -25.5 66t-76.5 25q-42 0 -81.5 -25.5t-52.5 -67.5h236v2zM309 130q65 0 110 46.5t45 116.5q0 49 -31.5 79.5t-78.5 30.5q-70 0 -113 -47.5t-43 -114.5q0 -47 29.5 -79t81.5 -32z" />
    <glyph glyph-name="Racute" unicode="&#x154;" horiz-adv-x="744" 
d="M395 855l161 188l191 -1l-215 -187h-137zM538 303q226 62 226 259q0 149 -141 200q-60 21 -147 21h-242l-209 -783h162l75 281h114l93 -281h175zM472 631q123 0 123 -85q0 -58 -49 -87.5t-121 -29.5h-123l53 202h117z" />
    <glyph glyph-name="racute" unicode="&#x155;" horiz-adv-x="426" 
d="M414 811h190l-214 -188h-138zM435 378q-25 7 -48 7q-58 0 -102.5 -39t-63.5 -112l-62 -234h-153l140 534h148l-20 -78h1q63 84 161 84q20 0 40 -6z" />
    <glyph glyph-name="Rcommaaccent" unicode="&#x156;" horiz-adv-x="744" 
d="M469 0l-93 281h-114l-75 -281h-162l209 783h242q87 0 147 -21q141 -51 141 -200q0 -197 -226 -259l106 -303h-175zM302 429h123q72 0 121 29.5t49 87.5q0 85 -123 85h-117zM194 -314q73 47 106 101q-14 -6 -30 -6q-27 0 -44 17.5t-17 44.5q0 40 28 69t68 29q35 0 57 -24
t22 -60q0 -63 -43.5 -120t-106.5 -95z" />
    <glyph glyph-name="rcommaaccent" unicode="&#x157;" horiz-adv-x="426" 
d="M435 378q-25 7 -48 7q-58 0 -102.5 -39t-63.5 -112l-62 -234h-153l140 534h148l-20 -78h1q63 84 161 84q20 0 40 -6zM-52 -314q73 47 106 101q-14 -6 -30 -6q-27 0 -44 17.5t-17 44.5q0 40 28 69t68 29q35 0 57 -24t22 -60q0 -63 -43.5 -120t-106.5 -95z" />
    <glyph glyph-name="Rcaron" unicode="&#x158;" horiz-adv-x="744" 
d="M426 854l-76 174h127l36 -91l86 91h138l-166 -174h-145zM644 0h-175l-93 281h-114l-75 -281h-162l209 783h242q87 0 147 -21q141 -51 141 -200q0 -197 -226 -259zM355 631l-53 -202h123q72 0 121 29.5t49 87.5q0 85 -123 85h-117z" />
    <glyph glyph-name="rcaron" unicode="&#x159;" horiz-adv-x="426" 
d="M180 798h127l37 -91l85 91h139l-167 -174h-145zM435 378q-25 7 -48 7q-58 0 -102.5 -39t-63.5 -112l-62 -234h-153l140 534h148l-20 -78h1q63 84 161 84q20 0 40 -6z" />
    <glyph glyph-name="Sacute" unicode="&#x15a;" horiz-adv-x="700" 
d="M366 855l161 188l190 -1l-214 -187h-137zM713 559q0 112 -79.5 174t-199.5 62q-119 0 -208 -68t-89 -184q0 -136 191 -212l72 -29q79 -32 79 -87q0 -44 -42 -66t-90 -22q-68 0 -114 42t-45 109v5l-153 -27v-8q-1 -63 24.5 -114t69.5 -81.5t98 -47t113 -16.5
q130 0 218.5 63.5t88.5 187.5q0 75 -54 128t-137 85l-74 29q-22 9 -36.5 16t-28 23t-13.5 35q0 45 37.5 70t83.5 25q61 0 98.5 -31.5t37.5 -86.5z" />
    <glyph glyph-name="sacute" unicode="&#x15b;" horiz-adv-x="521" 
d="M399 811h190l-214 -188h-138zM231 110q27 0 47.5 13t20.5 35q0 28 -36 43l-59 23q-119 47 -119 139q0 79 64.5 131.5t149.5 52.5q80 0 143.5 -47.5t63.5 -124.5l-139 -15q0 30 -21 48.5t-49 18.5q-24 0 -43 -12.5t-19 -33.5q0 -28 34 -41l55 -21q61 -24 96 -57.5
t35 -88.5q0 -83 -67.5 -134t-159.5 -51t-156.5 46t-64.5 129v4l139 22q-1 -37 24 -58t61 -21z" />
    <glyph glyph-name="Scircumflex" unicode="&#x15c;" horiz-adv-x="700" 
d="M647 854h-127l-37 91l-85 -91h-139l167 174h145zM713 559q0 112 -79.5 174t-199.5 62q-119 0 -208 -68t-89 -184q0 -136 191 -212l72 -29q79 -32 79 -87q0 -44 -42 -66t-90 -22q-68 0 -114 42t-45 109v5l-153 -27v-8q-1 -63 24.5 -114t69.5 -81.5t98 -47t113 -16.5
q130 0 218.5 63.5t88.5 187.5q0 75 -54 128t-137 85l-74 29q-22 9 -36.5 16t-28 23t-13.5 35q0 45 37.5 70t83.5 25q61 0 98.5 -31.5t37.5 -86.5z" />
    <glyph glyph-name="scircumflex" unicode="&#x15d;" horiz-adv-x="521" 
d="M511 624h-127l-37 91l-85 -91h-139l167 174h145zM231 110q27 0 47.5 13t20.5 35q0 28 -36 43l-59 23q-119 47 -119 139q0 79 64.5 131.5t149.5 52.5q80 0 143.5 -47.5t63.5 -124.5l-139 -15q0 30 -21 48.5t-49 18.5q-24 0 -43 -12.5t-19 -33.5q0 -28 34 -41l55 -21
q61 -24 96 -57.5t35 -88.5q0 -83 -67.5 -134t-159.5 -51t-156.5 46t-64.5 129v4l139 22q-1 -37 24 -58t61 -21z" />
    <glyph glyph-name="Scedilla" unicode="&#x15e;" horiz-adv-x="700" 
d="M191 -261q-45 0 -81 11l27 101q27 -5 46 -5q48 0 74 33.5t26 86.5q0 9 -2 27q-107 15 -177.5 81t-68.5 174v8l153 27v-5q-1 -67 45 -109t114 -42q48 0 90 22t42 66q0 55 -79 87l-72 29q-190 75 -190 212q0 116 88.5 184t207.5 68q120 0 199.5 -62t79.5 -174l-152 -26
q0 55 -37 86.5t-99 31.5q-46 0 -83.5 -25t-37.5 -70q0 -28 21.5 -44.5t56.5 -29.5l74 -29q83 -32 137 -85t54 -128q0 -111 -70.5 -173t-181.5 -75q10 -27 10 -58q0 -97 -57.5 -146t-156.5 -49z" />
    <glyph glyph-name="scedilla" unicode="&#x15f;" horiz-adv-x="521" 
d="M324 319q61 -24 96 -57.5t35 -88.5q0 -71 -50.5 -119t-126.5 -61q11 -25 11 -59q0 -97 -57.5 -146t-156.5 -49q-45 0 -81 11l27 101q27 -5 45 -5q49 0 75 33.5t26 86.5q0 14 -3 29q-69 14 -113 57.5t-44 110.5v4l139 22q-1 -37 24 -58t61 -21q27 0 47.5 13t20.5 35
q0 28 -36 43l-59 23q-119 47 -119 139q0 79 64.5 131.5t149.5 52.5q80 0 143.5 -47.5t63.5 -124.5l-139 -15q0 30 -21 48.5t-49 18.5q-24 0 -43 -12.5t-19 -33.5q0 -28 34 -41z" />
    <glyph glyph-name="Scaron" unicode="&#x160;" horiz-adv-x="700" 
d="M315 1032h127l37 -92l85 92h139l-167 -175h-145zM564 533q0 55 -37.5 86.5t-98.5 31.5q-46 0 -83.5 -25t-37.5 -70q0 -19 14 -35t28 -23t36 -16l74 -29q191 -76 191 -213q0 -124 -88.5 -187.5t-218.5 -63.5q-80 0 -147.5 27.5t-112.5 87.5t-45 144v8l153 27v-5
q0 -67 46 -109t113 -42q48 0 90 22t42 66q0 56 -79 87l-72 29q-191 76 -191 212q0 116 89 184t208 68q120 0 199.5 -62t79.5 -174z" />
    <glyph glyph-name="scaron" unicode="&#x161;" horiz-adv-x="521" 
d="M181 800h127l36 -91l86 91h138l-166 -174h-146zM231 110q27 0 47.5 13t20.5 35q0 28 -36 43l-59 23q-119 47 -119 139q0 79 64.5 131.5t149.5 52.5q80 0 143.5 -47.5t63.5 -124.5l-139 -15q0 30 -21 48.5t-49 18.5q-24 0 -43 -12.5t-19 -33.5q0 -28 34 -41l55 -21
q61 -24 96 -57.5t35 -88.5q0 -83 -67.5 -134t-159.5 -51t-156.5 46t-64.5 129v4l139 22q-1 -37 24 -58t61 -21z" />
    <glyph glyph-name="uni0162" unicode="&#x162;" horiz-adv-x="671" 
d="M142 -261q-46 0 -81 11l26 101q28 -5 46 -5q48 0 74 33.5t26 86.5q0 23 -4 34h-44l167 628h-233l41 155h632l-42 -155h-234l-167 -628h-8q14 -23 14 -66q0 -97 -57 -146t-156 -49z" />
    <glyph glyph-name="uni0163" unicode="&#x163;" horiz-adv-x="453" 
d="M64 -261q-45 0 -81 11l26 101q28 -5 46 -5q49 0 75 33.5t26 86.5q0 19 -8 55q-51 35 -51 112q0 29 9 70l52 196h-102l35 135h105l44 167h156l-44 -167h129l-37 -135h-128l-53 -199q-3 -12 -3 -24q0 -50 64 -50q32 0 52 6l-33 -125q-34 -14 -78 -14q13 -29 11 -62
q-1 -96 -57 -144t-155 -48z" />
    <glyph glyph-name="Tcaron" unicode="&#x164;" horiz-adv-x="671" 
d="M319 1028h127l36 -91l86 91h139l-167 -174h-145zM185 0l167 628h-233l41 155h632l-42 -155h-234l-167 -628h-164z" />
    <glyph glyph-name="tcaron" unicode="&#x165;" horiz-adv-x="453" 
d="M504 815h163l-129 -229h-109zM481 534h-129l44 167h-156l-44 -167h-105l-35 -135h102l-52 -196q-9 -41 -9 -70q0 -140 163 -140q51 0 83 14l33 125q-20 -6 -52 -6q-64 0 -64 50q0 12 3 24l53 199h128z" />
    <glyph glyph-name="Tbar" unicode="&#x166;" horiz-adv-x="689" 
d="M169 394h130l62 232h-235l42 157h632l-42 -157h-235l-62 -232h130l-35 -130h-130l-70 -264h-162l71 264h-131z" />
    <glyph glyph-name="tbar" unicode="&#x167;" horiz-adv-x="457" 
d="M46 316h94l22 83h-103l36 135h104l45 167h155l-44 -167h130l-37 -135h-129l-22 -83h99l-27 -103h-99l-3 -13q-4 -16 -4 -24q0 -50 65 -50q30 0 52 6l-33 -125q-34 -14 -84 -14q-163 0 -163 140q0 32 10 70l2 10h-93z" />
    <glyph glyph-name="Utilde" unicode="&#x168;" horiz-adv-x="795" 
d="M631 854q-37 0 -76 23.5t-57 23.5q-30 0 -43 -47h-98l6 25q32 130 143 130q34 0 73.5 -23.5t56.5 -23.5q14 0 24.5 8.5t14 15t9.5 21.5h93l-6 -26q-33 -127 -140 -127zM361 -10q-54 0 -101 13.5t-86 41.5t-61.5 76.5t-22.5 112.5q0 48 18 116l116 433h164l-120 -450
q-11 -40 -11 -78q0 -53 33.5 -83t86.5 -30q70 0 117.5 48.5t67.5 124.5l125 468h164l-132 -490q-18 -68 -44.5 -119.5t-67.5 -94.5t-103 -66t-143 -23z" />
    <glyph glyph-name="utilde" unicode="&#x169;" horiz-adv-x="639" 
d="M486 624q-37 0 -75.5 23.5t-56.5 23.5q-30 0 -44 -46h-97l6 25q14 59 49.5 94t92.5 35q34 0 73.5 -23t57.5 -23q31 0 47 44h94l-7 -25q-32 -128 -140 -128zM204 -11q-68 0 -113 43t-45 115q0 34 19 104l75 283h157l-76 -288q-7 -26 -7 -47q0 -65 74 -65q85 0 113 105
l78 295h157l-140 -534h-154l15 58h-2q-71 -69 -151 -69z" />
    <glyph glyph-name="Umacron" unicode="&#x16a;" horiz-adv-x="795" 
d="M765 984l-31 -116h-364l31 116h364zM361 -10q-54 0 -101 13.5t-86 41.5t-61.5 76.5t-22.5 112.5q0 48 18 116l116 433h164l-120 -450q-11 -40 -11 -78q0 -53 33.5 -83t86.5 -30q70 0 117.5 48.5t67.5 124.5l125 468h164l-132 -490q-18 -68 -44.5 -119.5t-67.5 -94.5
t-103 -66t-143 -23z" />
    <glyph glyph-name="umacron" unicode="&#x16b;" horiz-adv-x="639" 
d="M617 745l-32 -117h-364l31 117h365zM204 -11q-68 0 -113 43t-45 115q0 34 19 104l75 283h157l-76 -288q-7 -26 -7 -47q0 -65 74 -65q85 0 113 105l78 295h157l-140 -534h-154l15 58h-2q-71 -69 -151 -69z" />
    <glyph glyph-name="Uring" unicode="&#x16e;" horiz-adv-x="795" 
d="M729 1000q0 -68 -48.5 -118.5t-122.5 -50.5q-56 0 -93 35t-37 92q0 68 49.5 118t121.5 50q58 0 94 -35.5t36 -90.5zM640 991q0 23 -14 36.5t-37 13.5q-29 0 -50 -22.5t-21 -51.5q0 -24 13.5 -37t36.5 -13q29 0 50.5 22.5t21.5 51.5zM361 -10q-54 0 -101 13.5t-86 41.5
t-61.5 76.5t-22.5 112.5q0 48 18 116l116 433h164l-120 -450q-11 -40 -11 -78q0 -53 33.5 -83t86.5 -30q70 0 117.5 48.5t67.5 124.5l125 468h164l-132 -490q-18 -68 -44.5 -119.5t-67.5 -94.5t-103 -66t-143 -23z" />
    <glyph glyph-name="uring" unicode="&#x16f;" horiz-adv-x="639" 
d="M592 771q0 -67 -49 -118t-123 -51q-56 0 -93 35t-37 92q0 68 49.5 118t121.5 50q59 0 95 -35.5t36 -90.5zM502 762q0 23 -14 36.5t-37 13.5q-29 0 -50 -22.5t-21 -51.5q0 -24 13.5 -37.5t37.5 -13.5q28 0 49.5 23t21.5 52zM204 -11q-68 0 -113 43t-45 115q0 34 19 104
l75 283h157l-76 -288q-7 -26 -7 -47q0 -65 74 -65q85 0 113 105l78 295h157l-140 -534h-154l15 58h-2q-71 -69 -151 -69z" />
    <glyph glyph-name="Uhungarumlaut" unicode="&#x170;" horiz-adv-x="795" 
d="M521 1040h188l-214 -188h-136zM753 1040h188l-214 -188h-135zM361 -10q-54 0 -101 13.5t-86 41.5t-61.5 76.5t-22.5 112.5q0 48 18 116l116 433h164l-120 -450q-11 -40 -11 -78q0 -53 33.5 -83t86.5 -30q70 0 117.5 48.5t67.5 124.5l125 468h164l-132 -490
q-18 -68 -44.5 -119.5t-67.5 -94.5t-103 -66t-143 -23z" />
    <glyph glyph-name="uhungarumlaut" unicode="&#x171;" horiz-adv-x="639" 
d="M380 811h189l-215 -188h-135zM613 811h188l-214 -188h-135zM204 -11q-68 0 -113 43t-45 115q0 34 19 104l75 283h157l-76 -288q-7 -26 -7 -47q0 -65 74 -65q85 0 113 105l78 295h157l-140 -534h-154l15 58h-2q-71 -69 -151 -69z" />
    <glyph glyph-name="Uogonek" unicode="&#x172;" horiz-adv-x="795" 
d="M320 -8q-101 10 -165.5 69.5t-64.5 172.5q0 48 18 116l116 433h164l-120 -450q-11 -40 -11 -78q0 -53 33.5 -83t86.5 -30q70 0 117.5 48.5t67.5 124.5l125 468h164l-132 -490q-32 -118 -93.5 -194t-168.5 -99q-114 -66 -114 -120q0 -23 20.5 -35t44.5 -12q14 0 44 6
l-24 -91q-36 -14 -94 -14q-53 0 -94 25.5t-41 75.5q0 79 121 157z" />
    <glyph glyph-name="uogonek" unicode="&#x173;" horiz-adv-x="639" 
d="M366 -120q0 -23 20.5 -35t45.5 -12q2 0 6 0.5t6 0.5l-25 -95q-25 -5 -61 -5q-53 0 -93 26t-40 79q0 26 12.5 50.5t37 46t42 34t46.5 30.5h-21l15 58h-2q-71 -69 -151 -69q-68 0 -113 43t-45 115q0 34 19 104l75 283h157l-76 -288q-7 -26 -7 -47q0 -65 74 -65
q85 0 113 105l78 295h157l-140 -534q-46 -23 -88 -56t-42 -64z" />
    <glyph glyph-name="Wcircumflex" unicode="&#x174;" horiz-adv-x="1204" 
d="M927 854h-127l-37 91l-85 -91h-139l167 174h145zM372 0h-177l-44 783h168l17 -557l307 557h172l29 -560l299 560h177l-435 -783h-180l-27 549h-1z" />
    <glyph glyph-name="wcircumflex" unicode="&#x175;" horiz-adv-x="892" 
d="M721 624h-127l-36 91l-86 -91h-139l167 174h146zM949 534l-309 -534h-155l-18 339l-199 -339h-153l-25 534h157l9 -329l186 329h144l13 -332l187 332h163z" />
    <glyph glyph-name="Ycircumflex" unicode="&#x176;" horiz-adv-x="753" 
d="M709 854h-126l-37 91l-86 -91h-138l166 174h146zM222 0l83 310l-152 473h181l88 -323l265 323h193l-412 -483l-81 -300h-165z" />
    <glyph glyph-name="ycircumflex" unicode="&#x177;" horiz-adv-x="613" 
d="M573 624h-127l-36 91l-86 -91h-138l166 174h146zM159 7l-72 527h158l38 -350l216 350h175l-519 -797h-171z" />
    <glyph glyph-name="Ydieresis" unicode="&#x178;" horiz-adv-x="753" 
d="M425 1007q32 0 52 -19.5t20 -49.5q0 -37 -27 -64.5t-67 -27.5q-31 0 -51 19t-20 50q0 37 27 64.5t66 27.5zM661 1007q32 0 51.5 -19.5t19.5 -49.5q0 -37 -27 -64.5t-67 -27.5q-31 0 -51 19t-20 50q0 37 27 64.5t67 27.5zM222 0l83 310l-152 473h181l88 -323l265 323h193
l-412 -483l-81 -300h-165z" />
    <glyph glyph-name="Zacute" unicode="&#x179;" horiz-adv-x="683" 
d="M580 1043h190l-214 -188h-138zM-27 0l38 143l508 492h-360l39 148h571l-38 -139l-504 -495h385l-40 -149h-599z" />
    <glyph glyph-name="zacute" unicode="&#x17a;" horiz-adv-x="540" 
d="M454 811h191l-215 -188h-138zM322 401h-233l35 133h440l-31 -120l-319 -281h248l-35 -133h-451l32 122z" />
    <glyph glyph-name="Zdotaccent" unicode="&#x17b;" horiz-adv-x="683" 
d="M524 1038q38 0 61.5 -23t23.5 -59q0 -43 -32 -75.5t-79 -32.5q-37 0 -60.5 22.5t-23.5 58.5q0 44 32 76.5t78 32.5zM-27 0l38 143l508 492h-360l39 148h571l-38 -139l-504 -495h385l-40 -149h-599z" />
    <glyph glyph-name="zdotaccent" unicode="&#x17c;" horiz-adv-x="540" 
d="M390 808q37 0 60.5 -23.5t23.5 -58.5q0 -43 -32 -75.5t-79 -32.5q-37 0 -60.5 22.5t-23.5 58.5q0 44 32.5 76.5t78.5 32.5zM322 401h-233l35 133h440l-31 -120l-319 -281h248l-35 -133h-451l32 122z" />
    <glyph glyph-name="Zcaron" unicode="&#x17d;" horiz-adv-x="683" 
d="M347 1028h127l37 -91l85 91h139l-167 -174h-145zM-27 0l38 143l508 492h-360l39 148h571l-38 -139l-504 -495h385l-40 -149h-599z" />
    <glyph glyph-name="zcaron" unicode="&#x17e;" horiz-adv-x="540" 
d="M216 798h127l36 -91l86 91h139l-167 -174h-145zM322 401h-233l35 133h440l-31 -120l-319 -281h248l-35 -133h-451l32 122z" />
    <glyph glyph-name="florin" unicode="&#x192;" horiz-adv-x="627" 
d="M194 402l35 132h125l35 76q83 176 278 176q51 0 79 -10l-35 -131q-35 8 -64 8q-79 0 -116 -79l-18 -40h121l-34 -132h-148l-109 -237q-79 -174 -279 -174q-49 0 -80 11l35 131q32 -8 65 -8q80 0 116 78l92 199h-98z" />
    <glyph glyph-name="uni01B5" unicode="&#x1b5;" horiz-adv-x="686" 
d="M520 635h-360l39 148h572l-38 -139l-184 -180h142l-35 -136h-245l-182 -179h384l-39 -149h-599l37 143l193 185h-133l35 136h237z" />
    <glyph glyph-name="uni01B6" unicode="&#x1b6;" horiz-adv-x="540" 
d="M323 405h-234l35 129h440l-30 -116l-126 -110h99l-22 -80h-162l-110 -99h248l-34 -129h-451l31 118l123 110h-90l21 80h155z" />
    <glyph glyph-name="uni01CD" unicode="&#x1cd;" horiz-adv-x="798" 
d="M403 1032h127l36 -92l86 92h139l-167 -175h-145zM218 168l-100 -168h-174l480 783h200l121 -783h-166l-25 168h-336zM533 316l-41 309l-186 -309h227z" />
    <glyph glyph-name="uni01CE" unicode="&#x1ce;" horiz-adv-x="688" 
d="M269 798h127l37 -91l85 91h139l-167 -174h-145zM391 0l15 57h-2q-81 -67 -156 -67q-96 0 -151.5 66.5t-55.5 161.5q0 137 89 231.5t209 94.5q116 0 170 -90l21 80h157l-141 -534h-155zM203 233q0 -49 31.5 -76t80.5 -27q65 0 111.5 52.5t46.5 118.5q0 48 -33.5 76
t-82.5 28q-65 0 -109.5 -53t-44.5 -119z" />
    <glyph glyph-name="uni01CF" unicode="&#x1cf;" horiz-adv-x="353" 
d="M187 1028h127l37 -91l86 91h138l-166 -174h-146zM399 783l-209 -783h-165l209 783h165z" />
    <glyph glyph-name="uni01D0" unicode="&#x1d0;" horiz-adv-x="305" 
d="M104 798h127l37 -91l85 91h139l-167 -174h-145zM146 534h159l-141 -534h-159z" />
    <glyph glyph-name="uni01D1" unicode="&#x1d1;" horiz-adv-x="910" 
d="M425 1028h127l37 -91l85 91h139l-167 -174h-145zM547 795q159 0 257.5 -98t98.5 -247q0 -120 -58.5 -225t-167.5 -171t-242 -66q-154 0 -255 96t-101 250q0 122 61 227.5t169 169.5t238 64zM247 344q0 -92 55.5 -146.5t151.5 -54.5q118 0 199.5 91t81.5 205
q0 93 -55 147.5t-152 54.5q-121 0 -201 -92t-80 -205z" />
    <glyph glyph-name="uni01D2" unicode="&#x1d2;" horiz-adv-x="657" 
d="M244 798h127l37 -91l85 91h139l-167 -174h-145zM358 545q-131 0 -223.5 -92.5t-92.5 -216.5q0 -113 74.5 -180.5t187.5 -67.5q129 0 222.5 90.5t93.5 219.5q0 114 -73 180.5t-189 66.5zM310 130q-54 0 -83 31t-29 79q0 65 44 114t110 49q49 0 80.5 -30t31.5 -79
q0 -66 -45.5 -115t-108.5 -49z" />
    <glyph glyph-name="uni01D3" unicode="&#x1d3;" horiz-adv-x="795" 
d="M405 1028h127l36 -91l86 91h138l-166 -174h-146zM361 -10q-54 0 -101 13.5t-86 41.5t-61.5 76.5t-22.5 112.5q0 48 18 116l116 433h164l-120 -450q-11 -40 -11 -78q0 -53 33.5 -83t86.5 -30q70 0 117.5 48.5t67.5 124.5l125 468h164l-132 -490q-18 -68 -44.5 -119.5
t-67.5 -94.5t-103 -66t-143 -23z" />
    <glyph glyph-name="uni01D4" unicode="&#x1d4;" horiz-adv-x="639" 
d="M267 798h127l36 -91l86 91h138l-166 -174h-146zM204 -11q-68 0 -113 43t-45 115q0 34 19 104l75 283h157l-76 -288q-7 -26 -7 -47q0 -65 74 -65q85 0 113 105l78 295h157l-140 -534h-154l15 58h-2q-71 -69 -151 -69z" />
    <glyph glyph-name="uni01D5" unicode="&#x1d5;" horiz-adv-x="795" 
d="M800 1146l-31 -117h-364l31 117h364zM451 983q32 0 51 -19.5t19 -50.5q0 -36 -27 -63.5t-66 -27.5q-31 0 -51.5 19t-20.5 49q0 38 27.5 65.5t67.5 27.5zM686 983q32 0 51.5 -20t19.5 -50q0 -37 -26.5 -64t-67.5 -27q-31 0 -51 19t-20 49q0 37 27.5 65t66.5 28zM361 -10
q-54 0 -101 13.5t-86 41.5t-61.5 76.5t-22.5 112.5q0 48 18 116l116 433h164l-120 -450q-11 -40 -11 -78q0 -53 33.5 -83t86.5 -30q70 0 117.5 48.5t67.5 124.5l125 468h164l-132 -490q-18 -68 -44.5 -119.5t-67.5 -94.5t-103 -66t-143 -23z" />
    <glyph glyph-name="uni01D6" unicode="&#x1d6;" horiz-adv-x="639" 
d="M655 916l-32 -117h-364l31 117h365zM309 743q32 0 52 -19.5t20 -49.5q0 -37 -27 -64.5t-67 -27.5q-31 0 -51 19t-20 50q0 37 27 64.5t66 27.5zM535 743q32 0 51.5 -19.5t19.5 -49.5q0 -37 -26.5 -64.5t-67.5 -27.5q-31 0 -51 19t-20 50q0 37 27.5 64.5t66.5 27.5z
M204 -11q-68 0 -113 43t-45 115q0 34 19 104l75 283h157l-76 -288q-7 -26 -7 -47q0 -65 74 -65q85 0 113 105l78 295h157l-140 -534h-154l15 58h-2q-71 -69 -151 -69z" />
    <glyph glyph-name="uni01D7" unicode="&#x1d7;" horiz-adv-x="795" 
d="M658 1187h188l-203 -178h-137zM452 983q32 0 51.5 -20t19.5 -50q0 -36 -27 -63.5t-67 -27.5q-31 0 -51 19t-20 49q0 38 27 65.5t67 27.5zM687 983q32 0 51.5 -20t19.5 -50q0 -37 -26.5 -64t-67.5 -27q-31 0 -51 19t-20 49q0 37 27.5 65t66.5 28zM361 -10q-54 0 -101 13.5
t-86 41.5t-61.5 76.5t-22.5 112.5q0 48 18 116l116 433h164l-120 -450q-11 -40 -11 -78q0 -53 33.5 -83t86.5 -30q70 0 117.5 48.5t67.5 124.5l125 468h164l-132 -490q-18 -68 -44.5 -119.5t-67.5 -94.5t-103 -66t-143 -23z" />
    <glyph glyph-name="uni01D8" unicode="&#x1d8;" horiz-adv-x="639" 
d="M526 967h190l-214 -188h-138zM309 743q32 0 52 -19.5t20 -49.5q0 -37 -27 -64.5t-67 -27.5q-31 0 -51 19t-20 50q0 37 27 64.5t66 27.5zM535 743q32 0 51.5 -19.5t19.5 -49.5q0 -37 -26.5 -64.5t-67.5 -27.5q-31 0 -51 19t-20 50q0 37 27.5 64.5t66.5 27.5zM204 -11
q-68 0 -113 43t-45 115q0 34 19 104l75 283h157l-76 -288q-7 -26 -7 -47q0 -65 74 -65q85 0 113 105l78 295h157l-140 -534h-154l15 58h-2q-71 -69 -151 -69z" />
    <glyph glyph-name="uni01D9" unicode="&#x1d9;" horiz-adv-x="795" 
d="M425 1183h127l36 -91l86 91h138l-166 -174h-146zM452 983q32 0 51.5 -20t19.5 -50q0 -36 -27 -63.5t-67 -27.5q-31 0 -51 19t-20 49q0 38 27 65.5t67 27.5zM687 983q32 0 51.5 -20t19.5 -50q0 -37 -26.5 -64t-67.5 -27q-31 0 -51 19t-20 49q0 37 27.5 65t66.5 28z
M361 -10q-54 0 -101 13.5t-86 41.5t-61.5 76.5t-22.5 112.5q0 48 18 116l116 433h164l-120 -450q-11 -40 -11 -78q0 -53 33.5 -83t86.5 -30q70 0 117.5 48.5t67.5 124.5l125 468h164l-132 -490q-18 -68 -44.5 -119.5t-67.5 -94.5t-103 -66t-143 -23z" />
    <glyph glyph-name="uni01DA" unicode="&#x1da;" horiz-adv-x="639" 
d="M288 954h127l36 -92l86 92h138l-166 -175h-146zM309 743q32 0 52 -19.5t20 -49.5q0 -37 -27 -64.5t-67 -27.5q-31 0 -51 19t-20 50q0 37 27 64.5t66 27.5zM535 743q32 0 51.5 -19.5t19.5 -49.5q0 -37 -26.5 -64.5t-67.5 -27.5q-31 0 -51 19t-20 50q0 37 27.5 64.5
t66.5 27.5zM204 -11q-68 0 -113 43t-45 115q0 34 19 104l75 283h157l-76 -288q-7 -26 -7 -47q0 -65 74 -65q85 0 113 105l78 295h157l-140 -534h-154l15 58h-2q-71 -69 -151 -69z" />
    <glyph glyph-name="uni01DB" unicode="&#x1db;" horiz-adv-x="795" 
d="M634 1009h-119l-102 177h168zM452 983q32 0 51.5 -20t19.5 -50q0 -36 -27 -63.5t-67 -27.5q-31 0 -51 19t-20 49q0 38 27 65.5t67 27.5zM687 983q32 0 51.5 -20t19.5 -50q0 -37 -26.5 -64t-67.5 -27q-31 0 -51 19t-20 49q0 37 27.5 65t66.5 28zM361 -10q-54 0 -101 13.5
t-86 41.5t-61.5 76.5t-22.5 112.5q0 48 18 116l116 433h164l-120 -450q-11 -40 -11 -78q0 -53 33.5 -83t86.5 -30q70 0 117.5 48.5t67.5 124.5l125 468h164l-132 -490q-18 -68 -44.5 -119.5t-67.5 -94.5t-103 -66t-143 -23z" />
    <glyph glyph-name="uni01DC" unicode="&#x1dc;" horiz-adv-x="639" 
d="M492 779h-119l-109 188h172zM309 743q32 0 52 -19.5t20 -49.5q0 -37 -27 -64.5t-67 -27.5q-31 0 -51 19t-20 50q0 37 27 64.5t66 27.5zM535 743q32 0 51.5 -19.5t19.5 -49.5q0 -37 -26.5 -64.5t-67.5 -27.5q-31 0 -51 19t-20 50q0 37 27.5 64.5t66.5 27.5zM204 -11
q-68 0 -113 43t-45 115q0 34 19 104l75 283h157l-76 -288q-7 -26 -7 -47q0 -65 74 -65q85 0 113 105l78 295h157l-140 -534h-154l15 58h-2q-71 -69 -151 -69z" />
    <glyph glyph-name="Gcaron" unicode="&#x1e6;" horiz-adv-x="880" 
d="M422 1028h127l36 -91l86 91h139l-167 -174h-145zM435 -12q-113 0 -195.5 48.5t-121.5 126t-39 172.5q0 118 58.5 223t167 171t241.5 66q80 0 144.5 -23t103 -60t61 -76.5t29.5 -79.5l-156 -48q-32 135 -200 135q-115 0 -198 -88.5t-83 -210.5q0 -89 52 -146.5t155 -57.5
q78 0 136.5 36t80.5 98h-238l35 146h411q-7 -90 -36.5 -166t-82 -136.5t-136 -95t-189.5 -34.5z" />
    <glyph glyph-name="gcaron" unicode="&#x1e7;" horiz-adv-x="690" 
d="M276 798h127l36 -91l86 91h139l-167 -174h-145zM407 69q-62 -58 -155 -58q-91 0 -150 64t-59 156q0 131 89 221.5t201 90.5q119 0 181 -87l21 78h155l-138 -521q-74 -280 -322 -280q-130 0 -201 66.5t-71 155.5l146 29q0 -47 32.5 -81.5t93.5 -34.5q58 0 101 37t62 109z
M312 146q60 0 106 47t46 113q0 45 -30 72t-77 27q-63 0 -108 -47.5t-45 -112.5q0 -45 29.5 -72t78.5 -27z" />
    <glyph glyph-name="uni01E8" unicode="&#x1e8;" horiz-adv-x="736" 
d="M388 1028h127l36 -91l86 91h138l-166 -174h-146zM189 0h-164l209 783h164l-87 -329l340 329h217l-411 -390l219 -393h-186l-199 380z" />
    <glyph glyph-name="uni01E9" unicode="&#x1e9;" horiz-adv-x="618" 
d="M231 256l-67 -256h-158l215 815h157l-128 -487h2l221 206h215l-295 -261l158 -273h-182l-136 256h-2zM417 798h127l37 -91l86 91h138l-166 -174h-146z" />
    <glyph glyph-name="uni01F4" unicode="&#x1f4;" horiz-adv-x="880" 
d="M640 1043h191l-215 -188h-137zM435 -12q-113 0 -195.5 48.5t-121.5 126t-39 172.5q0 118 58.5 223t167 171t241.5 66q80 0 144.5 -23t103 -60t61 -76.5t29.5 -79.5l-156 -48q-32 135 -200 135q-115 0 -198 -88.5t-83 -210.5q0 -89 52 -146.5t155 -57.5q78 0 136.5 36
t80.5 98h-238l35 146h411q-7 -90 -36.5 -166t-82 -136.5t-136 -95t-189.5 -34.5z" />
    <glyph glyph-name="uni01F5" unicode="&#x1f5;" horiz-adv-x="690" 
d="M450 811h191l-215 -188h-137zM407 69q-62 -58 -155 -58q-91 0 -150 64t-59 156q0 131 89 221.5t201 90.5q119 0 181 -87l21 78h155l-138 -521q-74 -280 -322 -280q-130 0 -201 66.5t-71 155.5l146 29q0 -47 32.5 -81.5t93.5 -34.5q58 0 101 37t62 109zM312 146
q60 0 106 47t46 113q0 45 -30 72t-77 27q-63 0 -108 -47.5t-45 -112.5q0 -45 29.5 -72t78.5 -27z" />
    <glyph glyph-name="Aringacute" unicode="&#x1fa;" horiz-adv-x="798" 
d="M687 897q5 -18 5 -38q0 -78 -60 -129l113 -730h-166l-25 168h-336l-100 -168h-174l462 754q-15 27 -15 62q0 69 49.5 119t121.5 50q28 0 55 -10l96 113h191zM552 899q-29 0 -50 -22t-21 -51q0 -24 13.5 -37.5t37.5 -13.5q28 0 49.5 23t21.5 51q0 24 -13.5 37t-37.5 13z
M533 316l-41 309l-186 -309h227z" />
    <glyph glyph-name="aringacute" unicode="&#x1fb;" horiz-adv-x="689" 
d="M576 771q0 -68 -48.5 -118.5t-122.5 -50.5q-56 0 -93.5 35t-37.5 92q0 68 50 118t122 50q31 0 55 -10l96 113h191l-217 -190q5 -20 5 -39zM486 762q0 23 -13.5 36.5t-36.5 13.5q-29 0 -50.5 -22.5t-21.5 -51.5q0 -24 14 -37.5t37 -13.5q29 0 50 23t21 52zM391 0l15 57h-2
q-81 -67 -156 -67q-96 0 -151.5 66.5t-55.5 161.5q0 137 89 231.5t209 94.5q116 0 170 -90l21 80h157l-141 -534h-155zM203 233q0 -49 31.5 -76t80.5 -27q65 0 111.5 52.5t46.5 118.5q0 48 -33.5 76t-82.5 28q-65 0 -109.5 -53t-44.5 -119z" />
    <glyph glyph-name="AEacute" unicode="&#x1fc;" horiz-adv-x="1072" 
d="M812 1043h191l-214 -188h-138zM-78 0l611 783h619l-40 -150h-344l-44 -162h308l-40 -150h-308l-45 -171h347l-40 -150h-510l42 156h-249l-119 -156h-188zM345 307h173l88 328h-10z" />
    <glyph glyph-name="aeacute" unicode="&#x1fd;" horiz-adv-x="957" 
d="M624 811h190l-214 -188h-138zM907 224q16 51 16 93q0 105 -70 166.5t-178 61.5q-89 0 -166 -64q-53 65 -162 65q-107 0 -177 -50t-89 -115l129 -39q11 35 43 57t71 22q37 0 57 -16t20 -40q0 -49 -58 -53l-113 -6q-87 -5 -151 -48.5t-64 -127.5q0 -59 45 -99.5t118 -40.5
h4q74 0 129.5 22.5t109.5 75.5q69 -100 207 -100q84 0 151 37.5t107 110.5l-122 57q-17 -33 -49.5 -53.5t-76.5 -20.5q-47 0 -83 27.5t-36 77.5h388zM537 327q12 40 51 66.5t82 26.5q44 0 74 -21t30 -62l-1 -10h-236zM224 104q-22 0 -37.5 13.5t-15.5 34.5q0 32 30.5 47
t69.5 17l93 6l-2 -9q-10 -49 -49 -79t-89 -30z" />
    <glyph glyph-name="Oslashacute" unicode="&#x1fe;" horiz-adv-x="909" 
d="M645 1043h190l-214 -188h-138zM846 646q57 -89 57 -196q0 -120 -58.5 -225t-167.5 -171t-242 -66q-128 0 -223 70l-88 -84l-76 79l88 85q-57 86 -57 196q0 122 61 227.5t169 169.5t238 64q131 0 224 -70l88 87l77 -80zM529 646q-82 0 -149 -45.5t-102 -114.5t-35 -143
q0 -56 19 -92l384 365q-40 30 -117 30zM452 138q120 0 203.5 93t83.5 209q0 57 -19 92l-383 -364q15 -13 48 -21.5t67 -8.5z" />
    <glyph glyph-name="oslashacute" unicode="&#x1ff;" horiz-adv-x="657" 
d="M460 811h191l-214 -188h-138zM577 444q43 -62 43 -146q0 -129 -93.5 -219.5t-221.5 -90.5q-93 0 -162 47l-73 -68l-54 57l70 67q-43 61 -43 145q0 124 92 216.5t224 92.5q94 0 162 -45l70 67l55 -57zM356 408q-70 0 -116 -51t-46 -118q0 -23 6 -43l210 201q-24 11 -54 11
zM307 126q67 0 114 50t47 118q0 27 -7 45l-210 -202q25 -11 56 -11z" />
    <glyph glyph-name="Scommaaccent" unicode="&#x218;" horiz-adv-x="700" 
d="M561 533q0 55 -37.5 86.5t-98.5 31.5q-46 0 -83.5 -25t-37.5 -70q0 -28 21.5 -44.5t56.5 -29.5l74 -29q83 -32 137 -85t54 -128q0 -124 -88.5 -187.5t-218.5 -63.5q-59 0 -113 16.5t-98 47t-69.5 81.5t-24.5 114v8l153 27v-5q-1 -67 45 -109t114 -42q48 0 90 22t42 66
q0 55 -79 87l-72 29q-191 76 -191 212q0 116 89 184t208 68q120 0 199.5 -62t79.5 -174zM191 -314q73 47 106 101q-13 -6 -30 -6q-27 0 -44 17.5t-17 44.5q0 40 28 69t68 29q35 0 57 -24t22 -60q0 -63 -43.5 -120t-106.5 -95z" />
    <glyph glyph-name="scommaaccent" unicode="&#x219;" horiz-adv-x="521" 
d="M231 110q27 0 47.5 13t20.5 35q0 28 -36 43l-59 23q-119 47 -119 139q0 79 64.5 131.5t149.5 52.5q80 0 143.5 -47.5t63.5 -124.5l-139 -15q0 30 -21 48.5t-49 18.5q-24 0 -43 -12.5t-19 -33.5q0 -28 34 -41l55 -21q61 -24 96 -57.5t35 -88.5q0 -83 -67.5 -134
t-159.5 -51t-156.5 46t-64.5 129v4l139 22q-1 -37 24 -58t61 -21zM81 -314q73 47 106 101q-14 -6 -30 -6q-27 0 -44 17.5t-17 44.5q0 40 28 69t68 29q35 0 57 -24t22 -60q0 -63 -43.5 -120t-106.5 -95z" />
    <glyph glyph-name="uni021A" unicode="&#x21a;" horiz-adv-x="671" 
d="M185 0l167 628h-233l41 155h632l-42 -155h-234l-167 -628h-164zM126 -314q73 47 106 101q-14 -6 -30 -6q-27 0 -44 17.5t-17 44.5q0 40 28 69t68 29q35 0 57 -24t22 -60q0 -63 -43.5 -120t-106.5 -95z" />
    <glyph glyph-name="uni021B" unicode="&#x21b;" horiz-adv-x="453" 
d="M263 200q-3 -12 -3 -24q0 -50 64 -50q32 0 52 6l-33 -125q-32 -14 -83 -14q-163 0 -163 140q0 29 9 70l52 196h-102l35 135h105l44 167h156l-44 -167h129l-37 -135h-128zM61 -314q73 47 106 101q-13 -6 -30 -6q-27 0 -44 17.5t-17 44.5q0 40 28 69t68 29q35 0 57 -24
t22 -60q0 -63 -43.5 -120t-106.5 -95z" />
    <glyph glyph-name="uni0237" unicode="&#x237;" horiz-adv-x="313" 
d="M312 534l-165 -629q-21 -84 -76 -126.5t-136 -42.5q-72 0 -107 23l32 124q26 -11 52 -11q67 0 87 72l155 590h158z" />
    <glyph glyph-name="circumflex" unicode="&#x2c6;" horiz-adv-x="388" 
d="M488 624h-127l-37 91l-85 -91h-139l167 174h145z" />
    <glyph glyph-name="breve" unicode="&#x2d8;" horiz-adv-x="329" 
d="M271 620q-74 0 -122.5 46t-48.5 119v13h115q-1 -32 16 -52t48 -20t54 20.5t33 51.5h118q-20 -78 -77 -128t-136 -50z" />
    <glyph glyph-name="dotaccent" unicode="&#x2d9;" horiz-adv-x="195" 
d="M211 808q38 0 61 -23.5t23 -58.5q0 -43 -31.5 -75.5t-79.5 -32.5q-37 0 -60.5 22.5t-23.5 58.5q0 44 32.5 76.5t78.5 32.5z" />
    <glyph glyph-name="tilde" unicode="&#x2dc;" horiz-adv-x="420" 
d="M373 624q-36 0 -75 23.5t-57 23.5q-28 0 -44 -46h-97l6 25q14 59 49.5 94t92.5 35q34 0 73.5 -23t57.5 -23q14 0 24.5 8t14 15.5t8.5 20.5h94l-6 -25q-32 -128 -141 -128z" />
    <glyph glyph-name="hungarumlaut" unicode="&#x2dd;" horiz-adv-x="527" 
d="M261 811h189l-215 -188h-135zM494 811h188l-214 -188h-136z" />
    <glyph glyph-name="gravecomb" unicode="&#x300;" horiz-adv-x="0" 
d="M114 623h-119l-109 187h172z" />
    <glyph glyph-name="acutecomb" unicode="&#x301;" horiz-adv-x="0" 
d="M-235 811h191l-215 -188h-137z" />
    <glyph glyph-name="uni0302" unicode="&#x302;" horiz-adv-x="0" 
d="M194 624h-127l-37 91l-85 -91h-139l167 174h145z" />
    <glyph glyph-name="tildecomb" unicode="&#x303;" horiz-adv-x="0" 
d="M63 624q-36 0 -75 23.5t-57 23.5q-28 0 -44 -46h-97l6 25q14 59 49.5 94t92.5 35q34 0 73.5 -23t57.5 -23q14 0 24.5 8t14 15.5t8.5 20.5h94l-6 -25q-32 -128 -141 -128z" />
    <glyph glyph-name="uni0304" unicode="&#x304;" horiz-adv-x="0" 
d="M198 745l-31 -117h-365l31 117h365z" />
    <glyph glyph-name="uni0306" unicode="&#x306;" horiz-adv-x="0" 
d="M-21 620q-74 0 -122.5 46t-48.5 119v13h115q-1 -32 16 -52t48 -20t54 20.5t33 51.5h118q-20 -78 -77 -128t-136 -50z" />
    <glyph glyph-name="uni0307" unicode="&#x307;" horiz-adv-x="0" 
d="M16 808q38 0 61 -23.5t23 -58.5q0 -43 -31.5 -75.5t-79.5 -32.5q-37 0 -60.5 22.5t-23.5 58.5q0 44 32.5 76.5t78.5 32.5z" />
    <glyph glyph-name="uni0308" unicode="&#x308;" horiz-adv-x="0" 
d="M-102 778q32 0 52 -20t20 -50q0 -36 -27 -63.5t-67 -27.5q-31 0 -51 19t-20 50q0 37 27 64.5t66 27.5zM124 778q32 0 51.5 -20t19.5 -50q0 -36 -26.5 -63.5t-66.5 -27.5q-31 0 -51.5 19t-20.5 50q0 37 27.5 64.5t66.5 27.5z" />
    <glyph glyph-name="uni030A" unicode="&#x30a;" horiz-adv-x="0" 
d="M151 771q0 -68 -49 -118.5t-123 -50.5q-56 0 -93 35t-37 92q0 68 50 118t122 50q58 0 94 -35.5t36 -90.5zM61 762q0 23 -13.5 36.5t-37.5 13.5q-29 0 -50 -22.5t-21 -51.5q0 -24 13.5 -37.5t37.5 -13.5q28 0 49.5 23t21.5 52z" />
    <glyph glyph-name="uni030B" unicode="&#x30b;" horiz-adv-x="0" 
d="M-130 811h189l-215 -188h-135zM103 811h188l-214 -188h-136z" />
    <glyph glyph-name="uni030C" unicode="&#x30c;" horiz-adv-x="0" 
d="M-194 798h127l37 -91l85 91h139l-167 -174h-145z" />
    <glyph glyph-name="uni0312" unicode="&#x312;" horiz-adv-x="0" 
d="M107 871q-73 -47 -106 -101q14 6 30 6q27 0 44 -17t17 -45q0 -40 -28 -69t-68 -29q-35 0 -57 24t-22 60q0 63 44 120.5t106 94.5z" />
    <glyph glyph-name="uni0326" unicode="&#x326;" horiz-adv-x="0" 
d="M-104 -314q73 47 106 101q-14 -6 -30 -6q-27 0 -44 17.5t-17 44.5q0 40 28 69t68 29q35 0 57 -24t22 -60q0 -63 -43.5 -120t-106.5 -95z" />
    <glyph glyph-name="uni0327" unicode="&#x327;" horiz-adv-x="0" 
d="M-66 -261q-46 0 -81 11l26 101q28 -5 46 -5q48 0 74 33.5t26 86.5q0 23 -4 34h112q14 -23 14 -66q0 -97 -57 -146t-156 -49z" />
    <glyph glyph-name="uni0328" unicode="&#x328;" horiz-adv-x="0" 
d="M59 -261q-25 -5 -61 -5q-53 0 -93.5 26.5t-40.5 78.5q0 26 12.5 50t37.5 46t42 34.5t47 30.5h133q-46 -23 -88 -56t-42 -64q0 -23 20.5 -35t45.5 -12q8 0 12 1z" />
    <glyph glyph-name="Theta" unicode="&#x398;" horiz-adv-x="910" 
d="M547 795q159 0 257.5 -98t98.5 -247q0 -120 -58.5 -225t-167.5 -171t-242 -66q-154 0 -255 96t-101 250q0 122 61 227.5t169 169.5t238 64zM245 344q0 -92 56.5 -147t152.5 -55q118 0 200.5 91.5t82.5 205.5q0 93 -55.5 148t-153.5 55q-121 0 -202 -92t-81 -206zM332 471
l-41 -151l362 1l40 150h-361z" />
    <glyph glyph-name="uni03A9" unicode="&#x3a9;" horiz-adv-x="896" 
d="M534 641q-110 0 -187.5 -78t-77.5 -185q0 -60 36 -99t96 -53l-60 -226h-341l37 138h191l5 19q-59 28 -95 89t-36 132q0 97 39 177.5t103 132t144.5 79.5t165.5 28q84 0 151.5 -27.5t108 -72.5t61.5 -99t21 -111q0 -109 -81.5 -203.5t-201.5 -129.5l-4 -14h192l-37 -138
h-341l59 225q88 5 167.5 82t79.5 169q0 77 -54 121t-141 44z" />
    <glyph glyph-name="theta" unicode="&#x3b8;" horiz-adv-x="732" 
d="M730 509q0 -88 -28.5 -178.5t-78 -167t-127 -125t-166.5 -48.5q-127 0 -192.5 85t-65.5 222q0 88 28 178.5t77.5 167.5t127 125.5t167.5 48.5q67 0 118 -25.5t81 -69.5t44.5 -97.5t14.5 -115.5zM575 472q1 10 1 28q0 177 -118 177q-68 0 -123 -60t-80 -145h320zM227 342
q-1 -12 -1 -34q0 -177 113 -177q70 0 125.5 60.5t82.5 150.5h-320z" />
    <glyph glyph-name="pi" unicode="&#x3c0;" horiz-adv-x="756" 
d="M571 200q-3 -12 -3 -24q0 -50 64 -50q28 0 52 7l-33 -124q-35 -15 -83 -15q-75 0 -118.5 33.5t-43.5 105.5q0 33 10 70l51 197h-141l-105 -400h-157l105 400h-106l36 134h671l-36 -134h-110z" />
    <glyph glyph-name="uni0401" unicode="&#x401;" horiz-adv-x="665" 
d="M411 1002q32 0 51.5 -19.5t19.5 -49.5q0 -37 -27 -64.5t-67 -27.5q-31 0 -51 19t-20 50q0 37 27 64.5t67 27.5zM646 1002q32 0 51.5 -19.5t19.5 -49.5q0 -37 -26.5 -64.5t-66.5 -27.5q-31 0 -51.5 19t-20.5 50q0 37 27.5 64.5t66.5 27.5zM235 783h510l-40 -150h-348
l-43 -163h311l-40 -149h-311l-46 -171h351l-40 -150h-514z" />
    <glyph glyph-name="uni0402" unicode="&#x402;" horiz-adv-x="847" 
d="M515 -31q-65 0 -119 16l38 140q25 -7 55 -7q70 0 115.5 37.5t45.5 105.5q0 44 -30 67t-76 23q-91 0 -171 -56l-78 -295h-163l170 636h-180l39 147h626l-40 -147h-282l-52 -194q105 59 210 59q89 0 144.5 -59t55.5 -148q0 -136 -86.5 -230.5t-221.5 -94.5z" />
    <glyph glyph-name="uni0403" unicode="&#x403;" horiz-adv-x="606" 
d="M555 1040h190l-214 -188h-138zM25 0l209 783h491l-40 -151h-327l-169 -632h-164z" />
    <glyph glyph-name="uni0404" unicode="&#x404;" horiz-adv-x="870" 
d="M458 139q170 0 241 169l149 -58q-14 -35 -35.5 -69.5t-58 -70t-80.5 -62t-106.5 -43.5t-132.5 -17q-159 0 -256.5 94t-97.5 250q0 200 135 331.5t326 131.5q67 0 124 -16.5t95 -43t66.5 -62.5t43.5 -72t21 -73l-154 -48q-5 26 -15 50t-31.5 52t-63 45t-97.5 17
q-84 0 -156 -49t-105 -126h322l-36 -146h-306q7 -88 59.5 -136t148.5 -48z" />
    <glyph glyph-name="uni0405" unicode="&#x405;" horiz-adv-x="701" 
d="M561 533q0 55 -37 86.5t-99 31.5q-46 0 -83.5 -25t-37.5 -70q0 -28 21.5 -44.5t56.5 -29.5l74 -29q83 -32 137 -85t54 -128q0 -124 -88.5 -187.5t-218.5 -63.5q-59 0 -113 16.5t-98 47t-69.5 81.5t-24.5 114v8l153 27v-5q-1 -67 45 -109t114 -42q48 0 90 22t42 66
q0 55 -79 87l-72 29q-190 75 -190 212q0 116 88.5 184t207.5 68q120 0 199.5 -62t79.5 -174z" />
    <glyph glyph-name="uni0406" unicode="&#x406;" horiz-adv-x="353" 
d="M399 783l-209 -783h-165l209 783h165z" />
    <glyph glyph-name="uni0407" unicode="&#x407;" horiz-adv-x="353" 
d="M245 1007q32 0 51.5 -19.5t19.5 -49.5q0 -37 -26.5 -64.5t-66.5 -27.5q-31 0 -51 19t-20 50q0 37 27 64.5t66 27.5zM466 1007q32 0 52 -19.5t20 -49.5q0 -37 -26.5 -64.5t-67.5 -27.5q-31 0 -51 19t-20 50q0 37 27 64.5t66 27.5zM399 783l-209 -783h-165l209 783h165z
" />
    <glyph glyph-name="uni0408" unicode="&#x408;" horiz-adv-x="628" 
d="M241 -10q-89 0 -154 57.5t-65 145.5q0 69 24 148l162 5q-27 -90 -27 -122q0 -36 20 -58.5t56 -22.5q42 0 72.5 26.5t42.5 68.5l146 545h164l-151 -564q-60 -229 -290 -229z" />
    <glyph glyph-name="uni0409" unicode="&#x409;" horiz-adv-x="1223" 
d="M680 632h-211l-81 -221q-87 -234 -184 -330t-245 -84h-2l38 145q78 0 133.5 79.5t125.5 270.5l107 291h524l-79 -296h128q126 0 194.5 -57.5t68.5 -145.5q0 -127 -92.5 -205.5t-260.5 -78.5h-332zM767 343l-51 -191h152q74 0 117 28.5t44 84.5q0 35 -28 56.5t-76 21.5
h-158z" />
    <glyph glyph-name="uni040A" unicode="&#x40a;" horiz-adv-x="1221" 
d="M600 328h-323l-88 -328h-164l209 783h164l-83 -312h323l84 312h164l-84 -312h137q119 0 187 -55.5t68 -142.5q0 -131 -97.5 -202t-246.5 -71h-337zM766 333l-50 -184h152q73 0 114.5 27t41.5 81q0 34 -26.5 55t-78.5 21h-153z" />
    <glyph glyph-name="uni040B" unicode="&#x40b;" horiz-adv-x="859" 
d="M414 445q108 55 210 55q94 0 148.5 -42.5t55.5 -120.5q0 -35 -10 -69l-70 -268h-163l55 206q9 35 9 61q0 84 -98 84q-103 0 -177 -52l-79 -299h-163l170 636h-180l39 147h626l-40 -147h-282z" />
    <glyph glyph-name="uni040C" unicode="&#x40c;" horiz-adv-x="736" 
d="M629 1043h191l-215 -188h-137zM189 0h-164l209 783h164l-87 -329l340 329h217l-411 -390l219 -393h-186l-199 380z" />
    <glyph glyph-name="uni040E" unicode="&#x40e;" horiz-adv-x="724" 
d="M525 856q-80 0 -124.5 49.5t-46.5 134.5l93 16q18 -92 90 -92q74 0 115 92l88 -16q-25 -86 -80 -135t-135 -49zM290 241q-36 -46 -83 -76.5t-94 -30.5q-38 0 -80 13l-38 -142q59 -17 108 -17q181 0 344 221l422 574h-187l-274 -378l-97 378h-173z" />
    <glyph glyph-name="uni040F" unicode="&#x40f;" horiz-adv-x="833" 
d="M429 0l-44 -164h-159l44 164h-245l210 783h164l-169 -631h317l169 631h164l-210 -783h-241z" />
    <glyph glyph-name="uni0410" unicode="&#x410;" horiz-adv-x="798" 
d="M579 0l-25 168h-336l-100 -168h-174l480 783h200l121 -783h-166zM492 625l-186 -309h227z" />
    <glyph glyph-name="uni0411" unicode="&#x411;" horiz-adv-x="755" 
d="M793 783l-39 -147h-396l-44 -165h150q119 0 186.5 -55t67.5 -143q0 -130 -95.5 -201.5t-254.5 -71.5h-343l209 783h559zM278 334l-49 -183h167q28 0 53 5t48.5 16t37.5 33.5t14 53.5q0 34 -27.5 54.5t-74.5 20.5h-169z" />
    <glyph glyph-name="uni0412" unicode="&#x412;" horiz-adv-x="756" 
d="M25 0l209 783h260q49 0 93.5 -9.5t84.5 -30.5t63.5 -60t23.5 -92q0 -76 -46 -127.5t-122 -66.5q108 -48 108 -158q0 -52 -20.5 -94t-54 -68.5t-78.5 -44t-90.5 -25t-93.5 -7.5h-337zM355 635l-45 -170h139q146 0 146 97q0 73 -113 73h-127zM273 326l-47 -178h163
q60 0 103 25t43 77q0 41 -32.5 58.5t-79.5 17.5h-150z" />
    <glyph glyph-name="uni0413" unicode="&#x413;" horiz-adv-x="606" 
d="M25 0l209 783h491l-40 -151h-327l-169 -632h-164z" />
    <glyph glyph-name="uni0414" unicode="&#x414;" horiz-adv-x="909" 
d="M918 783l-169 -635h82l-83 -312h-160l44 164h-528l-44 -164h-159l83 312q86 2 165.5 100.5t133.5 245.5l108 289h527zM716 637h-217l-63 -170q-96 -250 -219 -317h369z" />
    <glyph glyph-name="uni0415" unicode="&#x415;" horiz-adv-x="665" 
d="M235 783h510l-40 -150h-348l-43 -163h311l-40 -149h-311l-46 -171h351l-40 -150h-514z" />
    <glyph glyph-name="uni0416" unicode="&#x416;" horiz-adv-x="1109" 
d="M507 380h-5l-350 -380h-221l407 419l-187 364h173l188 -367l5 1l98 366h162l-98 -367h6l354 367h202l-395 -403l197 -380h-184l-185 380h-4l-102 -380h-162z" />
    <glyph glyph-name="uni0417" unicode="&#x417;" horiz-adv-x="669" 
d="M428 795q116 0 183.5 -61t67.5 -150q0 -75 -48 -126.5t-123 -68.5v-1q47 -22 74.5 -62.5t27.5 -92.5q0 -104 -88.5 -174.5t-227.5 -70.5q-107 0 -187.5 67.5t-81.5 179.5l162 32q-3 -58 30 -93.5t89 -35.5q53 0 95.5 28.5t42.5 74.5q0 36 -24.5 58t-73.5 22h-94l37 149
h79q68 0 107 28t39 70q0 36 -27.5 57.5t-71.5 21.5q-105 0 -149 -102l-147 57q39 93 120.5 143t188.5 50z" />
    <glyph glyph-name="uni0418" unicode="&#x418;" horiz-adv-x="865" 
d="M397 783l-145 -542l469 542h191l-209 -783h-162l146 548l-470 -548h-192l209 783h163z" />
    <glyph glyph-name="uni0419" unicode="&#x419;" horiz-adv-x="865" 
d="M597 856q-80 0 -125 49.5t-47 134.5l94 16q16 -92 89 -92q76 0 115 92l89 -16q-26 -86 -80.5 -135t-134.5 -49zM541 0h162l209 783h-191l-469 -542l145 542h-163l-209 -783h192l470 548z" />
    <glyph glyph-name="uni041A" unicode="&#x41a;" horiz-adv-x="736" 
d="M189 0h-164l209 783h164l-87 -329l340 329h217l-411 -390l219 -393h-186l-199 380z" />
    <glyph glyph-name="uni041B" unicode="&#x41b;" horiz-adv-x="838" 
d="M388 411q-86 -234 -183 -330t-245 -84h-3l39 145q77 0 133 80t125 270l108 291h523l-209 -783h-164l169 632h-211z" />
    <glyph glyph-name="uni041C" unicode="&#x41c;" horiz-adv-x="1059" 
d="M735 0l143 538h-2l-360 -538h-106l-78 537h-2l-143 -537h-162l209 783h210l80 -521l344 521h238l-210 -783h-161z" />
    <glyph glyph-name="uni041D" unicode="&#x41d;" horiz-adv-x="839" 
d="M274 318l-85 -318h-164l209 783h164l-83 -310h324l83 310h164l-209 -783h-164l85 318h-324z" />
    <glyph glyph-name="uni041E" unicode="&#x41e;" horiz-adv-x="910" 
d="M547 795q159 0 257.5 -98t98.5 -247q0 -120 -58.5 -225t-167.5 -171t-242 -66q-154 0 -255 96t-101 250q0 122 61 227.5t169 169.5t238 64zM247 344q0 -92 55.5 -146.5t151.5 -54.5q118 0 199.5 91t81.5 205q0 93 -55 147.5t-152 54.5q-121 0 -201 -92t-80 -205z" />
    <glyph glyph-name="uni041F" unicode="&#x41f;" horiz-adv-x="833" 
d="M358 632l-169 -632h-164l209 783h645l-209 -783h-164l169 632h-317z" />
    <glyph glyph-name="uni0420" unicode="&#x420;" horiz-adv-x="706" 
d="M264 277l-74 -277h-165l209 783h231q121 0 192 -44q92 -59 92 -178q0 -133 -99 -208.5t-253 -75.5h-133zM358 631l-55 -206h112q76 0 120.5 31.5t44.5 89.5q0 39 -30 62t-85 23h-107z" />
    <glyph glyph-name="uni0421" unicode="&#x421;" horiz-adv-x="867" 
d="M439 -12q-159 0 -259 95t-100 251q0 98 38.5 184.5t102.5 146.5t149 95t176 35q84 0 150 -24.5t105.5 -65t62 -84.5t30.5 -91l-157 -50q-5 26 -15.5 49.5t-32.5 51t-64 44t-99 16.5q-112 0 -195 -86t-83 -207q0 -99 53.5 -152t156.5 -53q46 0 84 12.5t61.5 29t44 42
t29.5 42.5t19 40l151 -59q-17 -45 -48 -87.5t-79 -83.5t-121 -66t-160 -25z" />
    <glyph glyph-name="uni0422" unicode="&#x422;" horiz-adv-x="669" 
d="M184 0l168 628h-234l42 155h631l-41 -155h-234l-168 -628h-164z" />
    <glyph glyph-name="uni0423" unicode="&#x423;" horiz-adv-x="724" 
d="M138 783h173l97 -378l274 378h187l-422 -574q-163 -221 -344 -221q-49 0 -108 17l38 142q42 -13 80 -13q47 0 94 30.5t83 76.5z" />
    <glyph glyph-name="uni0424" unicode="&#x424;" horiz-adv-x="1026" 
d="M724 737q143 -7 221.5 -85.5t78.5 -204.5q0 -117 -60 -206t-159 -135t-219 -46h-43l-22 -84h-165l23 84q-144 9 -221 88t-77 203q0 117 60.5 206.5t160 134.5t219.5 45h39l19 71h164zM498 589q-104 0 -177 -59t-73 -162q0 -72 45.5 -115t124.5 -46l103 382h-23zM609 208
q104 0 176 58.5t72 161.5q0 74 -46 116t-126 45l-102 -381h26z" />
    <glyph glyph-name="uni0425" unicode="&#x425;" horiz-adv-x="753" 
d="M502 0l-114 276l-250 -276h-203l387 408l-172 375h183l108 -252l227 252h213l-374 -390l180 -393h-185z" />
    <glyph glyph-name="uni0426" unicode="&#x426;" horiz-adv-x="871" 
d="M547 152l169 631h164l-169 -631h82l-84 -316h-160l44 164h-568l210 783h164l-169 -631h317z" />
    <glyph glyph-name="uni0427" unicode="&#x427;" horiz-adv-x="767" 
d="M440 0l83 311q-135 -61 -231 -61q-87 0 -136.5 47t-49.5 134q0 35 12 83l72 269h164l-63 -240q-8 -29 -8 -55q0 -83 99 -83q87 0 181 54l86 324h164l-209 -783h-164z" />
    <glyph glyph-name="uni0428" unicode="&#x428;" horiz-adv-x="1220" 
d="M398 783l-168 -631h270l169 631h164l-169 -631h270l168 631h165l-209 -783h-1033l209 783h164z" />
    <glyph glyph-name="uni0429" unicode="&#x429;" horiz-adv-x="1257" 
d="M398 783l-168 -631h270l168 631h165l-169 -631h270l168 631h165l-169 -631h82l-84 -316h-160l44 164h-955l209 783h164z" />
    <glyph glyph-name="uni042A" unicode="&#x42a;" horiz-adv-x="847" 
d="M430 487h128q126 0 194.5 -57.5t68.5 -145.5q0 -127 -92.5 -205.5t-260.5 -78.5h-333l169 632h-186l40 151h351zM391 343l-51 -191h152q74 0 117 28.5t43 84.5q0 36 -28 57t-76 21h-157z" />
    <glyph glyph-name="uni042B" unicode="&#x42b;" horiz-adv-x="1112" 
d="M448 487q126 0 194.5 -57.5t68.5 -145.5q0 -127 -93 -205.5t-260 -78.5h-333l209 783h164l-79 -296h129zM994 783l-209 -783h165l209 783h-165zM382 152q74 0 117 28.5t43 84.5q0 36 -28 57t-76 21h-157l-51 -191h152z" />
    <glyph glyph-name="uni042C" unicode="&#x42c;" horiz-adv-x="737" 
d="M448 487q126 0 194.5 -57.5t68.5 -145.5q0 -127 -93 -205.5t-260 -78.5h-333l209 783h164l-79 -296h129zM382 152q74 0 117 28.5t43 84.5q0 36 -28 57t-76 21h-157l-51 -191h152z" />
    <glyph glyph-name="uni042D" unicode="&#x42d;" horiz-adv-x="863" 
d="M498 795q165 0 260.5 -100.5t95.5 -244.5q0 -123 -55.5 -227.5t-162 -169.5t-240.5 -65q-135 0 -232 70t-116 185l154 48q16 -74 74 -113t140 -39q83 0 150 51t98 133h-310l36 146h296q-5 73 -60.5 124t-146.5 51q-76 0 -139.5 -40.5t-94.5 -107.5l-149 57
q51 117 163.5 179.5t238.5 62.5z" />
    <glyph glyph-name="uni042E" unicode="&#x42e;" horiz-adv-x="1207" 
d="M859 795q155 0 248 -95.5t93 -245.5q0 -120 -56 -226t-161.5 -173t-235.5 -67q-146 0 -243.5 90t-101.5 242h-127l-85 -320h-165l209 783h165l-86 -321h108q43 143 163 238t275 95zM567 341q0 -93 53 -148t144 -55q113 0 191 93.5t78 208.5q0 94 -51 149t-144 55
q-116 0 -193.5 -93.5t-77.5 -209.5z" />
    <glyph glyph-name="uni042F" unicode="&#x42f;" horiz-adv-x="735" 
d="M239 320q-116 50 -116 181t98.5 206.5t261.5 75.5h299l-209 -783h-164l75 284h-93l-223 -284h-194zM467 635q-84 0 -130 -32.5t-46 -90.5q0 -41 31.5 -63.5t86.5 -22.5h113l56 209h-111z" />
    <glyph glyph-name="uni0430" unicode="&#x430;" horiz-adv-x="688" 
d="M391 0l15 57h-2q-81 -67 -156 -67q-96 0 -151.5 66.5t-55.5 161.5q0 137 89 231.5t209 94.5q116 0 170 -90l21 80h157l-141 -534h-155zM203 233q0 -49 31.5 -76t80.5 -27q65 0 111.5 52.5t46.5 118.5q0 48 -33.5 76t-82.5 28q-65 0 -109.5 -53t-44.5 -119z" />
    <glyph glyph-name="uni0431" unicode="&#x431;" horiz-adv-x="687" 
d="M332 -11q-121 0 -190.5 81t-69.5 214q0 150 56.5 264t166.5 180q57 34 201 60l158 27l15 -130l-179 -35q-47 -9 -83 -21t-75 -34.5t-68 -61.5t-46 -92l2 -1q77 85 202 85q101 0 162.5 -68.5t61.5 -168.5q0 -128 -91.5 -213.5t-222.5 -85.5zM337 130q66 0 110 45t44 112
q0 49 -32 80.5t-84 31.5q-60 0 -105 -46t-45 -110q0 -53 33.5 -83t78.5 -30z" />
    <glyph glyph-name="uni0432" unicode="&#x432;" horiz-adv-x="639" 
d="M6 0l140 534h282q93 0 138 -36.5t45 -92.5q0 -52 -34 -87t-94 -49v-1q39 -12 62.5 -39.5t23.5 -67.5q0 -72 -60.5 -116.5t-173.5 -44.5h-329zM245 323h119q43 0 66.5 15.5t23.5 43.5q0 43 -68 43h-114zM191 117h137q41 0 65 16.5t24 44.5q0 45 -71 45h-127z" />
    <glyph glyph-name="uni0433" unicode="&#x433;" horiz-adv-x="492" 
d="M6 0l140 534h399l-35 -134h-240l-106 -400h-158z" />
    <glyph glyph-name="uni0434" unicode="&#x434;" horiz-adv-x="732" 
d="M690 534l-106 -402h71l-78 -296h-147l43 164h-368l-43 -164h-146l78 297q101 0 200 277l44 124h452zM499 402h-153l-14 -42q-14 -39 -32 -77t-50.5 -83.5t-67.5 -66.5l1 -1h245z" />
    <glyph glyph-name="uni0435" unicode="&#x435;" horiz-adv-x="631" 
d="M193 224q0 -50 36 -77.5t83 -27.5q88 0 126 74l123 -57q-83 -148 -258 -148q-113 0 -187 68.5t-74 177.5q0 129 93.5 220t214.5 91q108 0 177.5 -61.5t69.5 -166.5q0 -46 -16 -93h-388zM446 327q1 4 1 11q0 41 -29.5 61.5t-72.5 20.5q-44 0 -82.5 -26.5t-51.5 -66.5h235z
" />
    <glyph glyph-name="uni0436" unicode="&#x436;" horiz-adv-x="917" 
d="M546 290h3l235 244h194l-271 -278l131 -256h-175l-121 262h-4l-68 -262h-158l69 258h-4l-229 -258h-206l276 291l-129 243h166l130 -248h3l65 248h157z" />
    <glyph glyph-name="uni0437" unicode="&#x437;" horiz-adv-x="541" 
d="M315 546q92 0 147 -42.5t55 -110.5q0 -50 -32 -85t-82 -47q66 -31 66 -103q0 -77 -68 -123.5t-180 -46.5q-86 0 -146 44.5t-62 129.5l137 22q1 -36 21 -55.5t53 -19.5q37 0 62.5 16.5t25.5 45.5q0 45 -59 45h-70l28 106h53q96 0 96 58q0 20 -16.5 32.5t-47.5 12.5
q-65 0 -97 -60l-129 40q29 69 94 105t151 36z" />
    <glyph glyph-name="uni0438" unicode="&#x438;" horiz-adv-x="660" 
d="M447 319l-283 -319h-159l142 534h155l-84 -320h1l284 320h157l-142 -534h-155l86 319h-2z" />
    <glyph glyph-name="uni0439" unicode="&#x439;" horiz-adv-x="660" 
d="M435 618q-80 0 -124.5 49.5t-46.5 133.5l93 16q16 -91 90 -91q73 0 115 91l88 -15q-25 -86 -80 -135t-135 -49zM447 319l-283 -319h-159l142 534h155l-84 -320h1l284 320h157l-142 -534h-155l86 319h-2z" />
    <glyph glyph-name="uni043A" unicode="&#x43a;" horiz-adv-x="627" 
d="M226 236l-63 -236h-157l140 534h158l-59 -225h1l240 225h208l-304 -278l175 -256h-184l-153 236h-2z" />
    <glyph glyph-name="uni043B" unicode="&#x43b;" horiz-adv-x="675" 
d="M30 -5q-43 0 -62 7l33 126q45 -3 76.5 46.5t82.5 187.5l64 172h451l-140 -534h-158l105 402h-149l-49 -134q-44 -121 -108.5 -197t-145.5 -76z" />
    <glyph glyph-name="uni043C" unicode="&#x43c;" horiz-adv-x="832" 
d="M631 365l-226 -365h-108l-42 362h-2l-95 -362h-152l140 534h209l38 -350l222 350h217l-141 -534h-153l95 365h-2z" />
    <glyph glyph-name="uni043D" unicode="&#x43d;" horiz-adv-x="646" 
d="M217 203l-53 -203h-158l140 534h158l-53 -201h183l53 201h159l-141 -534h-158l53 203h-183z" />
    <glyph glyph-name="uni043E" unicode="&#x43e;" horiz-adv-x="657" 
d="M358 545q116 0 189 -66.5t73 -180.5q0 -129 -93.5 -219.5t-222.5 -90.5q-113 0 -187.5 67.5t-74.5 180.5q0 124 92.5 216.5t223.5 92.5zM310 130q63 0 108.5 49t45.5 115q0 49 -31.5 79t-80.5 30q-66 0 -110 -49t-44 -114q0 -48 29 -79t83 -31z" />
    <glyph glyph-name="uni043F" unicode="&#x43f;" horiz-adv-x="643" 
d="M270 400l-105 -400h-159l140 534h497l-141 -534h-157l105 400h-180z" />
    <glyph glyph-name="uni0440" unicode="&#x440;" horiz-adv-x="687" 
d="M146 534h154l-15 -56l2 -1q80 67 157 67q97 0 152 -66t55 -163q1 -137 -89 -231t-211 -94q-110 0 -166 85h-2l-89 -339h-158zM220 234q0 -48 33 -76t80 -28q61 0 108.5 50t47.5 122q0 48 -30.5 75.5t-82.5 27.5q-64 0 -110 -52.5t-46 -118.5z" />
    <glyph glyph-name="uni0441" unicode="&#x441;" horiz-adv-x="628" 
d="M306 -12q-115 0 -189 66t-74 181q0 127 93.5 218.5t222.5 91.5q106 0 174 -53.5t80 -131.5l-144 -41q-6 34 -38 59t-78 25q-64 0 -109 -47.5t-45 -115.5q0 -49 29.5 -79.5t82.5 -30.5q48 0 83.5 25t51.5 57l135 -51q-32 -76 -106 -124.5t-169 -48.5z" />
    <glyph glyph-name="uni0442" unicode="&#x442;" horiz-adv-x="517" 
d="M112 0l105 400h-159l35 134h479l-36 -134h-160l-105 -400h-159z" />
    <glyph glyph-name="uni0443" unicode="&#x443;" horiz-adv-x="613" 
d="M159 7l-72 527h158l38 -350l216 350h175l-519 -797h-171z" />
    <glyph glyph-name="uni0444" unicode="&#x444;" horiz-adv-x="921" 
d="M407 -244h-157l72 276q-62 -42 -123 -42q-74 0 -117 55.5t-43 145.5q0 87 31.5 165.5t98.5 132t156 53.5q66 0 119 -49l82 312h157l-81 -309q67 46 124 46q74 0 117 -57t43 -148q0 -86 -31.5 -163.5t-98.5 -130.5t-156 -53q-74 0 -120 44zM345 407q-48 0 -83 -33.5
t-49.5 -77.5t-14.5 -88q0 -38 22 -60.5t59 -22.5q38 0 74 20l63 240q-33 22 -71 22zM580 125q70 0 108.5 62.5t38.5 133.5q0 39 -22 62.5t-59 23.5q-41 0 -73 -20l-63 -240q29 -22 70 -22z" />
    <glyph glyph-name="uni0445" unicode="&#x445;" horiz-adv-x="580" 
d="M327 0l-59 150l-135 -150h-187l263 275l-125 259h177l58 -147l130 147h187l-256 -269l123 -265h-176z" />
    <glyph glyph-name="uni0446" unicode="&#x446;" horiz-adv-x="684" 
d="M605 134l-78 -298h-147l43 164h-417l140 534h158l-105 -400h180l106 400h158l-105 -400h67z" />
    <glyph glyph-name="uni0447" unicode="&#x447;" horiz-adv-x="606" 
d="M307 0l49 182q-79 -30 -152 -30q-70 0 -110 37.5t-40 100.5q0 26 8 56l49 188h159l-41 -159q-7 -28 -7 -40q0 -52 58 -52q61 0 109 26l59 225h157l-140 -534h-158z" />
    <glyph glyph-name="uni0448" unicode="&#x448;" horiz-adv-x="964" 
d="M305 534l-106 -400h172l106 400h157l-105 -400h172l105 400h158l-140 -534h-818l140 534h159z" />
    <glyph glyph-name="uni0449" unicode="&#x449;" horiz-adv-x="1005" 
d="M927 133l-78 -298h-147l43 165h-739l140 534h158l-105 -400h172l105 400h158l-105 -400h171l106 400h158l-106 -401h69z" />
    <glyph glyph-name="uni044A" unicode="&#x44a;" horiz-adv-x="716" 
d="M476 371q93 0 146.5 -43t53.5 -113q0 -99 -72 -157t-196 -58h-291l105 399h-167l35 135h325l-43 -163h104zM307 122h95q55 0 86.5 21t31.5 61q0 24 -20 39t-55 15h-102z" />
    <glyph glyph-name="uni044B" unicode="&#x44b;" horiz-adv-x="910" 
d="M6 0l140 534h159l-43 -163h104q92 0 145.5 -43t53.5 -113q0 -99 -72 -157t-196 -58h-291zM769 0h-158l141 534h158zM232 258l-36 -136h95q55 0 86.5 21t31.5 61q0 24 -20 39t-55 15h-102z" />
    <glyph glyph-name="uni044C" unicode="&#x44c;" horiz-adv-x="606" 
d="M146 534h159l-43 -163h104q92 0 145.5 -43t53.5 -113q0 -99 -72 -157t-196 -58h-291zM196 122h95q55 0 86.5 21t31.5 61q0 24 -20 39t-55 15h-102z" />
    <glyph glyph-name="uni044D" unicode="&#x44d;" horiz-adv-x="625" 
d="M281 -12q-95 0 -168.5 46.5t-90.5 133.5l140 42q12 -41 45 -62.5t78 -21.5q40 0 75.5 25t55.5 65h-181l26 107h172q-8 37 -39 60.5t-72 23.5q-44 0 -81.5 -21.5t-54.5 -59.5l-134 42q27 84 105 130.5t171 46.5q118 0 188.5 -67.5t70.5 -180.5q0 -130 -90.5 -219.5
t-215.5 -89.5z" />
    <glyph glyph-name="uni044E" unicode="&#x44e;" horiz-adv-x="904" 
d="M623 545q118 0 181 -68t63 -175q0 -125 -88.5 -219.5t-217.5 -94.5q-105 0 -173 56t-73 159h-98l-53 -203h-158l140 534h159l-54 -203h78q28 82 108 148t186 66zM566 130q64 0 106 49t42 117q0 48 -27 78.5t-77 30.5q-63 0 -104.5 -51t-41.5 -117q0 -49 26.5 -78
t75.5 -29z" />
    <glyph glyph-name="uni044F" unicode="&#x44f;" horiz-adv-x="638" 
d="M340 0l42 163h-79l-139 -163h-186l169 191q-82 35 -82 132q0 96 72 153.5t190 57.5h311l-141 -534h-157zM448 413h-106q-56 0 -87 -21.5t-31 -61.5q0 -57 78 -57h110z" />
    <glyph glyph-name="uni0451" unicode="&#x451;" horiz-adv-x="631" 
d="M286 778q32 0 51.5 -20t19.5 -50q0 -36 -26.5 -63.5t-66.5 -27.5q-31 0 -51.5 19t-20.5 50q0 37 27.5 64.5t66.5 27.5zM512 778q32 0 51.5 -20t19.5 -50q0 -36 -27 -63.5t-67 -27.5q-31 0 -51 19t-20 50q0 37 27 64.5t67 27.5zM581 224q16 47 16 93q0 105 -69.5 166.5
t-177.5 61.5q-121 0 -214.5 -91t-93.5 -220q0 -109 74 -177.5t187 -68.5q175 0 258 148l-123 57q-38 -74 -126 -74q-47 0 -83 27.5t-36 77.5h388zM211 327q13 40 51.5 66.5t82.5 26.5q43 0 72.5 -20.5t29.5 -61.5q0 -7 -1 -11h-235z" />
    <glyph glyph-name="uni0452" unicode="&#x452;" horiz-adv-x="621" 
d="M511 725l-28 -105h-156l-37 -140q68 64 148 64q72 0 115 -43.5t43 -113.5q0 -31 -19 -104l-89 -342q-25 -95 -93.5 -149.5t-156.5 -54.5q-48 0 -81 11l33 127q7 -1 22 -1q46 0 80.5 29t49.5 83l79 302q7 23 7 47q0 65 -74 65q-85 0 -113 -105l-77 -295h-158l162 620h-66
l28 105h66l24 89h158l-24 -89h157z" />
    <glyph glyph-name="uni0453" unicode="&#x453;" horiz-adv-x="492" 
d="M441 811h191l-215 -188h-137zM6 0l140 534h399l-35 -134h-240l-106 -400h-158z" />
    <glyph glyph-name="uni0454" unicode="&#x454;" horiz-adv-x="627" 
d="M472 323q-8 35 -40 59.5t-78 24.5q-44 0 -82.5 -23t-59.5 -61h182l-27 -107h-170q7 -41 36.5 -65.5t78.5 -24.5q48 0 83.5 25t51.5 57l133 -50q-32 -75 -107.5 -122.5t-169.5 -47.5q-115 0 -188 66.5t-73 179.5q0 129 92 220t221 91q106 0 175 -52.5t82 -129.5z" />
    <glyph glyph-name="uni0455" unicode="&#x455;" horiz-adv-x="522" 
d="M231 110q27 0 47.5 13t20.5 35q0 28 -36 43l-59 23q-119 47 -119 139q0 79 64.5 131.5t149.5 52.5q80 0 143.5 -47.5t63.5 -124.5l-139 -15q0 30 -21 48.5t-49 18.5q-24 0 -43 -12.5t-19 -33.5q0 -28 34 -41l55 -21q61 -24 96 -57.5t35 -88.5q0 -83 -67.5 -134
t-159.5 -51t-156.5 46t-64.5 129v4l139 22q-1 -37 24 -58t61 -21z" />
    <glyph glyph-name="uni0456" unicode="&#x456;" horiz-adv-x="305" 
d="M287 817q37 0 61.5 -23t24.5 -60q1 -46 -32 -78.5t-80 -32.5q-37 0 -61.5 23.5t-24.5 60.5q0 46 33 78t79 32zM5 0l141 534h159l-141 -534h-159z" />
    <glyph glyph-name="uni0457" unicode="&#x457;" horiz-adv-x="305" 
d="M165 778q32 0 51.5 -20t19.5 -50q0 -36 -27 -63.5t-67 -27.5q-31 0 -51 19t-20 50q0 37 27 64.5t67 27.5zM386 778q32 0 51.5 -20t19.5 -50q0 -36 -27 -63.5t-67 -27.5q-31 0 -51 19t-20 50q0 37 27.5 64.5t66.5 27.5zM146 534h159l-141 -534h-159z" />
    <glyph glyph-name="uni0458" unicode="&#x458;" horiz-adv-x="313" 
d="M295 817q37 0 61.5 -23t24.5 -60q0 -46 -32.5 -78.5t-79.5 -32.5q-37 0 -61.5 23.5t-24.5 60.5q0 46 33 78t79 32zM147 -95q-21 -84 -76 -126.5t-136 -42.5q-72 0 -107 23l32 124q26 -11 52 -11q67 0 87 72l155 590h158z" />
    <glyph glyph-name="uni0459" unicode="&#x459;" horiz-adv-x="977" 
d="M30 -5q-43 0 -62 7l33 126q45 -3 76.5 46.5t82.5 187.5l64 172h452l-43 -163h104q92 0 146 -43.5t54 -112.5q0 -99 -72.5 -157t-196.5 -58h-291l106 402h-150l-49 -134q-44 -121 -108.5 -197t-145.5 -76zM603 258l-36 -136h95q55 0 86.5 21t31.5 61q0 24 -20 39t-54 15
h-103z" />
    <glyph glyph-name="uni045A" unicode="&#x45a;" horiz-adv-x="947" 
d="M350 0l62 234h-187l-61 -234h-158l140 534h158l-45 -170h185l45 170h157l-44 -170h102q97 0 150 -42.5t53 -110.5q0 -99 -74 -155t-197 -56h-286zM575 263l-39 -145h77q65 0 100.5 22t35.5 63q0 28 -25.5 44t-65.5 16h-83z" />
    <glyph glyph-name="uni045B" unicode="&#x45b;" horiz-adv-x="637" 
d="M511 725l-28 -105h-157l-36 -140q68 64 148 64q72 0 115 -43.5t43 -113.5q0 -31 -19 -104l-74 -283h-158l76 288q7 23 7 47q0 32 -20 48.5t-54 16.5q-46 0 -74 -30t-39 -75l-77 -295h-158l162 620h-66l28 105h66l23 89h158l-23 -89h157z" />
    <glyph glyph-name="uni045C" unicode="&#x45c;" horiz-adv-x="627" 
d="M489 811h190l-214 -188h-138zM226 236l-63 -236h-157l140 534h158l-59 -225h1l240 225h208l-304 -278l175 -256h-184l-153 236h-2z" />
    <glyph glyph-name="uni045E" unicode="&#x45e;" horiz-adv-x="613" 
d="M408 618q-80 0 -125 49.5t-47 133.5l94 16q16 -91 89 -91q75 0 115 91l89 -15q-26 -86 -80.5 -135t-134.5 -49zM159 7l-72 527h158l38 -350l216 350h175l-519 -797h-171z" />
    <glyph glyph-name="uni045F" unicode="&#x45f;" horiz-adv-x="644" 
d="M330 0l-43 -164h-147l43 164h-177l140 534h158l-105 -399h182l105 399h158l-141 -534h-173z" />
    <glyph glyph-name="uni0490" unicode="&#x490;" horiz-adv-x="606" 
d="M25 0l209 783h332l43 162h160l-84 -313h-327l-169 -632h-164z" />
    <glyph glyph-name="uni0491" unicode="&#x491;" horiz-adv-x="492" 
d="M6 0l140 534h252l44 167h148l-80 -301h-240l-106 -400h-158z" />
    <glyph glyph-name="uni0496" unicode="&#x496;" horiz-adv-x="1140" 
d="M887 0h-28l-185 380h-4l-102 -380h-162l101 380h-5l-350 -380h-221l407 419l-187 364h173l188 -367l5 1l98 366h162l-98 -367h6l354 367h202l-395 -403l118 -228h123l-85 -316h-159z" />
    <glyph glyph-name="uni0497" unicode="&#x497;" horiz-adv-x="941" 
d="M693 0h-30l-121 262h-4l-68 -262h-158l69 258h-4l-229 -258h-206l276 291l-129 243h166l130 -248h3l65 248h157l-64 -244h3l235 244h194l-271 -278l63 -122h105l-78 -298h-147z" />
    <glyph glyph-name="uni0498" unicode="&#x498;" horiz-adv-x="669" 
d="M428 795q116 0 183.5 -61t67.5 -150q0 -75 -48 -126.5t-123 -68.5v-1q47 -22 74.5 -62.5t27.5 -92.5q0 -89 -67 -155t-177 -84l-43 -158h-159l44 165q-79 24 -130.5 85t-52.5 149l162 32q-3 -58 30 -93.5t89 -35.5q53 0 95.5 28.5t42.5 74.5q0 36 -24.5 58t-73.5 22h-94
l37 149h79q68 0 107 28t39 70q0 36 -27.5 57.5t-71.5 21.5q-105 0 -149 -102l-147 57q39 93 120.5 143t188.5 50z" />
    <glyph glyph-name="uni0499" unicode="&#x499;" horiz-adv-x="541" 
d="M316 546q92 0 147 -42.5t55 -110.5q0 -50 -32 -85t-82 -47q66 -31 66 -103q0 -62 -45 -105t-124 -58l-42 -159h-147l42 160q-61 15 -99.5 57t-40.5 109l137 22q1 -36 21 -55.5t53 -19.5q37 0 62.5 16.5t25.5 45.5q0 45 -59 45h-70l28 106h53q96 0 96 58q0 20 -16.5 32.5
t-47.5 12.5q-65 0 -97 -60l-128 40q29 69 93 105t151 36z" />
    <glyph glyph-name="uni049A" unicode="&#x49a;" horiz-adv-x="770" 
d="M520 0h-30l-199 380l-102 -380h-164l209 783h164l-87 -329l340 329h217l-411 -390l134 -241h128l-84 -316h-160z" />
    <glyph glyph-name="uni049B" unicode="&#x49b;" horiz-adv-x="656" 
d="M421 0h-40l-153 236h-2l-63 -236h-157l140 534h158l-59 -225h1l240 225h208l-304 -278l83 -122h130l-78 -298h-148z" />
    <glyph glyph-name="uni04A2" unicode="&#x4a2;" horiz-adv-x="876" 
d="M600 0h-87l85 318h-324l-85 -318h-164l209 783h164l-83 -310h324l83 310h164l-169 -631h82l-84 -316h-160z" />
    <glyph glyph-name="uni04A3" unicode="&#x4a3;" horiz-adv-x="687" 
d="M426 0h-79l53 203h-183l-53 -203h-158l140 534h158l-53 -201h183l53 201h159l-106 -400h68l-78 -298h-147z" />
    <glyph glyph-name="uni04AA" unicode="&#x4aa;" horiz-adv-x="867" 
d="M360 -5q-127 23 -203.5 113.5t-76.5 225.5q0 98 38.5 184.5t102.5 146.5t149 95t176 35q84 0 150 -24.5t105.5 -65t62 -84.5t30.5 -91l-157 -50q-5 26 -15.5 49.5t-32.5 51t-64 44t-99 16.5q-112 0 -195 -86t-83 -207q0 -99 53.5 -152t156.5 -53q46 0 84 12.5t61.5 29
t44 42t29.5 42.5t19 40l151 -59q-34 -88 -115.5 -162t-211.5 -94l-43 -158h-160z" />
    <glyph glyph-name="uni04AB" unicode="&#x4ab;" horiz-adv-x="628" 
d="M229 -3q-85 20 -136 82t-51 156q0 127 93.5 218.5t222.5 91.5q106 0 174 -53.5t80 -131.5l-143 -41q-6 34 -38 59t-78 25q-64 0 -109.5 -47.5t-45.5 -115.5q0 -49 30 -79.5t82 -30.5q48 0 84 25t51 57l136 -51q-26 -62 -80 -105.5t-126 -59.5l-42 -160h-147z" />
    <glyph glyph-name="uni04AC" unicode="&#x4ac;" horiz-adv-x="674" 
d="M271 0h-87l168 628h-234l42 155h631l-41 -155h-234l-127 -476h82l-85 -316h-159z" />
    <glyph glyph-name="uni04AD" unicode="&#x4ad;" horiz-adv-x="523" 
d="M192 0h-80l105 400h-159l35 134h479l-36 -134h-160l-70 -266h69l-79 -298h-147z" />
    <glyph glyph-name="uni04B2" unicode="&#x4b2;" horiz-adv-x="784" 
d="M531 0h-29l-114 276l-250 -276h-203l387 408l-172 375h183l108 -252l227 252h213l-374 -390l111 -241h113l-84 -316h-160z" />
    <glyph glyph-name="uni04B3" unicode="&#x4b3;" horiz-adv-x="605" 
d="M359 0h-32l-59 150l-135 -150h-187l263 275l-125 259h177l58 -147l130 147h187l-256 -269l61 -131h100l-79 -298h-147z" />
    <glyph glyph-name="uni04B6" unicode="&#x4b6;" horiz-adv-x="805" 
d="M527 0h-87l83 311q-135 -61 -231 -61q-87 0 -136.5 47t-49.5 134q0 35 12 83l72 269h164l-63 -240q-8 -29 -8 -55q0 -83 99 -83q87 0 181 54l86 324h164l-168 -631h83l-85 -316h-160z" />
    <glyph glyph-name="uni04B7" unicode="&#x4b7;" horiz-adv-x="646" 
d="M386 0h-79l49 182q-79 -30 -152 -30q-70 0 -110 37.5t-40 100.5q0 26 8 56l49 188h159l-41 -159q-7 -28 -7 -40q0 -52 58 -52q61 0 109 26l59 225h157l-105 -400h68l-78 -298h-147z" />
    <glyph glyph-name="uni04C0" unicode="&#x4c0;" horiz-adv-x="353" 
d="M399 783l-209 -783h-165l209 783h165z" />
    <glyph glyph-name="uni04C1" unicode="&#x4c1;" horiz-adv-x="1109" 
d="M728 856q-80 0 -125 49.5t-47 134.5l93 16q18 -92 90 -92q74 0 115 92l88 -16q-25 -86 -79.5 -135t-134.5 -49zM152 0h-221l407 419l-187 364h173l188 -367l5 1l98 366h162l-98 -367h6l354 367h202l-395 -403l197 -380h-184l-185 380h-4l-102 -380h-162l101 380h-5z" />
    <glyph glyph-name="uni04C2" unicode="&#x4c2;" horiz-adv-x="917" 
d="M560 618q-80 0 -124.5 49.5t-46.5 133.5l93 16q16 -91 90 -91q73 0 115 91l88 -15q-25 -86 -80 -135t-135 -49zM546 290h3l235 244h194l-271 -278l131 -256h-175l-121 262h-4l-68 -262h-158l69 258h-4l-229 -258h-206l276 291l-129 243h166l130 -248h3l65 248h157z" />
    <glyph glyph-name="uni04CF" unicode="&#x4cf;" horiz-adv-x="306" 
d="M147 534h159l-141 -534h-159z" />
    <glyph glyph-name="uni04D0" unicode="&#x4d0;" horiz-adv-x="798" 
d="M555 856q-80 0 -124.5 49.5t-46.5 134.5l93 16q16 -92 90 -92t115 92l88 -16q-25 -86 -80 -135t-135 -49zM218 168l-100 -168h-174l480 783h200l121 -783h-166l-25 168h-336zM533 316l-41 309l-186 -309h227z" />
    <glyph glyph-name="uni04D1" unicode="&#x4d1;" horiz-adv-x="688" 
d="M403 618q-80 0 -124.5 49.5t-46.5 133.5l93 16q16 -91 90 -91q73 0 115 91l88 -15q-25 -86 -80 -135t-135 -49zM391 0l15 57h-2q-81 -67 -156 -67q-96 0 -151.5 66.5t-55.5 161.5q0 137 89 231.5t209 94.5q116 0 170 -90l21 80h157l-141 -534h-155zM203 233
q0 -49 31.5 -76t80.5 -27q65 0 111.5 52.5t46.5 118.5q0 48 -33.5 76t-82.5 28q-65 0 -109.5 -53t-44.5 -119z" />
    <glyph glyph-name="uni04D2" unicode="&#x4d2;" horiz-adv-x="798" 
d="M440 1007q32 0 52 -19.5t20 -49.5q0 -37 -27 -64.5t-67 -27.5q-31 0 -51 19t-20 50q0 37 27 64.5t66 27.5zM676 1007q32 0 51.5 -19.5t19.5 -49.5q0 -37 -26.5 -64.5t-67.5 -27.5q-30 0 -50 19t-20 50q0 37 27 64.5t66 27.5zM218 168l-100 -168h-174l480 783h200
l121 -783h-166l-25 168h-336zM533 316l-41 309l-186 -309h227z" />
    <glyph glyph-name="uni04D3" unicode="&#x4d3;" horiz-adv-x="688" 
d="M325 778q32 0 51.5 -20t19.5 -50q0 -36 -27 -63.5t-67 -27.5q-31 0 -51 19t-20 50q0 37 27 64.5t67 27.5zM550 778q32 0 52 -20t20 -50q0 -36 -27 -63.5t-67 -27.5q-31 0 -51 19t-20 50q0 37 27 64.5t66 27.5zM391 0l15 57h-2q-81 -67 -156 -67q-96 0 -151.5 66.5
t-55.5 161.5q0 137 89 231.5t209 94.5q116 0 170 -90l21 80h157l-141 -534h-155zM203 233q0 -49 31.5 -76t80.5 -27q65 0 111.5 52.5t46.5 118.5q0 48 -33.5 76t-82.5 28q-65 0 -109.5 -53t-44.5 -119z" />
    <glyph glyph-name="uni04D4" unicode="&#x4d4;" horiz-adv-x="1072" 
d="M-78 0l612 783h619l-40 -150h-345l-43 -162h308l-40 -150h-308l-46 -171h348l-40 -150h-510l41 156h-248l-119 -156h-189zM345 307h174l87 328h-9z" />
    <glyph glyph-name="uni04D5" unicode="&#x4d5;" horiz-adv-x="957" 
d="M519 224q0 -50 36 -77.5t83 -27.5q44 0 76.5 20.5t49.5 53.5l122 -57q-40 -73 -107 -110.5t-151 -37.5q-138 0 -207 100q-54 -53 -109.5 -75.5t-129.5 -22.5h-4q-73 0 -118 40.5t-45 99.5q0 84 64 127.5t151 48.5l113 6q58 4 58 53q0 24 -20 40t-57 16q-39 0 -71 -22
t-43 -57l-129 39q19 65 89 115t177 50q109 0 162 -65q77 64 166 64q108 0 178 -61.5t70 -166.5q0 -42 -16 -93h-388zM773 327l1 10q0 41 -30 62t-74 21q-43 0 -82 -26.5t-51 -66.5h236zM224 104q50 0 89 30t49 79l2 9l-93 -6q-39 -2 -69.5 -17t-30.5 -47q0 -21 15.5 -34.5
t37.5 -13.5z" />
    <glyph glyph-name="uni04D6" unicode="&#x4d6;" horiz-adv-x="665" 
d="M518 856q-80 0 -125 49.5t-47 134.5l93 16q18 -92 90 -92q76 0 115 92l88 -16q-25 -86 -79.5 -135t-134.5 -49zM235 783h510l-40 -150h-348l-43 -163h311l-40 -149h-311l-46 -171h351l-40 -150h-514z" />
    <glyph glyph-name="uni04D7" unicode="&#x4d7;" horiz-adv-x="631" 
d="M406 618q-80 0 -125 49.5t-47 133.5l94 16q16 -91 89 -91q75 0 115 91l89 -15q-26 -86 -80.5 -135t-134.5 -49zM581 224q16 47 16 93q0 105 -69.5 166.5t-177.5 61.5q-121 0 -214.5 -91t-93.5 -220q0 -109 74 -177.5t187 -68.5q175 0 258 148l-123 57q-38 -74 -126 -74
q-47 0 -83 27.5t-36 77.5h388zM211 327q13 40 51.5 66.5t82.5 26.5q43 0 72.5 -20.5t29.5 -61.5q0 -7 -1 -11h-235z" />
    <glyph glyph-name="uni04DC" unicode="&#x4dc;" horiz-adv-x="1109" 
d="M625 1007q32 0 51.5 -19.5t19.5 -49.5q0 -37 -26.5 -64.5t-67.5 -27.5q-31 0 -51 19t-20 50q0 37 27 64.5t67 27.5zM846 1007q32 0 51.5 -19.5t19.5 -49.5q0 -37 -26.5 -64.5t-67.5 -27.5q-31 0 -51 19t-20 50q0 37 27 64.5t67 27.5zM152 0h-221l407 419l-187 364h173
l188 -367l5 1l98 366h162l-98 -367h6l354 367h202l-395 -403l197 -380h-184l-185 380h-4l-102 -380h-162l101 380h-5z" />
    <glyph glyph-name="uni04DD" unicode="&#x4dd;" horiz-adv-x="917" 
d="M463 778q32 0 51.5 -20t19.5 -50q0 -37 -26.5 -64t-67.5 -27q-31 0 -51 19t-20 50q0 37 27.5 64.5t66.5 27.5zM688 778q32 0 52 -20t20 -50q0 -36 -27 -63.5t-67 -27.5q-31 0 -51 19t-20 50q0 37 27 64.5t66 27.5zM546 290h3l235 244h194l-271 -278l131 -256h-175
l-121 262h-4l-68 -262h-158l69 258h-4l-229 -258h-206l276 291l-129 243h166l130 -248h3l65 248h157z" />
    <glyph glyph-name="uni04DE" unicode="&#x4de;" horiz-adv-x="668" 
d="M367 1007q32 0 51.5 -19.5t19.5 -49.5q0 -37 -27 -64.5t-67 -27.5q-31 0 -51 19t-20 50q0 37 27 64.5t67 27.5zM602 1007q32 0 51.5 -19.5t19.5 -49.5q0 -37 -26.5 -64.5t-66.5 -27.5q-31 0 -51 19t-20 50q0 37 27 64.5t66 27.5zM428 795q116 0 183.5 -61t67.5 -150
q0 -75 -48 -126.5t-123 -68.5v-1q47 -22 74.5 -62.5t27.5 -92.5q0 -104 -88.5 -174.5t-227.5 -70.5q-107 0 -187.5 67.5t-81.5 179.5l162 32q-3 -58 30 -93.5t89 -35.5q53 0 95.5 28.5t42.5 74.5q0 36 -24.5 58t-73.5 22h-94l37 149h79q68 0 107 28t39 70q0 36 -27.5 57.5
t-71.5 21.5q-105 0 -149 -102l-147 57q39 93 120.5 143t188.5 50z" />
    <glyph glyph-name="uni04DF" unicode="&#x4df;" horiz-adv-x="541" 
d="M261 778q32 0 52 -20t20 -50q0 -36 -27 -63.5t-67 -27.5q-31 0 -51.5 19t-20.5 50q0 37 27.5 64.5t66.5 27.5zM487 778q32 0 51.5 -20t19.5 -50q0 -37 -26.5 -64t-67.5 -27q-31 0 -51 19t-20 50q0 37 27.5 64.5t66.5 27.5zM315 546q92 0 147 -42.5t55 -110.5
q0 -50 -32 -85t-82 -47q66 -31 66 -103q0 -77 -68 -123.5t-180 -46.5q-86 0 -146 44.5t-62 129.5l137 22q1 -36 21 -55.5t53 -19.5q37 0 62.5 16.5t25.5 45.5q0 45 -59 45h-70l28 106h53q96 0 96 58q0 20 -16.5 32.5t-47.5 12.5q-65 0 -97 -60l-129 40q29 69 94 105t151 36z
" />
    <glyph glyph-name="uni04E2" unicode="&#x4e2;" horiz-adv-x="865" 
d="M799 984l-31 -116h-364l31 116h364zM397 783l-145 -542l469 542h191l-209 -783h-162l146 548l-470 -548h-192l209 783h163z" />
    <glyph glyph-name="uni04E3" unicode="&#x4e3;" horiz-adv-x="660" 
d="M641 745l-32 -117h-364l31 117h365zM447 319l-283 -319h-159l142 534h155l-84 -320h1l284 320h157l-142 -534h-155l86 319h-2z" />
    <glyph glyph-name="uni04E4" unicode="&#x4e4;" horiz-adv-x="865" 
d="M490 1007q32 0 52 -19.5t20 -49.5q0 -37 -27 -64.5t-67 -27.5q-31 0 -51 19t-20 50q0 37 27 64.5t66 27.5zM726 1007q32 0 51.5 -19.5t19.5 -49.5q0 -37 -26.5 -64.5t-67.5 -27.5q-31 0 -51 19t-20 50q0 37 27 64.5t67 27.5zM397 783l-145 -542l469 542h191l-209 -783
h-162l146 548l-470 -548h-192l209 783h163z" />
    <glyph glyph-name="uni04E5" unicode="&#x4e5;" horiz-adv-x="660" 
d="M333 778q32 0 52 -20t20 -50q0 -36 -27 -63.5t-67 -27.5q-31 0 -51 19t-20 50q0 37 27 64.5t66 27.5zM559 778q32 0 51.5 -20t19.5 -50q0 -36 -26.5 -63.5t-66.5 -27.5q-31 0 -51.5 19t-20.5 50q0 37 27.5 64.5t66.5 27.5zM447 319l-283 -319h-159l142 534h155l-84 -320
h1l284 320h157l-142 -534h-155l86 319h-2z" />
    <glyph glyph-name="uni04E6" unicode="&#x4e6;" horiz-adv-x="910" 
d="M478 1007q32 0 51.5 -19.5t19.5 -49.5q0 -37 -26.5 -64.5t-66.5 -27.5q-31 0 -51 19t-20 50q0 37 27 64.5t66 27.5zM713 1007q32 0 52 -19.5t20 -49.5q0 -37 -26.5 -64.5t-67.5 -27.5q-31 0 -51 19t-20 50q0 37 27 64.5t66 27.5zM547 795q159 0 257.5 -98t98.5 -247
q0 -120 -58.5 -225t-167.5 -171t-242 -66q-154 0 -255 96t-101 250q0 122 61 227.5t169 169.5t238 64zM247 344q0 -92 55.5 -146.5t151.5 -54.5q118 0 199.5 91t81.5 205q0 93 -55 147.5t-152 54.5q-121 0 -201 -92t-80 -205z" />
    <glyph glyph-name="uni04E7" unicode="&#x4e7;" horiz-adv-x="657" 
d="M299 778q32 0 51.5 -20t19.5 -50q0 -37 -26.5 -64t-67.5 -27q-31 0 -51 19t-20 50q0 37 27.5 64.5t66.5 27.5zM524 778q32 0 52 -20t20 -50q0 -36 -27 -63.5t-67 -27.5q-31 0 -51 19t-20 50q0 37 27 64.5t66 27.5zM358 545q-131 0 -223.5 -92.5t-92.5 -216.5
q0 -113 74.5 -180.5t187.5 -67.5q129 0 222.5 90.5t93.5 219.5q0 114 -73 180.5t-189 66.5zM310 130q-54 0 -83 31t-29 79q0 65 44 114t110 49q49 0 80.5 -30t31.5 -79q0 -66 -45.5 -115t-108.5 -49z" />
    <glyph glyph-name="uni04E8" unicode="&#x4e8;" horiz-adv-x="910" 
d="M547 795q159 0 257.5 -98t98.5 -247q0 -120 -58.5 -225t-167.5 -171t-242 -66q-154 0 -255 96t-101 250q0 122 61 227.5t169 169.5t238 64zM742 462q-4 84 -61.5 135t-152.5 51q-91 0 -163.5 -54t-101.5 -132h479zM239 324q2 -85 60.5 -137t153.5 -52q90 0 163 54
t102 135h-479z" />
    <glyph glyph-name="uni04E9" unicode="&#x4e9;" horiz-adv-x="657" 
d="M358 545q116 0 189 -66.5t73 -180.5q0 -129 -93.5 -219.5t-222.5 -90.5q-113 0 -187.5 67.5t-74.5 180.5q0 124 92.5 216.5t223.5 92.5zM469 316q-4 43 -36.5 71t-78.5 28q-48 0 -88.5 -28t-56.5 -71h260zM193 215q6 -41 36 -68t79 -27q46 0 86 27t58 68h-259z" />
    <glyph glyph-name="uni04EA" unicode="&#x4ea;" horiz-adv-x="910" 
d="M478 1007q32 0 51.5 -19.5t19.5 -49.5q0 -37 -26.5 -64.5t-66.5 -27.5q-31 0 -51 19t-20 50q0 37 27 64.5t66 27.5zM713 1007q32 0 52 -19.5t20 -49.5q0 -37 -26.5 -64.5t-67.5 -27.5q-31 0 -51 19t-20 50q0 37 27 64.5t66 27.5zM547 795q159 0 257.5 -98t98.5 -247
q0 -120 -58.5 -225t-167.5 -171t-242 -66q-154 0 -255 96t-101 250q0 122 61 227.5t169 169.5t238 64zM742 462q-4 84 -61.5 135t-152.5 51q-91 0 -163.5 -54t-101.5 -132h479zM239 324q2 -85 60.5 -137t153.5 -52q90 0 163 54t102 135h-479z" />
    <glyph glyph-name="uni04EB" unicode="&#x4eb;" horiz-adv-x="657" 
d="M300 778q32 0 51.5 -20t19.5 -50q0 -37 -26.5 -64t-67.5 -27q-31 0 -51 19t-20 50q0 37 27.5 64.5t66.5 27.5zM525 778q32 0 52 -20t20 -50q0 -36 -27 -63.5t-67 -27.5q-31 0 -51 19t-20 50q0 37 27 64.5t66 27.5zM358 545q-131 0 -223.5 -92.5t-92.5 -216.5
q0 -113 74.5 -180.5t187.5 -67.5q129 0 222.5 90.5t93.5 219.5q0 114 -73 180.5t-189 66.5zM209 316q16 43 56.5 71t88.5 28q46 0 78.5 -28t36.5 -71h-260zM452 215q-18 -41 -58 -68t-86 -27q-49 0 -79 27t-36 68h259z" />
    <glyph glyph-name="uni04EC" unicode="&#x4ec;" horiz-adv-x="863" 
d="M418 1007q32 0 51.5 -19.5t19.5 -49.5q0 -37 -26.5 -64.5t-66.5 -27.5q-31 0 -51 19t-20 50q0 37 27 64.5t66 27.5zM653 1007q32 0 52 -19.5t20 -49.5q0 -37 -26.5 -64.5t-67.5 -27.5q-31 0 -51 19t-20 50q0 37 27 64.5t66 27.5zM498 795q165 0 260.5 -100.5t95.5 -244.5
q0 -123 -55.5 -227.5t-162 -169.5t-240.5 -65q-135 0 -232 70t-116 185l154 48q16 -74 74 -113t140 -39q83 0 150 51t98 133h-310l36 146h296q-5 73 -60.5 124t-146.5 51q-76 0 -139.5 -40.5t-94.5 -107.5l-149 57q51 117 163.5 179.5t238.5 62.5z" />
    <glyph glyph-name="uni04ED" unicode="&#x4ed;" horiz-adv-x="625" 
d="M235 617q-31 0 -51 19t-20 50q0 37 27.5 64.5t66.5 27.5q32 0 51.5 -20t19.5 -50q0 -37 -26.5 -64t-67.5 -27zM461 617q-31 0 -51 19t-20 50q0 37 27 64.5t66 27.5q32 0 52 -20t20 -50q0 -36 -27 -63.5t-67 -27.5zM328 545q118 0 188.5 -67.5t70.5 -180.5
q0 -130 -90.5 -219.5t-215.5 -89.5q-95 0 -168.5 46.5t-90.5 133.5l140 42q12 -41 45 -62.5t78 -21.5q40 0 75.5 25t55.5 65h-181l26 107h172q-8 37 -39 60.5t-72 23.5q-44 0 -81.5 -21.5t-54.5 -59.5l-134 42q27 84 105 130.5t171 46.5z" />
    <glyph glyph-name="uni04EE" unicode="&#x4ee;" horiz-adv-x="724" 
d="M744 984l-31 -116h-364l31 116h364zM408 405l274 378h187l-422 -574q-163 -221 -344 -221q-49 0 -108 17l38 142q42 -13 80 -13q47 0 94 30.5t83 76.5l-152 542h173z" />
    <glyph glyph-name="uni04EF" unicode="&#x4ef;" horiz-adv-x="613" 
d="M602 745l-32 -117h-364l31 117h365zM159 7l-72 527h158l38 -350l216 350h175l-519 -797h-171z" />
    <glyph glyph-name="uni04F0" unicode="&#x4f0;" horiz-adv-x="724" 
d="M425 1007q32 0 52 -19.5t20 -49.5q0 -37 -27 -64.5t-67 -27.5q-31 0 -51 19t-20 50q0 37 27 64.5t66 27.5zM661 1007q32 0 51.5 -19.5t19.5 -49.5q0 -37 -26.5 -64.5t-67.5 -27.5q-31 0 -51 19t-20 50q0 37 27 64.5t67 27.5zM408 405l274 378h187l-422 -574
q-163 -221 -344 -221q-49 0 -108 17l38 142q42 -13 80 -13q47 0 94 30.5t83 76.5l-152 542h173z" />
    <glyph glyph-name="uni04F1" unicode="&#x4f1;" horiz-adv-x="613" 
d="M324 778q32 0 52 -20t20 -50q0 -36 -27 -63.5t-67 -27.5q-31 0 -51.5 19t-20.5 50q0 37 27.5 64.5t66.5 27.5zM550 778q32 0 51.5 -20t19.5 -50q0 -37 -26.5 -64t-67.5 -27q-31 0 -51 19t-20 50q0 37 27.5 64.5t66.5 27.5zM159 7l-72 527h158l38 -350l216 350h175
l-519 -797h-171z" />
    <glyph glyph-name="uni04F2" unicode="&#x4f2;" horiz-adv-x="724" 
d="M490 1040h188l-214 -188h-135zM723 1040h188l-215 -188h-135zM408 405l274 378h187l-422 -574q-163 -221 -344 -221q-49 0 -108 17l38 142q42 -13 80 -13q47 0 94 30.5t83 76.5l-152 542h173z" />
    <glyph glyph-name="uni04F3" unicode="&#x4f3;" horiz-adv-x="613" 
d="M363 811h188l-214 -188h-135zM596 811h188l-215 -188h-135zM159 7l-72 527h158l38 -350l216 350h175l-519 -797h-171z" />
    <glyph glyph-name="uni04F4" unicode="&#x4f4;" horiz-adv-x="767" 
d="M436 1007q32 0 51.5 -19.5t19.5 -49.5q0 -37 -26.5 -64.5t-66.5 -27.5q-31 0 -51 19t-20 50q0 37 27 64.5t66 27.5zM671 1007q32 0 52 -19.5t20 -49.5q0 -37 -26.5 -64.5t-67.5 -27.5q-31 0 -51 19t-20 50q0 37 27 64.5t66 27.5zM523 311q-135 -61 -231 -61
q-87 0 -136.5 47t-49.5 134q0 35 12 83l72 269h164l-63 -240q-8 -29 -8 -55q0 -83 99 -83q87 0 181 54l86 324h164l-209 -783h-164z" />
    <glyph glyph-name="uni04F5" unicode="&#x4f5;" horiz-adv-x="606" 
d="M291 778q31 0 51 -20t20 -50q0 -36 -27 -63.5t-67 -27.5q-31 0 -51 19t-20 50q0 37 27 64.5t67 27.5zM516 778q32 0 51.5 -20t19.5 -50q0 -36 -26.5 -63.5t-66.5 -27.5q-31 0 -51.5 19t-20.5 50q0 37 27.5 64.5t66.5 27.5zM356 182q-79 -30 -152 -30q-70 0 -110 37.5
t-40 100.5q0 26 8 56l49 188h159l-41 -159q-7 -28 -7 -40q0 -52 58 -52q61 0 109 26l59 225h157l-140 -534h-158z" />
    <glyph glyph-name="uni04F8" unicode="&#x4f8;" horiz-adv-x="1112" 
d="M620 1007q32 0 51.5 -19.5t19.5 -49.5q0 -37 -27 -64.5t-67 -27.5q-31 0 -51 19t-20 50q0 37 27 64.5t67 27.5zM855 1007q32 0 51.5 -19.5t19.5 -49.5q0 -37 -26.5 -64.5t-66.5 -27.5q-31 0 -51 19t-20 50q0 37 27 64.5t66 27.5zM448 487q126 0 194.5 -57.5t68.5 -145.5
q0 -127 -93 -205.5t-260 -78.5h-333l209 783h164l-79 -296h129zM994 783l-209 -783h165l209 783h-165zM382 152q74 0 117 28.5t43 84.5q0 36 -28 57t-76 21h-157l-51 -191h152z" />
    <glyph glyph-name="uni04F9" unicode="&#x4f9;" horiz-adv-x="910" 
d="M433 778q32 0 51.5 -20t19.5 -50q0 -36 -26.5 -63.5t-66.5 -27.5q-31 0 -51.5 19t-20.5 50q0 37 27.5 64.5t66.5 27.5zM659 778q32 0 51.5 -20t19.5 -50q0 -36 -27 -63.5t-67 -27.5q-31 0 -51 19t-20 50q0 37 27 64.5t67 27.5zM297 0q124 0 196 58t72 157q0 70 -53.5 113
t-145.5 43h-104l43 163h-159l-140 -534h291zM910 534h-158l-141 -534h158zM334 258q35 0 55 -15t20 -39q0 -40 -31.5 -61t-86.5 -21h-95l36 136h102z" />
    <glyph glyph-name="uni0E3F" unicode="&#xe3f;" horiz-adv-x="756" 
d="M759 591q0 -76 -46 -127.5t-122 -66.5q108 -48 108 -158q0 -52 -20.5 -94t-54 -68.5t-78.5 -44t-90.5 -25t-93.5 -7.5h-16l-18 -69h-74l18 69h-247l209 783h247l19 67l75 1l-20 -72q89 -11 146.5 -56.5t57.5 -131.5zM398 465l45 170h-88l-45 -170h88zM469 465
q126 8 126 97q0 62 -81 71zM313 148l48 178h-88l-47 -178h87zM389 148q60 0 103 25t43 77q0 39 -29.5 56.5t-73.5 19.5l-48 -178h5z" />
    <glyph glyph-name="uni1E20" unicode="&#x1e20;" horiz-adv-x="880" 
d="M770 975l-31 -117h-364l31 117h364zM435 -12q-113 0 -195.5 48.5t-121.5 126t-39 172.5q0 118 58.5 223t167 171t241.5 66q80 0 144.5 -23t103 -60t61 -76.5t29.5 -79.5l-156 -48q-32 135 -200 135q-115 0 -198 -88.5t-83 -210.5q0 -89 52 -146.5t155 -57.5
q78 0 136.5 36t80.5 98h-238l35 146h411q-7 -90 -36.5 -166t-82 -136.5t-136 -95t-189.5 -34.5z" />
    <glyph glyph-name="uni1E21" unicode="&#x1e21;" horiz-adv-x="690" 
d="M629 745l-31 -117h-365l32 117h364zM407 69q-62 -58 -155 -58q-91 0 -150 64t-59 156q0 131 89 221.5t201 90.5q119 0 181 -87l21 78h155l-138 -521q-74 -280 -322 -280q-130 0 -201 66.5t-71 155.5l146 29q0 -47 32.5 -81.5t93.5 -34.5q58 0 101 37t62 109zM312 146
q60 0 106 47t46 113q0 45 -30 72t-77 27q-63 0 -108 -47.5t-45 -112.5q0 -45 29.5 -72t78.5 -27z" />
    <glyph glyph-name="uni1E30" unicode="&#x1e30;" horiz-adv-x="736" 
d="M629 1043h191l-215 -188h-137zM189 0h-164l209 783h164l-87 -329l340 329h217l-411 -390l219 -393h-186l-199 380z" />
    <glyph glyph-name="uni1E31" unicode="&#x1e31;" horiz-adv-x="618" 
d="M231 256l-67 -256h-158l215 815h157l-128 -487h2l221 206h215l-295 -261l158 -273h-182l-136 256h-2zM584 811h190l-214 -188h-138z" />
    <glyph glyph-name="uni1E60" unicode="&#x1e60;" horiz-adv-x="700" 
d="M488 1038q38 0 61.5 -23t23.5 -59q0 -43 -32 -75.5t-79 -32.5q-37 0 -61 22.5t-24 58.5q0 44 32 76.5t79 32.5zM716 559q0 112 -79.5 174t-199.5 62q-119 0 -208 -68t-89 -184q0 -136 191 -212l72 -29q79 -31 79 -87q0 -44 -42 -66t-90 -22q-67 0 -113 42t-46 109v5
l-153 -27v-8q0 -84 45 -144t112.5 -87.5t147.5 -27.5q130 0 218.5 63.5t88.5 187.5q0 138 -191 213l-74 29q-22 9 -36.5 16t-28 23t-13.5 35q0 45 37.5 70t83.5 25q61 0 98.5 -31.5t37.5 -86.5z" />
    <glyph glyph-name="uni1E61" unicode="&#x1e61;" horiz-adv-x="521" 
d="M354 808q38 0 61 -23.5t23 -58.5q0 -43 -31.5 -75.5t-78.5 -32.5q-37 0 -60.5 22.5t-23.5 58.5q0 44 32 76.5t78 32.5zM231 110q27 0 47.5 13t20.5 35q0 28 -36 43l-59 23q-119 47 -119 139q0 79 64.5 131.5t149.5 52.5q80 0 143.5 -47.5t63.5 -124.5l-139 -15
q0 30 -21 48.5t-49 18.5q-24 0 -43 -12.5t-19 -33.5q0 -28 34 -41l55 -21q61 -24 96 -57.5t35 -88.5q0 -83 -67.5 -134t-159.5 -51t-156.5 46t-64.5 129v4l139 22q-1 -37 24 -58t61 -21z" />
    <glyph glyph-name="Wgrave" unicode="&#x1e80;" horiz-adv-x="1204" 
d="M798 855h-118l-109 187h172zM372 0h-177l-44 783h168l17 -557l307 557h172l29 -560l299 560h177l-435 -783h-180l-27 549h-1z" />
    <glyph glyph-name="wgrave" unicode="&#x1e81;" horiz-adv-x="892" 
d="M585 623h-119l-109 187h172zM949 534l-309 -534h-155l-18 339l-199 -339h-153l-25 534h157l9 -329l186 329h144l13 -332l187 332h163z" />
    <glyph glyph-name="Wacute" unicode="&#x1e82;" horiz-adv-x="1204" 
d="M841 1043h190l-214 -188h-138zM372 0h-177l-44 783h168l17 -557l307 557h172l29 -560l299 560h177l-435 -783h-180l-27 549h-1z" />
    <glyph glyph-name="wacute" unicode="&#x1e83;" horiz-adv-x="892" 
d="M618 811h191l-215 -188h-137zM949 534l-309 -534h-155l-18 339l-199 -339h-153l-25 534h157l9 -329l186 329h144l13 -332l187 332h163z" />
    <glyph glyph-name="Wdieresis" unicode="&#x1e84;" horiz-adv-x="1204" 
d="M649 1002q32 0 51.5 -19.5t19.5 -49.5q0 -37 -26.5 -64.5t-67.5 -27.5q-31 0 -51 19t-20 50q0 37 27.5 64.5t66.5 27.5zM884 1002q32 0 52 -19.5t20 -49.5q0 -37 -27 -64.5t-67 -27.5q-31 0 -51 19t-20 50q0 37 27 64.5t66 27.5zM372 0h-177l-44 783h168l17 -557l307 557
h172l29 -560l299 560h177l-435 -783h-180l-27 549h-1z" />
    <glyph glyph-name="wdieresis" unicode="&#x1e85;" horiz-adv-x="892" 
d="M448 778q32 0 52 -20t20 -50q0 -36 -27 -63.5t-67 -27.5q-31 0 -51.5 19t-20.5 50q0 37 27.5 64.5t66.5 27.5zM674 778q32 0 51.5 -20t19.5 -50q0 -37 -26.5 -64t-67.5 -27q-31 0 -51 19t-20 50q0 37 27.5 64.5t66.5 27.5zM949 534l-309 -534h-155l-18 339l-199 -339
h-153l-25 534h157l9 -329l186 329h144l13 -332l187 332h163z" />
    <glyph glyph-name="uni1E90" unicode="&#x1e90;" horiz-adv-x="683" 
d="M677 854h-127l-36 91l-86 -91h-138l166 174h146zM-27 0l38 143l508 492h-360l39 148h571l-38 -139l-504 -495h385l-40 -149h-599z" />
    <glyph glyph-name="uni1E91" unicode="&#x1e91;" horiz-adv-x="540" 
d="M545 624h-127l-37 91l-85 -91h-139l167 174h145zM322 401h-233l35 133h440l-31 -120l-319 -281h248l-35 -133h-451l32 122z" />
    <glyph glyph-name="uni1EBC" unicode="&#x1ebc;" horiz-adv-x="665" 
d="M581 854q-37 0 -76 23.5t-57 23.5q-30 0 -43 -47h-97l5 25q32 130 143 130q34 0 73.5 -23.5t56.5 -23.5q14 0 24.5 8.5t14 15t9.5 21.5h94l-7 -26q-31 -127 -140 -127zM235 783h510l-40 -150h-348l-43 -163h311l-40 -149h-311l-46 -171h351l-40 -150h-514z" />
    <glyph glyph-name="uni1EBD" unicode="&#x1ebd;" horiz-adv-x="631" 
d="M458 624q-37 0 -76 23.5t-57 23.5q-28 0 -44 -46h-97l6 25q31 129 143 129q34 0 73 -23t57 -23q14 0 24.5 8t14 15.5t8.5 20.5h94l-6 -25q-32 -128 -140 -128zM581 224q16 47 16 93q0 105 -69.5 166.5t-177.5 61.5q-121 0 -214.5 -91t-93.5 -220q0 -109 74 -177.5
t187 -68.5q175 0 258 148l-123 57q-38 -74 -126 -74q-47 0 -83 27.5t-36 77.5h388zM211 327q13 40 51.5 66.5t82.5 26.5q43 0 72.5 -20.5t29.5 -61.5q0 -7 -1 -11h-235z" />
    <glyph glyph-name="Ygrave" unicode="&#x1ef2;" horiz-adv-x="753" 
d="M583 855h-119l-109 187h172zM222 0l83 310l-152 473h181l88 -323l265 323h193l-412 -483l-81 -300h-165z" />
    <glyph glyph-name="ygrave" unicode="&#x1ef3;" horiz-adv-x="613" 
d="M446 623h-118l-109 187h172zM159 7l-72 527h158l38 -350l216 350h175l-519 -797h-171z" />
    <glyph glyph-name="endash" unicode="&#x2013;" horiz-adv-x="622" 
d="M593 400l-40 -150h-489l40 150h489z" />
    <glyph glyph-name="emdash" unicode="&#x2014;" horiz-adv-x="1005" 
d="M976 400l-40 -150h-872l40 150h872z" />
    <glyph glyph-name="quoteleft" unicode="&#x2018;" horiz-adv-x="323" 
d="M362 736q-88 -55 -132 -125q17 7 37 7q33 0 54.5 -21t21.5 -55q0 -50 -35 -86t-84 -36q-44 0 -71 29.5t-27 74.5q0 79 54 149t131 118z" />
    <glyph glyph-name="quoteright" unicode="&#x2019;" horiz-adv-x="324" 
d="M147 473q89 55 132 125q-16 -8 -37 -8q-34 0 -55 21.5t-21 55.5q0 49 35 85t84 36q44 0 71 -29.5t27 -73.5q0 -79 -54.5 -149.5t-131.5 -117.5z" />
    <glyph glyph-name="quotesinglbase" unicode="&#x201a;" horiz-adv-x="327" 
d="M-5 -113q88 55 132 125q-19 -8 -37 -8q-33 0 -54.5 21.5t-21.5 55.5q0 50 35 86t84 36q44 0 71 -29.5t27 -74.5q0 -79 -54 -149t-131 -118z" />
    <glyph glyph-name="quotedblleft" unicode="&#x201c;" horiz-adv-x="596" 
d="M362 736q-88 -55 -132 -125q17 7 37 7q33 0 54.5 -21t21.5 -55q0 -50 -35 -86t-84 -36q-44 0 -71 29.5t-27 74.5q0 79 54 149t131 118zM634 736q-89 -56 -132 -125q17 7 38 7q33 0 54.5 -21t21.5 -55q0 -50 -35 -86t-84 -36q-44 0 -71 29.5t-27 74.5q0 79 54 149t131 118
z" />
    <glyph glyph-name="quotedblright" unicode="&#x201d;" horiz-adv-x="598" 
d="M147 473q89 55 132 125q-16 -8 -37 -8q-34 0 -55 21.5t-21 55.5q0 49 35 85t84 36q44 0 71 -29.5t27 -73.5q0 -79 -54.5 -149.5t-131.5 -117.5zM420 473q90 57 132 125q-16 -8 -38 -8q-33 0 -54.5 21.5t-21.5 55.5q0 49 35 85t84 36q44 0 71 -29.5t27 -73.5
q0 -79 -54 -149.5t-131 -117.5z" />
    <glyph glyph-name="quotedblbase" unicode="&#x201e;" horiz-adv-x="601" 
d="M-3 -113q88 55 132 125q-19 -8 -37 -8q-34 0 -55 21.5t-21 55.5q0 50 35 86t84 36q44 0 71 -29.5t27 -74.5q0 -78 -54 -148.5t-132 -118.5zM270 -113q89 56 132 125q-19 -8 -38 -8q-33 0 -54.5 21.5t-21.5 55.5q0 50 35 86t84 36q44 0 71 -29.5t27 -74.5q0 -79 -54 -149
t-131 -118z" />
    <glyph glyph-name="dagger" unicode="&#x2020;" horiz-adv-x="701" 
d="M202 0l109 409h-188l38 142h188l50 190h159l-51 -190h189l-38 -142h-189l-109 -409h-158z" />
    <glyph glyph-name="daggerdbl" unicode="&#x2021;" horiz-adv-x="701" 
d="M148 -207l55 207h-212l38 143h212l67 249h-212l37 142h212l55 206h159l-55 -206h213l-38 -142h-213l-67 -249h213l-37 -143h-213l-55 -207h-159z" />
    <glyph glyph-name="bullet" unicode="&#x2022;" horiz-adv-x="490" 
d="M296 541q69 0 112 -42.5t43 -107.5q0 -80 -58 -140.5t-145 -60.5q-67 0 -111 42t-44 109q0 81 59 140.5t144 59.5z" />
    <glyph glyph-name="ellipsis" unicode="&#x2026;" horiz-adv-x="1004" 
d="M125 -12q-44 0 -76 32t-32 76q0 45 32 77t76 32q46 0 77.5 -32t31.5 -77q0 -44 -32 -76t-77 -32zM469 -12q-45 0 -77 32t-32 76q0 45 32 77t77 32t76.5 -32t31.5 -77q0 -44 -31.5 -76t-76.5 -32zM812 -12q-44 0 -76 32t-32 76q0 45 31.5 77t76.5 32t76.5 -32t31.5 -77
t-31.5 -76.5t-76.5 -31.5z" />
    <glyph glyph-name="perthousand" unicode="&#x2030;" horiz-adv-x="1299" 
d="M335 791q70 0 113.5 -43t43.5 -108q0 -81 -58.5 -142t-146.5 -61q-68 0 -112 42t-44 110q0 82 59 142t145 60zM80 0l680 783h144l-679 -783h-145zM246 602q0 -25 15 -39.5t40 -14.5q31 0 53 24.5t22 54.5q0 24 -14.5 39t-40.5 15q-32 0 -53.5 -24.5t-21.5 -54.5zM700 350
q70 0 113 -43t43 -109q0 -81 -58.5 -141.5t-146.5 -60.5q-67 0 -111.5 42t-44.5 109q0 82 59.5 142.5t145.5 60.5zM1086 350q70 0 113.5 -43t43.5 -109q0 -81 -58.5 -141.5t-146.5 -60.5q-67 0 -111.5 42t-44.5 109q0 82 59 142.5t145 60.5zM610 160q0 -24 15 -39t41 -15
q31 0 52.5 24.5t21.5 55.5q0 24 -14.5 38.5t-40.5 14.5q-32 0 -53.5 -24.5t-21.5 -54.5zM997 160q0 -24 15 -39t40 -15q31 0 53 24.5t22 55.5q0 24 -14.5 38.5t-40.5 14.5q-32 0 -53.5 -24.5t-21.5 -54.5z" />
    <glyph glyph-name="guilsinglleft" unicode="&#x2039;" horiz-adv-x="401" 
d="M320 146l-94 -75l-183 231l283 230l73 -90l-191 -154z" />
    <glyph glyph-name="guilsinglright" unicode="&#x203a;" horiz-adv-x="401" 
d="M105 457l94 75l183 -231l-283 -230l-73 90l191 154z" />
    <glyph glyph-name="uni203D" unicode="&#x203d;" horiz-adv-x="598" 
d="M412 795q93 0 158 -50t65 -137q0 -50 -30.5 -102.5t-67.5 -88t-95.5 -88.5t-87.5 -84h-128l61 312h141l-25 -115h2q29 23 53.5 62t24.5 72q0 81 -98 81q-43 0 -79.5 -28.5t-47.5 -70.5l-133 14q8 68 52 120t105.5 77.5t129.5 25.5zM257 182q-46 0 -78.5 -32.5
t-32.5 -78.5q0 -37 24 -60t61 -23q47 0 79.5 32.5t32.5 78.5q0 36 -24.5 59.5t-61.5 23.5z" />
    <glyph glyph-name="uni2042" unicode="&#x2042;" horiz-adv-x="925" 
d="M532 399l-46 116l-97 -78l-58 71l94 78l-104 68l51 77l104 -66l31 122l93 -24l-32 -122l123 6l7 -91l-124 -9l44 -114zM245 -19l-47 116l-97 -78l-58 71l95 79l-104 67l50 77l103 -66l33 122l92 -24l-32 -122l123 7l7 -92l-123 -8l44 -115zM697 -19l-46 116l-97 -78
l-58 71l94 79l-104 67l51 77l104 -66l31 122l93 -24l-32 -122l123 7l7 -92l-124 -8l44 -115z" />
    <glyph glyph-name="fraction" unicode="&#x2044;" horiz-adv-x="633" 
d="M-59 0l680 783h144l-679 -783h-145z" />
    <glyph glyph-name="uni2051" unicode="&#x2051;" horiz-adv-x="498" 
d="M367 399l-47 116l-97 -78l-58 71l95 78l-104 68l50 77l104 -66l31 122l93 -24l-32 -122l123 6l7 -91l-124 -9l45 -114zM255 -19l-47 116l-97 -78l-58 71l95 79l-104 67l51 77l103 -66l32 122l93 -24l-32 -122l123 7l6 -92l-123 -8l44 -115z" />
    <glyph glyph-name="lira" unicode="&#x20a4;" horiz-adv-x="716" 
d="M546 535q4 42 -16 73.5t-64 31.5q-55 0 -81.5 -35t-26.5 -93q0 -10 1 -14h186l-23 -85h-154q3 -16 5 -48h136l-23 -85h-124q-24 -83 -102 -127h143q96 0 111 92l152 -26q-14 -99 -80.5 -159t-177.5 -60h-411l38 147q60 13 101 48t58 85h-121l23 85h108q-1 16 -5 48h-91
l23 85h58v8q0 128 80 205.5t216 77.5q110 0 171.5 -66.5t50.5 -171.5z" />
    <glyph glyph-name="uni20A6" unicode="&#x20a6;" horiz-adv-x="992" 
d="M899 513h73l-28 -103h-72l-16 -59h73l-28 -103h-72l-66 -248h-180l-197 546l-146 -546h-163l66 248h-73l27 103h73l16 59h-73l28 103h73l72 270h187l192 -538l144 538h162z" />
    <glyph glyph-name="uni20A9" unicode="&#x20a9;" horiz-adv-x="1271" 
d="M1284 519l-28 -103h-105l-35 -63h123l-27 -103h-153l-139 -250h-180l-26 549h-2l-305 -549h-177l-14 250h-157l28 103h123l-3 63h-103l27 103h70l-14 264h167l18 -557l306 557h173l28 -560l299 560h177l-147 -264h76z" />
    <glyph glyph-name="uni20AA" unicode="&#x20aa;" horiz-adv-x="1033" 
d="M539 210l53 199q8 30 8 46q0 64 -78 64h-202l-138 -519h-157l175 657h349q233 0 233 -159q0 -36 -19 -107l-46 -181h-178zM887 657h158l-110 -412q-13 -49 -26 -83t-34 -67t-48 -52.5t-67.5 -31t-92.5 -11.5h-413l119 448h157l-82 -309h219q52 0 74 27.5t41 95.5z" />
    <glyph glyph-name="dong" unicode="&#x20ab;" horiz-adv-x="727" 
d="M713 620l-137 -522q-11 -42 -14 -79v-19h-156v18q0 18 5 40l-2 1q-78 -69 -157 -69q-96 0 -151.5 66.5t-55.5 161.5q0 137 89 231.5t209 94.5q114 0 169 -88l43 164h-146l27 105h147l23 89h159l-24 -89h62l-28 -105h-62zM320 130q65 0 111 52.5t46 118.5q0 48 -33.5 76
t-82.5 28q-65 0 -109 -53t-44 -119q0 -49 31 -76t81 -27zM553 -69l-36 -135h-548l36 135h548z" />
    <glyph glyph-name="Euro" unicode="&#x20ac;" horiz-adv-x="968" 
d="M821 481q-5 26 -16 50t-33 51t-64 43.5t-99 16.5q-70 0 -132 -33.5t-93 -84.5h272l-47 -101h-270q-7 -29 -9 -60h254l-47 -100h-194q15 -58 66 -90t132 -32q46 0 84 12.5t62 29t44 42.5t29 43t19 39l150 -57q-17 -46 -48 -88.5t-79 -83.5t-120.5 -65.5t-159.5 -24.5
q-139 0 -235 74.5t-119 200.5h-117l27 100h85q4 40 8 60h-83l27 101h88q56 123 172.5 197t253.5 74q83 0 149 -24t106 -64.5t62.5 -84.5t30.5 -91z" />
    <glyph glyph-name="uni20AE" unicode="&#x20ae;" horiz-adv-x="713" 
d="M500 484l205 63l-29 -106l-204 -63l-18 -66l205 63l-29 -106l-204 -63l-55 -206h-164l40 151l-204 -63l28 106l204 63l18 67l-204 -63l29 106l203 62l54 199h-234l42 155h631l-42 -155h-233z" />
    <glyph glyph-name="uni20B1" unicode="&#x20b1;" horiz-adv-x="819" 
d="M779 483q-27 -98 -120 -152t-221 -54h-133l-74 -277h-165l129 483h-83l24 90h83l56 210h231q120 0 192 -44q87 -56 91 -166h77l-25 -90h-62zM383 571h235q-17 60 -105 60h-114zM462 425q108 0 143 60h-245l-16 -60h118z" />
    <glyph glyph-name="uni20B4" unicode="&#x20b4;" horiz-adv-x="759" 
d="M550 533q22 22 22 54q0 66 -106 66q-37 0 -76 -20.5t-69 -50.5l-108 97q110 116 281 116q93 0 163 -46t70 -134q0 -50 -19 -82h68l-27 -103h-651l28 103h424zM274 264q-27 -30 -27 -66q0 -67 107 -67q106 0 197 88l108 -102q-80 -73 -153.5 -101t-180.5 -28q-44 0 -85 10
t-77.5 30t-58 56t-21.5 83q0 58 27 97h-56l27 103h651l-27 -103h-431z" />
    <glyph glyph-name="uni20B8" unicode="&#x20b8;" horiz-adv-x="726" 
d="M775 629h-631l41 154h631zM209 0l110 411h-234l41 153h632l-41 -153h-234l-109 -411h-165z" />
    <glyph glyph-name="uni20B9" unicode="&#x20b9;" horiz-adv-x="659" 
d="M562 643q28 -28 32 -66h108l-25 -92h-92q-40 -133 -215 -182l105 -303h-175l-90 281h-149l39 147h161q113 0 151 57h-297l25 92h285q-18 56 -116 56h-154l40 150h562l-38 -140h-157z" />
    <glyph glyph-name="uni20BA" unicode="&#x20ba;" horiz-adv-x="745" 
d="M729 335q-70 -335 -468 -335h-160l70 264l-124 -49l30 110l124 50l18 68l-124 -49l30 110l124 50l61 229h163l-41 -156l210 85l-30 -111l-210 -84l-18 -68l210 84l-30 -111l-210 -84l-51 -194q229 0 268 207z" />
    <glyph glyph-name="uni20BD" unicode="&#x20bd;" horiz-adv-x="764" 
d="M305 205h174l-27 -99h-174l-28 -106h-165l29 106h-93l26 99h93l19 71h-93l39 147h93l96 360h221q121 0 193 -44q91 -59 91 -178q0 -133 -99 -208.5t-252 -75.5h-124zM465 425q76 0 120.5 31.5t44.5 89.5q0 40 -30 62q-30 23 -84 23h-98l-55 -206h102z" />
    <glyph glyph-name="uni2113" unicode="&#x2113;" horiz-adv-x="481" 
d="M246 253q-15 -51 -15 -75q0 -36 20.5 -49t57.5 -13q41 0 86 16l-33 -124q-45 -17 -104 -17q-75 0 -121 37.5t-46 111.5q0 32 8 63q-53 -16 -83 -20l34 129q40 8 85 26l63 238q46 173 195 173q62 0 104.5 -36t42.5 -98q0 -71 -50 -146.5t-114 -128.5t-130 -87zM381 625
q-38 0 -49 -47l-44 -165q92 65 118 167q3 15 3 18q0 27 -28 27z" />
    <glyph glyph-name="uni2116" unicode="&#x2116;" horiz-adv-x="1360" 
d="M188 0h-163l209 783h187l192 -538l144 538h162l-208 -783h-180l-197 546zM1147 297q-78 0 -129.5 46.5t-51.5 126.5q0 86 62.5 150t153.5 64q80 0 130 -47t50 -127q0 -89 -63.5 -151t-151.5 -62zM1178 562q-36 0 -60 -26.5t-24 -62.5q0 -24 14.5 -39.5t41.5 -15.5
q35 0 59.5 26t24.5 63q0 25 -15 40t-41 15zM900 217h384l-32 -121h-384z" />
    <glyph glyph-name="trademark" unicode="&#x2122;" horiz-adv-x="1071" 
d="M187 332l93 354h-128l26 97h365l-25 -97h-128l-93 -354h-110zM976 634l-186 -302h-72l-33 304h-3l-80 -304h-105l118 451h147l29 -284l174 284h161l-119 -451h-107l80 302h-4z" />
    <glyph glyph-name="estimated" unicode="&#x212e;" horiz-adv-x="890" 
d="M491 -12q-179 0 -283.5 116.5t-104.5 293.5q0 168 108.5 282.5t279.5 114.5q170 0 278.5 -113.5t108.5 -281.5v-9h-605v-254q39 -40 99.5 -64t118.5 -24q102 0 175.5 43.5t112.5 123.5l53 -29q-41 -91 -131.5 -145t-209.5 -54zM709 650q-39 41 -99.5 63t-120.5 22
q-128 0 -216 -84v-198h436v197z" />
    <glyph glyph-name="uni2153" unicode="&#x2153;" horiz-adv-x="1095" 
d="M287 0h-145l680 783h144zM207 330l84 317l-105 -52l-44 87l202 101h116l-119 -453h-134zM893 464q79 0 125.5 -36t46.5 -94q0 -43 -27.5 -72.5t-69.5 -39.5h-1q57 -27 57 -88q0 -65 -57.5 -104.5t-152.5 -39.5q-74 0 -125 38t-53 109l117 20q1 -31 18 -47.5t45 -16.5
q31 0 53 14t22 39q0 37 -51 37h-59l24 91h45q81 0 81 49q0 17 -14 27.5t-40 10.5q-55 0 -83 -51l-109 34q25 59 80 89.5t128 30.5z" />
    <glyph glyph-name="uni2154" unicode="&#x2154;" horiz-adv-x="1137" 
d="M74 361q14 63 59.5 112.5t108.5 74.5l73 29q69 26 69 71q0 40 -51 40q-35 0 -55 -26t-20 -53l-113 15q11 78 66 124t136 46q69 0 113 -39t44 -96q0 -67 -42 -107.5t-109 -66.5l-67 -27q-33 -13 -41 -24h201l-28 -104h-351zM329 0h-145l679 783h144zM935 464
q79 0 125.5 -36t46.5 -94q0 -43 -27.5 -72.5t-69.5 -39.5h-1q57 -27 57 -88q0 -65 -57.5 -104.5t-152.5 -39.5q-74 0 -125 38t-53 109l117 20q1 -31 18 -47.5t45 -16.5q31 0 53 14t22 39q0 37 -51 37h-59l24 91h45q81 0 81 49q0 17 -14 27.5t-40 10.5q-55 0 -83 -51l-109 34
q25 59 80 89.5t128 30.5z" />
    <glyph glyph-name="oneeighth" unicode="&#x215b;" horiz-adv-x="1106" 
d="M206 330l84 317l-105 -52l-43 87l201 101h117l-120 -453h-134zM288 0h-145l680 783h144zM979 223q53 -27 53 -91q0 -65 -56.5 -104t-135.5 -39q-69 0 -123.5 38t-54.5 99q0 86 100 124q-45 27 -45 81q0 59 52.5 96.5t129.5 37.5q69 0 119.5 -34.5t50.5 -94.5
q0 -78 -90 -113zM895 366q-23 0 -42 -13.5t-19 -31.5q0 -19 17.5 -31t40.5 -12q24 0 42 14t18 32q0 19 -17 30.5t-40 11.5zM849 187q-25 0 -46.5 -14.5t-21.5 -36.5t19.5 -35t44.5 -13q26 0 47.5 14t21.5 38q0 22 -20 34.5t-45 12.5z" />
    <glyph glyph-name="threeeighths" unicode="&#x215c;" horiz-adv-x="1189" 
d="M354 794q79 0 125.5 -36t46.5 -94q0 -43 -27.5 -72.5t-69.5 -39.5h-1q57 -27 57 -88q0 -65 -57.5 -104.5t-152.5 -39.5q-74 0 -125 38t-53 109l117 20q1 -31 18 -47.5t45 -16.5q31 0 53 14t22 39q0 37 -51 37h-59l24 91h45q81 0 81 49q0 17 -14 27.5t-40 10.5
q-55 0 -83 -51l-109 34q25 59 80 89.5t128 30.5zM371 0h-145l680 783h144zM1062 223q53 -28 53 -91q0 -65 -56.5 -104t-135.5 -39q-69 0 -123.5 38t-54.5 99q0 86 100 124q-45 27 -45 81q0 59 52.5 96.5t129.5 37.5q69 0 119 -34.5t50 -94.5q0 -78 -89 -113zM977 366
q-22 0 -41 -13.5t-19 -31.5q0 -19 17.5 -31t39.5 -12q24 0 42 14t18 32q0 19 -17 30.5t-40 11.5zM931 187q-25 0 -46 -14t-21 -37q0 -22 19.5 -35t44.5 -13q26 0 47 14t21 38q0 22 -20 34.5t-45 12.5z" />
    <glyph glyph-name="fiveeighths" unicode="&#x215d;" horiz-adv-x="1125" 
d="M244 320q-69 0 -119 38t-43 106l112 20q-2 -26 12.5 -43.5t41.5 -17.5q31 0 54.5 21.5t23.5 52.5q0 21 -14.5 32.5t-35.5 11.5q-40 0 -66 -30l-95 30l104 242h285l-26 -101h-195l-33 -78q39 29 89 29q47 0 78 -34.5t31 -87.5q0 -85 -59.5 -138t-144.5 -53zM314 0h-145
l680 783h144zM989 223q52 -28 52 -91q0 -65 -56.5 -104t-135.5 -39q-69 0 -123.5 38t-54.5 99q0 86 100 124q-45 27 -45 81q0 59 52.5 96.5t129.5 37.5q69 0 119 -34.5t50 -94.5q0 -78 -88 -113zM904 366q-23 0 -41.5 -13.5t-18.5 -31.5q0 -19 17 -31t40 -12q24 0 41.5 14
t17.5 32q0 19 -16.5 30.5t-39.5 11.5zM858 187q-25 0 -46.5 -14t-21.5 -37q0 -22 19.5 -35t44.5 -13q26 0 47 14t21 38q0 22 -19.5 34.5t-44.5 12.5z" />
    <glyph glyph-name="seveneighths" unicode="&#x215e;" horiz-adv-x="1070" 
d="M95 330l269 349h-213l28 104h356l-28 -105l-257 -348h-155zM246 0h-145l680 783h144zM944 223q53 -27 53 -91q0 -65 -57 -104t-136 -39q-69 0 -123.5 38t-54.5 99q0 87 101 124q-46 27 -46 81q0 59 52.5 96.5t129.5 37.5q69 0 119.5 -34.5t50.5 -94.5q0 -78 -89 -113z
M859 366q-23 0 -41.5 -13.5t-18.5 -31.5q0 -19 17 -31t40 -12q24 0 42 14t18 32q0 19 -17 30.5t-40 11.5zM813 187q-25 0 -46 -14t-21 -37q0 -22 19.5 -35t44.5 -13t46 14t21 38q0 22 -19.5 34.5t-44.5 12.5z" />
    <glyph glyph-name="arrowleft" unicode="&#x2190;" horiz-adv-x="664" 
d="M436 602q-119 -128 -154 -163h376v-150h-376q31 -31 58 -59.5t57 -61.5t40 -43l-96 -89l-293 317v22l293 318z" />
    <glyph glyph-name="arrowup" unicode="&#x2191;" horiz-adv-x="664" 
d="M438 60h-150v376l-163 -155l-90 96l317 292h23l317 -292l-91 -95l-163 154v-376z" />
    <glyph glyph-name="arrowright" unicode="&#x2192;" horiz-adv-x="664" 
d="M673 353l-293 -317l-95 89q12 12 40.5 43.5t55.5 60.5t58 60h-376v150h376q-59 60 -153 163l94 91l293 -318v-22z" />
    <glyph glyph-name="arrowdown" unicode="&#x2193;" horiz-adv-x="664" 
d="M120 447q103 -94 163 -153v375h150v-375q31 31 60 58t60.5 55.5t43.5 40.5l90 -95l-317 -293h-23l-318 293z" />
    <glyph glyph-name="uni2196" unicode="&#x2196;" horiz-adv-x="664" 
d="M579 468q-142 -7 -224 -7l267 -265l-107 -107l-265 266q0 -11 -7 -225l-131 5l17 430l16 17l431 17z" />
    <glyph glyph-name="uni2197" unicode="&#x2197;" horiz-adv-x="664" 
d="M575 565l17 -430l-131 -5q-6 193 -6 225l-267 -266l-105 107l265 265q-81 0 -223 7l2 131l432 -17z" />
    <glyph glyph-name="uni2198" unicode="&#x2198;" horiz-adv-x="664" 
d="M131 220q142 7 223 7l-265 266l106 106l266 -266q0 32 6 225l132 -4l-17 -431l-17 -16l-431 -18z" />
    <glyph glyph-name="uni2199" unicode="&#x2199;" horiz-adv-x="664" 
d="M137 123l-17 431l130 4q1 -18 3 -59.5t3 -81.5t1 -84l266 266l106 -106l-266 -266q82 0 224 -7l-3 -131l-432 18z" />
    <glyph glyph-name="uni21A9" unicode="&#x21a9;" horiz-adv-x="1078" 
d="M721 286q84 0 138.5 49t54.5 125q0 79 -53 127t-143 48h-196v148h206q154 0 250.5 -92t96.5 -231q0 -140 -96.5 -232.5t-250.5 -92.5h-474q41 -41 95 -99t59 -64l-96 -90l-292 317v22l292 318l95 -91q-119 -127 -154 -162h468z" />
    <glyph glyph-name="uni21B0" unicode="&#x21b0;" horiz-adv-x="978" 
d="M721 296q0 75 -48 114.5t-133 39.5h-199q80 -81 153 -163l-95 -90l-292 317v23l292 317l96 -90q-11 -11 -40 -43.5t-56 -61t-58 -58.5h205q158 0 247 -77.5t89 -214.5v-309h-161v296z" />
    <glyph glyph-name="uni21B1" unicode="&#x21b1;" horiz-adv-x="811" 
d="M75 309q0 137 89 214.5t246 77.5h205q-31 30 -57.5 58.5t-56.5 61t-40 43.5l96 90l293 -317v-23l-293 -317l-95 90q94 103 154 163h-199q-85 0 -133 -39.5t-48 -114.5v-296h-161v309z" />
    <glyph glyph-name="uni21B2" unicode="&#x21b2;" horiz-adv-x="811" 
d="M808 475q0 -138 -89 -215t-246 -77h-205q41 -41 93 -97.5t60 -65.5l-95 -90l-293 317v22l293 317l94 -90q-94 -103 -153 -163h199q85 0 133 39.5t48 114.5v296h161v-308z" />
    <glyph glyph-name="uni21B3" unicode="&#x21b3;" horiz-adv-x="978" 
d="M329 487q0 -75 48 -114.5t133 -39.5h199q-51 51 -153 163l94 90l293 -317v-22l-293 -317l-95 90q8 9 60 65.5t93 97.5h-205q-157 0 -246 77t-89 215v308h161v-296z" />
    <glyph glyph-name="uni21B4" unicode="&#x21b4;" horiz-adv-x="1040" 
d="M475 784q137 0 214 -89t77 -247v-205q40 40 164 153l90 -95l-317 -292h-23l-318 292l91 95q147 -137 163 -153v198q0 85 -39.5 133.5t-114.5 48.5h-296v161h309z" />
    <glyph glyph-name="partialdiff" unicode="&#x2202;" horiz-adv-x="689" 
d="M351 497q94 0 157 -50q2 22 2 31q0 77 -38 125t-112 48q-76 0 -145 -38l-30 135q91 46 209 46q137 0 208.5 -88.5t71.5 -231.5q0 -93 -25 -178t-72 -154t-123.5 -110.5t-171.5 -41.5q-104 0 -174 57.5t-70 165.5q0 127 91.5 205.5t221.5 78.5zM357 359q-61 0 -106.5 -35
t-45.5 -95q0 -43 30.5 -68.5t73.5 -25.5q67 0 111.5 48t60.5 117q-19 27 -53.5 43t-70.5 16z" />
    <glyph glyph-name="uni2206" unicode="&#x2206;" horiz-adv-x="866" 
d="M673 783l91 -783h-795l510 783h194zM592 148l-50 473l-302 -473h352z" />
    <glyph glyph-name="product" unicode="&#x220f;" horiz-adv-x="805" 
d="M411 0l170 637h-154l-170 -637h-162l170 637h-123l39 146h725l-39 -146h-123l-170 -637h-163z" />
    <glyph glyph-name="summation" unicode="&#x2211;" horiz-adv-x="677" 
d="M26 152l323 254l-181 234l39 143h555l-39 -146h-356l191 -250l-307 -241h341l-40 -146h-567z" />
    <glyph glyph-name="minus" unicode="&#x2212;" horiz-adv-x="639" 
d="M118 438h497l-38 -145h-498z" />
    <glyph glyph-name="radical" unicode="&#x221a;" horiz-adv-x="756" 
d="M110 622h221l99 -438l352 774h128l-436 -958h-146l-112 497h-139z" />
    <glyph glyph-name="infinity" unicode="&#x221e;" horiz-adv-x="1014" 
d="M728 104q-43 0 -85 22t-65.5 44.5t-61.5 65.5q-53 -45 -81.5 -66.5t-80 -43.5t-102.5 -22q-83 0 -134.5 51.5t-51.5 135.5q0 105 74.5 180t180.5 75q44 0 86 -22t66 -45t61 -65q53 45 81.5 66.5t80 43.5t102.5 22q84 0 135 -51.5t51 -135.5q0 -106 -75 -180.5t-181 -74.5
zM310 419q-43 0 -75 -31.5t-32 -74.5q0 -34 22.5 -58t57.5 -24q12 0 24 3t25.5 10t23 12.5t24 17.5t21 17t21.5 18.5t18 16.5q-26 31 -37.5 44t-39.5 31t-53 18zM769 419q-9 0 -18.5 -2t-20 -6.5t-19 -8.5t-19.5 -12t-17.5 -12.5t-18.5 -14.5t-16 -14t-16 -14.5t-14 -12.5
q2 -2 13 -14.5t14.5 -16t14 -14.5t16 -15t16 -11.5t18.5 -11t19 -6t21 -2.5q41 0 73.5 32.5t32.5 73.5q0 35 -22.5 58.5t-56.5 23.5z" />
    <glyph glyph-name="integral" unicode="&#x222b;" horiz-adv-x="465" 
d="M244 592q25 95 79.5 150t162.5 55q68 0 102 -21l-32 -123q-20 7 -50 7q-88 0 -111 -85l-170 -638q-12 -45 -28.5 -78t-44 -63.5t-70 -46.5t-99.5 -16q-68 0 -103 20l33 124q20 -7 50 -7q87 0 110 85z" />
    <glyph glyph-name="uni2236" unicode="&#x2236;" horiz-adv-x="353" 
d="M238 417q-43 0 -70 27t-27 70q0 50 34 85t84 35q42 0 70 -27.5t28 -69.5q0 -50 -35 -85t-84 -35zM147 76q-43 0 -70 26.5t-27 69.5q0 50 34.5 85t83.5 35q42 0 70 -27t28 -69q0 -50 -34.5 -85t-84.5 -35z" />
    <glyph glyph-name="approxequal" unicode="&#x2248;" horiz-adv-x="656" 
d="M657 495q-68 -107 -167 -107q-45 0 -111.5 40.5t-93.5 40.5q-38 0 -79 -51l-79 78q70 107 167 107q40 0 80.5 -20.5t73 -40.5t52.5 -20q38 0 79 51zM421 129q-45 0 -111.5 40.5t-93.5 40.5q-40 0 -79 -51l-78 78q68 107 166 107q31 0 63.5 -12.5t54.5 -28t46 -28
t41 -12.5q37 0 80 51l78 -78q-68 -107 -167 -107z" />
    <glyph glyph-name="notequal" unicode="&#x2260;" horiz-adv-x="636" 
d="M372 301h211l-38 -145h-258l-95 -164l-95 53l64 111h-123l38 145h171l75 129h-212l37 144h258l91 154l96 -50l-62 -104h125l-38 -144h-169z" />
    <glyph glyph-name="lessequal" unicode="&#x2264;" horiz-adv-x="662" 
d="M703 703l-40 -154l-368 -107v-2l310 -109l-37 -141l-471 190l35 135zM33 139l-36 -139h523l37 139h-524z" />
    <glyph glyph-name="greaterequal" unicode="&#x2265;" horiz-adv-x="658" 
d="M468 453v2l-310 107l37 141l472 -188l-36 -135l-571 -190l41 154zM44 139l-36 -139h523l37 139h-524z" />
    <glyph glyph-name="uni2318" unicode="&#x2318;" horiz-adv-x="698" 
d="M546 69q-50 0 -87 37q-36 36 -36 86v63h-148v-63q0 -50 -36 -86q-35 -37 -87 -37q-51 0 -86 37q-36 36 -36 86t36 86t86 36h62v148h-61q-51 0 -86 37q-37 35 -37 86t37 86q36 36 86 36t86 -36t36 -86v-63h148v63q0 50 36 86q38 36 87 36q50 0 86 -36t36 -86t-36 -86
q-35 -37 -86 -37h-62v-148h62q50 0 86 -36t36 -86t-36 -86q-35 -37 -86 -37zM214 585q0 26 -18 44q-17 18 -43 18q-29 0 -45 -18q-18 -17 -18 -44q0 -26 18 -44q21 -19 45 -19h61v63zM546 647q-28 0 -44 -18q-18 -17 -18 -44v-63h62q25 0 44 19q18 18 18 44t-18 44t-44 18z
M423 462h-148v-148h148v148zM214 255h-62q-27 0 -44 -19q-18 -16 -18 -44q0 -25 18 -45q20 -18 44 -18t44 18q18 20 18 45v63zM484 255v-63q0 -25 18 -45q18 -18 44 -18q24 0 44 18q18 20 18 45q0 28 -18 44q-17 19 -44 19h-62z" />
    <glyph glyph-name="filledbox" unicode="&#x25a0;" horiz-adv-x="908" 
d="M810 0h-709v711h709v-711z" />
    <glyph glyph-name="uni25A1" unicode="&#x25a1;" horiz-adv-x="908" 
d="M810 711v-711h-709v711h709zM209 105h490v500h-490v-500z" />
    <glyph glyph-name="triagup" unicode="&#x25b2;" horiz-adv-x="838" 
d="M421 730l417 -730h-838z" />
    <glyph glyph-name="uni25B3" unicode="&#x25b3;" horiz-adv-x="838" 
d="M835 0h-832l416 726zM647 106l-228 402l-230 -402h458z" />
    <glyph glyph-name="lozenge" unicode="&#x25ca;" horiz-adv-x="737" 
d="M2 393l386 390h166l176 -390l-385 -393h-167zM295 161l239 243l-98 221l-238 -244z" />
    <glyph glyph-name="circle" unicode="&#x25cb;" horiz-adv-x="813" 
d="M407 -14q-154 0 -262.5 108t-108.5 262t108.5 263t262.5 109t262 -108.5t108 -263.5q0 -154 -108 -262t-262 -108zM407 621q-109 0 -185.5 -77.5t-76.5 -187.5q0 -109 76.5 -186.5t185.5 -77.5q107 0 183 77.5t76 186.5q0 110 -76 187.5t-183 77.5z" />
    <glyph glyph-name="uni25CF" unicode="&#x25cf;" horiz-adv-x="813" 
d="M36 356q0 155 108 263.5t262 108.5t262.5 -109t108.5 -263t-108.5 -262t-262.5 -108t-262 108t-108 262z" />
    <glyph glyph-name="uni2605" unicode="&#x2605;" horiz-adv-x="838" 
d="M814 443l-244 -177l93 -287l-244 177l-245 -175l94 285l-244 177h302l93 287l93 -287h302z" />
    <glyph glyph-name="uni2611" unicode="&#x2611;" horiz-adv-x="956" 
d="M810 0h-709v711h613l130 226l99 -59l-133 -232v-646zM482 103l-270 326l89 77l174 -213l180 314h-448v-504h275zM496 103h204v354z" />
    <glyph glyph-name="uni2612" unicode="&#x2612;" horiz-adv-x="908" 
d="M101 711h709v-711h-709v711zM207 607v-504h493v504h-493zM300 122l-76 77l154 156l-154 154l77 77l154 -153l152 153l77 -77l-153 -154l153 -152l-77 -78l-152 152z" />
    <glyph glyph-name="uni2639" unicode="&#x2639;" horiz-adv-x="813" 
d="M407 -14q-154 0 -262.5 108t-108.5 262t108.5 263t262.5 109t262 -108.5t108 -263.5q0 -154 -108 -262t-262 -108zM407 638q-116 0 -198 -83t-82 -199t82 -198.5t198 -82.5q114 0 195 82.5t81 198.5t-80.5 199t-195.5 83zM382 454q0 -28 -19 -47h-94q-19 19 -19 47
t19 47.5t47 19.5t47 -19.5t19 -47.5zM563 454q0 -28 -19 -47h-93q-20 20 -20 47q0 28 19 47.5t47 19.5t47 -19.5t19 -47.5zM525 180q-6 46 -41.5 74.5t-76.5 28.5q-43 0 -78.5 -28t-41.5 -75h-78q10 78 66.5 127t131.5 49q74 0 130 -50t66 -126h-78z" />
    <glyph glyph-name="smileface" unicode="&#x263a;" horiz-adv-x="813" 
d="M407 -14q-154 0 -262.5 108t-108.5 262t108.5 263t262.5 109t262 -108.5t108 -263.5q0 -154 -108 -262t-262 -108zM407 638q-116 0 -198 -83t-82 -199t82 -198.5t198 -82.5q114 0 195 82.5t81 198.5t-80.5 199t-195.5 83zM382 454q0 -28 -19 -47t-47 -19t-47 19t-19 47
t19 47.5t47 19.5t47 -19.5t19 -47.5zM563 454q0 -28 -19 -47t-47 -19t-47 19t-19 47t19 47.5t47 19.5t47 -19.5t19 -47.5zM603 332q-10 -77 -66.5 -127t-129.5 -50q-75 0 -131.5 49.5t-66.5 127.5h78q6 -47 41.5 -75t78.5 -28q41 0 76.5 28.5t41.5 74.5h78z" />
    <glyph glyph-name="invsmileface" unicode="&#x263b;" horiz-adv-x="813" 
d="M407 -14q-154 0 -262.5 108t-108.5 262t108.5 263t262.5 109t262 -108.5t108 -263.5q0 -154 -108 -262t-262 -108zM382 454q0 28 -19 47.5t-47 19.5t-47 -19.5t-19 -47.5t19 -47t47 -19t47 19t19 47zM563 454q0 28 -19 47.5t-47 19.5t-47 -19.5t-19 -47.5t19 -47t47 -19
t47 19t19 47zM525 332q-6 -46 -41.5 -74.5t-76.5 -28.5q-43 0 -78.5 28t-41.5 75h-78q10 -78 66.5 -127.5t131.5 -49.5q73 0 129.5 50t66.5 127h-78z" />
    <glyph glyph-name="heart" unicode="&#x2665;" horiz-adv-x="872" 
d="M3 480q0 97 65.5 163t162.5 66q58 0 106 -28t72 -78q24 52 73 79t108 27q95 0 160 -67t65 -162q0 -61 -27 -123.5t-68 -113.5t-97.5 -101.5t-107 -86.5t-106.5 -69q-56 33 -106.5 69t-107 86.5t-97.5 101.5t-68 113.5t-27 123.5z" />
    <glyph glyph-name="uni2713" unicode="&#x2713;" horiz-adv-x="942" 
d="M96 383l216 -233l518 565l81 -79l-602 -652l-294 323z" />
    <glyph glyph-name="uni2715" unicode="&#x2715;" horiz-adv-x="755" 
d="M98 -4l-78 79l277 280l-277 278l79 78l277 -276l275 276l78 -78l-274 -278l280 -280l-78 -79l-281 279z" />
    <glyph glyph-name="uni2E18" unicode="&#x2e18;" horiz-adv-x="585" 
d="M338 353q-37 0 -61.5 23t-24.5 60q0 46 32.5 78t79.5 32q37 0 61.5 -23t24.5 -60q0 -46 -32.5 -78t-79.5 -32zM184 -261q68 0 129.5 25.5t105.5 77.5t52 120l-133 15q-11 -43 -47.5 -71.5t-80.5 -28.5q-97 0 -97 81q0 33 24 71.5t53 62.5h3l-25 -115h141l61 312h-129
q-29 -31 -87.5 -84t-95.5 -88.5t-67.5 -88t-30.5 -102.5q0 -87 65.5 -137t158.5 -50z" />
    <glyph glyph-name="zero.slash" unicode="&#xe008;" horiz-adv-x="773" 
d="M481 795q137 0 210.5 -90.5t73.5 -224.5q0 -89 -27.5 -175.5t-77 -157t-126.5 -114t-169 -43.5q-140 0 -211.5 86t-71.5 227q0 89 27 175.5t75.5 157.5t126 115t170.5 44zM464 642q-66 0 -117 -56t-74.5 -129.5t-23.5 -143.5v-23l305 320q-34 32 -90 32zM377 144
q66 0 118.5 56t77.5 129.5t25 142.5q0 16 -1 24l-307 -322q30 -30 87 -30z" />
    <glyph glyph-name="uniE09D" unicode="&#xe09d;" horiz-adv-x="840" 
d="M650 200q-3 -12 -3 -24q0 -50 64 -50q31 0 53 6l-34 -125q-32 -14 -83 -14q-164 0 -164 140q0 32 10 70l53 198h-221l-105 -401h-158l105 401h-106l35 133h106l23 79q13 45 29.5 78t44 63.5t70 46.5t99.5 16q70 0 102 -19l-33 -127q-23 10 -50 10q-86 0 -111 -86l-17 -61
h224l44 167h156l-45 -167h130l-36 -133h-128z" />
    <glyph glyph-name="at.case" unicode="&#xf633;" horiz-adv-x="871" 
d="M636 191q-32 0 -62.5 15.5t-41.5 43.5q-23 -25 -58.5 -42.5t-67.5 -17.5q-58 0 -100 45t-42 106q0 93 69.5 171t163.5 78q29 0 54.5 -14.5t33.5 -40.5l16 51l115 -1l-74 -249q-4 -16 -4 -25q0 -29 28 -29q41 0 74.5 34t49 78.5t15.5 84.5q0 108 -84 175.5t-192 67.5
q-148 0 -258 -113t-110 -265q0 -128 79 -204t207 -76q54 0 115 19.5t107 50.5l31 -60q-46 -37 -121 -60t-138 -23q-154 0 -255 97t-101 252q0 122 59.5 226t163 165.5t224.5 61.5q138 0 243.5 -85.5t105.5 -215.5q0 -76 -28.5 -143.5t-85.5 -112.5t-131 -45zM496 480
q-42 0 -75.5 -37t-33.5 -79q0 -27 16 -45.5t42 -18.5q42 0 75.5 40t33.5 82q0 27 -16 42.5t-42 15.5z" />
    <glyph glyph-name="dollar.lowercase" unicode="&#xf653;" horiz-adv-x="533" 
d="M330 319q61 -24 95.5 -57t34.5 -89q0 -76 -56.5 -125t-139.5 -58l-24 -92h-128l28 104q-58 19 -92.5 60t-34.5 101v4l139 22q-1 -37 24 -58t61 -21q27 0 47.5 13t20.5 35q0 28 -36 43l-60 23q-118 47 -118 139q0 74 56.5 125t135.5 58l24 91h128l-30 -112
q48 -22 77.5 -60.5t29.5 -89.5l-139 -15q0 30 -21 48.5t-49 18.5q-24 0 -43 -12.5t-19 -33.5q0 -28 34 -41z" />
    <glyph glyph-name="uniF6C3" unicode="&#xf6c3;" horiz-adv-x="0" 
d="M-290 -314q73 47 106 101q-14 -6 -30 -6q-27 0 -44 17.5t-17 44.5q0 40 28 69t68 29q35 0 57 -24t22 -60q0 -63 -43.5 -120t-106.5 -95z" />
    <glyph glyph-name="uniF730" unicode="&#xf730;" horiz-adv-x="655" 
d="M304 -12q-117 0 -187.5 69.5t-70.5 178.5q0 122 91.5 216t218.5 94q117 0 187.5 -69.5t70.5 -178.5q0 -122 -91.5 -216t-218.5 -94zM348 404q-64 0 -107 -53t-43 -111q0 -52 32 -81t84 -29q64 0 106 53t42 111q0 53 -31 81.5t-83 28.5z" />
    <glyph glyph-name="uniF731" unicode="&#xf731;" horiz-adv-x="434" 
d="M223 374l-123 -61l-51 102l237 119h137l-140 -534h-158z" />
    <glyph glyph-name="uniF732" unicode="&#xf732;" horiz-adv-x="524" 
d="M-5 38q17 74 70.5 132t126.5 87l87 34q80 31 80 84q0 22 -16 34.5t-44 12.5q-41 0 -64.5 -30.5t-23.5 -62.5l-133 18q13 92 78 146t160 54q81 0 132.5 -46t51.5 -113q0 -138 -177 -205l-79 -32q-38 -13 -48 -28h236l-32 -123h-413z" />
    <glyph glyph-name="uniF733" unicode="&#xf733;" horiz-adv-x="547" 
d="M401 262q67 -31 67 -106q0 -76 -66 -122t-177 -46q-85 0 -143 43.5t-62 125.5l127 21q2 -36 25.5 -56t58.5 -20q42 0 69 17.5t27 47.5q0 49 -73 49h-40l28 107h32q103 0 103 59q0 51 -74 51q-64 0 -98 -61l-121 39q33 64 93.5 100t141.5 36q91 0 144 -42t53 -109
q0 -50 -32 -86t-83 -48z" />
    <glyph glyph-name="uniF734" unicode="&#xf734;" horiz-adv-x="574" 
d="M240 0l25 97h-270l41 153l308 284h175l-83 -315h86l-32 -122h-86l-26 -97h-138zM297 219l46 173l-189 -173h143z" />
    <glyph glyph-name="uniF735" unicode="&#xf735;" horiz-adv-x="508" 
d="M191 -11q-80 0 -139 44.5t-51 124.5l131 24q-2 -31 15.5 -51t49.5 -20q36 0 63.5 24.5t27.5 61.5q0 24 -17.5 38t-41.5 14q-45 0 -78 -35l-112 35l122 285h336l-30 -119h-229l-40 -92q45 34 105 34q55 0 91.5 -41t36.5 -103q0 -99 -70 -161.5t-170 -62.5z" />
    <glyph glyph-name="uniF736" unicode="&#xf736;" horiz-adv-x="540" 
d="M337 545q104 0 180 -52l-57 -108q-55 40 -121 40q-50 0 -90 -30t-53 -79h1q43 39 110 39q71 0 120 -44t49 -114q0 -91 -65.5 -150t-157.5 -59q-98 0 -154 58.5t-56 157.5q0 132 83 236.5t211 104.5zM246 109q34 0 59.5 24.5t25.5 57.5q0 28 -19.5 44t-48.5 16
q-34 0 -58.5 -24t-24.5 -58q0 -28 19 -44t47 -16z" />
    <glyph glyph-name="uniF737" unicode="&#xf737;" horiz-adv-x="488" 
d="M324 411h-250l32 123h419l-32 -123l-303 -411h-183z" />
    <glyph glyph-name="uniF738" unicode="&#xf738;" horiz-adv-x="535" 
d="M398 263q62 -32 62 -106q0 -76 -66 -122t-159 -46q-81 0 -144.5 44t-63.5 116q0 103 117 146q-53 30 -53 95q0 69 61.5 113t151.5 44q81 0 139.5 -40t58.5 -112q0 -91 -104 -132zM299 430q-27 0 -48.5 -16t-21.5 -37q0 -22 20 -35.5t46 -13.5q28 0 49.5 16.5t21.5 37.5
q0 22 -20 35t-47 13zM245 220q-29 0 -54 -16t-25 -42t23 -41t52 -15q30 0 55 16t25 44q0 26 -23 40t-53 14z" />
    <glyph glyph-name="uniF739" unicode="&#xf739;" horiz-adv-x="541" 
d="M213 -12q-53 0 -93.5 10t-87.5 42l57 107q54 -39 122 -39q49 0 87.5 31t52.5 81h-1q-44 -41 -113 -41q-71 0 -119.5 44.5t-48.5 115.5q0 91 65 148.5t157 57.5q98 0 154 -60t56 -158q0 -85 -33.5 -161.5t-101 -127t-153.5 -50.5zM298 425q-34 0 -59.5 -24.5t-25.5 -57.5
q0 -29 19.5 -44.5t48.5 -15.5q34 0 58.5 24t24.5 58q0 28 -19 44t-47 16z" />
    <glyph glyph-name="Aring.alt" horiz-adv-x="798" 
d="M712 1000q0 -68 -48.5 -118.5t-122.5 -50.5q-56 0 -93.5 35t-37.5 92q0 68 50 118t122 50q58 0 94 -35.5t36 -90.5zM622 991q0 23 -13.5 36.5t-37.5 13.5q-29 0 -50 -22.5t-21 -51.5q0 -24 13.5 -37t37.5 -13q28 0 49.5 22.5t21.5 51.5zM218 168l-100 -168h-174l480 783
h200l121 -783h-166l-25 168h-336zM533 316l-41 309l-186 -309h227z" />
    <glyph glyph-name="OE.alt" horiz-adv-x="1131" 
d="M470 0q-197 0 -294.5 88t-97.5 241q0 57 15.5 115.5t55 120.5t98 109.5t154.5 78t216 30.5h595l-40 -150h-339l-44 -163h303l-40 -149h-303l-45 -171h342l-40 -150h-536zM668 631h-72q-155 0 -253 -80t-98 -214q0 -92 62 -139t173 -47h60z" />
    <glyph glyph-name="Q.alt" horiz-adv-x="937" 
d="M919 141l-37 -141h-445q-156 0 -256 94.5t-100 246.5q0 120 60 224t166.5 167t234.5 63q156 0 253.5 -96.5t97.5 -240.5q0 -113 -73 -214q-43 -59 -103 -100v-3h202zM523 642q-79 0 -143.5 -43.5t-98.5 -110t-34 -137.5q0 -91 54.5 -144.5t148.5 -53.5q116 0 196.5 89.5
t80.5 202.5q0 90 -54 143.5t-150 53.5z" />
    <glyph glyph-name="O.slash" horiz-adv-x="910" 
d="M546 795q160 0 258.5 -98t98.5 -247q0 -120 -58.5 -225t-167.5 -171t-243 -66q-153 0 -254 96t-101 250q0 122 60.5 227.5t169 169.5t237.5 64zM527 642q-121 0 -201 -92t-80 -206q0 -54 17 -91l359 372q-42 17 -95 17zM454 142q118 0 200 91.5t82 206.5q0 52 -18 93
l-360 -374q40 -17 96 -17z" />
    <glyph glyph-name="a.alt" horiz-adv-x="597" 
d="M331 67q-75 -77 -163 -77q-67 0 -110 41t-43 99q0 84 64 127.5t151 48.5l113 7q58 4 58 52q0 24 -20 40t-57 16q-39 0 -71 -22t-43 -57l-129 39q19 65 89 115t177 50q88 0 147.5 -44.5t59.5 -123.5q0 -29 -10 -66l-83 -312h-147l19 66zM224 104q50 0 89 30t49 79l2 9
l-93 -6q-40 -3 -70 -17.5t-30 -46.5q0 -21 15.5 -34.5t37.5 -13.5z" />
    <glyph glyph-name="aacute.alt" horiz-adv-x="597" 
d="M436 811h190l-214 -188h-138zM331 67q-75 -77 -163 -77q-67 0 -110 41t-43 99q0 84 64 127.5t151 48.5l113 7q58 4 58 52q0 24 -20 40t-57 16q-39 0 -71 -22t-43 -57l-129 39q19 65 89 115t177 50q88 0 147.5 -44.5t59.5 -123.5q0 -29 -10 -66l-83 -312h-147l19 66z
M224 104q50 0 89 30t49 79l2 9l-93 -6q-40 -3 -70 -17.5t-30 -46.5q0 -21 15.5 -34.5t37.5 -13.5z" />
    <glyph glyph-name="abreve.alt" horiz-adv-x="597" 
d="M389 620q-74 0 -122.5 46t-48.5 119v13h115q0 -32 16.5 -52t47.5 -20t54 20.5t33 51.5h118q-20 -78 -77 -128t-136 -50zM331 67q-75 -77 -163 -77q-67 0 -110 41t-43 99q0 84 64 127.5t151 48.5l113 7q58 4 58 52q0 24 -20 40t-57 16q-39 0 -71 -22t-43 -57l-129 39
q19 65 89 115t177 50q88 0 147.5 -44.5t59.5 -123.5q0 -29 -10 -66l-83 -312h-147l19 66zM224 104q50 0 89 30t49 79l2 9l-93 -6q-40 -3 -70 -17.5t-30 -46.5q0 -21 15.5 -34.5t37.5 -13.5z" />
    <glyph glyph-name="uni01CE.alt" horiz-adv-x="597" 
d="M230 798h127l37 -91l85 91h139l-166 -174h-146zM331 67q-75 -77 -163 -77q-67 0 -110 41t-43 99q0 84 64 127.5t151 48.5l113 7q58 4 58 52q0 24 -20 40t-57 16q-39 0 -71 -22t-43 -57l-129 39q19 65 89 115t177 50q88 0 147.5 -44.5t59.5 -123.5q0 -29 -10 -66l-83 -312
h-147l19 66zM224 104q50 0 89 30t49 79l2 9l-93 -6q-40 -3 -70 -17.5t-30 -46.5q0 -21 15.5 -34.5t37.5 -13.5z" />
    <glyph glyph-name="acircumflex.alt" horiz-adv-x="597" 
d="M560 624h-127l-37 91l-85 -91h-139l167 174h145zM331 67q-75 -77 -163 -77q-67 0 -110 41t-43 99q0 84 64 127.5t151 48.5l113 7q58 4 58 52q0 24 -20 40t-57 16q-39 0 -71 -22t-43 -57l-129 39q19 65 89 115t177 50q88 0 147.5 -44.5t59.5 -123.5q0 -29 -10 -66
l-83 -312h-147l19 66zM224 104q50 0 89 30t49 79l2 9l-93 -6q-40 -3 -70 -17.5t-30 -46.5q0 -21 15.5 -34.5t37.5 -13.5z" />
    <glyph glyph-name="adieresis.alt" horiz-adv-x="597" 
d="M285 778q32 0 51.5 -20t19.5 -50q0 -36 -27 -63.5t-67 -27.5q-31 0 -51 19t-20 50q0 37 27 64.5t67 27.5zM510 778q32 0 52 -20t20 -50q0 -36 -27 -63.5t-67 -27.5q-31 0 -51 19t-20 50q0 37 27 64.5t66 27.5zM331 67q-75 -77 -163 -77q-67 0 -110 41t-43 99
q0 84 64 127.5t151 48.5l113 7q58 4 58 52q0 24 -20 40t-57 16q-39 0 -71 -22t-43 -57l-129 39q19 65 89 115t177 50q88 0 147.5 -44.5t59.5 -123.5q0 -29 -10 -66l-83 -312h-147l19 66zM224 104q50 0 89 30t49 79l2 9l-93 -6q-40 -3 -70 -17.5t-30 -46.5q0 -21 15.5 -34.5
t37.5 -13.5z" />
    <glyph glyph-name="agrave.alt" horiz-adv-x="597" 
d="M417 623h-118l-109 187h172zM331 67q-75 -77 -163 -77q-67 0 -110 41t-43 99q0 84 64 127.5t151 48.5l113 7q58 4 58 52q0 24 -20 40t-57 16q-39 0 -71 -22t-43 -57l-129 39q19 65 89 115t177 50q88 0 147.5 -44.5t59.5 -123.5q0 -29 -10 -66l-83 -312h-147l19 66z
M224 104q50 0 89 30t49 79l2 9l-93 -6q-40 -3 -70 -17.5t-30 -46.5q0 -21 15.5 -34.5t37.5 -13.5z" />
    <glyph glyph-name="amacron.alt" horiz-adv-x="597" 
d="M586 745l-31 -117h-364l31 117h364zM331 67q-75 -77 -163 -77q-67 0 -110 41t-43 99q0 84 64 127.5t151 48.5l113 7q58 4 58 52q0 24 -20 40t-57 16q-39 0 -71 -22t-43 -57l-129 39q19 65 89 115t177 50q88 0 147.5 -44.5t59.5 -123.5q0 -29 -10 -66l-83 -312h-147l19 66
zM224 104q50 0 89 30t49 79l2 9l-93 -6q-40 -3 -70 -17.5t-30 -46.5q0 -21 15.5 -34.5t37.5 -13.5z" />
    <glyph glyph-name="aogonek.alt" horiz-adv-x="597" 
d="M332 -120q0 -23 20.5 -35t44.5 -12q2 0 6.5 0.5t5.5 0.5l-24 -95q-26 -5 -62 -5q-53 0 -93 26.5t-40 78.5q0 26 12.5 50t37.5 46t42 34.5t47 30.5h-15l19 66l-2 1q-75 -77 -163 -77q-67 0 -110 41t-43 99q0 84 64 127.5t151 48.5l113 7q58 4 58 52q0 24 -20 40t-57 16
q-39 0 -71 -22t-43 -57l-129 39q19 65 89 115t177 50q88 0 147.5 -44.5t59.5 -123.5q0 -29 -10 -66l-83 -312q-27 -14 -52 -29.5t-51 -42t-26 -48.5zM224 104q50 0 89 30t49 79l2 9l-93 -6q-40 -3 -70 -17.5t-30 -46.5q0 -21 15.5 -34.5t37.5 -13.5z" />
    <glyph glyph-name="aring.alt" horiz-adv-x="597" 
d="M331 67q-75 -77 -163 -77q-67 0 -110 41t-43 99q0 84 64 127.5t151 48.5l113 7q58 4 58 52q0 24 -20 40t-57 16q-39 0 -71 -22t-43 -57l-129 39q11 41 47 79.5t90 61.5q-10 21 -10 53q0 68 49.5 118t121.5 50q58 0 94 -36t36 -90q0 -57 -36 -101q81 -46 81 -138
q0 -29 -10 -66l-83 -312h-147l19 66zM369 658q-29 0 -50.5 -22.5t-21.5 -52.5q0 -23 14 -36t37 -13q29 0 50 22t21 51q0 24 -13.5 37.5t-36.5 13.5zM224 104q50 0 89 30t49 79l2 9l-93 -6q-40 -3 -70 -17.5t-30 -46.5q0 -21 15.5 -34.5t37.5 -13.5z" />
    <glyph glyph-name="atilde.alt" horiz-adv-x="597" 
d="M453 624q-37 0 -76 23.5t-57 23.5q-29 0 -43 -46h-97l6 25q14 59 49.5 94t92.5 35q34 0 73.5 -23t56.5 -23q32 0 48 44h94l-7 -25q-32 -128 -140 -128zM331 67q-75 -77 -163 -77q-67 0 -110 41t-43 99q0 84 64 127.5t151 48.5l113 7q58 4 58 52q0 24 -20 40t-57 16
q-39 0 -71 -22t-43 -57l-129 39q19 65 89 115t177 50q88 0 147.5 -44.5t59.5 -123.5q0 -29 -10 -66l-83 -312h-147l19 66zM224 104q50 0 89 30t49 79l2 9l-93 -6q-40 -3 -70 -17.5t-30 -46.5q0 -21 15.5 -34.5t37.5 -13.5z" />
    <glyph glyph-name="l.alt" horiz-adv-x="360" 
d="M373 814l-162 -614q-3 -12 -3 -24q0 -50 60 -50q32 0 52 6l-32 -125q-34 -14 -84 -14q-73 0 -116.5 33.5t-43.5 106.5q0 32 10 70l161 611h158z" />
    <glyph glyph-name="lslash.alt" horiz-adv-x="449" 
d="M470 536l-39 -150l-121 -57l-35 -129q-3 -12 -3 -24q0 -50 61 -50q30 0 52 6l-33 -125q-34 -14 -84 -14q-73 0 -116.5 33.5t-43.5 106.5q0 32 10 70l10 38l-111 -54l40 151l110 52l112 424h158l-88 -337z" />
    <glyph glyph-name="y.alt" horiz-adv-x="613" 
d="M87 534h158l38 -350l216 350h175l-364 -559q-92 -142 -162 -191t-159 -49q-63 0 -93 17l33 124q19 -7 40 -7q56 0 98 28t93 108z" />
    <glyph glyph-name="aring.alt2" horiz-adv-x="597" 
d="M554 771q0 -68 -48.5 -118.5t-122.5 -50.5q-56 0 -93.5 35t-37.5 92q0 68 50 118t122 50q58 0 94 -35.5t36 -90.5zM464 762q0 23 -13.5 36.5t-36.5 13.5q-29 0 -50.5 -22.5t-21.5 -51.5q0 -24 14 -37.5t37 -13.5q29 0 50 23t21 52zM331 67q-75 -77 -163 -77
q-67 0 -110 41t-43 99q0 84 64 127.5t151 48.5l113 7q58 4 58 52q0 24 -20 40t-57 16q-39 0 -71 -22t-43 -57l-129 39q19 65 89 115t177 50q88 0 147.5 -44.5t59.5 -123.5q0 -29 -10 -66l-83 -312h-147l19 66zM224 104q50 0 89 30t49 79l2 9l-93 -6q-40 -3 -70 -17.5
t-30 -46.5q0 -21 15.5 -34.5t37.5 -13.5z" />
    <glyph glyph-name="i.loclTRK" horiz-adv-x="305" 
d="M287 817q37 0 61.5 -23t24.5 -60q1 -46 -32 -78.5t-80 -32.5q-37 0 -61.5 23.5t-24.5 60.5q0 46 33 78t79 32zM5 0l141 534h159l-141 -534h-159z" />
    <glyph glyph-name="uni0414.alt" horiz-adv-x="899" 
d="M779 149h68l-84 -313h-161l44 164h-530l-44 -164h-161l84 313h63l434 634h194zM242 149h376l-62 467z" />
    <glyph glyph-name="uni041B.alt" horiz-adv-x="790" 
d="M736 0h-170l-84 600l-353 -600h-185l478 783h194z" />
    <glyph glyph-name="uni0434.alt" horiz-adv-x="715" 
d="M595 134h54l-79 -298h-144l43 164h-361l-43 -164h-145l79 298h60l294 400h160zM229 134h216l-43 241z" />
    <glyph glyph-name="uni0438.alt" horiz-adv-x="639" 
d="M204 -11q-68 0 -113 43t-45 115q0 34 19 104l75 283h157l-76 -288q-7 -26 -7 -47q0 -65 74 -65q85 0 113 105l78 295h157l-140 -534h-154l15 58h-2q-71 -69 -151 -69z" />
    <glyph glyph-name="uni0439.alt" horiz-adv-x="639" 
d="M422 618q-80 0 -125 49.5t-47 133.5l94 16q16 -91 90 -91t114 91l89 -15q-26 -86 -80.5 -135t-134.5 -49zM204 -11q-68 0 -113 43t-45 115q0 34 19 104l75 283h157l-76 -288q-7 -26 -7 -47q0 -65 74 -65q85 0 113 105l78 295h157l-140 -534h-154l15 58h-2
q-71 -69 -151 -69z" />
    <glyph glyph-name="uni043B.alt" horiz-adv-x="618" 
d="M536 0h-159l-39 351l-222 -351h-171l358 534h158z" />
    <glyph glyph-name="uni043F.alt" horiz-adv-x="638" 
d="M345 0l77 288q7 26 7 47q0 32 -20.5 48.5t-53.5 16.5q-44 0 -73 -29t-41 -76l-77 -295h-158l140 534h154l-14 -57h2q71 67 151 67q70 0 113.5 -42.5t43.5 -114.5q0 -38 -18 -104l-75 -283h-158z" />
    <glyph glyph-name="uni0446.alt" horiz-adv-x="678" 
d="M417 0h-75l15 58h-2q-71 -69 -151 -69q-68 0 -113 43t-45 115q0 34 19 104l75 283h157l-76 -288q-7 -26 -7 -47q0 -65 74 -65q85 0 113 105l78 295h157l-105 -400h68l-78 -298h-148z" />
    <glyph glyph-name="uni0448.alt" horiz-adv-x="968" 
d="M684 57q-69 -68 -148 -68q-46 0 -83.5 21.5t-52.5 63.5q-89 -85 -198 -85q-73 0 -114.5 44t-41.5 114q0 33 19 104l74 283h158l-76 -288q-7 -26 -7 -47q0 -65 72 -65q82 0 110 105l78 295h157l-75 -288q-8 -26 -8 -47q0 -65 70 -65q85 0 113 105l77 295h158l-114 -436
q-11 -42 -14 -79v-19h-157v18q0 17 5 39h-2z" />
    <glyph glyph-name="uni0449.alt" horiz-adv-x="1007" 
d="M684 57q-69 -68 -148 -68q-46 0 -83.5 21.5t-52.5 63.5q-89 -85 -198 -85q-73 0 -114.5 44t-41.5 114q0 33 19 104l74 283h158l-76 -288q-7 -26 -7 -47q0 -65 72 -65q82 0 110 105l78 295h157l-75 -288q-8 -35 -8 -47q0 -65 70 -65q85 0 113 105l77 295h158l-105 -400h68
l-78 -298h-147l43 164h-76l15 57h-2z" />
    <glyph glyph-name="one.alt" horiz-adv-x="570" 
d="M33 145h160l103 383h-171l30 112q71 2 139.5 40.5t93.5 102.5h137l-171 -638h169l-39 -145h-490z" />
    <glyph glyph-name="colon.case" horiz-adv-x="366" 
d="M253 455q-42 0 -69.5 27t-27.5 69q0 50 34.5 85t83.5 35q43 0 71 -27t28 -69q0 -50 -35 -85t-85 -35zM163 113q-43 0 -70.5 27t-27.5 69q0 50 34.5 85.5t84.5 35.5q42 0 70 -27.5t28 -69.5q0 -50 -35 -85t-84 -35z" />
    <glyph glyph-name="exclamdown.case" horiz-adv-x="347" 
d="M276 602q-37 0 -61.5 23t-24.5 60q0 46 32.5 78t79.5 32q37 0 61.5 -23t24.5 -60q0 -46 -32.5 -78t-79.5 -32zM194 0h-175l152 512h144z" />
    <glyph glyph-name="uni2E18.case" horiz-adv-x="594" 
d="M412 602q-37 0 -61.5 23t-24.5 60q0 47 32 79t79 32q37 0 61.5 -23.5t24.5 -59.5q0 -46 -32.5 -78.5t-78.5 -32.5zM257 -12q106 0 191 61t96 162l-133 15q-11 -42 -47.5 -71t-79.5 -29q-98 0 -98 82q0 33 24.5 71t53.5 62h2l-25 -114h141l61 312h-129q-29 -32 -87 -85
t-95 -88.5t-67.5 -87.5t-30.5 -102q0 -88 65 -138t158 -50z" />
    <glyph glyph-name="questiondown.case" horiz-adv-x="604" 
d="M367 601q-37 0 -61.5 23.5t-24.5 59.5q0 47 32.5 79t79.5 32q36 0 61 -23.5t25 -59.5q0 -46 -32.5 -78.5t-79.5 -32.5zM433 519q0 -21 -2 -31q-6 -41 -32 -76t-58.5 -59.5t-64 -47t-53 -50t-21.5 -58.5q0 -32 24 -48.5t58 -16.5q50 0 85 38.5t35 94.5l154 -13
q0 -116 -87.5 -190t-208.5 -74q-90 0 -157.5 49.5t-67.5 138.5q0 52 20.5 93.5t52.5 70t65.5 53t65 57t44.5 69.5h148z" />
    <glyph glyph-name="semicolon.case" horiz-adv-x="362" 
d="M246 454q-42 0 -69.5 27t-27.5 69q0 50 34.5 85t84.5 35q42 0 69.5 -27t27.5 -69q0 -50 -34.5 -85t-84.5 -35zM38 11q88 55 132 125q-19 -8 -37 -8q-33 0 -54.5 21.5t-21.5 55.5q0 50 35 86t84 36q44 0 71 -29.5t27 -74.5q0 -79 -54 -149t-131 -118z" />
    <glyph glyph-name="braceleft.case" horiz-adv-x="465" 
d="M264 -105q-78 0 -128.5 32.5t-50.5 106.5q0 43 23 107l37 93q10 30 10 46q0 15 -7.5 25t-16.5 15t-24.5 7.5t-25 3t-24.5 0.5l32 122q63 0 97 19t42 77l16 117q18 124 83.5 173t193.5 49h72l-32 -122h-55q-75 0 -101 -35.5t-37 -118.5l-14 -98q-9 -57 -43.5 -85.5
t-95.5 -37.5v-1q81 -20 81 -94q0 -30 -12 -60l-28 -72q-27 -71 -27 -97q0 -17 7 -27.5t21 -15t26 -6t29 -1.5h51l-32 -122h-67z" />
    </font>
</defs>
</svg>
