<?xml version="1.0" standalone="no"?>
<!DOCTYPE svg PUBLIC "-//W3C//DTD SVG 1.1//EN" "http://www.w3.org/Graphics/SVG/1.1/DTD/svg11.dtd" >
<svg xmlns="http://www.w3.org/2000/svg" xmlns:xlink="http://www.w3.org/1999/xlink" version="1.1">
<metadata>
Created by FontForge 20170731 at Wed Nov  1 16:20:36 2017
 By ,,,
Copyright (c) 2016 by THOMAS GILLETT. All rights reserved.
</metadata>
<defs>
<font id="Gordita-MediumItalic" horiz-adv-x="680" >
  <font-face 
    font-family="Medium"
    font-weight="500"
    font-style="italic"
    font-stretch="normal"
    units-per-em="1000"
    panose-1="0 0 0 0 0 0 0 0 0 0"
    ascent="800"
    descent="-200"
    x-height="534"
    cap-height="783"
    bbox="-262 -322 1454 1131"
    underline-thickness="50"
    underline-position="-200"
    slope="-14.5"
    unicode-range="U+0020-FB04"
  />
<missing-glyph horiz-adv-x="799" 
d="M750 0h-660v783h660v-783zM706 40v699h-577z" />
    <glyph glyph-name="ff" unicode="ff" horiz-adv-x="745" 
d="M641 430l-113 -430h-119l113 430h-230l-112 -430h-119l112 430h-104l28 104h104l26 92q29 104 86.5 147.5t144.5 43.5q48 0 76 -14l-27 -101q-24 9 -46 9q-19 0 -33.5 -3t-33 -13.5t-33.5 -35t-25 -62.5l-16 -63h230l25 92q28 104 86 147.5t145 43.5q50 0 76 -14
l-27 -101q-24 9 -45 9q-19 0 -33.5 -3t-33.5 -13.5t-33.5 -35t-24.5 -62.5l-16 -63h133l-27 -104h-134z" />
    <glyph glyph-name="fi" unicode="fi" horiz-adv-x="675" 
d="M407 0l114 430h-229l-112 -430h-119l112 430h-104l28 104h104l26 92q29 104 86.5 147.5t144.5 43.5q48 0 76 -14l-27 -101q-24 9 -46 9q-19 0 -33.5 -3t-33 -13.5t-33.5 -35t-25 -62.5l-16 -63h347l-141 -534h-119zM646 629q-31 0 -51 19.5t-20 50.5q0 36 25 61.5
t61 25.5q31 0 51 -19.5t20 -50.5q0 -36 -25.5 -61.5t-60.5 -25.5z" />
    <glyph glyph-name="fl" unicode="fl" horiz-adv-x="678" 
d="M292 430l-112 -430h-119l112 430h-104l28 104h104l26 92q29 104 86.5 147.5t144.5 43.5q48 0 76 -14l-27 -101q-24 9 -46 9q-19 0 -33.5 -3t-33 -13.5t-33.5 -35t-25 -62.5l-16 -63h231l74 280h119l-215 -814h-119l113 430h-231z" />
    <glyph glyph-name="ffi" unicode="ffi" horiz-adv-x="1026" 
d="M872 430h-230l-113 -430h-119l113 430h-231l-112 -430h-119l112 430h-104l28 104h104l25 92q29 104 86.5 147.5t144.5 43.5q49 0 77 -14l-27 -101q-24 9 -46 9q-19 0 -33.5 -3t-33 -13.5t-33.5 -35t-25 -62.5l-16 -63h231l25 92q28 104 85.5 147.5t145.5 43.5
q50 0 76 -14l-27 -101q-24 9 -45 9q-20 0 -34.5 -3t-33 -13.5t-33 -35t-24.5 -62.5l-16 -63h349l-141 -534h-120zM997 629q-31 0 -51 19.5t-20 50.5q0 36 25 61.5t61 25.5q31 0 51 -19.5t20 -50.5q0 -36 -25 -61.5t-61 -25.5z" />
    <glyph glyph-name="ffl" unicode="ffl" horiz-adv-x="1012" 
d="M180 0h-119l112 430h-104l28 104h105l25 92q28 104 85.5 147.5t145.5 43.5q50 0 76 -14l-27 -101q-24 9 -46 9q-19 0 -33.5 -3t-33 -13.5t-33.5 -35t-25 -62.5l-16 -63h231l25 92q28 104 85.5 147.5t145.5 43.5q50 0 76 -14l-27 -101q-24 9 -45 9q-27 0 -46 -5t-42.5 -32
t-36.5 -77l-17 -63h217l73 280h120l-215 -814h-119l113 430h-216l-113 -430h-119l112 430h-230z" />
    <glyph glyph-name=".notdef" horiz-adv-x="799" 
d="M750 0h-660v783h660v-783zM706 40v699h-577z" />
    <glyph glyph-name=".null" horiz-adv-x="0" 
 />
    <glyph glyph-name="nonmarkingreturn" horiz-adv-x="333" 
 />
    <glyph glyph-name="space" unicode=" " horiz-adv-x="264" 
 />
    <glyph glyph-name="exclam" unicode="!" horiz-adv-x="314" 
d="M101 242l131 541h131l-157 -541h-105zM100 -7q-31 0 -51 19.5t-20 50.5q0 36 25 61.5t61 25.5q31 0 51 -19.5t20 -50.5q0 -36 -25 -61.5t-61 -25.5z" />
    <glyph glyph-name="quotedbl" unicode="&#x22;" horiz-adv-x="464" 
d="M214 464h-55l6 161q1 26 2.5 41.5t7 39.5t14.5 37.5t26 24t41 10.5q28 0 46 -16.5t18 -44.5q0 -17 -14 -51zM418 464h-54l6 161q1 26 2.5 41.5t7 39.5t14.5 37.5t26 24t41 10.5q28 0 46 -16.5t18 -44.5q0 -21 -14 -51z" />
    <glyph glyph-name="numbersign" unicode="#" horiz-adv-x="799" 
d="M674 495l-68 -191h144l-26 -97h-151l-73 -207h-104l73 207h-196l-73 -207h-104l73 207h-129l25 97h138l67 191h-144l26 97h152l67 191h104l-67 -191h196l67 191h104l-67 -191h128l-25 -97h-137zM373 495l-67 -191h197l68 191h-198z" />
    <glyph glyph-name="dollar" unicode="$" horiz-adv-x="661" 
d="M200 -102l29 111q-113 35 -161 134q-22 46 -22 95q0 19 1 29l120 21q-1 -10 -1 -27q0 -107 93 -144l62 230l-17 7q-74 33 -115.5 78.5t-41.5 116.5q0 108 81 175t188 67q14 0 22 -1l27 101h80l-30 -114q56 -17 94 -55t52 -76t14 -76l-119 -20q0 10 -2.5 22.5t-8.5 31
t-22 36t-39 27.5l-61 -229l8 -3q83 -36 128 -82.5t45 -122.5q0 -94 -74.5 -164.5t-195.5 -70.5q-16 0 -28 1l-26 -98h-80zM271 567q0 -35 19 -57t57 -39l6 -3l57 214q-55 0 -97 -32.5t-42 -82.5zM478 219q0 34 -21 55.5t-67 41.5l-57 -212h1q59 0 101.5 30.5t42.5 84.5z" />
    <glyph glyph-name="percent" unicode="%" horiz-adv-x="935" 
d="M293 437q-69 0 -114 44.5t-45 113.5q0 81 56.5 138.5t137.5 57.5q69 0 114 -44.5t45 -113.5q0 -81 -56.5 -138.5t-137.5 -57.5zM905 783l-677 -783h-128l678 783h127zM300 535q34 0 60.5 29t26.5 64q0 30 -18 47.5t-47 17.5q-36 0 -61.5 -29t-25.5 -64q0 -29 18 -47
t47 -18zM679 -5q-69 0 -113.5 44t-44.5 113q0 81 56 138.5t137 57.5q69 0 114.5 -44.5t45.5 -113.5q0 -81 -56.5 -138t-138.5 -57zM686 92q35 0 61 29.5t26 64.5q0 29 -18 46.5t-47 17.5q-36 0 -61.5 -29t-25.5 -64q0 -29 18 -47t47 -18z" />
    <glyph glyph-name="ampersand" unicode="&#x26;" horiz-adv-x="738" 
d="M671 0h-130l-46 74q-116 -83 -231 -83q-99 0 -164.5 51t-65.5 143q0 160 228 248l10 4l-12 20q-48 80 -48 135q0 92 67 147t161 55q80 0 142 -51t62 -129q0 -138 -163 -200l-53 -20l96 -160q58 67 90 129l93 -45q-42 -86 -127 -171zM450 506q77 29 77 95q0 41 -27 66.5
t-67 25.5q-46 0 -75.5 -29t-29.5 -73q0 -33 35 -94l12 -20zM159 205q0 -48 33.5 -77t87.5 -29q82 0 164 61l-119 194l-34 -13q-55 -20 -93.5 -55t-38.5 -81z" />
    <glyph glyph-name="quotesingle" unicode="'" horiz-adv-x="259" 
d="M214 464h-55l6 161q1 26 2.5 41.5t7 39.5t14.5 37.5t26 24t41 10.5q28 0 46 -16.5t18 -44.5q0 -17 -14 -51z" />
    <glyph glyph-name="parenleft" unicode="(" horiz-adv-x="453" 
d="M184 287q0 -104 42.5 -184.5t121.5 -168.5l-65 -67q-212 176 -212 416q0 187 120 341.5t342 244.5l39 -80q-108 -48 -192.5 -117t-140 -170t-55.5 -215z" />
    <glyph glyph-name="parenright" unicode=")" horiz-adv-x="452" 
d="M329 452q0 103 -42.5 182.5t-122.5 169.5l65 67q212 -174 212 -416q0 -187 -120 -341t-342 -245l-39 80q169 75 279 205t110 298z" />
    <glyph glyph-name="asterisk" unicode="*" horiz-adv-x="515" 
d="M406 536l51 -136l-78 -30l-54 137l-115 -92l-52 65l113 92l-123 81l46 69l122 -79l39 144l84 -23l-39 -144l145 8l6 -83z" />
    <glyph glyph-name="plus" unicode="+" horiz-adv-x="616" 
d="M587 312h-209l-55 -206h-111l55 206h-209l28 107h209l55 203l111 1l-54 -203l209 -1z" />
    <glyph glyph-name="comma" unicode="," horiz-adv-x="308" 
d="M-4 -107q75 45 118 113q-12 -4 -25 -4q-29 0 -48.5 21t-19.5 52q0 41 30 68t69 27q40 0 61.5 -29t21.5 -67q0 -61 -47.5 -126.5t-114.5 -104.5z" />
    <glyph glyph-name="hyphen" unicode="-" horiz-adv-x="468" 
d="M72 264l33 121h325l-32 -121h-326z" />
    <glyph glyph-name="period" unicode="." horiz-adv-x="292" 
d="M100 -5q-34 0 -56.5 22t-22.5 56q0 40 28 68.5t68 28.5q35 0 57 -22t22 -56q0 -40 -28 -68.5t-68 -28.5z" />
    <glyph glyph-name="slash" unicode="/" horiz-adv-x="566" 
d="M104 -5h-129l568 820h130z" />
    <glyph glyph-name="zero" unicode="0" horiz-adv-x="785" 
d="M369 -9q-75 0 -132.5 29t-89.5 76t-47.5 99.5t-15.5 107.5q0 85 28.5 171.5t79 158t129 116.5t168.5 45q134 0 209.5 -89.5t75.5 -223.5q0 -67 -17.5 -136t-53 -132.5t-83 -113t-113 -79t-138.5 -29.5zM481 682q-81 0 -144.5 -64.5t-93.5 -149.5t-30 -165
q0 -86 39.5 -143t124.5 -57q63 0 116 39.5t85 99t49.5 123t17.5 117.5q0 86 -39.5 143t-124.5 57z" />
    <glyph glyph-name="one" unicode="1" horiz-adv-x="453" 
d="M282 0h-123l170 638l-175 -91l-50 97l270 139h117z" />
    <glyph glyph-name="two" unicode="2" horiz-adv-x="668" 
d="M-4 0q16 120 80.5 198.5t179.5 131.5l150 69q38 17 60 29.5t47 32.5t37 45.5t12 58.5q0 51 -37 84t-100 33q-75 0 -117 -45t-42 -120l-124 14q0 112 82.5 187.5t211.5 75.5q116 0 184.5 -67.5t68.5 -157.5q0 -160 -209 -257l-167 -76q-46 -21 -85.5 -55.5t-52.5 -70.5
h403l-30 -110h-552z" />
    <glyph glyph-name="three" unicode="3" horiz-adv-x="661" 
d="M295 -10q-113 0 -184.5 65t-71.5 163l121 24q-3 -63 38 -102t108 -39q59 0 110 36.5t51 97.5q0 48 -31 77.5t-89 29.5h-85l27 110h70q82 0 131 36.5t49 93.5q0 47 -33.5 75t-84.5 28q-54 0 -99.5 -28.5t-70.5 -83.5l-113 45q35 83 111.5 130t179.5 47q107 0 172.5 -60
t65.5 -142q0 -77 -50 -131t-128 -72v-1q49 -22 77.5 -64.5t28.5 -95.5q0 -101 -83.5 -170t-216.5 -69z" />
    <glyph glyph-name="four" unicode="4" horiz-adv-x="716" 
d="M535 174l-47 -174h-121l47 174h-403l38 143l491 466h157l-133 -499h117l-30 -110h-116zM538 640l-375 -356h280z" />
    <glyph glyph-name="five" unicode="5" horiz-adv-x="653" 
d="M604 292q0 -132 -89 -216.5t-224 -84.5q-114 0 -186.5 65t-70.5 163l120 24q-3 -63 36.5 -102.5t103.5 -39.5q77 0 130 51t53 125q0 54 -38 90.5t-95 36.5q-43 0 -82.5 -19.5t-59.5 -38.5l-107 51l165 386h440l-29 -110h-341l-88 -205q57 42 143 42q102 0 160.5 -67
t58.5 -151z" />
    <glyph glyph-name="six" unicode="6" horiz-adv-x="706" 
d="M694 646q-74 39 -157 39q-130 0 -224 -91q-74 -74 -95 -164h2q38 41 92.5 64t111.5 23q103 0 170.5 -63.5t67.5 -165.5q0 -125 -92.5 -211.5t-219.5 -86.5q-121 0 -194 73q-76 77 -76 224q0 104 39 206t111 175q123 126 316 126q130 0 206 -46zM536 275q0 63 -39.5 100
t-102.5 37q-75 0 -131 -48.5t-56 -122.5q0 -63 39 -100q38 -39 108 -39q76 0 129 48.5t53 124.5z" />
    <glyph glyph-name="seven" unicode="7" horiz-adv-x="613" 
d="M177 0h-144l517 673h-414l30 110h559l-29 -101z" />
    <glyph glyph-name="eight" unicode="8" horiz-adv-x="694" 
d="M328 -8q-114 0 -194.5 61t-80.5 154q0 84 55.5 138.5t148.5 76.5v1q-44 22 -73 64t-29 91q0 85 77.5 150.5t199.5 65.5q110 0 184 -58t74 -148q0 -73 -49.5 -124.5t-127.5 -71.5h-1q117 -53 117 -171q0 -94 -84 -161.5t-217 -67.5zM414 450q57 0 104.5 33.5t47.5 93.5
q0 48 -38.5 79.5t-103.5 31.5q-64 0 -107 -36t-43 -90q0 -47 39.5 -79.5t100.5 -32.5zM338 98q74 0 122.5 37t48.5 96q0 54 -44.5 89.5t-116.5 35.5q-76 0 -122.5 -39t-46.5 -97q0 -54 44 -88t115 -34z" />
    <glyph glyph-name="nine" unicode="9" horiz-adv-x="711" 
d="M699 491q0 -138 -52.5 -250.5t-157.5 -181.5t-244 -69q-134 0 -215 52l58 104q81 -45 162 -45q117 0 203 72t109 183h-2q-37 -41 -92 -63.5t-113 -22.5q-102 0 -170 64.5t-68 166.5q0 125 92 209t220 84q121 0 193 -72q77 -80 77 -231zM570 544q0 62 -38 100
q-41 39 -108 39q-75 0 -128.5 -49t-53.5 -125q0 -63 39.5 -99.5t102.5 -36.5q74 0 130 49t56 122z" />
    <glyph glyph-name="colon" unicode=":" horiz-adv-x="317" 
d="M203 368q-35 0 -56.5 21.5t-21.5 56.5q0 40 27.5 68t67.5 28q34 0 56.5 -21.5t22.5 -56.5q0 -40 -28 -68t-68 -28zM104 -5q-35 0 -57 22t-22 56q0 40 28 68.5t68 28.5q34 0 56.5 -22t22.5 -56q0 -40 -28 -68.5t-68 -28.5z" />
    <glyph glyph-name="semicolon" unicode=";" horiz-adv-x="328" 
d="M128 454q0 37 26 62.5t62 25.5q37 0 62 -25.5t25 -62.5q0 -36 -25.5 -61t-61.5 -25t-62 25.5t-26 60.5zM-1 -107q75 45 118 113q-12 -4 -25 -4q-29 0 -48.5 21t-19.5 52q0 41 30 68t69 27q40 0 61.5 -29t21.5 -67q0 -61 -47.5 -126.5t-114.5 -104.5z" />
    <glyph glyph-name="less" unicode="&#x3c;" horiz-adv-x="664" 
d="M684 621l-35 -125l-441 -174l349 -175l-29 -108l-481 247l23 88z" />
    <glyph glyph-name="equal" unicode="=" horiz-adv-x="631" 
d="M125 450l30 111h483l-30 -111h-483zM51 171l30 111h482l-29 -111h-483z" />
    <glyph glyph-name="greater" unicode="&#x3e;" horiz-adv-x="666" 
d="M21 39l35 125l442 174l-349 175l28 108l482 -246l-24 -88z" />
    <glyph glyph-name="question" unicode="?" horiz-adv-x="590" 
d="M121 539q2 108 83 181.5t200 73.5q91 0 156 -51t65 -133q0 -61 -24 -106.5t-60.5 -74t-74.5 -53.5t-72.5 -59t-47.5 -75h-111q8 55 31 96.5t51.5 64t60 44t57 38.5t42.5 44.5t17 64.5q0 40 -29 64t-74 24q-74 0 -109.5 -47.5t-35.5 -110.5zM244 -7q-31 0 -51 19.5
t-20 50.5q0 36 25 61.5t61 25.5q31 0 51 -19.5t20 -50.5q0 -36 -25 -61.5t-61 -25.5z" />
    <glyph glyph-name="at" unicode="@" horiz-adv-x="874" 
d="M863 416q0 -118 -66.5 -207.5t-176.5 -89.5q-34 0 -63.5 16.5t-40.5 45.5q-55 -62 -121 -62q-62 0 -104 47.5t-42 113.5q0 92 67.5 163.5t162.5 71.5q30 0 57 -15.5t35 -42.5l17 55h111l-75 -250q-5 -15 -5 -29q0 -31 31 -31q66 0 106 66.5t40 144.5q0 107 -85 174
t-199 67q-154 0 -264.5 -114.5t-110.5 -269.5q0 -130 82.5 -208.5t212.5 -78.5q113 0 219 69l28 -54q-47 -36 -119 -58.5t-134 -22.5q-153 0 -254.5 97t-101.5 251q0 122 59.5 226.5t162.5 166t224 61.5q138 0 242.5 -85.5t104.5 -217.5zM541 349q0 27 -17 44.5t-45 17.5
q-45 0 -79.5 -38.5t-34.5 -82.5q0 -29 17 -49t46 -20q46 0 79.5 41.5t33.5 86.5z" />
    <glyph glyph-name="A" unicode="A" horiz-adv-x="789" 
d="M601 0l-26 184h-381l-117 -184h-138l515 783h150l122 -783h-125zM560 293l-56 366l-239 -366h295z" />
    <glyph glyph-name="B" unicode="B" horiz-adv-x="744" 
d="M485 783q125 0 190.5 -52t65.5 -136q0 -73 -47.5 -125.5t-130.5 -71.5q120 -48 120 -162q0 -106 -87.5 -171t-245.5 -65h-316l209 783h242zM335 673l-59 -222h153q78 0 133 30.5t55 97.5q0 94 -138 94h-144zM248 344l-62 -234h181q90 0 142 35.5t52 97.5q0 47 -39.5 74
t-110.5 27h-163z" />
    <glyph glyph-name="C" unicode="C" horiz-adv-x="856" 
d="M432 -9q-151 0 -249.5 95.5t-98.5 248.5q0 187 135 323t327 136q78 0 141.5 -24.5t102.5 -64t62 -82.5t31 -87l-122 -36q-9 68 -66 124.5t-160 56.5q-93 0 -168 -51t-114.5 -128.5t-39.5 -162.5q0 -111 65.5 -173t166.5 -62q58 0 106.5 18t79.5 47.5t50 56.5t32 57
l117 -46q-18 -42 -50 -82.5t-79.5 -78.5t-117.5 -61.5t-151 -23.5z" />
    <glyph glyph-name="D" unicode="D" horiz-adv-x="820" 
d="M809 453q0 -176 -121 -302q-145 -151 -412 -151h-241l207 783h175q200 0 304 -99q88 -86 88 -231zM682 451q0 102 -69 160.5t-202 58.5h-76l-148 -557h103q172 0 282 95t110 243z" />
    <glyph glyph-name="E" unicode="E" horiz-adv-x="663" 
d="M536 0h-502l209 783h498l-29 -110h-376l-58 -220h341l-29 -110h-341l-63 -232h379z" />
    <glyph glyph-name="F" unicode="F" horiz-adv-x="648" 
d="M712 670h-376l-61 -228h347l-30 -112h-347l-88 -330h-123l209 783h499z" />
    <glyph glyph-name="G" unicode="G" horiz-adv-x="874" 
d="M874 550l-121 -37q-44 169 -221 169q-131 0 -224.5 -102t-93.5 -243q0 -103 59 -168.5t172 -65.5q106 0 174 54.5t85 122.5h-284l28 111h415q-13 -180 -127.5 -290t-303.5 -110q-167 0 -257.5 97t-90.5 243q0 197 136.5 330t323.5 133q62 0 115.5 -16t89.5 -41
t63.5 -58.5t41.5 -65t20 -63.5z" />
    <glyph glyph-name="H" unicode="H" horiz-adv-x="835" 
d="M541 0l91 339h-385l-90 -339h-123l209 783h123l-88 -329h385l87 329h124l-209 -783h-124z" />
    <glyph glyph-name="I" unicode="I" horiz-adv-x="328" 
d="M34 0l209 783h123l-209 -783h-123z" />
    <glyph glyph-name="J" unicode="J" horiz-adv-x="621" 
d="M235 -9q-89 0 -150 53.5t-61 158.5q0 39 12 83l10 36l122 3l-13 -47q-11 -36 -11 -69q0 -49 27.5 -76.5t73.5 -27.5q57 0 96.5 34t54.5 92l146 552h123l-149 -571q-29 -109 -102.5 -165t-178.5 -56z" />
    <glyph glyph-name="K" unicode="K" horiz-adv-x="709" 
d="M504 0l-248 372l-100 -372h-122l209 783h123l-90 -336l394 336h173l-463 -390l269 -393h-145z" />
    <glyph glyph-name="L" unicode="L" horiz-adv-x="590" 
d="M510 0h-476l209 783h123l-179 -670h354z" />
    <glyph glyph-name="M" unicode="M" horiz-adv-x="1042" 
d="M900 783h180l-209 -783h-122l155 583h-2l-396 -583h-101l-92 587h-2l-156 -587h-121l209 783h158l94 -598h2z" />
    <glyph glyph-name="N" unicode="N" horiz-adv-x="862" 
d="M779 783h121l-209 -783h-141l-231 610l-164 -610h-121l209 783h142l231 -610z" />
    <glyph glyph-name="O" unicode="O" horiz-adv-x="902" 
d="M430 -9q-154 0 -250.5 97t-96.5 244q0 118 58 223.5t164.5 172t236.5 66.5q155 0 252 -97t97 -243q0 -118 -58 -224t-165 -172.5t-238 -66.5zM443 104q90 0 164.5 51.5t114.5 130t40 162.5q0 102 -63 167.5t-169 65.5q-90 0 -164.5 -51.5t-114 -130t-39.5 -162.5
q0 -103 62.5 -168t168.5 -65z" />
    <glyph glyph-name="P" unicode="P" horiz-adv-x="697" 
d="M738 567q0 -128 -98.5 -202t-256.5 -74h-149l-77 -291h-123l209 783h220q127 0 201 -54.5t74 -161.5zM611 559q0 53 -39 82t-110 29h-126l-72 -268h126q103 0 162 42t59 115z" />
    <glyph glyph-name="Q" unicode="Q" horiz-adv-x="904" 
d="M430 -9q-154 0 -250.5 97t-96.5 244q0 118 58 223.5t164.5 172t236.5 66.5q155 0 252 -97t97 -243q0 -93 -38 -180.5t-107 -153.5l69 -91l-98 -67l-63 88q-104 -59 -224 -59zM443 104q75 0 144 40l-113 150l99 68l102 -144q87 105 87 230q0 102 -63 167.5t-169 65.5
q-90 0 -164.5 -51.5t-114 -130t-39.5 -162.5q0 -103 62.5 -168t168.5 -65z" />
    <glyph glyph-name="R" unicode="R" horiz-adv-x="728" 
d="M750 572q0 -101 -62.5 -166t-171.5 -89l101 -317h-134l-87 297h-160l-79 -297h-123l209 783h230q134 0 205.5 -55t71.5 -156zM623 561q0 109 -159 109h-128l-71 -263h134q104 0 164 42t60 112z" />
    <glyph glyph-name="S" unicode="S" horiz-adv-x="661" 
d="M481 217q0 37 -23.5 58.5t-77.5 45.5l-74 33q-75 33 -117 79t-42 118q0 109 82 176t190 67q71 0 125 -22.5t82 -57.5t41 -71t13 -71l-120 -20q0 50 -34 91.5t-113 41.5q-56 0 -98 -32.5t-42 -83.5q0 -63 76 -97l85 -37q83 -36 128.5 -82.5t45.5 -123.5q0 -95 -75 -166.5
t-197 -71.5q-88 0 -160 37t-109 112q-22 47 -22 96q0 20 1 30l122 21q-1 -9 -1 -27q0 -75 47 -117t122 -42q60 0 102.5 30.5t42.5 85.5z" />
    <glyph glyph-name="T" unicode="T" horiz-adv-x="656" 
d="M500 670l-180 -670h-123l179 670h-248l30 113h620l-30 -113h-248z" />
    <glyph glyph-name="U" unicode="U" horiz-adv-x="790" 
d="M362 -10q-123 0 -193.5 62t-70.5 174q0 56 16 114l118 443h123l-123 -461q-10 -40 -10 -79q0 -62 40 -100t112 -38q77 0 132 51.5t82 152.5l127 474h123l-132 -492q-80 -301 -344 -301z" />
    <glyph glyph-name="V" unicode="V" horiz-adv-x="771" 
d="M386 0h-141l-86 783h132l58 -639l401 639h139z" />
    <glyph glyph-name="W" unicode="W" horiz-adv-x="1180" 
d="M340 0h-140l-44 783h127l28 -614l336 614h134l43 -614l329 614h136l-431 -783h-140l-41 604z" />
    <glyph glyph-name="X" unicode="X" horiz-adv-x="732" 
d="M666 0h-143l-137 308l-285 -308h-163l396 409l-179 374h141l128 -284l265 284h163l-375 -387z" />
    <glyph glyph-name="Y" unicode="Y" horiz-adv-x="742" 
d="M440 303l-81 -303h-124l84 315l-161 468h134l115 -356l306 356h149z" />
    <glyph glyph-name="Z" unicode="Z" horiz-adv-x="664" 
d="M-30 0l28 106l568 568h-400l29 109h558l-28 -105l-570 -569h430l-29 -109h-586z" />
    <glyph glyph-name="bracketleft" unicode="[" horiz-adv-x="429" 
d="M-4 -126l265 993h296l-26 -94h-184l-215 -804h184l-25 -95h-295z" />
    <glyph glyph-name="backslash" unicode="\" horiz-adv-x="531" 
d="M176 815h110l146 -820h-109z" />
    <glyph glyph-name="bracketright" unicode="]" horiz-adv-x="429" 
d="M-66 -126l24 95h185l214 804h-184l26 94h296l-266 -993h-295z" />
    <glyph glyph-name="asciicircum" unicode="^" horiz-adv-x="615" 
d="M512 451l-81 218l-196 -218h-133l304 332h93l128 -332h-115z" />
    <glyph glyph-name="underscore" unicode="_" horiz-adv-x="539" 
d="M-116 -176l29 107h538l-29 -107h-538z" />
    <glyph glyph-name="grave" unicode="`" horiz-adv-x="229" 
d="M118 797h138l55 -172h-93z" />
    <glyph glyph-name="a" unicode="a" horiz-adv-x="672" 
d="M405 0l17 63q-77 -71 -170 -71q-94 0 -150.5 64t-56.5 162q0 136 90.5 231.5t207.5 95.5q64 0 109.5 -26t69.5 -67l22 82h119l-141 -534h-117zM493 305q0 59 -38 95.5t-97 36.5q-80 0 -133 -62t-53 -148q0 -57 35 -93t92 -36q74 0 134 61t60 146z" />
    <glyph glyph-name="b" unicode="b" horiz-adv-x="671" 
d="M334 -8q-129 0 -180 99l-24 -91h-116l214 814h119l-91 -344q76 74 168 74t149.5 -62.5t57.5 -163.5q0 -138 -90.5 -232t-206.5 -94zM324 98q77 0 131.5 61t54.5 148q0 59 -35 94.5t-91 35.5q-78 0 -136.5 -62t-58.5 -145q0 -58 37 -95t98 -37z" />
    <glyph glyph-name="c" unicode="c" horiz-adv-x="616" 
d="M301 -9q-115 0 -185 66t-70 176q0 125 93.5 218.5t218.5 93.5q101 0 162 -50.5t75 -119.5l-109 -32q-7 36 -41.5 65t-94.5 29q-75 0 -128.5 -62.5t-53.5 -137.5q0 -64 37 -101.5t103 -37.5q58 0 96.5 30t56.5 68l104 -38q-31 -67 -99.5 -117t-164.5 -50z" />
    <glyph glyph-name="d" unicode="d" horiz-adv-x="672" 
d="M522 0h-116q10 40 17 65q-76 -73 -170 -73t-151 64t-57 162q0 136 90.5 231.5t207.5 95.5q64 0 109.5 -26t69.5 -67l96 362h119zM493 305q0 59 -38 95.5t-97 36.5q-80 0 -133 -62t-53 -148q0 -57 35 -93t92 -36q74 0 134 61t60 146z" />
    <glyph glyph-name="e" unicode="e" horiz-adv-x="613" 
d="M165 232q-3 -65 37.5 -103t103.5 -38q49 0 86 25.5t55 57.5l93 -46q-28 -56 -90 -96.5t-152 -40.5q-110 0 -181 65t-71 175q0 126 93 220t215 94q103 0 164.5 -61.5t61.5 -164.5q0 -37 -14 -87h-401zM347 443q-56 0 -101.5 -33.5t-64.5 -87.5h279q1 5 1 12q0 53 -31 81
t-83 28z" />
    <glyph glyph-name="f" unicode="f" horiz-adv-x="396" 
d="M454 534l-28 -104h-134l-112 -430h-119l112 430h-104l28 104h104l26 92q28 104 85.5 147.5t145.5 43.5q48 0 76 -14l-27 -101q-24 9 -46 9q-19 0 -33.5 -3t-33 -13.5t-33.5 -35t-25 -62.5l-16 -63h134z" />
    <glyph glyph-name="g" unicode="g" horiz-adv-x="671" 
d="M664 534l-145 -550q-31 -117 -109.5 -184t-200.5 -67q-62 0 -111.5 20.5t-78 53t-43.5 68.5t-15 71l114 23q0 -49 34 -90t102 -41q148 0 190 154l21 81q-74 -66 -169 -66q-87 0 -146 64t-59 159q0 130 89.5 222t206.5 92q62 0 109.5 -26.5t71.5 -68.5l22 85h117zM489 312
q0 55 -34.5 90.5t-95.5 35.5q-77 0 -130.5 -57t-53.5 -139q0 -55 35.5 -92t91.5 -37q73 0 130 58.5t57 140.5z" />
    <glyph glyph-name="h" unicode="h" horiz-adv-x="632" 
d="M491 0h-119l77 293q8 27 8 53q0 42 -25.5 64t-70.5 22q-54 0 -95 -39t-56 -97l-77 -296h-120l215 814h119l-90 -340q78 71 160 71q78 0 122 -45t44 -118q0 -39 -16 -92z" />
    <glyph glyph-name="i" unicode="i" horiz-adv-x="281" 
d="M251 629q-31 0 -50.5 19.5t-19.5 50.5q0 36 25 61.5t61 25.5q31 0 51 -19.5t20 -50.5q0 -36 -25.5 -61.5t-61.5 -25.5zM13 0l141 534h119l-141 -534h-119z" />
    <glyph glyph-name="j" unicode="j" horiz-adv-x="289" 
d="M260 629q-31 0 -51 19.5t-20 50.5q0 36 25 61.5t61 25.5q30 0 50.5 -20t20.5 -50q0 -36 -25 -61.5t-61 -25.5zM162 534h119l-168 -640q-21 -79 -63 -119t-118 -40q-57 0 -91 18l26 99q23 -9 43 -9q70 0 90 78z" />
    <glyph glyph-name="k" unicode="k" horiz-adv-x="580" 
d="M374 0l-169 267h-2l-70 -267h-119l214 814h119l-128 -486h2l251 206h174l-317 -254l186 -280h-141z" />
    <glyph glyph-name="l" unicode="l" horiz-adv-x="281" 
d="M13 0l215 814h119l-215 -814h-119z" />
    <glyph glyph-name="m" unicode="m" horiz-adv-x="971" 
d="M710 0l78 293q7 31 7 53q0 41 -23.5 63.5t-65.5 22.5q-55 0 -93 -39t-54 -97l-78 -296h-119l78 293q7 31 7 53q0 42 -22.5 64t-64.5 22q-56 0 -95 -39.5t-54 -96.5l-78 -296h-119l140 534h117l-17 -62q76 73 159 73q51 0 90 -23t52 -68q82 91 202 91q75 0 120 -43.5
t45 -118.5q0 -36 -16 -93l-76 -290h-120z" />
    <glyph glyph-name="n" unicode="n" horiz-adv-x="632" 
d="M491 0h-119l77 293q8 27 8 53q0 42 -25.5 64t-70.5 22q-54 0 -95 -39t-56 -97l-77 -296h-119l140 534h117l-17 -62q78 73 163 73q78 0 122 -45t44 -118q0 -39 -16 -92z" />
    <glyph glyph-name="o" unicode="o" horiz-adv-x="649" 
d="M357 545q110 0 180.5 -66.5t70.5 -177.5q0 -123 -92.5 -216.5t-218.5 -93.5q-110 0 -180.5 66t-70.5 175q0 124 92.5 218.5t218.5 94.5zM304 98q75 0 128.5 63t53.5 137q0 66 -37 102.5t-99 36.5q-76 0 -129 -63t-53 -137q0 -65 37.5 -102t98.5 -37z" />
    <glyph glyph-name="p" unicode="p" horiz-adv-x="671" 
d="M334 -8q-127 0 -177 97l-94 -352h-119l210 797h117l-18 -67q74 77 171 77q92 0 150 -63t58 -163q0 -137 -91 -231.5t-207 -94.5zM324 98q77 0 131.5 61t54.5 148q0 59 -35 94.5t-91 35.5q-78 0 -136.5 -62t-58.5 -145q0 -58 37 -95t98 -37z" />
    <glyph glyph-name="q" unicode="q" horiz-adv-x="671" 
d="M419 62q-76 -70 -168 -70t-149 64t-57 162q0 136 90.5 231.5t207.5 95.5q64 0 110.5 -26.5t70.5 -69.5l22 85h117l-210 -797h-120zM299 98q74 0 134 61t60 146q0 59 -38 95.5t-97 36.5q-80 0 -133 -62t-53 -148q0 -57 35 -93t92 -36z" />
    <glyph glyph-name="r" unicode="r" horiz-adv-x="396" 
d="M414 410q-26 7 -44 7q-59 0 -104 -40.5t-62 -105.5l-71 -271h-119l140 534h117l-19 -70q72 75 157 75q20 0 38 -4z" />
    <glyph glyph-name="s" unicode="s" horiz-adv-x="500" 
d="M305 147q0 40 -50 61l-58 26q-111 51 -111 138q0 71 55 121.5t144 50.5q53 0 92.5 -16t60 -42t29.5 -51.5t10 -50.5l-104 -16q0 29 -23.5 55.5t-67.5 26.5q-37 0 -57 -19t-20 -43q0 -34 39 -52l68 -29q116 -52 116 -145q0 -67 -53.5 -120t-150.5 -53q-143 0 -190 99
q-15 30 -15 65q0 6 1 13l103 18q-1 -5 -1 -9q0 -39 30 -64.5t72 -25.5q35 0 58 19t23 43z" />
    <glyph glyph-name="t" unicode="t" horiz-adv-x="418" 
d="M418 427h-132l-64 -246q-5 -17 -5 -32q0 -47 70 -47q22 0 46 6l-28 -102q-40 -11 -67 -11q-67 0 -106 32.5t-39 97.5q0 19 10 55l64 247h-102l28 107h102l44 165h118l-43 -165h133z" />
    <glyph glyph-name="u" unicode="u" horiz-adv-x="634" 
d="M483 0h-116l17 62q-78 -73 -162 -73q-77 0 -122 45t-45 117q0 33 15 93l77 290h119l-78 -293q-6 -23 -6 -53q0 -43 25 -64.5t70 -21.5q54 0 94.5 39t55.5 96l78 297h120z" />
    <glyph glyph-name="v" unicode="v" horiz-adv-x="599" 
d="M526 534h129l-363 -534h-120l-82 534h124l52 -394z" />
    <glyph glyph-name="w" unicode="w" horiz-adv-x="878" 
d="M449 534h120l22 -376h1l213 376h125l-311 -534h-125l-23 372h-3l-221 -372h-124l-30 534h121l14 -374h1z" />
    <glyph glyph-name="x" unicode="x" horiz-adv-x="570" 
d="M489 0h-134l-85 182l-176 -182h-147l276 276l-131 258h134l82 -172l167 172h147l-266 -268z" />
    <glyph glyph-name="y" unicode="y" horiz-adv-x="598" 
d="M134 -263h-132l175 266l-87 531h121l60 -398l254 398h129z" />
    <glyph glyph-name="z" unicode="z" horiz-adv-x="525" 
d="M-25 0l26 99l369 331h-274l28 104h427l-25 -95l-375 -335h290l-27 -104h-439z" />
    <glyph glyph-name="braceleft" unicode="{" horiz-adv-x="444" 
d="M122 213q27 64 -1 86t-93 22h-4l25 97h5q138 0 152 123l13 109q14 125 81 171t198 46h57l-25 -95h-45q-49 0 -80 -11t-47.5 -37t-23.5 -53t-12 -75l-9 -79q-3 -23 -11 -44.5t-24.5 -43.5t-47 -38t-72.5 -22v-1q47 -10 69 -41t21 -63t-15 -64l-31 -74q-16 -40 -23 -59
t-9.5 -42t8 -33t33 -16.5t62.5 -6.5h46l-25 -95h-47q-120 0 -169 56.5t-1 172.5z" />
    <glyph glyph-name="bar" unicode="|" horiz-adv-x="308" 
d="M-1 -116l269 1007h112l-269 -1007h-112z" />
    <glyph glyph-name="braceright" unicode="}" horiz-adv-x="443" 
d="M369 528q-26 -64 1.5 -86t92.5 -22h5l-26 -97h-5q-138 0 -152 -122l-13 -110q-14 -124 -81 -170.5t-198 -46.5h-57l25 95h46q39 0 67 8.5t44.5 21.5t27 37.5t15 48t8.5 60.5l9 80q3 23 11 44t24.5 43t47 38t72.5 22v1q-36 7 -57.5 26.5t-27 45t-2.5 50t12 47.5l31 73
q16 40 23 59t9.5 42t-8 32.5t-33 16t-62.5 6.5h-46l26 96h47q119 0 168 -56.5t2 -172.5z" />
    <glyph glyph-name="asciitilde" unicode="~" horiz-adv-x="636" 
d="M426 207q-43 0 -107 41t-94 41q-46 0 -84 -47l-63 65q62 94 153 94q39 0 77.5 -20.5t70 -41t54.5 -20.5q44 0 84 47l63 -65q-64 -94 -154 -94z" />
    <glyph glyph-name="exclamdown" unicode="&#xa1;" horiz-adv-x="297" 
d="M213 545q30 0 50 -19.5t20 -50.5q0 -36 -25 -61.5t-61 -25.5q-30 0 -50.5 20t-20.5 50q0 36 25.5 61.5t61.5 25.5zM-50 -245l157 541h104l-131 -541h-130z" />
    <glyph glyph-name="cent" unicode="&#xa2;" horiz-adv-x="639" 
d="M328 99q52 3 88 32.5t53 64.5l104 -38q-32 -68 -100 -117.5t-164 -49.5h-9l-24 -93h-76l27 103q-80 21 -126.5 82.5t-46.5 149.5q0 125 93 218.5t218 93.5h5l25 92h75l-27 -102q68 -18 108 -62t51 -98l-109 -32q-5 25 -25 49t-53 36zM176 237q0 -99 80 -129l87 329
q-70 -7 -118.5 -68t-48.5 -132z" />
    <glyph glyph-name="sterling" unicode="&#xa3;" horiz-adv-x="690" 
d="M556 562q1 6 1 19q0 44 -27.5 72t-71.5 28q-68 0 -103.5 -47.5t-35.5 -111.5q0 -28 7 -72h213l-27 -102h-178q-3 -74 -43 -140t-102 -98h195q54 0 89.5 29.5t45.5 83.5l116 -21q-18 -94 -83 -148t-161 -54h-396l30 115q73 22 126.5 90t54.5 143h-113l27 102h78
q-6 52 -6 77q0 114 78 190.5t193 76.5q87 0 152 -50.5t65 -134.5q0 -17 -3 -33z" />
    <glyph glyph-name="currency" unicode="&#xa4;" horiz-adv-x="752" 
d="M141 271q0 67 38 126h1l-86 88l73 73l89 -90q56 33 124 33t123 -33l89 89l73 -73l-85 -87q39 -58 39 -126q0 -57 -38 -125l-2 -3l87 -86l-73 -74l-89 91q-68 -34 -124 -34t-124 34l-89 -90l-73 74l87 86q-40 57 -40 127zM379 396q-55 0 -91.5 -35.5t-36.5 -90.5
q0 -54 36.5 -89.5t91.5 -35.5t91 35t36 90t-36 90.5t-91 35.5z" />
    <glyph glyph-name="yen" unicode="&#xa5;" horiz-adv-x="754" 
d="M707 392l-24 -92h-237l-21 -78h237l-24 -92h-238l-35 -130h-124l35 130h-234l24 92h235l21 78h-235l24 92h191l-123 391h132l103 -356l293 356h147l-332 -391h185z" />
    <glyph glyph-name="brokenbar" unicode="&#xa6;" horiz-adv-x="306" 
d="M275 501h-113l104 390h113zM-3 -116l104 390h113l-104 -390h-113z" />
    <glyph glyph-name="section" unicode="&#xa7;" horiz-adv-x="687" 
d="M673 391q0 -57 -46 -96t-130 -50q57 -43 57 -99q0 -71 -66.5 -114.5t-168.5 -43.5q-104 0 -176.5 52.5t-93.5 128.5l102 33q20 -56 69 -84.5t107 -28.5q43 0 70.5 16t27.5 42q0 21 -21.5 36.5t-70.5 30.5l-89 29q-158 50 -158 148q0 58 46.5 96.5t130.5 49.5
q-57 43 -57 98q0 71 66.5 115t167.5 44q105 0 172.5 -53.5t85.5 -125.5l-100 -35q-14 47 -55 80t-110 33q-43 0 -71 -16t-28 -42q0 -21 21 -37t70 -31l85 -25q163 -50 163 -151zM445 307q41 0 70 19.5t29 47.5q0 24 -24.5 40t-83.5 36l-30 9q-48 16 -92 16
q-41 0 -69.5 -19.5t-28.5 -47.5q0 -23 22 -39.5t73 -32.5l27 -9q60 -20 107 -20z" />
    <glyph glyph-name="dieresis" unicode="&#xa8;" horiz-adv-x="392" 
d="M184 620q-30 0 -49 18.5t-19 48.5q0 35 24 59.5t59 24.5q29 0 48.5 -19t19.5 -48q0 -35 -24 -59.5t-59 -24.5zM406 620q-30 0 -49 18.5t-19 48.5q0 35 24.5 59.5t58.5 24.5q29 0 48.5 -19t19.5 -48q0 -35 -24 -59.5t-59 -24.5z" />
    <glyph glyph-name="copyright" unicode="&#xa9;" horiz-adv-x="921" 
d="M497 -9q-165 0 -281.5 117.5t-116.5 283.5q0 167 116.5 284.5t281.5 117.5q164 0 281 -118t117 -284t-117 -283.5t-281 -117.5zM497 730q-138 0 -234 -98.5t-96 -239.5t96 -239t234 -98q139 0 235 98.5t96 238.5q0 141 -96.5 239.5t-234.5 98.5zM729 301
q-18 -62 -76.5 -109t-148.5 -47q-105 0 -176.5 71t-71.5 177q0 102 72 174t177 72q85 0 145 -44.5t76 -108.5l-96 -31q-10 34 -41 61t-84 27q-59 0 -99.5 -41.5t-40.5 -107.5t40 -109t101 -43q91 0 126 90z" />
    <glyph glyph-name="ordfeminine" unicode="&#xaa;" horiz-adv-x="556" 
d="M418 400q2 18 4 29q-54 -48 -115 -48q-67 0 -107 45t-40 114q0 94 64 160.5t147 66.5q80 0 123 -61l15 54h90l-82 -305q-7 -26 -9 -55v-13h-90v13zM377 681q-51 0 -86.5 -39.5t-35.5 -94.5q0 -35 23 -58t60 -23q48 0 88 39t40 93q0 37 -25.5 60t-63.5 23zM91 289h386
l-22 -84h-387z" />
    <glyph glyph-name="guillemotleft" unicode="&#xab;" horiz-adv-x="651" 
d="M185 291l111 -148l-79 -62l-166 220l282 221l55 -73zM447 291l112 -148l-80 -62l-167 220l283 221l55 -73z" />
    <glyph glyph-name="logicalnot" unicode="&#xac;" horiz-adv-x="691" 
d="M94 450l29 108h570l-84 -319h-114l56 211h-457z" />
    <glyph glyph-name="registered" unicode="&#xae;" horiz-adv-x="665" 
d="M404 258q-110 0 -188.5 78.5t-78.5 189.5t78.5 189.5t188.5 78.5q111 0 189.5 -78.5t78.5 -189.5t-78.5 -189.5t-189.5 -78.5zM404 744q-89 0 -151 -64t-62 -154t62 -153.5t151 -63.5q90 0 152.5 63.5t62.5 153.5t-62.5 154t-152.5 64zM408 483h-45v-110h-62v307h115
q53 0 79.5 -28.5t26.5 -69.5q0 -61 -53 -85l64 -124h-69zM459 581q0 41 -49 41h-47v-82h47q26 0 37.5 12.5t11.5 28.5z" />
    <glyph glyph-name="macron" unicode="&#xaf;" horiz-adv-x="372" 
d="M447 635h-347l25 95h347z" />
    <glyph glyph-name="degree" unicode="&#xb0;" horiz-adv-x="455" 
d="M302 432q-70 0 -115.5 45t-45.5 114q0 83 56.5 141t138.5 58q69 0 116 -45.5t47 -114.5q0 -83 -57.5 -140.5t-139.5 -57.5zM329 695q-38 0 -65 -28t-27 -66q0 -32 20.5 -53t52.5 -21q37 0 64.5 28.5t27.5 66.5q0 31 -21 52t-52 21z" />
    <glyph glyph-name="plusminus" unicode="&#xb1;" 
d="M378 189h-113l48 181h-213l29 108h213l47 178h114l-47 -178h212l-28 -108h-213zM575 131l-29 -107h-537l29 107h537z" />
    <glyph glyph-name="uni00B2" unicode="&#xb2;" horiz-adv-x="471" 
d="M536 761q0 -64 -39 -103.5t-111 -68.5l-50 -19q-54 -21 -75 -52h214l-24 -89h-340l8 29q35 134 175 189l64 25q40 16 59.5 34t19.5 49q0 20 -16.5 35t-46.5 15q-39 0 -59 -25.5t-27 -55.5l-95 13q12 64 60.5 110.5t129.5 46.5q69 0 111 -38.5t42 -94.5z" />
    <glyph glyph-name="uni00B3" unicode="&#xb3;" horiz-adv-x="452" 
d="M515 769q0 -42 -25.5 -73.5t-70.5 -42.5q56 -27 56 -93q0 -60 -55 -100t-136 -40q-66 0 -110.5 37t-46.5 102l93 15q3 -68 69 -68q36 0 61.5 17t25.5 45q0 47 -68 47h-33l23 86h27q46 0 69 16t23 43q0 23 -18 36t-47 13q-57 0 -87 -57l-86 30q53 112 184 112
q71 0 111.5 -36t40.5 -89z" />
    <glyph glyph-name="acute" unicode="&#xb4;" horiz-adv-x="291" 
d="M257 797h151l-183 -172h-115z" />
    <glyph glyph-name="uni00B5" unicode="&#xb5;" horiz-adv-x="664" 
d="M207 241q-7 -27 -7 -53q0 -43 25 -64.5t70 -21.5q54 0 95 39t56 96l77 297h120l-115 -436q-12 -45 -13 -79v-19h-119v19q1 22 6 43q-77 -72 -157 -72q-69 0 -100 28l-48 -182h-116l184 698h119z" />
    <glyph glyph-name="paragraph" unicode="&#xb6;" horiz-adv-x="554" 
d="M348 360q-226 8 -226 183q0 108 79.5 174t228.5 66h154l-209 -783h-123z" />
    <glyph glyph-name="periodcentered" unicode="&#xb7;" horiz-adv-x="301" 
d="M158 236q-35 0 -57 22t-22 56q0 41 28 69.5t68 28.5q34 0 56.5 -22.5t22.5 -56.5q0 -40 -28 -68.5t-68 -28.5z" />
    <glyph glyph-name="cedilla" unicode="&#xb8;" horiz-adv-x="212" 
d="M112 0q-21 -14 -32.5 -22.5t-31 -25.5t-29.5 -34.5t-10 -35.5q0 -42 68 -42h3l-22 -82q-20 -2 -31 -2q-50 0 -88.5 24.5t-38.5 70.5q0 76 120 149h92z" />
    <glyph glyph-name="uni00B9" unicode="&#xb9;" horiz-adv-x="350" 
d="M304 762l-112 -55l-39 75l191 99h94l-119 -451h-102z" />
    <glyph glyph-name="ordmasculine" unicode="&#xba;" horiz-adv-x="541" 
d="M377 767q77 0 126.5 -46t49.5 -123q0 -86 -65 -151.5t-153 -65.5q-77 0 -125.5 46t-48.5 123q0 86 64 151.5t152 65.5zM342 467q47 0 81.5 39.5t34.5 86.5q0 41 -24 64.5t-63 23.5q-48 0 -82 -39.5t-34 -86.5q0 -41 24 -64.5t63 -23.5zM90 289h383l-22 -84h-383z" />
    <glyph glyph-name="guillemotright" unicode="&#xbb;" horiz-adv-x="650" 
d="M227 312l-112 148l80 62l166 -221l-281 -220l-56 73zM489 312l-112 148l80 62l166 -221l-282 -220l-55 73z" />
    <glyph glyph-name="onequarter" unicode="&#xbc;" horiz-adv-x="989" 
d="M114 0l678 783h127l-677 -783h-128zM297 664l-111 -56l-40 76l191 99h94l-119 -452h-102zM707 0l24 92h-231l29 109l270 254h127l-72 -276h77l-23 -87h-77l-24 -92h-100zM754 179l44 170l-180 -170h136z" />
    <glyph glyph-name="onehalf" unicode="&#xbd;" horiz-adv-x="1021" 
d="M116 0l679 783h127l-678 -783h-128zM298 664l-111 -56l-40 76l192 99h94l-120 -452h-102zM983 333q0 -65 -39 -105t-111 -68l-50 -19q-54 -20 -75 -52h213l-23 -89h-340l7 30q38 134 176 188l64 26q41 16 59.5 33.5t18.5 48.5q0 21 -16 35.5t-47 14.5q-38 0 -58.5 -25.5
t-26.5 -56.5l-95 14q12 63 60.5 110t129.5 47q69 0 111 -38t42 -94z" />
    <glyph glyph-name="threequarters" unicode="&#xbe;" horiz-adv-x="1062" 
d="M488 671q0 -42 -25.5 -73.5t-70.5 -42.5q56 -27 56 -93q0 -60 -55 -99.5t-136 -39.5q-65 0 -109.5 36.5t-47.5 101.5l93 15q3 -68 70 -68q35 0 60.5 17t25.5 45q0 47 -67 47h-33l23 87h26q92 0 92 58q0 23 -17.5 36t-46.5 13q-58 0 -88 -57l-86 30q55 112 184 112
q71 0 111.5 -36t40.5 -89zM187 0l678 783h127l-677 -783h-128zM779 0l24 92h-230l28 109l271 254h127l-73 -276h77l-23 -87h-77l-24 -92h-100zM826 179l45 170l-180 -170h135z" />
    <glyph glyph-name="questiondown" unicode="&#xbf;" horiz-adv-x="578" 
d="M345 544q31 0 51 -19.5t20 -50.5q0 -36 -25 -61.5t-61 -25.5q-31 0 -51 20t-20 51q0 35 25 60.5t61 25.5zM468 -1q-2 -108 -83.5 -182t-199.5 -74q-90 0 -155.5 51.5t-65.5 132.5q0 52 17 93t43.5 66t60 50t63.5 45t56.5 50t38.5 65h111q-10 -64 -40 -110t-66.5 -70.5
t-71 -46t-58 -52.5t-23.5 -74q0 -39 29 -63t74 -24q74 0 109.5 47t35.5 110z" />
    <glyph glyph-name="Agrave" unicode="&#xc0;" horiz-adv-x="789" 
d="M589 855h-92l-100 172h138zM454 783l-515 -783h138l117 184h381l26 -184h125l-122 783h-150zM560 293h-295l239 366z" />
    <glyph glyph-name="Aacute" unicode="&#xc1;" horiz-adv-x="789" 
d="M633 1026h152l-184 -172h-115zM194 184l-117 -184h-138l515 783h150l122 -783h-125l-26 184h-381zM265 293h295l-56 366z" />
    <glyph glyph-name="Acircumflex" unicode="&#xc2;" horiz-adv-x="789" 
d="M348 854l190 172h93l92 -172h-107l-45 92l-98 -92h-125zM726 0h-125l-26 184h-381l-117 -184h-138l515 783h150zM504 659l-239 -366h295z" />
    <glyph glyph-name="Atilde" unicode="&#xc3;" horiz-adv-x="789" 
d="M763 1012q-30 -144 -137 -144q-32 0 -69.5 25t-58.5 25q-33 0 -50 -49h-83q16 67 46.5 106t91.5 39q30 0 70.5 -24.5t59.5 -24.5t33 14t21 33h76zM194 184l-117 -184h-138l515 783h150l122 -783h-125l-26 184h-381zM265 293h295l-56 366z" />
    <glyph glyph-name="Adieresis" unicode="&#xc4;" horiz-adv-x="789" 
d="M428 849q-30 0 -49 18.5t-19 48.5q0 35 24 59.5t58 24.5q29 0 49 -19t20 -48q0 -35 -24 -59.5t-59 -24.5zM660 849q-30 0 -49 18.5t-19 48.5q0 35 24 59.5t58 24.5q29 0 49 -19t20 -48q0 -35 -24 -59.5t-59 -24.5zM194 184l-117 -184h-138l515 783h150l122 -783h-125
l-26 184h-381zM265 293h295l-56 366z" />
    <glyph glyph-name="Aring" unicode="&#xc5;" horiz-adv-x="789" 
d="M601 0l-26 184h-381l-117 -184h-138l487 740q-36 34 -36 86q0 65 47.5 111t112.5 46q55 0 92 -33t37 -88q0 -79 -67 -128l114 -734h-125zM543 906q-28 0 -48.5 -22.5t-20.5 -50.5q0 -23 15 -36.5t37 -13.5q29 0 49.5 22t20.5 51q0 23 -15 36.5t-38 13.5zM504 659
l-239 -366h295z" />
    <glyph glyph-name="AE" unicode="&#xc6;" horiz-adv-x="1066" 
d="M67 0h-142l634 783h587l-30 -110h-375l-58 -220h340l-29 -110h-342l-61 -232h378l-29 -111h-500l50 184h-275zM303 293h216l101 381h-12z" />
    <glyph glyph-name="Ccedilla" unicode="&#xc7;" horiz-adv-x="856" 
d="M445 104q58 0 106.5 18t79.5 47.5t50 56.5t32 57l117 -46q-36 -86 -124 -157.5t-220 -85.5q11 -33 11 -60q0 -86 -55.5 -132t-154.5 -46q-51 0 -88 15l21 77q38 -9 69 -9q117 0 117 119q0 16 -3 34q-140 9 -229.5 103t-89.5 240q0 187 135 323t327 136q78 0 141.5 -24.5
t102.5 -64t62 -82.5t31 -87l-122 -36q-9 68 -66 124.5t-160 56.5q-93 0 -168 -51t-114.5 -128.5t-39.5 -162.5q0 -111 65.5 -173t166.5 -62z" />
    <glyph glyph-name="Egrave" unicode="&#xc8;" horiz-adv-x="663" 
d="M548 855h-92l-100 172h138zM249 343h341l29 110h-341l58 220h376l29 110h-498l-209 -783h502l29 111h-379z" />
    <glyph glyph-name="Eacute" unicode="&#xc9;" horiz-adv-x="663" 
d="M589 1026h151l-183 -172h-116zM243 783h498l-29 -110h-376l-58 -220h341l-29 -110h-341l-63 -232h379l-29 -111h-502z" />
    <glyph glyph-name="Ecircumflex" unicode="&#xca;" horiz-adv-x="663" 
d="M588 1026l92 -172h-107l-45 92l-98 -92h-125l190 172h93zM243 783h498l-29 -110h-376l-58 -220h341l-29 -110h-341l-63 -232h379l-29 -111h-502z" />
    <glyph glyph-name="Edieresis" unicode="&#xcb;" horiz-adv-x="663" 
d="M395 849q-30 0 -49 18.5t-19 48.5q0 35 24 59.5t59 24.5q29 0 48.5 -19t19.5 -48q0 -35 -24 -59.5t-59 -24.5zM627 849q-30 0 -49 18.5t-19 48.5q0 35 24.5 59.5t58.5 24.5q29 0 48.5 -19t19.5 -48q0 -35 -24 -59.5t-59 -24.5zM243 783h498l-29 -110h-376l-58 -220h341
l-29 -110h-341l-63 -232h379l-29 -111h-502z" />
    <glyph glyph-name="Igrave" unicode="&#xcc;" horiz-adv-x="328" 
d="M366 855h-93l-100 172h139zM243 783l-209 -783h123l209 783h-123z" />
    <glyph glyph-name="Iacute" unicode="&#xcd;" horiz-adv-x="328" 
d="M409 1026h152l-184 -172h-115zM366 783l-209 -783h-123l209 783h123z" />
    <glyph glyph-name="Icircumflex" unicode="&#xce;" horiz-adv-x="328" 
d="M402 1026l93 -172h-108l-45 92l-98 -92h-124l189 172h93zM366 783l-209 -783h-123l209 783h123z" />
    <glyph glyph-name="Idieresis" unicode="&#xcf;" horiz-adv-x="328" 
d="M216 849q-29 0 -48.5 19t-19.5 49q0 34 24.5 58.5t58.5 24.5q30 0 49 -18.5t19 -48.5q0 -35 -24.5 -59.5t-58.5 -24.5zM435 849q-29 0 -48.5 19t-19.5 49q0 34 24 58.5t58 24.5q30 0 49.5 -18.5t19.5 -48.5q0 -35 -24.5 -59.5t-58.5 -24.5zM366 783l-209 -783h-123
l209 783h123z" />
    <glyph glyph-name="Eth" unicode="&#xd0;" horiz-adv-x="837" 
d="M737 684q89 -86 89 -231q0 -174 -121 -302q-146 -151 -413 -151h-241l91 343h-106l30 111h105l88 329h175q201 0 303 -99zM307 113q172 0 281.5 95t109.5 243q0 102 -69 160.5t-201 58.5h-76l-58 -216h175l-30 -111h-174l-62 -230h104z" />
    <glyph glyph-name="Ntilde" unicode="&#xd1;" horiz-adv-x="862" 
d="M803 1012q-30 -144 -136 -144q-33 0 -70.5 25t-58.5 25q-33 0 -50 -49h-83q16 67 46.5 106t91.5 39q30 0 70.5 -24.5t59.5 -24.5q37 0 55 47h75zM691 0h-141l-231 610l-164 -610h-121l209 783h142l231 -610l163 610h121z" />
    <glyph glyph-name="Ograve" unicode="&#xd2;" horiz-adv-x="902" 
d="M594 855h-93l-100 172h139zM430 -9q-154 0 -250.5 97t-96.5 244q0 118 58 223.5t164.5 172t236.5 66.5q155 0 252 -97t97 -243q0 -118 -58 -224t-165 -172.5t-238 -66.5zM443 104q90 0 164.5 51.5t114.5 130t40 162.5q0 102 -63 167.5t-169 65.5q-90 0 -164.5 -51.5
t-114 -130t-39.5 -162.5q0 -103 62.5 -168t168.5 -65z" />
    <glyph glyph-name="Oacute" unicode="&#xd3;" horiz-adv-x="902" 
d="M635 1026h151l-183 -172h-116zM430 -9q131 0 238 66.5t165 172.5t58 224q0 146 -97 243t-252 97q-130 0 -236.5 -66.5t-164.5 -172t-58 -223.5q0 -147 96.5 -244t250.5 -97zM443 104q-106 0 -168.5 65t-62.5 168q0 84 39.5 162.5t114 130t164.5 51.5q106 0 169 -65.5
t63 -167.5q0 -84 -40 -162.5t-114.5 -130t-164.5 -51.5z" />
    <glyph glyph-name="Ocircumflex" unicode="&#xd4;" horiz-adv-x="902" 
d="M646 1026l92 -172h-108l-45 92l-98 -92h-124l189 172h94zM430 -9q131 0 238 66.5t165 172.5t58 224q0 146 -97 243t-252 97q-130 0 -236.5 -66.5t-164.5 -172t-58 -223.5q0 -147 96.5 -244t250.5 -97zM443 104q-106 0 -168.5 65t-62.5 168q0 84 39.5 162.5t114 130
t164.5 51.5q106 0 169 -65.5t63 -167.5q0 -84 -40 -162.5t-114.5 -130t-164.5 -51.5z" />
    <glyph glyph-name="Otilde" unicode="&#xd5;" horiz-adv-x="902" 
d="M786 1012q-30 -144 -136 -144q-32 0 -70 25t-59 25q-34 0 -49 -49h-83q15 67 46 106t92 39q30 0 70 -24.5t60 -24.5q36 0 54 47h75zM430 -9q131 0 238 66.5t165 172.5t58 224q0 146 -97 243t-252 97q-130 0 -236.5 -66.5t-164.5 -172t-58 -223.5q0 -147 96.5 -244
t250.5 -97zM443 104q-106 0 -168.5 65t-62.5 168q0 84 39.5 162.5t114 130t164.5 51.5q106 0 169 -65.5t63 -167.5q0 -84 -40 -162.5t-114.5 -130t-164.5 -51.5z" />
    <glyph glyph-name="Odieresis" unicode="&#xd6;" horiz-adv-x="902" 
d="M458 849q-30 0 -49 18.5t-19 48.5q0 35 24 59.5t58 24.5q29 0 49 -19t20 -48q0 -35 -24.5 -59.5t-58.5 -24.5zM689 849q-29 0 -48 18.5t-19 48.5q0 35 24 59.5t58 24.5q29 0 48.5 -19t19.5 -48q0 -35 -24 -59.5t-59 -24.5zM430 -9q131 0 238 66.5t165 172.5t58 224
q0 146 -97 243t-252 97q-130 0 -236.5 -66.5t-164.5 -172t-58 -223.5q0 -147 96.5 -244t250.5 -97zM443 104q-106 0 -168.5 65t-62.5 168q0 84 39.5 162.5t114 130t164.5 51.5q106 0 169 -65.5t63 -167.5q0 -84 -40 -162.5t-114.5 -130t-164.5 -51.5z" />
    <glyph glyph-name="multiply" unicode="&#xd7;" horiz-adv-x="665" 
d="M577 138l-84 -64l-145 195l-240 -195l-66 82l242 198l-154 206l85 64l151 -204l250 204l67 -83l-253 -206z" />
    <glyph glyph-name="Oslash" unicode="&#xd8;" horiz-adv-x="901" 
d="M831 653q60 -85 60 -199q0 -118 -58 -224t-165 -172.5t-238 -66.5q-128 0 -222 72l-91 -86l-65 67l91 88q-60 85 -60 200q0 118 58 223.5t165 172t237 66.5t224 -73l93 89l65 -68zM531 683q-90 0 -165.5 -53t-115.5 -131.5t-40 -161.5q0 -68 27 -119l439 420
q-57 45 -145 45zM444 102q132 0 226.5 108t94.5 238q0 65 -28 118l-438 -420q57 -44 145 -44z" />
    <glyph glyph-name="Ugrave" unicode="&#xd9;" horiz-adv-x="790" 
d="M579 855h-93l-99 172h138zM362 -10q264 0 344 301l132 492h-123l-127 -474q-27 -101 -82 -152.5t-132 -51.5q-72 0 -112 38t-40 100q0 39 10 79l123 461h-123l-118 -443q-16 -58 -16 -114q0 -112 70.5 -174t193.5 -62z" />
    <glyph glyph-name="Uacute" unicode="&#xda;" horiz-adv-x="790" 
d="M637 1026h151l-184 -172h-115zM362 -10q-123 0 -193.5 62t-70.5 174q0 56 16 114l118 443h123l-123 -461q-10 -40 -10 -79q0 -62 40 -100t112 -38q77 0 132 51.5t82 152.5l127 474h123l-132 -492q-80 -301 -344 -301z" />
    <glyph glyph-name="Ucircumflex" unicode="&#xdb;" horiz-adv-x="790" 
d="M637 1026l92 -172h-107l-45 92l-98 -92h-125l189 172h94zM362 -10q-123 0 -193.5 62t-70.5 174q0 56 16 114l118 443h123l-123 -461q-10 -40 -10 -79q0 -62 40 -100t112 -38q77 0 132 51.5t82 152.5l127 474h123l-132 -492q-80 -301 -344 -301z" />
    <glyph glyph-name="Udieresis" unicode="&#xdc;" horiz-adv-x="790" 
d="M440 849q-29 0 -48 18.5t-19 48.5q0 35 24 59.5t58 24.5q29 0 48.5 -19t19.5 -48q0 -35 -24 -59.5t-59 -24.5zM672 849q-30 0 -49 18.5t-19 48.5q0 35 24.5 59.5t58.5 24.5q29 0 48.5 -19t19.5 -48q0 -35 -24 -59.5t-59 -24.5zM362 -10q-123 0 -193.5 62t-70.5 174
q0 56 16 114l118 443h123l-123 -461q-10 -40 -10 -79q0 -62 40 -100t112 -38q77 0 132 51.5t82 152.5l127 474h123l-132 -492q-80 -301 -344 -301z" />
    <glyph glyph-name="Yacute" unicode="&#xdd;" horiz-adv-x="742" 
d="M597 1026h152l-184 -172h-115zM235 0l84 315l-161 468h134l115 -356l306 356h149l-422 -480l-81 -303h-124z" />
    <glyph glyph-name="Thorn" unicode="&#xde;" horiz-adv-x="692" 
d="M426 643q127 0 200.5 -54t73.5 -162q0 -128 -98.5 -201.5t-256.5 -74.5h-148l-41 -151h-122l209 784h123l-38 -141h98zM573 419q0 53 -39 82t-110 29h-126l-71 -268h125q103 0 162 42t59 115z" />
    <glyph glyph-name="germandbls" unicode="&#xdf;" horiz-adv-x="661" 
d="M486 153q0 10 -3 19t-7 15t-11.5 13t-11.5 10t-12 8.5t-9 6.5l-26 19q-77 53 -77 121q0 93 102 141l35 16q78 37 78 92q0 46 -26.5 71t-75.5 25q-122 0 -162 -150l-147 -560h-119l153 585q62 232 283 232q93 0 152.5 -54t59.5 -136q0 -132 -142 -195l-34 -15
q-37 -17 -37 -41q0 -19 30 -40l35 -23q86 -57 86 -146q0 -28 -10.5 -57t-32 -56.5t-61.5 -45t-92 -17.5q-76 0 -126 40.5t-50 114.5q0 14 1 21l104 6v-9q0 -37 21.5 -56.5t58.5 -19.5q31 0 52 18.5t21 46.5z" />
    <glyph glyph-name="agrave" unicode="&#xe0;" horiz-adv-x="672" 
d="M409 625h-93l-100 172h138zM405 0l17 63q-77 -71 -170 -71q-94 0 -150.5 64t-56.5 162q0 136 90.5 231.5t207.5 95.5q64 0 109.5 -26t69.5 -67l22 82h119l-141 -534h-117zM493 305q0 59 -38 95.5t-97 36.5q-80 0 -133 -62t-53 -148q0 -57 35 -93t92 -36q74 0 134 61
t60 146z" />
    <glyph glyph-name="aacute" unicode="&#xe1;" horiz-adv-x="672" 
d="M455 797h151l-183 -172h-115zM405 0l17 63q-77 -71 -170 -71q-94 0 -150.5 64t-56.5 162q0 136 90.5 231.5t207.5 95.5q64 0 109.5 -26t69.5 -67l22 82h119l-141 -534h-117zM493 305q0 59 -38 95.5t-97 36.5q-80 0 -133 -62t-53 -148q0 -57 35 -93t92 -36q74 0 134 61
t60 146z" />
    <glyph glyph-name="acircumflex" unicode="&#xe2;" horiz-adv-x="672" 
d="M491 797l92 -172h-107l-45 92l-98 -92h-125l189 172h94zM405 0l17 63q-77 -71 -170 -71q-94 0 -150.5 64t-56.5 162q0 136 90.5 231.5t207.5 95.5q64 0 109.5 -26t69.5 -67l22 82h119l-141 -534h-117zM493 305q0 59 -38 95.5t-97 36.5q-80 0 -133 -62t-53 -148
q0 -57 35 -93t92 -36q74 0 134 61t60 146z" />
    <glyph glyph-name="atilde" unicode="&#xe3;" horiz-adv-x="672" 
d="M628 777q-30 -143 -136 -143q-32 0 -69.5 25t-58.5 25q-35 0 -50 -49h-83q16 67 46.5 105.5t91.5 38.5q30 0 70.5 -24.5t59.5 -24.5q35 0 54 47h75zM405 0l17 63q-77 -71 -170 -71q-94 0 -150.5 64t-56.5 162q0 136 90.5 231.5t207.5 95.5q64 0 109.5 -26t69.5 -67l22 82
h119l-141 -534h-117zM493 305q0 59 -38 95.5t-97 36.5q-80 0 -133 -62t-53 -148q0 -57 35 -93t92 -36q74 0 134 61t60 146z" />
    <glyph glyph-name="adieresis" unicode="&#xe4;" horiz-adv-x="672" 
d="M296 620q-29 0 -48 18.5t-19 48.5q0 35 24 59.5t58 24.5q29 0 48.5 -19t19.5 -48q0 -35 -24 -59.5t-59 -24.5zM519 620q-30 0 -49 18.5t-19 48.5q0 35 24 59.5t58 24.5q29 0 49 -19t20 -48q0 -35 -24 -59.5t-59 -24.5zM405 0l17 63q-77 -71 -170 -71q-94 0 -150.5 64
t-56.5 162q0 136 90.5 231.5t207.5 95.5q64 0 109.5 -26t69.5 -67l22 82h119l-141 -534h-117zM493 305q0 59 -38 95.5t-97 36.5q-80 0 -133 -62t-53 -148q0 -57 35 -93t92 -36q74 0 134 61t60 146z" />
    <glyph glyph-name="aring" unicode="&#xe5;" horiz-adv-x="672" 
d="M566 759q0 -63 -45.5 -109.5t-113.5 -46.5q-56 0 -93 33t-37 87q0 63 46.5 110t113.5 47q55 0 92 -33.5t37 -87.5zM483 752q0 24 -15 37.5t-38 13.5q-29 0 -49 -23t-20 -51q0 -23 15 -36t38 -13q29 0 49 22.5t20 49.5zM405 0l17 63q-77 -71 -170 -71q-94 0 -150.5 64
t-56.5 162q0 136 90.5 231.5t207.5 95.5q64 0 109.5 -26t69.5 -67l22 82h119l-141 -534h-117zM493 305q0 59 -38 95.5t-97 36.5q-80 0 -133 -62t-53 -148q0 -57 35 -93t92 -36q74 0 134 61t60 146z" />
    <glyph glyph-name="ae" unicode="&#xe6;" horiz-adv-x="945" 
d="M421 104q-90 -113 -224 -113h-6q-71 0 -121 38.5t-50 103.5q0 76 58.5 122.5t152.5 52.5l128 8q57 4 57 60q0 34 -27.5 50.5t-63.5 16.5q-51 0 -87.5 -29.5t-46.5 -64.5l-105 33q6 22 24.5 48.5t49 53t77.5 44t101 17.5q117 0 158 -76q82 76 190 76q102 0 163.5 -61.5
t61.5 -164.5q0 -42 -14 -87h-401q-3 -65 38 -103t104 -38q49 0 86 25.5t55 57.5l93 -46q-28 -56 -90 -96.5t-152 -40.5q-72 0 -126 29.5t-83 83.5zM794 335q0 53 -31.5 80.5t-84.5 27.5q-56 0 -101.5 -33.5t-64.5 -87.5h281q1 5 1 13zM272 229q-131 -10 -131 -83
q0 -28 19.5 -44.5t48.5 -16.5q57 0 105.5 38.5t61.5 96.5l4 15z" />
    <glyph glyph-name="ccedilla" unicode="&#xe7;" horiz-adv-x="616" 
d="M308 98q58 0 96.5 30t56.5 68l104 -38q-26 -60 -85.5 -107.5t-141.5 -57.5q11 -31 11 -59q0 -86 -55.5 -132t-154.5 -46q-52 0 -87 15l21 77q36 -9 68 -9q117 0 117 119q0 16 -3 36q-95 13 -152 77t-57 162q0 125 93.5 218.5t218.5 93.5q101 0 162 -50.5t75 -119.5
l-109 -32q-7 36 -41.5 65t-94.5 29q-75 0 -128.5 -62.5t-53.5 -137.5q0 -64 37 -101.5t103 -37.5z" />
    <glyph glyph-name="egrave" unicode="&#xe8;" horiz-adv-x="613" 
d="M413 625h-93l-100 172h138zM165 232q-3 -65 37.5 -103t103.5 -38q49 0 86 25.5t55 57.5l93 -46q-28 -56 -90 -96.5t-152 -40.5q-110 0 -181 65t-71 175q0 126 93 220t215 94q103 0 164.5 -61.5t61.5 -164.5q0 -37 -14 -87h-401zM347 443q-56 0 -101.5 -33.5t-64.5 -87.5
h279q1 5 1 12q0 53 -31 81t-83 28z" />
    <glyph glyph-name="eacute" unicode="&#xe9;" horiz-adv-x="613" 
d="M453 797h151l-184 -172h-115zM165 232q-3 -65 37.5 -103t103.5 -38q49 0 86 25.5t55 57.5l93 -46q-28 -56 -90 -96.5t-152 -40.5q-110 0 -181 65t-71 175q0 126 93 220t215 94q103 0 164.5 -61.5t61.5 -164.5q0 -37 -14 -87h-401zM347 443q-56 0 -101.5 -33.5
t-64.5 -87.5h279q1 5 1 12q0 53 -31 81t-83 28z" />
    <glyph glyph-name="ecircumflex" unicode="&#xea;" horiz-adv-x="613" 
d="M460 797l93 -172h-108l-45 92l-98 -92h-124l189 172h93zM165 232q-3 -65 37.5 -103t103.5 -38q49 0 86 25.5t55 57.5l93 -46q-28 -56 -90 -96.5t-152 -40.5q-110 0 -181 65t-71 175q0 126 93 220t215 94q103 0 164.5 -61.5t61.5 -164.5q0 -37 -14 -87h-401zM347 443
q-56 0 -101.5 -33.5t-64.5 -87.5h279q1 5 1 12q0 53 -31 81t-83 28z" />
    <glyph glyph-name="edieresis" unicode="&#xeb;" horiz-adv-x="613" 
d="M296 771q29 0 49 -19t20 -48q0 -35 -24 -59.5t-59 -24.5q-30 0 -49 18.5t-19 48.5q0 35 24 59.5t58 24.5zM504 620q-30 0 -49 18.5t-19 48.5q0 35 24.5 59.5t58.5 24.5q29 0 48.5 -19t19.5 -48q0 -35 -24 -59.5t-59 -24.5zM165 232q-3 -65 37.5 -103t103.5 -38
q49 0 86 25.5t55 57.5l93 -46q-28 -56 -90 -96.5t-152 -40.5q-110 0 -181 65t-71 175q0 126 93 220t215 94q103 0 164.5 -61.5t61.5 -164.5q0 -37 -14 -87h-401zM347 443q-56 0 -101.5 -33.5t-64.5 -87.5h279q1 5 1 12q0 53 -31 81t-83 28z" />
    <glyph glyph-name="igrave" unicode="&#xec;" horiz-adv-x="281" 
d="M273 625h-92l-100 172h138zM154 534l-141 -534h120l140 534h-119z" />
    <glyph glyph-name="iacute" unicode="&#xed;" horiz-adv-x="281" 
d="M326 797h151l-184 -172h-115zM273 534l-140 -534h-120l141 534h119z" />
    <glyph glyph-name="icircumflex" unicode="&#xee;" horiz-adv-x="281" 
d="M322 797l93 -172h-108l-45 92l-98 -92h-124l189 172h93zM273 534l-140 -534h-120l141 534h119z" />
    <glyph glyph-name="idieresis" unicode="&#xef;" horiz-adv-x="281" 
d="M127 620q-30 0 -49 18.5t-19 48.5q0 35 24 59.5t59 24.5q29 0 48.5 -19t19.5 -48q0 -35 -24 -59.5t-59 -24.5zM349 620q-30 0 -49 18.5t-19 48.5q0 35 24.5 59.5t58.5 24.5q29 0 48.5 -19t19.5 -48q0 -35 -24 -59.5t-59 -24.5zM273 534l-140 -534h-120l141 534h119z" />
    <glyph glyph-name="eth" unicode="&#xf0;" horiz-adv-x="649" 
d="M495 656q114 -136 114 -323q0 -143 -86 -242.5t-229 -99.5q-109 0 -178.5 70t-69.5 173q0 110 81.5 196t192.5 86q47 0 91 -17.5t71 -52.5h3q-19 89 -89 164l-164 -73l-34 71l133 58q-49 41 -142 70l43 91q117 -38 204 -112l118 54l35 -71zM303 96q76 0 129 55.5
t53 128.5q0 61 -39 100t-103 39q-74 0 -126 -54.5t-52 -128.5q0 -65 38.5 -102.5t99.5 -37.5z" />
    <glyph glyph-name="ntilde" unicode="&#xf1;" horiz-adv-x="632" 
d="M627 777q-30 -143 -136 -143q-32 0 -69.5 25t-58.5 25q-35 0 -50 -49h-83q16 67 46.5 105.5t91.5 38.5q30 0 70.5 -24.5t59.5 -24.5q35 0 54 47h75zM449 293q8 27 8 53q0 42 -25.5 64t-70.5 22q-54 0 -95 -39t-56 -97l-77 -296h-119l140 534h117l-17 -62q78 73 163 73
q78 0 122 -45t44 -118q0 -39 -16 -92l-76 -290h-119z" />
    <glyph glyph-name="ograve" unicode="&#xf2;" horiz-adv-x="649" 
d="M415 625h-93l-99 172h138zM357 545q-126 0 -218.5 -94.5t-92.5 -218.5q0 -109 70.5 -175t180.5 -66q126 0 218.5 93.5t92.5 216.5q0 111 -70.5 177.5t-180.5 66.5zM304 98q-61 0 -98.5 37t-37.5 102q0 74 53 137t129 63q62 0 99 -36.5t37 -102.5q0 -74 -53.5 -137
t-128.5 -63z" />
    <glyph glyph-name="oacute" unicode="&#xf3;" horiz-adv-x="649" 
d="M454 797h151l-183 -172h-115zM357 545q110 0 180.5 -66.5t70.5 -177.5q0 -123 -92.5 -216.5t-218.5 -93.5q-110 0 -180.5 66t-70.5 175q0 124 92.5 218.5t218.5 94.5zM304 98q75 0 128.5 63t53.5 137q0 66 -37 102.5t-99 36.5q-76 0 -129 -63t-53 -137q0 -65 37.5 -102
t98.5 -37z" />
    <glyph glyph-name="ocircumflex" unicode="&#xf4;" horiz-adv-x="649" 
d="M465 797l92 -172h-107l-45 92l-98 -92h-125l190 172h93zM357 545q110 0 180.5 -66.5t70.5 -177.5q0 -123 -92.5 -216.5t-218.5 -93.5q-110 0 -180.5 66t-70.5 175q0 124 92.5 218.5t218.5 94.5zM304 98q75 0 128.5 63t53.5 137q0 66 -37 102.5t-99 36.5q-76 0 -129 -63
t-53 -137q0 -65 37.5 -102t98.5 -37z" />
    <glyph glyph-name="otilde" unicode="&#xf5;" horiz-adv-x="649" 
d="M608 777q-30 -143 -136 -143q-32 0 -69.5 25t-58.5 25q-35 0 -50 -49h-83q16 67 46.5 105.5t91.5 38.5q30 0 70.5 -24.5t59.5 -24.5q35 0 54 47h75zM357 545q110 0 180.5 -66.5t70.5 -177.5q0 -123 -92.5 -216.5t-218.5 -93.5q-110 0 -180.5 66t-70.5 175
q0 124 92.5 218.5t218.5 94.5zM304 98q75 0 128.5 63t53.5 137q0 66 -37 102.5t-99 36.5q-76 0 -129 -63t-53 -137q0 -65 37.5 -102t98.5 -37z" />
    <glyph glyph-name="odieresis" unicode="&#xf6;" horiz-adv-x="649" 
d="M290 620q-30 0 -49 18.5t-19 48.5q0 35 24 59.5t59 24.5q29 0 48.5 -19t19.5 -48q0 -35 -24 -59.5t-59 -24.5zM512 620q-30 0 -49 18.5t-19 48.5q0 35 24.5 59.5t58.5 24.5q29 0 48.5 -19t19.5 -48q0 -35 -24 -59.5t-59 -24.5zM357 545q110 0 180.5 -66.5t70.5 -177.5
q0 -123 -92.5 -216.5t-218.5 -93.5q-110 0 -180.5 66t-70.5 175q0 124 92.5 218.5t218.5 94.5zM304 98q75 0 128.5 63t53.5 137q0 66 -37 102.5t-99 36.5q-76 0 -129 -63t-53 -137q0 -65 37.5 -102t98.5 -37z" />
    <glyph glyph-name="divide" unicode="&#xf7;" horiz-adv-x="594" 
d="M380 522q-30 0 -49 18.5t-19 48.5q0 35 24.5 59.5t58.5 24.5q30 0 49 -19t19 -49q0 -35 -24.5 -59t-58.5 -24zM585 424l-29 -111h-486l29 111h486zM260 64q-30 0 -49.5 19t-19.5 49q0 35 24.5 59.5t58.5 24.5q30 0 49.5 -19t19.5 -49q0 -35 -24.5 -59.5t-58.5 -24.5z" />
    <glyph glyph-name="oslash" unicode="&#xf8;" horiz-adv-x="649" 
d="M569 442q39 -59 39 -141q0 -123 -92.5 -216.5t-218.5 -93.5q-87 0 -148 41l-67 -67l-59 61l64 65q-41 60 -41 141q0 124 92.5 218.5t218.5 94.5q86 0 150 -44l67 66l58 -60zM353 440q-80 0 -133.5 -63.5t-53.5 -139.5q0 -39 11 -60l248 245q-31 18 -72 18zM303 96
q77 0 131.5 63.5t54.5 138.5q0 33 -10 59l-247 -246q30 -15 71 -15z" />
    <glyph glyph-name="ugrave" unicode="&#xf9;" horiz-adv-x="634" 
d="M459 625h-92l-100 172h138zM483 0h-116l17 62q-78 -73 -162 -73q-77 0 -122 45t-45 117q0 33 15 93l77 290h119l-78 -293q-6 -23 -6 -53q0 -43 25 -64.5t70 -21.5q54 0 94.5 39t55.5 96l78 297h120z" />
    <glyph glyph-name="uacute" unicode="&#xfa;" horiz-adv-x="634" 
d="M488 797h152l-184 -172h-115zM483 0h-116l17 62q-78 -73 -162 -73q-77 0 -122 45t-45 117q0 33 15 93l77 290h119l-78 -293q-6 -23 -6 -53q0 -43 25 -64.5t70 -21.5q54 0 94.5 39t55.5 96l78 297h120z" />
    <glyph glyph-name="ucircumflex" unicode="&#xfb;" horiz-adv-x="634" 
d="M490 797l93 -172h-108l-45 92l-98 -92h-124l189 172h93zM483 0h-116l17 62q-78 -73 -162 -73q-77 0 -122 45t-45 117q0 33 15 93l77 290h119l-78 -293q-6 -23 -6 -53q0 -43 25 -64.5t70 -21.5q54 0 94.5 39t55.5 96l78 297h120z" />
    <glyph glyph-name="udieresis" unicode="&#xfc;" horiz-adv-x="634" 
d="M300 620q-30 0 -49 18.5t-19 48.5q0 35 24.5 59.5t58.5 24.5q29 0 48.5 -19t19.5 -48q0 -35 -24 -59.5t-59 -24.5zM522 620q-29 0 -48 18.5t-19 48.5q0 35 24 59.5t58 24.5q29 0 48.5 -19t19.5 -48q0 -35 -24 -59.5t-59 -24.5zM483 0h-116l17 62q-78 -73 -162 -73
q-77 0 -122 45t-45 117q0 33 15 93l77 290h119l-78 -293q-6 -23 -6 -53q0 -43 25 -64.5t70 -21.5q54 0 94.5 39t55.5 96l78 297h120z" />
    <glyph glyph-name="yacute" unicode="&#xfd;" horiz-adv-x="598" 
d="M475 797h151l-183 -172h-115zM177 3l-87 531h121l60 -398l254 398h129l-520 -797h-132z" />
    <glyph glyph-name="thorn" unicode="&#xfe;" horiz-adv-x="671" 
d="M334 -8q-127 0 -177 97l-94 -352h-119l284 1077h119l-90 -344q74 74 167 74q92 0 150 -63t58 -163q0 -137 -91 -231.5t-207 -94.5zM324 98q77 0 131.5 61t54.5 148q0 59 -35 94.5t-91 35.5q-78 0 -136.5 -62t-58.5 -145q0 -58 37 -95t98 -37z" />
    <glyph glyph-name="ydieresis" unicode="&#xff;" horiz-adv-x="598" 
d="M285 620q-30 0 -49 18.5t-19 48.5q0 35 24 59.5t59 24.5q29 0 48.5 -19t19.5 -48q0 -35 -24 -59.5t-59 -24.5zM507 620q-30 0 -49 18.5t-19 48.5q0 35 24.5 59.5t58.5 24.5q29 0 48.5 -19t19.5 -48q0 -35 -24 -59.5t-59 -24.5zM177 3l-87 531h121l60 -398l254 398h129
l-520 -797h-132z" />
    <glyph glyph-name="Amacron" unicode="&#x100;" horiz-adv-x="789" 
d="M717 889h-346l25 95h347zM194 184l-117 -184h-138l515 783h150l122 -783h-125l-26 184h-381zM265 293h295l-56 366z" />
    <glyph glyph-name="amacron" unicode="&#x101;" horiz-adv-x="672" 
d="M578 635h-347l26 95h347zM405 0l17 63q-77 -71 -170 -71q-94 0 -150.5 64t-56.5 162q0 136 90.5 231.5t207.5 95.5q64 0 109.5 -26t69.5 -67l22 82h119l-141 -534h-117zM493 305q0 59 -38 95.5t-97 36.5q-80 0 -133 -62t-53 -148q0 -57 35 -93t92 -36q74 0 134 61t60 146
z" />
    <glyph glyph-name="Abreve" unicode="&#x102;" horiz-adv-x="789" 
d="M535 853q-76 0 -118 46t-37 123h94q0 -82 69 -82q38 0 67 23t38 59h96q-23 -76 -77.5 -122.5t-131.5 -46.5zM194 184l-117 -184h-138l515 783h150l122 -783h-125l-26 184h-381zM265 293h295l-56 366z" />
    <glyph glyph-name="abreve" unicode="&#x103;" horiz-adv-x="672" 
d="M392 623q-76 0 -118 46.5t-37 123.5h94q0 -82 69 -82q38 0 67 23t38 59h96q-23 -77 -77.5 -123.5t-131.5 -46.5zM405 0l17 63q-77 -71 -170 -71q-94 0 -150.5 64t-56.5 162q0 136 90.5 231.5t207.5 95.5q64 0 109.5 -26t69.5 -67l22 82h119l-141 -534h-117zM493 305
q0 59 -38 95.5t-97 36.5q-80 0 -133 -62t-53 -148q0 -57 35 -93t92 -36q74 0 134 61t60 146z" />
    <glyph glyph-name="Aogonek" unicode="&#x104;" horiz-adv-x="789" 
d="M726 0q-104 -67 -104 -118q0 -42 68 -42h3l-22 -82q-20 -2 -31 -2q-49 0 -88 24.5t-39 70.5q0 76 120 149h-32l-26 184h-381l-117 -184h-138l515 783h150zM265 293h295l-56 366z" />
    <glyph glyph-name="aogonek" unicode="&#x105;" horiz-adv-x="672" 
d="M418 -118q0 -42 68 -42h3l-22 -82q-20 -2 -31 -2q-50 0 -88.5 24.5t-38.5 70.5q0 75 119 149h-23l17 63q-77 -71 -170 -71q-94 0 -150.5 64t-56.5 162q0 136 90.5 231.5t207.5 95.5q64 0 109.5 -26t69.5 -67l22 82h119l-141 -534q-104 -67 -104 -118zM493 305
q0 59 -38 95.5t-97 36.5q-80 0 -133 -62t-53 -148q0 -57 35 -93t92 -36q74 0 134 61t60 146z" />
    <glyph glyph-name="Cacute" unicode="&#x106;" horiz-adv-x="856" 
d="M644 1026h151l-184 -172h-115zM432 -9q-151 0 -249.5 95.5t-98.5 248.5q0 187 135 323t327 136q78 0 141.5 -24.5t102.5 -64t62 -82.5t31 -87l-122 -36q-9 68 -66 124.5t-160 56.5q-93 0 -168 -51t-114.5 -128.5t-39.5 -162.5q0 -111 65.5 -173t166.5 -62q58 0 106.5 18
t79.5 47.5t50 56.5t32 57l117 -46q-18 -42 -50 -82.5t-79.5 -78.5t-117.5 -61.5t-151 -23.5z" />
    <glyph glyph-name="cacute" unicode="&#x107;" horiz-adv-x="616" 
d="M458 797h151l-183 -172h-115zM301 -9q-115 0 -185 66t-70 176q0 125 93.5 218.5t218.5 93.5q101 0 162 -50.5t75 -119.5l-109 -32q-7 36 -41.5 65t-94.5 29q-75 0 -128.5 -62.5t-53.5 -137.5q0 -64 37 -101.5t103 -37.5q58 0 96.5 30t56.5 68l104 -38q-31 -67 -99.5 -117
t-164.5 -50z" />
    <glyph glyph-name="Ccircumflex" unicode="&#x108;" horiz-adv-x="856" 
d="M646 1026l93 -172h-108l-45 92l-98 -92h-124l189 172h93zM432 -9q-151 0 -249.5 95.5t-98.5 248.5q0 187 135 323t327 136q78 0 141.5 -24.5t102.5 -64t62 -82.5t31 -87l-122 -36q-9 68 -66 124.5t-160 56.5q-93 0 -168 -51t-114.5 -128.5t-39.5 -162.5q0 -111 65.5 -173
t166.5 -62q58 0 106.5 18t79.5 47.5t50 56.5t32 57l117 -46q-18 -42 -50 -82.5t-79.5 -78.5t-117.5 -61.5t-151 -23.5z" />
    <glyph glyph-name="ccircumflex" unicode="&#x109;" horiz-adv-x="616" 
d="M459 797l92 -172h-107l-45 92l-98 -92h-125l190 172h93zM301 -9q-115 0 -185 66t-70 176q0 125 93.5 218.5t218.5 93.5q101 0 162 -50.5t75 -119.5l-109 -32q-7 36 -41.5 65t-94.5 29q-75 0 -128.5 -62.5t-53.5 -137.5q0 -64 37 -101.5t103 -37.5q58 0 96.5 30t56.5 68
l104 -38q-31 -67 -99.5 -117t-164.5 -50z" />
    <glyph glyph-name="Cdotaccent" unicode="&#x10a;" horiz-adv-x="856" 
d="M565 849q-31 0 -51 19.5t-20 50.5q0 36 25 62t61 26q31 0 51 -20t20 -51q0 -36 -25 -61.5t-61 -25.5zM432 -9q-151 0 -249.5 95.5t-98.5 248.5q0 187 135 323t327 136q78 0 141.5 -24.5t102.5 -64t62 -82.5t31 -87l-122 -36q-9 68 -66 124.5t-160 56.5q-93 0 -168 -51
t-114.5 -128.5t-39.5 -162.5q0 -111 65.5 -173t166.5 -62q58 0 106.5 18t79.5 47.5t50 56.5t32 57l117 -46q-18 -42 -50 -82.5t-79.5 -78.5t-117.5 -61.5t-151 -23.5z" />
    <glyph glyph-name="cdotaccent" unicode="&#x10b;" horiz-adv-x="616" 
d="M378 621q-31 0 -51 19.5t-20 50.5q0 36 25 62t61 26q31 0 51 -20t20 -51q0 -36 -25 -61.5t-61 -25.5zM301 -9q-115 0 -185 66t-70 176q0 125 93.5 218.5t218.5 93.5q101 0 162 -50.5t75 -119.5l-109 -32q-7 36 -41.5 65t-94.5 29q-75 0 -128.5 -62.5t-53.5 -137.5
q0 -64 37 -101.5t103 -37.5q58 0 96.5 30t56.5 68l104 -38q-31 -67 -99.5 -117t-164.5 -50z" />
    <glyph glyph-name="Ccaron" unicode="&#x10c;" horiz-adv-x="856" 
d="M522 855l-92 172h108l45 -92l98 92h124l-189 -172h-94zM432 -9q-151 0 -249.5 95.5t-98.5 248.5q0 187 135 323t327 136q78 0 141.5 -24.5t102.5 -64t62 -82.5t31 -87l-122 -36q-9 68 -66 124.5t-160 56.5q-93 0 -168 -51t-114.5 -128.5t-39.5 -162.5q0 -111 65.5 -173
t166.5 -62q58 0 106.5 18t79.5 47.5t50 56.5t32 57l117 -46q-18 -42 -50 -82.5t-79.5 -78.5t-117.5 -61.5t-151 -23.5z" />
    <glyph glyph-name="ccaron" unicode="&#x10d;" horiz-adv-x="616" 
d="M338 625l-92 172h107l45 -92l98 92h125l-190 -172h-93zM301 -9q-115 0 -185 66t-70 176q0 125 93.5 218.5t218.5 93.5q101 0 162 -50.5t75 -119.5l-109 -32q-7 36 -41.5 65t-94.5 29q-75 0 -128.5 -62.5t-53.5 -137.5q0 -64 37 -101.5t103 -37.5q58 0 96.5 30t56.5 68
l104 -38q-31 -67 -99.5 -117t-164.5 -50z" />
    <glyph glyph-name="Dcaron" unicode="&#x10e;" horiz-adv-x="820" 
d="M431 855l-93 172h108l45 -92l98 92h124l-189 -172h-93zM809 453q0 -176 -121 -302q-145 -151 -412 -151h-241l207 783h175q200 0 304 -99q88 -86 88 -231zM682 451q0 102 -69 160.5t-202 58.5h-76l-148 -557h103q172 0 282 95t110 243z" />
    <glyph glyph-name="dcaron" unicode="&#x10f;" horiz-adv-x="691" 
d="M819 815h134l-121 -234h-90zM522 0h-116l17 65q-76 -73 -170 -73t-151 64t-57 162q0 136 90.5 231.5t207.5 95.5q64 0 109.5 -26t69.5 -67l96 362h119zM493 305q0 59 -38 95.5t-97 36.5q-80 0 -133 -62t-53 -148q0 -57 35 -93t92 -36q74 0 134 61t60 146z" />
    <glyph glyph-name="Dcroat" unicode="&#x110;" horiz-adv-x="837" 
d="M737 684q89 -86 89 -231q0 -174 -121 -302q-146 -151 -413 -151h-241l91 343h-106l30 111h105l88 329h175q201 0 303 -99zM307 113q172 0 281.5 95t109.5 243q0 102 -69 160.5t-201 58.5h-76l-58 -216h175l-30 -111h-174l-62 -230h104z" />
    <glyph glyph-name="dcroat" unicode="&#x111;" horiz-adv-x="672" 
d="M737 814l-26 -99h71l-23 -87h-71l-166 -628h-116l17 65q-76 -73 -170 -73t-151 64t-57 162q0 136 90.5 231.5t207.5 95.5q64 0 109.5 -26t69.5 -67l47 176h-166l23 87h166l26 99h119zM493 305q0 59 -38 95.5t-97 36.5q-80 0 -133 -62t-53 -148q0 -57 35 -93t92 -36
q74 0 134 61t60 146z" />
    <glyph glyph-name="Emacron" unicode="&#x112;" horiz-adv-x="663" 
d="M683 889h-347l25 95h347zM243 785h499l-30 -110h-375l-59 -220h342l-30 -110h-341l-62 -232h379l-29 -111h-503z" />
    <glyph glyph-name="emacron" unicode="&#x113;" horiz-adv-x="613" 
d="M553 635h-347l25 95h347zM165 232q-3 -65 37.5 -103t103.5 -38q49 0 86 25.5t55 57.5l93 -46q-28 -56 -90 -96.5t-152 -40.5q-110 0 -181 65t-71 175q0 126 93 220t215 94q103 0 164.5 -61.5t61.5 -164.5q0 -37 -14 -87h-401zM347 443q-56 0 -101.5 -33.5t-64.5 -87.5
h279q1 5 1 12q0 53 -31 81t-83 28z" />
    <glyph glyph-name="Edotaccent" unicode="&#x116;" horiz-adv-x="663" 
d="M500 849q-32 0 -51.5 19.5t-19.5 50.5q0 36 25 62t61 26q31 0 51 -20t20 -51q0 -36 -25 -61.5t-61 -25.5zM243 783h498l-29 -110h-376l-58 -220h341l-29 -110h-341l-63 -232h379l-29 -111h-502z" />
    <glyph glyph-name="edotaccent" unicode="&#x117;" horiz-adv-x="613" 
d="M373 621q-31 0 -51 19.5t-20 50.5q0 36 25 62t61 26q31 0 51 -20t20 -51q0 -36 -25 -61.5t-61 -25.5zM165 232q-3 -65 37.5 -103t103.5 -38q49 0 86 25.5t55 57.5l93 -46q-28 -56 -90 -96.5t-152 -40.5q-110 0 -181 65t-71 175q0 126 93 220t215 94q103 0 164.5 -61.5
t61.5 -164.5q0 -37 -14 -87h-401zM347 443q-56 0 -101.5 -33.5t-64.5 -87.5h279q1 5 1 12q0 53 -31 81t-83 28z" />
    <glyph glyph-name="Eogonek" unicode="&#x118;" horiz-adv-x="663" 
d="M243 783h498l-29 -110h-376l-58 -220h341l-29 -110h-341l-63 -232h379l-29 -111q-103 -67 -103 -118q0 -42 68 -42q22 0 47 5l-21 -80q-32 -9 -76 -9q-50 0 -89 24.5t-39 70.5q0 75 120 149h-409z" />
    <glyph glyph-name="eogonek" unicode="&#x119;" horiz-adv-x="613" 
d="M165 232q-3 -65 37.5 -103t103.5 -38q49 0 86 25.5t55 57.5l93 -46q-21 -43 -63.5 -78t-102.5 -50h7q-104 -67 -104 -118q0 -42 69 -42h3l-22 -82q-22 -2 -31 -2q-50 0 -89 24.5t-39 70.5q0 70 107 141q-101 7 -165 71.5t-64 167.5q0 126 93 220t215 94
q103 0 164.5 -61.5t61.5 -164.5q0 -37 -14 -87h-401zM347 443q-56 0 -101.5 -33.5t-64.5 -87.5h279q1 5 1 12q0 53 -31 81t-83 28z" />
    <glyph glyph-name="Ecaron" unicode="&#x11a;" horiz-adv-x="663" 
d="M460 855l-92 172h108l45 -92l98 92h124l-189 -172h-94zM243 783h498l-29 -110h-376l-58 -220h341l-29 -110h-341l-63 -232h379l-29 -111h-502z" />
    <glyph glyph-name="ecaron" unicode="&#x11b;" horiz-adv-x="613" 
d="M335 625l-92 172h107l45 -92l98 92h125l-190 -172h-93zM165 232q-3 -65 37.5 -103t103.5 -38q49 0 86 25.5t55 57.5l93 -46q-28 -56 -90 -96.5t-152 -40.5q-110 0 -181 65t-71 175q0 126 93 220t215 94q103 0 164.5 -61.5t61.5 -164.5q0 -37 -14 -87h-401zM347 443
q-56 0 -101.5 -33.5t-64.5 -87.5h279q1 5 1 12q0 53 -31 81t-83 28z" />
    <glyph glyph-name="Gcircumflex" unicode="&#x11c;" horiz-adv-x="874" 
d="M643 1026l92 -172h-108l-44 92l-99 -92h-124l189 172h94zM753 513q-44 169 -221 169q-131 0 -224.5 -102t-93.5 -243q0 -103 59 -168.5t172 -65.5q106 0 174 54.5t85 122.5h-284l28 111h415q-13 -180 -127.5 -290t-303.5 -110q-167 0 -257.5 97t-90.5 243
q0 197 136.5 330t323.5 133q62 0 115.5 -16t89.5 -41t63.5 -58.5t41.5 -65t20 -63.5z" />
    <glyph glyph-name="gcircumflex" unicode="&#x11d;" horiz-adv-x="671" 
d="M484 797l93 -172h-108l-45 92l-98 -92h-124l189 172h93zM519 -16q-31 -117 -109.5 -184t-200.5 -67q-62 0 -111.5 20.5t-78 53t-43.5 68.5t-15 71l114 23q0 -49 34 -90t102 -41q148 0 190 154l21 81q-74 -66 -169 -66q-87 0 -146 64t-59 159q0 130 89.5 222t206.5 92
q62 0 109.5 -26.5t71.5 -68.5l22 85h117zM489 312q0 55 -34.5 90.5t-95.5 35.5q-77 0 -130.5 -57t-53.5 -139q0 -55 35.5 -92t91.5 -37q73 0 130 58.5t57 140.5z" />
    <glyph glyph-name="Gbreve" unicode="&#x11e;" horiz-adv-x="874" 
d="M557 853q-76 0 -118 46t-38 123h95q0 -82 68 -82q38 0 67 23t38 59h97q-24 -77 -78 -123t-131 -46zM753 513q-44 169 -221 169q-131 0 -224.5 -102t-93.5 -243q0 -103 59 -168.5t172 -65.5q106 0 174 54.5t85 122.5h-284l28 111h415q-13 -180 -127.5 -290t-303.5 -110
q-167 0 -257.5 97t-90.5 243q0 197 136.5 330t323.5 133q62 0 115.5 -16t89.5 -41t63.5 -58.5t41.5 -65t20 -63.5z" />
    <glyph glyph-name="gbreve" unicode="&#x11f;" horiz-adv-x="671" 
d="M396 623q-77 0 -119 46.5t-37 123.5h94q0 -82 69 -82q38 0 67 23t38 59h96q-23 -77 -77.5 -123.5t-130.5 -46.5zM519 -16q-31 -117 -109.5 -184t-200.5 -67q-62 0 -111.5 20.5t-78 53t-43.5 68.5t-15 71l114 23q0 -49 34 -90t102 -41q148 0 190 154l21 81
q-74 -66 -169 -66q-87 0 -146 64t-59 159q0 130 89.5 222t206.5 92q62 0 109.5 -26.5t71.5 -68.5l22 85h117zM489 312q0 55 -34.5 90.5t-95.5 35.5q-77 0 -130.5 -57t-53.5 -139q0 -55 35.5 -92t91.5 -37q73 0 130 58.5t57 140.5z" />
    <glyph glyph-name="Gdotaccent" unicode="&#x120;" horiz-adv-x="874" 
d="M554 849q-31 0 -51 19.5t-20 50.5q0 36 25 62t61 26q31 0 51 -20t20 -51q0 -36 -25 -61.5t-61 -25.5zM753 513q-44 169 -221 169q-131 0 -224.5 -102t-93.5 -243q0 -103 59 -168.5t172 -65.5q106 0 174 54.5t85 122.5h-284l28 111h415q-13 -180 -127.5 -290t-303.5 -110
q-167 0 -257.5 97t-90.5 243q0 197 136.5 330t323.5 133q62 0 115.5 -16t89.5 -41t63.5 -58.5t41.5 -65t20 -63.5z" />
    <glyph glyph-name="gdotaccent" unicode="&#x121;" horiz-adv-x="671" 
d="M394 621q-31 0 -51 19.5t-20 50.5q0 36 25 62t61 26q31 0 51 -20t20 -51q0 -36 -25 -61.5t-61 -25.5zM519 -16q-31 -117 -109.5 -184t-200.5 -67q-62 0 -111.5 20.5t-78 53t-43.5 68.5t-15 71l114 23q0 -49 34 -90t102 -41q148 0 190 154l21 81q-74 -66 -169 -66
q-87 0 -146 64t-59 159q0 130 89.5 222t206.5 92q62 0 109.5 -26.5t71.5 -68.5l22 85h117zM489 312q0 55 -34.5 90.5t-95.5 35.5q-77 0 -130.5 -57t-53.5 -139q0 -55 35.5 -92t91.5 -37q73 0 130 58.5t57 140.5z" />
    <glyph glyph-name="Gcommaaccent" unicode="&#x122;" horiz-adv-x="874" 
d="M753 513q-44 169 -221 169q-131 0 -224.5 -102t-93.5 -243q0 -103 59 -168.5t172 -65.5q106 0 174 54.5t85 122.5h-284l28 111h415q-13 -180 -127.5 -290t-303.5 -110q-167 0 -257.5 97t-90.5 243q0 197 136.5 330t323.5 133q62 0 115.5 -16t89.5 -41t63.5 -58.5
t41.5 -65t20 -63.5zM307 -283q61 37 92 88q-11 -3 -20 -3q-22 0 -37.5 16.5t-15.5 40.5q0 33 23.5 54t54.5 21t48 -23t17 -53q0 -48 -37 -99.5t-90 -80.5z" />
    <glyph glyph-name="gcommaaccent" unicode="&#x123;" horiz-adv-x="671" 
d="M493 825q-58 -33 -93 -88q10 3 20 3q22 0 37.5 -16.5t15.5 -40.5q0 -32 -23.5 -53t-54.5 -21t-47.5 22.5t-16.5 52.5q0 48 36.5 99.5t89.5 81.5zM519 -16q-31 -117 -109.5 -184t-200.5 -67q-62 0 -111.5 20.5t-78 53t-43.5 68.5t-15 71l114 23q0 -49 34 -90t102 -41
q148 0 190 154l21 81q-74 -66 -169 -66q-87 0 -146 64t-59 159q0 130 89.5 222t206.5 92q62 0 109.5 -26.5t71.5 -68.5l22 85h117zM489 312q0 55 -34.5 90.5t-95.5 35.5q-77 0 -130.5 -57t-53.5 -139q0 -55 35.5 -92t91.5 -37q73 0 130 58.5t57 140.5z" />
    <glyph glyph-name="Hbar" unicode="&#x126;" horiz-adv-x="842" 
d="M250 339l-90 -339h-123l154 577h-77l25 94h77l30 112h123l-30 -112h385l30 112h123l-30 -112h80l-26 -94h-79l-154 -577h-123l90 339h-385zM666 454l33 123h-385l-33 -123h385z" />
    <glyph glyph-name="hbar" unicode="&#x127;" horiz-adv-x="632" 
d="M228 814h119l-26 -99h167l-23 -87h-167l-40 -154q76 71 159 71q78 0 122 -45t44 -118q0 -34 -15 -92l-77 -290h-119l77 293q8 27 8 53q0 42 -25.5 64t-70.5 22q-54 0 -95 -39t-56 -97l-77 -296h-119l165 628h-70l23 87h70z" />
    <glyph glyph-name="Itilde" unicode="&#x128;" horiz-adv-x="328" 
d="M534 1012q-30 -144 -137 -144q-32 0 -69.5 25t-58.5 25q-33 0 -50 -49h-83q16 67 46.5 106t91.5 39q30 0 70.5 -24.5t59.5 -24.5t33 14t21 33h76zM366 783l-209 -783h-123l209 783h123z" />
    <glyph glyph-name="itilde" unicode="&#x129;" horiz-adv-x="281" 
d="M444 777q-30 -143 -136 -143q-32 0 -69.5 25t-58.5 25q-35 0 -50 -49h-83q15 66 46 105t92 39q30 0 70 -24.5t60 -24.5q35 0 54 47h75zM273 534l-140 -534h-120l141 534h119z" />
    <glyph glyph-name="Imacron" unicode="&#x12a;" horiz-adv-x="328" 
d="M480 889h-316l25 95h317zM366 783l-209 -783h-123l209 783h123z" />
    <glyph glyph-name="imacron" unicode="&#x12b;" horiz-adv-x="281" 
d="M388 635h-312l25 95h312zM273 534l-140 -534h-120l141 534h119z" />
    <glyph glyph-name="Ibreve" unicode="&#x12c;" horiz-adv-x="328" 
d="M329 853q-76 0 -118.5 46t-37.5 123h95q0 -82 68 -82q38 0 67 23t38 59h97q-24 -77 -78 -123t-131 -46zM366 783l-209 -783h-123l209 783h123z" />
    <glyph glyph-name="ibreve" unicode="&#x12d;" horiz-adv-x="281" 
d="M240 623q-76 0 -118 46.5t-38 123.5h95q0 -82 69 -82q37 0 66 23t39 59h96q-24 -77 -78 -123.5t-131 -46.5zM273 534l-140 -534h-120l141 534h119z" />
    <glyph glyph-name="Iogonek" unicode="&#x12e;" horiz-adv-x="328" 
d="M157 0q-104 -67 -104 -118q0 -42 69 -42h3l-23 -82q-20 -2 -31 -2q-49 0 -88 24.5t-39 70.5q0 75 119 149h-29l209 783h123z" />
    <glyph glyph-name="iogonek" unicode="&#x12f;" horiz-adv-x="281" 
d="M267 786q31 0 51 -19.5t20 -50.5q0 -36 -25 -61.5t-62 -25.5q-30 0 -50 19.5t-20 50.5q0 36 25 61.5t61 25.5zM273 534l-140 -534q-104 -67 -104 -118q0 -42 69 -42h3l-23 -82q-20 -2 -31 -2q-49 0 -88 24.5t-39 70.5q0 76 120 149h-27l141 534h119z" />
    <glyph glyph-name="Idotaccent" unicode="&#x130;" horiz-adv-x="328" 
d="M334 849q-31 0 -51 19.5t-20 50.5q0 36 25 62t61 26q31 0 51 -20t20 -51q0 -36 -25 -61.5t-61 -25.5zM157 0l209 783h-123l-209 -783h123z" />
    <glyph glyph-name="dotlessi" unicode="&#x131;" horiz-adv-x="281" 
d="M273 534l-140 -534h-120l141 534h119z" />
    <glyph glyph-name="IJ" unicode="&#x132;" horiz-adv-x="687" 
d="M223 277q-11 -42 -11 -69q0 -49 27 -76t73 -27q57 0 96 34t54 92l146 552h123l-149 -571q-29 -109 -102.5 -165t-178.5 -56q-90 0 -151 53.5t-61 158.5q0 25 9 72l126 7zM255 395h-125l102 388h123z" />
    <glyph glyph-name="Kcommaaccent" unicode="&#x136;" horiz-adv-x="709" 
d="M156 0h-122l209 783h123l-90 -336l394 336h173l-463 -390l269 -393h-145l-248 372zM189 -283q61 37 92 88q-11 -3 -20 -3q-22 0 -37.5 16.5t-15.5 40.5q0 33 23.5 54t54.5 21t48 -23t17 -53q0 -48 -37 -99.5t-90 -80.5z" />
    <glyph glyph-name="kcommaaccent" unicode="&#x137;" horiz-adv-x="580" 
d="M203 267l-70 -267h-119l214 814h119l-128 -486h2l251 206h174l-317 -254l186 -280h-141l-169 267h-2zM119 -283q61 37 92 88q-11 -3 -20 -3q-22 0 -37.5 16.5t-15.5 40.5q0 33 23.5 54t54.5 21t48 -23t17 -53q0 -48 -37 -99.5t-90 -80.5z" />
    <glyph glyph-name="Lacute" unicode="&#x139;" horiz-adv-x="590" 
d="M410 1026h152l-184 -172h-115zM243 783h123l-179 -670h354l-31 -113h-476z" />
    <glyph glyph-name="lacute" unicode="&#x13a;" horiz-adv-x="281" 
d="M395 1055h151l-183 -172h-115zM347 814l-215 -814h-119l215 814h119z" />
    <glyph glyph-name="Lcommaaccent" unicode="&#x13b;" horiz-adv-x="590" 
d="M243 783h123l-179 -670h354l-31 -113h-476zM159 -283q61 37 92 88q-10 -3 -20 -3q-22 0 -37.5 16.5t-15.5 40.5q0 33 23.5 54t54.5 21t48 -23t17 -53q0 -48 -37 -99.5t-90 -80.5z" />
    <glyph glyph-name="lcommaaccent" unicode="&#x13c;" horiz-adv-x="281" 
d="M347 814l-215 -814h-119l215 814h119zM-52 -283q61 37 92 88q-11 -3 -20 -3q-22 0 -37.5 16.5t-15.5 40.5q0 33 23.5 54t54.5 21t48 -23t17 -53q0 -48 -37 -99.5t-90 -80.5z" />
    <glyph glyph-name="Lcaron" unicode="&#x13d;" horiz-adv-x="597" 
d="M554 815h134l-121 -234h-89zM243 783h123l-179 -670h354l-31 -113h-476z" />
    <glyph glyph-name="lcaron" unicode="&#x13e;" horiz-adv-x="301" 
d="M429 815h133l-120 -234h-90zM347 814l-215 -814h-119l215 814h119z" />
    <glyph glyph-name="Ldot" unicode="&#x13f;" horiz-adv-x="604" 
d="M243 783h123l-179 -670h354l-31 -113h-476zM527 310q36 0 61 25.5t25 61.5q0 31 -20 50.5t-51 19.5q-36 0 -61 -25.5t-25 -61.5q0 -31 20 -50.5t51 -19.5z" />
    <glyph glyph-name="ldot" unicode="&#x140;" horiz-adv-x="425" 
d="M347 814l-215 -814h-119l215 814h119zM375 300q36 0 61 25.5t25 61.5q0 31 -20 50.5t-51 19.5q-36 0 -61 -25.5t-25 -61.5q0 -31 20 -50.5t51 -19.5z" />
    <glyph glyph-name="Lslash" unicode="&#x141;" horiz-adv-x="612" 
d="M532 0h-477l84 312l-116 -46l32 118l115 46l95 353h123l-80 -298l249 100l-31 -118l-250 -100l-68 -254h354z" />
    <glyph glyph-name="lslash" unicode="&#x142;" horiz-adv-x="397" 
d="M283 339l-89 -339h-119l71 269l-118 -60l32 122l117 59l112 424h119l-94 -355l118 60l-32 -121z" />
    <glyph glyph-name="Nacute" unicode="&#x143;" horiz-adv-x="862" 
d="M679 1026h151l-184 -172h-115zM691 0h-141l-231 610l-164 -610h-121l209 783h142l231 -610l163 610h121z" />
    <glyph glyph-name="nacute" unicode="&#x144;" horiz-adv-x="632" 
d="M497 797h151l-184 -172h-115zM449 293q8 27 8 53q0 42 -25.5 64t-70.5 22q-54 0 -95 -39t-56 -97l-77 -296h-119l140 534h117l-17 -62q78 73 163 73q78 0 122 -45t44 -118q0 -39 -16 -92l-76 -290h-119z" />
    <glyph glyph-name="Ncommaaccent" unicode="&#x145;" horiz-adv-x="862" 
d="M691 0h-141l-231 610l-164 -610h-121l209 783h142l231 -610l163 610h121zM254 -283q61 37 92 88q-11 -3 -20 -3q-22 0 -37.5 16.5t-15.5 40.5q0 33 23.5 54t54.5 21t48 -23t17 -53q0 -48 -37 -99.5t-90 -80.5z" />
    <glyph glyph-name="ncommaaccent" unicode="&#x146;" horiz-adv-x="632" 
d="M449 293q8 27 8 53q0 42 -25.5 64t-70.5 22q-54 0 -95 -39t-56 -97l-77 -296h-119l140 534h117l-17 -62q78 73 163 73q78 0 122 -45t44 -118q0 -39 -16 -92l-76 -290h-119zM138 -283q61 37 92 88q-10 -3 -20 -3q-22 0 -37.5 16.5t-15.5 40.5q0 33 23.5 54t54.5 21t48 -23
t17 -53q0 -48 -37 -99.5t-90 -80.5z" />
    <glyph glyph-name="Ncaron" unicode="&#x147;" horiz-adv-x="862" 
d="M552 855l-93 172h108l45 -92l98 92h124l-189 -172h-93zM691 0h-141l-231 610l-164 -610h-121l209 783h142l231 -610l163 610h121z" />
    <glyph glyph-name="ncaron" unicode="&#x148;" horiz-adv-x="632" 
d="M368 625l-93 172h108l45 -92l98 92h124l-189 -172h-93zM449 293q8 27 8 53q0 42 -25.5 64t-70.5 22q-54 0 -95 -39t-56 -97l-77 -296h-119l140 534h117l-17 -62q78 73 163 73q78 0 122 -45t44 -118q0 -39 -16 -92l-76 -290h-119z" />
    <glyph glyph-name="Eng" unicode="&#x14a;" horiz-adv-x="862" 
d="M155 0h-121l209 783h142l235 -594l159 594h121l-237 -889q-21 -79 -64.5 -119t-120.5 -40q-58 0 -90 18l26 99q23 -9 43 -9q39 0 59.5 20t31.5 58l19 72l-247 621z" />
    <glyph glyph-name="eng" unicode="&#x14b;" horiz-adv-x="632" 
d="M449 293q8 27 8 53q0 42 -25.5 64t-70.5 22q-54 0 -95 -39t-56 -97l-77 -296h-119l140 534h117l-17 -62q78 73 163 73q78 0 122 -45t44 -118q0 -39 -16 -92l-104 -396q-21 -79 -63 -119t-118 -40q-57 0 -91 18l26 99q23 -9 43 -9q70 0 91 78z" />
    <glyph glyph-name="Omacron" unicode="&#x14c;" horiz-adv-x="902" 
d="M740 889h-347l25 95h347zM430 -9q131 0 238 66.5t165 172.5t58 224q0 146 -97 243t-252 97q-130 0 -236.5 -66.5t-164.5 -172t-58 -223.5q0 -147 96.5 -244t250.5 -97zM443 104q-106 0 -168.5 65t-62.5 168q0 84 39.5 162.5t114 130t164.5 51.5q106 0 169 -65.5
t63 -167.5q0 -84 -40 -162.5t-114.5 -130t-164.5 -51.5z" />
    <glyph glyph-name="omacron" unicode="&#x14d;" horiz-adv-x="649" 
d="M558 635h-347l26 95h346zM357 545q110 0 180.5 -66.5t70.5 -177.5q0 -123 -92.5 -216.5t-218.5 -93.5q-110 0 -180.5 66t-70.5 175q0 124 92.5 218.5t218.5 94.5zM304 98q75 0 128.5 63t53.5 137q0 66 -37 102.5t-99 36.5q-76 0 -129 -63t-53 -137q0 -65 37.5 -102
t98.5 -37z" />
    <glyph glyph-name="Ohungarumlaut" unicode="&#x150;" horiz-adv-x="902" 
d="M542 1026h151l-184 -172h-115zM754 1026h152l-184 -172h-115zM430 -9q131 0 238 66.5t165 172.5t58 224q0 146 -97 243t-252 97q-130 0 -236.5 -66.5t-164.5 -172t-58 -223.5q0 -147 96.5 -244t250.5 -97zM443 104q-106 0 -168.5 65t-62.5 168q0 84 39.5 162.5t114 130
t164.5 51.5q106 0 169 -65.5t63 -167.5q0 -84 -40 -162.5t-114.5 -130t-164.5 -51.5z" />
    <glyph glyph-name="ohungarumlaut" unicode="&#x151;" horiz-adv-x="649" 
d="M361 797h151l-184 -172h-115zM574 797h151l-183 -172h-116zM357 545q110 0 180.5 -66.5t70.5 -177.5q0 -123 -92.5 -216.5t-218.5 -93.5q-110 0 -180.5 66t-70.5 175q0 124 92.5 218.5t218.5 94.5zM304 98q75 0 128.5 63t53.5 137q0 66 -37 102.5t-99 36.5
q-76 0 -129 -63t-53 -137q0 -65 37.5 -102t98.5 -37z" />
    <glyph glyph-name="OE" unicode="&#x152;" horiz-adv-x="1283" 
d="M898 453h342l-30 -110h-341l-62 -232h379l-29 -111h-503l24 90q-104 -99 -258 -99q-148 0 -242.5 97.5t-94.5 243.5q0 118 58 223.5t165 172t237 66.5q100 0 171.5 -42.5t109.5 -116.5l39 148h499l-29 -110h-376zM444 104q90 0 164.5 51.5t114 130t39.5 162.5
q0 102 -63 167.5t-168 65.5q-69 0 -129.5 -30.5t-101.5 -79.5t-64.5 -110.5t-23.5 -123.5q0 -103 63 -168t169 -65z" />
    <glyph glyph-name="oe" unicode="&#x153;" horiz-adv-x="1036" 
d="M586 233q-3 -65 38 -103.5t103 -38.5q54 0 90.5 25t55.5 58l93 -46q-26 -55 -92 -96t-155 -41q-141 0 -202 105q-88 -105 -220 -105q-109 0 -180 66t-71 175q0 125 92 219t219 94q140 0 203 -105q40 49 96 77t119 28q103 0 164 -61.5t61 -164.5q0 -41 -13 -86h-401z
M768 443q-56 0 -101.5 -33.5t-63.5 -87.5h279q1 6 1 12q0 53 -31.5 81t-83.5 28zM304 98q77 0 130 61t53 138q0 66 -36.5 103t-98.5 37q-78 0 -131 -62t-53 -138q0 -63 37.5 -101t98.5 -38z" />
    <glyph glyph-name="Racute" unicode="&#x154;" horiz-adv-x="728" 
d="M577 1026h151l-184 -172h-115zM750 572q0 -101 -62.5 -166t-171.5 -89l101 -317h-134l-87 297h-160l-79 -297h-123l209 783h230q134 0 205.5 -55t71.5 -156zM623 561q0 109 -159 109h-128l-71 -263h134q104 0 164 42t60 112z" />
    <glyph glyph-name="racute" unicode="&#x155;" horiz-adv-x="396" 
d="M393 797h151l-183 -172h-115zM414 410q-26 7 -44 7q-59 0 -104 -40.5t-62 -105.5l-71 -271h-119l140 534h117l-19 -70q72 75 157 75q20 0 38 -4z" />
    <glyph glyph-name="Rcommaaccent" unicode="&#x156;" horiz-adv-x="728" 
d="M750 572q0 -101 -62.5 -166t-171.5 -89l101 -317h-134l-87 297h-160l-79 -297h-123l209 783h230q134 0 205.5 -55t71.5 -156zM623 561q0 109 -159 109h-128l-71 -263h134q104 0 164 42t60 112zM200 -283q61 37 92 88q-10 -3 -20 -3q-22 0 -37.5 16.5t-15.5 40.5
q0 33 23.5 54t54.5 21t48 -23t17 -53q0 -48 -37 -99.5t-90 -80.5z" />
    <glyph glyph-name="rcommaaccent" unicode="&#x157;" horiz-adv-x="396" 
d="M414 410q-26 7 -44 7q-59 0 -104 -40.5t-62 -105.5l-71 -271h-119l140 534h117l-19 -70q72 75 157 75q20 0 38 -4zM-48 -283q61 37 92 88q-10 -3 -20 -3q-22 0 -37.5 16.5t-15.5 40.5q0 33 23.5 54t54.5 21t48 -23t17 -53q0 -48 -37 -99.5t-90 -80.5z" />
    <glyph glyph-name="Rcaron" unicode="&#x158;" horiz-adv-x="728" 
d="M451 855l-93 172h108l45 -92l98 92h124l-189 -172h-93zM750 572q0 -101 -62.5 -166t-171.5 -89l101 -317h-134l-87 297h-160l-79 -297h-123l209 783h230q134 0 205.5 -55t71.5 -156zM623 561q0 109 -159 109h-128l-71 -263h134q104 0 164 42t60 112z" />
    <glyph glyph-name="rcaron" unicode="&#x159;" horiz-adv-x="396" 
d="M264 625l-92 172h107l45 -92l98 92h125l-190 -172h-93zM414 410q-26 7 -44 7q-59 0 -104 -40.5t-62 -105.5l-71 -271h-119l140 534h117l-19 -70q72 75 157 75q20 0 38 -4z" />
    <glyph glyph-name="Sacute" unicode="&#x15a;" horiz-adv-x="661" 
d="M518 1026h151l-184 -172h-115zM481 217q0 37 -23.5 58.5t-77.5 45.5l-74 33q-75 33 -117 79t-42 118q0 109 82 176t190 67q71 0 125 -22.5t82 -57.5t41 -71t13 -71l-120 -20q0 50 -34 91.5t-113 41.5q-56 0 -98 -32.5t-42 -83.5q0 -63 76 -97l85 -37q83 -36 128.5 -82.5
t45.5 -123.5q0 -95 -75 -166.5t-197 -71.5q-88 0 -160 37t-109 112q-22 47 -22 96q0 20 1 30l122 21q-1 -9 -1 -27q0 -75 47 -117t122 -42q60 0 102.5 30.5t42.5 85.5z" />
    <glyph glyph-name="sacute" unicode="&#x15b;" horiz-adv-x="500" 
d="M378 797h152l-184 -172h-115zM305 147q0 40 -50 61l-58 26q-111 51 -111 138q0 71 55 121.5t144 50.5q53 0 92.5 -16t60 -42t29.5 -51.5t10 -50.5l-104 -16q0 29 -23.5 55.5t-67.5 26.5q-37 0 -57 -19t-20 -43q0 -34 39 -52l68 -29q116 -52 116 -145q0 -67 -53.5 -120
t-150.5 -53q-143 0 -190 99q-15 30 -15 65q0 6 1 13l103 18q-1 -5 -1 -9q0 -39 30 -64.5t72 -25.5q35 0 58 19t23 43z" />
    <glyph glyph-name="Scircumflex" unicode="&#x15c;" horiz-adv-x="661" 
d="M534 1026l92 -172h-107l-45 92l-98 -92h-125l190 172h93zM481 217q0 37 -23.5 58.5t-77.5 45.5l-74 33q-75 33 -117 79t-42 118q0 109 82 176t190 67q71 0 125 -22.5t82 -57.5t41 -71t13 -71l-120 -20q0 50 -34 91.5t-113 41.5q-56 0 -98 -32.5t-42 -83.5q0 -63 76 -97
l85 -37q83 -36 128.5 -82.5t45.5 -123.5q0 -95 -75 -166.5t-197 -71.5q-88 0 -160 37t-109 112q-22 47 -22 96q0 20 1 30l122 21q-1 -9 -1 -27q0 -75 47 -117t122 -42q60 0 102.5 30.5t42.5 85.5z" />
    <glyph glyph-name="scircumflex" unicode="&#x15d;" horiz-adv-x="500" 
d="M398 797l92 -172h-107l-45 92l-98 -92h-125l190 172h93zM305 147q0 40 -50 61l-58 26q-111 51 -111 138q0 71 55 121.5t144 50.5q53 0 92.5 -16t60 -42t29.5 -51.5t10 -50.5l-104 -16q0 29 -23.5 55.5t-67.5 26.5q-37 0 -57 -19t-20 -43q0 -34 39 -52l68 -29
q116 -52 116 -145q0 -67 -53.5 -120t-150.5 -53q-143 0 -190 99q-15 30 -15 65q0 6 1 13l103 18q-1 -5 -1 -9q0 -39 30 -64.5t72 -25.5q35 0 58 19t23 43z" />
    <glyph glyph-name="Scedilla" unicode="&#x15e;" horiz-adv-x="661" 
d="M434 435q83 -36 128.5 -82.5t45.5 -123.5q0 -84 -60 -151.5t-161 -82.5q12 -30 12 -61q0 -86 -55.5 -132t-154.5 -46q-51 0 -88 15l21 77q38 -9 68 -9q118 0 118 119q0 16 -3 34q-173 14 -238 148q-22 47 -22 96q0 20 1 30l122 21q-1 -9 -1 -27q0 -75 47 -117t122 -42
q60 0 102.5 30.5t42.5 85.5q0 37 -23.5 58.5t-77.5 45.5l-74 33q-159 67 -159 197q0 109 82 176t190 67q71 0 125 -22.5t82 -57.5t41 -71t13 -71l-120 -20q0 50 -34 91.5t-113 41.5q-56 0 -98 -32.5t-42 -83.5q0 -63 76 -97z" />
    <glyph glyph-name="scedilla" unicode="&#x15f;" horiz-adv-x="500" 
d="M312 307q116 -52 116 -145q0 -57 -41 -106.5t-116 -62.5q11 -31 11 -59q0 -86 -55.5 -132t-154.5 -46q-52 0 -87 15l20 77q38 -9 69 -9q117 0 117 119q0 15 -3 33q-113 12 -154 97q-15 30 -15 65q0 6 1 13l103 18q-1 -5 -1 -9q0 -39 30 -64.5t72 -25.5q35 0 58 19t23 43
q0 40 -50 61l-58 26q-111 51 -111 138q0 71 55 121.5t144 50.5q53 0 92.5 -16t60 -42t29.5 -51.5t10 -50.5l-104 -16q0 29 -23.5 55.5t-67.5 26.5q-37 0 -57 -19t-20 -43q0 -34 39 -52z" />
    <glyph glyph-name="Scaron" unicode="&#x160;" horiz-adv-x="661" 
d="M411 855l-93 172h108l45 -92l98 92h124l-189 -172h-93zM481 217q0 37 -23.5 58.5t-77.5 45.5l-74 33q-75 33 -117 79t-42 118q0 109 82 176t190 67q71 0 125 -22.5t82 -57.5t41 -71t13 -71l-120 -20q0 50 -34 91.5t-113 41.5q-56 0 -98 -32.5t-42 -83.5q0 -63 76 -97
l85 -37q83 -36 128.5 -82.5t45.5 -123.5q0 -95 -75 -166.5t-197 -71.5q-88 0 -160 37t-109 112q-22 47 -22 96q0 20 1 30l122 21q-1 -9 -1 -27q0 -75 47 -117t122 -42q60 0 102.5 30.5t42.5 85.5z" />
    <glyph glyph-name="scaron" unicode="&#x161;" horiz-adv-x="500" 
d="M268 625l-93 172h108l45 -92l98 92h124l-189 -172h-93zM305 147q0 40 -50 61l-58 26q-111 51 -111 138q0 71 55 121.5t144 50.5q53 0 92.5 -16t60 -42t29.5 -51.5t10 -50.5l-104 -16q0 29 -23.5 55.5t-67.5 26.5q-37 0 -57 -19t-20 -43q0 -34 39 -52l68 -29
q116 -52 116 -145q0 -67 -53.5 -120t-150.5 -53q-143 0 -190 99q-15 30 -15 65q0 6 1 13l103 18q-1 -5 -1 -9q0 -39 30 -64.5t72 -25.5q35 0 58 19t23 43z" />
    <glyph glyph-name="uni0162" unicode="&#x162;" horiz-adv-x="656" 
d="M52 -152q38 -9 69 -9q117 0 117 119q0 24 -5 42h-36l179 670h-248l30 113h620l-30 -113h-248l-180 -670h-5q14 -34 14 -66q0 -86 -55.5 -132t-154.5 -46q-51 0 -88 15z" />
    <glyph glyph-name="uni0163" unicode="&#x163;" horiz-adv-x="418" 
d="M44 -161q118 0 118 119q0 38 -10 54l2 1q-61 32 -61 112q0 19 10 55l64 247h-102l28 107h102l44 165h118l-43 -165h133l-29 -107h-132l-64 -246q-5 -25 -5 -32q0 -47 70 -47q22 0 46 6l-28 -102q-34 -10 -64 -11q11 -27 11 -61q0 -86 -55 -132t-154 -46q-27 0 -55 6
l21 80q18 -3 35 -3z" />
    <glyph glyph-name="Tcaron" unicode="&#x164;" horiz-adv-x="656" 
d="M436 855l-92 172h107l45 -92l98 92h125l-190 -172h-93zM197 0l179 670h-248l30 113h620l-30 -113h-248l-180 -670h-123z" />
    <glyph glyph-name="tcaron" unicode="&#x165;" horiz-adv-x="418" 
d="M470 815h134l-119 -229h-90zM222 181q-5 -25 -5 -32q0 -47 70 -47q22 0 46 6l-28 -102q-40 -11 -67 -11q-67 0 -106 32.5t-39 97.5q0 19 10 55l64 247h-102l28 107h102l44 165h118l-43 -165h133l-29 -107h-132z" />
    <glyph glyph-name="Tbar" unicode="&#x166;" horiz-adv-x="671" 
d="M189 444h133l60 225h-248l30 114h621l-31 -114h-249l-60 -225h133l-28 -106h-133l-90 -338h-123l90 338h-133z" />
    <glyph glyph-name="tbar" unicode="&#x167;" horiz-adv-x="424" 
d="M147 334l25 93h-102l28 107h102l44 165h118l-43 -165h133l-29 -107h-132l-24 -93h113l-27 -103h-113l-13 -50q-5 -25 -5 -32q0 -47 70 -47q22 0 45 6l-27 -102q-40 -11 -67 -11q-67 0 -106 32.5t-39 97.5q0 15 9 55l14 51h-98l27 103h97z" />
    <glyph glyph-name="Utilde" unicode="&#x168;" horiz-adv-x="790" 
d="M777 1012q-30 -144 -136 -144q-32 0 -69.5 25t-58.5 25q-35 0 -50 -49h-83q15 67 46 106t92 39q30 0 70 -24.5t60 -24.5q36 0 54 47h75zM362 -10q-123 0 -193.5 62t-70.5 174q0 56 16 114l118 443h123l-123 -461q-10 -40 -10 -79q0 -62 40 -100t112 -38q77 0 132 51.5
t82 152.5l127 474h123l-132 -492q-80 -301 -344 -301z" />
    <glyph glyph-name="utilde" unicode="&#x169;" horiz-adv-x="634" 
d="M619 777q-30 -143 -137 -143q-32 0 -69.5 25t-58.5 25q-33 0 -50 -49h-83q16 67 46.5 105.5t91.5 38.5q30 0 70.5 -24.5t59.5 -24.5t33 14t21 33h76zM483 0h-116l17 62q-78 -73 -162 -73q-77 0 -122 45t-45 117q0 33 15 93l77 290h119l-78 -293q-6 -23 -6 -53
q0 -43 25 -64.5t70 -21.5q54 0 94.5 39t55.5 96l78 297h120z" />
    <glyph glyph-name="Umacron" unicode="&#x16a;" horiz-adv-x="790" 
d="M748 889h-347l25 95h347zM362 -10q-123 0 -193.5 62t-70.5 174q0 56 16 114l118 443h123l-123 -461q-10 -40 -10 -79q0 -62 40 -100t112 -38q77 0 132 51.5t82 152.5l127 474h123l-132 -492q-80 -301 -344 -301z" />
    <glyph glyph-name="umacron" unicode="&#x16b;" horiz-adv-x="634" 
d="M584 635h-347l26 95h346zM483 0h-116l17 62q-78 -73 -162 -73q-77 0 -122 45t-45 117q0 33 15 93l77 290h119l-78 -293q-6 -23 -6 -53q0 -43 25 -64.5t70 -21.5q54 0 94.5 39t55.5 96l78 297h120z" />
    <glyph glyph-name="Uring" unicode="&#x16e;" horiz-adv-x="790" 
d="M720 1007q0 -63 -45.5 -109.5t-114.5 -46.5q-56 0 -92.5 33t-36.5 87q0 63 46.5 110t112.5 47q56 0 93 -33t37 -88zM636 1000q0 24 -15 37.5t-38 13.5q-29 0 -49 -23t-20 -50q0 -23 15 -36.5t38 -13.5q29 0 49 22.5t20 49.5zM362 -10q-123 0 -193.5 62t-70.5 174
q0 56 16 114l118 443h123l-123 -461q-10 -40 -10 -79q0 -62 40 -100t112 -38q77 0 132 51.5t82 152.5l127 474h123l-132 -492q-80 -301 -344 -301z" />
    <glyph glyph-name="uring" unicode="&#x16f;" horiz-adv-x="634" 
d="M574 759q0 -63 -45.5 -109.5t-114.5 -46.5q-56 0 -92.5 33t-36.5 87q0 63 46.5 110t112.5 47q56 0 93 -33.5t37 -87.5zM490 752q0 24 -15 37.5t-38 13.5q-29 0 -49 -23t-20 -51q0 -23 15 -36t38 -13q29 0 49 22.5t20 49.5zM483 0h-116l17 62q-78 -73 -162 -73
q-77 0 -122 45t-45 117q0 33 15 93l77 290h119l-78 -293q-6 -23 -6 -53q0 -43 25 -64.5t70 -21.5q54 0 94.5 39t55.5 96l78 297h120z" />
    <glyph glyph-name="Uhungarumlaut" unicode="&#x170;" horiz-adv-x="790" 
d="M525 1026h151l-184 -172h-115zM738 1026h151l-183 -172h-116zM362 -10q-123 0 -193.5 62t-70.5 174q0 56 16 114l118 443h123l-123 -461q-10 -40 -10 -79q0 -62 40 -100t112 -38q77 0 132 51.5t82 152.5l127 474h123l-132 -492q-80 -301 -344 -301z" />
    <glyph glyph-name="uhungarumlaut" unicode="&#x171;" horiz-adv-x="634" 
d="M381 797h151l-184 -172h-115zM594 797h151l-183 -172h-116zM483 0h-116l17 62q-78 -73 -162 -73q-77 0 -122 45t-45 117q0 33 15 93l77 290h119l-78 -293q-6 -23 -6 -53q0 -43 25 -64.5t70 -21.5q54 0 94.5 39t55.5 96l78 297h120z" />
    <glyph glyph-name="Uogonek" unicode="&#x172;" horiz-adv-x="790" 
d="M452 0q-104 -67 -104 -118q0 -42 69 -42h2l-22 -82q-20 -2 -31 -2q-49 0 -88 24.5t-39 70.5q0 70 105 140q-115 5 -180.5 66.5t-65.5 168.5q0 56 16 114l118 443h123l-123 -461q-10 -40 -10 -79q0 -62 40 -100t112 -38q77 0 132 51.5t82 152.5l127 474h123l-132 -492
q-66 -247 -254 -291z" />
    <glyph glyph-name="uogonek" unicode="&#x173;" horiz-adv-x="634" 
d="M367 0l17 62q-78 -73 -162 -73q-77 0 -122 45t-45 117q0 33 15 93l77 290h119l-78 -293q-6 -23 -6 -53q0 -43 25 -64.5t70 -21.5q54 0 94.5 39t55.5 96l78 297h120l-142 -534q-104 -67 -104 -118q0 -42 69 -42h3l-22 -82q-22 -2 -31 -2q-50 0 -88.5 24.5t-38.5 70.5
q0 75 119 149h-23z" />
    <glyph glyph-name="Wcircumflex" unicode="&#x174;" horiz-adv-x="1180" 
d="M816 1026l93 -172h-108l-45 92l-98 -92h-124l189 172h93zM156 783h127l28 -614l336 614h134l43 -614l329 614h136l-431 -783h-140l-41 604l-337 -604h-140z" />
    <glyph glyph-name="wcircumflex" unicode="&#x175;" horiz-adv-x="878" 
d="M606 797l93 -172h-108l-45 92l-98 -92h-124l189 172h93zM591 158h1l213 376h125l-311 -534h-125l-23 372h-3l-221 -372h-124l-30 534h121l14 -374h1l220 374h120z" />
    <glyph glyph-name="Ycircumflex" unicode="&#x176;" horiz-adv-x="742" 
d="M600 1026l92 -172h-108l-44 92l-99 -92h-124l189 172h94zM235 0l84 315l-161 468h134l115 -356l306 356h149l-422 -480l-81 -303h-124z" />
    <glyph glyph-name="ycircumflex" unicode="&#x177;" horiz-adv-x="598" 
d="M474 797l92 -172h-108l-44 92l-99 -92h-124l189 172h94zM177 3l-87 531h121l60 -398l254 398h129l-520 -797h-132z" />
    <glyph glyph-name="Ydieresis" unicode="&#x178;" horiz-adv-x="742" 
d="M413 849q-31 0 -53 21.5t-22 53.5q0 31 21.5 53.5t53.5 22.5q31 0 53 -22.5t22 -53.5t-22 -53t-53 -22zM645 849q-31 0 -53 21.5t-22 53.5q0 31 21.5 53.5t53.5 22.5q31 0 52.5 -22.5t21.5 -53.5t-21.5 -53t-52.5 -22zM235 0l84 315l-161 468h134l115 -356l306 356h149
l-422 -480l-81 -303h-124z" />
    <glyph glyph-name="Zacute" unicode="&#x179;" horiz-adv-x="664" 
d="M564 1026h151l-183 -172h-115zM566 674h-400l29 109h558l-28 -105l-570 -569h430l-29 -109h-586l28 106z" />
    <glyph glyph-name="zacute" unicode="&#x17a;" horiz-adv-x="525" 
d="M438 797h151l-183 -172h-115zM370 430h-274l28 104h427l-25 -95l-375 -335h290l-27 -104h-439l26 99z" />
    <glyph glyph-name="Zdotaccent" unicode="&#x17b;" horiz-adv-x="664" 
d="M491 849q-31 0 -51 19.5t-20 50.5q0 36 25 62t61 26q31 0 51.5 -20t20.5 -51q0 -36 -25 -61.5t-62 -25.5zM566 674h-400l29 109h558l-28 -105l-570 -569h430l-29 -109h-586l28 106z" />
    <glyph glyph-name="zdotaccent" unicode="&#x17c;" horiz-adv-x="525" 
d="M348 621q-31 0 -51 19.5t-20 50.5q0 36 25 62t61 26q31 0 51.5 -20t20.5 -51q0 -36 -25.5 -61.5t-61.5 -25.5zM370 430h-274l28 104h427l-25 -95l-375 -335h290l-27 -104h-439l26 99z" />
    <glyph glyph-name="Zcaron" unicode="&#x17d;" horiz-adv-x="664" 
d="M440 855l-92 172h108l44 -92l99 92h124l-189 -172h-94zM566 674h-400l29 109h558l-28 -105l-570 -569h430l-29 -109h-586l28 106z" />
    <glyph glyph-name="zcaron" unicode="&#x17e;" horiz-adv-x="525" 
d="M310 625l-93 172h108l45 -92l98 92h124l-189 -172h-93zM370 430h-274l28 104h427l-25 -95l-375 -335h290l-27 -104h-439l26 99z" />
    <glyph glyph-name="florin" unicode="&#x192;" horiz-adv-x="601" 
d="M306 161q-40 -86 -102 -128t-156 -42q-37 0 -66 7l29 105q22 -7 51 -7q96 0 144 103l104 230h-111l28 105h131l38 81q42 86 104 128.5t156 42.5q37 0 65 -7l-28 -105q-22 7 -51 7q-94 0 -139 -96l-24 -51h126l-28 -105h-146z" />
    <glyph glyph-name="uni01B5" unicode="&#x1b5;" horiz-adv-x="667" 
d="M240 346h-159l27 104h236l224 224h-401l30 109h558l-28 -105l-229 -228h171l-27 -104h-248l-238 -237h430l-29 -109h-585l28 106z" />
    <glyph glyph-name="uni01B6" unicode="&#x1b6;" horiz-adv-x="527" 
d="M144 227h-101l22 84h172l133 119h-273l27 104h427l-25 -95l-146 -128h116l-22 -84h-185l-138 -123h290l-27 -104h-438l25 99z" />
    <glyph glyph-name="uni01CD" unicode="&#x1cd;" horiz-adv-x="789" 
d="M497 855l-93 172h108l45 -92l98 92h124l-189 -172h-93zM194 184l-117 -184h-138l515 783h150l122 -783h-125l-26 184h-381zM265 293h295l-56 366z" />
    <glyph glyph-name="uni01CE" unicode="&#x1ce;" horiz-adv-x="672" 
d="M366 625l-92 172h107l45 -92l98 92h125l-190 -172h-93zM405 0l17 63q-77 -71 -170 -71q-94 0 -150.5 64t-56.5 162q0 136 90.5 231.5t207.5 95.5q64 0 109.5 -26t69.5 -67l22 82h119l-141 -534h-117zM493 305q0 59 -38 95.5t-97 36.5q-80 0 -133 -62t-53 -148
q0 -57 35 -93t92 -36q74 0 134 61t60 146z" />
    <glyph glyph-name="uni01CF" unicode="&#x1cf;" horiz-adv-x="328" 
d="M274 855l-92 172h108l44 -92l99 92h124l-189 -172h-94zM366 783l-209 -783h-123l209 783h123z" />
    <glyph glyph-name="uni01D0" unicode="&#x1d0;" horiz-adv-x="281" 
d="M188 625l-92 172h108l45 -92l98 92h124l-189 -172h-94zM273 534l-140 -534h-120l141 534h119z" />
    <glyph glyph-name="uni01D1" unicode="&#x1d1;" horiz-adv-x="902" 
d="M520 855l-93 172h108l45 -92l98 92h124l-189 -172h-93zM430 -9q-154 0 -250.5 97t-96.5 244q0 118 58 223.5t164.5 172t236.5 66.5q155 0 252 -97t97 -243q0 -118 -58 -224t-165 -172.5t-238 -66.5zM443 104q90 0 164.5 51.5t114.5 130t40 162.5q0 102 -63 167.5
t-169 65.5q-90 0 -164.5 -51.5t-114 -130t-39.5 -162.5q0 -103 62.5 -168t168.5 -65z" />
    <glyph glyph-name="uni01D2" unicode="&#x1d2;" horiz-adv-x="649" 
d="M344 625l-93 172h108l45 -92l98 92h124l-189 -172h-93zM357 545q110 0 180.5 -66.5t70.5 -177.5q0 -123 -92.5 -216.5t-218.5 -93.5q-110 0 -180.5 66t-70.5 175q0 124 92.5 218.5t218.5 94.5zM304 98q75 0 128.5 63t53.5 137q0 66 -37 102.5t-99 36.5q-76 0 -129 -63
t-53 -137q0 -65 37.5 -102t98.5 -37z" />
    <glyph glyph-name="uni01D3" unicode="&#x1d3;" horiz-adv-x="790" 
d="M492 855l-92 172h107l45 -92l98 92h125l-190 -172h-93zM362 -10q-123 0 -193.5 62t-70.5 174q0 56 16 114l118 443h123l-123 -461q-10 -40 -10 -79q0 -62 40 -100t112 -38q77 0 132 51.5t82 152.5l127 474h123l-132 -492q-80 -301 -344 -301z" />
    <glyph glyph-name="uni01D4" unicode="&#x1d4;" horiz-adv-x="634" 
d="M363 625l-92 172h107l45 -92l98 92h125l-189 -172h-94zM483 0h-116l17 62q-78 -73 -162 -73q-77 0 -122 45t-45 117q0 33 15 93l77 290h119l-78 -293q-6 -23 -6 -53q0 -43 25 -64.5t70 -21.5q54 0 94.5 39t55.5 96l78 297h120z" />
    <glyph glyph-name="uni01D5" unicode="&#x1d5;" horiz-adv-x="790" 
d="M759 989h-347l26 95h347zM430 805q-30 0 -49 18.5t-19 48.5q0 35 24 59.5t59 24.5q29 0 48.5 -19t19.5 -49q0 -34 -24.5 -58.5t-58.5 -24.5zM662 805q-30 0 -49 18.5t-19 48.5q0 35 24.5 59.5t58.5 24.5q29 0 48.5 -19t19.5 -49q0 -34 -24.5 -58.5t-58.5 -24.5zM362 -10
q-123 0 -193.5 62t-70.5 174q0 56 16 114l118 443h123l-123 -461q-10 -40 -10 -79q0 -62 40 -100t112 -38q77 0 132 51.5t82 152.5l127 474h123l-132 -492q-80 -301 -344 -301z" />
    <glyph glyph-name="uni01D6" unicode="&#x1d6;" horiz-adv-x="634" 
d="M605 775h-346l25 95h347zM290 585q-30 0 -49 19t-19 48q0 35 24 59.5t58 24.5q30 0 49.5 -18.5t19.5 -48.5q0 -34 -24.5 -59t-58.5 -25zM512 585q-29 0 -48.5 19t-19.5 48q0 35 24 59.5t58 24.5q30 0 49.5 -18.5t19.5 -48.5q0 -35 -24.5 -59.5t-58.5 -24.5zM483 0h-116
l17 62q-78 -73 -162 -73q-77 0 -122 45t-45 117q0 33 15 93l77 290h119l-78 -293q-6 -23 -6 -53q0 -43 25 -64.5t70 -21.5q54 0 94.5 39t55.5 96l78 297h120z" />
    <glyph glyph-name="uni01D7" unicode="&#x1d7;" horiz-adv-x="790" 
d="M645 1131h149l-173 -162h-116zM430 805q-30 0 -49 18.5t-19 48.5q0 35 24 59.5t59 24.5q29 0 48.5 -19t19.5 -49q0 -34 -24.5 -58.5t-58.5 -24.5zM662 805q-30 0 -49 18.5t-19 48.5q0 35 24.5 59.5t58.5 24.5q29 0 48.5 -19t19.5 -49q0 -34 -24.5 -58.5t-58.5 -24.5z
M362 -10q-123 0 -193.5 62t-70.5 174q0 56 16 114l118 443h123l-123 -461q-10 -40 -10 -79q0 -62 40 -100t112 -38q77 0 132 51.5t82 152.5l127 474h123l-132 -492q-80 -301 -344 -301z" />
    <glyph glyph-name="uni01D8" unicode="&#x1d8;" horiz-adv-x="634" 
d="M510 932h151l-183 -172h-116zM290 585q-30 0 -49 19t-19 48q0 35 24 59.5t58 24.5q30 0 49.5 -18.5t19.5 -48.5q0 -34 -24.5 -59t-58.5 -25zM512 585q-29 0 -48.5 19t-19.5 48q0 35 24 59.5t58 24.5q30 0 49.5 -18.5t19.5 -48.5q0 -35 -24.5 -59.5t-58.5 -24.5zM483 0
h-116l17 62q-78 -73 -162 -73q-77 0 -122 45t-45 117q0 33 15 93l77 290h119l-78 -293q-6 -23 -6 -53q0 -43 25 -64.5t70 -21.5q54 0 94.5 39t55.5 96l78 297h120z" />
    <glyph glyph-name="uni01D9" unicode="&#x1d9;" horiz-adv-x="790" 
d="M522 969l-92 162h107l44 -86l99 86h125l-190 -162h-93zM430 805q-30 0 -49 18.5t-19 48.5q0 35 24 59.5t59 24.5q29 0 48.5 -19t19.5 -49q0 -34 -24.5 -58.5t-58.5 -24.5zM662 805q-30 0 -49 18.5t-19 48.5q0 35 24.5 59.5t58.5 24.5q29 0 48.5 -19t19.5 -49
q0 -34 -24.5 -58.5t-58.5 -24.5zM362 -10q-123 0 -193.5 62t-70.5 174q0 56 16 114l118 443h123l-123 -461q-10 -40 -10 -79q0 -62 40 -100t112 -38q77 0 132 51.5t82 152.5l127 474h123l-132 -492q-80 -301 -344 -301z" />
    <glyph glyph-name="uni01DA" unicode="&#x1da;" horiz-adv-x="634" 
d="M382 759l-92 173h107l45 -93l98 93h125l-190 -173h-93zM290 585q-30 0 -49 19t-19 48q0 35 24 59.5t58 24.5q30 0 49.5 -18.5t19.5 -48.5q0 -34 -24.5 -59t-58.5 -25zM512 585q-29 0 -48.5 19t-19.5 48q0 35 24 59.5t58 24.5q30 0 49.5 -18.5t19.5 -48.5
q0 -35 -24.5 -59.5t-58.5 -24.5zM483 0h-116l17 62q-78 -73 -162 -73q-77 0 -122 45t-45 117q0 33 15 93l77 290h119l-78 -293q-6 -23 -6 -53q0 -43 25 -64.5t70 -21.5q54 0 94.5 39t55.5 96l78 297h120z" />
    <glyph glyph-name="uni01DB" unicode="&#x1db;" horiz-adv-x="790" 
d="M615 969h-93l-94 162h136zM430 805q-30 0 -49 18.5t-19 48.5q0 35 24 59.5t59 24.5q29 0 48.5 -19t19.5 -49q0 -34 -24.5 -58.5t-58.5 -24.5zM662 805q-30 0 -49 18.5t-19 48.5q0 35 24.5 59.5t58.5 24.5q29 0 48.5 -19t19.5 -49q0 -34 -24.5 -58.5t-58.5 -24.5zM362 -10
q-123 0 -193.5 62t-70.5 174q0 56 16 114l118 443h123l-123 -461q-10 -40 -10 -79q0 -62 40 -100t112 -38q77 0 132 51.5t82 152.5l127 474h123l-132 -492q-80 -301 -344 -301z" />
    <glyph glyph-name="uni01DC" unicode="&#x1dc;" horiz-adv-x="634" 
d="M473 758h-93l-100 172h138zM290 585q-30 0 -49 19t-19 48q0 35 24 59.5t58 24.5q30 0 49.5 -18.5t19.5 -48.5q0 -34 -24.5 -59t-58.5 -25zM512 585q-29 0 -48.5 19t-19.5 48q0 35 24 59.5t58 24.5q30 0 49.5 -18.5t19.5 -48.5q0 -35 -24.5 -59.5t-58.5 -24.5zM483 0h-116
l17 62q-78 -73 -162 -73q-77 0 -122 45t-45 117q0 33 15 93l77 290h119l-78 -293q-6 -23 -6 -53q0 -43 25 -64.5t70 -21.5q54 0 94.5 39t55.5 96l78 297h120z" />
    <glyph glyph-name="Gcaron" unicode="&#x1e6;" horiz-adv-x="874" 
d="M520 855l-93 172h108l45 -92l98 92h124l-189 -172h-93zM753 513q-44 169 -221 169q-131 0 -224.5 -102t-93.5 -243q0 -103 59 -168.5t172 -65.5q106 0 174 54.5t85 122.5h-284l28 111h415q-13 -180 -127.5 -290t-303.5 -110q-167 0 -257.5 97t-90.5 243q0 197 136.5 330
t323.5 133q62 0 115.5 -16t89.5 -41t63.5 -58.5t41.5 -65t20 -63.5z" />
    <glyph glyph-name="gcaron" unicode="&#x1e7;" horiz-adv-x="671" 
d="M358 625l-92 172h107l45 -92l98 92h125l-190 -172h-93zM519 -16q-31 -117 -109.5 -184t-200.5 -67q-62 0 -111.5 20.5t-78 53t-43.5 68.5t-15 71l114 23q0 -49 34 -90t102 -41q148 0 190 154l21 81q-74 -66 -169 -66q-87 0 -146 64t-59 159q0 130 89.5 222t206.5 92
q62 0 109.5 -26.5t71.5 -68.5l22 85h117zM489 312q0 55 -34.5 90.5t-95.5 35.5q-77 0 -130.5 -57t-53.5 -139q0 -55 35.5 -92t91.5 -37q73 0 130 58.5t57 140.5z" />
    <glyph glyph-name="uni01E8" unicode="&#x1e8;" horiz-adv-x="709" 
d="M469 855l-93 172h108l45 -92l98 92h124l-189 -172h-93zM843 783h-173l-394 -336l90 336h-123l-209 -783h122l100 372l248 -372h145l-269 393z" />
    <glyph glyph-name="uni01E9" unicode="&#x1e9;" horiz-adv-x="580" 
d="M205 267h-2l-70 -267h-119l214 814h119l-128 -486h2l251 206h174l-317 -254l186 -280h-141zM638 797l-98 -92l-45 92h-107l92 -172h93l190 172h-125z" />
    <glyph glyph-name="uni01F4" unicode="&#x1f4;" horiz-adv-x="874" 
d="M634 1026h152l-184 -172h-115zM753 513q-44 169 -221 169q-131 0 -224.5 -102t-93.5 -243q0 -103 59 -168.5t172 -65.5q106 0 174 54.5t85 122.5h-284l28 111h415q-13 -180 -127.5 -290t-303.5 -110q-167 0 -257.5 97t-90.5 243q0 197 136.5 330t323.5 133
q62 0 115.5 -16t89.5 -41t63.5 -58.5t41.5 -65t20 -63.5z" />
    <glyph glyph-name="uni01F5" unicode="&#x1f5;" horiz-adv-x="671" 
d="M475 797h151l-183 -172h-115zM519 -16q-31 -117 -109.5 -184t-200.5 -67q-62 0 -111.5 20.5t-78 53t-43.5 68.5t-15 71l114 23q0 -49 34 -90t102 -41q148 0 190 154l21 81q-74 -66 -169 -66q-87 0 -146 64t-59 159q0 130 89.5 222t206.5 92q62 0 109.5 -26.5t71.5 -68.5
l22 85h117zM489 312q0 55 -34.5 90.5t-95.5 35.5q-77 0 -130.5 -57t-53.5 -139q0 -55 35.5 -92t91.5 -37q73 0 130 58.5t57 140.5z" />
    <glyph glyph-name="Aringacute" unicode="&#x1fa;" horiz-adv-x="789" 
d="M668 916q11 -25 11 -54q0 -82 -67 -128l114 -734h-125l-26 184h-383l-117 -184h-136l487 740q-36 34 -36 86q0 63 46.5 110t113.5 47q25 0 52 -8l88 103h152zM543 906q-29 0 -49 -23t-20 -50q0 -23 14.5 -36.5t37.5 -13.5q30 0 50 22.5t20 50.5q0 23 -15 36.5t-38 13.5z
M561 293l-57 375l-242 -375h299z" />
    <glyph glyph-name="aringacute" unicode="&#x1fb;" horiz-adv-x="672" 
d="M555 812q11 -25 11 -53q0 -63 -45.5 -109.5t-113.5 -46.5q-56 0 -93 33t-37 87q0 63 46.5 110t113.5 47q30 0 52 -9l89 104h151zM483 752q0 24 -14.5 37.5t-37.5 13.5h-1q-29 0 -49 -23t-20 -51q0 -23 15 -36t38 -13q29 0 49 22.5t20 49.5zM405 0l17 63q-77 -71 -170 -71
q-94 0 -150.5 64t-56.5 162q0 136 90.5 231.5t207.5 95.5q64 0 109.5 -26t69.5 -67l22 82h119l-141 -534h-117zM493 305q0 59 -38 95.5t-97 36.5q-80 0 -133 -62t-53 -148q0 -57 35 -93t92 -36q74 0 134 61t60 146z" />
    <glyph glyph-name="AEacute" unicode="&#x1fc;" horiz-adv-x="1066" 
d="M826 1026h151l-184 -172h-115zM67 0h-142l634 783h587l-30 -110h-375l-58 -220h340l-29 -110h-342l-61 -232h378l-29 -111h-500l50 184h-275zM303 293h216l101 381h-12z" />
    <glyph glyph-name="aeacute" unicode="&#x1fd;" horiz-adv-x="945" 
d="M602 797h151l-184 -172h-115zM421 104q-90 -113 -224 -113h-6q-71 0 -121 38.5t-50 103.5q0 76 58.5 122.5t152.5 52.5l128 8q57 4 57 60q0 34 -27.5 50.5t-63.5 16.5q-51 0 -87.5 -29.5t-46.5 -64.5l-105 33q6 22 24.5 48.5t49 53t77.5 44t101 17.5q117 0 158 -76
q82 76 190 76q102 0 163.5 -61.5t61.5 -164.5q0 -42 -14 -87h-401q-3 -65 38 -103t104 -38q49 0 86 25.5t55 57.5l93 -46q-28 -56 -90 -96.5t-152 -40.5q-72 0 -126 29.5t-83 83.5zM794 335q0 53 -31.5 80.5t-84.5 27.5q-56 0 -101.5 -33.5t-64.5 -87.5h281q1 5 1 13z
M272 229q-131 -10 -131 -83q0 -28 19.5 -44.5t48.5 -16.5q57 0 105.5 38.5t61.5 96.5l4 15z" />
    <glyph glyph-name="Oslashacute" unicode="&#x1fe;" horiz-adv-x="901" 
d="M634 1026h152l-184 -172h-115zM831 653q60 -85 60 -199q0 -118 -58 -224t-165 -172.5t-238 -66.5q-128 0 -222 72l-91 -86l-65 67l91 88q-60 85 -60 200q0 118 58 223.5t165 172t237 66.5t224 -73l93 89l65 -68zM531 683q-90 0 -165.5 -53t-115.5 -131.5t-40 -161.5
q0 -68 27 -119l439 420q-57 45 -145 45zM444 102q132 0 226.5 108t94.5 238q0 65 -28 118l-438 -420q57 -44 145 -44z" />
    <glyph glyph-name="oslashacute" unicode="&#x1ff;" horiz-adv-x="649" 
d="M454 797h151l-183 -172h-115zM569 442q39 -59 39 -141q0 -123 -92.5 -216.5t-218.5 -93.5q-87 0 -148 41l-67 -67l-59 61l64 65q-41 60 -41 141q0 124 92.5 218.5t218.5 94.5q86 0 150 -44l67 66l58 -60zM353 440q-80 0 -133.5 -63.5t-53.5 -139.5q0 -39 11 -60l248 245
q-31 18 -72 18zM303 96q77 0 131.5 63.5t54.5 138.5q0 33 -10 59l-247 -246q30 -15 71 -15z" />
    <glyph glyph-name="Scommaaccent" unicode="&#x218;" horiz-adv-x="661" 
d="M481 217q0 37 -23.5 58.5t-77.5 45.5l-74 33q-75 33 -117 79t-42 118q0 109 82 176t190 67q71 0 125 -22.5t82 -57.5t41 -71t13 -71l-120 -20q0 50 -34 91.5t-113 41.5q-56 0 -98 -32.5t-42 -83.5q0 -63 76 -97l85 -37q83 -36 128.5 -82.5t45.5 -123.5q0 -95 -75 -166.5
t-197 -71.5q-88 0 -160 37t-109 112q-22 47 -22 96q0 20 1 30l122 21q-1 -9 -1 -27q0 -75 47 -117t122 -42q60 0 102.5 30.5t42.5 85.5zM209 -283q61 37 92 88q-11 -3 -20 -3q-22 0 -37.5 16.5t-15.5 40.5q0 33 23.5 54t54.5 21t48 -23t17 -53q0 -48 -37 -99.5t-90 -80.5z
" />
    <glyph glyph-name="scommaaccent" unicode="&#x219;" horiz-adv-x="500" 
d="M305 147q0 40 -50 61l-58 26q-111 51 -111 138q0 71 55 121.5t144 50.5q53 0 92.5 -16t60 -42t29.5 -51.5t10 -50.5l-104 -16q0 29 -23.5 55.5t-67.5 26.5q-37 0 -57 -19t-20 -43q0 -34 39 -52l68 -29q116 -52 116 -145q0 -67 -53.5 -120t-150.5 -53q-143 0 -190 99
q-15 30 -15 65q0 6 1 13l103 18q-1 -5 -1 -9q0 -39 30 -64.5t72 -25.5q35 0 58 19t23 43zM89 -283q61 37 92 88q-10 -3 -20 -3q-22 0 -37.5 16.5t-15.5 40.5q0 33 23.5 54t54.5 21t48 -23t17 -53q0 -48 -37 -99.5t-90 -80.5z" />
    <glyph glyph-name="uni021A" unicode="&#x21a;" horiz-adv-x="656" 
d="M197 0l179 670h-248l30 113h620l-30 -113h-248l-180 -670h-123zM132 -283q61 37 92 88q-10 -3 -20 -3q-22 0 -37.5 16.5t-15.5 40.5q0 33 23.5 54t54.5 21t48 -23t17 -53q0 -48 -37 -99.5t-90 -80.5z" />
    <glyph glyph-name="uni021B" unicode="&#x21b;" horiz-adv-x="418" 
d="M222 181q-5 -25 -5 -32q0 -47 70 -47q22 0 46 6l-28 -102q-40 -11 -67 -11q-67 0 -106 32.5t-39 97.5q0 19 10 55l64 247h-102l28 107h102l44 165h118l-43 -165h133l-29 -107h-132zM43 -283q61 37 92 88q-11 -3 -20 -3q-22 0 -37.5 16.5t-15.5 40.5q0 33 23.5 54t54.5 21
t48 -23t17 -53q0 -48 -37 -99.5t-90 -80.5z" />
    <glyph glyph-name="uni0237" unicode="&#x237;" horiz-adv-x="289" 
d="M113 -106q-21 -79 -63 -119t-118 -40q-57 0 -91 18l26 99q23 -9 43 -9q70 0 90 78l162 613h119z" />
    <glyph glyph-name="circumflex" unicode="&#x2c6;" horiz-adv-x="375" 
d="M383 797l92 -172h-107l-45 92l-98 -92h-125l190 172h93z" />
    <glyph glyph-name="breve" unicode="&#x2d8;" horiz-adv-x="311" 
d="M251 623q-76 0 -118.5 46.5t-37.5 123.5h95q0 -82 68 -82q38 0 67 23t38 59h97q-24 -77 -78 -123.5t-131 -46.5z" />
    <glyph glyph-name="dotaccent" unicode="&#x2d9;" horiz-adv-x="103" 
d="M171 621q-31 0 -51 19.5t-20 50.5q0 36 25 62t61 26q31 0 51.5 -20t20.5 -51q0 -36 -25 -61.5t-62 -25.5z" />
    <glyph glyph-name="tilde" unicode="&#x2dc;" horiz-adv-x="398" 
d="M498 777q-30 -143 -137 -143q-32 0 -69.5 25t-58.5 25q-33 0 -50 -49h-83q16 67 46.5 105.5t91.5 38.5q30 0 70.5 -24.5t59.5 -24.5q36 0 55 47h75z" />
    <glyph glyph-name="hungarumlaut" unicode="&#x2dd;" horiz-adv-x="457" 
d="M248 797h151l-184 -172h-115zM461 797h151l-183 -172h-116z" />
    <glyph glyph-name="gravecomb" unicode="&#x300;" horiz-adv-x="0" 
d="M96 625h-93l-99 172h138z" />
    <glyph glyph-name="acutecomb" unicode="&#x301;" horiz-adv-x="0" 
d="M-2 797h151l-183 -172h-115z" />
    <glyph glyph-name="uni0302" unicode="&#x302;" horiz-adv-x="0" 
d="M95 797l92 -172h-107l-45 92l-98 -92h-125l190 172h93z" />
    <glyph glyph-name="tildecomb" unicode="&#x303;" horiz-adv-x="0" 
d="M199 777q-30 -143 -137 -143q-32 0 -69.5 25t-58.5 25q-33 0 -50 -49h-83q16 67 46.5 105.5t91.5 38.5q30 0 70.5 -24.5t59.5 -24.5q36 0 55 47h75z" />
    <glyph glyph-name="uni0304" unicode="&#x304;" horiz-adv-x="0" 
d="M161 635h-347l25 95h347z" />
    <glyph glyph-name="uni0306" unicode="&#x306;" horiz-adv-x="0" 
d="M-32 623q-76 0 -118.5 46.5t-37.5 123.5h95q0 -82 68 -82q38 0 67 23t38 59h97q-24 -77 -78 -123.5t-131 -46.5z" />
    <glyph glyph-name="uni0307" unicode="&#x307;" horiz-adv-x="0" 
d="M-8 621q-31 0 -51 19.5t-20 50.5q0 36 25 62t61 26q31 0 51.5 -20t20.5 -51q0 -36 -25 -61.5t-62 -25.5z" />
    <glyph glyph-name="uni0308" unicode="&#x308;" horiz-adv-x="0" 
d="M-119 620q-30 0 -49 18.5t-19 48.5q0 35 24.5 59.5t58.5 24.5q29 0 48.5 -19t19.5 -48q0 -35 -24 -59.5t-59 -24.5zM104 620q-30 0 -49 18.5t-19 48.5q0 35 24 59.5t58 24.5q29 0 49 -19t20 -48q0 -35 -24 -59.5t-59 -24.5z" />
    <glyph glyph-name="uni030A" unicode="&#x30a;" horiz-adv-x="0" 
d="M145 759q0 -63 -45.5 -109.5t-114.5 -46.5q-56 0 -93 33t-37 87q0 63 46.5 110t113.5 47q55 0 92.5 -33.5t37.5 -87.5zM61 752q0 24 -15 37.5t-38 13.5q-29 0 -49 -23t-20 -51q0 -23 15 -36t38 -13q29 0 49 22.5t20 49.5z" />
    <glyph glyph-name="uni030B" unicode="&#x30b;" horiz-adv-x="0" 
d="M7 797h151l-184 -172h-115zM220 797h151l-183 -172h-116z" />
    <glyph glyph-name="uni030C" unicode="&#x30c;" horiz-adv-x="0" 
d="M-95 625l-93 172h108l45 -92l98 92h124l-189 -172h-93z" />
    <glyph glyph-name="uni0312" unicode="&#x312;" horiz-adv-x="0" 
d="M90 825q-58 -33 -93 -88q10 3 20 3q22 0 37.5 -16.5t15.5 -40.5q0 -32 -23.5 -53t-54.5 -21t-47.5 22.5t-16.5 52.5q0 48 36.5 99.5t89.5 81.5z" />
    <glyph glyph-name="uni0326" unicode="&#x326;" horiz-adv-x="0" 
d="M-77 -283q61 37 92 88q-11 -3 -20 -3q-22 0 -37.5 16.5t-15.5 40.5q0 33 23.5 54t54.5 21t48 -23t17 -53q0 -48 -37 -99.5t-90 -80.5z" />
    <glyph glyph-name="uni0327" unicode="&#x327;" horiz-adv-x="0" 
d="M149 -66q0 -86 -55.5 -132t-154.5 -46q-51 0 -88 15l21 77q38 -9 68 -9q118 0 118 119q0 24 -5 42h82q14 -33 14 -66z" />
    <glyph glyph-name="uni0328" unicode="&#x328;" horiz-adv-x="0" 
d="M106 0q-21 -14 -32.5 -22.5t-31 -25.5t-29.5 -34.5t-10 -35.5q0 -42 68 -42h3l-22 -82q-20 -2 -31 -2q-50 0 -88.5 24.5t-38.5 70.5q0 76 120 149h92z" />
    <glyph glyph-name="Theta" unicode="&#x398;" horiz-adv-x="902" 
d="M430 -9q-154 0 -250.5 97t-96.5 244q0 118 58 223.5t164.5 172t236.5 66.5q155 0 252 -97t97 -243q0 -118 -58 -224t-165 -172.5t-238 -66.5zM443 104q90 0 164.5 51.5t114.5 130t40 162.5q0 102 -63 167.5t-169 65.5q-90 0 -164.5 -51.5t-114.5 -130t-40 -162.5
q0 -103 63 -168t169 -65zM295 454h416l-29 -111h-416z" />
    <glyph glyph-name="uni03A9" unicode="&#x3a9;" horiz-adv-x="892" 
d="M781 105l-28 -105h-327l50 187q116 23 196.5 102t80.5 190q0 92 -63.5 147t-150.5 55q-119 0 -213 -89.5t-94 -213.5q0 -70 41 -123t107 -68l-50 -187h-327l28 105h217l7 28q-67 37 -109 103.5t-42 141.5q0 96 38.5 176.5t101.5 132t142.5 79.5t163.5 28t151 -27.5
t106.5 -72.5t60 -99t20.5 -111q0 -135 -91.5 -227.5t-225.5 -128.5l-7 -23h217z" />
    <glyph glyph-name="theta" unicode="&#x3b8;" horiz-adv-x="725" 
d="M722 520q0 -117 -48.5 -237.5t-142 -206t-204.5 -85.5q-71 0 -122.5 26.5t-78.5 71.5t-39 95t-12 108q0 87 29 179.5t79 169.5t125.5 126.5t160.5 49.5q124 0 188.5 -80.5t64.5 -216.5zM606 458q5 37 5 63q0 191 -149 191q-81 0 -146 -73.5t-101 -180.5h391zM190 355
q-4 -29 -4 -64q0 -195 148 -195q82 0 146.5 75t100.5 184h-391z" />
    <glyph glyph-name="pi" unicode="&#x3c0;" horiz-adv-x="707" 
d="M590 2q-30 -7 -52 -7q-67 0 -106 32.5t-39 97.5q0 17 9 55l65 248h-170l-112 -428h-119l113 428h-116l28 106h639l-28 -106h-116l-64 -247q-5 -25 -5 -32q0 -47 70 -47q15 0 30 3z" />
    <glyph glyph-name="uni0401" unicode="&#x401;" horiz-adv-x="663" 
d="M395 849q-30 0 -49 18.5t-19 48.5q0 35 24 59.5t59 24.5q29 0 48.5 -19t19.5 -48q0 -35 -24 -59.5t-59 -24.5zM627 849q-30 0 -49 18.5t-19 48.5q0 35 24.5 59.5t58.5 24.5q29 0 48.5 -19t19.5 -48q0 -35 -24 -59.5t-59 -24.5zM243 783h498l-29 -110h-376l-58 -220h341
l-29 -110h-341l-63 -232h379l-29 -111h-502z" />
    <glyph glyph-name="uni0402" unicode="&#x402;" horiz-adv-x="845" 
d="M499 -36q-67 0 -112 15l29 107q27 -8 64 -8q90 0 147 51.5t57 138.5q0 54 -36 88t-96 34q-113 0 -214 -74l-84 -316h-123l180 672h-180l30 111h622l-30 -111h-319l-63 -239q118 70 235 70q92 0 151 -58.5t59 -150.5q0 -141 -89.5 -235.5t-227.5 -94.5z" />
    <glyph glyph-name="uni0403" unicode="&#x403;" horiz-adv-x="590" 
d="M542 1026h151l-183 -172h-115zM34 0l209 783h465l-29 -113h-343l-179 -670h-123z" />
    <glyph glyph-name="uni0404" unicode="&#x404;" horiz-adv-x="858" 
d="M444 102q58 0 107 17.5t81 47.5t51.5 57t32.5 56l112 -44q-18 -42 -50 -82.5t-80 -78.5t-118 -61t-151 -23q-151 0 -248 94t-97 248q0 123 59.5 228.5t166 169t234.5 63.5q78 0 141.5 -24.5t102.5 -64t62.5 -82t31.5 -86.5l-121 -35q-4 30 -18.5 59.5t-40 57.5t-69 45.5
t-97.5 17.5q-109 0 -193.5 -67.5t-112.5 -162.5h332l-29 -109h-323q1 -111 67.5 -176t166.5 -65z" />
    <glyph glyph-name="uni0405" unicode="&#x405;" horiz-adv-x="662" 
d="M481 217q0 37 -23.5 58.5t-77.5 45.5l-74 33q-75 33 -117 79t-42 118q0 109 82 176t190 67q71 0 125 -22.5t82 -57.5t41 -71t13 -71l-120 -20q0 50 -34 91.5t-113 41.5q-56 0 -98 -32.5t-42 -83.5q0 -63 76 -97l85 -37q83 -36 128.5 -82.5t45.5 -123.5q0 -95 -75 -166.5
t-197 -71.5q-88 0 -160 37t-109 112q-22 47 -22 96q0 20 1 30l122 21q-1 -9 -1 -27q0 -75 47 -117t122 -42q60 0 102.5 30.5t42.5 85.5z" />
    <glyph glyph-name="uni0406" unicode="&#x406;" horiz-adv-x="327" 
d="M366 783l-209 -783h-123l209 783h123z" />
    <glyph glyph-name="uni0407" unicode="&#x407;" horiz-adv-x="327" 
d="M216 849q-29 0 -48.5 19t-19.5 49q0 34 24.5 58.5t58.5 24.5q30 0 49 -18.5t19 -48.5q0 -35 -24.5 -59.5t-58.5 -24.5zM435 849q-29 0 -48.5 19t-19.5 49q0 34 24 58.5t58 24.5q30 0 49.5 -18.5t19.5 -48.5q0 -35 -24.5 -59.5t-58.5 -24.5zM366 783l-209 -783h-123
l209 783h123z" />
    <glyph glyph-name="uni0408" unicode="&#x408;" horiz-adv-x="620" 
d="M235 -9q-89 0 -150 53.5t-61 158.5q0 39 12 83l10 36l122 3l-13 -47q-11 -36 -11 -69q0 -49 27.5 -76.5t73.5 -27.5q57 0 96.5 34t54.5 92l146 552h123l-149 -571q-29 -109 -102.5 -165t-178.5 -56z" />
    <glyph glyph-name="uni0409" unicode="&#x409;" horiz-adv-x="1239" 
d="M353 413q-22 -58 -37.5 -96.5t-39 -88t-44.5 -81t-51 -64.5t-62 -51t-73 -28t-87 -7l-2 1l29 109q81 2 138 88t133 294l107 294h516l-81 -305h150q118 0 188.5 -54.5t70.5 -146.5q0 -132 -97 -204.5t-259 -72.5h-305l181 672h-279zM1082 265q0 49 -38.5 78.5t-106.5 29.5
h-166l-70 -263h156q106 0 165.5 40t59.5 115z" />
    <glyph glyph-name="uni040A" unicode="&#x40a;" horiz-adv-x="1239" 
d="M953 470q117 0 186 -53.5t69 -143.5q0 -130 -97 -201.5t-257 -71.5h-313l97 364h-385l-97 -364h-122l209 783h122l-84 -313h386l83 313h124l-84 -313h163zM850 108q109 0 169 39t60 117q0 48 -38 77t-110 29h-168l-70 -262h157z" />
    <glyph glyph-name="uni040B" unicode="&#x40b;" horiz-adv-x="858" 
d="M680 228q9 34 9 60q0 53 -34 77.5t-90 24.5q-113 0 -225 -65l-86 -325h-123l180 672h-180l30 111h622l-30 -111h-319l-63 -234q132 64 236 64q92 0 153.5 -40t61.5 -127q0 -33 -10 -71l-70 -264h-123z" />
    <glyph glyph-name="uni040C" unicode="&#x40c;" horiz-adv-x="710" 
d="M598 1026h152l-184 -172h-115zM843 783h-173l-394 -336l90 336h-123l-209 -783h122l100 372l248 -372h145l-269 393z" />
    <glyph glyph-name="uni040E" unicode="&#x40e;" horiz-adv-x="708" 
d="M500 850q-65 0 -105.5 41.5t-40.5 104.5v4l73 15q9 -77 83 -77q70 0 108 77l74 -14q-56 -151 -192 -151zM387 342l322 441h140l-428 -582q-32 -44 -62 -76t-71 -65.5t-91 -51t-105 -17.5q-39 0 -91 13l29 107q38 -9 74 -9q105 0 195 120l-162 561h128z" />
    <glyph glyph-name="uni040F" unicode="&#x40f;" horiz-adv-x="825" 
d="M864 783l-210 -783h-248l-44 -165h-123l44 165h-249l209 783h122l-180 -672h376l180 672h123z" />
    <glyph glyph-name="uni0410" unicode="&#x410;" horiz-adv-x="789" 
d="M194 184l-117 -184h-138l515 783h150l122 -783h-125l-26 184h-381zM265 293h295l-56 366z" />
    <glyph glyph-name="uni0411" unicode="&#x411;" horiz-adv-x="733" 
d="M282 469h155q119 0 186.5 -53.5t67.5 -143.5q0 -131 -98.5 -201.5t-266.5 -70.5h-292l209 783h528l-29 -111h-405zM346 110q102 0 160.5 38t58.5 114q0 47 -36.5 75.5t-105.5 28.5h-169l-68 -256h160z" />
    <glyph glyph-name="uni0412" unicode="&#x412;" horiz-adv-x="744" 
d="M485 783q125 0 190.5 -52t65.5 -136q0 -73 -47.5 -125.5t-130.5 -71.5q120 -48 120 -162q0 -106 -87.5 -171t-245.5 -65h-316l209 783h242zM429 451q78 0 133 30.5t55 97.5q0 94 -138 94h-144l-59 -222h153zM367 110q90 0 142 35.5t52 97.5q0 47 -39.5 74t-110.5 27h-163
l-62 -234h181z" />
    <glyph glyph-name="uni0413" unicode="&#x413;" horiz-adv-x="590" 
d="M34 0l209 783h465l-29 -113h-343l-179 -670h-123z" />
    <glyph glyph-name="uni0414" unicode="&#x414;" horiz-adv-x="872" 
d="M701 110h83l-74 -275h-123l44 165h-563l-44 -165h-122l73 275q81 2 150 99.5t137 280.5l109 293h510zM729 674h-276l-77 -205q-58 -157 -105 -234.5t-108 -123.5h416z" />
    <glyph glyph-name="uni0415" unicode="&#x415;" horiz-adv-x="663" 
d="M243 783h498l-29 -110h-376l-58 -220h341l-29 -110h-341l-63 -232h379l-29 -111h-502z" />
    <glyph glyph-name="uni0416" unicode="&#x416;" horiz-adv-x="1054" 
d="M631 416h5l385 367h165l-430 -399l230 -384h-142l-217 380h-5l-102 -380h-123l102 380h-6l-397 -380h-164l446 418l-228 365h138l216 -367h4l98 367h123z" />
    <glyph glyph-name="uni0417" unicode="&#x417;" horiz-adv-x="653" 
d="M287 -10q-115 0 -187 65t-72 163l121 24q-3 -63 38.5 -102t110.5 -39q62 0 113 36.5t51 97.5q0 48 -31 77.5t-92 29.5h-104l27 110h89q85 0 134 36.5t49 93.5q0 47 -34 75t-87 28q-56 0 -101.5 -28.5t-71.5 -83.5l-113 45q35 84 112 130.5t182 46.5q109 0 175 -60
t66 -142q0 -77 -50 -131t-128 -72v-1q49 -22 77.5 -64.5t28.5 -95.5q0 -101 -84 -170t-219 -69z" />
    <glyph glyph-name="uni0418" unicode="&#x418;" horiz-adv-x="855" 
d="M894 784l-208 -784h-122l158 601l-543 -601h-145l209 783h121l-160 -603l546 604h144z" />
    <glyph glyph-name="uni0419" unicode="&#x419;" horiz-adv-x="855" 
d="M573 850q-66 0 -106.5 41.5t-40.5 104.5v4l73 15q9 -77 83 -77q70 0 108 77l74 -14q-56 -151 -191 -151zM34 0h145l543 601l-158 -601h122l208 784h-144l-546 -604l160 603h-121z" />
    <glyph glyph-name="uni041A" unicode="&#x41a;" horiz-adv-x="710" 
d="M156 0h-122l209 783h123l-90 -336l394 336h173l-463 -390l269 -393h-145l-248 372z" />
    <glyph glyph-name="uni041B" unicode="&#x41b;" horiz-adv-x="841" 
d="M-14 107q81 2 138 88t133 294l107 294h516l-209 -783h-123l180 672h-279l-95 -253q-22 -60 -38 -99t-39.5 -89.5t-45 -82t-51 -65t-61.5 -51.5t-72.5 -28t-87.5 -7l-2 1z" />
    <glyph glyph-name="uni041C" unicode="&#x41c;" horiz-adv-x="1041" 
d="M871 0h-122l155 583h-2l-396 -583h-101l-92 587h-2l-156 -587h-121l209 783h158l94 -598h2l403 598h180z" />
    <glyph glyph-name="uni041D" unicode="&#x41d;" horiz-adv-x="835" 
d="M247 339l-90 -339h-123l209 783h123l-88 -329h385l87 329h124l-209 -783h-124l91 339h-385z" />
    <glyph glyph-name="uni041E" unicode="&#x41e;" horiz-adv-x="901" 
d="M430 -9q-154 0 -250.5 97t-96.5 244q0 118 58 223.5t164.5 172t236.5 66.5q155 0 252 -97t97 -243q0 -118 -58 -224t-165 -172.5t-238 -66.5zM443 104q90 0 164.5 51.5t114.5 130t40 162.5q0 102 -63 167.5t-169 65.5q-90 0 -164.5 -51.5t-114 -130t-39.5 -162.5
q0 -103 62.5 -168t168.5 -65z" />
    <glyph glyph-name="uni041F" unicode="&#x41f;" horiz-adv-x="825" 
d="M336 672l-179 -672h-123l209 783h620l-209 -783h-123l179 672h-374z" />
    <glyph glyph-name="uni0420" unicode="&#x420;" horiz-adv-x="697" 
d="M738 567q0 -128 -98.5 -202t-256.5 -74h-149l-77 -291h-123l209 783h220q127 0 201 -54.5t74 -161.5zM611 559q0 53 -39 82t-110 29h-126l-72 -268h126q103 0 162 42t59 115z" />
    <glyph glyph-name="uni0421" unicode="&#x421;" horiz-adv-x="857" 
d="M432 -9q-151 0 -249.5 95.5t-98.5 248.5q0 187 135 323t327 136q78 0 141.5 -24.5t102.5 -64t62 -82.5t31 -87l-122 -36q-9 68 -66 124.5t-160 56.5q-93 0 -168 -51t-114.5 -128.5t-39.5 -162.5q0 -111 65.5 -173t166.5 -62q58 0 106.5 18t79.5 47.5t50 56.5t32 57
l117 -46q-18 -42 -50 -82.5t-79.5 -78.5t-117.5 -61.5t-151 -23.5z" />
    <glyph glyph-name="uni0422" unicode="&#x422;" horiz-adv-x="655" 
d="M197 0l179 670h-249l30 113h621l-30 -113h-249l-179 -670h-123z" />
    <glyph glyph-name="uni0423" unicode="&#x423;" horiz-adv-x="708" 
d="M387 342l322 441h140l-428 -582q-32 -44 -62 -76t-71 -65.5t-91 -51t-105 -17.5q-39 0 -91 13l29 107q38 -9 74 -9q105 0 195 120l-162 561h128z" />
    <glyph glyph-name="uni0424" unicode="&#x424;" horiz-adv-x="994" 
d="M688 735q146 -5 224 -85.5t78 -201.5q0 -164 -119.5 -274t-313.5 -110h-48l-24 -89h-123l24 89q-145 7 -223 87t-78 203q0 162 119 271.5t315 109.5h46l19 74h124zM505 625q-132 0 -212.5 -71.5t-80.5 -186.5q0 -87 53 -139t150 -53l120 450h-30zM572 176q130 0 211 71.5
t81 185.5q0 86 -54 138.5t-150 53.5l-121 -449h33z" />
    <glyph glyph-name="uni0425" unicode="&#x425;" horiz-adv-x="732" 
d="M386 308l-285 -308h-163l396 409l-179 374h141l128 -284l265 284h163l-375 -387l189 -396h-143z" />
    <glyph glyph-name="uni0426" unicode="&#x426;" horiz-adv-x="855" 
d="M570 -165l44 165h-580l209 783h122l-180 -672h376l180 672h123l-180 -671h83l-74 -277h-123z" />
    <glyph glyph-name="uni0427" unicode="&#x427;" horiz-adv-x="756" 
d="M548 320q-130 -64 -236 -64q-95 0 -148.5 48.5t-53.5 134.5q0 37 12 79l70 265h123l-70 -262q-7 -25 -7 -54q0 -97 120 -97q105 0 221 65l93 348h123l-209 -783h-123z" />
    <glyph glyph-name="uni0428" unicode="&#x428;" horiz-adv-x="1221" 
d="M364 783l-181 -672h328l178 672h122l-178 -672h326l179 672h121l-207 -783h-1018l208 783h122z" />
    <glyph glyph-name="uni0429" unicode="&#x429;" horiz-adv-x="1253" 
d="M364 783l-180 -672h327l179 672h122l-179 -672h326l180 672h122l-179 -672h83l-73 -276h-122l43 165h-978l207 783h122z" />
    <glyph glyph-name="uni042A" unicode="&#x42a;" horiz-adv-x="806" 
d="M515 478q118 0 189 -54.5t71 -146.5q0 -132 -97 -204.5t-259 -72.5h-303l180 672h-176l29 111h299l-82 -305h149zM649 265q0 49 -38 78t-107 29h-166l-69 -261h156q105 0 164.5 39.5t59.5 114.5z" />
    <glyph glyph-name="uni042B" unicode="&#x42b;" horiz-adv-x="1012" 
d="M691 277q0 -132 -97 -204.5t-259 -72.5h-301l209 783h122l-81 -305h148q118 0 188.5 -54.5t70.5 -146.5zM1051 783l-209 -783h-130l209 783h130zM565 265q0 49 -38 78t-107 29h-165l-69 -261h155q105 0 164.5 39.5t59.5 114.5z" />
    <glyph glyph-name="uni042C" unicode="&#x42c;" horiz-adv-x="722" 
d="M691 277q0 -132 -97 -204.5t-259 -72.5h-301l209 783h122l-81 -305h148q118 0 188.5 -54.5t70.5 -146.5zM565 265q0 49 -38 78t-107 29h-165l-69 -261h155q105 0 164.5 39.5t59.5 114.5z" />
    <glyph glyph-name="uni042D" unicode="&#x42d;" horiz-adv-x="855" 
d="M492 794q153 0 251.5 -95.5t98.5 -247.5q0 -124 -56.5 -228.5t-161.5 -168t-237 -63.5q-122 0 -218.5 71.5t-113.5 185.5l119 38q14 -85 75 -134t147 -49q105 0 188.5 68.5t115.5 171.5h-345l29 109h332q3 97 -63 164t-173 67q-89 0 -163 -50t-104 -129l-112 44
q45 115 153 180.5t238 65.5z" />
    <glyph glyph-name="uni042E" unicode="&#x42e;" horiz-adv-x="1158" 
d="M821 794q148 0 237 -93t89 -239q0 -124 -57 -232t-159 -173.5t-225 -65.5q-146 0 -236 96t-93 249h-130l-90 -336h-123l209 783h123l-89 -334h117q37 142 154 243.5t273 101.5zM717 104q87 0 157.5 52t107.5 130.5t37 163.5q0 100 -57.5 165t-154.5 65
q-127 0 -214.5 -106t-87.5 -239q0 -104 57.5 -167.5t154.5 -63.5z" />
    <glyph glyph-name="uni042F" unicode="&#x42f;" horiz-adv-x="723" 
d="M429 0l80 299h-130l-254 -299h-150l281 324q-126 48 -126 184q0 128 98.5 201.5t261.5 73.5h271l-209 -783h-123zM483 672q-109 0 -168 -41.5t-59 -115.5q0 -53 40.5 -82t106.5 -29h134l71 268h-125z" />
    <glyph glyph-name="uni0430" unicode="&#x430;" horiz-adv-x="672" 
d="M405 0l17 63q-77 -71 -170 -71q-94 0 -150.5 64t-56.5 162q0 136 90.5 231.5t207.5 95.5q64 0 109.5 -26t69.5 -67l22 82h119l-141 -534h-117zM493 305q0 59 -38 95.5t-97 36.5q-80 0 -133 -62t-53 -148q0 -57 35 -93t92 -36q74 0 134 61t60 146z" />
    <glyph glyph-name="uni0431" unicode="&#x431;" horiz-adv-x="679" 
d="M449 666q-105 -21 -169.5 -84.5t-89.5 -154.5h2q33 46 91.5 78.5t120.5 32.5q101 0 166 -67.5t65 -182.5q0 -122 -91 -209.5t-221 -87.5q-124 0 -187.5 76t-63.5 216q0 102 39 203.5t107 171.5q84 86 221 111l215 40l13 -100zM372 435q-71 0 -124 -60.5t-53 -135.5
q0 -64 35.5 -102.5t97.5 -38.5q79 0 132 58.5t53 137.5q0 65 -36.5 103t-104.5 38z" />
    <glyph glyph-name="uni0432" unicode="&#x432;" horiz-adv-x="620" 
d="M584 406q0 -51 -35.5 -87t-94.5 -50q40 -11 66 -40t26 -69q0 -72 -61 -116t-172 -44h-299l140 534h255q86 0 130.5 -36t44.5 -92zM347 314q52 0 82.5 20t30.5 55q0 54 -81 54h-131l-34 -129h133zM307 92q52 0 83 21t31 56q0 29 -24.5 45t-65.5 16h-139l-36 -138h151z" />
    <glyph glyph-name="uni0433" unicode="&#x433;" horiz-adv-x="473" 
d="M14 0l140 534h372l-27 -105h-253l-114 -429h-118z" />
    <glyph glyph-name="uni0434" unicode="&#x434;" horiz-adv-x="706" 
d="M620 104l-71 -269h-117l44 165h-401l-44 -165h-116l70 268q103 0 213 283q4 8 5 12l51 136h410l-113 -430h69zM299 341q-33 -87 -67 -145.5t-84 -91.5h284l85 325h-184z" />
    <glyph glyph-name="uni0435" unicode="&#x435;" horiz-adv-x="613" 
d="M165 232q-3 -65 37.5 -103t103.5 -38q49 0 86 25.5t55 57.5l93 -46q-28 -56 -90 -96.5t-152 -40.5q-110 0 -181 65t-71 175q0 126 93 220t215 94q103 0 164.5 -61.5t61.5 -164.5q0 -37 -14 -87h-401zM347 443q-56 0 -101.5 -33.5t-64.5 -87.5h279q1 5 1 12q0 53 -31 81
t-83 28z" />
    <glyph glyph-name="uni0436" unicode="&#x436;" horiz-adv-x="868" 
d="M501 288h7l260 246h158l-298 -273l164 -261h-139l-153 259h-6l-68 -259h-118l68 259h-6l-269 -259h-159l308 288l-161 246h135l153 -246h6l65 246h118z" />
    <glyph glyph-name="uni0437" unicode="&#x437;" horiz-adv-x="517" 
d="M373 263q33 -16 50 -45.5t17 -63.5q0 -72 -63 -117.5t-171 -45.5q-84 0 -137 43t-57 120l108 18q5 -39 27.5 -61.5t61.5 -22.5q44 0 76.5 21t32.5 59q0 57 -81 57h-63l23 89h53q58 0 87 20t29 55q0 26 -22 43t-56 17q-37 0 -69 -19.5t-47 -52.5l-102 34q27 64 87 99.5
t143 35.5q87 0 137 -41t50 -105q0 -49 -31 -86t-83 -50v-1z" />
    <glyph glyph-name="uni0438" unicode="&#x438;" horiz-adv-x="648" 
d="M477 356l-345 -356h-119l141 534h116l-94 -357l349 357h115l-140 -534h-117z" />
    <glyph glyph-name="uni0439" unicode="&#x439;" horiz-adv-x="648" 
d="M410 623q-66 0 -106.5 41.5t-40.5 104.5v4l73 15q9 -77 83 -77q69 0 108 77l75 -14q-58 -151 -192 -151zM477 356l-345 -356h-119l141 534h116l-94 -357l349 357h115l-140 -534h-117z" />
    <glyph glyph-name="uni043A" unicode="&#x43a;" horiz-adv-x="585" 
d="M132 0h-119l141 534h119l-59 -225h6l263 225h165l-322 -270l199 -264h-146l-177 247h-5z" />
    <glyph glyph-name="uni043B" unicode="&#x43b;" horiz-adv-x="656" 
d="M261 271q-47 -127 -107 -201t-145 -74q-20 0 -48 4l28 105q60 0 95 52.5t88 195.5l67 181h408l-139 -534h-119l112 429h-181z" />
    <glyph glyph-name="uni043C" unicode="&#x43c;" horiz-adv-x="812" 
d="M129 0h-116l141 534h165l58 -381l256 381h171l-140 -534h-117l105 398l-267 -398h-86l-62 407z" />
    <glyph glyph-name="uni043D" unicode="&#x43d;" horiz-adv-x="643" 
d="M191 222l-58 -222h-119l140 534h119l-55 -209h242l56 209h118l-139 -534h-119l58 222h-243z" />
    <glyph glyph-name="uni043E" unicode="&#x43e;" horiz-adv-x="649" 
d="M357 545q110 0 180.5 -66.5t70.5 -177.5q0 -123 -92.5 -216.5t-218.5 -93.5q-110 0 -180.5 66t-70.5 175q0 124 92.5 218.5t218.5 94.5zM304 98q75 0 128.5 63t53.5 137q0 66 -37 102.5t-99 36.5q-76 0 -129 -63t-53 -137q0 -65 37.5 -102t98.5 -37z" />
    <glyph glyph-name="uni043F" unicode="&#x43f;" horiz-adv-x="637" 
d="M246 429l-114 -429h-118l139 534h476l-140 -534h-119l113 429h-237z" />
    <glyph glyph-name="uni0440" unicode="&#x440;" horiz-adv-x="671" 
d="M333 -8q-127 0 -177 97l-93 -352h-119l210 797h116l-18 -67q75 77 172 77q92 0 149.5 -62.5t57.5 -163.5q0 -137 -91 -231.5t-207 -94.5zM324 98q77 0 131.5 61t54.5 148q0 59 -35 94.5t-92 35.5q-77 0 -135.5 -62t-58.5 -145q0 -58 37 -95t98 -37z" />
    <glyph glyph-name="uni0441" unicode="&#x441;" horiz-adv-x="616" 
d="M301 -9q-115 0 -185 66t-70 176q0 125 93.5 218.5t218.5 93.5q101 0 162 -50.5t75 -119.5l-109 -32q-7 36 -41.5 65t-94.5 29q-75 0 -128.5 -62.5t-53.5 -137.5q0 -64 37 -101.5t103 -37.5q58 0 96.5 30t56.5 68l104 -38q-31 -67 -99.5 -117t-164.5 -50z" />
    <glyph glyph-name="uni0442" unicode="&#x442;" horiz-adv-x="513" 
d="M133 0l113 429h-181l28 105h474l-27 -105h-176l-113 -429h-118z" />
    <glyph glyph-name="uni0443" unicode="&#x443;" horiz-adv-x="598" 
d="M177 3l-87 531h121l60 -398l254 398h129l-520 -797h-132z" />
    <glyph glyph-name="uni0444" unicode="&#x444;" horiz-adv-x="898" 
d="M332 41q-66 -48 -131 -48q-70 0 -114.5 51t-44.5 143q0 62 18.5 123.5t52.5 114t90 85t123 32.5q80 0 125 -50l82 313h119l-83 -315q71 52 132 52q69 0 114 -53t45 -145q0 -84 -31 -162.5t-97.5 -133.5t-153.5 -55q-89 0 -127 46l-75 -283h-119zM256 96q47 0 100 37
l71 270q-33 36 -88 36q-79 0 -126 -72.5t-47 -166.5q0 -45 25 -74.5t65 -29.5zM646 438q-49 0 -99 -35l-72 -272q32 -35 88 -35q79 0 125.5 71.5t46.5 164.5q0 45 -24.5 75.5t-64.5 30.5z" />
    <glyph glyph-name="uni0445" unicode="&#x445;" horiz-adv-x="570" 
d="M270 182l-176 -182h-147l276 276l-131 258h134l82 -172l167 172h147l-266 -268l133 -266h-134z" />
    <glyph glyph-name="uni0446" unicode="&#x446;" horiz-adv-x="671" 
d="M397 -164l43 164h-427l141 534h119l-112 -430h235l113 430h119l-112 -430h69l-71 -268h-117z" />
    <glyph glyph-name="uni0447" unicode="&#x447;" horiz-adv-x="589" 
d="M373 196q-83 -39 -172 -39q-63 0 -103.5 33t-40.5 96q0 24 7 52l52 196h120l-46 -176q-6 -22 -6 -37q0 -27 17.5 -43.5t51.5 -16.5q81 0 147 40l62 233h119l-141 -534h-118z" />
    <glyph glyph-name="uni0448" unicode="&#x448;" horiz-adv-x="930" 
d="M272 534l-112 -430h205l113 430h119l-113 -430h206l113 430h119l-141 -534h-768l141 534h118z" />
    <glyph glyph-name="uni0449" unicode="&#x449;" horiz-adv-x="964" 
d="M272 534l-112 -430h205l113 430h119l-113 -430h206l113 430h119l-114 -430h70l-71 -269h-113l44 165h-725l141 534h118z" />
    <glyph glyph-name="uni044A" unicode="&#x44a;" horiz-adv-x="684" 
d="M445 356q93 0 143 -42t50 -108q0 -96 -71 -151t-194 -55h-268l114 429h-156l28 105h274l-47 -178h127zM250 99h116q71 0 110.5 26t39.5 75q0 32 -26 49t-67 17h-128z" />
    <glyph glyph-name="uni044B" unicode="&#x44b;" horiz-adv-x="872" 
d="M154 534h119l-47 -178h127q92 0 142.5 -42t50.5 -108q0 -96 -71.5 -151t-194.5 -55h-267zM864 534l-140 -534h-120l141 534h119zM158 99h115q71 0 111 26t40 75q0 32 -26.5 49t-66.5 17h-128z" />
    <glyph glyph-name="uni044C" unicode="&#x44c;" horiz-adv-x="592" 
d="M154 534h119l-47 -178h127q92 0 142.5 -42t50.5 -108q0 -96 -71.5 -151t-194.5 -55h-267zM158 99h115q71 0 111 26t40 75q0 32 -26.5 49t-66.5 17h-128z" />
    <glyph glyph-name="uni044D" unicode="&#x44d;" horiz-adv-x="617" 
d="M267 -9q-94 0 -157 45.5t-81 127.5l105 32q28 -99 136 -99q59 0 108.5 40t63.5 92h-210l24 93h197q-2 50 -40 83.5t-96 33.5q-49 0 -93 -28t-66 -71l-102 34q31 80 106.5 125.5t161.5 45.5q112 0 181 -69.5t69 -179.5q0 -126 -88 -215.5t-219 -89.5z" />
    <glyph glyph-name="uni044E" unicode="&#x44e;" horiz-adv-x="868" 
d="M594 545q110 0 171 -66t61 -170q0 -129 -85.5 -223.5t-214.5 -94.5q-106 0 -166.5 63t-66.5 164h-104l-58 -218h-117l140 534h118l-57 -216h90q30 98 108.5 162.5t180.5 64.5zM533 98q74 0 123 61.5t49 143.5q0 62 -32 98.5t-90 36.5q-74 0 -123 -63t-49 -144
q0 -63 32 -98t90 -35z" />
    <glyph glyph-name="uni044F" unicode="&#x44f;" horiz-adv-x="603" 
d="M336 0l46 173h-95l-167 -173h-147l194 197q-92 34 -92 134q0 93 71 148t189 55h260l-141 -534h-118zM343 435q-70 0 -108 -26.5t-38 -74.5q0 -67 94 -67h116l44 168h-108z" />
    <glyph glyph-name="uni0451" unicode="&#x451;" horiz-adv-x="613" 
d="M296 771q29 0 49 -19t20 -48q0 -35 -24 -59.5t-59 -24.5q-30 0 -49 18.5t-19 48.5q0 35 24 59.5t58 24.5zM504 620q-30 0 -49 18.5t-19 48.5q0 35 24.5 59.5t58.5 24.5q29 0 48.5 -19t19.5 -48q0 -35 -24 -59.5t-59 -24.5zM165 232q-3 -65 37.5 -103t103.5 -38
q49 0 86 25.5t55 57.5l93 -46q-28 -56 -90 -96.5t-152 -40.5q-110 0 -181 65t-71 175q0 126 93 220t215 94q103 0 164.5 -61.5t61.5 -164.5q0 -37 -14 -87h-401zM347 443q-56 0 -101.5 -33.5t-64.5 -87.5h279q1 5 1 12q0 53 -31 81t-83 28z" />
    <glyph glyph-name="uni0452" unicode="&#x452;" horiz-adv-x="617" 
d="M228 814h120l-24 -89h186l-23 -87h-186l-43 -164q78 71 159 71q78 0 122 -45t44 -118q0 -32 -15 -92l-68 -256q-35 -132 -59 -179q-56 -110 -178 -119q-13 -1 -27 -1q-53 0 -86 11l28 106q16 -8 56 -8q28 0 50.5 12t36 27t26 43.5t18 45.5t13.5 49q3 10 4 15l68 257
q7 30 7 53q0 42 -25.5 64t-70.5 22q-54 0 -94.5 -39t-55.5 -97l-78 -296h-119l168 638h-75l23 87h75z" />
    <glyph glyph-name="uni0453" unicode="&#x453;" horiz-adv-x="473" 
d="M424 797h152l-184 -172h-115zM14 0l140 534h372l-27 -105h-253l-114 -429h-118z" />
    <glyph glyph-name="uni0454" unicode="&#x454;" horiz-adv-x="615" 
d="M488 344q-8 37 -42.5 66t-93.5 29q-55 0 -103 -35t-65 -82h206l-24 -93h-200q2 -63 40 -98t104 -35q58 0 96 29.5t58 67.5l101 -36q-31 -67 -100 -116.5t-165 -49.5q-113 0 -183.5 66t-70.5 176q0 125 92.5 218.5t217.5 93.5q102 0 162.5 -50t74.5 -119z" />
    <glyph glyph-name="uni0455" unicode="&#x455;" horiz-adv-x="500" 
d="M305 147q0 40 -50 61l-58 26q-111 51 -111 138q0 71 55 121.5t144 50.5q53 0 92.5 -16t60 -42t29.5 -51.5t10 -50.5l-104 -16q0 29 -23.5 55.5t-67.5 26.5q-37 0 -57 -19t-20 -43q0 -34 39 -52l68 -29q116 -52 116 -145q0 -67 -53.5 -120t-150.5 -53q-143 0 -190 99
q-15 30 -15 65q0 6 1 13l103 18q-1 -5 -1 -9q0 -39 30 -64.5t72 -25.5q35 0 58 19t23 43z" />
    <glyph glyph-name="uni0456" unicode="&#x456;" horiz-adv-x="281" 
d="M251 629q-31 0 -50.5 19.5t-19.5 50.5q0 36 25 61.5t61 25.5q31 0 51 -19.5t20 -50.5q0 -36 -25.5 -61.5t-61.5 -25.5zM273 534l-141 -534h-119l141 534h119z" />
    <glyph glyph-name="uni0457" unicode="&#x457;" horiz-adv-x="281" 
d="M127 620q-30 0 -49 18.5t-19 48.5q0 35 24 59.5t59 24.5q29 0 48.5 -19t19.5 -48q0 -35 -24 -59.5t-59 -24.5zM349 620q-30 0 -49 18.5t-19 48.5q0 35 24.5 59.5t58.5 24.5q29 0 48.5 -19t19.5 -48q0 -35 -24 -59.5t-59 -24.5zM273 534l-140 -534h-120l141 534h119z" />
    <glyph glyph-name="uni0458" unicode="&#x458;" horiz-adv-x="289" 
d="M260 629q-31 0 -51 19.5t-20 50.5q0 36 25 61.5t61 25.5q30 0 50.5 -20t20.5 -50q0 -36 -25 -61.5t-61 -25.5zM113 -106q-21 -79 -63 -119t-118 -40q-57 0 -91 18l26 99q23 -9 43 -9q70 0 90 78l162 613h119z" />
    <glyph glyph-name="uni0459" unicode="&#x459;" horiz-adv-x="965" 
d="M264 281q-23 -62 -47 -109.5t-55 -89t-70 -64t-83 -22.5q-19 0 -49 4l28 105q61 0 96 52.5t87 195.5l68 181h407l-46 -178h127q92 0 142 -42t50 -108q0 -96 -71 -151t-194 -55h-266l113 429h-182zM533 99h114q71 0 111 26t40 75q0 32 -26.5 49t-66.5 17h-128z" />
    <glyph glyph-name="uni045A" unicode="&#x45a;" horiz-adv-x="950" 
d="M437 238h-242l-63 -238h-119l141 534h120l-52 -193h241l51 193h119l-50 -193h128q92 0 142.5 -40t50.5 -105q0 -90 -71 -143t-192 -53h-267zM634 98q69 0 108.5 23.5t39.5 67.5q0 31 -27 47.5t-68 16.5h-128l-42 -155h117z" />
    <glyph glyph-name="uni045B" unicode="&#x45b;" horiz-adv-x="632" 
d="M416 545q79 0 123 -45t44 -118q0 -39 -16 -92l-76 -290h-119l77 293q8 34 8 53q0 42 -26 64t-70 22q-54 0 -95 -39t-56 -97l-78 -296h-119l166 628h-70l22 87h71l26 99h119l-26 -99h166l-23 -87h-166l-41 -154q78 71 159 71z" />
    <glyph glyph-name="uni045C" unicode="&#x45c;" horiz-adv-x="585" 
d="M478 797h151l-184 -172h-115zM326 264l322 270h-165l-263 -225h-6l59 225h-119l-141 -534h119l65 247h5l177 -247h146z" />
    <glyph glyph-name="uni045E" unicode="&#x45e;" horiz-adv-x="598" 
d="M386 623q-66 0 -106.5 41.5t-40.5 104.5v4l73 15q9 -77 83 -77q69 0 108 77l74 -14q-56 -151 -191 -151zM177 3l-87 531h121l60 -398l254 398h129l-520 -797h-132z" />
    <glyph glyph-name="uni045F" unicode="&#x45f;" horiz-adv-x="637" 
d="M149 -164l44 164h-180l141 534h119l-112 -430h235l113 430h119l-140 -534h-178l-44 -164h-117z" />
    <glyph glyph-name="uni0490" unicode="&#x490;" horiz-adv-x="591" 
d="M157 0h-123l209 783h343l43 162h123l-73 -275h-344z" />
    <glyph glyph-name="uni0491" unicode="&#x491;" horiz-adv-x="473" 
d="M14 0l139 534h262l42 159h111l-69 -264h-254l-113 -429h-118z" />
    <glyph glyph-name="uni0496" unicode="&#x496;" horiz-adv-x="1079" 
d="M866 0h-22l-217 380h-5l-102 -380h-123l102 380h-6l-397 -380h-164l446 418l-228 365h138l216 -367h4l98 367h123l-98 -367h5l385 367h165l-430 -399l163 -272h100l-75 -277h-122z" />
    <glyph glyph-name="uni0497" unicode="&#x497;" horiz-adv-x="892" 
d="M677 0h-24l-153 259h-6l-68 -259h-118l68 259h-6l-269 -259h-159l308 288l-161 246h135l153 -246h6l65 246h118l-65 -246h7l260 246h158l-298 -273l98 -157h96l-71 -268h-117z" />
    <glyph glyph-name="uni0498" unicode="&#x498;" horiz-adv-x="653" 
d="M218 -3q-87 19 -138.5 79t-51.5 142l121 24q-3 -63 38.5 -102t110.5 -39q62 0 113 36.5t51 97.5q0 48 -31 77.5t-92 29.5h-104l27 110h89q85 0 134 36.5t49 93.5q0 47 -34 75t-87 28q-56 0 -101.5 -28.5t-71.5 -83.5l-113 45q35 84 112 130.5t182 46.5q109 0 175 -60
t66 -142q0 -77 -50 -131t-128 -72v-1q49 -22 77.5 -64.5t28.5 -95.5q0 -90 -68.5 -156.5t-182.5 -79.5l-42 -158h-122z" />
    <glyph glyph-name="uni0499" unicode="&#x499;" horiz-adv-x="517" 
d="M373 263q33 -16 50 -45.5t17 -63.5q0 -61 -45 -103.5t-125 -55.5l-42 -159h-117l42 160q-62 12 -99.5 53t-41.5 105l108 18q5 -39 27.5 -61.5t61.5 -22.5q44 0 76.5 21t32.5 59q0 57 -81 57h-63l23 89h53q58 0 87 20t29 55q0 26 -22 43t-56 17q-37 0 -69 -19.5t-47 -52.5
l-102 34q27 64 87 99.5t143 35.5q87 0 137 -41t50 -105q0 -49 -31 -86t-83 -50v-1z" />
    <glyph glyph-name="uni049A" unicode="&#x49a;" horiz-adv-x="738" 
d="M530 0h-26l-248 372l-100 -372h-122l209 783h123l-90 -336l394 336h173l-463 -390l193 -281h109l-74 -277h-123z" />
    <glyph glyph-name="uni049B" unicode="&#x49b;" horiz-adv-x="612" 
d="M410 0h-31l-177 247h-5l-65 -247h-119l141 534h119l-59 -225h6l263 225h165l-322 -270l120 -160h109l-71 -268h-116z" />
    <glyph glyph-name="uni04A2" unicode="&#x4a2;" horiz-adv-x="882" 
d="M649 0h-108l91 339h-385l-90 -339h-123l209 783h123l-88 -329h385l87 329h124l-180 -671h108l-74 -277h-123z" />
    <glyph glyph-name="uni04A3" unicode="&#x4a3;" horiz-adv-x="678" 
d="M447 0h-71l58 222h-243l-58 -222h-119l140 534h119l-55 -209h242l56 209h118l-112 -430h69l-70 -268h-117z" />
    <glyph glyph-name="uni04AA" unicode="&#x4aa;" horiz-adv-x="857" 
d="M328 -165l43 160q-128 20 -207.5 111.5t-79.5 228.5q0 187 135 323t327 136q78 0 141.5 -24.5t102.5 -64t62 -82.5t31 -87l-122 -36q-9 68 -66 124.5t-160 56.5q-93 0 -168 -51t-114.5 -128.5t-39.5 -162.5q0 -111 65.5 -173t166.5 -62q58 0 106.5 18t79.5 47.5t50 56.5
t32 57l117 -46q-36 -84 -122 -155.5t-215 -87.5l-43 -159h-122z" />
    <glyph glyph-name="uni04AB" unicode="&#x4ab;" horiz-adv-x="616" 
d="M242 -4q-90 17 -143 80t-53 157q0 125 93.5 218.5t218.5 93.5q101 0 162 -50.5t75 -119.5l-109 -32q-7 36 -41.5 65t-94.5 29q-75 0 -128.5 -62.5t-53.5 -137.5q0 -64 37 -101.5t103 -37.5q58 0 96.5 30t56.5 68l104 -38q-24 -55 -77.5 -101t-128.5 -61l-42 -160h-117z
" />
    <glyph glyph-name="uni04AC" unicode="&#x4ac;" horiz-adv-x="661" 
d="M305 0h-108l179 670h-249l30 113h621l-30 -113h-249l-149 -558h108l-75 -277h-122z" />
    <glyph glyph-name="uni04AD" unicode="&#x4ad;" horiz-adv-x="517" 
d="M204 0h-71l113 429h-181l28 105h474l-27 -105h-176l-85 -325h69l-71 -268h-116z" />
    <glyph glyph-name="uni04B2" unicode="&#x4b2;" horiz-adv-x="773" 
d="M567 0h-44l-137 308l-285 -308h-163l396 409l-179 374h141l128 -284l265 284h163l-375 -387l135 -284h108l-74 -277h-123z" />
    <glyph glyph-name="uni04B3" unicode="&#x4b3;" horiz-adv-x="592" 
d="M375 0h-20l-85 182l-176 -182h-147l276 276l-131 258h134l82 -172l167 172h147l-266 -268l81 -162h83l-71 -268h-117z" />
    <glyph glyph-name="uni04B6" unicode="&#x4b6;" horiz-adv-x="804" 
d="M571 0h-108l85 320q-130 -64 -236 -64q-95 0 -148.5 48.5t-53.5 134.5q0 37 12 79l70 265h123l-70 -262q-7 -25 -7 -54q0 -97 120 -97q105 0 221 65l93 348h123l-179 -671h108l-75 -277h-122z" />
    <glyph glyph-name="uni04B7" unicode="&#x4b7;" horiz-adv-x="624" 
d="M393 0h-71l51 196q-83 -39 -172 -39q-63 0 -103.5 33t-40.5 96q0 24 7 52l52 196h120l-46 -176q-6 -22 -6 -37q0 -27 17.5 -43.5t51.5 -16.5q81 0 147 40l62 233h119l-113 -430h69l-71 -268h-116z" />
    <glyph glyph-name="uni04C0" unicode="&#x4c0;" horiz-adv-x="327" 
d="M366 783l-209 -783h-123l209 783h123z" />
    <glyph glyph-name="uni04C1" unicode="&#x4c1;" horiz-adv-x="1054" 
d="M677 850q-66 0 -106.5 41.5t-40.5 104.5v4l73 15q9 -77 83 -77q70 0 108 77l74 -14q-56 -151 -191 -151zM631 416h5l385 367h165l-430 -399l230 -384h-142l-217 380h-5l-102 -380h-123l102 380h-6l-397 -380h-164l446 418l-228 365h138l216 -367h4l98 367h123z" />
    <glyph glyph-name="uni04C2" unicode="&#x4c2;" horiz-adv-x="868" 
d="M532 623q-66 0 -106.5 41.5t-40.5 104.5v4l73 15q9 -77 83 -77q69 0 108 77l74 -14q-56 -151 -191 -151zM501 288h7l260 246h158l-298 -273l164 -261h-139l-153 259h-6l-68 -259h-118l68 259h-6l-269 -259h-159l308 288l-161 246h135l153 -246h6l65 246h118z" />
    <glyph glyph-name="uni04CF" unicode="&#x4cf;" horiz-adv-x="281" 
d="M273 534l-140 -534h-120l141 534h119z" />
    <glyph glyph-name="uni04D0" unicode="&#x4d0;" horiz-adv-x="789" 
d="M194 184l-117 -184h-138l515 783h150l122 -783h-125l-26 184h-381zM265 293h295l-56 366z" />
    <glyph glyph-name="uni04D1" unicode="&#x4d1;" horiz-adv-x="672" 
d="M396 623q-66 0 -106.5 41.5t-40.5 104.5v4l73 15q9 -77 83 -77q69 0 108 77l74 -14q-56 -151 -191 -151zM405 0l17 63q-77 -71 -170 -71q-94 0 -150.5 64t-56.5 162q0 136 90.5 231.5t207.5 95.5q64 0 109.5 -26t69.5 -67l22 82h119l-141 -534h-117zM493 305
q0 59 -38 95.5t-97 36.5q-80 0 -133 -62t-53 -148q0 -57 35 -93t92 -36q74 0 134 61t60 146z" />
    <glyph glyph-name="uni04D2" unicode="&#x4d2;" horiz-adv-x="789" 
d="M428 849q-30 0 -49 18.5t-19 48.5q0 35 24 59.5t58 24.5q29 0 49 -19t20 -48q0 -35 -24 -59.5t-59 -24.5zM660 849q-30 0 -49 18.5t-19 48.5q0 35 24 59.5t58 24.5q29 0 49 -19t20 -48q0 -35 -24 -59.5t-59 -24.5zM194 184l-117 -184h-138l515 783h150l122 -783h-125
l-26 184h-381zM265 293h295l-56 366z" />
    <glyph glyph-name="uni04D3" unicode="&#x4d3;" horiz-adv-x="672" 
d="M296 620q-29 0 -48 18.5t-19 48.5q0 35 24 59.5t58 24.5q29 0 48.5 -19t19.5 -48q0 -35 -24 -59.5t-59 -24.5zM519 620q-30 0 -49 18.5t-19 48.5q0 35 24 59.5t58 24.5q29 0 49 -19t20 -48q0 -35 -24 -59.5t-59 -24.5zM405 0l17 63q-77 -71 -170 -71q-94 0 -150.5 64
t-56.5 162q0 136 90.5 231.5t207.5 95.5q64 0 109.5 -26t69.5 -67l22 82h119l-141 -534h-117zM493 305q0 59 -38 95.5t-97 36.5q-80 0 -133 -62t-53 -148q0 -57 35 -93t92 -36q74 0 134 61t60 146z" />
    <glyph glyph-name="uni04D4" unicode="&#x4d4;" horiz-adv-x="1067" 
d="M67 0h-142l635 783h586l-30 -110h-375l-58 -220h340l-29 -110h-341l-61 -232h378l-30 -111h-500l51 184h-276zM303 293h217l100 381h-11z" />
    <glyph glyph-name="uni04D5" unicode="&#x4d5;" horiz-adv-x="945" 
d="M421 104q-90 -113 -224 -113h-6q-71 0 -121 38.5t-50 103.5q0 76 58.5 122.5t152.5 52.5l128 8q57 4 57 60q0 34 -27.5 50.5t-63.5 16.5q-51 0 -87.5 -29.5t-46.5 -64.5l-105 33q6 22 24.5 48.5t49 53t77.5 44t101 17.5q117 0 158 -76q82 76 190 76q102 0 163.5 -61.5
t61.5 -164.5q0 -42 -14 -87h-401q-3 -65 38 -103t104 -38q49 0 86 25.5t55 57.5l93 -46q-28 -56 -90 -96.5t-152 -40.5q-72 0 -126 29.5t-83 83.5zM794 335q0 53 -31.5 80.5t-84.5 27.5q-56 0 -101.5 -33.5t-64.5 -87.5h281q1 5 1 13zM272 229q-131 -10 -131 -83
q0 -28 19.5 -44.5t48.5 -16.5q57 0 105.5 38.5t61.5 96.5l4 15z" />
    <glyph glyph-name="uni04D6" unicode="&#x4d6;" horiz-adv-x="663" 
d="M243 783h498l-29 -110h-376l-58 -220h341l-29 -110h-341l-63 -232h379l-29 -111h-502z" />
    <glyph glyph-name="uni04D7" unicode="&#x4d7;" horiz-adv-x="613" 
d="M393 623q-66 0 -106.5 41.5t-40.5 104.5v4l73 15q9 -77 83 -77q70 0 108 77l74 -14q-56 -151 -191 -151zM165 232q-3 -65 37.5 -103t103.5 -38q49 0 86 25.5t55 57.5l93 -46q-28 -56 -90 -96.5t-152 -40.5q-110 0 -181 65t-71 175q0 126 93 220t215 94q103 0 164.5 -61.5
t61.5 -164.5q0 -37 -14 -87h-401zM347 443q-56 0 -101.5 -33.5t-64.5 -87.5h280v12q0 53 -31 81t-83 28z" />
    <glyph glyph-name="uni04DC" unicode="&#x4dc;" horiz-adv-x="1054" 
d="M578 849q-29 0 -48.5 19t-19.5 49q0 34 24 58.5t59 24.5q30 0 49 -18.5t19 -48.5q0 -35 -24.5 -59.5t-58.5 -24.5zM796 849q-29 0 -48 19t-19 49q0 34 24 58.5t58 24.5q30 0 49 -18.5t19 -48.5q0 -35 -24 -59.5t-59 -24.5zM631 416h5l385 367h165l-430 -399l230 -384
h-142l-217 380h-5l-102 -380h-123l102 380h-6l-397 -380h-164l446 418l-228 365h138l216 -367h4l98 367h123z" />
    <glyph glyph-name="uni04DD" unicode="&#x4dd;" horiz-adv-x="868" 
d="M421 620q-30 0 -49 18.5t-19 48.5q0 35 24 59.5t59 24.5q29 0 48.5 -19t19.5 -48q0 -35 -24 -59.5t-59 -24.5zM643 620q-30 0 -49 18.5t-19 48.5q0 35 24.5 59.5t58.5 24.5q29 0 48.5 -19t19.5 -48q0 -35 -24 -59.5t-59 -24.5zM501 288h7l260 246h158l-298 -273l164 -261
h-139l-153 259h-6l-68 -259h-118l68 259h-6l-269 -259h-159l308 288l-161 246h135l153 -246h6l65 246h118z" />
    <glyph glyph-name="uni04DE" unicode="&#x4de;" horiz-adv-x="653" 
d="M346 849q-30 0 -49 18.5t-19 48.5q0 35 24 59.5t59 24.5q29 0 48.5 -19t19.5 -48q0 -35 -24 -59.5t-59 -24.5zM578 849q-30 0 -49 18.5t-19 48.5q0 35 24.5 59.5t58.5 24.5q29 0 48.5 -19t19.5 -48q0 -35 -24 -59.5t-59 -24.5zM287 -10q-115 0 -187 65t-72 163l121 24
q-3 -63 38.5 -102t110.5 -39q62 0 113 36.5t51 97.5q0 48 -31 77.5t-92 29.5h-104l27 110h89q85 0 134 36.5t49 93.5q0 47 -34 75t-87 28q-56 0 -101.5 -28.5t-71.5 -83.5l-113 45q35 84 112 130.5t182 46.5q109 0 175 -60t66 -142q0 -77 -50 -131t-128 -72v-1
q49 -22 77.5 -64.5t28.5 -95.5q0 -101 -84 -170t-219 -69z" />
    <glyph glyph-name="uni04DF" unicode="&#x4df;" horiz-adv-x="517" 
d="M224 620q-30 0 -49 18.5t-19 48.5q0 35 24 59.5t59 24.5q29 0 48.5 -19t19.5 -48q0 -35 -24 -59.5t-59 -24.5zM446 620q-30 0 -49 18.5t-19 48.5q0 35 24.5 59.5t58.5 24.5q29 0 48.5 -19t19.5 -48q0 -35 -24 -59.5t-59 -24.5zM373 263q33 -16 50 -45.5t17 -63.5
q0 -72 -63 -117.5t-171 -45.5q-84 0 -137 43t-57 120l108 18q5 -39 27.5 -61.5t61.5 -22.5q44 0 76.5 21t32.5 59q0 57 -81 57h-63l23 89h53q58 0 87 20t29 55q0 26 -22 43t-56 17q-37 0 -69 -19.5t-47 -52.5l-102 34q27 64 87 99.5t143 35.5q87 0 137 -41t50 -105
q0 -49 -31 -86t-83 -50v-1z" />
    <glyph glyph-name="uni04E2" unicode="&#x4e2;" horiz-adv-x="855" 
d="M759 889h-346l25 95h347zM894 784l-208 -784h-122l158 601l-543 -601h-145l209 783h121l-160 -603l546 604h144z" />
    <glyph glyph-name="uni04E3" unicode="&#x4e3;" horiz-adv-x="648" 
d="M586 635h-347l26 95h346zM477 356l-345 -356h-119l141 534h116l-94 -357l349 357h115l-140 -534h-117z" />
    <glyph glyph-name="uni04E4" unicode="&#x4e4;" horiz-adv-x="855" 
d="M470 849q-30 0 -49 18.5t-19 48.5q0 35 24 59.5t58 24.5q29 0 49 -19t20 -48q0 -35 -24 -59.5t-59 -24.5zM702 849q-30 0 -49 18.5t-19 48.5q0 35 24 59.5t58 24.5q29 0 49 -19t20 -48q0 -35 -24 -59.5t-59 -24.5zM894 784l-208 -784h-122l158 601l-543 -601h-145
l209 783h121l-160 -603l546 604h144z" />
    <glyph glyph-name="uni04E5" unicode="&#x4e5;" horiz-adv-x="648" 
d="M477 356l-345 -356h-119l141 534h116l-94 -357l349 357h115l-140 -534h-117z" />
    <glyph glyph-name="uni04E6" unicode="&#x4e6;" horiz-adv-x="901" 
d="M458 849q-30 0 -49 18.5t-19 48.5q0 35 24 59.5t58 24.5q29 0 49 -19t20 -48q0 -35 -24.5 -59.5t-58.5 -24.5zM689 849q-29 0 -48 18.5t-19 48.5q0 35 24 59.5t58 24.5q29 0 48.5 -19t19.5 -48q0 -35 -24 -59.5t-59 -24.5zM430 -9q131 0 238 66.5t165 172.5t58 224
q0 146 -97 243t-252 97q-130 0 -236.5 -66.5t-164.5 -172t-58 -223.5q0 -147 96.5 -244t250.5 -97zM443 104q-106 0 -168.5 65t-62.5 168q0 84 39.5 162.5t114 130t164.5 51.5q106 0 169 -65.5t63 -167.5q0 -84 -40 -162.5t-114.5 -130t-164.5 -51.5z" />
    <glyph glyph-name="uni04E7" unicode="&#x4e7;" horiz-adv-x="649" 
d="M290 620q-30 0 -49 18.5t-19 48.5q0 35 24 59.5t59 24.5q29 0 48.5 -19t19.5 -48q0 -35 -24 -59.5t-59 -24.5zM512 620q-30 0 -49 18.5t-19 48.5q0 35 24.5 59.5t58.5 24.5q29 0 48.5 -19t19.5 -48q0 -35 -24 -59.5t-59 -24.5zM357 545q110 0 180.5 -66.5t70.5 -177.5
q0 -123 -92.5 -216.5t-218.5 -93.5q-110 0 -180.5 66t-70.5 175q0 124 92.5 218.5t218.5 94.5zM304 98q75 0 128.5 63t53.5 137q0 66 -37 102.5t-99 36.5q-76 0 -129 -63t-53 -137q0 -65 37.5 -102t98.5 -37z" />
    <glyph glyph-name="uni04E8" unicode="&#x4e8;" horiz-adv-x="901" 
d="M430 -9q-154 0 -250.5 97t-96.5 244q0 118 58 223.5t164.5 172t236.5 66.5q155 0 252 -97t97 -243q0 -118 -58 -224t-165 -172.5t-238 -66.5zM763 451q-1 101 -64.5 165.5t-168.5 64.5q-104 0 -186 -67t-113 -163h532zM211 345v-8q0 -103 63 -168t169 -65
q107 0 191.5 71.5t111.5 169.5h-535z" />
    <glyph glyph-name="uni04E9" unicode="&#x4e9;" horiz-adv-x="649" 
d="M357 545q110 0 180.5 -66.5t70.5 -177.5q0 -123 -92.5 -216.5t-218.5 -93.5q-110 0 -180.5 66t-70.5 175q0 124 92.5 218.5t218.5 94.5zM488 312q-1 59 -39.5 93t-97.5 34q-57 0 -104.5 -37t-65.5 -90h307zM166 224q1 -59 40 -93.5t98 -34.5q56 0 104 37.5t66 90.5h-308z
" />
    <glyph glyph-name="uni04EA" unicode="&#x4ea;" horiz-adv-x="901" 
d="M458 849q-30 0 -49 18.5t-19 48.5q0 35 24 59.5t58 24.5q29 0 49 -19t20 -48q0 -35 -24.5 -59.5t-58.5 -24.5zM689 849q-29 0 -48 18.5t-19 48.5q0 35 24 59.5t58 24.5q29 0 48.5 -19t19.5 -48q0 -35 -24 -59.5t-59 -24.5zM430 -9q-154 0 -250.5 97t-96.5 244
q0 118 58 223.5t164.5 172t236.5 66.5q155 0 252 -97t97 -243q0 -118 -58 -224t-165 -172.5t-238 -66.5zM763 451q-1 101 -64.5 165.5t-168.5 64.5q-104 0 -186 -67t-113 -163h532zM211 345v-8q0 -103 63 -168t169 -65q107 0 191.5 71.5t111.5 169.5h-535z" />
    <glyph glyph-name="uni04EB" unicode="&#x4eb;" horiz-adv-x="649" 
d="M290 620q-30 0 -49 18.5t-19 48.5q0 35 24 59.5t59 24.5q29 0 48.5 -19t19.5 -48q0 -35 -24 -59.5t-59 -24.5zM512 620q-30 0 -49 18.5t-19 48.5q0 35 24.5 59.5t58.5 24.5q29 0 48.5 -19t19.5 -48q0 -35 -24 -59.5t-59 -24.5zM357 545q110 0 180.5 -66.5t70.5 -177.5
q0 -123 -92.5 -216.5t-218.5 -93.5q-110 0 -180.5 66t-70.5 175q0 124 92.5 218.5t218.5 94.5zM488 312q-1 59 -39.5 93t-97.5 34q-57 0 -104.5 -37t-65.5 -90h307zM166 224q1 -59 40 -93.5t98 -34.5q56 0 104 37.5t66 90.5h-308z" />
    <glyph glyph-name="uni04EC" unicode="&#x4ec;" horiz-adv-x="855" 
d="M395 849q-30 0 -49 18.5t-19 48.5q0 35 24 59.5t59 24.5q29 0 48.5 -19t19.5 -48q0 -35 -24 -59.5t-59 -24.5zM627 849q-30 0 -49 18.5t-19 48.5q0 35 24.5 59.5t58.5 24.5q29 0 48.5 -19t19.5 -48q0 -35 -24 -59.5t-59 -24.5zM492 794q153 0 251.5 -95.5t98.5 -247.5
q0 -124 -56.5 -228.5t-161.5 -168t-237 -63.5q-122 0 -218.5 71.5t-113.5 185.5l119 38q14 -85 75 -134t147 -49q105 0 188.5 68.5t115.5 171.5h-345l29 109h332q3 97 -63 164t-173 67q-89 0 -163 -50t-104 -129l-112 44q45 115 153 180.5t238 65.5z" />
    <glyph glyph-name="uni04ED" unicode="&#x4ed;" horiz-adv-x="617" 
d="M244 620q-30 0 -49 18.5t-19 48.5q0 35 24 59.5t59 24.5q29 0 48.5 -19t19.5 -48q0 -35 -24 -59.5t-59 -24.5zM466 620q-30 0 -49 18.5t-19 48.5q0 35 24.5 59.5t58.5 24.5q29 0 48.5 -19t19.5 -48q0 -35 -24 -59.5t-59 -24.5zM267 -9q-94 0 -157 45.5t-81 127.5l105 32
q28 -99 136 -99q59 0 108.5 40t63.5 92h-210l24 93h197q-2 50 -40 83.5t-96 33.5q-49 0 -93 -28t-66 -71l-102 34q31 80 106.5 125.5t161.5 45.5q112 0 181 -69.5t69 -179.5q0 -126 -88 -215.5t-219 -89.5z" />
    <glyph glyph-name="uni04EE" unicode="&#x4ee;" horiz-adv-x="708" 
d="M688 889h-347l26 95h346zM387 342l322 441h140l-428 -582q-32 -44 -62 -76t-71 -65.5t-91 -51t-105 -17.5q-39 0 -91 13l29 107q38 -9 74 -9q105 0 195 120l-162 561h128z" />
    <glyph glyph-name="uni04EF" unicode="&#x4ef;" horiz-adv-x="598" 
d="M559 635h-347l25 95h347zM177 3l-87 531h121l60 -398l254 398h129l-520 -797h-132z" />
    <glyph glyph-name="uni04F0" unicode="&#x4f0;" horiz-adv-x="708" 
d="M394 849q-30 0 -49 18.5t-19 48.5q0 35 24 59.5t58 24.5q29 0 49 -19t20 -48q0 -35 -24.5 -59.5t-58.5 -24.5zM625 849q-29 0 -48 18.5t-19 48.5q0 35 24 59.5t58 24.5q29 0 48.5 -19t19.5 -48q0 -35 -24 -59.5t-59 -24.5zM387 342l322 441h140l-428 -582
q-32 -44 -62 -76t-71 -65.5t-91 -51t-105 -17.5q-39 0 -91 13l29 107q38 -9 74 -9q105 0 195 120l-162 561h128z" />
    <glyph glyph-name="uni04F1" unicode="&#x4f1;" horiz-adv-x="598" 
d="M285 620q-30 0 -49 18.5t-19 48.5q0 35 24 59.5t59 24.5q29 0 48.5 -19t19.5 -48q0 -35 -24 -59.5t-59 -24.5zM507 620q-30 0 -49 18.5t-19 48.5q0 35 24.5 59.5t58.5 24.5q29 0 48.5 -19t19.5 -48q0 -35 -24 -59.5t-59 -24.5zM177 3l-87 531h121l60 -398l254 398h129
l-520 -797h-132z" />
    <glyph glyph-name="uni04F2" unicode="&#x4f2;" horiz-adv-x="708" 
d="M478 1026h151l-184 -172h-115zM690 1026h152l-184 -172h-115zM387 342l322 441h140l-428 -582q-32 -44 -62 -76t-71 -65.5t-91 -51t-105 -17.5q-39 0 -91 13l29 107q38 -9 74 -9q105 0 195 120l-162 561h128z" />
    <glyph glyph-name="uni04F3" unicode="&#x4f3;" horiz-adv-x="598" 
d="M366 797h151l-184 -172h-115zM579 797h151l-184 -172h-115zM177 3l-87 531h121l60 -398l254 398h129l-520 -797h-132z" />
    <glyph glyph-name="uni04F4" unicode="&#x4f4;" horiz-adv-x="756" 
d="M396 849q-29 0 -48 18.5t-19 48.5q0 35 24 59.5t58 24.5q29 0 48.5 -19t19.5 -48q0 -35 -24 -59.5t-59 -24.5zM628 849q-29 0 -48 18.5t-19 48.5q0 35 24 59.5t58 24.5q29 0 48.5 -19t19.5 -48q0 -35 -24 -59.5t-59 -24.5zM548 320q-130 -64 -236 -64q-95 0 -148.5 48.5
t-53.5 134.5q0 37 12 79l70 265h123l-70 -262q-7 -25 -7 -54q0 -97 120 -97q105 0 221 65l93 348h123l-209 -783h-123z" />
    <glyph glyph-name="uni04F5" unicode="&#x4f5;" horiz-adv-x="589" 
d="M262 620q-30 0 -49 18.5t-19 48.5q0 35 24 59.5t59 24.5q29 0 48.5 -19t19.5 -48q0 -35 -24 -59.5t-59 -24.5zM484 620q-29 0 -48 18.5t-19 48.5q0 35 24 59.5t58 24.5q29 0 48.5 -19t19.5 -48q0 -35 -24 -59.5t-59 -24.5zM373 196q-83 -39 -172 -39q-63 0 -103.5 33
t-40.5 96q0 24 7 52l52 196h120l-46 -176q-6 -22 -6 -37q0 -27 17.5 -43.5t51.5 -16.5q81 0 147 40l62 233h119l-141 -534h-118z" />
    <glyph glyph-name="uni04F8" unicode="&#x4f8;" horiz-adv-x="1012" 
d="M547 849q-30 0 -49 18.5t-19 48.5q0 35 24.5 59.5t58.5 24.5q29 0 48.5 -19t19.5 -48q0 -35 -24 -59.5t-59 -24.5zM779 849q-30 0 -49 18.5t-19 48.5q0 35 24.5 59.5t58.5 24.5q29 0 48.5 -19t19.5 -48q0 -35 -24 -59.5t-59 -24.5zM691 277q0 -132 -97 -204.5t-259 -72.5
h-301l209 783h122l-81 -305h148q118 0 188.5 -54.5t70.5 -146.5zM1051 783l-209 -783h-130l209 783h130zM565 265q0 49 -38 78t-107 29h-165l-69 -261h155q105 0 164.5 39.5t59.5 114.5z" />
    <glyph glyph-name="uni04F9" unicode="&#x4f9;" horiz-adv-x="872" 
d="M433 620q-30 0 -49 18.5t-19 48.5q0 35 24 59.5t58 24.5q29 0 49 -19t20 -48q0 -35 -24 -59.5t-59 -24.5zM655 620q-30 0 -49 18.5t-19 48.5q0 35 24 59.5t58 24.5q29 0 49 -19t20 -48q0 -35 -24 -59.5t-59 -24.5zM154 534h119l-47 -178h127q92 0 142.5 -42t50.5 -108
q0 -96 -71.5 -151t-194.5 -55h-267zM864 534l-140 -534h-120l141 534h119zM158 99h115q71 0 111 26t40 75q0 32 -26.5 49t-66.5 17h-128z" />
    <glyph glyph-name="uni0E3F" unicode="&#xe3f;" horiz-adv-x="742" 
d="M34 0l209 783h228l29 108h80l-30 -112q94 -13 142.5 -62.5t48.5 -121.5q0 -73 -47.5 -125.5t-130.5 -71.5q120 -48 120 -162q0 -106 -87.5 -171t-245.5 -65h-8l-28 -102h-80l28 102h-228zM335 673l-59 -222h107l60 222h-108zM461 453q67 5 111.5 35.5t44.5 90.5
q0 79 -97 91zM248 344l-62 -234h106l63 234h-107zM370 110q88 1 139.5 36.5t51.5 96.5q0 44 -34 70.5t-95 30.5z" />
    <glyph glyph-name="uni1E20" unicode="&#x1e20;" horiz-adv-x="874" 
d="M733 889h-347l26 95h346zM753 513q-44 169 -221 169q-131 0 -224.5 -102t-93.5 -243q0 -103 59 -168.5t172 -65.5q106 0 174 54.5t85 122.5h-284l28 111h415q-13 -180 -127.5 -290t-303.5 -110q-167 0 -257.5 97t-90.5 243q0 197 136.5 330t323.5 133q62 0 115.5 -16
t89.5 -41t63.5 -58.5t41.5 -65t20 -63.5z" />
    <glyph glyph-name="uni1E21" unicode="&#x1e21;" horiz-adv-x="671" 
d="M585 635h-346l25 95h347zM519 -16q-31 -117 -109.5 -184t-200.5 -67q-62 0 -111.5 20.5t-78 53t-43.5 68.5t-15 71l114 23q0 -49 34 -90t102 -41q148 0 190 154l21 81q-74 -66 -169 -66q-87 0 -146 64t-59 159q0 130 89.5 222t206.5 92q62 0 109.5 -26.5t71.5 -68.5
l22 85h117zM489 312q0 55 -34.5 90.5t-95.5 35.5q-77 0 -130.5 -57t-53.5 -139q0 -55 35.5 -92t91.5 -37q73 0 130 58.5t57 140.5z" />
    <glyph glyph-name="uni1E30" unicode="&#x1e30;" horiz-adv-x="709" 
d="M598 1026h152l-184 -172h-115zM843 783h-173l-394 -336l90 336h-123l-209 -783h122l100 372l248 -372h145l-269 393z" />
    <glyph glyph-name="uni1E31" unicode="&#x1e31;" horiz-adv-x="580" 
d="M205 267h-2l-70 -267h-119l214 814h119l-128 -486h2l251 206h174l-317 -254l186 -280h-141zM692 797h-151l-148 -172h115z" />
    <glyph glyph-name="uni1E60" unicode="&#x1e60;" horiz-adv-x="661" 
d="M445 849q-31 0 -51 19.5t-20 50.5q0 36 25 62t61 26q31 0 51 -20t20 -51q0 -36 -25 -61.5t-61 -25.5zM481 217q0 37 -23.5 58.5t-77.5 45.5l-74 33q-75 33 -117 79t-42 118q0 109 82 176t190 67q71 0 125 -22.5t82 -57.5t41 -71t13 -71l-120 -20q0 50 -34 91.5t-113 41.5
q-56 0 -98 -32.5t-42 -83.5q0 -63 76 -97l85 -37q83 -36 128.5 -82.5t45.5 -123.5q0 -95 -75 -166.5t-197 -71.5q-88 0 -160 37t-109 112q-22 47 -22 96q0 20 1 30l122 21q-1 -9 -1 -27q0 -75 47 -117t122 -42q60 0 102.5 30.5t42.5 85.5z" />
    <glyph glyph-name="uni1E61" unicode="&#x1e61;" horiz-adv-x="500" 
d="M311 621q-31 0 -51 19.5t-20 50.5q0 36 25 62t61 26q31 0 51 -20t20 -51q0 -36 -25 -61.5t-61 -25.5zM305 147q0 40 -50 61l-58 26q-111 51 -111 138q0 71 55 121.5t144 50.5q53 0 92.5 -16t60 -42t29.5 -51.5t10 -50.5l-104 -16q0 29 -23.5 55.5t-67.5 26.5
q-37 0 -57 -19t-20 -43q0 -34 39 -52l68 -29q116 -52 116 -145q0 -67 -53.5 -120t-150.5 -53q-143 0 -190 99q-15 30 -15 65q0 6 1 13l103 18q-1 -5 -1 -9q0 -39 30 -64.5t72 -25.5q35 0 58 19t23 43z" />
    <glyph glyph-name="Wgrave" unicode="&#x1e80;" horiz-adv-x="1180" 
d="M774 855h-92l-100 172h138zM156 783h127l28 -614l336 614h134l43 -614l329 614h136l-431 -783h-140l-41 604l-337 -604h-140z" />
    <glyph glyph-name="wgrave" unicode="&#x1e81;" horiz-adv-x="878" 
d="M567 625h-93l-99 172h138zM591 158h1l213 376h125l-311 -534h-125l-23 372h-3l-221 -372h-124l-30 534h121l14 -374h1l220 374h120z" />
    <glyph glyph-name="Wacute" unicode="&#x1e82;" horiz-adv-x="1180" 
d="M815 1026h151l-183 -172h-116zM156 783h127l28 -614l336 614h134l43 -614l329 614h136l-431 -783h-140l-41 604l-337 -604h-140z" />
    <glyph glyph-name="wacute" unicode="&#x1e83;" horiz-adv-x="878" 
d="M613 797h152l-184 -172h-115zM591 158h1l213 376h125l-311 -534h-125l-23 372h-3l-221 -372h-124l-30 534h121l14 -374h1l220 374h120z" />
    <glyph glyph-name="Wdieresis" unicode="&#x1e84;" horiz-adv-x="1180" 
d="M621 849q-30 0 -49 18.5t-19 48.5q0 35 24 59.5t59 24.5q29 0 48.5 -19t19.5 -48q0 -35 -24 -59.5t-59 -24.5zM853 849q-30 0 -49 18.5t-19 48.5q0 35 24.5 59.5t58.5 24.5q29 0 48.5 -19t19.5 -48q0 -35 -24 -59.5t-59 -24.5zM156 783h127l28 -614l336 614h134l43 -614
l329 614h136l-431 -783h-140l-41 604l-337 -604h-140z" />
    <glyph glyph-name="wdieresis" unicode="&#x1e85;" horiz-adv-x="878" 
d="M423 620q-30 0 -49 18.5t-19 48.5q0 35 24 59.5t58 24.5q30 0 49.5 -19t19.5 -48q0 -35 -24 -59.5t-59 -24.5zM645 620q-30 0 -49 18.5t-19 48.5q0 35 24.5 59.5t58.5 24.5q29 0 48.5 -19t19.5 -48q0 -35 -24 -59.5t-59 -24.5zM591 158h1l213 376h125l-311 -534h-125
l-23 372h-3l-221 -372h-124l-30 534h121l14 -374h1l220 374h120z" />
    <glyph glyph-name="uni1E90" unicode="&#x1e90;" horiz-adv-x="664" 
d="M566 1026l93 -172h-108l-45 92l-98 -92h-124l189 172h93zM566 674h-400l29 109h558l-28 -105l-570 -569h430l-29 -109h-586l28 106z" />
    <glyph glyph-name="uni1E91" unicode="&#x1e91;" horiz-adv-x="525" 
d="M443 797l93 -172h-108l-45 92l-98 -92h-124l189 172h93zM370 430h-274l28 104h427l-25 -95l-375 -335h290l-27 -104h-439l26 99z" />
    <glyph glyph-name="uni1EBC" unicode="&#x1ebc;" horiz-adv-x="663" 
d="M722 1012q-30 -144 -137 -144q-32 0 -69.5 25t-58.5 25q-33 0 -50 -49h-83q16 67 46.5 106t91.5 39q30 0 70.5 -24.5t59.5 -24.5t33 14t21 33h76zM243 783h498l-29 -110h-376l-58 -220h341l-29 -110h-341l-63 -232h379l-29 -111h-502z" />
    <glyph glyph-name="uni1EBD" unicode="&#x1ebd;" horiz-adv-x="613" 
d="M603 777q-14 -65 -45 -104t-92 -39q-32 0 -69.5 25t-58.5 25q-18 0 -31 -15t-19 -34h-83q16 67 46.5 105.5t91.5 38.5q30 0 70.5 -24.5t59.5 -24.5t33 14t21 33h76zM165 232q-3 -65 37.5 -103t103.5 -38q49 0 86 25.5t55 57.5l93 -46q-28 -56 -90 -96.5t-152 -40.5
q-110 0 -181 65t-71 175q0 126 93 220t215 94q103 0 164.5 -61.5t61.5 -164.5q0 -37 -14 -87h-401zM347 443q-56 0 -101.5 -33.5t-64.5 -87.5h279q1 5 1 12q0 53 -31 81t-83 28z" />
    <glyph glyph-name="Ygrave" unicode="&#x1ef2;" horiz-adv-x="742" 
d="M562 855h-93l-100 172h138zM235 0l84 315l-161 468h134l115 -356l306 356h149l-422 -480l-81 -303h-124z" />
    <glyph glyph-name="ygrave" unicode="&#x1ef3;" horiz-adv-x="598" 
d="M431 625h-93l-100 172h138zM177 3l-87 531h121l60 -398l254 398h129l-520 -797h-132z" />
    <glyph glyph-name="endash" unicode="&#x2013;" horiz-adv-x="608" 
d="M566 382l-30 -115h-459l30 115h459z" />
    <glyph glyph-name="emdash" unicode="&#x2014;" horiz-adv-x="1021" 
d="M979 382l-30 -115h-872l30 115h872z" />
    <glyph glyph-name="quoteleft" unicode="&#x2018;" horiz-adv-x="319" 
d="M348 738q-41 -25 -67.5 -50t-50.5 -63q12 4 25 4q29 0 48.5 -21t19.5 -52q0 -41 -30 -68t-69 -27q-40 0 -61.5 29t-21.5 67q0 62 47.5 127.5t114.5 103.5z" />
    <glyph glyph-name="quoteright" unicode="&#x2019;" horiz-adv-x="302" 
d="M153 511q77 46 119 113q-12 -4 -26 -4q-29 0 -48.5 21t-19.5 52q0 41 30.5 68t69.5 27q40 0 61 -29t21 -67q0 -62 -47 -127.5t-115 -103.5z" />
    <glyph glyph-name="quotesinglbase" unicode="&#x201a;" horiz-adv-x="310" 
d="M-3 -107q77 46 119 113q-12 -4 -26 -4q-29 0 -48.5 21t-19.5 52q0 41 30.5 68t69.5 27q40 0 61 -29t21 -67q0 -62 -47 -127t-115 -104z" />
    <glyph glyph-name="quotedblleft" unicode="&#x201c;" horiz-adv-x="551" 
d="M349 738q-41 -25 -67.5 -50t-50.5 -63q12 4 25 4q29 0 48.5 -21t19.5 -52q0 -41 -30 -68t-69 -27q-40 0 -61.5 29t-21.5 67q0 62 47.5 127.5t114.5 103.5zM580 738q-78 -47 -119 -113q12 4 26 4q29 0 48.5 -21t19.5 -52q0 -41 -30.5 -68t-69.5 -27t-60.5 29t-21.5 67
q0 62 47 127.5t115 103.5z" />
    <glyph glyph-name="quotedblright" unicode="&#x201d;" horiz-adv-x="533" 
d="M153 511q77 46 119 113q-12 -4 -26 -4q-29 0 -48.5 21t-19.5 52q0 41 30.5 68t69.5 27q40 0 61 -29t21 -67q0 -62 -47 -127.5t-115 -103.5zM384 511q41 25 68 50t50 63q-11 -4 -25 -4q-29 0 -48.5 21t-19.5 52q0 41 30 68t69 27q40 0 61.5 -29t21.5 -67q0 -61 -47.5 -127
t-114.5 -104z" />
    <glyph glyph-name="quotedblbase" unicode="&#x201e;" horiz-adv-x="541" 
d="M-3 -107q77 46 119 113q-12 -4 -26 -4q-29 0 -48.5 21t-19.5 52q0 41 30.5 68t69.5 27q40 0 61 -29t21 -67q0 -62 -47 -127t-115 -104zM228 -107q41 25 68 50t50 63q-11 -4 -25 -4q-29 0 -48.5 21t-19.5 52q0 41 30 68t69 27q40 0 61.5 -29t21.5 -67q0 -61 -47.5 -126.5
t-114.5 -104.5z" />
    <glyph glyph-name="dagger" unicode="&#x2020;" horiz-adv-x="628" 
d="M184 0l112 423h-192l30 111h192l55 206h122l-55 -206h194l-30 -111h-194l-112 -423h-122z" />
    <glyph glyph-name="daggerdbl" unicode="&#x2021;" horiz-adv-x="628" 
d="M308 0l-55 -207h-122l55 207h-192l29 111h193l83 312h-193l30 111h193l55 206h122l-55 -206h193l-30 -111h-193l-83 -312h193l-30 -111h-193z" />
    <glyph glyph-name="bullet" unicode="&#x2022;" horiz-adv-x="498" 
d="M275 190q-72 0 -123 51.5t-51 123.5t51 124.5t123 52.5q71 0 122 -52.5t51 -124.5t-50.5 -123.5t-122.5 -51.5z" />
    <glyph glyph-name="ellipsis" unicode="&#x2026;" horiz-adv-x="902" 
d="M23 82q0 37 25.5 62.5t62.5 25.5t62 -25.5t25 -62.5q0 -36 -25 -61t-62 -25t-62.5 25.5t-25.5 60.5zM327 82q0 37 26 62.5t62 25.5q37 0 62 -25.5t25 -62.5q0 -36 -25 -61t-62 -25q-36 0 -62 25.5t-26 60.5zM631 82q0 37 25.5 62.5t61.5 25.5q37 0 62.5 -25.5t25.5 -62.5
q0 -36 -25.5 -61t-62.5 -25q-36 0 -61.5 25.5t-25.5 60.5z" />
    <glyph glyph-name="perthousand" unicode="&#x2030;" horiz-adv-x="1333" 
d="M293 437q-69 0 -114 44.5t-45 113.5q0 81 56.5 138.5t137.5 57.5q69 0 114 -44.5t45 -113.5q0 -81 -56.5 -138.5t-137.5 -57.5zM100 0l678 783h127l-677 -783h-128zM300 535q34 0 60.5 29t26.5 64q0 30 -18 47.5t-47 17.5q-36 0 -61.5 -29t-25.5 -64q0 -29 18 -47t47 -18
zM679 -5q-69 0 -113.5 44t-44.5 113q0 81 56 138.5t137 57.5q69 0 114 -44.5t45 -113.5q0 -81 -56.5 -138t-137.5 -57zM1079 -5q-69 0 -114 44t-45 113q0 81 56 138.5t137 57.5q69 0 114 -44.5t45 -113.5q0 -81 -56 -138t-137 -57zM686 92q35 0 61 29.5t26 64.5
q0 29 -18 46.5t-47 17.5q-36 0 -61.5 -29t-25.5 -64q0 -29 18 -47t47 -18zM1085 92q35 0 61 29t26 65q0 29 -18 46.5t-47 17.5q-36 0 -61 -29t-25 -64q0 -29 17.5 -47t46.5 -18z" />
    <glyph glyph-name="guilsinglleft" unicode="&#x2039;" horiz-adv-x="389" 
d="M185 291l111 -148l-80 -62l-166 220l283 221l55 -73z" />
    <glyph glyph-name="guilsinglright" unicode="&#x203a;" horiz-adv-x="388" 
d="M227 312l-112 148l80 62l166 -221l-282 -220l-56 73z" />
    <glyph glyph-name="uni203D" unicode="&#x203d;" horiz-adv-x="589" 
d="M122 539q1 109 82.5 182t199.5 73q91 0 156 -51t65 -133q0 -53 -30.5 -107t-67 -89t-95.5 -88.5t-87 -83.5h-108l65 333h115l-36 -163q120 97 120 180q0 42 -29 68.5t-80 26.5q-78 0 -116.5 -49.5t-38.5 -112.5zM225 -7q-31 0 -51 19t-20 50q0 36 25 62t61 26
q31 0 51 -19.5t20 -50.5q0 -37 -25 -62t-61 -25z" />
    <glyph glyph-name="uni2042" unicode="&#x2042;" horiz-adv-x="932" 
d="M541 397l-50 129l-107 -86l-49 61l105 86l-114 75l43 65l113 -75l37 135l78 -21l-36 -135l136 8l5 -78l-136 -8l48 -127zM254 -19l-50 128l-107 -86l-49 61l105 86l-114 76l43 64l114 -74l36 135l78 -21l-36 -135l136 7l5 -77l-136 -9l48 -126zM707 -19l-51 128l-107 -86
l-49 61l105 86l-113 76l43 64l113 -74l37 135l78 -21l-36 -135l135 7l6 -77l-136 -9l47 -126z" />
    <glyph glyph-name="fraction" unicode="&#x2044;" horiz-adv-x="624" 
d="M-54 0l679 783h126l-677 -783h-128z" />
    <glyph glyph-name="uni2051" unicode="&#x2051;" horiz-adv-x="507" 
d="M376 397l-50 129l-107 -86l-49 61l105 86l-113 75l43 65l113 -75l36 135l79 -21l-37 -135l136 8l6 -78l-137 -8l48 -127zM266 -19l-50 128l-108 -86l-48 61l105 86l-114 76l43 64l114 -74l36 135l78 -21l-36 -135l136 7l5 -77l-136 -9l48 -126z" />
    <glyph glyph-name="lira" unicode="&#x20a4;" horiz-adv-x="694" 
d="M537 424h-210q7 -32 5 -79h184l-22 -82h-173q-37 -106 -128 -153h195q54 0 89.5 29.5t44.5 83.5l117 -21q-18 -94 -83 -148t-161 -54h-396l30 115q52 16 95 56t66 92h-116l22 82h113v4q0 48 -4 75h-88l22 82h58q0 3 -0.5 10.5t-0.5 10.5q0 114 78 190.5t193 76.5
q87 0 152 -50.5t65 -134.5q0 -17 -3 -33l-121 -14q1 6 1 19q0 44 -27.5 72t-71.5 28q-68 0 -103.5 -47.5t-35.5 -111.5v-16h236zM330 291l2 4z" />
    <glyph glyph-name="uni20A6" unicode="&#x20a6;" horiz-adv-x="915" 
d="M719 0h-139l-99 261h-229l-70 -261h-119l70 261h-78l24 91h78l21 79h-78l25 92h78l69 260h141l98 -260h229l69 260h119l-69 -260h74l-24 -92h-75l-21 -79h75l-25 -91h-74zM383 522l-36 94l-25 -94h61zM446 352l-30 79h-118l-21 -79h169zM546 431l30 -79h118l21 79h-169z
M609 262l36 -95l26 95h-62z" />
    <glyph glyph-name="uni20A9" unicode="&#x20a9;" horiz-adv-x="1224" 
d="M204 356h-118l20 73h93l-20 354h128l16 -356h153l195 356h133l25 -356h157l191 356h136l-195 -354h97l-20 -73h-117l-196 -356h-141l-24 358h-153l-200 -358h-140zM602 427h110l-12 177zM438 358h-112l8 -189zM949 358h-115l14 -189z" />
    <glyph glyph-name="uni20AA" unicode="&#x20aa;" horiz-adv-x="1030" 
d="M730 387q17 68 17 105q0 47 -20 81t-55 51.5t-74 25.5t-86 8h-302l-175 -658h120l146 549h203q58 0 88.5 -20t30.5 -71q0 -25 -12 -67l-45 -170h121zM927 234q-33 -125 -87 -179.5t-179 -54.5h-390l116 436h121l-87 -327h235q60 0 97 33t56 103l109 413h121z" />
    <glyph glyph-name="dong" unicode="&#x20ab;" horiz-adv-x="709" 
d="M739 814l-26 -99h65l-23 -87h-65l-166 -628h-116q10 40 17 65q-76 -73 -170 -73t-151 64t-57 162q0 136 90.5 231.5t207.5 95.5q64 0 109.5 -26t69.5 -67l47 176h-156l23 87h156l26 99h119zM495 305q0 59 -38 95.5t-97 36.5q-80 0 -133 -62t-53 -148q0 -57 35 -93t92 -36
q74 0 134 61t60 146zM502 -87l-28 -107h-518l28 107h518z" />
    <glyph glyph-name="Euro" unicode="&#x20ac;" horiz-adv-x="951" 
d="M839 501q-6 41 -28.5 79.5t-74.5 69.5t-124 31q-88 0 -160 -44.5t-113 -116.5h310l-41 -86h-305q-11 -38 -13 -80h286l-41 -86h-237q19 -79 80 -121.5t144 -42.5q58 0 106.5 17.5t80 47.5t50 56.5t32.5 56.5l115 -45q-18 -42 -49.5 -82.5t-79.5 -78.5t-118 -61.5
t-151 -23.5q-132 0 -226 75.5t-115 201.5h-111l23 86h83q2 44 10 80h-81l23 86h87q54 122 168 198t254 76q78 0 141.5 -24.5t102.5 -64t62 -82t31 -86.5z" />
    <glyph glyph-name="uni20AE" unicode="&#x20ae;" horiz-adv-x="705" 
d="M347 0h-123l48 183l-224 -73l24 92l225 72l22 84l-224 -73l24 91l224 73l59 221h-248l30 113h621l-31 -113h-249l-47 -177l225 73l-25 -91l-224 -73l-22 -84l224 73l-24 -91l-225 -73z" />
    <glyph glyph-name="uni20B1" unicode="&#x20b1;" horiz-adv-x="798" 
d="M763 495q-27 -96 -119.5 -150t-226.5 -54h-148l-78 -291h-123l132 495h-82l22 82h82l55 206h221q124 0 197 -51.5t77 -154.5h73l-22 -82h-60zM644 575q-6 46 -44 70.5t-103 24.5h-127l-26 -95h300zM424 402q79 0 132.5 25t74.5 70h-307l-26 -95h126z" />
    <glyph glyph-name="uni20B4" unicode="&#x20b4;" horiz-adv-x="751" 
d="M555 521q31 38 31 81q0 44 -34.5 64t-81.5 20q-40 0 -83 -22.5t-76 -55.5l-87 74q106 112 265 112q56 0 105 -18t83.5 -59t34.5 -98q0 -52 -28 -98h82l-24 -87h-643l23 87h433zM265 278q-45 -40 -45 -93q0 -46 36.5 -65t87.5 -19q113 0 207 91l89 -73
q-67 -67 -142.5 -97.5t-173.5 -30.5q-43 0 -82.5 9.5t-74 29t-55.5 54t-21 80.5q0 65 40 114h-73l23 87h643l-23 -87h-436z" />
    <glyph glyph-name="uni20B8" unicode="&#x20b8;" horiz-adv-x="712" 
d="M773 671h-620l30 112h620zM222 0l129 480h-249l30 112h620l-30 -112h-248l-129 -480h-123z" />
    <glyph glyph-name="uni20B9" unicode="&#x20b9;" horiz-adv-x="647" 
d="M529 683q41 -41 47 -97h113l-25 -93h-100q-41 -136 -222 -176l101 -317h-135l-84 297h-156l29 110h132q156 0 205 86h-314l25 93h304q-16 84 -156 84h-126l31 113h544l-27 -100h-186z" />
    <glyph glyph-name="uni20BA" unicode="&#x20ba;" horiz-adv-x="717" 
d="M175 274l-125 -53l26 95l125 54l23 86l-125 -53l26 96l125 52l62 232h122l-46 -173l253 107l-25 -95l-254 -108l-23 -86l254 108l-26 -97l-254 -107l-59 -225q149 0 228.5 62.5t98.5 170.5l116 -12q-66 -328 -478 -328h-116z" />
    <glyph glyph-name="uni20BD" unicode="&#x20bd;" horiz-adv-x="765" 
d="M796 567q0 -128 -99 -202t-257 -74h-148l-21 -79h215l-24 -90h-215l-33 -122h-123l33 122h-96l24 90h96l21 80h-96l30 110h96l102 381h220q128 0 201.5 -54t73.5 -162zM668 559q0 53 -39 82t-109 29h-126l-72 -268h125q104 0 162.5 42t58.5 115z" />
    <glyph glyph-name="uni2113" unicode="&#x2113;" horiz-adv-x="463" 
d="M521 625q0 -58 -28 -116t-74.5 -105t-95.5 -83.5t-101 -62.5l-17 -65q-6 -19 -6 -39q0 -68 73 -68q44 0 96 20l-27 -100q-48 -15 -99 -15q-66 0 -110 33t-44 97q0 26 8 53l12 46q-72 -21 -86 -23l25 93q38 9 86 26l71 270q42 162 184 162q58 0 95.5 -32.5t37.5 -90.5z
M378 655q-52 0 -71 -75l-55 -205q64 36 114.5 104t50.5 135q0 41 -39 41z" />
    <glyph glyph-name="uni2116" unicode="&#x2116;" horiz-adv-x="1299" 
d="M691 0h-141l-231 610l-164 -610h-121l209 783h142l231 -610l163 610h121zM1139 678q76 0 125 -46t49 -123q0 -86 -64 -151t-152 -65q-76 0 -125 46t-49 122q0 86 64 151.5t152 65.5zM1106 396q39 0 67.5 33.5t28.5 72.5q0 35 -19.5 54.5t-52.5 19.5q-40 0 -68 -33
t-28 -73q0 -35 19.5 -54.5t52.5 -19.5zM860 207h367l-28 -105h-366z" />
    <glyph glyph-name="trademark" unicode="&#x2122;" horiz-adv-x="1071" 
d="M288 332h-97l98 365h-132l23 86h360l-23 -86h-132zM998 687l-216 -355h-63l-32 350h-6l-94 -350h-91l121 451h139l28 -311l190 311h149l-121 -451h-93l94 355h-5z" />
    <glyph glyph-name="estimated" unicode="&#x212e;" horiz-adv-x="896" 
d="M494 -12q-179 0 -284 116.5t-105 293.5q0 168 109 282.5t280 114.5q170 0 278.5 -113.5t108.5 -281.5v-9h-605v-254q39 -40 99.5 -64t118.5 -24q205 0 288 167l53 -29q-41 -91 -131.5 -145t-209.5 -54zM712 650q-39 41 -99.5 63t-120.5 22q-128 0 -216 -84v-198h436v197z
" />
    <glyph glyph-name="uni2153" unicode="&#x2153;" horiz-adv-x="1082" 
d="M110 0l679 783h127l-678 -783h-128zM297 664l-111 -56l-40 76l191 99h94l-119 -452h-102zM1032 339q0 -42 -25.5 -73.5t-70.5 -42.5q56 -27 56 -93q0 -60 -55 -99.5t-136 -39.5q-65 0 -109.5 36.5t-47.5 101.5l93 15q3 -68 70 -68q35 0 60.5 17t25.5 45q0 47 -67 47h-33
l23 87h26q92 0 92 58q0 23 -17.5 36t-46.5 13q-58 0 -88 -57l-86 30q55 112 184 112q71 0 111.5 -36t40.5 -89z" />
    <glyph glyph-name="uni2154" unicode="&#x2154;" horiz-adv-x="1082" 
d="M493 663q0 -64 -39 -103.5t-111 -68.5l-51 -19q-51 -21 -74 -52h213l-23 -89h-340l7 29q14 53 54.5 105t120.5 84l65 25q40 16 59 34t19 49q0 20 -16.5 35t-46.5 15q-38 0 -59 -26.5t-26 -55.5l-95 14q12 63 61 110t129 47q69 0 111 -38.5t42 -94.5zM178 0l679 783h127
l-678 -783h-128zM1046 339q0 -42 -25.5 -73.5t-70.5 -42.5q56 -27 56 -93q0 -60 -55 -99.5t-136 -39.5q-65 0 -109.5 36.5t-47.5 101.5l93 15q3 -68 70 -68q35 0 60.5 17t25.5 45q0 47 -67 47h-33l23 87h26q92 0 92 58q0 23 -17.5 36t-46.5 13q-58 0 -88 -57l-86 30
q55 112 184 112q71 0 111.5 -36t40.5 -89z" />
    <glyph glyph-name="oneeighth" unicode="&#x215b;" horiz-adv-x="1044" 
d="M116 0l679 783h127l-678 -783h-128zM298 664l-111 -56l-40 76l192 99h94l-120 -452h-102zM893 222q66 -33 66 -94t-53.5 -99.5t-134.5 -38.5q-70 0 -121.5 37.5t-51.5 94.5q0 90 114 126q-57 34 -57 85q0 57 50.5 93.5t126.5 36.5q67 0 114.5 -33.5t47.5 -91.5
q0 -79 -101 -116zM826 378q-27 0 -51 -16t-24 -39q0 -25 22.5 -39t49.5 -14q29 0 51.5 16.5t22.5 39.5q0 24 -21.5 38t-49.5 14zM781 193q-31 0 -58 -16t-27 -44t25 -43t56 -15t58.5 16t27.5 45q0 28 -25.5 42.5t-56.5 14.5z" />
    <glyph glyph-name="threeeighths" unicode="&#x215c;" horiz-adv-x="1124" 
d="M488 671q0 -42 -25.5 -73.5t-70.5 -42.5q56 -27 56 -93q0 -60 -55 -99.5t-136 -39.5q-65 0 -109.5 36.5t-47.5 101.5l93 15q3 -68 70 -68q35 0 60.5 17t25.5 45q0 47 -67 47h-33l23 87h26q92 0 92 58q0 23 -17.5 36t-46.5 13q-58 0 -88 -57l-86 30q55 112 184 112
q71 0 111.5 -36t40.5 -89zM196 0l679 783h127l-678 -783h-128zM972 222q67 -33 67 -94t-53.5 -99.5t-134.5 -38.5q-71 0 -122 37.5t-51 94.5q0 91 114 126q-57 34 -57 85q0 57 50 93.5t126 36.5q68 0 115.5 -33.5t47.5 -91.5q0 -79 -102 -116zM906 378q-28 0 -51.5 -16
t-23.5 -39q0 -25 22.5 -39t49.5 -14q29 0 51.5 16.5t22.5 39.5q0 24 -21.5 38t-49.5 14zM861 193q-31 0 -58 -16t-27 -44t25 -43t56 -15t58.5 16t27.5 45q0 28 -25.5 42.5t-56.5 14.5z" />
    <glyph glyph-name="fiveeighths" unicode="&#x215d;" horiz-adv-x="1100" 
d="M235 598q37 28 85 28q51 0 84.5 -34.5t33.5 -83.5q0 -82 -57.5 -134t-139.5 -52q-69 0 -115 37t-40 106l96 17q-2 -33 13.5 -52t47.5 -19q37 0 64.5 25t27.5 62q0 25 -17.5 39t-43.5 14q-39 0 -71 -34l-82 32l101 235h270l-23 -88h-191zM164 0l679 783h127l-678 -783
h-128zM1042 338q0 -78 -102 -116q67 -33 67 -94t-53.5 -99.5t-134.5 -38.5q-71 0 -122 37.5t-51 94.5q0 91 114 126q-58 35 -58 85q0 57 50.5 93.5t126.5 36.5q68 0 115.5 -33.5t47.5 -91.5zM945 326q0 24 -21.5 38t-49.5 14t-51.5 -16t-23.5 -39q0 -25 22.5 -39t49.5 -14
q29 0 51.5 16.5t22.5 39.5zM910 136q0 28 -25 42.5t-56 14.5t-58.5 -16t-27.5 -44t25.5 -43t56.5 -15t58 16t27 45z" />
    <glyph glyph-name="seveneighths" unicode="&#x215e;" horiz-adv-x="1006" 
d="M78 0l679 783h127l-678 -783h-128zM378 696h-222l23 87h341l-22 -82l-274 -370h-120zM854 222q67 -33 67 -94t-53.5 -99.5t-134.5 -38.5q-70 0 -121.5 37.5t-51.5 94.5q0 90 114 126q-57 34 -57 85q0 57 50 93.5t126 36.5q68 0 115.5 -33.5t47.5 -91.5q0 -79 -102 -116z
M788 378q-28 0 -51.5 -16t-23.5 -39q0 -25 22.5 -39t49.5 -14q29 0 51.5 16.5t22.5 39.5q0 24 -21.5 38t-49.5 14zM743 193q-31 0 -58 -16t-27 -44t25 -43t56 -15t58.5 16t27.5 45q0 28 -25.5 42.5t-56.5 14.5z" />
    <glyph glyph-name="arrowleft" unicode="&#x2190;" horiz-adv-x="664" 
d="M412 621q-136 -146 -186 -198h435v-117h-435q50 -52 186 -198l-71 -66l-290 313v19l290 313z" />
    <glyph glyph-name="arrowup" unicode="&#x2191;" horiz-adv-x="664" 
d="M621 309q-146 136 -198 186v-435h-117v435q-52 -50 -198 -186l-66 71l313 289h19l313 -289z" />
    <glyph glyph-name="arrowright" unicode="&#x2192;" horiz-adv-x="664" 
d="M310 108q91 100 186 198h-436v117h436q-95 98 -186 198l70 66l290 -313v-19l-290 -313z" />
    <glyph glyph-name="arrowdown" unicode="&#x2193;" horiz-adv-x="664" 
d="M101 420q112 -104 197 -186v435h118v-435q85 82 197 186l66 -71l-313 -289h-18l-313 289z" />
    <glyph glyph-name="uni2196" unicode="&#x2196;" horiz-adv-x="664" 
d="M578 502q-184 -6 -271 -8l308 -308l-83 -83l-308 308q-2 -95 -8 -271l-97 3l17 426l12 13l427 17z" />
    <glyph glyph-name="uni2197" unicode="&#x2197;" horiz-adv-x="664" 
d="M492 140q-6 109 -9 271l-308 -308l-82 83l307 308q-94 2 -270 8l3 97l426 -17l13 -13l16 -426z" />
    <glyph glyph-name="uni2198" unicode="&#x2198;" horiz-adv-x="664" 
d="M137 200q176 6 270 8l-307 308l82 83l308 -308q3 159 9 271l96 -3l-16 -427l-13 -12l-426 -17z" />
    <glyph glyph-name="uni2199" unicode="&#x2199;" horiz-adv-x="664" 
d="M224 562q6 -184 8 -271l308 308l83 -83l-308 -308q87 -2 271 -8l-3 -97l-426 17l-13 12l-17 427z" />
    <glyph glyph-name="uni21A9" unicode="&#x21a9;" horiz-adv-x="1051" 
d="M195 151q129 -135 186 -197l-70 -66l-290 313v18l290 313l70 -66q-57 -62 -186 -197h517q94 0 154 54t60 142q0 92 -58 144.5t-159 53.5h-200v115h207q149 0 240 -88t91 -225q0 -136 -91 -225t-240 -89h-521z" />
    <glyph glyph-name="uni21B0" unicode="&#x21b0;" horiz-adv-x="962" 
d="M282 466q129 -135 186 -197l-71 -66l-289 313v18l289 313l71 -66q-57 -62 -186 -197h265q152 0 234.5 -71t82.5 -205v-308h-121v296q0 86 -56 128t-154 42h-251z" />
    <glyph glyph-name="uni21B1" unicode="&#x21b1;" horiz-adv-x="796" 
d="M408 466q-98 0 -153.5 -42t-55.5 -128v-296h-121v308q0 134 82 205t234 71h265q-111 115 -185 197l70 66l289 -313v-18l-289 -313l-70 66q74 82 185 197h-251z" />
    <glyph glyph-name="uni21B2" unicode="&#x21b2;" horiz-adv-x="796" 
d="M460 317q98 0 153.5 42t55.5 128v296h122v-308q0 -134 -82.5 -204.5t-234.5 -70.5h-265q50 -52 186 -198l-71 -66l-289 313v18l289 313l71 -66q-104 -112 -186 -197h251z" />
    <glyph glyph-name="uni21B3" unicode="&#x21b3;" horiz-adv-x="962" 
d="M752 317q-129 135 -186 197l71 66l289 -313v-18l-289 -313l-71 66q74 81 186 198h-265q-152 0 -234.5 70.5t-82.5 204.5v308h122v-296q0 -86 55.5 -128t153.5 -42h251z" />
    <glyph glyph-name="uni21B4" unicode="&#x21b4;" horiz-adv-x="1034" 
d="M683 27l-313 290l66 70q54 -49 197 -185v251q0 53 -6.5 87t-25.5 65t-59.5 45.5t-103.5 14.5h-271v118h284q166 0 233 -78.5t67 -237.5v-265q143 136 197 185l66 -70l-313 -290h-18z" />
    <glyph glyph-name="partialdiff" unicode="&#x2202;" horiz-adv-x="673" 
d="M654 479q0 -67 -15 -134.5t-46.5 -131.5t-75.5 -113.5t-107 -79.5t-136 -30q-99 0 -165.5 60.5t-66.5 159.5q0 123 86 204t210 81q119 0 193 -80q4 29 4 65q0 208 -188 208q-59 0 -123 -25l-21 95q72 37 172 37q135 0 207 -88t72 -228zM508 313q-22 36 -68 58t-91 22
q-75 0 -130.5 -50.5t-55.5 -124.5q0 -53 36.5 -88t90.5 -35q78 0 137 67t81 151z" />
    <glyph glyph-name="uni2206" unicode="&#x2206;" horiz-adv-x="856" 
d="M642 783l108 -783h-781l528 783h145zM618 110l-74 551l-367 -551h441z" />
    <glyph glyph-name="product" unicode="&#x220f;" horiz-adv-x="784" 
d="M420 0l179 670h-195l-178 -670h-124l179 670h-132l30 113h705l-30 -113h-132l-179 -670h-123z" />
    <glyph glyph-name="summation" unicode="&#x2211;" horiz-adv-x="640" 
d="M516 0h-537l31 116l353 284l-191 277l28 106h525l-30 -109h-380l203 -290l-342 -275h369z" />
    <glyph glyph-name="minus" unicode="&#x2212;" horiz-adv-x="637" 
d="M604 422l-30 -110h-486l30 110h486z" />
    <glyph glyph-name="radical" unicode="&#x221a;" horiz-adv-x="743" 
d="M406 138l372 820h114l-435 -958h-135l-118 514h-121l26 101h189z" />
    <glyph glyph-name="infinity" unicode="&#x221e;" horiz-adv-x="1014" 
d="M738 109q-44 0 -87.5 24t-68.5 48.5t-63 67.5q-4 -4 -28.5 -24.5t-31 -26t-28.5 -22.5t-32.5 -22.5t-31 -17t-35.5 -15.5t-35.5 -8t-40.5 -4q-81 0 -132 53t-51 135q0 102 68 173.5t170 71.5q34 0 65.5 -11.5t60.5 -35.5t48.5 -43.5t46.5 -51.5q3 2 25 22t27 23.5
t25.5 20.5t28.5 21.5t26.5 17t31 16.5t30 10.5t34 8.5t34.5 2q82 0 133 -54t51 -136q0 -102 -69 -172.5t-171 -70.5zM305 435q-48 0 -83 -38.5t-35 -87.5q0 -40 24.5 -66.5t63.5 -26.5q14 0 28.5 3.5t29.5 11.5t26.5 14.5t27.5 20t24 20t24.5 21.5t20.5 19q-2 2 -19.5 23
t-23 26.5t-22 21t-27 21t-27 11.5t-32.5 6zM776 435q-14 0 -28.5 -3.5t-29.5 -12t-26.5 -15t-27.5 -20.5l-24 -21t-25 -22.5t-21 -19.5q2 -2 20 -22.5t23.5 -25.5l22 -20t27.5 -20.5t27.5 -11t32.5 -5.5q48 0 82.5 37.5t34.5 85.5q0 41 -24 68.5t-64 27.5z" />
    <glyph glyph-name="integral" unicode="&#x222b;" horiz-adv-x="430" 
d="M247 604q28 104 86 147t145 43q50 0 76 -14l-26 -99q-17 7 -46 7q-20 0 -34 -3t-32 -13t-32.5 -34.5t-24.5 -62.5l-172 -652q-27 -104 -85.5 -147.5t-145.5 -43.5q-46 0 -76 15l26 99q22 -8 46 -8q20 0 34 3t32.5 13.5t33 35t24.5 62.5z" />
    <glyph glyph-name="uni2236" unicode="&#x2236;" horiz-adv-x="333" 
d="M234 455q-34 0 -56 22t-22 56q0 40 27.5 68.5t67.5 28.5q35 0 57.5 -22t22.5 -56q0 -40 -28.5 -68.5t-68.5 -28.5zM135 83q-35 0 -56.5 21.5t-21.5 56.5q0 40 27.5 68.5t67.5 28.5q35 0 57 -22t22 -56q0 -40 -28 -68.5t-68 -28.5z" />
    <glyph glyph-name="approxequal" unicode="&#x2248;" horiz-adv-x="632" 
d="M475 396q-42 0 -108 41t-96 41q-44 0 -82 -45l-60 61q59 90 149 90q31 0 63 -12.5t53 -28t45.5 -28t43.5 -12.5q44 0 81 44l60 -60q-60 -91 -149 -91zM409 146q-43 0 -108.5 41t-96.5 41q-43 0 -81 -45l-60 61q59 90 149 90q39 0 78 -20t71 -40.5t56 -20.5q45 0 81 45
l60 -61q-60 -91 -149 -91z" />
    <glyph glyph-name="notequal" unicode="&#x2260;" horiz-adv-x="631" 
d="M347 282h217l-29 -111h-253l-72 -124l-79 46l46 78h-126l30 111h161l100 169h-217l29 110h251l74 124l79 -44l-48 -80h127l-29 -110h-161z" />
    <glyph glyph-name="lessequal" unicode="&#x2264;" horiz-adv-x="684" 
d="M717 682l-31 -118l-427 -144l351 -144l-28 -108l-482 206l27 103zM573 131l-28 -107h-537l28 107h537z" />
    <glyph glyph-name="greaterequal" unicode="&#x2265;" horiz-adv-x="678" 
d="M56 168l32 118l426 144l-350 144l28 108l482 -205l-27 -103zM584 131l-28 -107h-537l27 107h538z" />
    <glyph glyph-name="uni2318" unicode="&#x2318;" horiz-adv-x="698" 
d="M546 69q-50 0 -87 37q-36 36 -36 86v63h-148v-63q0 -50 -36 -86q-35 -37 -87 -37q-51 0 -86 37q-36 36 -36 86t36 86t86 36h62v148h-61q-51 0 -86 37q-37 35 -37 86t37 86q36 36 86 36t86 -36t36 -86v-63h148v63q0 50 36 86q38 36 87 36q50 0 86 -36t36 -86t-36 -86
q-35 -37 -86 -37h-62v-148h62q50 0 86 -36t36 -86t-36 -86q-35 -37 -86 -37zM214 585q0 26 -18 44q-17 18 -43 18q-29 0 -45 -18q-18 -17 -18 -44q0 -26 18 -44q21 -19 45 -19h61v63zM546 647q-28 0 -44 -18q-18 -17 -18 -44v-63h62q25 0 44 19q18 18 18 44t-18 44t-44 18z
M423 462h-148v-148h148v148zM214 255h-62q-27 0 -44 -19q-18 -16 -18 -44q0 -25 18 -45q20 -18 44 -18t44 18q18 20 18 45v63zM484 255v-63q0 -25 18 -45q18 -18 44 -18q24 0 44 18q18 20 18 45q0 28 -18 44q-17 19 -44 19h-62z" />
    <glyph glyph-name="filledbox" unicode="&#x25a0;" horiz-adv-x="908" 
d="M810 0h-709v711h709v-711z" />
    <glyph glyph-name="uni25A1" unicode="&#x25a1;" horiz-adv-x="908" 
d="M810 711v-711h-709v711h709zM198 94h511v522h-511v-522z" />
    <glyph glyph-name="triagup" unicode="&#x25b2;" horiz-adv-x="838" 
d="M421 730l417 -730h-838z" />
    <glyph glyph-name="uni25B3" unicode="&#x25b3;" horiz-adv-x="838" 
d="M831 0h-824l412 720zM661 95l-242 428l-243 -428h485z" />
    <glyph glyph-name="lozenge" unicode="&#x25ca;" horiz-adv-x="716" 
d="M7 393l395 390h121l187 -390l-396 -393h-121zM275 125l285 286l-119 252l-285 -283z" />
    <glyph glyph-name="circle" unicode="&#x25cb;" horiz-adv-x="813" 
d="M407 -14q-154 0 -262.5 108t-108.5 262t108.5 263t262.5 109t262 -108.5t108 -263.5q0 -154 -108 -262t-262 -108zM407 631q-114 0 -193.5 -80.5t-79.5 -194.5t79.5 -194t193.5 -80q112 0 191 80.5t79 193.5q0 114 -79 194.5t-191 80.5z" />
    <glyph glyph-name="uni25CF" unicode="&#x25cf;" horiz-adv-x="813" 
d="M36 356q0 155 108 263.5t262 108.5t262.5 -109t108.5 -263t-108.5 -262t-262.5 -108t-262 108t-108 262z" />
    <glyph glyph-name="uni2605" unicode="&#x2605;" horiz-adv-x="838" 
d="M814 443l-244 -177l93 -287l-244 177l-245 -175l94 285l-244 177h302l93 287l93 -287h302z" />
    <glyph glyph-name="uni2611" unicode="&#x2611;" horiz-adv-x="956" 
d="M810 0h-709v711h620l128 225l92 -56l-131 -227v-653zM488 98l-274 329l83 72l177 -217l193 336h-470v-526h514v390z" />
    <glyph glyph-name="uni2612" unicode="&#x2612;" horiz-adv-x="908" 
d="M101 711h709v-711h-709v711zM197 618v-526h514v526h-514zM297 124l-71 72l157 159l-157 158l72 71l157 -157l155 157l72 -71l-156 -158l156 -156l-72 -72l-155 156z" />
    <glyph glyph-name="uni2639" unicode="&#x2639;" horiz-adv-x="813" 
d="M407 -14q-154 0 -262.5 108t-108.5 262t108.5 263t262.5 109t262 -108.5t108 -263.5q0 -154 -108 -262t-262 -108zM407 649q-120 0 -205 -86t-85 -207q0 -120 85 -206t205 -86q119 0 203 86t84 206q0 121 -84 207t-203 86zM382 454q0 -28 -19 -47t-47 -19t-47 19t-19 47
t19 47.5t47 19.5t47 -19.5t19 -47.5zM563 454q0 -28 -19 -47t-47 -19t-47 19t-19 47t19 47.5t47 19.5t47 -19.5t19 -47.5zM525 180q-6 46 -41.5 74.5t-76.5 28.5q-43 0 -78.5 -28t-41.5 -75h-78q10 78 66.5 127t131.5 49q74 0 130 -50t66 -126h-78z" />
    <glyph glyph-name="smileface" unicode="&#x263a;" horiz-adv-x="813" 
d="M407 -14q-154 0 -262.5 108t-108.5 262t108.5 263t262.5 109t262 -108.5t108 -263.5q0 -154 -108 -262t-262 -108zM407 649q-120 0 -205 -86t-85 -207q0 -120 85 -206t205 -86q119 0 203 86t84 206q0 121 -84 207t-203 86zM382 454q0 -28 -19 -47t-47 -19t-47 19t-19 47
t19 47.5t47 19.5t47 -19.5t19 -47.5zM563 454q0 -28 -19 -47t-47 -19t-47 19t-19 47t19 47.5t47 19.5t47 -19.5t19 -47.5zM603 332q-10 -77 -66.5 -127t-129.5 -50q-75 0 -131.5 49.5t-66.5 127.5h78q6 -47 41.5 -75t78.5 -28q41 0 76.5 28.5t41.5 74.5h78z" />
    <glyph glyph-name="invsmileface" unicode="&#x263b;" horiz-adv-x="813" 
d="M407 -14q-154 0 -262.5 108t-108.5 262t108.5 263t262.5 109t262 -108.5t108 -263.5q0 -154 -108 -262t-262 -108zM382 454q0 28 -19 47.5t-47 19.5t-47 -19.5t-19 -47.5t19 -47t47 -19t47 19t19 47zM563 454q0 28 -19 47.5t-47 19.5t-47 -19.5t-19 -47.5t19 -47t47 -19
t47 19t19 47zM525 332q-6 -46 -41.5 -74.5t-76.5 -28.5q-43 0 -78.5 28t-41.5 75h-78q10 -78 66.5 -127.5t131.5 -49.5q73 0 129.5 50t66.5 127h-78z" />
    <glyph glyph-name="heart" unicode="&#x2665;" horiz-adv-x="872" 
d="M3 480q0 97 65.5 163t162.5 66q58 0 106 -28t72 -78q24 52 73 79t108 27q95 0 160 -67t65 -162q0 -61 -27 -123.5t-68 -113.5t-97.5 -101.5t-107 -86.5t-106.5 -69q-56 33 -106.5 69t-107 86.5t-97.5 101.5t-68 113.5t-27 123.5z" />
    <glyph glyph-name="uni2713" unicode="&#x2713;" horiz-adv-x="942" 
d="M92 377l218 -236l524 572l75 -73l-602 -653l-290 319z" />
    <glyph glyph-name="uni2715" unicode="&#x2715;" horiz-adv-x="755" 
d="M94 -2l-73 73l282 284l-282 282l74 72l281 -280l279 280l73 -72l-279 -282l284 -284l-72 -73l-285 283z" />
    <glyph glyph-name="uni2E18" unicode="&#x2e18;" horiz-adv-x="576" 
d="M361 542q31 0 51 -19.5t20 -50.5q0 -36 -25 -62t-61 -26q-31 0 -51 20t-20 51q0 36 25 61.5t61 25.5zM464 -5q-1 -109 -82.5 -182t-199.5 -73q-91 0 -156 51t-65 133q0 53 30.5 107t67 89t95.5 88.5t87 83.5h108l-65 -333h-115l36 163q-120 -95 -120 -180q0 -42 29 -68.5
t80 -26.5q78 0 116.5 49.5t38.5 112.5z" />
    <glyph glyph-name="uniE09D" unicode="&#xe09d;" horiz-adv-x="772" 
d="M576 181q-5 -17 -5 -32q0 -47 70 -47q23 0 45 6l-27 -102q-40 -11 -67 -11q-67 0 -106 32.5t-39 97.5q0 19 10 55l65 250h-230l-112 -430h-119l112 430h-104l28 104h104l26 92q29 104 86.5 147.5t144.5 43.5q48 0 76 -14l-27 -101q-24 9 -46 9q-19 0 -33.5 -3t-33 -13.5
t-33.5 -35t-25 -62.5l-16 -63h229l44 165h118l-44 -165h134l-28 -104h-132z" />
    <glyph glyph-name="dollar.lowercase" unicode="&#xf653;" horiz-adv-x="512" 
d="M317 307q117 -52 117 -146q0 -63 -49 -115t-140 -56l-20 -77h-114l24 91q-66 24 -95 84q-16 30 -16 65q0 7 1 12l102 18v-8q0 -40 30 -65.5t72 -25.5q36 0 59 19.5t23 43.5q0 38 -50 61l-58 27q-111 51 -111 137q0 68 51.5 118t134.5 54l21 81h113l-26 -99
q49 -21 72 -61.5t24 -80.5l-104 -16q0 30 -23 56t-67 26q-38 0 -58 -19t-20 -43q0 -34 40 -52z" />
    <glyph glyph-name="uniF6C3" unicode="&#xf6c3;" horiz-adv-x="0" 
d="M-262 -283q61 37 92 88q-10 -3 -20 -3q-22 0 -37.5 16.5t-15.5 40.5q0 33 23.5 54t54.5 21t48 -23t17 -53q0 -48 -37 -99.5t-90 -80.5z" />
    <glyph glyph-name="uniF730" unicode="&#xf730;" horiz-adv-x="648" 
d="M603 299q0 -122 -90 -215t-216 -93q-109 0 -177.5 67.5t-68.5 175.5q0 123 91 217t215 94q108 0 177 -67.5t69 -178.5zM482 296q0 66 -36 104t-96 38q-72 0 -125 -62.5t-53 -136.5q0 -66 36 -104t96 -38q73 0 125.5 62t52.5 137z" />
    <glyph glyph-name="uniF731" unicode="&#xf731;" horiz-adv-x="406" 
d="M231 392l-131 -65l-47 90l226 117h111l-141 -534h-121z" />
    <glyph glyph-name="uniF732" unicode="&#xf732;" horiz-adv-x="514" 
d="M486 389q0 -76 -46 -122.5t-130 -79.5l-59 -22q-60 -23 -87 -61h250l-28 -104h-398l9 35q10 38 28.5 73.5t65 78t111.5 68.5l75 30q47 19 69.5 40t22.5 56q0 25 -19 42t-55 17q-44 0 -68.5 -30t-31.5 -65l-111 16q15 74 71.5 128.5t151.5 54.5q81 0 130 -44.5t49 -110.5z
" />
    <glyph glyph-name="uniF733" unicode="&#xf733;" horiz-adv-x="515" 
d="M369 263q62 -33 62 -107q0 -71 -64.5 -117.5t-158.5 -46.5q-77 0 -129 43.5t-55 120.5l111 18q4 -79 79 -79q41 0 69.5 19t28.5 51q0 53 -76 53h-41l28 104h33q53 0 79 18t26 48q0 25 -20.5 40t-53.5 15q-66 0 -100 -67l-104 36q65 133 217 133q82 0 130 -42.5t48 -104.5
q0 -48 -29 -84.5t-80 -50.5z" />
    <glyph glyph-name="uniF734" unicode="&#xf734;" horiz-adv-x="561" 
d="M242 0l29 108h-271l34 129l317 297h149l-85 -324h90l-26 -102h-91l-28 -108h-118zM298 209l53 202l-215 -202h162z" />
    <glyph glyph-name="uniF735" unicode="&#xf735;" horiz-adv-x="499" 
d="M186 -9q-81 0 -134.5 43.5t-45.5 124.5l111 20q-5 -84 73 -84q44 0 76.5 30t32.5 73q0 29 -21 45.5t-52 16.5q-45 0 -84 -39l-95 37l119 276h317l-27 -103h-225l-49 -111q47 28 99 28q60 0 99 -40t39 -99q0 -97 -67.5 -157.5t-165.5 -60.5z" />
    <glyph glyph-name="uniF736" unicode="&#xf736;" horiz-adv-x="537" 
d="M475 416q-51 29 -119 29q-64 0 -118.5 -43t-74.5 -111q62 60 142 60q72 0 118.5 -44t46.5 -114q0 -84 -62 -143t-157 -59q-96 0 -150 56q-54 55 -54 153q0 90 39 168.5t113 127.5t168 49q99 0 154 -41zM353 184q0 35 -22.5 54.5t-59.5 19.5q-43 0 -75 -26.5t-32 -65.5
q0 -35 22 -55q23 -21 62 -21q44 0 74.5 26.5t30.5 67.5z" />
    <glyph glyph-name="uniF737" unicode="&#xf737;" horiz-adv-x="470" 
d="M346 431h-268l27 103h400l-28 -104l-319 -430h-137z" />
    <glyph glyph-name="uniF738" unicode="&#xf738;" horiz-adv-x="533" 
d="M495 399q0 -93 -122 -136q80 -39 80 -111q0 -71 -62.5 -116.5t-157.5 -45.5q-83 0 -143 44t-60 111q0 107 137 147q-70 43 -70 102q0 65 59 107.5t148 42.5q80 0 135.5 -38.5t55.5 -106.5zM383 385q0 29 -26 45.5t-59 16.5t-61.5 -19t-28.5 -47q0 -29 27 -46.5t59 -17.5
q35 0 62 20t27 48zM342 161q0 33 -30.5 50.5t-66.5 17.5t-69 -19t-33 -53t30.5 -52t66.5 -18q37 0 69.5 19.5t32.5 54.5z" />
    <glyph glyph-name="uniF739" unicode="&#xf739;" horiz-adv-x="538" 
d="M67 123q57 -33 118 -33q70 0 124 45q51 42 71 110q-62 -60 -144 -60q-71 0 -117 44t-46 113q0 85 62 144t157 59q96 0 150 -56q54 -57 54 -155q0 -77 -29.5 -147t-83.5 -119q-87 -77 -207 -77q-96 0 -155 44zM190 352q0 -35 22 -55t58 -20q43 0 76 26.5t33 66.5
q0 35 -22 54q-22 21 -64 21q-43 0 -73 -26t-30 -67z" />
    <glyph glyph-name="uniF8FF" unicode="&#xf8ff;" horiz-adv-x="1508" 
d="M1310 429v-429h-120v429h-103v105h103v62q0 113 55.5 167t141.5 54q40 0 67 -9v-101q-18 4 -43 4q-15 0 -29.5 -4t-32 -14.5t-28.5 -35t-11 -59.5v-64h139v-105h-139zM446 268q0 -111 75 -193.5t188 -82.5q42 0 96.5 22.5t82.5 68.5v-83h116v814h-119v-356
q-27 43 -78.5 64.5t-94.5 21.5q-119 0 -192.5 -84t-73.5 -192zM247 172q0 -35 19.5 -52t63.5 -17q17 0 48 4v-101q-36 -11 -86 -11q-83 0 -123.5 38.5t-40.5 132.5v261h-103v107h103v165h119v-165h136v-107h-136v-255zM887 268q0 -71 -44.5 -119.5t-115.5 -48.5t-116 48.5
t-45 119.5t45 120t116 49q70 0 115 -49t45 -120z" />
    <glyph glyph-name="Aring.alt" horiz-adv-x="789" 
d="M700 1007q0 -63 -45.5 -109.5t-113.5 -46.5q-56 0 -93 33t-37 87q0 63 46.5 110t113.5 47q55 0 92 -33t37 -88zM617 1000q0 24 -15 37.5t-38 13.5q-29 0 -49 -23t-20 -50q0 -23 14.5 -36.5t37.5 -13.5q29 0 49.5 22.5t20.5 49.5zM194 184l-117 -184h-138l515 783h150
l122 -783h-125l-26 184h-381zM265 293h295l-56 366z" />
    <glyph glyph-name="OE.alt" horiz-adv-x="1122" 
d="M473 0q-198 0 -304 101q-86 83 -86 230q0 176 122 301q143 151 411 151h584l-29 -110h-359l-59 -220h325l-29 -110h-325l-62 -232h362l-29 -111h-522zM211 332q0 -102 68 -160.5t202 -58.5h59l148 557h-85q-173 0 -282.5 -94.5t-109.5 -243.5z" />
    <glyph glyph-name="Q.alt" horiz-adv-x="924" 
d="M434 0q-158 0 -254 95.5t-96 241.5q0 87 34 169.5t93 146t145 102.5t182 39q153 0 249 -96t96 -240q0 -105 -49 -197t-134 -155v-2h198l-28 -104h-436zM754 452q0 101 -61.5 165t-166.5 64q-88 0 -161.5 -51t-113 -128t-39.5 -160q0 -101 62 -165t167 -64
q132 0 222.5 105t90.5 234z" />
    <glyph glyph-name="O.slash" horiz-adv-x="902" 
d="M542 794q155 0 252 -97t97 -243q0 -118 -58 -224t-165 -172.5t-238 -66.5q-154 0 -250.5 97t-96.5 244q0 118 58 223.5t164.5 172t236.5 66.5zM530 682q-90 0 -165 -53t-115 -131.5t-40 -160.5q0 -69 29 -122l419 434q-55 33 -128 33zM443 103q88 0 163 52t116 131
t41 162q0 67 -28 120l-419 -433q54 -32 127 -32z" />
    <glyph glyph-name="a.alt" horiz-adv-x="578" 
d="M529 391q0 -38 -15 -92l-79 -299h-115l18 67q-75 -75 -167 -75q-59 0 -105 38t-46 100q0 77 59 124.5t152 53.5l128 8q58 3 58 60q0 34 -28 50.5t-64 16.5q-51 0 -87.5 -29.5t-46.5 -64.5l-105 33q6 22 24.5 48.5t49 53t77.5 44t101 17.5q97 0 144 -46t47 -108zM272 229
q-51 -3 -90.5 -22.5t-39.5 -60.5q0 -27 19.5 -43.5t47.5 -16.5q56 0 104 40t64 98l3 11z" />
    <glyph glyph-name="aacute.alt" horiz-adv-x="578" 
d="M438 797h151l-183 -172h-115zM529 391q0 -38 -15 -92l-79 -299h-115l18 67q-75 -75 -167 -75q-59 0 -105 38t-46 100q0 77 59 124.5t152 53.5l128 8q58 3 58 60q0 34 -28 50.5t-64 16.5q-51 0 -87.5 -29.5t-46.5 -64.5l-105 33q6 22 24.5 48.5t49 53t77.5 44t101 17.5
q97 0 144 -46t47 -108zM272 229q-51 -3 -90.5 -22.5t-39.5 -60.5q0 -27 19.5 -43.5t47.5 -16.5q56 0 104 40t64 98l3 11z" />
    <glyph glyph-name="abreve.alt" horiz-adv-x="578" 
d="M359 623q-76 0 -118 46.5t-37 123.5h94q0 -82 69 -82q37 0 66 23t39 59h96q-23 -77 -77.5 -123.5t-131.5 -46.5zM529 391q0 -38 -15 -92l-79 -299h-115l18 67q-75 -75 -167 -75q-59 0 -105 38t-46 100q0 77 59 124.5t152 53.5l128 8q58 3 58 60q0 34 -28 50.5t-64 16.5
q-51 0 -87.5 -29.5t-46.5 -64.5l-105 33q6 22 24.5 48.5t49 53t77.5 44t101 17.5q97 0 144 -46t47 -108zM272 229q-51 -3 -90.5 -22.5t-39.5 -60.5q0 -27 19.5 -43.5t47.5 -16.5q56 0 104 40t64 98l3 11z" />
    <glyph glyph-name="uni01CE.alt" horiz-adv-x="578" 
d="M321 625l-92 172h107l45 -92l98 92h125l-189 -172h-94zM529 391q0 -38 -15 -92l-79 -299h-115l18 67q-75 -75 -167 -75q-59 0 -105 38t-46 100q0 77 59 124.5t152 53.5l128 8q58 3 58 60q0 34 -28 50.5t-64 16.5q-51 0 -87.5 -29.5t-46.5 -64.5l-105 33q6 22 24.5 48.5
t49 53t77.5 44t101 17.5q97 0 144 -46t47 -108zM272 229q-51 -3 -90.5 -22.5t-39.5 -60.5q0 -27 19.5 -43.5t47.5 -16.5q56 0 104 40t64 98l3 11z" />
    <glyph glyph-name="acircumflex.alt" horiz-adv-x="578" 
d="M450 797l92 -172h-107l-45 92l-98 -92h-125l190 172h93zM529 391q0 -38 -15 -92l-79 -299h-115l18 67q-75 -75 -167 -75q-59 0 -105 38t-46 100q0 77 59 124.5t152 53.5l128 8q58 3 58 60q0 34 -28 50.5t-64 16.5q-51 0 -87.5 -29.5t-46.5 -64.5l-105 33q6 22 24.5 48.5
t49 53t77.5 44t101 17.5q97 0 144 -46t47 -108zM272 229q-51 -3 -90.5 -22.5t-39.5 -60.5q0 -27 19.5 -43.5t47.5 -16.5q56 0 104 40t64 98l3 11z" />
    <glyph glyph-name="adieresis.alt" horiz-adv-x="578" 
d="M260 620q-30 0 -49 18.5t-19 48.5q0 35 24 59.5t58 24.5q29 0 49 -19t20 -48q0 -35 -24 -59.5t-59 -24.5zM482 620q-30 0 -49 18.5t-19 48.5q0 35 24.5 59.5t58.5 24.5q29 0 48.5 -19t19.5 -48q0 -35 -24 -59.5t-59 -24.5zM529 391q0 -38 -15 -92l-79 -299h-115l18 67
q-75 -75 -167 -75q-59 0 -105 38t-46 100q0 77 59 124.5t152 53.5l128 8q58 3 58 60q0 34 -28 50.5t-64 16.5q-51 0 -87.5 -29.5t-46.5 -64.5l-105 33q6 22 24.5 48.5t49 53t77.5 44t101 17.5q97 0 144 -46t47 -108zM272 229q-51 -3 -90.5 -22.5t-39.5 -60.5
q0 -27 19.5 -43.5t47.5 -16.5q56 0 104 40t64 98l3 11z" />
    <glyph glyph-name="agrave.alt" horiz-adv-x="578" 
d="M406 625h-93l-99 172h138zM529 391q0 -38 -15 -92l-79 -299h-115l18 67q-75 -75 -167 -75q-59 0 -105 38t-46 100q0 77 59 124.5t152 53.5l128 8q58 3 58 60q0 34 -28 50.5t-64 16.5q-51 0 -87.5 -29.5t-46.5 -64.5l-105 33q6 22 24.5 48.5t49 53t77.5 44t101 17.5
q97 0 144 -46t47 -108zM272 229q-51 -3 -90.5 -22.5t-39.5 -60.5q0 -27 19.5 -43.5t47.5 -16.5q56 0 104 40t64 98l3 11z" />
    <glyph glyph-name="amacron.alt" horiz-adv-x="578" 
d="M534 635h-347l26 95h347zM529 391q0 -38 -15 -92l-79 -299h-115l18 67q-75 -75 -167 -75q-59 0 -105 38t-46 100q0 77 59 124.5t152 53.5l128 8q58 3 58 60q0 34 -28 50.5t-64 16.5q-51 0 -87.5 -29.5t-46.5 -64.5l-105 33q6 22 24.5 48.5t49 53t77.5 44t101 17.5
q97 0 144 -46t47 -108zM272 229q-51 -3 -90.5 -22.5t-39.5 -60.5q0 -27 19.5 -43.5t47.5 -16.5q56 0 104 40t64 98l3 11z" />
    <glyph glyph-name="aogonek.alt" horiz-adv-x="578" 
d="M320 0l18 67q-75 -75 -167 -75q-59 0 -105 38t-46 100q0 77 59 124.5t152 53.5l128 8q58 3 58 60q0 34 -28 50.5t-64 16.5q-51 0 -87.5 -29.5t-46.5 -64.5l-105 33q6 22 24.5 48.5t49 53t77.5 44t101 17.5q97 0 144 -46t47 -108q0 -38 -15 -92l-79 -299
q-104 -67 -104 -118q0 -42 69 -42h3l-22 -82q-22 -2 -31 -2q-50 0 -88.5 24.5t-38.5 70.5q0 75 119 149h-22zM272 229q-51 -3 -90.5 -22.5t-39.5 -60.5q0 -27 19.5 -43.5t47.5 -16.5q56 0 104 40t64 98l3 11z" />
    <glyph glyph-name="aring.alt" horiz-adv-x="578" 
d="M502 608q0 -53 -39 -94q66 -44 66 -123q0 -38 -15 -92l-79 -299h-115l18 67q-75 -75 -167 -75q-59 0 -105 38t-46 100q0 77 59 124.5t152 53.5l128 8q58 3 58 60q0 34 -28 50.5t-64 16.5q-51 0 -87.5 -29.5t-46.5 -64.5l-105 33q10 35 47 76.5t93 64.5q-13 24 -13 50
q0 62 46.5 109.5t113.5 47.5q55 0 92 -33.5t37 -88.5zM419 602q0 23 -15 36.5t-38 13.5q-29 0 -49 -23t-20 -50q0 -23 15 -36t38 -13q29 0 49 22.5t20 49.5zM272 229q-51 -3 -90.5 -22.5t-39.5 -60.5q0 -27 19.5 -43.5t47.5 -16.5q56 0 104 40t64 98l3 11z" />
    <glyph glyph-name="atilde.alt" horiz-adv-x="578" 
d="M567 777q-30 -143 -136 -143q-32 0 -69.5 25t-58.5 25q-35 0 -50 -49h-83q15 66 46 105t92 39q30 0 70.5 -24.5t59.5 -24.5q35 0 54 47h75zM529 391q0 -38 -15 -92l-79 -299h-115l18 67q-75 -75 -167 -75q-59 0 -105 38t-46 100q0 77 59 124.5t152 53.5l128 8q58 3 58 60
q0 34 -28 50.5t-64 16.5q-51 0 -87.5 -29.5t-46.5 -64.5l-105 33q6 22 24.5 48.5t49 53t77.5 44t101 17.5q97 0 144 -46t47 -108zM272 229q-51 -3 -90.5 -22.5t-39.5 -60.5q0 -27 19.5 -43.5t47.5 -16.5q56 0 104 40t64 98l3 11z" />
    <glyph glyph-name="l.alt" horiz-adv-x="330" 
d="M343 814l-167 -633q-6 -20 -6 -32q0 -47 68 -47q22 0 45 6l-27 -102q-40 -11 -68 -11q-64 0 -102.5 32.5t-38.5 97.5q0 23 9 55l168 634h119z" />
    <glyph glyph-name="lslash.alt" horiz-adv-x="412" 
d="M57 333l111 56l112 425h119l-93 -356l127 65l-32 -120l-127 -64l-41 -158q-6 -20 -6 -32q0 -47 67 -47q24 0 45 6l-27 -102q-38 -11 -67 -11q-64 0 -102.5 32.5t-38.5 97.5q0 23 9 55l23 89l-111 -57z" />
    <glyph glyph-name="y.alt" horiz-adv-x="598" 
d="M90 534h121l60 -398l254 398h129l-383 -587q-76 -117 -147 -164.5t-156 -47.5q-46 0 -71 11l28 102q22 -8 39 -8q36 0 67.5 13t58.5 40.5t44.5 50t42.5 59.5z" />
    <glyph glyph-name="aring.alt2" horiz-adv-x="578" 
d="M525 759q0 -63 -45.5 -109.5t-114.5 -46.5q-56 0 -92.5 33t-36.5 87q0 63 46.5 110t113.5 47q55 0 92 -33.5t37 -87.5zM441 752q0 24 -14.5 37.5t-37.5 13.5q-29 0 -49.5 -23t-20.5 -51q0 -23 15 -36t38 -13q29 0 49 22.5t20 49.5zM529 391q0 -38 -15 -92l-79 -299h-115
l18 67q-75 -75 -167 -75q-59 0 -105 38t-46 100q0 77 59 124.5t152 53.5l128 8q58 3 58 60q0 34 -28 50.5t-64 16.5q-51 0 -87.5 -29.5t-46.5 -64.5l-105 33q6 22 24.5 48.5t49 53t77.5 44t101 17.5q97 0 144 -46t47 -108zM272 229q-51 -3 -90.5 -22.5t-39.5 -60.5
q0 -27 19.5 -43.5t47.5 -16.5q56 0 104 40t64 98l3 11z" />
    <glyph glyph-name="i.loclTRK" horiz-adv-x="281" 
d="M251 629q-31 0 -50.5 19.5t-19.5 50.5q0 36 25 61.5t61 25.5q31 0 51 -19.5t20 -50.5q0 -36 -25.5 -61.5t-61.5 -25.5zM154 534h119l-141 -534h-119z" />
    <glyph glyph-name="uni0414.alt" horiz-adv-x="864" 
d="M-90 -165l73 276h60l458 672h144l90 -672h67l-74 -276h-123l44 165h-572l-45 -165h-122zM181 111h430l-66 542z" />
    <glyph glyph-name="uni041B.alt" horiz-adv-x="738" 
d="M671 0h-131l-59 639l-401 -639h-139l503 783h141z" />
    <glyph glyph-name="uni0434.alt" horiz-adv-x="702" 
d="M-78 -165l72 272h42l324 427h123l98 -427h46l-71 -272h-117l43 165h-400l-43 -165h-117zM168 107h293l-65 304z" />
    <glyph glyph-name="uni0438.alt" horiz-adv-x="634" 
d="M483 0h-116l17 62q-78 -73 -162 -73q-77 0 -122 45t-45 117q0 33 15 93l77 290h119l-78 -293q-6 -23 -6 -53q0 -43 25 -64.5t70 -21.5q54 0 94.5 39t55.5 96l78 297h120z" />
    <glyph glyph-name="uni0439.alt" horiz-adv-x="634" 
d="M393 623q-66 0 -106.5 41.5t-40.5 104.5v4l73 15q9 -77 83 -77q70 0 108 77l74 -14q-56 -151 -191 -151zM483 0h-116l17 62q-78 -73 -162 -73q-77 0 -122 45t-45 117q0 33 15 93l77 290h119l-78 -293q-6 -23 -6 -53q0 -43 25 -64.5t70 -21.5q54 0 94.5 39t55.5 96l78 297
h120z" />
    <glyph glyph-name="uni043B.alt" horiz-adv-x="601" 
d="M313 534h120l82 -534h-124l-52 394l-260 -394h-129z" />
    <glyph glyph-name="uni043F.alt" horiz-adv-x="632" 
d="M449 293q8 27 8 53q0 42 -25.5 64t-70.5 22q-54 0 -95 -39t-56 -97l-77 -296h-119l140 534h117l-17 -62q78 73 163 73q78 0 122 -45t44 -118q0 -39 -16 -92l-76 -290h-119z" />
    <glyph glyph-name="uni0446.alt" horiz-adv-x="667" 
d="M581 107l-72 -272h-113l44 165h-73l17 62q-78 -73 -162 -73q-78 0 -122.5 45t-44.5 117q0 33 15 93l77 290h119l-77 -293q-7 -27 -7 -53q0 -43 25 -64.5t70 -21.5q54 0 95 39t56 96l77 297h120l-113 -427h69z" />
    <glyph glyph-name="uni0448.alt" horiz-adv-x="973" 
d="M267 534l-78 -293q-7 -32 -7 -53q0 -41 23.5 -63.5t65.5 -22.5q55 0 93.5 39.5t53.5 96.5l78 296h119l-78 -293q-7 -32 -7 -53q0 -42 22.5 -64t64.5 -22q56 0 95 39.5t54 96.5l78 296h119l-140 -534h-117l17 62q-76 -73 -159 -73q-51 0 -90 23t-52 68q-82 -91 -202 -91
q-75 0 -120 43.5t-45 118.5q0 36 16 93l76 290h120z" />
    <glyph glyph-name="uni0449.alt" horiz-adv-x="1005" 
d="M919 107l-71 -272h-113l44 165h-73q11 42 17 62q-76 -73 -159 -73q-51 0 -90 23t-52 68q-81 -91 -202 -91q-75 0 -120 43.5t-45 118.5q0 32 16 94l76 289h120l-78 -293q-7 -30 -7 -53q0 -41 23.5 -63.5t65.5 -22.5q55 0 93 39t54 97l78 296h119l-77 -293q-8 -27 -8 -53
q0 -42 23 -64t64 -22q56 0 94.5 39t54.5 97l78 296h119l-112 -427h68z" />
    <glyph glyph-name="one.alt" horiz-adv-x="544" 
d="M191 110l124 463h-169l24 86q75 3 134 36t83 88h107l-180 -673h176l-30 -110h-474l29 110h176z" />
    <glyph glyph-name="zero.slash" horiz-adv-x="785" 
d="M489 794q134 0 209.5 -89.5t75.5 -223.5q0 -67 -17.5 -136t-53 -132.5t-83 -113t-113 -79t-138.5 -29.5q-75 0 -132.5 29t-89.5 76t-47.5 99.5t-15.5 107.5q0 85 28.5 171.5t79 158t129 116.5t168.5 45zM480 681q-61 0 -114 -37.5t-85.5 -95.5t-51 -122.5t-18.5 -122.5
q0 -26 5 -56l376 393q-41 41 -112 41zM376 102q50 0 95 26t75.5 67.5t53.5 92.5t33.5 101t10.5 92q0 26 -3 50l-374 -391q41 -38 109 -38z" />
    <glyph glyph-name="colon.case" horiz-adv-x="339" 
d="M247 493q-34 0 -56 21.5t-22 56.5q0 40 27.5 68t67.5 28q35 0 57 -21.5t22 -56.5q0 -40 -28 -68t-68 -28zM148 120q-35 0 -57 22t-22 56q0 40 28 68.5t68 28.5q34 0 56.5 -22t22.5 -56q0 -40 -28 -68.5t-68 -28.5z" />
    <glyph glyph-name="exclamdown.case" horiz-adv-x="323" 
d="M292 790q31 0 50.5 -19.5t19.5 -50.5q0 -36 -25 -61.5t-61 -25.5q-31 0 -51 19.5t-20 50.5q0 36 25 61.5t62 25.5zM28 0l158 542h105l-132 -542h-131z" />
    <glyph glyph-name="uni2E18.case" horiz-adv-x="588" 
d="M437 791q31 0 50.5 -19.5t19.5 -50.5q0 -36 -25 -61.5t-61 -25.5q-31 0 -51 19.5t-20 50.5q0 36 25 61.5t62 25.5zM540 245q-2 -109 -83.5 -182.5t-199.5 -73.5q-91 0 -156 51.5t-65 132.5q0 53 30.5 107t67 89.5t95.5 89t87 83.5h108l-65 -334h-114l35 164
q-120 -98 -120 -181q0 -41 29.5 -68t79.5 -27q53 0 89.5 26.5t51 61.5t14.5 74z" />
    <glyph glyph-name="questiondown.case" horiz-adv-x="591" 
d="M420 794q31 0 51 -19.5t20 -50.5q0 -36 -25 -61.5t-61 -25.5q-31 0 -51 19.5t-20 50.5q0 36 25 61.5t61 25.5zM543 249q-2 -108 -83.5 -182t-199.5 -74q-90 0 -155.5 51.5t-65.5 132.5q0 52 17 93t43.5 66t60 50t63.5 45t56.5 50t38.5 65h111q-10 -64 -40 -110
t-66.5 -70.5t-71 -46t-58 -52.5t-23.5 -74q0 -39 29 -63t74 -24q74 0 109.5 47t35.5 110z" />
    <glyph glyph-name="semicolon.case" horiz-adv-x="347" 
d="M172 579q0 37 26 62.5t62 25.5q37 0 62 -25.5t25 -62.5q0 -35 -25.5 -60.5t-61.5 -25.5t-62 25.5t-26 60.5zM43 18q75 45 118 113q-12 -4 -25 -4q-29 0 -48.5 21t-19.5 52q0 41 30 68t69 27q40 0 61.5 -29t21.5 -67q0 -61 -47.5 -126.5t-114.5 -104.5z" />
    <glyph glyph-name="braceleft.case" horiz-adv-x="463" 
d="M505 791q-48 0 -78.5 -11t-47 -36.5t-23.5 -52.5t-12 -74l-9 -80q-14 -125 -154 -147v-1q36 -7 57.5 -26.5t27 -44.5t2.5 -49.5t-12 -47.5l-31 -74q-16 -39 -22.5 -58.5t-9.5 -42t7.5 -32t33 -16t61.5 -6.5h46l-25 -97h-48q-120 0 -169 56.5t-1 173.5l45 109
q26 64 -1 85.5t-92 21.5h-6l26 99h6q137 0 151 121l12 110q14 125 81 171t198 46h58l-25 -97h-46z" />
    <glyph glyph-name="braceright.case" horiz-adv-x="462" 
d="M17 -8q48 0 78.5 11t46.5 37t23 53t12 74l9 79q6 52 41 93.5t113 53.5v1q-47 10 -68.5 41t-20 63t14.5 64l30 74q17 39 23.5 58.5t9.5 42t-7.5 32t-33 16t-61.5 6.5h-46l25 97h48q119 0 168.5 -56.5t1.5 -172.5l-45 -110q-26 -64 1 -85.5t91 -21.5h6l-26 -99h-5
q-137 0 -151 -121l-13 -110q-14 -125 -80.5 -171t-198.5 -46h-58l26 97h46z" />
    <glyph glyph-name="bracketleft.case" horiz-adv-x="437" 
d="M146 -8h182l-25 -97h-297l265 993h296l-25 -96h-183z" />
    </font>
</defs>
</svg>
