<?xml version="1.0" standalone="no"?>
<!DOCTYPE svg PUBLIC "-//W3C//DTD SVG 1.1//EN" "http://www.w3.org/Graphics/SVG/1.1/DTD/svg11.dtd" >
<svg xmlns="http://www.w3.org/2000/svg" xmlns:xlink="http://www.w3.org/1999/xlink" version="1.1">
<metadata>
Created by FontForge 20170731 at Wed Nov  1 16:25:00 2017
 By ,,,
Copyright (c) 2016 by THOMAS GILLETT. All rights reserved.
</metadata>
<defs>
<font id="Gordita-BlackItalic" horiz-adv-x="680" >
  <font-face 
    font-family="Black"
    font-weight="900"
    font-style="italic"
    font-stretch="normal"
    units-per-em="1000"
    panose-1="0 0 0 0 0 0 0 0 0 0"
    ascent="800"
    descent="-200"
    x-height="534"
    cap-height="783"
    bbox="-330 -393.237 1558 1220"
    underline-thickness="50"
    underline-position="-200"
    slope="-14.5"
    unicode-range="U+0020-FB04"
  />
<missing-glyph horiz-adv-x="799" 
d="M90 0v783h660v-783h-660zM677 702h-509l509 -620v620z" />
    <glyph glyph-name="ff" unicode="ff" horiz-adv-x="854" 
d="M899 660q-43 0 -66.5 -21t-36.5 -63l-13 -42h132l-42 -156h-129l-101 -378h-189l101 378h-211l-101 -378h-189l101 378h-98l41 156h97l21 74q27 96 92.5 152.5t175.5 56.5q72 0 106 -21l-39 -148q-26 12 -51 12q-80 0 -104 -84l-12 -42h211l21 74q26 95 92 152t176 57
q72 0 106 -21l-40 -148q-24 12 -51 12z" />
    <glyph glyph-name="fi" unicode="fi" horiz-adv-x="772" 
d="M747 826q44 0 72 -27.5t28 -70.5q0 -51 -35.5 -86.5t-85.5 -35.5q-44 0 -72 27.5t-28 70.5q0 50 35.5 86t85.5 36zM449 0l101 378h-205l-101 -378h-190l101 378h-98l42 156h97l20 74q27 96 93 152.5t176 56.5q71 0 105 -21l-39 -148q-24 12 -51 12q-43 0 -66.5 -21
t-37.5 -63l-12 -42h399l-142 -534h-192z" />
    <glyph glyph-name="fl" unicode="fl" horiz-adv-x="773" 
d="M641 0h-192l101 378h-205l-101 -378h-190l101 378h-98l42 156h97l20 74q27 96 93 152.5t176 56.5q71 0 105 -21l-39 -148q-24 12 -51 12q-43 0 -66.5 -21t-37.5 -63l-12 -42h207l76 281h191z" />
    <glyph glyph-name="ffi" unicode="ffi" horiz-adv-x="1166" 
d="M1141 826q43 0 71.5 -27.5t28.5 -70.5q0 -51 -35.5 -86.5t-86.5 -35.5q-43 0 -71 27.5t-28 70.5q0 51 35 86.5t86 35.5zM843 0l101 378h-204l-101 -378h-190l101 378h-206l-101 -378h-189l101 378h-98l41 156h97l21 74q27 96 92.5 152.5t175.5 56.5q72 0 106 -21
l-39 -148q-26 12 -51 12q-80 0 -104 -84l-12 -42h207l20 74q27 96 93 152.5t176 56.5q71 0 105 -21l-39 -148q-24 12 -51 12q-43 0 -66.5 -21t-36.5 -63l-13 -42h398l-143 -534h-191z" />
    <glyph glyph-name="ffl" unicode="ffl" horiz-adv-x="1166" 
d="M1034 0h-192l101 378h-204l-101 -378h-190l101 378h-205l-101 -378h-189l101 378h-98l41 156h97l21 74q27 96 92.5 152.5t175.5 56.5q72 0 106 -21l-39 -148q-26 12 -51 12q-80 0 -104 -84l-12 -42h206l20 74q27 96 93 152.5t176 56.5q71 0 105 -21l-39 -148
q-24 12 -51 12q-43 0 -66.5 -21t-36.5 -63l-13 -42h206l76 281h191z" />
    <glyph glyph-name=".notdef" horiz-adv-x="799" 
d="M90 0v783h660v-783h-660zM677 702h-509l509 -620v620z" />
    <glyph glyph-name=".null" horiz-adv-x="0" 
 />
    <glyph glyph-name="nonmarkingreturn" horiz-adv-x="333" 
 />
    <glyph glyph-name="space" unicode=" " horiz-adv-x="234" 
 />
    <glyph glyph-name="exclam" unicode="!" horiz-adv-x="353" 
d="M265 266h-173l123 517h204zM123 -12q-43 0 -70.5 27t-27.5 70q0 50 35 85.5t85 35.5q42 0 70.5 -27.5t28.5 -69.5q0 -50 -35.5 -85.5t-85.5 -35.5z" />
    <glyph glyph-name="quotedbl" unicode="&#x22;" horiz-adv-x="537" 
d="M226 413h-76l-6 221q-2 62 28 103t88 41q36 0 64 -21t29 -55q0 -43 -23 -87zM478 413h-76l-7 221q-2 62 28.5 103t87.5 41q37 0 64.5 -21t28.5 -55q2 -42 -22 -87z" />
    <glyph glyph-name="numbersign" unicode="#" horiz-adv-x="806" 
d="M368 0l57 160h-143l-57 -160h-159l58 160h-102l42 162h119l51 142h-112l44 163h125l53 148h158l-53 -148l142 -1l53 149h158l-52 -149h108l-44 -162h-122l-50 -142h115l-43 -162h-131l-59 -160h-156zM486 320l51 146h-147l-53 -146h149z" />
    <glyph glyph-name="dollar" unicode="$" horiz-adv-x="706" 
d="M294 -102l-74 -1l29 109q-91 23 -150 82t-59 150q0 14 1 23l172 31q-1 -7 -1 -20q0 -40 22.5 -68t58.5 -39l41 152l-12 4q-86 26 -138.5 83.5t-52.5 126.5q0 122 90.5 190.5t212.5 68.5q16 0 24 -1l27 103h75l-31 -113q95 -23 141.5 -86.5t46.5 -134.5l-180 -30
q0 64 -53 89l-39 -146l14 -5q98 -29 147.5 -90.5t49.5 -125.5q0 -121 -83.5 -188t-224.5 -67q-13 0 -27 1zM330 554q0 -43 50 -63l37 137q-44 -3 -65.5 -26.5t-21.5 -47.5zM456 232q0 43 -57 65l-37 -139q46 5 70 27.5t24 46.5z" />
    <glyph glyph-name="percent" unicode="%" horiz-adv-x="1075" 
d="M308 410q-84 0 -133.5 48t-49.5 122q0 84 64 147.5t156 63.5q84 0 135 -48t51 -121q0 -84 -65 -148t-158 -64zM995 783h-166l-680 -783h167zM321 535q31 0 52.5 22t21.5 51q0 25 -17 41.5t-45 16.5q-30 0 -50.5 -22t-20.5 -50q0 -25 16 -42t43 -17zM800 -6
q-84 0 -133.5 47.5t-49.5 122.5q0 84 63.5 147.5t155.5 63.5q85 0 136 -48t51 -121q0 -84 -65 -148t-158 -64zM812 119q31 0 52.5 22t21.5 50q0 25 -16.5 42t-44.5 17q-31 0 -51.5 -22t-20.5 -50q0 -25 16 -42t43 -17z" />
    <glyph glyph-name="ampersand" unicode="&#x26;" horiz-adv-x="747" 
d="M720 316q-46 -87 -126 -159l97 -157h-183l-38 62q-116 -73 -222 -73q-98 0 -161.5 50.5t-63.5 145.5q0 82 65.5 146t156.5 102q-54 89 -54 148q0 94 75.5 154.5t171.5 60.5q91 0 155 -54.5t64 -142.5q0 -68 -44.5 -119.5t-113.5 -81.5l-41 -17l62 -101q44 46 74 99z
M444 519q22 9 37 27.5t15 39.5q0 28 -20 44.5t-48 16.5q-31 0 -52.5 -18.5t-21.5 -48.5q0 -24 22 -62l14 -22zM193 209q0 -35 25 -52.5t62 -17.5q54 0 120 43l-84 139q-123 -51 -123 -112z" />
    <glyph glyph-name="quotesingle" unicode="'" horiz-adv-x="285" 
d="M225 413h-76l-6 221q-2 62 28 103t87 41q37 0 64.5 -21t28.5 -55q2 -42 -22 -87z" />
    <glyph glyph-name="parenleft" unicode="(" horiz-adv-x="482" 
d="M604 763q-184 -80 -282.5 -201.5t-98.5 -270.5q0 -89 42.5 -178t127.5 -158l-94 -96q-113 75 -174 190t-61 237q0 211 131 368.5t361 220.5z" />
    <glyph glyph-name="parenright" unicode=")" horiz-adv-x="481" 
d="M-63 -28q184 80 282.5 202t98.5 271q0 89 -42.5 178t-127.5 157l94 96q113 -75 174 -190t61 -237q0 -211 -131 -368.5t-361 -221.5z" />
    <glyph glyph-name="asterisk" unicode="*" horiz-adv-x="523" 
d="M431 513l45 -117l-110 -43l-47 119l-100 -80l-73 91l97 80l-106 70l64 97l106 -68l33 125l117 -31l-34 -126l126 7l9 -116z" />
    <glyph glyph-name="plus" unicode="+" horiz-adv-x="613" 
d="M583 286h-186l-50 -189h-167l51 189h-185l42 159h185l50 187h167l-50 -187h185z" />
    <glyph glyph-name="comma" unicode="," horiz-adv-x="332" 
d="M248 106q0 -84 -56 -155.5t-140 -123.5l-56 60q93 55 140 130q-20 -10 -42 -10q-39 0 -62.5 24t-23.5 61q0 54 40.5 91.5t94.5 37.5q48 0 76.5 -33t28.5 -82z" />
    <glyph glyph-name="hyphen" unicode="-" horiz-adv-x="451" 
d="M57 246l42 159h330l-42 -159h-330z" />
    <glyph glyph-name="period" unicode="." horiz-adv-x="317" 
d="M115 -11q-46 0 -75.5 29t-29.5 75q0 54 37 92t91 38q46 0 76 -29.5t30 -75.5q0 -53 -37.5 -91t-91.5 -38z" />
    <glyph glyph-name="slash" unicode="/" horiz-adv-x="605" 
d="M148 -5h-178l568 820h179z" />
    <glyph glyph-name="zero" unicode="0" horiz-adv-x="774" 
d="M482 796q135 0 212 -89.5t77 -225.5q0 -89 -28 -176t-78 -158t-129 -115t-172 -44q-137 0 -213.5 87.5t-76.5 227.5q0 89 28 176t79 158t129.5 115t171.5 44zM277 312q0 -142 109 -142q45 0 82 32.5t57.5 81t31.5 98t11 90.5q0 65 -27.5 103.5t-82.5 38.5
q-45 0 -81.5 -32t-57.5 -80.5t-31.5 -98t-10.5 -91.5z" />
    <glyph glyph-name="one" unicode="1" horiz-adv-x="522" 
d="M372 0h-198l144 537l-157 -79l-76 154l334 171h162z" />
    <glyph glyph-name="two" unicode="2" horiz-adv-x="689" 
d="M283 368l105 45q71 30 99.5 61t28.5 68q0 32 -25 55.5t-69 23.5q-15 0 -31 -4t-36.5 -15.5t-33.5 -39.5t-13 -68l-179 19q0 71 28 127.5t74.5 89t99.5 49.5t108 17q130 0 199 -69.5t69 -166.5q0 -58 -19.5 -104.5t-56 -79t-70 -53t-79.5 -40.5l-130 -57q-32 -14 -54 -29
t-28 -23l-5 -8h348l-44 -166h-579q30 256 293 368z" />
    <glyph glyph-name="three" unicode="3" horiz-adv-x="696" 
d="M440 245q0 67 -90 67h-78l44 166h63q63 0 96 23.5t33 61.5q0 29 -23.5 47.5t-60.5 18.5q-96 0 -136 -93l-169 63q41 98 129 147.5t201 49.5q117 0 190.5 -62t73.5 -150q0 -76 -48 -128t-123 -69v-1q48 -22 75 -62.5t27 -92.5q0 -106 -96.5 -175t-240.5 -69
q-122 0 -199.5 68t-77.5 188l181 32q-1 -5 -1 -14q0 -49 28 -77.5t78 -28.5t87 24.5t37 65.5z" />
    <glyph glyph-name="four" unicode="4" horiz-adv-x="778" 
d="M584 146l-37 -146h-194l37 146h-381l53 198l461 439h232l-126 -471h116l-46 -166h-115zM502 569l-271 -257h203z" />
    <glyph glyph-name="five" unicode="5" horiz-adv-x="684" 
d="M93 398l164 385h481l-45 -165h-330l-61 -143l1 -1q62 37 141 37q93 0 147.5 -59t54.5 -152q0 -137 -101 -225t-240 -88q-122 0 -199.5 68t-77.5 188l180 32v-14q0 -48 29 -77t78 -29q51 0 89.5 32.5t38.5 87.5q0 40 -29 63.5t-71 23.5q-49 0 -99 -35z" />
    <glyph glyph-name="six" unicode="6" horiz-adv-x="729" 
d="M567 796q138 0 218 -54l-86 -155q-67 38 -152 38q-89 0 -162.5 -51t-97.5 -130h1q87 70 178 70q92 0 157 -62t65 -153q0 -137 -95.5 -224.5t-235.5 -87.5q-130 0 -209.5 81t-79.5 215q0 104 36 197t99.5 163t158 111.5t205.5 41.5zM258 243q0 -41 30.5 -65t72.5 -24
q53 0 91.5 33.5t38.5 84.5q0 41 -30 64.5t-72 23.5q-50 0 -90.5 -34t-40.5 -83z" />
    <glyph glyph-name="seven" unicode="7" horiz-adv-x="646" 
d="M250 0h-227l464 613h-369l46 170h594l-43 -163z" />
    <glyph glyph-name="eight" unicode="8" horiz-adv-x="708" 
d="M712 582q0 -71 -46.5 -119t-117.5 -73v-1q47 -24 76.5 -66t29.5 -95q0 -60 -29 -108t-77 -75.5t-103 -42t-112 -14.5q-53 0 -102.5 13.5t-91.5 39t-67.5 69t-25.5 98.5q0 78 52 132.5t126 78.5v1q-86 64 -86 149q0 74 47.5 127.5t113.5 76.5t139 23q109 0 191.5 -56
t82.5 -158zM513 558q0 35 -26 54t-63 19q-38 0 -66 -24.5t-28 -62.5q0 -35 25.5 -54t61.5 -19q39 0 67.5 24t28.5 63zM464 248q0 38 -32 60.5t-72 22.5q-45 0 -78.5 -25.5t-33.5 -69.5q0 -40 30.5 -61t72.5 -21q47 0 80 24.5t33 69.5z" />
    <glyph glyph-name="nine" unicode="9" horiz-adv-x="730" 
d="M239 -13q-144 0 -222 54l86 155q67 -38 156 -38t162 51.5t98 130.5l-1 1q-87 -71 -181 -71q-92 0 -158 63t-66 154q0 134 96 221.5t235 87.5q128 0 208.5 -83.5t80.5 -216.5q0 -139 -59.5 -254.5t-173.5 -185t-261 -69.5zM543 541q0 41 -30.5 65t-72.5 24
q-52 0 -90.5 -33.5t-38.5 -85.5q0 -41 30 -64.5t72 -23.5q50 0 90 34.5t40 83.5z" />
    <glyph glyph-name="colon" unicode=":" horiz-adv-x="336" 
d="M203 313q-46 0 -75.5 29t-29.5 75q0 54 37 91.5t91 37.5q45 0 75.5 -29.5t30.5 -74.5q0 -53 -38 -91t-91 -38zM116 -11q-46 0 -75.5 29t-29.5 75q0 54 37 92t91 38q46 0 76 -29.5t30 -75.5q0 -53 -38 -91t-91 -38z" />
    <glyph glyph-name="semicolon" unicode=";" horiz-adv-x="346" 
d="M208 313q-46 0 -75.5 29t-29.5 75q0 54 37 91.5t91 37.5q46 0 76 -29t30 -75q0 -53 -37.5 -91t-91.5 -38zM247 106q0 -84 -56 -155.5t-140 -123.5l-56 60q93 55 140 130q-20 -10 -42 -10q-39 0 -62.5 24t-23.5 61q0 54 40.5 91.5t94.5 37.5q48 0 76.5 -33t28.5 -82z" />
    <glyph glyph-name="less" unicode="&#x3c;" horiz-adv-x="636" 
d="M253 359l303 -139l-43 -158l-466 237l36 134l592 237l-47 -177z" />
    <glyph glyph-name="equal" unicode="=" horiz-adv-x="635" 
d="M105 415l42 157h509l-42 -157h-509zM37 160l42 156h508l-41 -156h-509z" />
    <glyph glyph-name="greater" unicode="&#x3e;" horiz-adv-x="637" 
d="M140 512l43 158l465 -237l-35 -134l-593 -237l47 177l377 135z" />
    <glyph glyph-name="question" unicode="?" horiz-adv-x="613" 
d="M380 466q38 29 58 53t20 51q0 29 -21 42.5t-51 13.5q-40 0 -66 -33t-26 -74l-177 21q0 115 90 185.5t208 70.5q96 0 166 -50t70 -142q0 -104 -88 -174l-69 -57q-44 -36 -62 -58.5t-24 -53.5h-177q0 41 23.5 83t59.5 70zM284 -12q-43 0 -71 27t-28 70q0 50 35 85.5
t85 35.5q43 0 71 -27t28 -70q0 -50 -35 -85.5t-85 -35.5z" />
    <glyph glyph-name="at" unicode="@" horiz-adv-x="876" 
d="M703 509q-80 -243 -80 -275q0 -29 27 -29q60 0 100 65.5t40 130.5q0 108 -85 175.5t-196 67.5q-151 0 -260 -113t-109 -265q0 -123 81.5 -201t207.5 -78q54 0 115.5 19.5t107.5 50.5l33 -62q-46 -38 -122 -61.5t-140 -23.5q-152 0 -257 98t-105 252q0 124 59 229
t163.5 167.5t229.5 62.5q87 0 167.5 -36t134.5 -108t54 -162q0 -71 -29 -139t-87.5 -115t-132.5 -47q-33 0 -64.5 14.5t-41.5 42.5q-22 -25 -57.5 -41.5t-68.5 -16.5q-61 0 -101.5 46.5t-40.5 109.5q0 96 70 171.5t163 75.5q29 0 56.5 -14t34.5 -38l16 47h117zM536 343
q0 25 -15.5 40.5t-41.5 15.5q-41 0 -73.5 -36.5t-32.5 -77.5q0 -27 15 -44.5t41 -17.5q41 0 74 39t33 81z" />
    <glyph glyph-name="A" unicode="A" horiz-adv-x="818" 
d="M568 0l-21 144h-312l-90 -144h-213l494 783h225l121 -783h-204zM489 567l-154 -256h190z" />
    <glyph glyph-name="B" unicode="B" horiz-adv-x="756" 
d="M15 0l209 783h259q35 0 67.5 -3t74 -14.5t71 -31t50.5 -55.5t21 -84q0 -78 -50.5 -130.5t-127.5 -68.5v-2q57 -17 88.5 -58.5t31.5 -97.5q0 -106 -91 -172t-265 -66h-338zM371 614l-38 -141h110q52 0 87 19.5t35 62.5q0 59 -96 59h-98zM292 317l-40 -147h132q50 0 86 21
t36 63q0 63 -98 63h-116z" />
    <glyph glyph-name="C" unicode="C" horiz-adv-x="864" 
d="M74 339q0 123 62.5 228.5t169.5 167t232 61.5q71 0 129.5 -17t97 -43.5t67 -63t43 -72t20.5 -73.5l-191 -60q-32 145 -188 145q-97 0 -167 -80t-70 -178q0 -81 50 -131t137 -50q81 0 134 44.5t78 99.5l176 -68q-17 -44 -49 -87t-81 -83.5t-122 -65.5t-158 -25
q-157 0 -263.5 99t-106.5 252z" />
    <glyph glyph-name="D" unicode="D" horiz-adv-x="827" 
d="M15 0l208 783h214q181 0 285.5 -82.5t104.5 -247.5q0 -88 -35 -171.5t-105 -148.5q-144 -133 -399 -133h-273zM620 437q0 164 -203 164h-44l-112 -418h52q84 0 147 25t96 65t48.5 81.5t15.5 82.5z" />
    <glyph glyph-name="E" unicode="E" horiz-adv-x="686" 
d="M15 0l209 783h546l-47 -175h-349l-35 -128h318l-45 -169h-318l-36 -135h352l-47 -176h-548z" />
    <glyph glyph-name="F" unicode="F" horiz-adv-x="673" 
d="M720 604h-346l-39 -142h314l-45 -173h-314l-77 -289h-198l209 783h544z" />
    <glyph glyph-name="G" unicode="G" horiz-adv-x="874" 
d="M685 501q-11 47 -53 80.5t-114 33.5q-97 0 -170.5 -80.5t-73.5 -181.5q0 -80 50.5 -133t140.5 -53q64 0 113.5 29t74.5 77h-226l37 155h415q-3 -86 -31.5 -164t-81 -140.5t-135.5 -99.5t-185 -37q-165 0 -268 98t-103 253q0 129 63.5 234.5t169.5 164t231 58.5
q80 0 144 -22t102.5 -58.5t61 -75.5t30.5 -80z" />
    <glyph glyph-name="H" unicode="H" horiz-adv-x="850" 
d="M501 0l82 305h-290l-81 -305h-198l210 783h197l-79 -296h289l79 296h198l-209 -783h-198z" />
    <glyph glyph-name="I" unicode="I" horiz-adv-x="363" 
d="M15 0l209 783h197l-209 -783h-197z" />
    <glyph glyph-name="J" unicode="J" horiz-adv-x="645" 
d="M257 -11q-100 0 -170.5 56t-70.5 157q0 32 28 140l190 12q0 -1 -12 -49t-12 -67q0 -65 65 -65q33 0 57.5 22t34.5 57l141 531h201l-146 -544q-67 -250 -306 -250z" />
    <glyph glyph-name="K" unicode="K" horiz-adv-x="763" 
d="M481 0l-168 374l-99 -374h-199l209 783h199l-89 -332h1l315 332h252l-391 -397l191 -386h-221z" />
    <glyph glyph-name="L" unicode="L" horiz-adv-x="618" 
d="M539 0h-524l209 783h198l-161 -603h326z" />
    <glyph glyph-name="M" unicode="M" horiz-adv-x="1056" 
d="M710 0l133 495h-2l-320 -495h-119l-65 492h-2l-131 -492h-189l209 783h243l64 -480l310 480h273l-209 -783h-195z" />
    <glyph glyph-name="N" unicode="N" horiz-adv-x="868" 
d="M501 0l-159 486h-1l-130 -486h-196l209 783h221l156 -478l128 478h197l-209 -783h-216z" />
    <glyph glyph-name="O" unicode="O" horiz-adv-x="912" 
d="M539 796q165 0 268.5 -99.5t103.5 -248.5q0 -126 -64 -232.5t-170.5 -167t-229.5 -60.5q-98 0 -181 39t-137 120.5t-54 190.5q0 126 63 232t169.5 166t231.5 60zM280 354q0 -85 52 -133t132 -48q99 0 170.5 78.5t71.5 180.5q0 77 -50.5 128.5t-134.5 51.5
q-98 0 -169.5 -78.5t-71.5 -179.5z" />
    <glyph glyph-name="P" unicode="P" horiz-adv-x="713" 
d="M285 271l-73 -271h-198l210 783h244q117 0 186 -37q107 -57 107 -185q0 -13 -0.5 -24t-7 -41.5t-18.5 -56t-38.5 -56.5t-62.5 -54q-90 -58 -220 -58h-129zM375 610l-45 -172h82q60 0 103.5 24t43.5 78q0 30 -20 46q-25 24 -82 24h-82z" />
    <glyph glyph-name="Q" unicode="Q" horiz-adv-x="914" 
d="M539 796q165 0 268.5 -99.5t103.5 -248.5q0 -188 -136 -321l58 -78l-139 -91l-51 74q-94 -44 -196 -44q-98 0 -181 39t-137 120.5t-54 190.5q0 126 63 232t169.5 166t231.5 60zM278 351q0 -84 53 -133t133 -49q35 0 69 13l-91 126l138 91l79 -116q47 71 47 147
q0 79 -50.5 130.5t-134.5 51.5q-98 0 -170.5 -80t-72.5 -181z" />
    <glyph glyph-name="R" unicode="R" horiz-adv-x="747" 
d="M368 275h-81l-74 -275h-198l209 783h243q172 0 249 -74q58 -55 58 -150q0 -91 -52 -159t-162 -100l87 -300h-199zM376 613l-45 -170h95q62 0 103.5 25.5t41.5 72.5q0 27 -17 46q-24 26 -88 26h-90z" />
    <glyph glyph-name="S" unicode="S" horiz-adv-x="705" 
d="M459 229q0 50 -70 71l-66 20q-88 26 -141 84.5t-53 128.5q0 84 46 145t114.5 89.5t147.5 28.5q76 0 134.5 -22t91 -58t48 -75.5t15.5 -79.5l-184 -31q0 39 -26.5 71t-83.5 32q-51 0 -76 -25t-25 -51q0 -50 65 -69l67 -21q99 -30 149.5 -92.5t50.5 -126.5
q0 -124 -85 -191.5t-229 -67.5q-57 0 -111.5 15t-100 44t-73 77.5t-27.5 109.5q0 15 1 23l175 31q-1 -6 -1 -19q0 -54 38 -85.5t93 -31.5q58 0 87 24t29 52z" />
    <glyph glyph-name="T" unicode="T" horiz-adv-x="674" 
d="M529 604l-161 -604h-199l162 604h-221l48 179h638l-46 -179h-221z" />
    <glyph glyph-name="U" unicode="U" horiz-adv-x="800" 
d="M698 289q-41 -153 -128 -226.5t-240 -73.5q-73 0 -129 19.5t-89 53t-50 79t-16.5 97.5t15.5 109l116 436h200l-120 -450q-20 -74 6 -117.5t93 -43.5q111 0 150 146l124 465h200z" />
    <glyph glyph-name="V" unicode="V" horiz-adv-x="787" 
d="M440 0h-208l-95 783h214l48 -513l291 513h218z" />
    <glyph glyph-name="W" unicode="W" horiz-adv-x="1201" 
d="M667 522l-282 -522h-200l-45 783h201l15 -495h3l268 495h190l38 -496h2l252 496h210l-417 -783h-203z" />
    <glyph glyph-name="X" unicode="X" horiz-adv-x="772" 
d="M500 0l-105 251l-228 -251h-237l380 410l-165 373h217l95 -229l206 229h236l-358 -387l175 -396h-216z" />
    <glyph glyph-name="Y" unicode="Y" horiz-adv-x="761" 
d="M484 288l-77 -288h-198l82 310l-143 473h210l78 -287l231 287h233z" />
    <glyph glyph-name="Z" unicode="Z" horiz-adv-x="696" 
d="M628 176l-47 -176h-609l44 167l465 442h-331l48 174h591l-44 -165l-467 -442h350z" />
    <glyph glyph-name="bracketleft" unicode="[" horiz-adv-x="458" 
d="M-19 -129l266 996h343l-36 -136h-186l-193 -724h185l-36 -136h-343z" />
    <glyph glyph-name="backslash" unicode="\" horiz-adv-x="585" 
d="M173 815h169l148 -820h-170z" />
    <glyph glyph-name="bracketright" unicode="]" horiz-adv-x="458" 
d="M-71 -129l36 136h186l193 724h-186l36 136h344l-266 -996h-343z" />
    <glyph glyph-name="asciicircum" unicode="^" horiz-adv-x="660" 
d="M510 451l-66 197l-170 -197h-182l304 332h156l126 -332h-168z" />
    <glyph glyph-name="underscore" unicode="_" horiz-adv-x="583" 
d="M-120 -191l38 141h582l-37 -141h-583z" />
    <glyph glyph-name="grave" unicode="`" horiz-adv-x="331" 
d="M136 819h197l86 -196h-134z" />
    <glyph glyph-name="a" unicode="a" horiz-adv-x="689" 
d="M382 58q-71 -69 -154 -69q-90 0 -142 64t-52 154q0 137 86.5 237t207.5 100q105 0 161 -78h1l19 68h190l-142 -534h-188l15 58h-2zM318 157q51 0 90 40t39 95q0 38 -25.5 61.5t-64.5 23.5q-53 0 -91.5 -40.5t-38.5 -95.5q0 -38 24.5 -61t66.5 -23z" />
    <glyph glyph-name="b" unicode="b" horiz-adv-x="688" 
d="M660 327q0 -141 -87.5 -239.5t-204.5 -98.5q-109 0 -164 83h-2l-19 -72h-188l217 815h190l-89 -336h2q69 65 151 65q79 0 136.5 -55.5t57.5 -161.5zM338 158q52 0 90.5 40t38.5 96q0 38 -24.5 61t-65.5 23q-53 0 -92 -41t-39 -95q0 -38 25.5 -61t66.5 -23z" />
    <glyph glyph-name="c" unicode="c" horiz-adv-x="625" 
d="M304 -12q-124 0 -195.5 68.5t-71.5 181.5q0 129 95.5 218.5t225.5 89.5q112 0 180 -57.5t80 -138.5l-176 -50q-6 33 -29 55t-63 22q-56 0 -92 -40t-36 -93q0 -39 25 -63t69 -24q38 0 66 20t42 50l159 -60q-32 -77 -108 -128t-171 -51z" />
    <glyph glyph-name="d" unicode="d" horiz-adv-x="689" 
d="M557 0h-189l15 58h-1q-71 -69 -154 -69q-91 0 -142.5 64t-51.5 154q0 137 86.5 237t207.5 100q105 0 161 -78h1l93 349h191zM317 157q52 0 91 39.5t39 95.5q0 38 -25.5 61.5t-65.5 23.5q-53 0 -91 -40.5t-38 -95.5q0 -38 24.5 -61t65.5 -23z" />
    <glyph glyph-name="e" unicode="e" horiz-adv-x="632" 
d="M215 219q0 -38 31 -60.5t66 -22.5q76 0 106 54l148 -67q-39 -73 -111.5 -104t-147.5 -31q-119 0 -195 68t-76 180q0 126 97 218t228 92q100 0 171.5 -59.5t71.5 -159.5q0 -54 -22 -108h-367zM353 401q-35 0 -69.5 -21t-48.5 -55h191q2 7 2 16q0 29 -21 44.5t-54 15.5z
" />
    <glyph glyph-name="f" unicode="f" horiz-adv-x="455" 
d="M551 648q-26 12 -51 12q-79 0 -104 -84l-12 -42h131l-42 -156h-129l-101 -378h-189l101 378h-98l41 156h97l21 74q27 96 92.5 152.5t175.5 56.5q72 0 106 -21z" />
    <glyph glyph-name="g" unicode="g" horiz-adv-x="686" 
d="M228 -106q105 0 141 133l11 41q-27 -19 -44 -29t-46 -19.5t-60 -9.5q-81 0 -137.5 60.5t-56.5 145.5q0 132 85 229t202 97q108 0 164 -80h1l20 72h188l-135 -509q-20 -76 -42 -117q-94 -175 -290 -175q-70 0 -125 20.5t-87.5 53.5t-49 72t-16.5 80l172 34q0 -43 28 -71
t77 -28zM316 167q49 0 86.5 38.5t37.5 91.5q0 36 -24 58.5t-62 22.5q-51 0 -88 -38.5t-37 -91.5q0 -37 23.5 -59t63.5 -22z" />
    <glyph glyph-name="h" unicode="h" horiz-adv-x="651" 
d="M336 0l76 281q4 22 4 33q0 57 -57 57q-75 0 -98 -87l-76 -284h-190l217 815h189l-90 -340h1q72 70 154 70q75 0 114 -44.5t39 -113.5q0 -40 -15 -98l-78 -289h-190z" />
    <glyph glyph-name="i" unicode="i" horiz-adv-x="318" 
d="M271 606q-43 0 -71 27.5t-28 70.5q0 51 35 86.5t86 35.5q43 0 71.5 -27.5t28.5 -70.5q0 -51 -35.5 -86.5t-86.5 -35.5zM187 0h-192l142 534h192z" />
    <glyph glyph-name="j" unicode="j" horiz-adv-x="326" 
d="M280 606q-43 0 -71 27.5t-28 70.5q0 50 35 86t85 36q44 0 72 -27.5t28 -70.5q0 -51 -35 -86.5t-86 -35.5zM177 -65q-52 -199 -248 -199q-22 0 -56.5 8t-52.5 20l38 143q22 -12 48 -12q67 0 86 63l153 576h192z" />
    <glyph glyph-name="k" unicode="k" horiz-adv-x="638" 
d="M185 0h-190l217 815h190l-133 -500h3l201 219h236l-257 -265l118 -269h-206l-109 263z" />
    <glyph glyph-name="l" unicode="l" horiz-adv-x="318" 
d="M-5 0l217 815h192l-217 -815h-192z" />
    <glyph glyph-name="m" unicode="m" horiz-adv-x="980" 
d="M331 0l75 283q5 17 5 32q0 56 -55 56q-36 0 -60.5 -24t-34.5 -63l-76 -284h-190l142 534h189l-16 -59h2q71 69 152 69q104 0 137 -87q81 88 192 88q75 0 115.5 -42t40.5 -115q0 -39 -16 -98l-78 -290h-188l74 283q5 17 5 32q0 56 -54 56q-72 0 -96 -87l-75 -284h-190z
" />
    <glyph glyph-name="n" unicode="n" horiz-adv-x="651" 
d="M336 0l76 281q4 22 4 33q0 57 -57 57q-75 0 -98 -87l-76 -284h-190l142 534h189l-15 -59h1q72 70 154 70q75 0 114 -44.5t39 -113.5q0 -40 -15 -98l-78 -289h-190z" />
    <glyph glyph-name="o" unicode="o" horiz-adv-x="654" 
d="M302 -12q-124 0 -195 69.5t-71 178.5q0 124 92 217t228 93q124 0 195.5 -70t71.5 -178q0 -124 -92.5 -217t-228.5 -93zM312 157q51 0 88 39t37 93q0 39 -25.5 63.5t-65.5 24.5q-53 0 -88.5 -39.5t-35.5 -92.5q0 -38 23 -63t67 -25z" />
    <glyph glyph-name="p" unicode="p" horiz-adv-x="688" 
d="M660 327q0 -141 -87.5 -239.5t-204.5 -98.5q-109 0 -164 83h-2l-89 -336h-189l213 798h191l-15 -55h2q69 65 151 65q79 0 136.5 -55.5t57.5 -161.5zM338 158q52 0 90.5 40t38.5 96q0 38 -24.5 61t-65.5 23q-53 0 -92 -41t-39 -95q0 -38 25.5 -61t66.5 -23z" />
    <glyph glyph-name="q" unicode="q" horiz-adv-x="688" 
d="M228 -11q-90 0 -142 64t-52 154q0 137 86.5 237t207.5 100q105 0 161 -78h1l18 68h191l-213 -798h-189l86 322h-1q-71 -69 -154 -69zM317 157q52 0 91 39.5t39 95.5q0 38 -25.5 61.5t-65.5 23.5q-53 0 -91 -40.5t-38 -95.5q0 -38 24.5 -61t65.5 -23z" />
    <glyph glyph-name="r" unicode="r" horiz-adv-x="461" 
d="M464 347q-29 10 -60 10q-124 0 -156 -123l-63 -234h-190l142 534h189l-18 -67h1q65 73 156 73q29 0 48 -9z" />
    <glyph glyph-name="s" unicode="s" horiz-adv-x="537" 
d="M303 546q102 0 158 -52t56 -111v-3l-160 -18q0 26 -17.5 39t-38.5 13q-24 0 -36 -12t-12 -24q0 -20 31 -30l52 -17q64 -21 103 -58t39 -106q0 -72 -64.5 -125.5t-176.5 -53.5q-64 0 -112 17t-72.5 44t-35.5 53t-11 51v9l154 25q-1 -29 22 -47t54 -18q29 0 43 12t14 26
q0 25 -40 38l-37 13q-66 22 -104 57t-38 96q0 77 65.5 129.5t163.5 52.5z" />
    <glyph glyph-name="t" unicode="t" horiz-adv-x="470" 
d="M358 5q-42 -14 -103 -14q-73 0 -118.5 39.5t-45.5 111.5q0 31 10 66l45 168h-101l42 158h105l47 173h185l-46 -173h123l-42 -158h-123l-43 -161q-3 -11 -3 -21q0 -44 58 -44q22 0 49 5z" />
    <glyph glyph-name="u" unicode="u" horiz-adv-x="652" 
d="M344 59q-74 -70 -154 -70q-74 0 -113.5 45t-39.5 113q0 42 16 98l77 289h190l-75 -282q-5 -17 -5 -32q0 -27 15 -42t42 -15q75 0 99 87l76 284h190l-143 -534h-189l16 59h-2z" />
    <glyph glyph-name="v" unicode="v" horiz-adv-x="631" 
d="M494 534h204l-357 -534h-189l-71 534h193l30 -309z" />
    <glyph glyph-name="w" unicode="w" horiz-adv-x="909" 
d="M292 0h-180l-28 534h187l6 -287h1l170 287h155l19 -289h1l165 289h184l-312 -534h-181l-16 286h-1z" />
    <glyph glyph-name="x" unicode="x" horiz-adv-x="629" 
d="M357 0l-64 141l-126 -141h-228l272 276l-136 258h209l61 -139l124 139h223l-265 -270l136 -264h-206z" />
    <glyph glyph-name="y" unicode="y" horiz-adv-x="625" 
d="M186 -263h-199l165 262l-70 535h187l33 -317h1l188 317h201z" />
    <glyph glyph-name="z" unicode="z" horiz-adv-x="556" 
d="M-28 0l42 151l281 226h-212l41 157h460l-37 -141l-295 -237h234l-41 -156h-473z" />
    <glyph glyph-name="braceleft" unicode="{" horiz-adv-x="468" 
d="M264 218l-24 -66q-34 -76 -26 -111t78 -35h65l-36 -135h-72q-131 0 -178 64.5t-1 189.5l32 84q18 51 -1.5 68t-79.5 18l40 150q60 1 89.5 18t37.5 67l16 103q22 134 92 184t206 50h85l-37 -136h-63q-70 0 -97.5 -33.5t-42.5 -114.5l-15 -79q-10 -57 -42.5 -90.5
t-104.5 -41.5v-4q45 -9 68 -32t23 -53t-12 -65z" />
    <glyph glyph-name="bar" unicode="|" horiz-adv-x="323" 
d="M-16 -116l269 1007h156l-269 -1007h-156z" />
    <glyph glyph-name="braceright" unicode="}" horiz-adv-x="469" 
d="M251 521l25 64q33 77 25.5 111.5t-77.5 34.5h-65l36 136h72q131 0 178 -65t0 -190l-31 -84q-18 -50 1.5 -67t79.5 -18l-40 -150q-60 -1 -89 -18t-37 -67l-17 -103q-22 -134 -92 -184t-206 -50h-85l36 136h64q70 0 97.5 33.5t42.5 114.5l15 79q10 57 42.5 90.5t104.5 42.5
v3q-126 25 -80 151z" />
    <glyph glyph-name="asciitilde" unicode="~" horiz-adv-x="662" 
d="M437 203q-37 0 -72 19.5t-63.5 39t-49.5 19.5q-54 0 -101 -61l-99 94q97 134 204 134q40 0 77.5 -20t65.5 -39.5t45 -19.5q53 0 97 59l101 -92q-95 -133 -205 -133z" />
    <glyph glyph-name="exclamdown" unicode="&#xa1;" horiz-adv-x="335" 
d="M226 546q43 0 70.5 -27t27.5 -70q0 -50 -35 -85.5t-85 -35.5q-43 0 -71 27t-28 70q0 50 35.5 85.5t85.5 35.5zM134 -249h-205l154 517h173z" />
    <glyph glyph-name="cent" unicode="&#xa2;" horiz-adv-x="651" 
d="M274 -102h-71l26 100q-87 21 -135.5 85t-48.5 155q0 129 96 219t225 88h7l24 92h72l-27 -100q78 -19 125.5 -70.5t57.5 -116.5l-175 -50q-10 53 -54 71l-56 -213q63 9 92 68l157 -60q-32 -76 -107.5 -126.5t-170.5 -50.5h-13zM330 375q-45 -10 -73 -47.5t-28 -83.5
q0 -55 46 -77z" />
    <glyph glyph-name="sterling" unicode="&#xa3;" horiz-adv-x="724" 
d="M397 0h-410l42 159q62 13 111 64.5t56 113.5h-113l33 128h74v10q0 147 76.5 234t211.5 87q102 0 174 -57t72 -152q0 -22 -3 -37l-188 -20q1 7 1 21q0 32 -18.5 54t-53.5 22q-47 0 -68.5 -34t-21.5 -81q0 -24 3 -47h188l-34 -128h-152q-16 -109 -113 -167h121
q112 0 135 102l163 -27q-17 -107 -92 -176t-194 -69z" />
    <glyph glyph-name="currency" unicode="&#xa4;" horiz-adv-x="757" 
d="M141 271q0 62 28 112l-83 85l101 100l85 -88q51 26 110 26q64 0 108 -26l87 87l100 -100l-83 -84q29 -48 29 -112q0 -61 -29 -114l84 -83l-100 -101l-87 88q-50 -26 -109 -26q-56 0 -110 26l-86 -87l-100 101l84 84q-29 48 -29 112zM287 270q0 -40 26.5 -66t67.5 -26
t67.5 26t26.5 66q0 41 -26.5 66.5t-67.5 25.5t-67.5 -25.5t-26.5 -66.5z" />
    <glyph glyph-name="yen" unicode="&#xa5;" horiz-adv-x="797" 
d="M712 262l-30 -115h-216l-39 -147h-198l39 147h-214l31 115h214l15 59h-213l30 115h167l-126 347h217l73 -251l207 251h232l-312 -347h170l-31 -115h-215l-16 -59h215z" />
    <glyph glyph-name="brokenbar" unicode="&#xa6;" horiz-adv-x="320" 
d="M407 891l-104 -390h-156l104 390h156zM242 274l-104 -390h-156l105 390h155z" />
    <glyph glyph-name="section" unicode="&#xa7;" horiz-adv-x="687" 
d="M388 163q0 16 -18.5 27.5t-64.5 25.5l-61 18q-167 53 -167 151q0 111 148 145q-43 48 -43 95q0 74 70 122.5t188 48.5q172 0 256 -112l-114 -89q-59 63 -146 63q-64 0 -64 -37q0 -17 17.5 -28t60.5 -24l61 -19q171 -51 171 -152q0 -110 -148 -145q43 -46 43 -94
q0 -74 -69.5 -122.5t-189.5 -48.5q-168 0 -250 113l111 88q56 -64 144 -64q65 0 65 38zM405 438q-75 25 -104 25q-26 0 -44.5 -12.5t-18.5 -33.5q0 -19 18.5 -32.5t60.5 -28.5l23 -7q81 -29 118 -29q26 0 44.5 12.5t18.5 33.5t-20.5 34.5t-68.5 29.5z" />
    <glyph glyph-name="dieresis" unicode="&#xa8;" horiz-adv-x="535" 
d="M252 616q-39 0 -64.5 25t-25.5 64q0 46 31.5 78t77.5 32q39 0 65 -24.5t26 -63.5q0 -46 -32 -78.5t-78 -32.5zM512 616q-39 0 -64.5 25t-25.5 64q0 46 31.5 78t77.5 32q39 0 65 -24.5t26 -63.5q0 -46 -32 -78.5t-78 -32.5z" />
    <glyph glyph-name="copyright" unicode="&#xa9;" horiz-adv-x="910" 
d="M492 -10q-166 0 -284.5 117t-118.5 286q0 166 119 284.5t284 118.5q167 0 284.5 -117.5t117.5 -284.5t-118.5 -285.5t-283.5 -118.5zM491 728q-137 0 -233 -97.5t-96 -236.5q0 -138 97 -237t232 -99q136 0 232.5 97t96.5 238q0 138 -96 236.5t-233 98.5zM733 312
q-22 -79 -85.5 -122.5t-147.5 -43.5q-109 0 -184.5 70t-75.5 179q0 105 77 175t184 70q82 0 147 -44t82 -121l-148 -45q-21 58 -81 58q-38 0 -64 -27.5t-26 -66.5t26 -67.5t64 -28.5q59 0 83 59z" />
    <glyph glyph-name="ordfeminine" unicode="&#xaa;" horiz-adv-x="548" 
d="M384 427q-49 -47 -107 -47q-63 0 -99 44.5t-36 107.5q0 96 60.5 165.5t144.5 69.5q71 0 111 -55h2l13 48h133l-81 -304q-9 -34 -9 -69h-134q0 22 4 40h-2zM340 497q36 0 63.5 28t27.5 66q0 26 -18 42.5t-46 16.5q-37 0 -63.5 -28t-26.5 -67q0 -26 17 -42t46 -16zM484 301
l-31 -117h-401l31 117h401z" />
    <glyph glyph-name="guillemotleft" unicode="&#xab;" horiz-adv-x="699" 
d="M211 68l-174 233l295 231l78 -101l-190 -148l100 -132zM506 68l-173 233l294 231l79 -101l-190 -148l100 -132z" />
    <glyph glyph-name="logicalnot" unicode="&#xac;" horiz-adv-x="723" 
d="M80 414l42 156h618l-90 -339h-178l49 183h-441z" />
    <glyph glyph-name="registered" unicode="&#xae;" horiz-adv-x="657" 
d="M674 522q0 -113 -80.5 -193.5t-194.5 -80.5q-113 0 -193.5 80.5t-80.5 193.5q0 114 80.5 194.5t193.5 80.5q114 0 194.5 -80.5t80.5 -194.5zM612 523q0 90 -62.5 153.5t-150.5 63.5t-150.5 -63.5t-62.5 -153.5t62.5 -153.5t150.5 -63.5t150.5 63.5t62.5 153.5zM454 365
l-56 111h-32v-111h-79v315h129q53 0 85.5 -26t32.5 -75q0 -66 -58 -90l63 -124h-85zM366 543h44q44 0 44 33q0 35 -44 35h-44v-68z" />
    <glyph glyph-name="macron" unicode="&#xaf;" horiz-adv-x="422" 
d="M522 765l-36 -137h-386l36 137h386z" />
    <glyph glyph-name="degree" unicode="&#xb0;" horiz-adv-x="468" 
d="M302 394q-78 0 -128.5 49t-50.5 127q0 91 63.5 155.5t153.5 64.5q78 0 129 -49.5t51 -127.5q0 -91 -63.5 -155t-154.5 -64zM314 516q35 0 59.5 24.5t24.5 59.5q0 30 -19.5 49t-49.5 19q-35 0 -59 -25t-24 -60q0 -30 19 -48.5t49 -18.5z" />
    <glyph glyph-name="plusminus" unicode="&#xb1;" horiz-adv-x="660" 
d="M239 223l42 158h-185l43 159h185l42 157h166l-42 -157h185l-42 -159h-185l-43 -158h-166zM570 146l-43 -161h-537l43 161h537z" />
    <glyph glyph-name="uni00B2" unicode="&#xb2;" horiz-adv-x="482" 
d="M106 459q26 125 178 188l65 27q24 9 45 26t21 37q0 13 -12 22t-29 9q-30 0 -49 -22t-19 -51l-131 15q11 79 73.5 129.5t145.5 50.5q63 0 113.5 -35t50.5 -93q0 -111 -154 -179q-79 -32 -92 -41h193l-31 -117h-374z" />
    <glyph glyph-name="uni00B3" unicode="&#xb3;" horiz-adv-x="467" 
d="M545 762q0 -43 -27.5 -73t-70.5 -39v-1q57 -26 57 -87q0 -68 -57 -107.5t-153 -39.5q-77 0 -126 38t-49 114l121 21q0 -59 57 -59q28 0 47 12t19 34q0 33 -48 33h-42l27 99h31q72 0 72 40q0 14 -12.5 22.5t-34.5 8.5q-49 0 -72 -44l-115 41q27 58 82 86t126 28
q78 0 123 -35.5t45 -91.5z" />
    <glyph glyph-name="acute" unicode="&#xb4;" horiz-adv-x="402" 
d="M292 819h212l-224 -196h-153z" />
    <glyph glyph-name="uni00B5" unicode="&#xb5;" horiz-adv-x="682" 
d="M338 534l-75 -282q-5 -17 -5 -32q0 -27 15 -42t42 -15q75 0 99 87l75 284h191l-117 -436q-13 -50 -13 -98h-191q0 34 5 59h-1q-69 -66 -129 -66q-31 0 -45 14l-47 -177h-182l188 704h190z" />
    <glyph glyph-name="paragraph" unicode="&#xb6;" horiz-adv-x="600" 
d="M116 534q0 105 77.5 177t237.5 72h216l-209 -783h-191l92 346q-110 9 -166.5 53.5t-56.5 134.5z" />
    <glyph glyph-name="periodcentered" unicode="&#xb7;" horiz-adv-x="323" 
d="M165 200q-46 0 -76 29t-30 75q0 53 37.5 91.5t90.5 38.5q46 0 76 -29t30 -75q0 -54 -37.5 -92t-90.5 -38z" />
    <glyph glyph-name="cedilla" unicode="&#xb8;" horiz-adv-x="351" 
d="M238 0q13 -24 13 -70q0 -98 -62 -147t-163 -49q-50 0 -81 12l28 106q26 -4 45 -4q48 0 76.5 34t28.5 83q0 20 -4 35h119z" />
    <glyph glyph-name="uni00B9" unicode="&#xb9;" horiz-adv-x="398" 
d="M220 425l76 290l-108 -51l-51 103l229 112h132l-120 -454h-158z" />
    <glyph glyph-name="ordmasculine" unicode="&#xba;" horiz-adv-x="527" 
d="M331 380q-85 0 -134.5 48.5t-49.5 123.5q0 86 64 150.5t158 64.5q85 0 134.5 -48.5t49.5 -123.5q0 -86 -64 -150.5t-158 -64.5zM338 497q36 0 61 27.5t25 63.5q0 28 -17.5 45t-44.5 17q-37 0 -62 -27.5t-25 -63.5q0 -27 16.5 -44.5t46.5 -17.5zM80 301l-32 -117h396
l32 117h-396z" />
    <glyph glyph-name="guillemotright" unicode="&#xbb;" horiz-adv-x="699" 
d="M216 535l174 -234l-295 -230l-78 100l190 148l-100 132zM512 535l174 -234l-295 -230l-79 100l190 148l-100 132z" />
    <glyph glyph-name="onequarter" unicode="&#xbc;" horiz-adv-x="1205" 
d="M220 330l76 289l-108 -52l-51 104l229 112h132l-120 -453h-158zM283 0l514 783h168l-512 -783h-170zM1026 0h-151l20 72h-243l40 147l268 235h187l-70 -266h65l-32 -116h-65zM812 188h113l36 133z" />
    <glyph glyph-name="onehalf" unicode="&#xbd;" horiz-adv-x="1185" 
d="M220 330l76 290l-108 -53l-51 104l229 112h132l-120 -453h-158zM283 0l513 783h169l-513 -783h-169zM698 34q24 123 177 187l65 28q66 26 66 62q0 15 -13 23t-28 8q-30 0 -49 -21.5t-19 -50.5l-131 15q11 79 73.5 129t145.5 50q63 0 113.5 -34.5t50.5 -93.5
q0 -113 -153 -179q-76 -30 -93 -40h193l-31 -117h-374z" />
    <glyph glyph-name="threequarters" unicode="&#xbe;" horiz-adv-x="1204" 
d="M513 665q0 -43 -27.5 -72.5t-70.5 -39.5q58 -26 58 -87q0 -68 -57.5 -107.5t-153.5 -39.5q-76 0 -125.5 38t-49.5 113l122 22q0 -59 57 -59q28 0 46.5 12t18.5 33q0 34 -47 34h-43l27 98h31q72 0 72 41q0 30 -47 30q-48 0 -71 -44l-115 42q26 57 81 85.5t126 28.5
q79 0 123.5 -36t44.5 -92zM293 0l514 783h168l-513 -783h-169zM1036 0h-151l19 72h-242l39 147l268 235h188l-71 -266h65l-31 -116h-65zM821 188h114l35 133z" />
    <glyph glyph-name="questiondown" unicode="&#xbf;" horiz-adv-x="604" 
d="M330 546q43 0 70.5 -27t27.5 -70q0 -50 -35 -85.5t-84 -35.5q-44 0 -72 27t-28 70q0 50 35.5 85.5t85.5 35.5zM233 68q-38 -29 -58 -53t-20 -51q0 -29 21 -42.5t52 -13.5q40 0 65.5 32.5t26.5 74.5l176 -21q0 -115 -89.5 -185.5t-208.5 -70.5q-95 0 -165.5 50t-70.5 142
q0 104 88 174l69 57q44 36 62 58t25 53h176q0 -40 -23.5 -82.5t-58.5 -69.5z" />
    <glyph glyph-name="Agrave" unicode="&#xc0;" horiz-adv-x="818" 
d="M615 852h-134l-149 196h197zM426 783l-494 -783h213l90 144h312l21 -144h204l-121 783h-225zM489 567l36 -256h-190z" />
    <glyph glyph-name="Aacute" unicode="&#xc1;" horiz-adv-x="818" 
d="M637 1048h212l-224 -196h-153zM235 144l-90 -144h-213l494 783h225l121 -783h-204l-21 144h-312zM525 311l-36 256l-154 -256h190z" />
    <glyph glyph-name="Acircumflex" unicode="&#xc2;" horiz-adv-x="818" 
d="M583 955l-88 -101h-159l177 189h171l79 -189h-146zM426 783l-494 -783h213l90 144h312l21 -144h204l-121 783h-225zM489 567l36 -256h-190z" />
    <glyph glyph-name="Atilde" unicode="&#xc3;" horiz-adv-x="818" 
d="M643 854q-38 0 -80.5 27t-62.5 27q-30 0 -47 -53h-105l8 34q17 64 56.5 103t99.5 39q36 0 78.5 -26t61.5 -26q14 0 25 8.5t15 16.5t11 25h102q-6 -26 -10 -39q-17 -61 -56 -98.5t-96 -37.5zM235 144l-90 -144h-213l494 783h225l121 -783h-204l-21 144h-312zM525 311
l-36 256l-154 -256h190z" />
    <glyph glyph-name="Adieresis" unicode="&#xc4;" horiz-adv-x="818" 
d="M422 865q-39 0 -64.5 25t-25.5 64q0 46 32 78t78 32q39 0 64.5 -24.5t25.5 -63.5q0 -46 -32 -78.5t-78 -32.5zM692 865q-40 0 -65 24.5t-25 64.5q0 46 31.5 78t77.5 32q39 0 64.5 -24.5t25.5 -63.5q0 -46 -31.5 -78.5t-77.5 -32.5zM235 144l-90 -144h-213l494 783h225
l121 -783h-204l-21 144h-312zM525 311l-36 256l-154 -256h190z" />
    <glyph glyph-name="Aring" unicode="&#xc5;" horiz-adv-x="818" 
d="M568 0l-21 144h-312l-90 -144h-213l474 751q-13 26 -13 61q0 69 47.5 118t116.5 49q59 0 98.5 -38.5t39.5 -97.5t-37 -106l114 -737h-204zM550 885q-26 0 -45 -19t-19 -46q0 -22 14 -36t37 -14q27 0 46 19t19 46q0 22 -14.5 36t-37.5 14zM489 567l-154 -256h190z" />
    <glyph glyph-name="AE" unicode="&#xc6;" horiz-adv-x="1093" 
d="M-75 0l573 783h678l-46 -175h-347l-34 -128h314l-44 -169h-315l-37 -135h350l-47 -176h-540l33 124h-223l-89 -124h-226zM355 291h153l86 322h-11z" />
    <glyph glyph-name="Ccedilla" unicode="&#xc7;" horiz-adv-x="864" 
d="M386 -8q-137 19 -224.5 114t-87.5 233q0 123 62.5 228.5t169.5 167t232 61.5q71 0 129.5 -17t97 -43.5t67 -63t43 -72t20.5 -73.5l-191 -60q-32 145 -188 145q-97 0 -167 -80t-70 -178q0 -81 50 -131t137 -50q81 0 134 44.5t78 99.5l176 -68q-16 -40 -43.5 -79t-69 -77
t-102.5 -65t-132 -36q9 -24 9 -62q0 -98 -62 -147t-163 -49q-50 0 -82 12l28 106q28 -4 46 -4q48 0 76.5 34t28.5 83q0 9 -2 27z" />
    <glyph glyph-name="Egrave" unicode="&#xc8;" horiz-adv-x="686" 
d="M577 852h-134l-150 196h198zM258 176l36 135h318l45 169h-318l35 128h349l47 175h-546l-209 -783h548l47 176h-352z" />
    <glyph glyph-name="Eacute" unicode="&#xc9;" horiz-adv-x="686" 
d="M589 1048h212l-223 -196h-154zM770 783l-47 -175h-349l-35 -128h318l-45 -169h-318l-36 -135h352l-47 -176h-548l209 783h546z" />
    <glyph glyph-name="Ecircumflex" unicode="&#xca;" horiz-adv-x="686" 
d="M540 955l-88 -101h-159l177 189h171l79 -189h-146zM258 176l36 135h318l45 169h-318l35 128h349l47 175h-546l-209 -783h548l47 176h-352z" />
    <glyph glyph-name="Edieresis" unicode="&#xcb;" horiz-adv-x="686" 
d="M395 865q-39 0 -64.5 25t-25.5 64q0 46 32 78t78 32q39 0 64.5 -24.5t25.5 -63.5q0 -46 -32 -78.5t-78 -32.5zM665 865q-40 0 -65 24.5t-25 64.5q0 46 31.5 78t77.5 32q39 0 64.5 -24.5t25.5 -63.5q0 -46 -31.5 -78.5t-77.5 -32.5zM770 783l-47 -175h-349l-35 -128h318
l-45 -169h-318l-36 -135h352l-47 -176h-548l209 783h546z" />
    <glyph glyph-name="Igrave" unicode="&#xcc;" horiz-adv-x="363" 
d="M412 852h-134l-149 196h197zM224 783l-209 -783h197l209 783h-197z" />
    <glyph glyph-name="Iacute" unicode="&#xcd;" horiz-adv-x="363" 
d="M428 1049h212l-223 -196h-154zM421 783l-209 -783h-197l209 783h197z" />
    <glyph glyph-name="Icircumflex" unicode="&#xce;" horiz-adv-x="363" 
d="M368 955l-88 -101h-158l176 189h171l79 -189h-146zM224 783l-209 -783h197l209 783h-197z" />
    <glyph glyph-name="Idieresis" unicode="&#xcf;" horiz-adv-x="363" 
d="M226 865q-39 0 -64.5 25t-25.5 64q0 46 32 78t78 32q39 0 64.5 -24.5t25.5 -63.5q0 -46 -32 -78.5t-78 -32.5zM492 865q-40 0 -65 24.5t-25 64.5q0 46 31.5 78t77.5 32q39 0 65 -24.5t26 -63.5q0 -46 -32 -78.5t-78 -32.5zM421 783l-209 -783h-197l209 783h197z" />
    <glyph glyph-name="Eth" unicode="&#xd0;" horiz-adv-x="859" 
d="M38 311l45 168h91l81 304h213q182 0 286.5 -82.5t104.5 -247.5q0 -88 -35 -171.5t-105 -148.5q-144 -133 -399 -133h-273l82 311h-91zM652 437q0 166 -202 166h-45l-34 -124h141l-45 -168h-141l-34 -128h53q84 0 147 25t96 65t48.5 81.5t15.5 82.5z" />
    <glyph glyph-name="Ntilde" unicode="&#xd1;" horiz-adv-x="868" 
d="M682 854q-39 0 -81.5 27t-61.5 27q-30 0 -47 -53h-106l9 34q17 64 56.5 103t98.5 39q36 0 78.5 -26t61.5 -26q15 0 26 8.5t15 16.5t11 25h101l-9 -39q-16 -61 -56 -98.5t-96 -37.5zM341 486l-130 -486h-196l209 783h221l156 -478l128 478h197l-209 -783h-216l-159 486h-1
z" />
    <glyph glyph-name="Ograve" unicode="&#xd2;" horiz-adv-x="912" 
d="M625 852h-134l-150 196h198zM539 796q-125 0 -231.5 -60t-169.5 -166t-63 -232q0 -109 54 -190.5t137 -120.5t181 -39q123 0 229.5 60.5t170.5 167t64 232.5q0 149 -103.5 248.5t-268.5 99.5zM280 354q0 101 71.5 179.5t169.5 78.5q84 0 134.5 -51.5t50.5 -128.5
q0 -102 -71.5 -180.5t-170.5 -78.5q-80 0 -132 48t-52 133z" />
    <glyph glyph-name="Oacute" unicode="&#xd3;" horiz-adv-x="912" 
d="M635 1048h212l-224 -196h-153zM539 796q165 0 268.5 -99.5t103.5 -248.5q0 -126 -64 -232.5t-170.5 -167t-229.5 -60.5q-98 0 -181 39t-137 120.5t-54 190.5q0 126 63 232t169.5 166t231.5 60zM280 354q0 -85 52 -133t132 -48q99 0 170.5 78.5t71.5 180.5
q0 77 -50.5 128.5t-134.5 51.5q-98 0 -169.5 -78.5t-71.5 -179.5z" />
    <glyph glyph-name="Ocircumflex" unicode="&#xd4;" horiz-adv-x="912" 
d="M591 955l-88 -101h-158l176 189h172l79 -189h-147zM539 796q-125 0 -231.5 -60t-169.5 -166t-63 -232q0 -109 54 -190.5t137 -120.5t181 -39q123 0 229.5 60.5t170.5 167t64 232.5q0 149 -103.5 248.5t-268.5 99.5zM280 354q0 101 71.5 179.5t169.5 78.5
q84 0 134.5 -51.5t50.5 -128.5q0 -102 -71.5 -180.5t-170.5 -78.5q-80 0 -132 48t-52 133z" />
    <glyph glyph-name="Otilde" unicode="&#xd5;" horiz-adv-x="912" 
d="M658 854q-38 0 -80.5 27t-61.5 27q-31 0 -48 -53h-105l9 34q16 64 55.5 103t99.5 39q36 0 78.5 -26t61.5 -26q14 0 25 8.5t15 16.5t11 25h102l-9 -39q-16 -61 -56 -98.5t-97 -37.5zM539 796q165 0 268.5 -99.5t103.5 -248.5q0 -126 -64 -232.5t-170.5 -167t-229.5 -60.5
q-98 0 -181 39t-137 120.5t-54 190.5q0 126 63 232t169.5 166t231.5 60zM280 354q0 -85 52 -133t132 -48q99 0 170.5 78.5t71.5 180.5q0 77 -50.5 128.5t-134.5 51.5q-98 0 -169.5 -78.5t-71.5 -179.5z" />
    <glyph glyph-name="Odieresis" unicode="&#xd6;" horiz-adv-x="912" 
d="M437 865q-39 0 -64 24.5t-25 64.5q0 46 31.5 78t77.5 32q39 0 64.5 -24.5t25.5 -63.5q0 -46 -32 -78.5t-78 -32.5zM707 865q-39 0 -64.5 25t-25.5 64q0 46 32 78t78 32q39 0 64.5 -24.5t25.5 -63.5q0 -46 -32 -78.5t-78 -32.5zM539 796q165 0 268.5 -99.5t103.5 -248.5
q0 -126 -64 -232.5t-170.5 -167t-229.5 -60.5q-98 0 -181 39t-137 120.5t-54 190.5q0 126 63 232t169.5 166t231.5 60zM280 354q0 -85 52 -133t132 -48q99 0 170.5 78.5t71.5 180.5q0 77 -50.5 128.5t-134.5 51.5q-98 0 -169.5 -78.5t-71.5 -179.5z" />
    <glyph glyph-name="multiply" unicode="&#xd7;" horiz-adv-x="634" 
d="M84 22l-80 109l224 178l-129 176l122 97l128 -178l225 178l80 -109l-224 -177l128 -176l-121 -97l-130 176z" />
    <glyph glyph-name="Oslash" unicode="&#xd8;" horiz-adv-x="912" 
d="M447 -12q-127 0 -225 66l-95 -91l-82 85l91 88q-61 85 -61 201q0 127 63 233t170 166t232 60q130 0 225 -65l93 90l82 -85l-91 -88q62 -87 62 -200q0 -126 -64 -232.5t-170.5 -167t-229.5 -60.5zM522 618q-101 0 -174 -81t-73 -184q0 -40 13 -76l333 317q-45 24 -99 24z
M368 189q41 -22 95 -22q102 0 174.5 81t72.5 185q0 41 -13 73z" />
    <glyph glyph-name="Ugrave" unicode="&#xd9;" horiz-adv-x="800" 
d="M590 852h-134l-150 196h198zM506 318q-41 -146 -150 -146q-68 0 -93.5 43.5t-5.5 117.5l120 450h-200l-116 -436q-15 -57 -15.5 -109t16.5 -97.5t50 -79t88.5 -53t128.5 -19.5q153 0 240 74t128 226l133 494h-200z" />
    <glyph glyph-name="Uacute" unicode="&#xda;" horiz-adv-x="800" 
d="M601 1048h212l-224 -196h-153zM697 289q-41 -153 -128 -226.5t-240 -73.5q-73 0 -128.5 19.5t-88.5 53t-50 79t-16.5 97.5t15.5 109l116 436h200l-120 -450q-20 -74 5.5 -117.5t93.5 -43.5q109 0 150 146l124 465h200z" />
    <glyph glyph-name="Ucircumflex" unicode="&#xdb;" horiz-adv-x="800" 
d="M548 955l-88 -101h-159l177 189h171l79 -189h-146zM506 318q-41 -146 -150 -146q-68 0 -93.5 43.5t-5.5 117.5l120 450h-200l-116 -436q-15 -57 -15.5 -109t16.5 -97.5t50 -79t88.5 -53t128.5 -19.5q153 0 240 73.5t128 226.5l133 494h-200z" />
    <glyph glyph-name="Udieresis" unicode="&#xdc;" horiz-adv-x="800" 
d="M401 865q-40 0 -65 24.5t-25 64.5q0 46 31.5 78t77.5 32q39 0 64.5 -24.5t25.5 -63.5q0 -46 -31.5 -78.5t-77.5 -32.5zM670 865q-39 0 -64.5 25t-25.5 64q0 46 32 78t78 32q39 0 64.5 -24.5t25.5 -63.5q0 -46 -32 -78.5t-78 -32.5zM697 289q-41 -152 -128 -226t-240 -74
q-73 0 -128.5 19.5t-88.5 53t-50 79t-16.5 97.5t15.5 109l116 436h200l-120 -450q-20 -74 5.5 -117.5t93.5 -43.5q109 0 150 146l124 465h200z" />
    <glyph glyph-name="Yacute" unicode="&#xdd;" horiz-adv-x="761" 
d="M612 1048h212l-224 -196h-153zM209 0l82 310l-143 473h210l78 -287l231 287h233l-416 -495l-77 -288h-198z" />
    <glyph glyph-name="Thorn" unicode="&#xde;" horiz-adv-x="709" 
d="M431 653q117 0 186 -37q108 -58 108 -185q0 -13 -0.5 -24.5t-7 -42t-18.5 -55.5t-38.5 -56.5t-62.5 -54.5q-88 -56 -220 -57h-129l-38 -141h-197l210 783h196l-34 -130h45zM375 308q38 0 69.5 8.5t55 32.5t23.5 61q0 27 -20 47q-25 23 -82 23h-83l-45 -172h82z" />
    <glyph glyph-name="germandbls" unicode="&#xdf;" horiz-adv-x="715" 
d="M485 165q0 4 -0.5 7t-1.5 5.5t-2.5 5.5t-3 5t-4.5 4.5t-4.5 4t-5.5 4t-5.5 3.5l-6 4t-6.5 4l-29 19q-79 50 -79 119q0 90 105 150l26 15q63 37 63 78q0 30 -23.5 45t-57.5 15q-46 0 -78 -32t-47 -87l-143 -534h-187l149 560q69 257 335 257q101 0 169.5 -51.5
t68.5 -153.5q0 -52 -35 -100.5t-84 -80.5l-37 -23q-19 -12 -26 -19.5t-7 -16.5q0 -13 22 -31l21 -17q48 -40 70.5 -72.5t22.5 -79.5q0 -85 -71 -135t-159 -50q-73 0 -124 35.5t-51 104.5q0 21 4 40l133 7q-1 -4 -1 -12q0 -37 43 -37q20 0 33.5 12.5t13.5 27.5z" />
    <glyph glyph-name="agrave" unicode="&#xe0;" horiz-adv-x="689" 
d="M435 623h-134l-150 196h198zM382 58q-71 -69 -154 -69q-90 0 -142 64t-52 154q0 137 86.5 237t207.5 100q105 0 161 -78h1l19 68h190l-142 -534h-188l15 58h-2zM318 157q51 0 90 40t39 95q0 38 -25.5 61.5t-64.5 23.5q-53 0 -91.5 -40.5t-38.5 -95.5q0 -38 24.5 -61
t66.5 -23z" />
    <glyph glyph-name="aacute" unicode="&#xe1;" horiz-adv-x="689" 
d="M451 819h212l-224 -196h-153zM382 58q-71 -69 -154 -69q-90 0 -142 64t-52 154q0 137 86.5 237t207.5 100q105 0 161 -78h1l19 68h190l-142 -534h-188l15 58h-2zM318 157q51 0 90 40t39 95q0 38 -25.5 61.5t-64.5 23.5q-53 0 -91.5 -40.5t-38.5 -95.5q0 -38 24.5 -61
t66.5 -23z" />
    <glyph glyph-name="acircumflex" unicode="&#xe2;" horiz-adv-x="689" 
d="M425 726l-88 -102h-158l176 189h172l79 -189h-147zM382 58q-71 -69 -154 -69q-90 0 -142 64t-52 154q0 137 86.5 237t207.5 100q105 0 161 -78h1l19 68h190l-142 -534h-188l15 58h-2zM318 157q51 0 90 40t39 95q0 38 -25.5 61.5t-64.5 23.5q-53 0 -91.5 -40.5
t-38.5 -95.5q0 -38 24.5 -61t66.5 -23z" />
    <glyph glyph-name="atilde" unicode="&#xe3;" horiz-adv-x="689" 
d="M510 624q-38 0 -80.5 27t-61.5 27q-31 0 -48 -53h-105l9 35q16 64 55.5 103t99.5 39q36 0 78.5 -26.5t61.5 -26.5q21 0 31.5 13t19.5 37h102l-9 -38q-17 -61 -56.5 -99t-96.5 -38zM382 58q-71 -69 -154 -69q-90 0 -142 64t-52 154q0 137 86.5 237t207.5 100
q105 0 161 -78h1l19 68h190l-142 -534h-188l15 58h-2zM318 157q51 0 90 40t39 95q0 38 -25.5 61.5t-64.5 23.5q-53 0 -91.5 -40.5t-38.5 -95.5q0 -38 24.5 -61t66.5 -23z" />
    <glyph glyph-name="adieresis" unicode="&#xe4;" horiz-adv-x="689" 
d="M312 616q-39 0 -64 25t-25 64q0 46 31.5 78t77.5 32q39 0 64.5 -24.5t25.5 -63.5q0 -47 -32 -79t-78 -32zM572 616q-39 0 -64 25t-25 64q0 46 31.5 78t77.5 32q39 0 65 -24.5t26 -63.5q0 -47 -32.5 -79t-78.5 -32zM382 58q-71 -69 -154 -69q-90 0 -142 64t-52 154
q0 137 86.5 237t207.5 100q105 0 161 -78h1l19 68h190l-142 -534h-188l15 58h-2zM318 157q51 0 90 40t39 95q0 38 -25.5 61.5t-64.5 23.5q-53 0 -91.5 -40.5t-38.5 -95.5q0 -38 24.5 -61t66.5 -23z" />
    <glyph glyph-name="aring" unicode="&#xe5;" horiz-adv-x="689" 
d="M433 607q-60 0 -99 38t-39 98q0 69 48 117.5t117 48.5q60 0 99 -38t39 -98q0 -69 -48 -117.5t-117 -48.5zM454 816q-28 0 -46.5 -19t-18.5 -47q0 -22 14 -35.5t36 -13.5q28 0 46.5 18.5t18.5 46.5q0 22 -14 36t-36 14zM382 58q-71 -69 -154 -69q-90 0 -142 64t-52 154
q0 137 86.5 237t207.5 100q105 0 161 -78h1l19 68h190l-142 -534h-188l15 58h-2zM318 157q51 0 90 40t39 95q0 38 -25.5 61.5t-64.5 23.5q-53 0 -91.5 -40.5t-38.5 -95.5q0 -38 24.5 -61t66.5 -23z" />
    <glyph glyph-name="ae" unicode="&#xe6;" horiz-adv-x="944" 
d="M354 546q97 0 157 -51q79 51 162 51q100 0 171.5 -59.5t71.5 -159.5q0 -54 -22 -108h-367q0 -38 31 -60.5t66 -22.5q76 0 106 54l148 -67q-39 -73 -111.5 -104t-147.5 -31q-139 0 -216 90q-51 -51 -103 -70.5t-127 -19.5h-4q-65 0 -112 38.5t-47 103.5q0 44 20.5 78
t54 53t67.5 29t71 13l110 8q22 2 38 15t16 33q0 22 -18 32.5t-41 10.5q-36 0 -61.5 -19t-35.5 -48l-161 51q25 67 99 113.5t185 46.5zM665 401q-35 0 -69.5 -21t-48.5 -55h192q2 7 2 16q0 29 -21.5 44.5t-54.5 15.5zM248 122q35 0 62 20t34 55l4 21l-67 -7q-76 -7 -76 -50
q0 -17 12 -28t31 -11z" />
    <glyph glyph-name="ccedilla" unicode="&#xe7;" horiz-adv-x="625" 
d="M316 157q37 0 65.5 20t42.5 50l159 -60q-29 -68 -92 -116.5t-144 -59.5q8 -22 8 -61q0 -98 -62 -147t-163 -49q-50 0 -82 12l29 106q26 -4 45 -4q48 0 77 34t29 83q0 17 -4 32q-89 20 -138 84.5t-49 156.5q0 129 95.5 218.5t225.5 89.5q112 0 180 -57.5t80 -138.5
l-176 -50q-6 33 -29 55t-63 22q-57 0 -92.5 -40t-35.5 -93q0 -39 25 -63t69 -24z" />
    <glyph glyph-name="egrave" unicode="&#xe8;" horiz-adv-x="632" 
d="M444 623h-133l-150 196h197zM215 219q0 -38 31 -60.5t66 -22.5q76 0 106 54l148 -67q-39 -73 -111.5 -104t-147.5 -31q-119 0 -195 68t-76 180q0 126 97 218t228 92q100 0 171.5 -59.5t71.5 -159.5q0 -54 -22 -108h-367zM353 401q-35 0 -69.5 -21t-48.5 -55h191q2 7 2 16
q0 29 -21 44.5t-54 15.5z" />
    <glyph glyph-name="eacute" unicode="&#xe9;" horiz-adv-x="632" 
d="M465 819h212l-223 -196h-154zM215 219q0 -38 31 -60.5t66 -22.5q76 0 106 54l148 -67q-39 -73 -111.5 -104t-147.5 -31q-119 0 -195 68t-76 180q0 126 97 218t228 92q100 0 171.5 -59.5t71.5 -159.5q0 -54 -22 -108h-367zM353 401q-35 0 -69.5 -21t-48.5 -55h191
q2 7 2 16q0 29 -21 44.5t-54 15.5z" />
    <glyph glyph-name="ecircumflex" unicode="&#xea;" horiz-adv-x="632" 
d="M407 726l-88 -102h-158l176 189h171l79 -189h-146zM215 219q0 -38 31 -60.5t66 -22.5q76 0 106 54l148 -67q-39 -73 -111.5 -104t-147.5 -31q-119 0 -195 68t-76 180q0 126 97 218t228 92q100 0 171.5 -59.5t71.5 -159.5q0 -54 -22 -108h-367zM353 401q-35 0 -69.5 -21
t-48.5 -55h191q2 7 2 16q0 29 -21 44.5t-54 15.5z" />
    <glyph glyph-name="edieresis" unicode="&#xeb;" horiz-adv-x="632" 
d="M255 616q-39 0 -64 25t-25 64q0 46 31.5 78t77.5 32q39 0 64.5 -24.5t25.5 -63.5q0 -47 -32 -79t-78 -32zM515 616q-39 0 -64 24.5t-25 64.5q0 46 31.5 78t77.5 32q39 0 64.5 -24.5t25.5 -63.5q0 -47 -32 -79t-78 -32zM215 219q0 -38 31 -60.5t66 -22.5q76 0 106 54
l148 -67q-39 -73 -111.5 -104t-147.5 -31q-119 0 -195 68t-76 180q0 126 97 218t228 92q100 0 171.5 -59.5t71.5 -159.5q0 -54 -22 -108h-367zM353 401q-35 0 -69.5 -21t-48.5 -55h191q2 7 2 16q0 29 -21 44.5t-54 15.5z" />
    <glyph glyph-name="igrave" unicode="&#xec;" horiz-adv-x="318" 
d="M321 623h-134l-149 196h197zM137 534h192l-143 -534h-191z" />
    <glyph glyph-name="iacute" unicode="&#xed;" horiz-adv-x="318" 
d="M338 819h212l-224 -196h-153zM137 534h192l-143 -534h-191z" />
    <glyph glyph-name="icircumflex" unicode="&#xee;" horiz-adv-x="318" 
d="M282 726l-88 -102h-158l176 189h172l79 -189h-147zM137 534h192l-143 -534h-191z" />
    <glyph glyph-name="idieresis" unicode="&#xef;" horiz-adv-x="320" 
d="M139 616q-39 0 -64.5 25t-25.5 64q0 46 32 78t78 32q39 0 64.5 -24.5t25.5 -63.5q0 -47 -32 -79t-78 -32zM399 616q-39 0 -64 24.5t-25 64.5q0 46 31 78t77 32q40 0 65.5 -24.5t25.5 -63.5q0 -46 -32 -78.5t-78 -32.5zM137 534h194l-143 -534h-193z" />
    <glyph glyph-name="eth" unicode="&#xf0;" horiz-adv-x="653" 
d="M307 502q38 0 81 -13.5t74 -35.5l2 2q-12 74 -81 137l-156 -69l-42 90l109 45v1q-38 25 -118 51l62 129q118 -41 206 -112l116 52l44 -91q-49 -20 -85 -37q105 -130 105 -309q0 -69 -19.5 -131t-57 -112.5t-100.5 -80t-143 -29.5q-114 0 -190.5 65t-76.5 183
q0 110 77.5 187.5t192.5 77.5zM312 154q51 0 87.5 40.5t36.5 94.5q0 40 -25 65t-64 25q-54 0 -90 -40.5t-36 -93.5q0 -38 23.5 -64.5t67.5 -26.5z" />
    <glyph glyph-name="ntilde" unicode="&#xf1;" horiz-adv-x="651" 
d="M518 624q-39 0 -81.5 27t-61.5 27q-33 0 -47 -53h-106l9 35q16 64 55.5 103t99.5 39q36 0 78.5 -26.5t61.5 -26.5q15 0 26 8.5t15 16.5t11 25h101l-9 -38q-17 -61 -56.5 -99t-95.5 -38zM412 281q4 15 4 33q0 57 -57 57q-75 0 -98 -87l-76 -284h-190l142 534h189l-15 -59
h1q72 70 154 70q75 0 114 -44.5t39 -113.5q0 -40 -15 -98l-78 -289h-190z" />
    <glyph glyph-name="ograve" unicode="&#xf2;" horiz-adv-x="654" 
d="M445 623h-134l-149 196h197zM302 -12q-124 0 -195 69.5t-71 178.5q0 124 92 217t228 93q124 0 195.5 -70t71.5 -178q0 -124 -92.5 -217t-228.5 -93zM312 157q51 0 88 39t37 93q0 39 -25.5 63.5t-65.5 24.5q-53 0 -88.5 -39.5t-35.5 -92.5q0 -38 23 -63t67 -25z" />
    <glyph glyph-name="oacute" unicode="&#xf3;" horiz-adv-x="654" 
d="M461 819h212l-223 -196h-154zM302 -12q136 0 228.5 93t92.5 217q0 108 -71.5 178t-195.5 70q-136 0 -228 -93t-92 -217q0 -109 71 -178.5t195 -69.5zM312 157q-44 0 -67 25t-23 63q0 53 35.5 92.5t88.5 39.5q40 0 65.5 -24.5t25.5 -63.5q0 -54 -37 -93t-88 -39z" />
    <glyph glyph-name="ocircumflex" unicode="&#xf4;" horiz-adv-x="654" 
d="M402 726l-88 -102h-158l177 189h171l79 -189h-146zM302 -12q-124 0 -195 69.5t-71 178.5q0 124 92 217t228 93q124 0 195.5 -70t71.5 -178q0 -124 -92.5 -217t-228.5 -93zM312 157q51 0 88 39t37 93q0 39 -25.5 63.5t-65.5 24.5q-53 0 -88.5 -39.5t-35.5 -92.5
q0 -38 23 -63t67 -25z" />
    <glyph glyph-name="otilde" unicode="&#xf5;" horiz-adv-x="654" 
d="M489 624q-38 0 -80.5 27t-61.5 27q-31 0 -48 -53h-105l9 35q16 64 55.5 103t99.5 39q36 0 78.5 -26.5t61.5 -26.5q21 0 31.5 13t19.5 37h102l-9 -38q-17 -61 -56.5 -99t-96.5 -38zM302 -12q136 0 228.5 93t92.5 217q0 108 -71.5 178t-195.5 70q-136 0 -228 -93t-92 -217
q0 -109 71 -178.5t195 -69.5zM312 157q-44 0 -67 25t-23 63q0 53 35.5 92.5t88.5 39.5q40 0 65.5 -24.5t25.5 -63.5q0 -54 -37 -93t-88 -39z" />
    <glyph glyph-name="odieresis" unicode="&#xf6;" horiz-adv-x="654" 
d="M271 616q-39 0 -64 25t-25 64q0 46 31.5 78t77.5 32q39 0 64.5 -24.5t25.5 -63.5q0 -47 -32 -79t-78 -32zM531 616q-39 0 -64 24.5t-25 64.5q0 46 31.5 78t77.5 32q39 0 65 -24.5t26 -63.5q0 -47 -32 -79t-79 -32zM302 -12q136 0 228.5 93t92.5 217q0 108 -71.5 178
t-195.5 70q-136 0 -228 -93t-92 -217q0 -109 71 -178.5t195 -69.5zM312 157q-44 0 -67 25t-23 63q0 53 35.5 92.5t88.5 39.5q40 0 65.5 -24.5t25.5 -63.5q0 -54 -37 -93t-88 -39z" />
    <glyph glyph-name="divide" unicode="&#xf7;" horiz-adv-x="605" 
d="M387 511q-43 0 -69 25t-26 63q0 44 33 76.5t82 32.5q44 0 70 -24.5t26 -62.5q0 -44 -33.5 -77t-82.5 -33zM89 446l-42 -158h529l42 158h-529zM258 26q-44 0 -70 25t-26 63q0 44 33.5 77t81.5 33q44 0 70 -25t26 -63q0 -44 -33.5 -77t-81.5 -33z" />
    <glyph glyph-name="oslash" unicode="&#xf8;" horiz-adv-x="654" 
d="M302 -11q-98 0 -165 47l-74 -70l-52 55l71 67q-45 61 -45 150q0 122 92.5 215t227.5 93q100 0 167 -47l74 69l52 -56l-71 -67q44 -62 44 -149q0 -122 -92.5 -214.5t-228.5 -92.5zM348 384q-56 0 -94.5 -42.5t-38.5 -97.5q0 -15 5 -33l174 164q-21 9 -46 9zM267 158
q19 -9 45 -9q54 0 93.5 42t39.5 99q0 16 -5 31z" />
    <glyph glyph-name="ugrave" unicode="&#xf9;" horiz-adv-x="652" 
d="M472 623h-134l-150 196h198zM344 59q-74 -70 -154 -70q-74 0 -113.5 45t-39.5 113q0 42 16 98l77 289h190l-75 -282q-5 -17 -5 -32q0 -27 15 -42t42 -15q75 0 99 87l76 284h190l-143 -534h-189l16 59h-2z" />
    <glyph glyph-name="uacute" unicode="&#xfa;" horiz-adv-x="652" 
d="M487 819h212l-224 -196h-153zM344 59q-74 -70 -154 -70q-74 0 -113.5 45t-39.5 113q0 42 16 98l77 289h190l-75 -282q-5 -17 -5 -32q0 -27 15 -42t42 -15q75 0 99 87l76 284h190l-143 -534h-189l16 59h-2z" />
    <glyph glyph-name="ucircumflex" unicode="&#xfb;" horiz-adv-x="652" 
d="M447 726l-88 -102h-158l176 189h171l79 -189h-146zM344 59q-74 -70 -154 -70q-74 0 -113.5 45t-39.5 113q0 42 16 98l77 289h190l-75 -282q-5 -17 -5 -32q0 -27 15 -42t42 -15q75 0 99 87l76 284h190l-143 -534h-189l16 59h-2z" />
    <glyph glyph-name="udieresis" unicode="&#xfc;" horiz-adv-x="652" 
d="M300 616q-39 0 -64.5 25t-25.5 64q0 46 32 78t78 32q39 0 64.5 -24.5t25.5 -63.5q0 -47 -32 -79t-78 -32zM560 616q-39 0 -64 24.5t-25 64.5q0 46 31.5 78t77.5 32q39 0 64.5 -24.5t25.5 -63.5q0 -47 -32 -79t-78 -32zM344 59q-74 -70 -154 -70q-74 0 -113.5 45
t-39.5 113q0 42 16 98l77 289h190l-75 -282q-5 -17 -5 -32q0 -27 15 -42t42 -15q75 0 99 87l76 284h190l-143 -534h-189l16 59h-2z" />
    <glyph glyph-name="yacute" unicode="&#xfd;" horiz-adv-x="625" 
d="M490 819h212l-223 -196h-154zM152 -1l-70 535h187l33 -317h1l188 317h201l-506 -797h-199z" />
    <glyph glyph-name="thorn" unicode="&#xfe;" horiz-adv-x="688" 
d="M660 327q0 -141 -87.5 -239.5t-204.5 -98.5q-109 0 -164 83h-2l-89 -336h-189l288 1079h190l-89 -336h2q69 65 151 65q79 0 136.5 -55.5t57.5 -161.5zM338 158q52 0 90.5 40t38.5 96q0 38 -24.5 61t-65.5 23q-53 0 -92 -41t-39 -95q0 -38 25.5 -61t66.5 -23z" />
    <glyph glyph-name="ydieresis" unicode="&#xff;" horiz-adv-x="625" 
d="M286 616q-39 0 -64.5 25t-25.5 64q0 46 31.5 78t77.5 32q39 0 65 -24.5t26 -63.5q0 -46 -32 -78.5t-78 -32.5zM545 616q-39 0 -64 25t-25 64q0 46 31.5 78t77.5 32q39 0 65 -24.5t26 -63.5q0 -47 -32 -79t-79 -32zM152 -1l-70 535h187l33 -317h1l188 317h201l-506 -797
h-199z" />
    <glyph glyph-name="Amacron" unicode="&#x100;" horiz-adv-x="818" 
d="M786 1004l-36 -136h-386l36 136h386zM235 144l-90 -144h-213l494 783h225l121 -783h-204l-21 144h-312zM525 311l-36 256l-154 -256h190z" />
    <glyph glyph-name="amacron" unicode="&#x101;" horiz-adv-x="689" 
d="M659 765l-36 -137h-386l36 137h386zM382 58q-71 -69 -154 -69q-90 0 -142 64t-52 154q0 137 86.5 237t207.5 100q105 0 161 -78h1l19 68h190l-142 -534h-188l15 58h-2zM318 157q51 0 90 40t39 95q0 38 -25.5 61.5t-64.5 23.5q-53 0 -91.5 -40.5t-38.5 -95.5
q0 -38 24.5 -61t66.5 -23z" />
    <glyph glyph-name="Abreve" unicode="&#x102;" horiz-adv-x="818" 
d="M792 1052q-26 -85 -87 -139t-147 -54q-77 0 -129.5 46t-52.5 121q0 8 2 26h128q-3 -33 13.5 -54.5t49.5 -21.5q64 0 90 76h133zM426 783l-494 -783h213l90 144h312l21 -144h204l-121 783h-225zM489 567l36 -256h-190z" />
    <glyph glyph-name="abreve" unicode="&#x103;" horiz-adv-x="689" 
d="M662 812q-26 -85 -87 -138.5t-147 -53.5q-76 0 -128.5 46t-52.5 121q0 17 1 25h128q-2 -32 14.5 -54t48.5 -22q63 0 90 76h133zM382 58q-71 -69 -154 -69q-90 0 -142 64t-52 154q0 137 86.5 237t207.5 100q105 0 161 -78h1l19 68h190l-142 -534h-188l15 58h-2zM318 157
q51 0 90 40t39 95q0 38 -25.5 61.5t-64.5 23.5q-53 0 -91.5 -40.5t-38.5 -95.5q0 -38 24.5 -61t66.5 -23z" />
    <glyph glyph-name="Aogonek" unicode="&#x104;" horiz-adv-x="818" 
d="M771 0q-42 -21 -85.5 -55t-43.5 -64q0 -19 18.5 -29t39.5 -10q2 0 7.5 0.5t8.5 0.5l-28 -104q-24 -5 -59 -5q-53 0 -96 25.5t-43 74.5q0 87 130 166h-52l-21 144h-312l-90 -144h-213l494 783h225l121 -783h-1zM489 567l-154 -256h190z" />
    <glyph glyph-name="aogonek" unicode="&#x105;" horiz-adv-x="689" 
d="M275 -166q0 86 130 166h-36l15 58h-2q-71 -69 -154 -69q-90 0 -142 64t-52 154q0 137 86.5 237t207.5 100q105 0 161 -78h1l19 68h190l-142 -534q-42 -21 -85.5 -55t-43.5 -64q0 -19 18 -29t39 -10q3 0 8.5 0.5t8.5 0.5l-28 -104q-24 -5 -59 -5q-54 0 -97 25.5t-43 74.5z
M318 157q51 0 90 40t39 95q0 38 -25.5 61.5t-64.5 23.5q-53 0 -91.5 -40.5t-38.5 -95.5q0 -38 24.5 -61t66.5 -23z" />
    <glyph glyph-name="Cacute" unicode="&#x106;" horiz-adv-x="864" 
d="M637 1048h212l-224 -196h-153zM74 339q0 123 62.5 228.5t169.5 167t232 61.5q71 0 129.5 -17t97 -43.5t67 -63t43 -72t20.5 -73.5l-191 -60q-32 145 -188 145q-97 0 -167 -80t-70 -178q0 -81 50 -131t137 -50q81 0 134 44.5t78 99.5l176 -68q-17 -44 -49 -87t-81 -83.5
t-122 -65.5t-158 -25q-157 0 -263.5 99t-106.5 252z" />
    <glyph glyph-name="cacute" unicode="&#x107;" horiz-adv-x="625" 
d="M460 819h212l-223 -196h-154zM304 -12q-124 0 -195.5 68.5t-71.5 181.5q0 129 95.5 218.5t225.5 89.5q112 0 180 -57.5t80 -138.5l-176 -50q-6 33 -29 55t-63 22q-56 0 -92 -40t-36 -93q0 -39 25 -63t69 -24q38 0 66 20t42 50l159 -60q-32 -77 -108 -128t-171 -51z" />
    <glyph glyph-name="Ccircumflex" unicode="&#x108;" horiz-adv-x="864" 
d="M579 955l-88 -101h-158l176 189h172l79 -189h-147zM74 339q0 -153 106.5 -252t263.5 -99q85 0 158 25t122 65.5t81 83.5t49 87l-176 68q-25 -55 -78 -99.5t-134 -44.5q-87 0 -137 50t-50 131q0 98 70 178t167 80q156 0 188 -145l191 60q-6 38 -20.5 73.5t-43 72t-67 63
t-97 43.5t-129.5 17q-125 0 -232 -61.5t-169.5 -167t-62.5 -228.5z" />
    <glyph glyph-name="ccircumflex" unicode="&#x109;" horiz-adv-x="624" 
d="M406 726l-88 -102h-158l176 189h172l79 -189h-147zM303 -12q96 0 172 51t108 128l-160 60q-14 -30 -42 -50t-65 -20q-44 0 -69 24t-25 63q0 53 35.5 93t91.5 40q40 0 63 -21.5t30 -55.5l175 50q-12 81 -79.5 138.5t-179.5 57.5q-130 0 -225.5 -89.5t-95.5 -218.5
q0 -113 71 -181.5t195 -68.5z" />
    <glyph glyph-name="Cdotaccent" unicode="&#x10a;" horiz-adv-x="864" 
d="M552 855q-43 0 -71 27.5t-28 70.5q0 51 35 86.5t86 35.5q43 0 71.5 -27.5t28.5 -70.5q0 -51 -35.5 -86.5t-86.5 -35.5zM74 339q0 123 62.5 228.5t169.5 167t232 61.5q71 0 129.5 -17t97 -43.5t67 -63t43 -72t20.5 -73.5l-191 -60q-32 145 -188 145q-97 0 -167 -80
t-70 -178q0 -81 50 -131t137 -50q81 0 134 44.5t78 99.5l176 -68q-17 -44 -49 -87t-81 -83.5t-122 -65.5t-158 -25q-157 0 -263.5 99t-106.5 252z" />
    <glyph glyph-name="cdotaccent" unicode="&#x10b;" horiz-adv-x="624" 
d="M376 606q-43 0 -71 27.5t-28 70.5q0 50 35.5 86t85.5 36q44 0 72 -27.5t28 -70.5q0 -51 -35.5 -86.5t-86.5 -35.5zM303 -12q-124 0 -195 68.5t-71 181.5q0 129 95.5 218.5t225.5 89.5q112 0 179.5 -57.5t79.5 -138.5l-175 -50q-7 34 -30 55.5t-63 21.5q-56 0 -91.5 -40
t-35.5 -93q0 -39 25 -63t69 -24q37 0 65 20t42 50l160 -60q-32 -77 -108 -128t-172 -51z" />
    <glyph glyph-name="Ccaron" unicode="&#x10c;" horiz-adv-x="864" 
d="M576 942l88 101h158l-176 -189h-171l-79 189h146zM74 339q0 -153 106.5 -252t263.5 -99q85 0 158 25t122 65.5t81 83.5t49 87l-176 68q-25 -55 -78 -99.5t-134 -44.5q-87 0 -137 50t-50 131q0 98 70 178t167 80q156 0 188 -145l191 60q-6 38 -20.5 73.5t-43 72t-67 63
t-97 43.5t-129.5 17q-125 0 -232 -61.5t-169.5 -167t-62.5 -228.5z" />
    <glyph glyph-name="ccaron" unicode="&#x10d;" horiz-adv-x="624" 
d="M403 712l88 101h158l-176 -188h-171l-79 188h146zM303 -12q96 0 172 51t108 128l-160 60q-14 -30 -42 -50t-65 -20q-44 0 -69 24t-25 63q0 53 35.5 93t91.5 40q40 0 63 -21.5t30 -55.5l175 50q-12 81 -79.5 138.5t-179.5 57.5q-130 0 -225.5 -89.5t-95.5 -218.5
q0 -113 71 -181.5t195 -68.5z" />
    <glyph glyph-name="Dcaron" unicode="&#x10e;" horiz-adv-x="827" 
d="M499 942l87 101h159l-177 -189h-171l-79 189h146zM288 0q255 0 399 133q70 65 105 148.5t35 171.5q0 165 -104.5 247.5t-285.5 82.5h-214l-208 -783h273zM620 437q0 -41 -15.5 -82.5t-48.5 -81.5t-96 -65t-147 -25h-52l112 418h44q203 0 203 -164z" />
    <glyph glyph-name="dcaron" unicode="&#x10f;" horiz-adv-x="709" 
d="M557 0h-189l15 58h-1q-71 -69 -154 -69q-91 0 -142.5 64t-51.5 154q0 137 86.5 237t207.5 100q105 0 161 -78h1l93 349h191zM908 581h-143l62 234h196zM317 157q52 0 91 39.5t39 95.5q0 38 -25.5 61.5t-65.5 23.5q-53 0 -91 -40.5t-38 -95.5q0 -38 24.5 -61t65.5 -23z
" />
    <glyph glyph-name="Dcroat" unicode="&#x110;" horiz-adv-x="859" 
d="M38 311l45 168h91l81 304h213q182 0 286.5 -82.5t104.5 -247.5q0 -88 -35 -171.5t-105 -148.5q-144 -133 -399 -133h-273l82 311h-91zM652 437q0 166 -202 166h-45l-34 -124h141l-45 -168h-141l-34 -128h53q84 0 147 25t96 65t48.5 81.5t15.5 82.5z" />
    <glyph glyph-name="dcroat" unicode="&#x111;" horiz-adv-x="689" 
d="M774 815l-21 -80h72l-33 -127h-73l-162 -608h-189l15 58h-1q-71 -69 -154 -69q-91 0 -142.5 64t-51.5 154q0 137 86.5 237t207.5 100q105 0 161 -78h1l38 142h-153l35 127h152l21 80h191zM317 157q52 0 91 39.5t39 95.5q0 38 -25.5 61.5t-65.5 23.5q-53 0 -91 -40.5
t-38 -95.5q0 -38 24.5 -61t65.5 -23z" />
    <glyph glyph-name="Emacron" unicode="&#x112;" horiz-adv-x="686" 
d="M743 1004l-36 -136h-386l36 136h386zM770 783l-47 -175h-349l-35 -128h318l-45 -169h-318l-36 -135h352l-47 -176h-548l209 783h546z" />
    <glyph glyph-name="emacron" unicode="&#x113;" horiz-adv-x="632" 
d="M616 765l-36 -137h-386l36 137h386zM215 219q0 -38 31 -60.5t66 -22.5q76 0 106 54l148 -67q-39 -73 -111.5 -104t-147.5 -31q-119 0 -195 68t-76 180q0 126 97 218t228 92q100 0 171.5 -59.5t71.5 -159.5q0 -54 -22 -108h-367zM353 401q-35 0 -69.5 -21t-48.5 -55h191
q2 7 2 16q0 29 -21 44.5t-54 15.5z" />
    <glyph glyph-name="Edotaccent" unicode="&#x116;" horiz-adv-x="686" 
d="M511 855q-43 0 -71 27.5t-28 70.5q0 50 35 86t85 36q44 0 72 -27.5t28 -70.5q0 -51 -35 -86.5t-86 -35.5zM770 783l-47 -175h-349l-35 -128h318l-45 -169h-318l-36 -135h352l-47 -176h-548l209 783h546z" />
    <glyph glyph-name="edotaccent" unicode="&#x117;" horiz-adv-x="632" 
d="M377 606q-43 0 -71 27.5t-28 70.5q0 50 35.5 86t85.5 36q44 0 72 -27.5t28 -70.5q0 -51 -35.5 -86.5t-86.5 -35.5zM215 219q0 -38 31 -60.5t66 -22.5q76 0 106 54l148 -67q-39 -73 -111.5 -104t-147.5 -31q-119 0 -195 68t-76 180q0 126 97 218t228 92q100 0 171.5 -59.5
t71.5 -159.5q0 -54 -22 -108h-367zM353 401q-35 0 -69.5 -21t-48.5 -55h191q2 7 2 16q0 29 -21 44.5t-54 15.5z" />
    <glyph glyph-name="Eogonek" unicode="&#x118;" horiz-adv-x="686" 
d="M339 480h318l-45 -169h-318l-36 -135h352l-47 -176q-42 -21 -85.5 -55t-43.5 -64q0 -19 18 -29t39 -10q3 0 8.5 0.5t8.5 0.5l-28 -104q-24 -5 -59 -5q-54 0 -97 25.5t-43 74.5q0 86 130 166h-396l209 783h545l-46 -175h-349z" />
    <glyph glyph-name="eogonek" unicode="&#x119;" horiz-adv-x="632" 
d="M604 327q0 -54 -22 -108h-367q0 -38 31 -60.5t66 -22.5q76 0 106 54l148 -67q-51 -94 -171 -124q-43 -21 -85.5 -54.5t-42.5 -63.5q0 -19 18.5 -29t39.5 -10q3 0 8.5 0.5t8.5 0.5l-28 -104q-24 -5 -59 -5q-54 0 -97 25.5t-43 74.5q0 84 122 161q-91 19 -146 83t-55 158
q0 126 97 218t228 92q100 0 171.5 -59.5t71.5 -159.5zM426 325q2 7 2 16q0 29 -21 44.5t-54 15.5q-35 0 -69.5 -21t-48.5 -55h191z" />
    <glyph glyph-name="Ecaron" unicode="&#x11a;" horiz-adv-x="686" 
d="M536 942l88 101h158l-176 -189h-171l-80 189h147zM258 176l36 135h318l45 169h-318l35 128h349l47 175h-546l-209 -783h548l47 176h-352z" />
    <glyph glyph-name="ecaron" unicode="&#x11b;" horiz-adv-x="632" 
d="M406 712l88 101h158l-176 -188h-172l-79 188h147zM215 219q0 -38 31 -60.5t66 -22.5q76 0 106 54l148 -67q-39 -73 -111.5 -104t-147.5 -31q-119 0 -195 68t-76 180q0 126 97 218t228 92q100 0 171.5 -59.5t71.5 -159.5q0 -54 -22 -108h-367zM353 401q-35 0 -69.5 -21
t-48.5 -55h191q2 7 2 16q0 29 -21 44.5t-54 15.5z" />
    <glyph glyph-name="Gcircumflex" unicode="&#x11c;" horiz-adv-x="874" 
d="M579 955l-88 -101h-158l176 189h172l79 -189h-147zM877 559q-8 41 -30.5 80t-61 75.5t-102.5 58.5t-144 22q-125 0 -231 -58.5t-169.5 -164t-63.5 -234.5q0 -155 103 -253t268 -98q102 0 185 37t135.5 99.5t81 140.5t31.5 164h-415l-37 -155h226q-25 -48 -74.5 -77
t-113.5 -29q-90 0 -140.5 53t-50.5 133q0 101 73.5 181.5t170.5 80.5q72 0 114 -33.5t53 -80.5z" />
    <glyph glyph-name="gcircumflex" unicode="&#x11d;" horiz-adv-x="686" 
d="M457 726l-88 -102h-159l177 189h171l79 -189h-146zM228 -106q105 0 141 133l11 41q-26 -19 -43.5 -29.5t-47 -19.5t-60.5 -9q-80 0 -136.5 60.5t-56.5 145.5q0 132 85 229t202 97q108 0 164 -80h1l20 72h188l-135 -509q-24 -83 -42 -117q-95 -175 -290 -175
q-70 0 -125 20.5t-87.5 53.5t-49 72t-16.5 80l172 34q0 -43 28 -71t77 -28zM316 167q49 0 86.5 38.5t37.5 91.5q0 36 -24 58.5t-63 22.5q-51 0 -87.5 -38.5t-36.5 -91.5q0 -37 23.5 -59t63.5 -22z" />
    <glyph glyph-name="Gbreve" unicode="&#x11e;" horiz-adv-x="874" 
d="M788 1052q-26 -85 -87 -139t-147 -54q-76 0 -128.5 46t-52.5 121q0 17 1 26h128q-2 -33 14.5 -54.5t48.5 -21.5q64 0 90 76h133zM877 559q-8 41 -30.5 80t-61 75.5t-102.5 58.5t-144 22q-125 0 -231 -58.5t-169.5 -164t-63.5 -234.5q0 -155 103 -253t268 -98
q102 0 185 37t135.5 99.5t81 140.5t31.5 164h-415l-37 -155h226q-25 -48 -74.5 -77t-113.5 -29q-90 0 -140.5 53t-50.5 133q0 101 73.5 181.5t170.5 80.5q72 0 114 -33.5t53 -80.5z" />
    <glyph glyph-name="gbreve" unicode="&#x11f;" horiz-adv-x="686" 
d="M660 812q-26 -85 -87 -138.5t-146 -53.5q-77 0 -129.5 46t-52.5 121q0 9 2 25h128q-3 -32 13.5 -54t49.5 -22q63 0 90 76h132zM228 -106q105 0 141 133l11 41q-26 -19 -43.5 -29.5t-47 -19.5t-60.5 -9q-80 0 -136.5 60.5t-56.5 145.5q0 132 85 229t202 97q108 0 164 -80
h1l20 72h188l-135 -509q-24 -83 -42 -117q-95 -175 -290 -175q-70 0 -125 20.5t-87.5 53.5t-49 72t-16.5 80l172 34q0 -43 28 -71t77 -28zM316 167q49 0 86.5 38.5t37.5 91.5q0 36 -24 58.5t-63 22.5q-51 0 -87.5 -38.5t-36.5 -91.5q0 -37 23.5 -59t63.5 -22z" />
    <glyph glyph-name="Gdotaccent" unicode="&#x120;" horiz-adv-x="874" 
d="M552 855q-43 0 -71 27.5t-28 70.5q0 51 35 86.5t86 35.5q43 0 71.5 -27.5t28.5 -70.5q0 -51 -35.5 -86.5t-86.5 -35.5zM685 501q-11 47 -53 80.5t-114 33.5q-97 0 -170.5 -80.5t-73.5 -181.5q0 -80 50.5 -133t140.5 -53q64 0 113.5 29t74.5 77h-226l37 155h415
q-3 -86 -31.5 -164t-81 -140.5t-135.5 -99.5t-185 -37q-165 0 -268 98t-103 253q0 129 63.5 234.5t169.5 164t231 58.5q80 0 144 -22t102.5 -58.5t61 -75.5t30.5 -80z" />
    <glyph glyph-name="gdotaccent" unicode="&#x121;" horiz-adv-x="686" 
d="M438 606q-43 0 -71 27.5t-28 70.5q0 50 35 86t85 36q44 0 72.5 -27.5t28.5 -70.5q0 -51 -35.5 -86.5t-86.5 -35.5zM228 -106q105 0 141 133l11 41q-26 -19 -43.5 -29.5t-47 -19.5t-60.5 -9q-80 0 -136.5 60.5t-56.5 145.5q0 132 85 229t202 97q108 0 164 -80h1l20 72h188
l-135 -509q-24 -83 -42 -117q-95 -175 -290 -175q-70 0 -125 20.5t-87.5 53.5t-49 72t-16.5 80l172 34q0 -43 28 -71t77 -28zM316 167q49 0 86.5 38.5t37.5 91.5q0 36 -24 58.5t-63 22.5q-51 0 -87.5 -38.5t-36.5 -91.5q0 -37 23.5 -59t63.5 -22z" />
    <glyph glyph-name="Gcommaaccent" unicode="&#x122;" horiz-adv-x="874" 
d="M685 501q-11 47 -53 80.5t-114 33.5q-97 0 -170.5 -80.5t-73.5 -181.5q0 -80 50.5 -133t140.5 -53q64 0 113.5 29t74.5 77h-226l37 155h415q-3 -86 -31.5 -164t-81 -140.5t-135.5 -99.5t-185 -37q-165 0 -268 98t-103 253q0 129 63.5 234.5t169.5 164t231 58.5
q80 0 144 -22t102.5 -58.5t61 -75.5t30.5 -80zM499 -142q0 -67 -44.5 -124.5t-111.5 -97.5l-45 47q75 44 112 104q-16 -8 -34 -8q-31 0 -49.5 19t-18.5 49q0 43 32 72.5t76 29.5q38 0 60.5 -26t22.5 -65z" />
    <glyph glyph-name="gcommaaccent" unicode="&#x123;" horiz-adv-x="686" 
d="M347 707q0 67 44.5 124.5t111.5 97.5l45 -47q-75 -44 -112 -104q16 8 33 8q32 0 50.5 -19t18.5 -49q0 -43 -32 -72.5t-76 -29.5q-38 0 -60.5 26t-22.5 65zM228 -106q105 0 141 133l11 41q-26 -19 -43.5 -29.5t-47 -19.5t-60.5 -9q-80 0 -136.5 60.5t-56.5 145.5
q0 132 85 229t202 97q108 0 164 -80h1l20 72h188l-135 -509q-24 -83 -42 -117q-95 -175 -290 -175q-70 0 -125 20.5t-87.5 53.5t-49 72t-16.5 80l172 34q0 -43 28 -71t77 -28zM316 167q49 0 86.5 38.5t37.5 91.5q0 36 -24 58.5t-63 22.5q-51 0 -87.5 -38.5t-36.5 -91.5
q0 -37 23.5 -59t63.5 -22z" />
    <glyph glyph-name="Hbar" unicode="&#x126;" horiz-adv-x="891" 
d="M872 572l-153 -572h-197l80 300h-290l-81 -300h-197l153 572h-87l34 131h88l21 80h197l-21 -80h291l21 80h197l-21 -80h88l-35 -131h-88zM384 572l-24 -90h291l24 90h-291z" />
    <glyph glyph-name="hbar" unicode="&#x127;" horiz-adv-x="651" 
d="M466 545q76 0 115 -44.5t39 -113.5q0 -36 -16 -98l-77 -289h-190l75 281q5 18 5 33q0 27 -15 42t-43 15q-75 0 -98 -87l-76 -284h-190l162 608h-73l34 127h73l21 80h189l-21 -80h154l-34 -127h-154l-35 -133h1q72 70 154 70z" />
    <glyph glyph-name="Itilde" unicode="&#x128;" horiz-adv-x="363" 
d="M429 854q-38 0 -80.5 27t-61.5 27q-31 0 -48 -53h-105l9 34q16 64 55.5 103t99.5 39q36 0 78.5 -26t61.5 -26q14 0 25 8.5t15 16.5t11 25h102l-9 -39q-16 -61 -56 -98.5t-97 -37.5zM421 783l-209 -783h-197l209 783h197z" />
    <glyph glyph-name="itilde" unicode="&#x129;" horiz-adv-x="320" 
d="M342 624q-39 0 -81 27t-62 27q-30 0 -47 -53h-106l9 35q17 64 56.5 103t98.5 39q36 0 79 -26.5t62 -26.5q14 0 25 8.5t15 16.5t11 25h101q-1 -3 -4 -17t-5 -21q-17 -61 -56.5 -99t-95.5 -38zM137 534h194l-143 -534h-193z" />
    <glyph glyph-name="Imacron" unicode="&#x12a;" horiz-adv-x="363" 
d="M558 1004l-37 -136h-356l36 136h357zM421 783l-209 -783h-197l209 783h197z" />
    <glyph glyph-name="imacron" unicode="&#x12b;" horiz-adv-x="318" 
d="M463 765l-36 -137h-343l37 137h342zM137 534h192l-142 -534h-192z" />
    <glyph glyph-name="Ibreve" unicode="&#x12c;" horiz-adv-x="363" 
d="M594 1052q-26 -85 -87 -139t-147 -54q-76 0 -128.5 46t-52.5 121q0 17 1 26h128q-2 -33 14.5 -54.5t49.5 -21.5q63 0 89 76h133zM224 783l-209 -783h197l209 783h-197z" />
    <glyph glyph-name="ibreve" unicode="&#x12d;" horiz-adv-x="320" 
d="M512 812q-26 -85 -87 -138.5t-147 -53.5q-76 0 -128.5 46t-52.5 121q0 17 1 25h128q-2 -32 15 -54t49 -22q63 0 90 76h132zM-5 0h193l143 534h-194z" />
    <glyph glyph-name="Iogonek" unicode="&#x12e;" horiz-adv-x="363" 
d="M212 0q-42 -21 -85.5 -55t-43.5 -64q0 -19 18.5 -29t39.5 -10q2 0 8 0.5t9 0.5l-28 -104q-24 -5 -59 -5q-54 0 -97 25t-43 75q0 86 130 166h-46l209 783h197z" />
    <glyph glyph-name="iogonek" unicode="&#x12f;" horiz-adv-x="318" 
d="M293 826q43 0 71.5 -27.5t28.5 -70.5q0 -51 -35.5 -86.5t-86.5 -35.5q-43 0 -71 27.5t-28 70.5q0 51 35 86.5t86 35.5zM186 0h1q-42 -20 -86 -54.5t-44 -64.5q0 -19 18.5 -29t39.5 -10q9 0 25 2l-28 -104q-32 -6 -68 -6q-53 0 -96 25.5t-43 74.5q0 87 130 166h-40
l142 534h192z" />
    <glyph glyph-name="Idotaccent" unicode="&#x130;" horiz-adv-x="363" 
d="M340 855q-43 0 -71 27.5t-28 70.5q0 51 35 86.5t86 35.5q43 0 71.5 -27.5t28.5 -70.5q0 -51 -35.5 -86.5t-86.5 -35.5zM421 783l-209 -783h-197l209 783h197z" />
    <glyph glyph-name="dotlessi" unicode="&#x131;" horiz-adv-x="318" 
d="M137 534h192l-143 -534h-191z" />
    <glyph glyph-name="IJ" unicode="&#x132;" horiz-adv-x="705" 
d="M280 293q-9 -38 -9 -55q0 -65 64 -65q34 0 58.5 22t33.5 57l141 531h201l-146 -544q-67 -250 -310 -250q-115 0 -181 61.5t-66 150.5q0 40 13 85zM108 395h200l104 388h-200z" />
    <glyph glyph-name="Kcommaaccent" unicode="&#x136;" horiz-adv-x="763" 
d="M214 0h-199l209 783h199l-89 -332h1l315 332h252l-391 -397l191 -386h-221l-168 374zM410 -142q0 -67 -44.5 -124.5t-111.5 -97.5l-45 47q75 44 112 104q-16 -8 -34 -8q-31 0 -49.5 19t-18.5 49q0 43 32 72.5t76 29.5q38 0 60.5 -26t22.5 -65z" />
    <glyph glyph-name="kcommaaccent" unicode="&#x137;" horiz-adv-x="638" 
d="M212 815h190l-133 -500h3l201 219h236l-257 -265l118 -269h-206l-109 263l-70 -263h-190zM315 -142q0 -67 -44.5 -124.5t-111.5 -97.5l-45 47q75 44 112 104q-16 -8 -34 -8q-31 0 -49.5 19t-18.5 49q0 43 32 72.5t76 29.5q38 0 60.5 -26t22.5 -65z" />
    <glyph glyph-name="Lacute" unicode="&#x139;" horiz-adv-x="618" 
d="M435 1048h212l-224 -196h-153zM224 783h198l-161 -603h326l-48 -180h-524z" />
    <glyph glyph-name="lacute" unicode="&#x13a;" horiz-adv-x="318" 
d="M416 1079h211l-223 -197h-154zM404 815l-217 -815h-192l217 815h192z" />
    <glyph glyph-name="Lcommaaccent" unicode="&#x13b;" horiz-adv-x="618" 
d="M224 783h198l-161 -603h326l-48 -180h-524zM337 -142q0 -67 -44.5 -124.5t-111.5 -97.5l-45 47q75 44 112 104q-16 -8 -34 -8q-31 0 -49.5 19t-18.5 49q0 43 32 72.5t76 29.5q38 0 60.5 -26t22.5 -65z" />
    <glyph glyph-name="lcommaaccent" unicode="&#x13c;" horiz-adv-x="318" 
d="M404 815l-217 -815h-192l217 815h192zM132 -142q0 -67 -44.5 -124.5t-111.5 -97.5l-45 47q75 44 112 104q-16 -8 -34 -8q-31 0 -49.5 19t-18.5 49q0 43 32 72.5t76 29.5q38 0 60.5 -26t22.5 -65z" />
    <glyph glyph-name="Lcaron" unicode="&#x13d;" horiz-adv-x="634" 
d="M556 805h197l-116 -234h-143zM224 783h198l-161 -603h326l-48 -180h-524z" />
    <glyph glyph-name="lcaron" unicode="&#x13e;" horiz-adv-x="338" 
d="M404 815l-217 -815h-192l217 815h192zM458 815h196l-116 -234h-143z" />
    <glyph glyph-name="Ldot" unicode="&#x13f;" horiz-adv-x="627" 
d="M224 783h198l-161 -603h326l-48 -180h-524zM526 297q-43 0 -71 27.5t-28 70.5q0 51 35 86.5t86 35.5q43 0 71 -27.5t28 -71.5q0 -50 -35 -85.5t-86 -35.5z" />
    <glyph glyph-name="ldot" unicode="&#x140;" horiz-adv-x="504" 
d="M404 815l-217 -815h-192l217 815h192zM415 204q-44 0 -71.5 27.5t-27.5 70.5q0 51 35 86.5t86 35.5q43 0 71 -27.5t28 -70.5q0 -51 -35.5 -86.5t-85.5 -35.5z" />
    <glyph glyph-name="Lslash" unicode="&#x141;" horiz-adv-x="669" 
d="M592 0h-527l72 267l-116 -47l47 175l116 46l91 342h197l-68 -253l230 92l-47 -175l-230 -92l-46 -175h329z" />
    <glyph glyph-name="lslash" unicode="&#x142;" horiz-adv-x="464" 
d="M347 320l-86 -320h-192l60 225l-115 -50l46 174l115 49l112 417h192l-86 -322l115 51l-46 -173z" />
    <glyph glyph-name="Nacute" unicode="&#x143;" horiz-adv-x="868" 
d="M679 1048h212l-224 -196h-153zM341 486l-130 -486h-196l209 783h221l156 -478l128 478h197l-209 -783h-216l-159 486h-1z" />
    <glyph glyph-name="nacute" unicode="&#x144;" horiz-adv-x="651" 
d="M506 819h212l-223 -196h-154zM412 281q4 15 4 33q0 57 -57 57q-75 0 -98 -87l-76 -284h-190l142 534h189l-15 -59h1q72 70 154 70q75 0 114 -44.5t39 -113.5q0 -40 -15 -98l-78 -289h-190z" />
    <glyph glyph-name="Ncommaaccent" unicode="&#x145;" horiz-adv-x="868" 
d="M341 486l-130 -486h-196l209 783h221l156 -478l128 478h197l-209 -783h-216l-159 486h-1zM430 -142q0 -67 -44.5 -124.5t-111.5 -97.5l-45 47q75 44 112 104q-16 -8 -34 -8q-31 0 -49.5 19t-18.5 49q0 43 32 72.5t76 29.5q38 0 60.5 -26t22.5 -65z" />
    <glyph glyph-name="ncommaaccent" unicode="&#x146;" horiz-adv-x="651" 
d="M412 281q4 15 4 33q0 57 -57 57q-75 0 -98 -87l-76 -284h-190l142 534h189l-15 -59h1q72 70 154 70q75 0 114 -44.5t39 -113.5q0 -40 -15 -98l-78 -289h-190zM301 -142q0 -67 -44.5 -124.5t-111.5 -97.5l-45 47q75 44 112 104q-16 -8 -34 -8q-31 0 -49.5 19t-18.5 49
q0 43 32 72.5t76 29.5q38 0 60.5 -26t22.5 -65z" />
    <glyph glyph-name="Ncaron" unicode="&#x147;" horiz-adv-x="868" 
d="M616 942l88 101h158l-176 -189h-172l-79 189h147zM729 783l-128 -478l-156 478h-221l-209 -783h196l130 486h1l159 -486h216l209 783h-197z" />
    <glyph glyph-name="ncaron" unicode="&#x148;" horiz-adv-x="651" 
d="M445 712l88 101h158l-176 -188h-171l-79 188h146zM604 289q15 58 15 98q0 69 -39 113.5t-114 44.5q-82 0 -154 -70h-1l15 59h-189l-142 -534h190l76 284q23 87 98 87q57 0 57 -57q0 -18 -4 -33l-76 -281h190z" />
    <glyph glyph-name="Eng" unicode="&#x14a;" horiz-adv-x="867" 
d="M342 488l-131 -488h-196l209 783h221l158 -469h1l125 469h197l-225 -837q-26 -96 -94.5 -153t-184.5 -57q-71 0 -106 22l40 147q23 -11 51 -11q47 0 70 20t34 64l4 15l-172 495h-1z" />
    <glyph glyph-name="eng" unicode="&#x14b;" horiz-adv-x="651" 
d="M412 281q4 15 4 33q0 57 -57 57q-75 0 -98 -87l-76 -284h-190l142 534h189l-15 -59h1q72 70 154 70q75 0 114 -44.5t39 -113.5q0 -40 -15 -98l-93 -343q-26 -95 -92.5 -152.5t-176.5 -57.5q-70 0 -105 22l39 147q22 -11 51 -11q81 0 103 84z" />
    <glyph glyph-name="Omacron" unicode="&#x14c;" horiz-adv-x="912" 
d="M785 1004l-36 -136h-386l36 136h386zM539 796q165 0 268.5 -99.5t103.5 -248.5q0 -126 -64 -232.5t-170.5 -167t-229.5 -60.5q-98 0 -181 39t-137 120.5t-54 190.5q0 126 63 232t169.5 166t231.5 60zM280 354q0 -85 52 -133t132 -48q99 0 170.5 78.5t71.5 180.5
q0 77 -50.5 128.5t-134.5 51.5q-98 0 -169.5 -78.5t-71.5 -179.5z" />
    <glyph glyph-name="omacron" unicode="&#x14d;" horiz-adv-x="654" 
d="M637 765l-36 -137h-386l36 137h386zM302 -12q136 0 228.5 93t92.5 217q0 108 -71.5 178t-195.5 70q-136 0 -228 -93t-92 -217q0 -109 71 -178.5t195 -69.5zM312 157q-44 0 -67 25t-23 63q0 53 35.5 92.5t88.5 39.5q40 0 65.5 -24.5t25.5 -63.5q0 -54 -37 -93t-88 -39z
" />
    <glyph glyph-name="Ohungarumlaut" unicode="&#x150;" horiz-adv-x="912" 
d="M507 1048h212l-223 -196h-154zM764 1048h212l-224 -196h-153zM539 796q165 0 268.5 -99.5t103.5 -248.5q0 -126 -64 -232.5t-170.5 -167t-229.5 -60.5q-98 0 -181 39t-137 120.5t-54 190.5q0 126 63 232t169.5 166t231.5 60zM280 354q0 -85 52 -133t132 -48
q99 0 170.5 78.5t71.5 180.5q0 77 -50.5 128.5t-134.5 51.5q-98 0 -169.5 -78.5t-71.5 -179.5z" />
    <glyph glyph-name="ohungarumlaut" unicode="&#x151;" horiz-adv-x="654" 
d="M335 819h212l-224 -196h-153zM592 819h212l-224 -196h-153zM302 -12q-123 0 -194 69.5t-71 178.5q0 124 92 217t227 93q124 0 195.5 -70t71.5 -178q0 -124 -92.5 -217t-228.5 -93zM312 157q52 0 88.5 39t36.5 93q0 39 -25.5 63.5t-64.5 24.5q-54 0 -89.5 -39.5
t-35.5 -92.5q0 -38 23.5 -63t66.5 -25z" />
    <glyph glyph-name="OE" unicode="&#x152;" horiz-adv-x="1270" 
d="M611 45q-85 -57 -179 -57q-93 0 -173 39t-132 120.5t-52 190.5q0 126 63 232t169.5 166t231.5 60q88 0 149.5 -32t91.5 -85l28 104h546l-47 -175h-350l-35 -128h319l-45 -169h-318l-37 -135h353l-47 -176h-548zM280 354q0 -85 52 -133t132 -48q99 0 171 79.5t72 181.5
q0 77 -50 127.5t-136 50.5q-98 0 -169.5 -78.5t-71.5 -179.5z" />
    <glyph glyph-name="oe" unicode="&#x153;" horiz-adv-x="1026" 
d="M999 327q0 -49 -22 -108h-367q0 -38 30.5 -60.5t65.5 -22.5q77 0 107 54l147 -67q-39 -73 -111.5 -104t-147.5 -31q-125 0 -195 79q-81 -79 -203 -79t-194 70t-72 178q0 125 90.5 217.5t227.5 92.5q130 0 193 -81q87 81 208 81q100 0 171.5 -59.5t71.5 -159.5zM821 325
q2 7 2 16q0 29 -21 44.5t-54 15.5q-35 0 -70 -21t-49 -55h192zM312 157q52 0 88.5 37t36.5 93q0 40 -25.5 65t-63.5 25q-54 0 -90 -37.5t-36 -91.5q0 -36 23.5 -63.5t66.5 -27.5z" />
    <glyph glyph-name="Racute" unicode="&#x154;" horiz-adv-x="747" 
d="M394 852l165 196h212l-224 -196h-153zM774 559q0 -91 -52.5 -159.5t-162.5 -99.5l88 -300h-199l-80 275h-81l-74 -275h-198l209 783h243q172 0 249 -74q58 -55 58 -150zM426 443q62 0 103.5 25.5t41.5 72.5q0 27 -17 46q-24 26 -88 26h-90l-45 -170h95z" />
    <glyph glyph-name="racute" unicode="&#x155;" horiz-adv-x="461" 
d="M426 819h212l-224 -196h-153zM464 347q-29 10 -60 10q-124 0 -156 -123l-63 -234h-190l142 534h189l-18 -67h1q65 73 156 73q29 0 48 -9z" />
    <glyph glyph-name="Rcommaaccent" unicode="&#x156;" horiz-adv-x="747" 
d="M774 559q0 -91 -52.5 -159.5t-162.5 -99.5l88 -300h-199l-80 275h-81l-74 -275h-198l209 783h243q172 0 249 -74q58 -55 58 -150zM426 443q62 0 103.5 25.5t41.5 72.5q0 27 -17 46q-24 26 -88 26h-90l-45 -170h95zM390 -142q0 -67 -44.5 -124.5t-111.5 -97.5l-45 47
q75 44 112 104q-16 -8 -34 -8q-31 0 -49.5 19t-18.5 49q0 43 32 72.5t76 29.5q38 0 60.5 -26t22.5 -65z" />
    <glyph glyph-name="rcommaaccent" unicode="&#x157;" horiz-adv-x="461" 
d="M464 347q-29 10 -60 10q-124 0 -156 -123l-63 -234h-190l142 534h189l-18 -67h1q65 73 156 73q29 0 48 -9zM153 -142q0 -67 -44.5 -124.5t-111.5 -97.5l-45 47q75 44 112 104q-16 -8 -34 -8q-31 0 -49.5 19t-18.5 49q0 43 32 72.5t76 29.5q38 0 60.5 -26t22.5 -65z" />
    <glyph glyph-name="Rcaron" unicode="&#x158;" horiz-adv-x="747" 
d="M406 854l-79 189h146l34 -101l88 101h158l-176 -189h-171zM774 559q0 -91 -52.5 -159.5t-162.5 -99.5l88 -300h-199l-80 275h-81l-74 -275h-198l209 783h243q172 0 249 -74q58 -55 58 -150zM426 443q62 0 103.5 25.5t41.5 72.5q0 27 -17 46q-24 26 -88 26h-90l-45 -170
h95z" />
    <glyph glyph-name="rcaron" unicode="&#x159;" horiz-adv-x="461" 
d="M357 712l88 101h159l-177 -188h-171l-79 188h146zM513 531q-20 9 -48 9q-91 0 -156 -73h-1l18 67h-189l-142 -534h190l63 234q32 123 156 123q31 0 60 -10z" />
    <glyph glyph-name="Sacute" unicode="&#x15a;" horiz-adv-x="705" 
d="M541 1048h211l-223 -196h-154zM459 229q0 50 -70 71l-66 20q-88 26 -141 84.5t-53 128.5q0 84 46 145t114.5 89.5t147.5 28.5q76 0 134.5 -22t91 -58t48 -75.5t15.5 -79.5l-184 -31q0 39 -26.5 71t-83.5 32q-51 0 -76 -25t-25 -51q0 -49 65 -69l67 -21
q99 -30 149.5 -92.5t50.5 -126.5q0 -124 -85 -191.5t-229 -67.5q-57 0 -111.5 15t-100 44t-73 77.5t-27.5 109.5q0 15 1 23l175 31q-1 -6 -1 -19q0 -54 38 -85.5t93 -31.5q58 0 87 24t29 52z" />
    <glyph glyph-name="sacute" unicode="&#x15b;" horiz-adv-x="537" 
d="M398 819h212l-224 -196h-153zM303 546q-98 0 -163.5 -52.5t-65.5 -129.5q0 -61 38 -96t104 -57l37 -13q40 -13 40 -38q0 -14 -14 -26t-43 -12q-31 0 -54 18t-22 47l-154 -25v-9q0 -25 11 -51t35.5 -53t72.5 -44t112 -17q112 0 176.5 53.5t64.5 125.5q0 69 -39 106
t-103 58l-52 17q-31 10 -31 30q0 12 12 24t36 12q21 0 38.5 -13t17.5 -39l160 18v3q0 59 -56 111t-158 52z" />
    <glyph glyph-name="Scircumflex" unicode="&#x15c;" horiz-adv-x="705" 
d="M479 955l-87 -101h-159l177 189h171l79 -189h-146zM459 229q0 -28 -29 -52t-87 -24q-55 0 -93 31.5t-38 85.5q0 13 1 19l-175 -31q-1 -8 -1 -23q0 -61 27.5 -109.5t73 -77.5t100 -44t111.5 -15q144 0 229 67.5t85 191.5q0 64 -50.5 126.5t-149.5 92.5l-67 21
q-65 20 -65 69q0 26 25 51t76 25q57 0 83.5 -32t26.5 -71l184 31q0 40 -15.5 79.5t-48 75.5t-91 58t-134.5 22q-79 0 -147.5 -28.5t-114.5 -89.5t-46 -145q0 -70 53 -128.5t141 -84.5l66 -20q70 -21 70 -71z" />
    <glyph glyph-name="scircumflex" unicode="&#x15d;" horiz-adv-x="537" 
d="M344 726l-88 -102h-158l176 189h172l79 -189h-147zM303 546q102 0 158 -52t56 -111v-3l-160 -18q0 26 -17.5 39t-38.5 13q-24 0 -36 -12t-12 -24q0 -20 31 -30l52 -17q64 -21 103 -58t39 -106q0 -72 -64.5 -125.5t-176.5 -53.5q-64 0 -112 17t-72.5 44t-35.5 53t-11 51v9
l154 25q-1 -29 22 -47t54 -18q29 0 43 12t14 26q0 25 -40 38l-37 13q-66 22 -104 57t-38 96q0 77 65.5 129.5t163.5 52.5z" />
    <glyph glyph-name="Scedilla" unicode="&#x15e;" horiz-adv-x="706" 
d="M464 467q99 -30 149.5 -92.5t50.5 -126.5q0 -112 -71 -178.5t-194 -78.5q9 -24 9 -61q0 -94 -60.5 -145t-164.5 -51q-51 0 -82 12l28 106q5 0 20.5 -2t24.5 -2q57 0 86 45.5t17 101.5q-103 17 -171.5 78.5t-68.5 161.5q0 4 0.5 11.5t0.5 11.5l176 31q-2 -12 -2 -19
q0 -54 38.5 -85.5t93.5 -31.5q58 0 87 24t29 52q0 50 -71 71l-65 20q-88 27 -141 85t-53 128q0 84 46 145t114.5 89.5t147.5 28.5q76 0 134 -22t90.5 -58t48 -75.5t15.5 -79.5l-184 -31q0 39 -26 71t-84 32q-50 0 -75 -25t-25 -51q0 -50 64 -69z" />
    <glyph glyph-name="scedilla" unicode="&#x15f;" horiz-adv-x="537" 
d="M301 414q-24 0 -36 -12t-12 -24q0 -20 31 -30l52 -17q64 -21 103 -58t39 -106q0 -62 -49.5 -112t-137.5 -63q9 -24 9 -62q0 -98 -62 -147t-163 -49q-50 0 -82 12l28 106q28 -4 45 -4q49 0 77.5 34t28.5 83q0 14 -3 29q-85 15 -124 63t-39 96v9l154 25q-1 -29 22 -47
t54 -18q29 0 43 12t14 26q0 25 -40 38l-37 13q-66 22 -104 57t-38 96q0 77 65.5 129.5t163.5 52.5q102 0 158.5 -52.5t56.5 -110.5v-3l-161 -18q0 26 -17.5 39t-38.5 13z" />
    <glyph glyph-name="Scaron" unicode="&#x160;" horiz-adv-x="705" 
d="M471 946l88 101h158l-176 -189h-171l-79 189h146zM459 229q0 -28 -29 -52t-87 -24q-55 0 -93 31.5t-38 85.5q0 13 1 19l-175 -31q-1 -8 -1 -23q0 -61 27.5 -109.5t73 -77.5t100 -44t111.5 -15q144 0 229 67.5t85 191.5q0 64 -50.5 126.5t-149.5 92.5l-67 21
q-65 20 -65 69q0 26 25 51t76 25q57 0 83.5 -32t26.5 -71l184 31q0 40 -15.5 79.5t-48 75.5t-91 58t-134.5 22q-79 0 -147.5 -28.5t-114.5 -89.5t-46 -145q0 -70 53 -128.5t141 -84.5l66 -20q70 -21 70 -71z" />
    <glyph glyph-name="scaron" unicode="&#x161;" horiz-adv-x="537" 
d="M334 712l88 101h158l-176 -188h-172l-79 188h147zM303 546q102 0 158 -52t56 -111v-3l-160 -18q0 26 -17.5 39t-38.5 13q-24 0 -36 -12t-12 -24q0 -20 31 -30l52 -17q64 -21 103 -58t39 -106q0 -72 -64.5 -125.5t-176.5 -53.5q-64 0 -112 17t-72.5 44t-35.5 53t-11 51v9
l154 25q-1 -29 22 -47t54 -18q29 0 43 12t14 26q0 25 -40 38l-37 13q-66 22 -104 57t-38 96q0 77 65.5 129.5t163.5 52.5z" />
    <glyph glyph-name="uni0162" unicode="&#x162;" horiz-adv-x="674" 
d="M750 604h-221l-161 -604h-7q14 -24 14 -70q0 -94 -61 -145t-165 -51q-51 0 -82 12l28 106q5 0 21 -2t25 -2q58 0 86.5 48t14.5 104h-73l162 604h-221l48 179h638z" />
    <glyph glyph-name="uni0163" unicode="&#x163;" horiz-adv-x="470" 
d="M293 215q-3 -11 -3 -21q0 -44 58 -44q22 0 49 5l-39 -150q-35 -11 -85 -13q10 -26 10 -62q0 -94 -61 -145t-165 -51q-50 0 -81 12l28 106q20 -4 45 -4q59 0 87 47.5t14 105.5q-3 15 -6 23q-53 42 -53 118q0 31 10 66l45 168h-101l42 158h105l47 173h185l-46 -173h123
l-42 -158h-123z" />
    <glyph glyph-name="Tcaron" unicode="&#x164;" horiz-adv-x="674" 
d="M518 942l88 101h158l-176 -189h-171l-80 189h147zM158 783l-48 -179h221l-162 -604h199l161 604h221l46 179h-638z" />
    <glyph glyph-name="tcaron" unicode="&#x165;" horiz-adv-x="470" 
d="M521 820h196l-116 -234h-143zM358 5q-42 -14 -103 -14q-73 0 -118.5 39.5t-45.5 111.5q0 31 10 66l45 168h-101l42 158h105l47 173h185l-46 -173h123l-42 -158h-123l-43 -161q-3 -11 -3 -21q0 -44 58 -44q22 0 49 5z" />
    <glyph glyph-name="Tbar" unicode="&#x166;" horiz-adv-x="690" 
d="M536 604l-56 -208h117l-35 -134h-118l-69 -262h-198l70 262h-117l36 134h117l55 208h-221l48 179h640l-48 -179h-221z" />
    <glyph glyph-name="tbar" unicode="&#x167;" horiz-adv-x="473" 
d="M132 316l16 60h-100l42 158h105l47 173h185l-46 -173h123l-42 -158h-123l-16 -60h90l-28 -104h-90q-3 -9 -3 -18q0 -44 59 -44q22 0 49 5l-39 -150q-42 -14 -103 -14q-73 0 -118.5 39.5t-45.5 111.5q0 22 10 66v4h-89l27 104h90z" />
    <glyph glyph-name="Utilde" unicode="&#x168;" horiz-adv-x="800" 
d="M610 854q-39 0 -81.5 27t-61.5 27q-33 0 -47 -53h-106l9 34q17 64 56.5 103t98.5 39q36 0 78.5 -26t61.5 -26q15 0 26 8.5t15 16.5t11 25h101l-9 -39q-15 -61 -55 -98.5t-97 -37.5zM698 289q-41 -152 -128 -226t-240 -74q-73 0 -129 19.5t-89 53t-50 79t-16.5 97.5
t15.5 109l116 436h200l-120 -450q-20 -74 6 -117.5t93 -43.5q111 0 150 146l124 465h200z" />
    <glyph glyph-name="utilde" unicode="&#x169;" horiz-adv-x="652" 
d="M502 624q-38 0 -80.5 27t-62.5 27q-30 0 -47 -53h-105l8 35q17 64 56.5 103t99.5 39q36 0 78.5 -26.5t61.5 -26.5q14 0 25 8.5t15 16.5t11 25h102q-8 -32 -10 -38q-17 -62 -56 -99.5t-96 -37.5zM344 59q-74 -70 -154 -70q-74 0 -113.5 45t-39.5 113q0 42 16 98l77 289
h190l-75 -282q-5 -17 -5 -32q0 -27 15 -42t42 -15q75 0 99 87l76 284h190l-143 -534h-189l16 59h-2z" />
    <glyph glyph-name="Umacron" unicode="&#x16a;" horiz-adv-x="800" 
d="M754 1004l-37 -136h-385l36 136h386zM697 289q-41 -153 -128 -226.5t-240 -73.5q-73 0 -128.5 19.5t-88.5 53t-50 79t-16.5 97.5t15.5 109l116 436h200l-120 -450q-20 -74 5.5 -117.5t93.5 -43.5q109 0 150 146l124 465h200z" />
    <glyph glyph-name="umacron" unicode="&#x16b;" horiz-adv-x="652" 
d="M646 765l-37 -137h-385l36 137h386zM344 59q-74 -70 -154 -70q-74 0 -113.5 45t-39.5 113q0 42 16 98l77 289h190l-75 -282q-5 -17 -5 -32q0 -27 15 -42t42 -15q75 0 99 87l76 284h190l-143 -534h-189l16 59h-2z" />
    <glyph glyph-name="Uring" unicode="&#x16e;" horiz-adv-x="800" 
d="M514 847q-60 0 -98.5 37.5t-38.5 97.5q0 69 47.5 117.5t116.5 48.5q60 0 99 -38t39 -97q0 -70 -48 -118t-117 -48zM535 1055q-27 0 -46 -19t-19 -46q0 -22 14 -36t37 -14q27 0 46 19t19 46q0 22 -14 36t-37 14zM697 289q-41 -152 -128 -226t-240 -74q-73 0 -128.5 19.5
t-88.5 53t-50 79t-16.5 97.5t15.5 109l116 436h200l-120 -450q-20 -74 5.5 -117.5t93.5 -43.5q109 0 150 146l124 465h200z" />
    <glyph glyph-name="uring" unicode="&#x16f;" horiz-adv-x="652" 
d="M432 607q-60 0 -98.5 38t-38.5 98q0 69 47.5 117.5t116.5 48.5q60 0 99.5 -38t39.5 -98q0 -69 -48.5 -117.5t-117.5 -48.5zM453 816q-27 0 -45.5 -19t-18.5 -47q0 -22 14 -35.5t36 -13.5q27 0 46 18.5t19 46.5q0 22 -14.5 36t-36.5 14zM344 59q-74 -70 -154 -70
q-74 0 -113.5 45t-39.5 113q0 42 16 98l77 289h190l-75 -282q-5 -17 -5 -32q0 -27 15 -42t42 -15q75 0 99 87l76 284h190l-143 -534h-189l16 59h-2z" />
    <glyph glyph-name="Uhungarumlaut" unicode="&#x170;" horiz-adv-x="800" 
d="M470 1048h212l-224 -196h-153zM727 1048h212l-224 -196h-153zM697 289q-41 -152 -128 -226t-240 -74q-73 0 -128.5 19.5t-88.5 53t-50 79t-16.5 97.5t15.5 109l116 436h200l-120 -450q-20 -74 5.5 -117.5t93.5 -43.5q109 0 150 146l124 465h200z" />
    <glyph glyph-name="uhungarumlaut" unicode="&#x171;" horiz-adv-x="652" 
d="M376 819h212l-224 -196h-153zM633 819h212l-224 -196h-153zM344 59q-74 -70 -154 -70q-74 0 -113.5 45t-39.5 113q0 42 16 98l77 289h190l-75 -282q-5 -17 -5 -32q0 -27 15 -42t42 -15q75 0 99 87l76 284h190l-143 -534h-189l16 59h-2z" />
    <glyph glyph-name="Uogonek" unicode="&#x172;" horiz-adv-x="800" 
d="M702 289q-34 -127 -99.5 -199t-173.5 -93q-43 -21 -83.5 -54t-40.5 -62q0 -19 18.5 -29t40.5 -10q2 0 8 0.5t8 0.5l-28 -104q-24 -5 -59 -5q-53 0 -96 25.5t-43 74.5q0 82 118 159q-73 9 -123.5 42t-72.5 81t-26.5 108t15.5 123l116 436h200l-120 -450
q-20 -74 5.5 -117.5t93.5 -43.5q111 0 150 146l124 465h200z" />
    <glyph glyph-name="uogonek" unicode="&#x173;" horiz-adv-x="652" 
d="M390 -119q0 -19 18 -29t39 -10q3 0 9 0.5t8 0.5l-27 -104q-24 -5 -59 -5q-54 0 -97.5 25t-43.5 75q0 85 131 166h-38l16 59h-2q-74 -70 -154 -70q-74 0 -113.5 45t-39.5 113q0 42 16 98l77 289h190l-75 -282q-5 -17 -5 -32q0 -27 15 -42t42 -15q75 0 99 87l76 284h190
l-143 -534q-43 -21 -86 -55t-43 -64z" />
    <glyph glyph-name="Wcircumflex" unicode="&#x174;" horiz-adv-x="1201" 
d="M758 955l-88 -101h-158l176 189h172l79 -189h-147zM385 0h-200l-45 783h201l15 -495h3l268 495h190l38 -496h2l252 496h210l-417 -783h-203l-32 522z" />
    <glyph glyph-name="wcircumflex" unicode="&#x175;" horiz-adv-x="909" 
d="M580 726l-88 -102h-158l176 189h172l79 -189h-147zM84 534h187l6 -287h1l170 287h155l19 -289h1l165 289h184l-312 -534h-181l-16 286h-1l-170 -286h-180z" />
    <glyph glyph-name="Ycircumflex" unicode="&#x176;" horiz-adv-x="761" 
d="M557 955l-88 -101h-158l176 189h171l79 -189h-146zM209 0l82 310l-143 473h210l78 -287l231 287h233l-416 -495l-77 -288h-198z" />
    <glyph glyph-name="ycircumflex" unicode="&#x177;" horiz-adv-x="625" 
d="M437 726l-88 -102h-159l177 189h171l79 -189h-146zM152 -1l-70 535h187l33 -317h1l188 317h201l-506 -797h-199z" />
    <glyph glyph-name="Ydieresis" unicode="&#x178;" horiz-adv-x="761" 
d="M387 865q-40 0 -65 24.5t-25 64.5q0 46 31.5 78t77.5 32q39 0 65 -24.5t26 -63.5q0 -46 -32 -78.5t-78 -32.5zM656 865q-39 0 -64.5 25t-25.5 64q0 46 32 78t78 32q39 0 64.5 -24.5t25.5 -63.5q0 -46 -32 -78.5t-78 -32.5zM209 0l82 310l-143 473h210l78 -287l231 287
h233l-416 -495l-77 -288h-198z" />
    <glyph glyph-name="Zacute" unicode="&#x179;" horiz-adv-x="696" 
d="M583 1048h212l-224 -196h-153zM-28 0l44 167l465 442h-331l48 174h591l-44 -165l-467 -442h350l-47 -176h-609z" />
    <glyph glyph-name="zacute" unicode="&#x17a;" horiz-adv-x="556" 
d="M452 819h212l-224 -196h-153zM295 377h-212l41 157h460l-37 -141l-295 -237h234l-41 -156h-473l42 151z" />
    <glyph glyph-name="Zdotaccent" unicode="&#x17b;" horiz-adv-x="696" 
d="M506 855q-43 0 -71 27.5t-28 70.5q0 50 35 86t85 36q44 0 72 -27.5t28 -70.5q0 -51 -35 -86.5t-86 -35.5zM-28 0l44 167l465 442h-331l48 174h591l-44 -165l-467 -442h350l-47 -176h-609z" />
    <glyph glyph-name="zdotaccent" unicode="&#x17c;" horiz-adv-x="556" 
d="M381 606q-43 0 -71 27.5t-28 70.5q0 50 35 86t85 36q44 0 72 -27.5t28 -70.5q0 -51 -35 -86.5t-86 -35.5zM295 377h-212l41 157h460l-37 -141l-295 -237h234l-41 -156h-473l42 151z" />
    <glyph glyph-name="Zcaron" unicode="&#x17d;" horiz-adv-x="696" 
d="M537 941l88 101h158l-177 -189h-171l-79 189h146zM789 783h-591l-48 -174h331l-465 -442l-44 -167h609l47 176h-350l467 442z" />
    <glyph glyph-name="zcaron" unicode="&#x17e;" horiz-adv-x="556" 
d="M392 712l87 101h159l-177 -188h-171l-79 188h146zM252 156l295 237l37 141h-460l-41 -157h212l-281 -226l-42 -151h473l41 156h-234z" />
    <glyph glyph-name="florin" unicode="&#x192;" horiz-adv-x="634" 
d="M370 183q-89 -195 -289 -195q-55 0 -102 14l42 153q30 -13 66 -13q72 0 102 69l78 168h-95l40 155h125l26 57q89 195 288 195q56 0 101 -16l-41 -152q-38 13 -71 13t-58.5 -19.5t-39.5 -49.5l-13 -28h117l-39 -155h-148z" />
    <glyph glyph-name="uni01B5" unicode="&#x1b5;" horiz-adv-x="697" 
d="M582 0h-609l42 164l187 176h-131l29 109h214l168 160h-331l48 174h591l-43 -161l-184 -173h139l-30 -109h-220l-173 -164h350z" />
    <glyph glyph-name="uni01B6" unicode="&#x1b6;" horiz-adv-x="556" 
d="M198 299l99 84h-213l40 151h460l-33 -129l-127 -106h101l-17 -65h-159l-99 -84h234l-39 -150h-473l40 142l110 92h-84l17 65h143z" />
    <glyph glyph-name="uni01CD" unicode="&#x1cd;" horiz-adv-x="818" 
d="M580 946l87 101h159l-177 -189h-171l-79 189h146zM426 783l-494 -783h213l90 144h312l21 -144h204l-121 783h-225zM489 567l36 -256h-190z" />
    <glyph glyph-name="uni01CE" unicode="&#x1ce;" horiz-adv-x="689" 
d="M451 712l88 101h158l-176 -188h-171l-79 188h146zM382 58q-71 -69 -154 -69q-90 0 -142 64t-52 154q0 137 86.5 237t207.5 100q105 0 161 -78h1l19 68h190l-142 -534h-188l15 58h-2zM318 157q51 0 90 40t39 95q0 38 -25.5 61.5t-64.5 23.5q-53 0 -91.5 -40.5t-38.5 -95.5
q0 -38 24.5 -61t66.5 -23z" />
    <glyph glyph-name="uni01CF" unicode="&#x1cf;" horiz-adv-x="363" 
d="M356 942l88 101h158l-176 -189h-172l-79 189h147zM224 783l-209 -783h197l209 783h-197z" />
    <glyph glyph-name="uni01D0" unicode="&#x1d0;" horiz-adv-x="320" 
d="M245 712l88 101h158l-177 -188h-171l-79 188h146zM-5 0h193l143 534h-194z" />
    <glyph glyph-name="uni01D1" unicode="&#x1d1;" horiz-adv-x="912" 
d="M573 942l88 101h158l-176 -189h-171l-79 189h146zM539 796q165 0 268.5 -99.5t103.5 -248.5q0 -126 -64 -232.5t-170.5 -167t-229.5 -60.5q-98 0 -181 39t-137 120.5t-54 190.5q0 126 63 232t169.5 166t231.5 60zM280 354q0 -85 52 -133t132 -48q99 0 170.5 78.5
t71.5 180.5q0 77 -50.5 128.5t-134.5 51.5q-98 0 -169.5 -78.5t-71.5 -179.5z" />
    <glyph glyph-name="uni01D2" unicode="&#x1d2;" horiz-adv-x="654" 
d="M400 712l88 101h158l-176 -188h-172l-79 188h147zM302 -12q-123 0 -194 69.5t-71 178.5q0 124 92 217t227 93q124 0 195.5 -70t71.5 -178q0 -124 -92.5 -217t-228.5 -93zM312 157q52 0 88.5 39t36.5 93q0 39 -25.5 63.5t-64.5 24.5q-54 0 -89.5 -39.5t-35.5 -92.5
q0 -38 23.5 -63t66.5 -25z" />
    <glyph glyph-name="uni01D3" unicode="&#x1d3;" horiz-adv-x="800" 
d="M540 942l88 101h158l-176 -189h-171l-79 189h146zM698 289q-41 -152 -128 -226t-240 -74q-73 0 -129 19.5t-89 53t-50 79t-16.5 97.5t15.5 109l116 436h200l-120 -450q-20 -74 6 -117.5t93 -43.5q111 0 150 146l124 465h200z" />
    <glyph glyph-name="uni01D4" unicode="&#x1d4;" horiz-adv-x="652" 
d="M439 712l88 101h158l-176 -188h-172l-79 188h147zM344 59q-74 -70 -154 -70q-74 0 -113.5 45t-39.5 113q0 42 16 98l77 289h190l-75 -282q-5 -17 -5 -32q0 -27 15 -42t42 -15q75 0 99 87l76 284h190l-143 -534h-189l16 59h-2z" />
    <glyph glyph-name="uni01D5" unicode="&#x1d5;" horiz-adv-x="800" 
d="M807 1193l-36 -136h-386l37 136h385zM396 821q-39 0 -64 24.5t-25 63.5q0 46 31.5 78.5t77.5 32.5q39 0 64.5 -25t25.5 -64q0 -47 -32 -78.5t-78 -31.5zM666 821q-39 0 -64 24.5t-25 63.5q0 46 31.5 78.5t77.5 32.5q39 0 64.5 -25t25.5 -64q0 -47 -32 -78.5t-78 -31.5z
M697 289q-41 -152 -128 -226t-240 -74q-73 0 -128.5 19.5t-88.5 53t-50 79t-16.5 97.5t15.5 109l116 436h200l-120 -450q-20 -74 5.5 -117.5t93.5 -43.5q109 0 150 146l124 465h200z" />
    <glyph glyph-name="uni01D6" unicode="&#x1d6;" horiz-adv-x="652" 
d="M706 964l-36 -136h-386l36 136h386zM292 582q-39 0 -64.5 24.5t-25.5 63.5q0 46 32 78.5t78 32.5q39 0 64.5 -25t25.5 -64q0 -46 -32 -78t-78 -32zM552 582q-39 0 -64.5 24.5t-25.5 63.5q0 46 31.5 78.5t77.5 32.5q40 0 65.5 -24.5t25.5 -64.5q0 -46 -32 -78t-78 -32z
M344 59q-74 -70 -154 -70q-74 0 -113.5 45t-39.5 113q0 42 16 98l77 289h190l-75 -282q-5 -17 -5 -32q0 -27 15 -42t42 -15q75 0 99 87l76 284h190l-143 -534h-189l16 59h-2z" />
    <glyph glyph-name="uni01D7" unicode="&#x1d7;" horiz-adv-x="800" 
d="M628 1219h208l-208 -182h-153zM396 821q-39 0 -64 24.5t-25 63.5q0 46 31.5 78.5t77.5 32.5q39 0 64.5 -25t25.5 -64q0 -47 -32 -78.5t-78 -31.5zM666 821q-39 0 -64 24.5t-25 63.5q0 46 31.5 78.5t77.5 32.5q39 0 64.5 -25t25.5 -64q0 -47 -32 -78.5t-78 -31.5zM697 289
q-41 -152 -128 -226t-240 -74q-73 0 -128.5 19.5t-88.5 53t-50 79t-16.5 97.5t15.5 109l116 436h200l-120 -450q-20 -74 5.5 -117.5t93.5 -43.5q109 0 150 146l124 465h200z" />
    <glyph glyph-name="uni01D8" unicode="&#x1d8;" horiz-adv-x="652" 
d="M537 1005h212l-224 -196h-153zM292 582q-39 0 -64.5 24.5t-25.5 63.5q0 46 32 78.5t78 32.5q39 0 64.5 -25t25.5 -64q0 -46 -32 -78t-78 -32zM552 582q-39 0 -64.5 24.5t-25.5 63.5q0 46 31.5 78.5t77.5 32.5q40 0 65.5 -24.5t25.5 -64.5q0 -46 -32 -78t-78 -32zM344 59
q-74 -70 -154 -70q-74 0 -113.5 45t-39.5 113q0 42 16 98l77 289h190l-75 -282q-5 -17 -5 -32q0 -27 15 -42t42 -15q75 0 99 87l76 284h190l-143 -534h-189l16 59h-2z" />
    <glyph glyph-name="uni01D9" unicode="&#x1d9;" horiz-adv-x="800" 
d="M586 1135l75 84h151l-160 -162h-164l-77 162h140zM396 821q-39 0 -64 24.5t-25 63.5q0 46 31.5 78.5t77.5 32.5q39 0 64.5 -25t25.5 -64q0 -47 -32 -78.5t-78 -31.5zM666 821q-39 0 -64 24.5t-25 63.5q0 46 31.5 78.5t77.5 32.5q39 0 64.5 -25t25.5 -64q0 -47 -32 -78.5
t-78 -31.5zM697 289q-41 -152 -128 -226t-240 -74q-73 0 -128.5 19.5t-88.5 53t-50 79t-16.5 97.5t15.5 109l116 436h200l-120 -450q-20 -74 5.5 -117.5t93.5 -43.5q109 0 150 146l124 465h200z" />
    <glyph glyph-name="uni01DA" unicode="&#x1da;" horiz-adv-x="652" 
d="M480 897l87 101h159l-177 -189h-171l-79 189h146zM292 582q-39 0 -64.5 24.5t-25.5 63.5q0 46 32 78.5t78 32.5q39 0 64.5 -25t25.5 -64q0 -46 -32 -78t-78 -32zM552 582q-39 0 -64.5 24.5t-25.5 63.5q0 46 31.5 78.5t77.5 32.5q40 0 65.5 -24.5t25.5 -64.5
q0 -46 -32 -78t-78 -32zM344 59q-74 -70 -154 -70q-74 0 -113.5 45t-39.5 113q0 42 16 98l77 289h190l-75 -282q-5 -17 -5 -32q0 -27 15 -42t42 -15q75 0 99 87l76 284h190l-143 -534h-189l16 59h-2z" />
    <glyph glyph-name="uni01DB" unicode="&#x1db;" horiz-adv-x="800" 
d="M626 1037h-134l-139 183h193zM396 821q-39 0 -64 24.5t-25 63.5q0 46 31.5 78.5t77.5 32.5q39 0 64.5 -25t25.5 -64q0 -47 -32 -78.5t-78 -31.5zM666 821q-39 0 -64 24.5t-25 63.5q0 46 31.5 78.5t77.5 32.5q39 0 64.5 -25t25.5 -64q0 -47 -32 -78.5t-78 -31.5zM697 289
q-41 -152 -128 -226t-240 -74q-73 0 -128.5 19.5t-88.5 53t-50 79t-16.5 97.5t15.5 109l116 436h200l-120 -450q-20 -74 5.5 -117.5t93.5 -43.5q109 0 150 146l124 465h200z" />
    <glyph glyph-name="uni01DC" unicode="&#x1dc;" horiz-adv-x="652" 
d="M525 809h-134l-149 196h197zM292 582q-39 0 -64.5 24.5t-25.5 63.5q0 46 32 78.5t78 32.5q39 0 64.5 -25t25.5 -64q0 -46 -32 -78t-78 -32zM552 582q-39 0 -64.5 24.5t-25.5 63.5q0 46 31.5 78.5t77.5 32.5q40 0 65.5 -24.5t25.5 -64.5q0 -46 -32 -78t-78 -32zM344 59
q-74 -70 -154 -70q-74 0 -113.5 45t-39.5 113q0 42 16 98l77 289h190l-75 -282q-5 -17 -5 -32q0 -27 15 -42t42 -15q75 0 99 87l76 284h190l-143 -534h-189l16 59h-2z" />
    <glyph glyph-name="Gcaron" unicode="&#x1e6;" horiz-adv-x="874" 
d="M579 942l88 101h158l-177 -189h-171l-79 189h146zM877 559q-8 41 -30.5 80t-61 75.5t-102.5 58.5t-144 22q-125 0 -231 -58.5t-169.5 -164t-63.5 -234.5q0 -155 103 -253t268 -98q102 0 185 37t135.5 99.5t81 140.5t31.5 164h-415l-37 -155h226q-25 -48 -74.5 -77
t-113.5 -29q-90 0 -140.5 53t-50.5 133q0 101 73.5 181.5t170.5 80.5q72 0 114 -33.5t53 -80.5z" />
    <glyph glyph-name="gcaron" unicode="&#x1e7;" horiz-adv-x="686" 
d="M442 712l88 101h158l-176 -188h-172l-79 188h147zM228 -106q105 0 141 133l11 41q-26 -19 -43.5 -29.5t-47 -19.5t-60.5 -9q-80 0 -136.5 60.5t-56.5 145.5q0 132 85 229t202 97q108 0 164 -80h1l20 72h188l-135 -509q-24 -83 -42 -117q-95 -175 -290 -175
q-70 0 -125 20.5t-87.5 53.5t-49 72t-16.5 80l172 34q0 -43 28 -71t77 -28zM316 167q49 0 86.5 38.5t37.5 91.5q0 36 -24 58.5t-63 22.5q-51 0 -87.5 -38.5t-36.5 -91.5q0 -37 23.5 -59t63.5 -22z" />
    <glyph glyph-name="uni01E8" unicode="&#x1e8;" horiz-adv-x="763" 
d="M554 942l88 101h158l-176 -189h-171l-79 189h146zM902 783h-252l-315 -332h-1l89 332h-199l-209 -783h199l99 374l168 -374h221l-191 386z" />
    <glyph glyph-name="uni01E9" unicode="&#x1e9;" horiz-adv-x="638" 
d="M212 815h190l-133 -500h3l201 219h236l-257 -265l118 -269h-206l-109 263l-70 -263h-190zM868 813h-158l-88 -101l-34 101h-147l80 -188h171z" />
    <glyph glyph-name="uni01F4" unicode="&#x1f4;" horiz-adv-x="874" 
d="M635 1048h212l-223 -196h-154zM685 501q-11 47 -53 80.5t-114 33.5q-97 0 -170.5 -80.5t-73.5 -181.5q0 -80 50.5 -133t140.5 -53q64 0 113.5 29t74.5 77h-226l37 155h415q-3 -86 -31.5 -164t-81 -140.5t-135.5 -99.5t-185 -37q-165 0 -268 98t-103 253q0 129 63.5 234.5
t169.5 164t231 58.5q80 0 144 -22t102.5 -58.5t61 -75.5t30.5 -80z" />
    <glyph glyph-name="uni01F5" unicode="&#x1f5;" horiz-adv-x="686" 
d="M446 819h212l-224 -196h-153zM228 -106q-49 0 -77 28t-28 71l-172 -34q0 -41 16.5 -80t49 -72t87.5 -53.5t125 -20.5q195 0 290 175q18 34 42 117l135 509h-188l-20 -72h-1q-56 80 -164 80q-117 0 -202 -97t-85 -229q0 -85 56.5 -145.5t136.5 -60.5q45 0 78 14.5t73 43.5
l-11 -41q-36 -133 -141 -133zM316 167q-40 0 -63.5 22t-23.5 59q0 53 36.5 91.5t87.5 38.5q39 0 63 -22.5t24 -58.5q0 -53 -37.5 -91.5t-86.5 -38.5z" />
    <glyph glyph-name="Aringacute" unicode="&#x1fa;" horiz-adv-x="818" 
d="M692 875q3 -15 3 -32q0 -59 -37 -106l114 -737h-204l-21 144h-312l-90 -144h-213l474 751q-13 26 -13 61q0 69 47.5 118t116.5 49q32 0 61 -13l97 116h212zM550 885q-26 0 -45 -19t-19 -46q0 -22 14 -36t37 -14q27 0 46 19t19 46q0 22 -14.5 36t-37.5 14zM525 311
l-36 256l-154 -256h190z" />
    <glyph glyph-name="aringacute" unicode="&#x1fb;" horiz-adv-x="689" 
d="M595 806q3 -17 3 -33q0 -69 -48 -117.5t-117 -48.5q-60 0 -99 38t-39 98q0 69 48 117.5t117 48.5q35 0 61 -13l98 117h212zM454 816q-28 0 -46.5 -19t-18.5 -47q0 -22 14 -35.5t36 -13.5q28 0 46.5 18.5t18.5 46.5q0 22 -14 36t-36 14zM382 58q-71 -69 -154 -69
q-90 0 -142 64t-52 154q0 137 86.5 237t207.5 100q105 0 161 -78h1l19 68h190l-142 -534h-188l15 58h-2zM318 157q51 0 90 40t39 95q0 38 -25.5 61.5t-64.5 23.5q-53 0 -91.5 -40.5t-38.5 -95.5q0 -38 24.5 -61t66.5 -23z" />
    <glyph glyph-name="AEacute" unicode="&#x1fc;" horiz-adv-x="1093" 
d="M813 1048h212l-224 -196h-153zM-75 0l573 783h678l-46 -175h-347l-34 -128h314l-44 -169h-315l-37 -135h350l-47 -176h-540l33 124h-223l-89 -124h-226zM355 291h153l86 322h-11z" />
    <glyph glyph-name="aeacute" unicode="&#x1fd;" horiz-adv-x="944" 
d="M626 819h212l-224 -196h-153zM354 546q97 0 157 -51q79 51 162 51q100 0 171.5 -59.5t71.5 -159.5q0 -54 -22 -108h-367q0 -38 31 -60.5t66 -22.5q76 0 106 54l148 -67q-39 -73 -111.5 -104t-147.5 -31q-139 0 -216 90q-51 -51 -103 -70.5t-127 -19.5h-4q-65 0 -112 38.5
t-47 103.5q0 44 20.5 78t54 53t67.5 29t71 13l110 8q22 2 38 15t16 33q0 22 -18 32.5t-41 10.5q-36 0 -61.5 -19t-35.5 -48l-161 51q25 67 99 113.5t185 46.5zM665 401q-35 0 -69.5 -21t-48.5 -55h192q2 7 2 16q0 29 -21.5 44.5t-54.5 15.5zM248 122q35 0 62 20t34 55l4 21
l-67 -7q-76 -7 -76 -50q0 -17 12 -28t31 -11z" />
    <glyph glyph-name="Oslashacute" unicode="&#x1fe;" horiz-adv-x="912" 
d="M635 1048h212l-223 -196h-154zM447 -12q123 0 229.5 60.5t170.5 167t64 232.5q0 113 -62 200l91 88l-82 85l-93 -90q-95 65 -225 65q-125 0 -232 -60t-170 -166t-63 -233q0 -116 61 -201l-91 -88l82 -85l95 91q98 -66 225 -66zM522 618q54 0 99 -24l-333 -317
q-13 36 -13 76q0 103 73 184t174 81zM697 506q13 -32 13 -73q0 -104 -72.5 -185t-174.5 -81q-54 0 -95 22z" />
    <glyph glyph-name="oslashacute" unicode="&#x1ff;" horiz-adv-x="654" 
d="M463 819h212l-223 -196h-154zM302 -11q136 0 228.5 92.5t92.5 214.5q0 87 -44 149l71 67l-52 56l-74 -69q-67 47 -167 47q-135 0 -227.5 -93t-92.5 -215q0 -88 45 -150l-71 -67l52 -55l74 70q67 -47 165 -47zM348 384q25 0 46 -9l-174 -164q-5 18 -5 33q0 55 38.5 97.5
t94.5 42.5zM440 321q5 -15 5 -31q0 -57 -39.5 -99t-93.5 -42q-26 0 -45 9z" />
    <glyph glyph-name="Scommaaccent" unicode="&#x218;" horiz-adv-x="705" 
d="M459 229q0 50 -70 71l-66 20q-88 26 -141 84.5t-53 128.5q0 84 46 145t114.5 89.5t147.5 28.5q76 0 134.5 -22t91 -58t48 -75.5t15.5 -79.5l-184 -31q0 39 -26.5 71t-83.5 32q-51 0 -76 -25t-25 -51q0 -49 65 -69l67 -21q99 -30 149.5 -92.5t50.5 -126.5
q0 -124 -85 -191.5t-229 -67.5q-57 0 -111.5 15t-100 44t-73 77.5t-27.5 109.5q0 15 1 23l175 31q-1 -6 -1 -19q0 -54 38 -85.5t93 -31.5q58 0 87 24t29 52zM387 -142q0 -67 -44.5 -124.5t-111.5 -97.5l-45 47q75 44 112 104q-16 -8 -34 -8q-31 0 -49.5 19t-18.5 49
q0 43 32 72.5t76 29.5q38 0 60.5 -26t22.5 -65z" />
    <glyph glyph-name="scommaaccent" unicode="&#x219;" horiz-adv-x="537" 
d="M303 546q102 0 158 -52t56 -111v-3l-160 -18q0 26 -17.5 39t-38.5 13q-24 0 -36 -12t-12 -24q0 -20 31 -30l52 -17q64 -21 103 -58t39 -106q0 -72 -64.5 -125.5t-176.5 -53.5q-64 0 -112 17t-72.5 44t-35.5 53t-11 51v9l154 25q-1 -29 22 -47t54 -18q29 0 43 12t14 26
q0 25 -40 38l-37 13q-66 22 -104 57t-38 96q0 77 65.5 129.5t163.5 52.5zM272 -142q0 -67 -44.5 -124.5t-111.5 -97.5l-45 47q75 44 112 104q-16 -8 -34 -8q-31 0 -49.5 19t-18.5 49q0 43 32 72.5t76 29.5q38 0 60.5 -26t22.5 -65z" />
    <glyph glyph-name="uni021A" unicode="&#x21a;" horiz-adv-x="674" 
d="M169 0l162 604h-221l48 179h638l-46 -179h-221l-161 -604h-199zM318 -142q0 -67 -44.5 -124.5t-111.5 -97.5l-45 47q75 44 112 104q-16 -8 -34 -8q-31 0 -49.5 19t-18.5 49q0 43 32 72.5t76 29.5q38 0 60.5 -26t22.5 -65z" />
    <glyph glyph-name="uni021B" unicode="&#x21b;" horiz-adv-x="470" 
d="M358 5q-42 -14 -103 -14q-73 0 -118.5 39.5t-45.5 111.5q0 31 10 66l45 168h-101l42 158h105l47 173h185l-46 -173h123l-42 -158h-123l-43 -161q-3 -11 -3 -21q0 -44 58 -44q22 0 49 5zM235 -142q0 -67 -44.5 -124.5t-111.5 -97.5l-45 47q75 44 112 104q-16 -8 -34 -8
q-31 0 -49.5 19t-18.5 49q0 43 32 72.5t76 29.5q38 0 60.5 -26t22.5 -65z" />
    <glyph glyph-name="uni0237" unicode="&#x237;" horiz-adv-x="326" 
d="M177 -65q-52 -199 -248 -199q-22 0 -56.5 8t-52.5 20l38 143q22 -12 48 -12q67 0 86 63l153 576h192z" />
    <glyph glyph-name="circumflex" unicode="&#x2c6;" horiz-adv-x="426" 
d="M346 726l-88 -102h-158l176 189h171l79 -189h-146z" />
    <glyph glyph-name="breve" unicode="&#x2d8;" horiz-adv-x="416" 
d="M516 812q-26 -85 -87 -138.5t-147 -53.5q-77 0 -129.5 46t-52.5 121q0 9 2 25h128q-3 -32 13.5 -54t49.5 -22q63 0 90 76h133z" />
    <glyph glyph-name="dotaccent" unicode="&#x2d9;" horiz-adv-x="220" 
d="M199 606q-43 0 -71 27.5t-28 70.5q0 50 35 86t85 36q44 0 72 -27.5t28 -70.5q0 -51 -35 -86.5t-86 -35.5z" />
    <glyph glyph-name="tilde" unicode="&#x2dc;" horiz-adv-x="458" 
d="M396 624q-38 0 -80.5 27t-62.5 27q-30 0 -47 -53h-106l9 35q17 64 56.5 103t99.5 39q35 0 78 -26.5t62 -26.5q14 0 25 8.5t15 16.5t11 25h102q-8 -32 -10 -38q-17 -62 -56 -99.5t-96 -37.5z" />
    <glyph glyph-name="hungarumlaut" unicode="&#x2dd;" horiz-adv-x="579" 
d="M265 819h212l-224 -196h-153zM522 819h212l-224 -196h-153z" />
    <glyph glyph-name="gravecomb" unicode="&#x300;" horiz-adv-x="0" 
d="M142 623h-134l-150 196h198z" />
    <glyph glyph-name="acutecomb" unicode="&#x301;" horiz-adv-x="0" 
d="M-23 819h211l-223 -196h-153z" />
    <glyph glyph-name="uni0302" unicode="&#x302;" horiz-adv-x="0" 
d="M33 726l-88 -102h-158l176 189h171l79 -189h-146z" />
    <glyph glyph-name="tildecomb" unicode="&#x303;" horiz-adv-x="0" 
d="M67 624q-38 0 -80.5 27t-62.5 27q-30 0 -47 -53h-106l9 35q17 64 56.5 103t99.5 39q35 0 78 -26.5t62 -26.5q14 0 25 8.5t15 16.5t11 25h102q-8 -32 -10 -38q-17 -62 -56 -99.5t-96 -37.5z" />
    <glyph glyph-name="uni0304" unicode="&#x304;" horiz-adv-x="0" 
d="M211 765l-36 -137h-386l36 137h386z" />
    <glyph glyph-name="uni0306" unicode="&#x306;" horiz-adv-x="0" 
d="M208 812q-26 -85 -87 -138.5t-147 -53.5q-77 0 -129.5 46t-52.5 121q0 9 2 25h128q-3 -32 13.5 -54t49.5 -22q63 0 90 76h133z" />
    <glyph glyph-name="uni0307" unicode="&#x307;" horiz-adv-x="0" 
d="M-11 606q-43 0 -71 27.5t-28 70.5q0 50 35 86t85 36q44 0 72 -27.5t28 -70.5q0 -51 -35 -86.5t-86 -35.5z" />
    <glyph glyph-name="uni0308" unicode="&#x308;" horiz-adv-x="0" 
d="M-26 616q-39 0 -64.5 25t-25.5 64q0 46 32 78t78 32q39 0 64.5 -24.5t25.5 -63.5q0 -47 -32 -79t-78 -32zM234 616q-39 0 -64 24.5t-25 64.5q0 46 31 78t77 32q40 0 65.5 -24.5t25.5 -63.5q0 -46 -32 -78.5t-78 -32.5z" />
    <glyph glyph-name="uni030A" unicode="&#x30a;" horiz-adv-x="0" 
d="M-14 607q-60 0 -98.5 38t-38.5 98q0 69 47.5 117.5t116.5 48.5q60 0 99 -38t39 -98q0 -69 -48 -117.5t-117 -48.5zM7 816q-27 0 -46 -19t-19 -47q0 -22 14 -35.5t37 -13.5q27 0 46 18.5t19 46.5q0 22 -14.5 36t-36.5 14z" />
    <glyph glyph-name="uni030B" unicode="&#x30b;" horiz-adv-x="0" 
d="M-152 819h212l-224 -196h-153zM105 819h212l-224 -196h-153z" />
    <glyph glyph-name="uni030C" unicode="&#x30c;" horiz-adv-x="0" 
d="M-33 712l88 101h158l-176 -188h-171l-79 188h146z" />
    <glyph glyph-name="uni0312" unicode="&#x312;" horiz-adv-x="0" 
d="M115 865q-23 0 -46.5 -6.5t-49 -26.5t-36.5 -50q20 10 39 10q36 0 57.5 -22.5t21.5 -58.5q0 -41 -30 -68t-71 -27q-48 0 -73.5 30.5t-25.5 79.5q0 57 28.5 100t73.5 69q63 36 127 31z" />
    <glyph glyph-name="uni0326" unicode="&#x326;" horiz-adv-x="0" 
d="M-115 -331q23 0 46.5 6.5t48.5 26.5t36 50q-15 -10 -38 -10q-36 0 -58 22.5t-22 58.5q0 40 30.5 67t71.5 27q48 0 73.5 -30t25.5 -79q0 -111 -103 -169q-61 -35 -127 -32z" />
    <glyph glyph-name="uni0327" unicode="&#x327;" horiz-adv-x="0" 
d="M140 0q13 -24 13 -70q0 -98 -62 -147t-163 -49q-50 0 -81 12l28 106q26 -4 45 -4q48 0 76.5 34t28.5 83q0 20 -4 35h119z" />
    <glyph glyph-name="uni0328" unicode="&#x328;" horiz-adv-x="0" 
d="M11 -119q0 -19 18.5 -29t39.5 -10q3 0 9 0.5t8 0.5l-28 -104q-24 -5 -59 -5q-54 0 -97 25.5t-43 74.5q0 86 130 166h152q-43 -21 -86.5 -55t-43.5 -64z" />
    <glyph glyph-name="Theta" unicode="&#x398;" horiz-adv-x="912" 
d="M539 796q165 0 268.5 -99.5t103.5 -248.5q0 -126 -64 -232.5t-170.5 -167t-229.5 -60.5q-98 0 -181 39t-137 120.5t-54 190.5q0 126 63 232t169.5 166t231.5 60zM280 354q0 -85 52 -133t132 -48q99 0 170.5 78.5t71.5 180.5q0 77 -50.5 128.5t-134.5 51.5
q-98 0 -169.5 -78.5t-71.5 -179.5zM644 472l-40 -154h-261l41 154h260z" />
    <glyph glyph-name="uni03A9" unicode="&#x3a9;" horiz-adv-x="913" 
d="M422 0l57 215q94 13 157 81.5t63 162.5q0 68 -52 111t-122 43q-97 0 -163 -75t-66 -173q0 -54 30 -95t82 -52l-59 -218h-354l47 174h135q-39 38 -61.5 90t-22.5 107q0 117 65.5 216t169.5 154t220 55q90 0 171 -36.5t135 -108.5t54 -164q0 -95 -57.5 -178.5
t-145.5 -134.5h119l-47 -174h-355z" />
    <glyph glyph-name="theta" unicode="&#x3b8;" horiz-adv-x="754" 
d="M343 -12q-70 0 -124 26t-86 71t-48.5 101t-16.5 121q0 91 28.5 181t79.5 164t131 120t175 46q69 0 123 -27t86.5 -73t49 -101.5t16.5 -117.5q0 -71 -17.5 -143t-52.5 -138t-83.5 -117.5t-116 -82t-144.5 -30.5zM573 483v12q0 151 -113 151q-61 0 -107 -46.5t-68 -116.5
h288zM253 330q0 -4 -0.5 -10t-0.5 -9q0 -73 24.5 -111.5t85.5 -38.5q62 0 110 48.5t70 120.5h-289z" />
    <glyph glyph-name="pi" unicode="&#x3c0;" horiz-adv-x="784" 
d="M607 214q-3 -9 -3 -21q0 -43 59 -43q27 0 47 5l-39 -150q-43 -14 -101 -14q-73 0 -116 39t-43 112q0 34 9 66l45 168h-115l-100 -376h-188l101 376h-107l42 158h713l-42 -158h-119z" />
    <glyph glyph-name="uni0401" unicode="&#x401;" horiz-adv-x="686" 
d="M395 865q-40 0 -65 24.5t-25 64.5q0 46 31.5 78t77.5 32q39 0 64.5 -24.5t25.5 -63.5q0 -46 -31.5 -78.5t-77.5 -32.5zM664 865q-39 0 -64.5 25t-25.5 64q0 46 32 78t78 32q39 0 64.5 -24.5t25.5 -63.5q0 -46 -32 -78.5t-78 -32.5zM769 783l-47 -175h-348l-35 -128h318
l-46 -169h-317l-36 -135h352l-47 -176h-549l209 783h546z" />
    <glyph glyph-name="uni0402" unicode="&#x402;" horiz-adv-x="869" 
d="M488 604l-39 -146q93 45 190 45q90 0 144.5 -65t54.5 -158q0 -151 -90.5 -252t-238.5 -101q-62 0 -113 15l46 171q9 -1 30 -1q153 0 153 122q0 39 -28.5 61.5t-68.5 22.5q-63 0 -125 -31l-76 -287h-198l162 604h-180l48 179h660l-48 -179h-283z" />
    <glyph glyph-name="uni0403" unicode="&#x403;" horiz-adv-x="623" 
d="M554 1048h212l-224 -196h-153zM14 0l210 783h522l-49 -181h-324l-161 -602h-198z" />
    <glyph glyph-name="uni0404" unicode="&#x404;" horiz-adv-x="867" 
d="M466 170q81 0 134.5 44t79.5 100l173 -66q-18 -45 -49.5 -87.5t-80.5 -83t-121.5 -65t-157.5 -24.5q-157 0 -263.5 99t-106.5 254q0 121 62.5 226t169.5 167t232 62q88 0 156 -24.5t108 -65.5t62.5 -85t30.5 -92l-189 -59q-13 60 -57.5 102.5t-132.5 42.5q-70 0 -128 -38
t-87 -101h286l-43 -161h-265q11 -67 60.5 -106t126.5 -39z" />
    <glyph glyph-name="uni0405" unicode="&#x405;" horiz-adv-x="708" 
d="M460 229q0 50 -71 71l-65 20q-88 26 -141 84.5t-53 128.5q0 84 46 145t114.5 89.5t147.5 28.5q76 0 134 -22t90.5 -58t48 -75.5t15.5 -79.5l-184 -31q0 39 -26 71t-84 32q-50 0 -75 -25t-25 -51q0 -49 64 -69l67 -21q99 -30 149.5 -92.5t50.5 -126.5q0 -124 -85 -191.5
t-228 -67.5q-58 0 -112 15t-100 44t-73.5 77.5t-27.5 109.5q0 15 1 23l176 31q-2 -12 -2 -19q0 -54 38 -85.5t93 -31.5q58 0 87.5 24t29.5 52z" />
    <glyph glyph-name="uni0406" unicode="&#x406;" horiz-adv-x="362" 
d="M421 783l-210 -783h-197l209 783h198z" />
    <glyph glyph-name="uni0407" unicode="&#x407;" horiz-adv-x="362" 
d="M226 865q-40 0 -65 24.5t-25 64.5q0 46 31.5 78t77.5 32q39 0 64.5 -24.5t25.5 -63.5q0 -46 -31.5 -78.5t-77.5 -32.5zM491 865q-39 0 -64.5 25t-25.5 64q0 46 32 78t78 32q39 0 64.5 -24.5t25.5 -63.5q0 -46 -32 -78.5t-78 -32.5zM421 783l-210 -783h-197l209 783h198z
" />
    <glyph glyph-name="uni0408" unicode="&#x408;" horiz-adv-x="644" 
d="M257 -11q-100 0 -170.5 56t-70.5 157q0 32 28 140l190 12q0 -1 -12 -49t-12 -67q0 -65 65 -65q33 0 57.5 22t34.5 57l141 531h201l-146 -544q-67 -250 -306 -250z" />
    <glyph glyph-name="uni0409" unicode="&#x409;" horiz-adv-x="1272" 
d="M382 310q-26 -73 -55.5 -126t-72 -98t-102.5 -67.5t-136 -22.5q-38 0 -59 7l44 169h6q42 0 74.5 16t57 50.5t41.5 71t38 93.5l136 380h588l-73 -276h113q120 0 195.5 -57t75.5 -153q0 -141 -98.5 -219t-254.5 -78h-364l162 608h-211zM780 174h141q56 0 92.5 24.5
t36.5 72.5q0 32 -24.5 50.5t-64.5 18.5h-137z" />
    <glyph glyph-name="uni040A" unicode="&#x40a;" horiz-adv-x="1235" 
d="M832 496h120q121 0 192 -58.5t71 -147.5q0 -95 -48.5 -162t-125 -97.5t-171.5 -30.5h-369l87 326h-289l-87 -326h-198l209 783h198l-77 -287h290l76 287h199zM746 174h145q124 0 124 93q0 33 -23 49.5t-61 16.5h-143z" />
    <glyph glyph-name="uni040B" unicode="&#x40b;" horiz-adv-x="869" 
d="M619 185q8 29 8 56q0 77 -90 77q-79 0 -134 -31l-76 -287h-198l162 604h-180l48 179h660l-48 -179h-283l-39 -146q95 45 190 45q89 0 147.5 -45.5t58.5 -131.5q0 -32 -10 -70l-68 -256h-198z" />
    <glyph glyph-name="uni040C" unicode="&#x40c;" horiz-adv-x="763" 
d="M624 1048h212l-224 -196h-153zM213 0h-199l209 783h199l-89 -332h1l315 332h252l-391 -397l191 -386h-221l-167 374z" />
    <glyph glyph-name="uni040E" unicode="&#x40e;" horiz-adv-x="739" 
d="M449 1062q4 -40 27.5 -64.5t62.5 -24.5q40 0 72.5 25.5t44.5 64.5l103 -20q-27 -83 -87.5 -135t-144.5 -52q-78 0 -129.5 48t-51.5 126q0 9 1 13zM489 243q-32 -43 -58 -74.5t-64 -67.5t-74 -59t-81.5 -38.5t-93.5 -15.5q-56 0 -124 22l47 172q44 -18 87 -18q82 0 154 86
l-149 533h212l80 -334l242 334h223z" />
    <glyph glyph-name="uni040F" unicode="&#x40f;" horiz-adv-x="839" 
d="M446 0l-44 -164h-189l44 164h-243l209 783h198l-161 -602h279l161 602h198l-210 -783h-242z" />
    <glyph glyph-name="uni0410" unicode="&#x410;" horiz-adv-x="818" 
d="M235 144l-90 -144h-213l494 783h225l121 -783h-204l-21 144h-312zM525 311l-36 256l-154 -256h190z" />
    <glyph glyph-name="uni0411" unicode="&#x411;" horiz-adv-x="756" 
d="M797 783l-46 -174h-379l-32 -116h126q119 0 190.5 -57t71.5 -148q0 -135 -95 -211.5t-248 -76.5h-371l209 783h574zM297 332l-42 -158h150q53 0 88 22.5t35 69.5q0 25 -21 45.5t-62 20.5h-148z" />
    <glyph glyph-name="uni0412" unicode="&#x412;" horiz-adv-x="755" 
d="M14 0l209 783h259q35 0 67.5 -3t74 -14.5t71 -31t50.5 -55.5t21 -84q0 -78 -50 -130.5t-127 -68.5v-2q57 -17 88 -58.5t31 -97.5q0 -106 -90.5 -172t-264.5 -66h-339zM370 614l-37 -141h110q52 0 87 20t35 62q0 59 -96 59h-99zM292 317l-40 -147h131q50 0 86.5 21
t36.5 63q0 63 -98 63h-116z" />
    <glyph glyph-name="uni0413" unicode="&#x413;" horiz-adv-x="623" 
d="M14 0l210 783h522l-49 -181h-324l-161 -602h-198z" />
    <glyph glyph-name="uni0414" unicode="&#x414;" horiz-adv-x="939" 
d="M954 783l-162 -602h82l-93 -345h-190l44 164h-501l-44 -164h-190l92 341q77 0 147.5 79t111.5 193l121 334h582zM709 608h-205l-65 -181q-27 -76 -62 -136t-96 -110h313z" />
    <glyph glyph-name="uni0415" unicode="&#x415;" horiz-adv-x="686" 
d="M769 783l-47 -175h-348l-35 -128h318l-46 -169h-317l-36 -135h352l-47 -176h-549l209 783h546z" />
    <glyph glyph-name="uni0416" unicode="&#x416;" horiz-adv-x="1166" 
d="M186 0h-255l392 425l-181 358h204l178 -367l4 1l97 366h199l-97 -367h3l328 367h245l-384 -408l182 -375h-210l-171 380h-3l-102 -380h-198l101 380h-3z" />
    <glyph glyph-name="uni0417" unicode="&#x417;" horiz-adv-x="706" 
d="M723 584q0 -76 -46.5 -127.5t-121.5 -69.5q98 -49 98 -156q0 -106 -97 -175t-243 -69q-124 0 -203.5 68t-79.5 188l181 32q-1 -5 -1 -14q0 -48 30 -77t82 -29t89.5 24t37.5 66q0 29 -23 47.5t-69 18.5h-99l45 168h83q62 0 96 23.5t34 60.5q0 30 -23 48t-63 18
q-100 0 -140 -93l-169 63q41 98 130 147.5t204 49.5q120 0 194 -62t74 -150z" />
    <glyph glyph-name="uni0418" unicode="&#x418;" horiz-adv-x="862" 
d="M419 783l-127 -472h1l406 472h221l-209 -783h-195l127 474h-2l-405 -474h-222l209 783h196z" />
    <glyph glyph-name="uni0419" unicode="&#x419;" horiz-adv-x="862" 
d="M530 1062q4 -40 27.5 -64.5t62.5 -24.5q40 0 72.5 25.5t44.5 64.5l103 -20q-27 -83 -87.5 -135t-144.5 -52q-78 0 -129.5 48t-51.5 126q0 9 1 13zM419 783l-127 -472h1l406 472h221l-209 -783h-195l127 474h-2l-405 -474h-222l209 783h196z" />
    <glyph glyph-name="uni041A" unicode="&#x41a;" horiz-adv-x="763" 
d="M213 0h-199l209 783h199l-89 -332h1l315 332h252l-391 -397l191 -386h-221l-167 374z" />
    <glyph glyph-name="uni041B" unicode="&#x41b;" horiz-adv-x="884" 
d="M7 172q34 0 62 12t48.5 30.5t39.5 50.5t32 62.5t29 75.5l136 380h588l-209 -783h-198l163 608h-211l-105 -298q-26 -73 -55.5 -126t-72 -98t-102.5 -67.5t-136 -22.5q-38 0 -59 7l44 169h6z" />
    <glyph glyph-name="uni041C" unicode="&#x41c;" horiz-adv-x="1055" 
d="M840 495l-319 -495h-119l-65 492h-2l-131 -492h-190l209 783h243l65 -480l309 480h273l-209 -783h-194l132 495h-2z" />
    <glyph glyph-name="uni041D" unicode="&#x41d;" horiz-adv-x="850" 
d="M293 305l-81 -305h-198l210 783h197l-79 -296h289l79 296h198l-209 -783h-198l82 305h-290z" />
    <glyph glyph-name="uni041E" unicode="&#x41e;" horiz-adv-x="912" 
d="M539 796q165 0 268 -99.5t103 -248.5q0 -126 -64 -232.5t-170 -167t-229 -60.5q-153 0 -263 94t-110 256q0 192 137 325t328 133zM279 354q0 -85 52.5 -133t131.5 -48q99 0 170.5 78.5t71.5 180.5q0 77 -50 128.5t-134 51.5q-99 0 -170.5 -78.5t-71.5 -179.5z" />
    <glyph glyph-name="uni041F" unicode="&#x41f;" horiz-adv-x="840" 
d="M374 602l-162 -602h-198l210 783h674l-209 -783h-198l160 602h-277z" />
    <glyph glyph-name="uni0420" unicode="&#x420;" horiz-adv-x="712" 
d="M14 0l210 783h244q117 0 186 -37q107 -57 107 -185q0 -13 -0.5 -24t-7 -41.5t-18.5 -56t-38.5 -56.5t-62.5 -54q-90 -58 -220 -58h-129l-73 -271h-198zM330 438h82q60 0 103.5 24t43.5 78q0 28 -20 46q-25 24 -82 24h-82z" />
    <glyph glyph-name="uni0421" unicode="&#x421;" horiz-adv-x="865" 
d="M74 339q0 123 62.5 228.5t169.5 167t232 61.5q71 0 129.5 -17t97 -43.5t67 -63t43 -72t20.5 -73.5l-191 -60q-32 145 -188 145q-97 0 -167 -80t-70 -178q0 -81 50 -131t137 -50q81 0 134 44.5t78 99.5l176 -68q-17 -44 -49 -87t-81 -83.5t-122 -65.5t-158 -25
q-157 0 -263.5 99t-106.5 252z" />
    <glyph glyph-name="uni0422" unicode="&#x422;" horiz-adv-x="672" 
d="M168 0l162 604h-221l48 179h638l-46 -179h-221l-161 -604h-199z" />
    <glyph glyph-name="uni0423" unicode="&#x423;" horiz-adv-x="739" 
d="M489 243q-32 -43 -58 -74.5t-64 -67.5t-74 -59t-81.5 -38.5t-93.5 -15.5q-56 0 -124 22l47 172q44 -18 87 -18q82 0 154 86l-149 533h212l80 -334l242 334h223z" />
    <glyph glyph-name="uni0424" unicode="&#x424;" horiz-adv-x="1053" 
d="M549 -24h-198l22 83q-142 11 -220.5 88t-78.5 201q0 168 122 278.5t319 110.5h39l19 71h198l-19 -71q141 -10 223.5 -86t82.5 -196q0 -179 -124.5 -287.5t-315.5 -108.5h-47zM276 369q0 -62 40.5 -94.5t103.5 -38.5l87 324h-18q-91 0 -152 -51t-61 -140zM854 426
q0 61 -43.5 96.5t-105.5 35.5l-86 -322h24q92 0 151.5 50t59.5 140z" />
    <glyph glyph-name="uni0425" unicode="&#x425;" horiz-adv-x="773" 
d="M167 0h-237l380 410l-165 373h217l95 -229l206 229h236l-358 -387l175 -396h-216l-105 251z" />
    <glyph glyph-name="uni0426" unicode="&#x426;" horiz-adv-x="884" 
d="M818 181l-91 -345h-190l44 164h-567l209 783h198l-161 -602h279l161 602h198l-161 -602h81z" />
    <glyph glyph-name="uni0427" unicode="&#x427;" horiz-adv-x="787" 
d="M519 301q-122 -53 -219 -53q-87 0 -143 47t-56 135q0 40 16 98l68 255h198l-62 -234q-8 -32 -8 -51q0 -71 76 -71q98 0 177 50l81 306h198l-209 -783h-198z" />
    <glyph glyph-name="uni0428" unicode="&#x428;" horiz-adv-x="1250" 
d="M421 783l-161 -602h246l161 602h197l-160 -602h246l161 602h197l-209 -783h-1085l209 783h198z" />
    <glyph glyph-name="uni0429" unicode="&#x429;" horiz-adv-x="1294" 
d="M1229 181l-92 -345h-190l44 164h-977l209 783h198l-161 -602h246l161 602h197l-160 -602h246l161 602h197l-161 -602h82z" />
    <glyph glyph-name="uni042A" unicode="&#x42a;" horiz-adv-x="845" 
d="M556 507q119 0 194.5 -57t75.5 -153q0 -141 -98.5 -219t-254.5 -78h-364l162 609h-160l46 174h358l-74 -276h115zM353 174h141q56 0 92.5 24.5t36.5 72.5q0 32 -24.5 50.5t-64.5 18.5h-137z" />
    <glyph glyph-name="uni042B" unicode="&#x42b;" horiz-adv-x="1146" 
d="M461 507q120 0 195 -57t75 -153q0 -141 -98 -219t-255 -78h-364l209 783h198l-73 -276h113zM1204 783l-209 -783h-198l209 783h198zM258 174h141q57 0 93 24.5t36 72.5q0 32 -24 50.5t-64 18.5h-137z" />
    <glyph glyph-name="uni042C" unicode="&#x42c;" horiz-adv-x="750" 
d="M461 507q120 0 195 -57t75 -153q0 -141 -98 -219t-255 -78h-364l209 783h198l-73 -276h113zM258 174h141q57 0 93 24.5t36 72.5q0 32 -24 50.5t-64 18.5h-137z" />
    <glyph glyph-name="uni042D" unicode="&#x42d;" horiz-adv-x="864" 
d="M776 677q84 -95 84 -228q0 -108 -40 -197.5t-105.5 -146t-146.5 -87t-166 -30.5q-142 0 -244 74t-122 198l190 60q17 -77 69.5 -113t123.5 -36q67 0 125 39.5t89 104.5h-284l43 161h265q-11 57 -60.5 98t-118.5 41q-71 0 -126.5 -38.5t-85.5 -105.5l-175 68
q55 125 165.5 191t239.5 66q84 0 157 -31.5t123 -87.5z" />
    <glyph glyph-name="uni042E" unicode="&#x42e;" horiz-adv-x="1239" 
d="M890 796q159 0 253.5 -97t94.5 -247q0 -95 -37 -181t-98 -148t-144.5 -98.5t-172.5 -36.5q-147 0 -246 85.5t-106 238.5h-139l-83 -312h-198l209 783h198l-81 -305h117q46 139 166 228.5t267 89.5zM804 173q94 0 161.5 78.5t67.5 180.5q0 77 -45.5 128.5t-124.5 51.5
q-93 0 -159.5 -79.5t-66.5 -180.5q0 -84 47 -131.5t120 -47.5z" />
    <glyph glyph-name="uni042F" unicode="&#x42f;" horiz-adv-x="744" 
d="M217 312q-102 57 -102 182q0 133 99 211t259 78h329l-209 -783h-197l73 275h-73l-209 -275h-219zM465 613q-65 0 -103.5 -27.5t-38.5 -72.5q0 -37 28.5 -53.5t64.5 -16.5h98l45 170h-94z" />
    <glyph glyph-name="uni0430" unicode="&#x430;" horiz-adv-x="689" 
d="M382 58q-71 -69 -154 -69q-90 0 -142 64t-52 154q0 137 86.5 237t207.5 100q105 0 161 -78h1l19 68h190l-142 -534h-188l15 58h-2zM318 157q51 0 90 40t39 95q0 38 -25.5 61.5t-64.5 23.5q-53 0 -91.5 -40.5t-38.5 -95.5q0 -38 24.5 -61t66.5 -23z" />
    <glyph glyph-name="uni0431" unicode="&#x431;" horiz-adv-x="688" 
d="M231 442q71 81 194 81q97 0 163.5 -62t66.5 -165q0 -132 -94.5 -220t-227.5 -88q-128 0 -198.5 77t-70.5 205q0 56 8.5 111.5t30 121.5t67.5 125.5t111 100.5q42 26 92.5 39.5t133.5 26.5l158 25v-153l-165 -28q-85 -15 -136 -41q-114 -56 -135 -156h2zM346 155
q53 0 89 39t36 94q0 41 -26 69t-68 28q-53 0 -89 -39.5t-36 -94.5q0 -41 26 -68.5t68 -27.5z" />
    <glyph glyph-name="uni0432" unicode="&#x432;" horiz-adv-x="645" 
d="M137 534h292q94 0 143.5 -34.5t49.5 -93.5q0 -53 -33 -88t-89 -49v-1q39 -13 60.5 -40.5t21.5 -64.5q0 -78 -64.5 -120.5t-177.5 -42.5h-345zM363 324q66 0 66 45q0 32 -52 32h-88l-20 -77h94zM321 136q30 0 50 12.5t20 35.5q0 35 -56 35h-95l-22 -83h103z" />
    <glyph glyph-name="uni0433" unicode="&#x433;" horiz-adv-x="510" 
d="M-5 0l142 534h429l-42 -158h-239l-100 -376h-190z" />
    <glyph glyph-name="uni0434" unicode="&#x434;" horiz-adv-x="759" 
d="M616 156h75l-85 -320h-173l44 164h-348l-44 -164h-173l86 319q60 3 97 62t91 210l38 107h493zM490 377h-141q-21 -58 -34 -88t-38 -68.5t-57 -64.5h211z" />
    <glyph glyph-name="uni0435" unicode="&#x435;" horiz-adv-x="632" 
d="M215 219q0 -38 31 -60.5t66 -22.5q76 0 106 54l148 -67q-39 -73 -111.5 -104t-147.5 -31q-119 0 -195 68t-76 180q0 126 97 218t228 92q100 0 171.5 -59.5t71.5 -159.5q0 -54 -22 -108h-367zM353 401q-35 0 -69.5 -21t-48.5 -55h191q2 7 2 16q0 29 -21 44.5t-54 15.5z
" />
    <glyph glyph-name="uni0436" unicode="&#x436;" horiz-adv-x="957" 
d="M583 287h3l209 247h224l-248 -282l112 -252h-204l-100 259h-4l-69 -259h-191l68 255h-4l-202 -255h-239l258 296l-111 238h193l110 -251h3l67 251h191z" />
    <glyph glyph-name="uni0437" unicode="&#x437;" horiz-adv-x="547" 
d="M526 396q0 -50 -32 -85t-82 -47h-1q68 -32 68 -103q0 -79 -73 -126t-188 -47q-90 0 -148 45.5t-58 133.5l143 25q0 -70 67 -70q32 0 54.5 14.5t22.5 39.5q0 39 -56 39h-50l32 116h37q84 0 84 48q0 16 -14.5 26t-41.5 10q-56 0 -83 -52l-136 49q32 67 96.5 100.5
t148.5 33.5q93 0 151.5 -42.5t58.5 -107.5z" />
    <glyph glyph-name="uni0438" unicode="&#x438;" horiz-adv-x="665" 
d="M173 0h-178l142 534h185l-68 -256l1 -1l239 257h182l-143 -534h-185l69 262l-1 1z" />
    <glyph glyph-name="uni0439" unicode="&#x439;" horiz-adv-x="665" 
d="M354 825q3 -39 26.5 -64t62.5 -25q41 0 73.5 25.5t44.5 64.5l103 -19q-27 -83 -87.5 -135.5t-144.5 -52.5q-78 0 -129.5 48t-51.5 126v13zM173 0h-178l142 534h185l-68 -256l1 -1l239 257h182l-143 -534h-185l69 262l-1 1z" />
    <glyph glyph-name="uni043A" unicode="&#x43a;" horiz-adv-x="656" 
d="M253 254l-68 -254h-190l142 534h191l-64 -239h3l228 239h236l-277 -273l135 -261h-212l-120 254h-4z" />
    <glyph glyph-name="uni043B" unicode="&#x43b;" horiz-adv-x="703" 
d="M3 153q44 0 75.5 37.5t63.5 126.5l77 217h494l-142 -534h-191l101 376h-134l-47 -127q-17 -47 -41.5 -88.5t-60 -80.5t-85.5 -61.5t-107 -22.5q-32 0 -44 4z" />
    <glyph glyph-name="uni043C" unicode="&#x43c;" horiz-adv-x="846" 
d="M609 305l-204 -305h-100l-40 318h-2l-85 -318h-183l142 534h238l39 -293l197 293h245l-142 -534h-185l82 305h-2z" />
    <glyph glyph-name="uni043D" unicode="&#x43d;" horiz-adv-x="658" 
d="M236 190l-51 -190h-190l142 534h190l-51 -191h152l51 191h190l-143 -534h-190l51 190h-151z" />
    <glyph glyph-name="uni043E" unicode="&#x43e;" horiz-adv-x="654" 
d="M302 -12q-124 0 -195 69.5t-71 178.5q0 124 92 217t228 93q124 0 195.5 -70t71.5 -178q0 -124 -92.5 -217t-228.5 -93zM312 157q51 0 88 39t37 93q0 39 -25.5 63.5t-65.5 24.5q-53 0 -88.5 -39.5t-35.5 -92.5q0 -38 23 -63t67 -25z" />
    <glyph glyph-name="uni043F" unicode="&#x43f;" horiz-adv-x="654" 
d="M433 377h-149l-100 -377h-189l142 534h528l-143 -534h-190z" />
    <glyph glyph-name="uni0440" unicode="&#x440;" horiz-adv-x="688" 
d="M660 327q0 -141 -87.5 -239.5t-204.5 -98.5q-109 0 -164 83h-2l-89 -336h-189l213 798h191l-15 -55h2q69 65 151 65q79 0 136.5 -55.5t57.5 -161.5zM338 158q52 0 90.5 40t38.5 96q0 38 -24.5 61t-65.5 23q-53 0 -92 -41t-39 -95q0 -38 25.5 -61t66.5 -23z" />
    <glyph glyph-name="uni0441" unicode="&#x441;" horiz-adv-x="625" 
d="M304 -12q-124 0 -195.5 68.5t-71.5 181.5q0 129 95.5 218.5t225.5 89.5q112 0 180 -57.5t80 -138.5l-176 -50q-6 33 -29 55t-63 22q-56 0 -92 -40t-36 -93q0 -39 25 -63t69 -24q38 0 66 20t42 50l159 -60q-32 -77 -108 -128t-171 -51z" />
    <glyph glyph-name="uni0442" unicode="&#x442;" horiz-adv-x="552" 
d="M111 0l100 376h-162l42 158h518l-42 -158h-163l-100 -376h-193z" />
    <glyph glyph-name="uni0443" unicode="&#x443;" horiz-adv-x="625" 
d="M152 -1l-70 535h187l33 -317h1l188 317h201l-506 -797h-199z" />
    <glyph glyph-name="uni0444" unicode="&#x444;" horiz-adv-x="948" 
d="M436 -244h-192l73 274q-56 -38 -123 -38q-79 0 -119.5 60t-40.5 149q0 46 11 92.5t34.5 91.5t56.5 79.5t82 56t106 21.5q71 0 117 -46l83 309h192l-83 -309q59 44 125 44q79 0 120 -61t41 -150q0 -44 -11 -90.5t-34.5 -91.5t-56.5 -80t-81.5 -56.5t-104.5 -21.5
q-72 0 -122 43zM229 234q0 -78 69 -78q29 0 56 12l52 195q-19 16 -57 16q-55 0 -87.5 -43t-32.5 -102zM724 295q0 80 -69 80q-29 0 -57 -13l-52 -194q20 -16 58 -16q55 0 87.5 42.5t32.5 100.5z" />
    <glyph glyph-name="uni0445" unicode="&#x445;" horiz-adv-x="629" 
d="M167 0h-228l272 276l-136 258h209l61 -139l124 139h223l-265 -270l136 -264h-206l-64 141z" />
    <glyph glyph-name="uni0446" unicode="&#x446;" horiz-adv-x="706" 
d="M639 156l-86 -320h-173l44 164h-429l142 534h190l-101 -378h148l101 378h190l-102 -378h76z" />
    <glyph glyph-name="uni0447" unicode="&#x447;" horiz-adv-x="620" 
d="M342 163q-61 -24 -143 -24q-63 0 -108 36.5t-45 106.5q0 24 10 58l51 194h192l-43 -161q-4 -15 -4 -33q0 -20 13 -31.5t31 -11.5q48 0 88 22l57 215h190l-142 -534h-191z" />
    <glyph glyph-name="uni0448" unicode="&#x448;" horiz-adv-x="972" 
d="M327 534l-100 -378h137l101 378h190l-101 -378h137l101 378h191l-143 -534h-845l142 534h190z" />
    <glyph glyph-name="uni0449" unicode="&#x449;" horiz-adv-x="1024" 
d="M957 156l-85 -320h-174l44 164h-747l142 534h190l-100 -378h137l101 378h190l-101 -378h137l101 378h191l-101 -378h75z" />
    <glyph glyph-name="uni044A" unicode="&#x44a;" horiz-adv-x="711" 
d="M456 385q92 0 157 -44.5t65 -115.5q0 -109 -77 -167t-191 -58h-330l101 379h-132l41 155h322l-39 -149h83zM308 141h94q37 0 61.5 16t24.5 49q0 21 -17.5 33.5t-41.5 12.5h-91z" />
    <glyph glyph-name="uni044B" unicode="&#x44b;" horiz-adv-x="944" 
d="M137 534h190l-39 -149h82q93 0 158 -44.5t65 -115.5q0 -109 -77 -167t-191 -58h-330zM764 534h191l-143 -534h-191zM223 141h94q37 0 61.5 16t24.5 49q0 22 -17 34t-42 12h-92z" />
    <glyph glyph-name="uni044C" unicode="&#x44c;" horiz-adv-x="626" 
d="M137 534h190l-39 -149h82q93 0 158 -44.5t65 -115.5q0 -109 -77 -167t-191 -58h-330zM223 141h94q37 0 61.5 16t24.5 49q0 22 -17 34t-42 12h-92z" />
    <glyph glyph-name="uni044D" unicode="&#x44d;" horiz-adv-x="608" 
d="M311 546q122 0 194 -70t72 -177q0 -91 -47.5 -164t-120.5 -110t-154 -37q-87 0 -156 43t-89 131l167 48q15 -63 91 -63q74 0 112 70h-143l27 102h133q-9 31 -34.5 49.5t-58.5 18.5q-69 0 -106 -62l-151 52q36 78 108 123.5t156 45.5z" />
    <glyph glyph-name="uni044E" unicode="&#x44e;" horiz-adv-x="929" 
d="M647 546q114 0 181.5 -67.5t67.5 -179.5q0 -130 -88 -220.5t-215 -90.5q-102 0 -174 55t-85 149h-97l-51 -192h-191l142 534h191l-51 -193h75q33 91 114 148t181 57zM602 157q46 0 77.5 42.5t31.5 90.5q0 39 -21 63.5t-59 24.5q-49 0 -80 -39.5t-31 -89.5q0 -40 22.5 -66
t59.5 -26z" />
    <glyph glyph-name="uni044F" unicode="&#x44f;" horiz-adv-x="652" 
d="M309 160l-133 -160h-217l187 202q-35 17 -58.5 51.5t-23.5 73.5q0 54 23 95.5t62 65t83.5 35t93.5 11.5h337l-143 -534h-188l43 160h-66zM337 391q-39 0 -61.5 -15.5t-22.5 -44.5q0 -42 58 -42h99l27 102h-100z" />
    <glyph glyph-name="uni0451" unicode="&#x451;" horiz-adv-x="632" 
d="M255 616q-39 0 -64 25t-25 64q0 46 31.5 78t77.5 32q39 0 64.5 -24.5t25.5 -63.5q0 -47 -32 -79t-78 -32zM515 616q-39 0 -64 24.5t-25 64.5q0 46 31.5 78t77.5 32q39 0 64.5 -24.5t25.5 -63.5q0 -47 -32 -79t-78 -32zM215 219q0 -38 31 -60.5t66 -22.5q76 0 106 54
l148 -67q-39 -73 -111.5 -104t-147.5 -31q-119 0 -195 68t-76 180q0 126 97 218t228 92q100 0 171.5 -59.5t71.5 -159.5q0 -54 -22 -108h-367zM353 401q-35 0 -69.5 -21t-48.5 -55h191q2 7 2 16q0 29 -21 44.5t-54 15.5z" />
    <glyph glyph-name="uni0452" unicode="&#x452;" horiz-adv-x="642" 
d="M226 -99q43 0 71.5 29.5t40.5 74.5l73 276q5 18 5 33q0 57 -57 57q-75 0 -98 -87l-76 -284h-190l162 608h-73l34 127h72l22 80h189l-22 -80h154l-33 -127h-154l-35 -133h1q72 70 154 70q75 0 114 -44.5t39 -113.5q0 -40 -15 -98l-82 -306q-28 -108 -93 -177.5t-165 -69.5
q-47 0 -95 11l42 155q5 -1 15 -1z" />
    <glyph glyph-name="uni0453" unicode="&#x453;" horiz-adv-x="510" 
d="M444 819h212l-223 -196h-154zM-5 0l142 534h429l-42 -158h-239l-100 -376h-190z" />
    <glyph glyph-name="uni0454" unicode="&#x454;" horiz-adv-x="624" 
d="M317 148q38 0 69 19.5t47 49.5l149 -56q-34 -75 -108.5 -124t-168.5 -49q-124 0 -195 70.5t-71 184.5q0 129 93.5 216t223.5 87q110 0 178 -55.5t83 -134.5l-166 -47q-8 34 -33 55.5t-66 21.5q-75 0 -117 -69h142l-25 -98h-131q15 -71 96 -71z" />
    <glyph glyph-name="uni0455" unicode="&#x455;" horiz-adv-x="537" 
d="M303 546q102 0 158 -52t56 -111v-3l-160 -18q0 26 -17.5 39t-38.5 13q-24 0 -36 -12t-12 -24q0 -20 31 -30l52 -17q64 -21 103 -58t39 -106q0 -72 -64.5 -125.5t-176.5 -53.5q-64 0 -112 17t-72.5 44t-35.5 53t-11 51v9l154 25q-1 -29 22 -47t54 -18q29 0 43 12t14 26
q0 25 -40 38l-37 13q-66 22 -104 57t-38 96q0 77 65.5 129.5t163.5 52.5z" />
    <glyph glyph-name="uni0456" unicode="&#x456;" horiz-adv-x="318" 
d="M271 606q-43 0 -71 27.5t-28 70.5q0 51 35 86.5t86 35.5q43 0 71.5 -27.5t28.5 -70.5q0 -51 -35.5 -86.5t-86.5 -35.5zM137 534h192l-142 -534h-192z" />
    <glyph glyph-name="uni0457" unicode="&#x457;" horiz-adv-x="320" 
d="M128 616q-39 0 -64 24.5t-25 64.5q0 46 31 78t77 32q40 0 65.5 -24.5t25.5 -63.5q0 -46 -32 -78.5t-78 -32.5zM384 616q-39 0 -64.5 25t-25.5 64q0 46 31.5 78t77.5 32q39 0 65 -24.5t26 -63.5q0 -46 -32 -78.5t-78 -32.5zM137 534h194l-143 -534h-193z" />
    <glyph glyph-name="uni0458" unicode="&#x458;" horiz-adv-x="326" 
d="M280 606q-43 0 -71 27.5t-28 70.5q0 50 35 86t85 36q44 0 72 -27.5t28 -70.5q0 -51 -35 -86.5t-86 -35.5zM-8 -42q-19 -63 -86 -63q-26 0 -48 12l-38 -143q18 -12 52.5 -20t56.5 -8q196 0 248 199l160 599h-192z" />
    <glyph glyph-name="uni0459" unicode="&#x459;" horiz-adv-x="1012" 
d="M300 249q-17 -47 -41.5 -88.5t-60 -80.5t-85.5 -61.5t-107 -22.5q-32 0 -44 4l41 153q44 0 75.5 37.5t63.5 126.5l77 217h494l-39 -149h82q93 0 158 -44.5t65 -115.5q0 -74 -38.5 -126t-97.5 -75.5t-133 -23.5h-329l100 376h-134zM608 141h95q37 0 62 16t25 49
q0 21 -17.5 33.5t-42.5 12.5h-91z" />
    <glyph glyph-name="uni045A" unicode="&#x45a;" horiz-adv-x="969" 
d="M935 220q0 -105 -75 -162.5t-194 -57.5h-330l60 225h-151l-60 -225h-190l142 534h190l-42 -158h151l43 158h190l-43 -158h100q96 0 152.5 -43.5t56.5 -112.5zM745 202q0 19 -17 31.5t-46 12.5h-90l-28 -105h93q88 0 88 61z" />
    <glyph glyph-name="uni045B" unicode="&#x45b;" horiz-adv-x="651" 
d="M466 545q75 0 114 -44.5t39 -113.5q0 -40 -15 -98l-78 -289h-190l75 281q5 18 5 33q0 57 -57 57q-75 0 -98 -87l-76 -284h-190l162 608h-73l34 127h72l22 80h189l-22 -80h154l-33 -127h-154l-35 -133h1q72 70 154 70z" />
    <glyph glyph-name="uni045C" unicode="&#x45c;" horiz-adv-x="656" 
d="M502 819h212l-223 -196h-154zM253 254l-68 -254h-190l142 534h191l-64 -239h3l228 239h236l-277 -273l135 -261h-212l-120 254h-4z" />
    <glyph glyph-name="uni045E" unicode="&#x45e;" horiz-adv-x="625" 
d="M284 825q4 -40 27.5 -64.5t62.5 -24.5q41 0 73.5 25.5t43.5 64.5l103 -19q-26 -83 -86.5 -135.5t-144.5 -52.5q-78 0 -129.5 48t-51.5 126v13zM303 217h-1l-33 317h-187l70 -535l-165 -262h199l506 797h-201z" />
    <glyph glyph-name="uni045F" unicode="&#x45f;" horiz-adv-x="654" 
d="M345 0l-44 -164h-173l43 164h-176l142 534h190l-101 -378h148l101 378h190l-143 -534h-177z" />
    <glyph glyph-name="uni0490" unicode="&#x490;" horiz-adv-x="623" 
d="M14 0l209 783h332l45 167h190l-93 -348h-324l-161 -602h-198z" />
    <glyph glyph-name="uni0491" unicode="&#x491;" horiz-adv-x="510" 
d="M285 376l-100 -376h-190l142 534h257l44 169h174l-88 -327h-239z" />
    <glyph glyph-name="uni0496" unicode="&#x496;" horiz-adv-x="1199" 
d="M915 0h-24l-171 380h-3l-102 -380h-198l101 380h-3l-329 -380h-255l392 425l-181 358h204l178 -367l4 1l97 366h199l-97 -367h3l328 367h245l-384 -408l94 -194h139l-91 -345h-190z" />
    <glyph glyph-name="uni0497" unicode="&#x497;" horiz-adv-x="984" 
d="M712 0h-33l-100 259h-4l-69 -259h-191l68 255h-4l-202 -255h-239l258 296l-111 238h193l110 -251h3l67 251h191l-66 -247h3l209 247h224l-248 -282l43 -96h113l-86 -320h-173z" />
    <glyph glyph-name="uni0498" unicode="&#x498;" horiz-adv-x="699" 
d="M442 245q0 67 -90 67h-78l44 166h63q63 0 96 23.5t33 61.5q0 29 -23.5 47.5t-60.5 18.5q-96 0 -136 -93l-169 63q41 98 129 147.5t201 49.5q117 0 190.5 -62t73.5 -150q0 -76 -48 -128t-123 -69v-1q48 -22 75 -62.5t27 -92.5q0 -88 -69.5 -152.5t-180.5 -84.5l-42 -158
h-190l45 165q-81 24 -129 86.5t-48 155.5l181 32q-1 -5 -1 -14q0 -49 28 -77.5t78 -28.5t87 24.5t37 65.5z" />
    <glyph glyph-name="uni0499" unicode="&#x499;" horiz-adv-x="544" 
d="M523 396q0 -50 -32 -85t-82 -47h-1q68 -32 68 -103q0 -63 -47 -106t-127 -58l-43 -161h-171l43 164q-122 38 -122 167l143 25q0 -70 67 -70q32 0 54.5 14.5t22.5 39.5q0 39 -56 39h-50l32 116h37q84 0 84 48q0 16 -14.5 26t-41.5 10q-56 0 -83 -52l-136 49
q32 67 96.5 100.5t148.5 33.5q93 0 151.5 -42.5t58.5 -107.5z" />
    <glyph glyph-name="uni049A" unicode="&#x49a;" horiz-adv-x="798" 
d="M515 0h-35l-167 374l-100 -374h-199l209 783h199l-89 -332h1l315 332h252l-391 -397l102 -205h140l-91 -345h-190z" />
    <glyph glyph-name="uni049B" unicode="&#x49b;" horiz-adv-x="684" 
d="M418 0h-41l-120 254h-4l-68 -254h-190l142 534h191l-64 -239h3l228 239h236l-277 -273l54 -105h125l-86 -320h-173z" />
    <glyph glyph-name="uni04A2" unicode="&#x4a2;" horiz-adv-x="894" 
d="M591 0h-90l82 305h-290l-81 -305h-198l210 783h197l-79 -296h289l79 296h198l-161 -602h82l-92 -345h-190z" />
    <glyph glyph-name="uni04A3" unicode="&#x4a3;" horiz-adv-x="710" 
d="M429 0h-93l51 190h-151l-51 -190h-190l142 534h190l-51 -191h152l51 191h190l-101 -378h76l-86 -320h-173z" />
    <glyph glyph-name="uni04AA" unicode="&#x4aa;" horiz-adv-x="865" 
d="M349 -1q-122 28 -198.5 120t-76.5 220q0 123 62.5 228.5t169.5 167t232 61.5q71 0 129.5 -17t97 -43.5t67 -63t43 -72t20.5 -73.5l-191 -60q-32 145 -188 145q-97 0 -167 -80t-70 -178q0 -81 50 -131t137 -50q81 0 134 44.5t78 99.5l176 -68q-33 -84 -113.5 -157
t-203.5 -95l-42 -161h-190z" />
    <glyph glyph-name="uni04AB" unicode="&#x4ab;" horiz-adv-x="625" 
d="M214 -1q-84 22 -130.5 85.5t-46.5 153.5q0 129 95.5 218.5t225.5 89.5q112 0 180 -57.5t80 -138.5l-176 -50q-6 33 -29 55t-63 22q-56 0 -92 -40t-36 -93q0 -39 25 -63t69 -24q38 0 66 20t42 50l159 -60q-24 -59 -76 -104.5t-119 -63.5l-44 -163h-173z" />
    <glyph glyph-name="uni04AC" unicode="&#x4ac;" horiz-adv-x="678" 
d="M259 0h-91l162 604h-221l48 179h638l-46 -179h-221l-112 -423h81l-92 -345h-190z" />
    <glyph glyph-name="uni04AD" unicode="&#x4ad;" horiz-adv-x="558" 
d="M206 0h-95l100 376h-162l42 158h518l-42 -158h-163l-59 -220h75l-85 -320h-173z" />
    <glyph glyph-name="uni04B2" unicode="&#x4b2;" horiz-adv-x="807" 
d="M527 0h-27l-105 251l-228 -251h-237l380 410l-165 373h217l95 -229l206 229h236l-358 -387l95 -215h129l-92 -345h-190z" />
    <glyph glyph-name="uni04B3" unicode="&#x4b3;" horiz-adv-x="661" 
d="M393 0h-36l-64 141l-126 -141h-228l272 276l-136 258h209l61 -139l124 139h223l-265 -270l55 -108h125l-85 -320h-173z" />
    <glyph glyph-name="uni04B6" unicode="&#x4b6;" horiz-adv-x="831" 
d="M528 0h-90l81 301q-122 -53 -219 -53q-87 0 -143 47t-56 135q0 40 16 98l68 255h198l-62 -234q-8 -32 -8 -51q0 -71 76 -71q98 0 177 50l81 306h198l-160 -602h81l-92 -345h-190z" />
    <glyph glyph-name="uni04B7" unicode="&#x4b7;" horiz-adv-x="673" 
d="M391 0h-93l44 163q-61 -24 -143 -24q-63 0 -108 36.5t-45 106.5q0 24 10 58l51 194h192l-43 -161q-4 -15 -4 -33q0 -20 13 -31.5t31 -11.5q48 0 88 22l57 215h190l-101 -378h75l-85 -320h-173z" />
    <glyph glyph-name="uni04C0" unicode="&#x4c0;" horiz-adv-x="362" 
d="M421 783l-210 -783h-197l209 783h198z" />
    <glyph glyph-name="uni04C1" unicode="&#x4c1;" horiz-adv-x="1166" 
d="M667 1062q4 -40 27.5 -64.5t62.5 -24.5q41 0 73.5 25.5t44.5 64.5l103 -20q-27 -83 -87.5 -135t-144.5 -52q-78 0 -129.5 48t-51.5 126v13zM186 0h-255l392 425l-181 358h204l178 -367l4 1l97 366h199l-97 -367h3l328 367h245l-384 -408l182 -375h-210l-171 380h-3
l-102 -380h-198l101 380h-3z" />
    <glyph glyph-name="uni04C2" unicode="&#x4c2;" horiz-adv-x="957" 
d="M493 825q4 -40 27.5 -64.5t62.5 -24.5q40 0 72.5 25.5t44.5 64.5l103 -19q-27 -83 -87.5 -135.5t-144.5 -52.5q-78 0 -129.5 48t-51.5 126q0 9 1 13zM583 287h3l209 247h224l-248 -282l112 -252h-204l-100 259h-4l-69 -259h-191l68 255h-4l-202 -255h-239l258 296
l-111 238h193l110 -251h3l67 251h191z" />
    <glyph glyph-name="uni04CF" unicode="&#x4cf;" horiz-adv-x="318" 
d="M137 534h192l-143 -534h-191z" />
    <glyph glyph-name="uni04D0" unicode="&#x4d0;" horiz-adv-x="818" 
d="M480 1062q4 -40 27.5 -64.5t62.5 -24.5q41 0 73.5 25.5t43.5 64.5l104 -20q-27 -83 -87.5 -135t-144.5 -52q-78 0 -129.5 48t-51.5 126v13zM235 144l-90 -144h-213l494 783h225l121 -783h-204l-21 144h-312zM525 311l-36 256l-154 -256h190z" />
    <glyph glyph-name="uni04D1" unicode="&#x4d1;" horiz-adv-x="689" 
d="M339 825q4 -40 27.5 -64.5t62.5 -24.5q40 0 72.5 25.5t44.5 64.5l103 -19q-27 -84 -87.5 -136t-144.5 -52q-78 0 -129.5 48t-51.5 126q0 9 1 13zM382 58q-71 -69 -154 -69q-90 0 -142 64t-52 154q0 137 86.5 237t207.5 100q105 0 161 -78h1l19 68h190l-142 -534h-188
l15 58h-2zM318 157q51 0 90 40t39 95q0 38 -25.5 61.5t-64.5 23.5q-53 0 -91.5 -40.5t-38.5 -95.5q0 -38 24.5 -61t66.5 -23z" />
    <glyph glyph-name="uni04D2" unicode="&#x4d2;" horiz-adv-x="818" 
d="M422 865q-39 0 -64.5 25t-25.5 64q0 46 32 78t78 32q39 0 64.5 -24.5t25.5 -63.5q0 -46 -32 -78.5t-78 -32.5zM692 865q-40 0 -65 24.5t-25 64.5q0 46 31.5 78t77.5 32q39 0 64.5 -24.5t25.5 -63.5q0 -46 -31.5 -78.5t-77.5 -32.5zM235 144l-90 -144h-213l494 783h225
l121 -783h-204l-21 144h-312zM525 311l-36 256l-154 -256h190z" />
    <glyph glyph-name="uni04D3" unicode="&#x4d3;" horiz-adv-x="689" 
d="M317 616q-39 0 -64 25t-25 64q0 46 31.5 78t77.5 32q39 0 64.5 -24.5t25.5 -63.5q0 -47 -32 -79t-78 -32zM577 616q-39 0 -64 24.5t-25 64.5q0 46 31.5 78t77.5 32q39 0 64.5 -24.5t25.5 -63.5q0 -47 -32 -79t-78 -32zM382 58q-71 -69 -154 -69q-90 0 -142 64t-52 154
q0 137 86.5 237t207.5 100q105 0 161 -78h1l19 68h190l-142 -534h-188l15 58h-2zM318 157q51 0 90 40t39 95q0 38 -25.5 61.5t-64.5 23.5q-53 0 -91.5 -40.5t-38.5 -95.5q0 -38 24.5 -61t66.5 -23z" />
    <glyph glyph-name="uni04D4" unicode="&#x4d4;" horiz-adv-x="1093" 
d="M-75 0l573 783h679l-47 -175h-346l-34 -128h314l-45 -169h-314l-37 -135h350l-47 -176h-541l33 124h-223l-89 -124h-226zM356 291h152l86 322h-10z" />
    <glyph glyph-name="uni04D5" unicode="&#x4d5;" horiz-adv-x="944" 
d="M354 546q97 0 157 -51q79 51 162 51q100 0 171.5 -59.5t71.5 -159.5q0 -54 -22 -108h-367q0 -38 31 -60.5t66 -22.5q76 0 106 54l148 -67q-39 -73 -111.5 -104t-147.5 -31q-139 0 -216 90q-51 -51 -103 -70.5t-127 -19.5h-4q-65 0 -112 38.5t-47 103.5q0 44 20.5 78
t54 53t67.5 29t71 13l110 8q22 2 38 15t16 33q0 22 -18 32.5t-41 10.5q-36 0 -61.5 -19t-35.5 -48l-161 51q25 67 99 113.5t185 46.5zM665 401q-35 0 -69.5 -21t-48.5 -55h192q2 7 2 16q0 29 -21.5 44.5t-54.5 15.5zM248 122q35 0 62 20t34 55l4 21l-67 -7q-76 -7 -76 -50
q0 -17 12 -28t31 -11z" />
    <glyph glyph-name="uni04D6" unicode="&#x4d6;" horiz-adv-x="686" 
d="M442 1062q4 -40 27.5 -64.5t62.5 -24.5q41 0 73.5 25.5t43.5 64.5l103 -20q-26 -83 -86.5 -135t-144.5 -52q-78 0 -129.5 48t-51.5 126v13zM769 783l-47 -175h-348l-35 -128h318l-46 -169h-317l-36 -135h352l-47 -176h-549l209 783h546z" />
    <glyph glyph-name="uni04D7" unicode="&#x4d7;" horiz-adv-x="632" 
d="M318 825q4 -40 27.5 -64.5t62.5 -24.5q41 0 73.5 25.5t43.5 64.5l103 -19q-26 -83 -86.5 -135.5t-144.5 -52.5q-78 0 -129.5 48t-51.5 126v13zM215 219q0 -38 31 -60.5t66 -22.5q76 0 106 54l148 -67q-39 -73 -111.5 -104t-147.5 -31q-119 0 -195 68t-76 180
q0 126 97 218t228 92q100 0 171.5 -59.5t71.5 -159.5q0 -54 -22 -108h-367zM353 401q-35 0 -69.5 -21t-48.5 -55h191q2 7 2 16q0 29 -21 44.5t-54 15.5z" />
    <glyph glyph-name="uni04DC" unicode="&#x4dc;" horiz-adv-x="1166" 
d="M628 865q-39 0 -64.5 25t-25.5 64q0 46 31.5 78t77.5 32q39 0 65 -24.5t26 -63.5q0 -46 -32 -78.5t-78 -32.5zM894 865q-40 0 -65 24.5t-25 64.5q0 46 31.5 78t77.5 32q39 0 64.5 -24.5t25.5 -63.5q0 -46 -31.5 -78.5t-77.5 -32.5zM186 0h-255l392 425l-181 358h204
l178 -367l4 1l97 366h199l-97 -367h3l328 367h245l-384 -408l182 -375h-210l-171 380h-3l-102 -380h-198l101 380h-3z" />
    <glyph glyph-name="uni04DD" unicode="&#x4dd;" horiz-adv-x="957" 
d="M455 616q-39 0 -64.5 25t-25.5 64q0 46 31.5 78t77.5 32q39 0 64.5 -24.5t25.5 -63.5q0 -47 -31.5 -79t-77.5 -32zM714 616q-39 0 -64 25t-25 64q0 46 31.5 78t77.5 32q39 0 65 -24.5t26 -63.5q0 -47 -32.5 -79t-78.5 -32zM583 287h3l209 247h224l-248 -282l112 -252
h-204l-100 259h-4l-69 -259h-191l68 255h-4l-202 -255h-239l258 296l-111 238h193l110 -251h3l67 251h191z" />
    <glyph glyph-name="uni04DE" unicode="&#x4de;" horiz-adv-x="706" 
d="M376 865q-39 0 -64.5 25t-25.5 64q0 46 32 78t78 32q39 0 64.5 -24.5t25.5 -63.5q0 -46 -32 -78.5t-78 -32.5zM646 865q-40 0 -65 24.5t-25 64.5q0 46 31.5 78t77.5 32q39 0 64.5 -24.5t25.5 -63.5q0 -46 -31.5 -78.5t-77.5 -32.5zM723 584q0 -76 -46.5 -127.5
t-121.5 -69.5q98 -49 98 -156q0 -106 -97 -175t-243 -69q-124 0 -203.5 68t-79.5 188l181 32q-1 -5 -1 -14q0 -48 30 -77t82 -29t89.5 24t37.5 66q0 29 -23 47.5t-69 18.5h-99l45 168h83q62 0 96 23.5t34 60.5q0 30 -23 48t-63 18q-100 0 -140 -93l-169 63q41 98 130 147.5
t204 49.5q120 0 194 -62t74 -150z" />
    <glyph glyph-name="uni04DF" unicode="&#x4df;" horiz-adv-x="547" 
d="M350 727q0 -47 -32 -79t-78 -32q-39 0 -64.5 25t-25.5 64q0 46 32 78t78 32q39 0 64.5 -24.5t25.5 -63.5zM610 727q0 -47 -32 -79t-78 -32q-39 0 -64 24.5t-25 64.5q0 46 31.5 78t77.5 32q39 0 64.5 -24.5t25.5 -63.5zM526 396q0 -50 -32 -85t-82 -47h-1q68 -32 68 -103
q0 -79 -73 -126t-188 -47q-90 0 -148 45.5t-58 133.5l143 25q0 -70 67 -70q32 0 54.5 14.5t22.5 39.5q0 39 -56 39h-50l32 116h37q84 0 84 48q0 16 -14.5 26t-41.5 10q-56 0 -83 -52l-136 49q32 67 96.5 100.5t148.5 33.5q93 0 151.5 -42.5t58.5 -107.5z" />
    <glyph glyph-name="uni04E2" unicode="&#x4e2;" horiz-adv-x="862" 
d="M822 1004l-36 -136h-386l37 136h385zM419 783l-127 -472h1l406 472h221l-209 -783h-195l127 474h-2l-405 -474h-222l209 783h196z" />
    <glyph glyph-name="uni04E3" unicode="&#x4e3;" horiz-adv-x="665" 
d="M657 765l-36 -137h-386l36 137h386zM173 0h-178l142 534h185l-68 -256l1 -1l239 257h182l-143 -534h-185l69 262l-1 1z" />
    <glyph glyph-name="uni04E4" unicode="&#x4e4;" horiz-adv-x="862" 
d="M469 865q-39 0 -64.5 25t-25.5 64q0 46 32 78t78 32q39 0 64.5 -24.5t25.5 -63.5q0 -46 -32 -78.5t-78 -32.5zM739 865q-40 0 -65 24.5t-25 64.5q0 46 31.5 78t77.5 32q39 0 64.5 -24.5t25.5 -63.5q0 -46 -31.5 -78.5t-77.5 -32.5zM419 783l-127 -472h1l406 472h221
l-209 -783h-195l127 474h-2l-405 -474h-222l209 783h196z" />
    <glyph glyph-name="uni04E5" unicode="&#x4e5;" horiz-adv-x="665" 
d="M309 616q-39 0 -64.5 25t-25.5 64q0 46 32 78t78 32q39 0 64.5 -24.5t25.5 -63.5q0 -47 -32 -79t-78 -32zM569 616q-39 0 -64.5 25t-25.5 64q0 46 31.5 78t77.5 32q40 0 65.5 -24.5t25.5 -63.5q0 -46 -32 -78.5t-78 -32.5zM173 0h-178l142 534h185l-68 -256l1 -1l239 257
h182l-143 -534h-185l69 262l-1 1z" />
    <glyph glyph-name="uni04E6" unicode="&#x4e6;" horiz-adv-x="912" 
d="M437 865q-39 0 -64.5 25t-25.5 64q0 46 32 78t78 32q39 0 64.5 -24.5t25.5 -63.5q0 -46 -32 -78.5t-78 -32.5zM707 865q-40 0 -65 24.5t-25 64.5q0 46 31.5 78t77.5 32q39 0 64.5 -24.5t25.5 -63.5q0 -46 -31.5 -78.5t-77.5 -32.5zM539 796q165 0 268 -99.5t103 -248.5
q0 -126 -64 -232.5t-170 -167t-229 -60.5q-153 0 -263 94t-110 256q0 192 137 325t328 133zM279 354q0 -85 52.5 -133t131.5 -48q99 0 170.5 78.5t71.5 180.5q0 77 -50 128.5t-134 51.5q-99 0 -170.5 -78.5t-71.5 -179.5z" />
    <glyph glyph-name="uni04E7" unicode="&#x4e7;" horiz-adv-x="654" 
d="M271 616q-39 0 -64 25t-25 64q0 46 31.5 78t77.5 32q39 0 64.5 -24.5t25.5 -63.5q0 -47 -32 -79t-78 -32zM531 616q-39 0 -64 24.5t-25 64.5q0 46 31.5 78t77.5 32q39 0 65 -24.5t26 -63.5q0 -47 -32 -79t-79 -32zM302 -12q136 0 228.5 93t92.5 217q0 108 -71.5 178
t-195.5 70q-136 0 -228 -93t-92 -217q0 -109 71 -178.5t195 -69.5zM312 157q-44 0 -67 25t-23 63q0 53 35.5 92.5t88.5 39.5q40 0 65.5 -24.5t25.5 -63.5q0 -54 -37 -93t-88 -39z" />
    <glyph glyph-name="uni04E8" unicode="&#x4e8;" horiz-adv-x="912" 
d="M539 796q165 0 268 -99.5t103 -248.5q0 -126 -64 -232.5t-170 -167t-229 -60.5q-153 0 -263 94t-110 256q0 192 137 325t328 133zM521 612q-67 0 -127 -40.5t-86 -99.5h394q-11 61 -60 100.5t-121 39.5zM463 173q70 0 129.5 41.5t86.5 103.5h-398q11 -69 61.5 -107
t120.5 -38z" />
    <glyph glyph-name="uni04E9" unicode="&#x4e9;" horiz-adv-x="654" 
d="M302 -12q-124 0 -195 69.5t-71 178.5q0 124 92 217t228 93q124 0 195.5 -70t71.5 -178q0 -124 -92.5 -217t-228.5 -93zM453 315q-7 37 -35 59t-69 22t-76 -23t-51 -58h231zM205 220q6 -36 33 -59t71 -23q42 0 77 23t51 59h-232z" />
    <glyph glyph-name="uni04EA" unicode="&#x4ea;" horiz-adv-x="912" 
d="M437 865q-39 0 -64.5 25t-25.5 64q0 46 32 78t78 32q39 0 64.5 -24.5t25.5 -63.5q0 -46 -32 -78.5t-78 -32.5zM707 865q-40 0 -65 24.5t-25 64.5q0 46 31.5 78t77.5 32q39 0 64.5 -24.5t25.5 -63.5q0 -46 -31.5 -78.5t-77.5 -32.5zM539 796q165 0 268 -99.5t103 -248.5
q0 -126 -64 -232.5t-170 -167t-229 -60.5q-153 0 -263 94t-110 256q0 192 137 325t328 133zM521 612q-67 0 -127 -40.5t-86 -99.5h394q-11 61 -60 100.5t-121 39.5zM463 173q70 0 129.5 41.5t86.5 103.5h-398q11 -69 61.5 -107t120.5 -38z" />
    <glyph glyph-name="uni04EB" unicode="&#x4eb;" horiz-adv-x="654" 
d="M271 616q-39 0 -64 25t-25 64q0 46 31.5 78t77.5 32q39 0 64.5 -24.5t25.5 -63.5q0 -47 -32 -79t-78 -32zM531 616q-39 0 -64 24.5t-25 64.5q0 46 31.5 78t77.5 32q39 0 65 -24.5t26 -63.5q0 -47 -32 -79t-79 -32zM302 -12q-124 0 -195 69.5t-71 178.5q0 124 92 217
t228 93q124 0 195.5 -70t71.5 -178q0 -124 -92.5 -217t-228.5 -93zM453 315q-7 37 -35 59t-69 22t-76 -23t-51 -58h231zM205 220q6 -36 33 -59t71 -23q42 0 77 23t51 59h-232z" />
    <glyph glyph-name="uni04EC" unicode="&#x4ec;" horiz-adv-x="864" 
d="M382 865q-43 0 -71 28.5t-28 71.5q0 42 28 70.5t71 28.5q42 0 70.5 -28.5t28.5 -70.5q0 -43 -28 -71.5t-71 -28.5zM671 865q-43 0 -71 28.5t-28 71.5q0 42 28 70.5t71 28.5t71.5 -28.5t28.5 -70.5q0 -43 -28.5 -71.5t-71.5 -28.5zM776 677q84 -95 84 -228
q0 -108 -40 -197.5t-105.5 -146t-146.5 -87t-166 -30.5q-142 0 -244 74t-122 198l190 60q17 -77 69.5 -113t123.5 -36q67 0 125 39.5t89 104.5h-284l43 161h265q-11 57 -60.5 98t-118.5 41q-71 0 -126.5 -38.5t-85.5 -105.5l-175 68q55 125 165.5 191t239.5 66
q84 0 157 -31.5t123 -87.5z" />
    <glyph glyph-name="uni04ED" unicode="&#x4ed;" horiz-adv-x="608" 
d="M199 616q-39 0 -64.5 25t-25.5 64q0 46 31.5 78t77.5 32q40 0 65.5 -24.5t25.5 -63.5q0 -46 -32 -78.5t-78 -32.5zM458 616q-39 0 -64 25t-25 64q0 46 31.5 78t77.5 32q39 0 65 -24.5t26 -63.5q0 -47 -32.5 -79t-78.5 -32zM311 546q122 0 194 -70t72 -177
q0 -91 -47.5 -164t-120.5 -110t-154 -37q-87 0 -156 43t-89 131l167 48q15 -63 91 -63q74 0 112 70h-143l27 102h133q-9 31 -34.5 49.5t-58.5 18.5q-69 0 -106 -62l-151 52q36 78 108 123.5t156 45.5z" />
    <glyph glyph-name="uni04EE" unicode="&#x4ee;" horiz-adv-x="739" 
d="M750 1004l-36 -136h-385l36 136h385zM489 243q-32 -43 -58 -74.5t-64 -67.5t-74 -59t-81.5 -38.5t-93.5 -15.5q-56 0 -124 22l47 172q44 -18 87 -18q82 0 154 86l-149 533h212l80 -334l242 334h223z" />
    <glyph glyph-name="uni04EF" unicode="&#x4ef;" horiz-adv-x="625" 
d="M642 765l-37 -137h-385l36 137h386zM152 -1l-70 535h187l33 -317h1l188 317h201l-506 -797h-199z" />
    <glyph glyph-name="uni04F0" unicode="&#x4f0;" horiz-adv-x="739" 
d="M506 965q0 -43 -28.5 -71.5t-71.5 -28.5t-71 28.5t-28 71.5q0 42 28 70.5t71 28.5t71.5 -28.5t28.5 -70.5zM795 965q0 -43 -28.5 -71.5t-71.5 -28.5t-71 28.5t-28 71.5q0 42 28.5 70.5t70.5 28.5q43 0 71.5 -28.5t28.5 -70.5zM489 243q-32 -43 -58 -74.5t-64 -67.5
t-74 -59t-81.5 -38.5t-93.5 -15.5q-56 0 -124 22l47 172q44 -18 87 -18q82 0 154 86l-149 533h212l80 -334l242 334h223z" />
    <glyph glyph-name="uni04F1" unicode="&#x4f1;" horiz-adv-x="625" 
d="M295 616q-39 0 -64 25t-25 64q0 46 31.5 78t77.5 32q39 0 64.5 -24.5t25.5 -63.5q0 -47 -32 -79t-78 -32zM555 616q-39 0 -64 24.5t-25 64.5q0 46 31.5 78t77.5 32q39 0 65 -24.5t26 -63.5q0 -47 -32 -79t-79 -32zM152 -1l-70 535h187l33 -317h1l188 317h201l-506 -797
h-199z" />
    <glyph glyph-name="uni04F2" unicode="&#x4f2;" horiz-adv-x="739" 
d="M470 1048h212l-224 -196h-153zM727 1048h211l-223 -196h-153zM489 243q-32 -43 -58 -74.5t-64 -67.5t-74 -59t-81.5 -38.5t-93.5 -15.5q-56 0 -124 22l47 172q44 -18 87 -18q82 0 154 86l-149 533h212l80 -334l242 334h223z" />
    <glyph glyph-name="uni04F3" unicode="&#x4f3;" horiz-adv-x="625" 
d="M338 819h212l-223 -196h-154zM595 819h212l-224 -196h-153zM152 -1l-70 535h187l33 -317h1l188 317h201l-506 -797h-199z" />
    <glyph glyph-name="uni04F4" unicode="&#x4f4;" horiz-adv-x="787" 
d="M412 865q-39 0 -64.5 25t-25.5 64q0 46 32 78t78 32q39 0 64.5 -24.5t25.5 -63.5q0 -46 -32 -78.5t-78 -32.5zM682 865q-40 0 -65 24.5t-25 64.5q0 46 31.5 78t77.5 32q39 0 64.5 -24.5t25.5 -63.5q0 -46 -31.5 -78.5t-77.5 -32.5zM519 301q-122 -53 -219 -53
q-87 0 -143 47t-56 135q0 40 16 98l68 255h198l-62 -234q-8 -32 -8 -51q0 -71 76 -71q98 0 177 50l81 306h198l-209 -783h-198z" />
    <glyph glyph-name="uni04F5" unicode="&#x4f5;" horiz-adv-x="620" 
d="M277 616q-39 0 -64.5 25t-25.5 64q0 46 32 78t78 32q39 0 64.5 -24.5t25.5 -63.5q0 -47 -32 -79t-78 -32zM537 616q-39 0 -64 24.5t-25 64.5q0 46 31.5 78t77.5 32q39 0 64.5 -24.5t25.5 -63.5q0 -47 -32 -79t-78 -32zM342 163q-61 -24 -143 -24q-63 0 -108 36.5
t-45 106.5q0 24 10 58l51 194h192l-43 -161q-4 -15 -4 -33q0 -20 13 -31.5t31 -11.5q48 0 88 22l57 215h190l-142 -534h-191z" />
    <glyph glyph-name="uni04F8" unicode="&#x4f8;" horiz-adv-x="1146" 
d="M609 865q-39 0 -64.5 25t-25.5 64q0 46 32 78t78 32q39 0 64.5 -24.5t25.5 -63.5q0 -46 -32 -78.5t-78 -32.5zM879 865q-40 0 -65 24.5t-25 64.5q0 46 31.5 78t77.5 32q39 0 64.5 -24.5t25.5 -63.5q0 -46 -31.5 -78.5t-77.5 -32.5zM461 507q120 0 195 -57t75 -153
q0 -141 -98 -219t-255 -78h-364l209 783h198l-73 -276h113zM1204 783l-209 -783h-198l209 783h198zM258 174h141q57 0 93 24.5t36 72.5q0 32 -24 50.5t-64 18.5h-137z" />
    <glyph glyph-name="uni04F9" unicode="&#x4f9;" horiz-adv-x="944" 
d="M452 616q-39 0 -64.5 25t-25.5 64q0 46 32 78t78 32q39 0 64.5 -24.5t25.5 -63.5q0 -47 -32 -79t-78 -32zM712 616q-39 0 -64 24.5t-25 64.5q0 46 31 78t77 32q40 0 65.5 -24.5t25.5 -63.5q0 -46 -32 -78.5t-78 -32.5zM137 534h190l-39 -149h82q93 0 158 -44.5t65 -115.5
q0 -109 -77 -167t-191 -58h-330zM764 534h191l-143 -534h-191zM223 141h94q37 0 61.5 16t24.5 49q0 22 -17 34t-42 12h-92z" />
    <glyph glyph-name="uni0E3F" unicode="&#xe3f;" horiz-adv-x="761" 
d="M271 0h-255l209 783h254l29 109h75l-30 -112q215 -25 215 -185q0 -78 -50.5 -130.5t-127.5 -68.5v-2q57 -17 88.5 -58.5t31.5 -97.5q0 -106 -91 -172t-265 -66h-9l-28 -102l-74 -1zM372 622l-39 -147h66l39 147h-66zM470 476q44 4 72 24.5t28 59.5q0 50 -62 59zM292 318
l-42 -152h66l41 152h-65zM387 166q51 0 87.5 22t36.5 65q0 61 -83 65z" />
    <glyph glyph-name="uni1E20" unicode="&#x1e20;" horiz-adv-x="874" 
d="M783 994l-36 -136h-386l36 136h386zM685 501q-11 47 -53 80.5t-114 33.5q-97 0 -170.5 -80.5t-73.5 -181.5q0 -80 50.5 -133t140.5 -53q64 0 113.5 29t74.5 77h-226l37 155h415q-3 -86 -31.5 -164t-81 -140.5t-135.5 -99.5t-185 -37q-165 0 -268 98t-103 253
q0 129 63.5 234.5t169.5 164t231 58.5q80 0 144 -22t102.5 -58.5t61 -75.5t30.5 -80z" />
    <glyph glyph-name="uni1E21" unicode="&#x1e21;" horiz-adv-x="686" 
d="M655 765l-36 -137h-386l36 137h386zM228 -106q-49 0 -77 28t-28 71l-172 -34q0 -41 16.5 -80t49 -72t87.5 -53.5t125 -20.5q195 0 290 175q18 34 42 117l135 509h-188l-20 -72h-1q-56 80 -164 80q-117 0 -202 -97t-85 -229q0 -85 56.5 -145.5t136.5 -60.5q45 0 78 14.5
t73 43.5l-11 -41q-36 -133 -141 -133zM316 167q-40 0 -63.5 22t-23.5 59q0 53 36.5 91.5t87.5 38.5q39 0 63 -22.5t24 -58.5q0 -53 -37.5 -91.5t-86.5 -38.5z" />
    <glyph glyph-name="uni1E30" unicode="&#x1e30;" horiz-adv-x="763" 
d="M625 1048h211l-223 -196h-154zM214 0h-199l209 783h199l-89 -332h1l315 332h252l-391 -397l191 -386h-221l-168 374z" />
    <glyph glyph-name="uni1E31" unicode="&#x1e31;" horiz-adv-x="638" 
d="M601 819h211l-223 -196h-153zM212 815h190l-133 -500h3l201 219h236l-257 -265l118 -269h-206l-109 263l-70 -263h-190z" />
    <glyph glyph-name="uni1E60" unicode="&#x1e60;" horiz-adv-x="705" 
d="M450 855q-43 0 -71 27.5t-28 70.5q0 50 35 86t85 36q44 0 72 -27.5t28 -70.5q0 -51 -35 -86.5t-86 -35.5zM459 229q0 50 -70 71l-66 20q-88 26 -141 84.5t-53 128.5q0 84 46 145t114.5 89.5t147.5 28.5q76 0 134.5 -22t91 -58t48 -75.5t15.5 -79.5l-184 -31
q0 39 -26.5 71t-83.5 32q-51 0 -76 -25t-25 -51q0 -49 65 -69l67 -21q99 -30 149.5 -92.5t50.5 -126.5q0 -124 -85 -191.5t-229 -67.5q-57 0 -111.5 15t-100 44t-73 77.5t-27.5 109.5q0 15 1 23l175 31q-1 -6 -1 -19q0 -54 38 -85.5t93 -31.5q58 0 87 24t29 52z" />
    <glyph glyph-name="uni1E61" unicode="&#x1e61;" horiz-adv-x="537" 
d="M313 606q-43 0 -71 27.5t-28 70.5q0 50 35.5 86t85.5 36q44 0 72 -27.5t28 -70.5q0 -51 -35.5 -86.5t-86.5 -35.5zM303 546q-98 0 -163.5 -52.5t-65.5 -129.5q0 -61 38 -96t104 -57l37 -13q40 -13 40 -38q0 -14 -14 -26t-43 -12q-31 0 -54 18t-22 47l-154 -25v-9
q0 -25 11 -51t35.5 -53t72.5 -44t112 -17q112 0 176.5 53.5t64.5 125.5q0 69 -39 106t-103 58l-52 17q-31 10 -31 30q0 12 12 24t36 12q21 0 38.5 -13t17.5 -39l160 18v3q0 59 -56 111t-158 52z" />
    <glyph glyph-name="Wgrave" unicode="&#x1e80;" horiz-adv-x="1201" 
d="M797 852h-134l-149 196h197zM385 0h-200l-45 783h201l15 -495h3l268 495h190l38 -496h2l252 496h210l-417 -783h-203l-32 522z" />
    <glyph glyph-name="wgrave" unicode="&#x1e81;" horiz-adv-x="909" 
d="M602 623h-134l-150 196h198zM84 534h187l6 -287h1l170 287h155l19 -289h1l165 289h184l-312 -534h-181l-16 286h-1l-170 -286h-180z" />
    <glyph glyph-name="Wacute" unicode="&#x1e82;" horiz-adv-x="1201" 
d="M824 1048h212l-224 -196h-153zM385 0h-200l-45 783h201l15 -495h3l268 495h190l38 -496h2l252 496h210l-417 -783h-203l-32 522z" />
    <glyph glyph-name="wacute" unicode="&#x1e83;" horiz-adv-x="909" 
d="M626 819h212l-223 -196h-154zM84 534h187l6 -287h1l170 287h155l19 -289h1l165 289h184l-312 -534h-181l-16 286h-1l-170 -286h-180z" />
    <glyph glyph-name="Wdieresis" unicode="&#x1e84;" horiz-adv-x="1201" 
d="M620 865q-39 0 -64.5 25t-25.5 64q0 46 32 78t78 32q39 0 64.5 -24.5t25.5 -63.5q0 -46 -32 -78.5t-78 -32.5zM890 865q-40 0 -65 24.5t-25 64.5q0 46 31.5 78t77.5 32q39 0 64.5 -24.5t25.5 -63.5q0 -46 -31.5 -78.5t-77.5 -32.5zM385 0h-200l-45 783h201l15 -495h3
l268 495h190l38 -496h2l252 496h210l-417 -783h-203l-32 522z" />
    <glyph glyph-name="wdieresis" unicode="&#x1e85;" horiz-adv-x="909" 
d="M429 616q-39 0 -64.5 25t-25.5 64q0 46 32 78t78 32q39 0 64.5 -24.5t25.5 -63.5q0 -47 -32 -79t-78 -32zM689 616q-39 0 -64 24.5t-25 64.5q0 46 31 78t77 32q40 0 65.5 -24.5t25.5 -63.5q0 -46 -32 -78.5t-78 -32.5zM84 534h187l6 -287h1l170 287h155l19 -289h1
l165 289h184l-312 -534h-181l-16 286h-1l-170 -286h-180z" />
    <glyph glyph-name="uni1E90" unicode="&#x1e90;" horiz-adv-x="696" 
d="M536 955l-88 -101h-158l176 189h172l79 -189h-147zM789 783h-591l-48 -174h331l-465 -442l-44 -167h609l47 176h-350l467 442z" />
    <glyph glyph-name="uni1E91" unicode="&#x1e91;" horiz-adv-x="556" 
d="M395 726l-88 -102h-158l176 189h172l79 -189h-147zM252 156l295 237l37 141h-460l-41 -157h212l-281 -226l-42 -151h473l41 156h-234z" />
    <glyph glyph-name="uni1EBC" unicode="&#x1ebc;" horiz-adv-x="686" 
d="M601 854q-38 0 -80.5 27t-62.5 27q-30 0 -47 -53h-105l8 34q17 64 56.5 103t99.5 39q36 0 78.5 -26t61.5 -26q14 0 25 8.5t15 16.5t11 25h102q-6 -26 -10 -39q-17 -61 -56 -98.5t-96 -37.5zM770 783l-47 -175h-349l-35 -128h318l-45 -169h-318l-36 -135h352l-47 -176
h-548l209 783h546z" />
    <glyph glyph-name="uni1EBD" unicode="&#x1ebd;" horiz-adv-x="632" 
d="M477 624q-39 0 -81.5 27t-61.5 27q-33 0 -47 -53h-106l9 35q16 64 55.5 103t99.5 39q36 0 78.5 -26.5t61.5 -26.5q15 0 26 8.5t15 16.5t11 25h101l-9 -38q-17 -61 -56.5 -99t-95.5 -38zM215 219q0 -38 31 -60.5t66 -22.5q76 0 106 54l148 -67q-39 -73 -111.5 -104
t-147.5 -31q-119 0 -195 68t-76 180q0 126 97 218t228 92q100 0 171.5 -59.5t71.5 -159.5q0 -54 -22 -108h-367zM353 401q-35 0 -69.5 -21t-48.5 -55h191q2 7 2 16q0 29 -21 44.5t-54 15.5z" />
    <glyph glyph-name="Ygrave" unicode="&#x1ef2;" horiz-adv-x="761" 
d="M595 852h-134l-149 196h197zM209 0l82 310l-143 473h210l78 -287l231 287h233l-416 -495l-77 -288h-198z" />
    <glyph glyph-name="ygrave" unicode="&#x1ef3;" horiz-adv-x="625" 
d="M472 623h-134l-150 196h198zM152 -1l-70 535h187l33 -317h1l188 317h201l-506 -797h-199z" />
    <glyph glyph-name="endash" unicode="&#x2013;" horiz-adv-x="614" 
d="M593 404l-42 -157h-495l42 157h495z" />
    <glyph glyph-name="emdash" unicode="&#x2014;" horiz-adv-x="998" 
d="M977 404l-42 -157h-879l42 157h879z" />
    <glyph glyph-name="quoteleft" unicode="&#x2018;" horiz-adv-x="327" 
d="M114 523q0 85 55.5 156.5t139.5 122.5l57 -60q-95 -56 -141 -130q22 10 43 10q39 0 62 -24t23 -61q0 -54 -40.5 -91.5t-94.5 -37.5q-48 0 -76 33t-28 82z" />
    <glyph glyph-name="quoteright" unicode="&#x2019;" horiz-adv-x="328" 
d="M394 679q0 -84 -56 -155.5t-140 -123.5l-56 60q92 55 140 130q-19 -9 -42 -9q-39 0 -62.5 23.5t-23.5 60.5q0 54 40.5 91.5t94.5 37.5q48 0 76.5 -33t28.5 -82z" />
    <glyph glyph-name="quotesinglbase" unicode="&#x201a;" horiz-adv-x="332" 
d="M248 106q0 -84 -56 -155.5t-140 -123.5l-56 60q93 55 140 130q-20 -10 -42 -10q-39 0 -62.5 24t-23.5 61q0 54 40.5 91.5t94.5 37.5q48 0 76.5 -33t28.5 -82z" />
    <glyph glyph-name="quotedblleft" unicode="&#x201c;" horiz-adv-x="600" 
d="M114 523q0 85 55.5 156.5t139.5 122.5l57 -60q-95 -56 -141 -130q22 10 43 10q39 0 62 -24t23 -61q0 -54 -40.5 -91.5t-94.5 -37.5q-48 0 -76 33t-28 82zM389 523q0 84 56 155.5t140 123.5l56 -60q-93 -55 -140 -130q22 10 42 10q39 0 62.5 -24t23.5 -61
q0 -54 -40.5 -91.5t-94.5 -37.5q-48 0 -76.5 33t-28.5 82z" />
    <glyph glyph-name="quotedblright" unicode="&#x201d;" horiz-adv-x="601" 
d="M393 679q0 -84 -56 -155.5t-140 -123.5l-56 60q92 55 140 130q-19 -9 -42 -9q-39 0 -62.5 23.5t-23.5 60.5q0 54 40.5 91.5t94.5 37.5q48 0 76.5 -33t28.5 -82zM668 679q0 -85 -55.5 -156.5t-139.5 -122.5l-57 60q93 56 141 130q-19 -9 -43 -9q-39 0 -62 23.5t-23 60.5
q0 54 40.5 91.5t94.5 37.5q48 0 76 -33t28 -82z" />
    <glyph glyph-name="quotedblbase" unicode="&#x201e;" horiz-adv-x="605" 
d="M245 106q0 -84 -55.5 -155.5t-139.5 -123.5l-57 60q95 56 141 130q-22 -10 -43 -10q-39 0 -62 24t-23 61q0 55 40 92t95 37q48 0 76 -33t28 -82zM521 106q0 -84 -56 -155.5t-140 -123.5l-56 60q93 55 140 130q-22 -10 -42 -10q-39 0 -62.5 24t-23.5 61q0 54 40.5 91.5
t94.5 37.5q48 0 76.5 -33t28.5 -82z" />
    <glyph glyph-name="dagger" unicode="&#x2020;" horiz-adv-x="709" 
d="M196 0l106 397h-187l42 158h187l61 229h179l-61 -229h188l-42 -158h-188l-106 -397h-179z" />
    <glyph glyph-name="daggerdbl" unicode="&#x2021;" horiz-adv-x="709" 
d="M142 -206l55 206h-212l42 159h212l58 217h-212l42 158h212l56 207h178l-55 -207h212l-42 -158h-212l-58 -217h212l-42 -159h-213l-55 -206h-178z" />
    <glyph glyph-name="bullet" unicode="&#x2022;" horiz-adv-x="495" 
d="M257 190q-78 0 -124 44t-46 112q0 78 59.5 137t144.5 59q78 0 124.5 -44.5t46.5 -112.5q0 -78 -59.5 -136.5t-145.5 -58.5z" />
    <glyph glyph-name="ellipsis" unicode="&#x2026;" horiz-adv-x="991" 
d="M119 -12q-44 0 -76 32t-32 76q0 45 32 77t76 32q46 0 77.5 -32t31.5 -77q0 -44 -32 -76t-77 -32zM462 -12q-44 0 -76 32t-32 76q0 45 32 77t76 32q45 0 76.5 -32t31.5 -77t-31.5 -76.5t-76.5 -31.5zM806 -12q-44 0 -76 32t-32 76q0 45 31.5 77t76.5 32t76.5 -32t31.5 -77
q0 -44 -31.5 -76t-76.5 -32z" />
    <glyph glyph-name="perthousand" unicode="&#x2030;" horiz-adv-x="1508" 
d="M308 410q-84 0 -133.5 48t-49.5 122q0 84 64 147.5t156 63.5q84 0 135 -48t51 -121q0 -84 -65 -148t-158 -64zM829 783h166l-679 -783h-167zM321 535q31 0 52.5 22t21.5 51q0 25 -17 41.5t-45 16.5q-30 0 -50.5 -22t-20.5 -50q0 -25 16 -42t43 -17zM800 -6
q-84 0 -133.5 48t-49.5 122q0 84 63.5 147.5t155.5 63.5q85 0 136 -48t51 -121q0 -84 -65 -148t-158 -64zM1233 -6q-84 0 -133.5 48t-49.5 122q0 84 64 147.5t156 63.5q85 0 136 -48t51 -121q0 -84 -65.5 -148t-158.5 -64zM812 119q31 0 52.5 22t21.5 51q0 25 -16.5 41.5
t-44.5 16.5q-31 0 -51.5 -22t-20.5 -50q0 -25 16 -42t43 -17zM1246 119q31 0 52.5 22t21.5 51q0 25 -17 41.5t-45 16.5q-30 0 -50.5 -22t-20.5 -50q0 -25 16 -42t43 -17z" />
    <glyph glyph-name="guilsinglleft" unicode="&#x2039;" horiz-adv-x="404" 
d="M211 68l-174 233l295 231l78 -101l-190 -148l100 -132z" />
    <glyph glyph-name="guilsinglright" unicode="&#x203a;" horiz-adv-x="404" 
d="M216 535l174 -234l-295 -230l-78 100l190 148l-100 132z" />
    <glyph glyph-name="uni203D" unicode="&#x203d;" horiz-adv-x="624" 
d="M420 796q101 0 169.5 -52.5t68.5 -138.5q0 -40 -10 -74.5t-24.5 -59.5t-42 -53.5t-51 -47.5t-63 -51.5t-67.5 -57.5h-186l37 238h157l-13 -64q42 35 65 67t23 69q0 32 -25 51t-59 19q-55 0 -89.5 -31.5t-34.5 -71.5l-154 17q0 93 82 167t217 74zM293 206q43 0 71 -27
t28 -70q0 -50 -35.5 -85.5t-85.5 -35.5q-43 0 -70.5 27t-27.5 70q0 50 35 85.5t85 35.5z" />
    <glyph glyph-name="uni2042" unicode="&#x2042;" horiz-adv-x="925" 
d="M523 397l-43 107l-89 -71l-66 82l88 71l-96 63l58 87l95 -62l30 113l104 -28l-30 -113l113 6l8 -104l-114 -7l40 -105zM237 -18l-42 107l-90 -72l-66 82l88 72l-96 63l58 87l95 -62l30 113l105 -29l-30 -112l113 6l8 -105l-115 -7l40 -105zM691 -18l-42 107l-90 -72
l-66 82l88 72l-96 63l58 87l95 -62l30 113l105 -29l-30 -112l113 6l7 -105l-114 -7l41 -105z" />
    <glyph glyph-name="fraction" unicode="&#x2044;" horiz-adv-x="492" 
d="M455 783h169l-513 -783h-170z" />
    <glyph glyph-name="uni2051" unicode="&#x2051;" horiz-adv-x="489" 
d="M355 397l-43 107l-89 -71l-66 82l88 71l-96 63l58 87l95 -62l30 113l105 -28l-31 -113l114 6l7 -104l-114 -7l40 -105zM244 -18l-43 107l-90 -72l-66 82l88 72l-95 63l57 87l95 -62l31 113l104 -29l-30 -112l113 6l8 -105l-115 -7l41 -105z" />
    <glyph glyph-name="lira" unicode="&#x20a4;" horiz-adv-x="720" 
d="M534 530q2 14 2 21q0 31 -20 53.5t-53 22.5q-44 0 -67 -35t-23 -81v-16h154l-24 -88h-123q0 -5 0.5 -13t0.5 -13q0 -4 -0.5 -12t-0.5 -12h110l-23 -87h-110q-29 -60 -98 -100h127q111 0 136 107l158 -27q-19 -117 -97.5 -183.5t-183.5 -66.5h-410l42 159q44 9 83 39
t61 72h-110l23 87h111q0 7 -0.5 15.5t-1.5 18.5t-1 16h-94l23 88h67q6 138 86.5 219.5t211.5 81.5q100 0 167.5 -56.5t67.5 -152.5q0 -22 -3 -37z" />
    <glyph glyph-name="uni20A6" unicode="&#x20a6;" horiz-adv-x="1010" 
d="M917 519h73l-30 -113h-73l-13 -50h73l-30 -113h-73l-65 -243h-216l-159 486h-1l-130 -486h-196l65 243h-73l30 113h73l13 50h-73l31 113h72l71 264h221l156 -478l128 478h197z" />
    <glyph glyph-name="uni20A9" unicode="&#x20a9;" horiz-adv-x="1274" 
d="M1292 519l-29 -113h-104l-27 -50h118l-30 -113h-148l-129 -243h-203l-32 522h-1l-281 -522h-200l-15 243h-156l28 113h122l-3 50h-105l29 113h70l-15 264h201l15 -495h3l268 495h190l38 -496h2l251 496h210l-140 -264h73z" />
    <glyph glyph-name="uni20AA" unicode="&#x20aa;" horiz-adv-x="1090" 
d="M558 209l60 218q6 22 6 33q0 45 -56 45l-224 1l-134 -506h-185l175 657h376q233 0 233 -159q0 -40 -18 -107l-48 -183zM1102 657l-109 -412q-17 -62 -34.5 -102t-47.5 -75t-75.5 -51.5t-110.5 -16.5h-462l120 449h184l-79 -297h229q42 0 59.5 22t31.5 75l109 408h185z
" />
    <glyph glyph-name="dong" unicode="&#x20ab;" horiz-adv-x="753" 
d="M779 815l-21 -80h84l-33 -127h-85l-162 -608h-189l15 58h-1q-71 -69 -154 -69q-91 0 -142.5 64t-51.5 154q0 137 86.5 237t207.5 100q105 0 161 -78h1l38 142h-153l35 127h152l21 80h191zM322 157q52 0 91 39.5t39 95.5q0 38 -25.5 61.5t-65.5 23.5q-53 0 -91 -40.5
t-38 -95.5q0 -38 24.5 -61t65.5 -23zM546 -58l-42 -157h-547l42 157h547z" />
    <glyph glyph-name="Euro" unicode="&#x20ac;" horiz-adv-x="972" 
d="M381 263q17 -43 62 -67t106 -24q81 0 134 44.5t78 99.5l176 -67q-17 -45 -49 -87.5t-81 -83t-122 -65.5t-158 -25q-136 0 -236.5 76t-125.5 199h-119l29 105h83q2 26 6 51h-76l28 105h81q56 122 171 197t253 75q88 0 156 -24.5t108 -66t62.5 -85.5t30.5 -93l-190 -59
q-13 60 -57 102.5t-132 42.5q-58 0 -107.5 -25.5t-71.5 -63.5h235l-49 -105h-237q-5 -17 -9 -51h227l-48 -105h-158z" />
    <glyph glyph-name="uni20AE" unicode="&#x20ae;" horiz-adv-x="723" 
d="M523 486l192 58l-32 -120l-192 -59l-14 -53l191 59l-32 -121l-191 -59l-51 -191h-196l34 126l-191 -58l32 121l191 59l14 52l-191 -58l32 121l192 58l48 183h-222l48 179h640l-48 -179h-222z" />
    <glyph glyph-name="uni20B1" unicode="&#x20b1;" horiz-adv-x="837" 
d="M799 481q-28 -97 -116 -152q-90 -58 -220 -58h-129l-73 -271h-198l128 481h-83l24 88h83l57 214h245q117 0 186 -37q104 -57 107 -177h75l-23 -88h-63zM413 568h195q-3 14 -10 19q-28 25 -84 25h-90zM472 437q87 0 122 45h-204l-12 -45h94z" />
    <glyph glyph-name="uni20B4" unicode="&#x20b4;" horiz-adv-x="767" 
d="M533 539q11 16 11 36q0 28 -20 42.5t-49 14.5q-38 0 -78 -25t-69 -59l-116 107q54 66 128.5 103.5t158.5 37.5q63 0 115.5 -16t91 -58t38.5 -106q0 -39 -16 -77h64l-30 -115h-670l31 115h410zM301 259q-19 -21 -19 -49q0 -30 22 -43.5t53 -13.5q53 0 106.5 27.5
t91.5 69.5l115 -109q-126 -152 -343 -152q-44 0 -86 9.5t-79.5 29.5t-60.5 56t-23 83q0 52 26 92h-56l31 115h669l-30 -115h-417z" />
    <glyph glyph-name="uni20B8" unicode="&#x20b8;" horiz-adv-x="732" 
d="M776 605h-640l48 178h640zM196 0l98 369h-221l48 177h640l-48 -177h-220l-99 -369h-198z" />
    <glyph glyph-name="uni20B9" unicode="&#x20b9;" horiz-adv-x="659" 
d="M577 640q23 -27 26 -65h102l-24 -92h-87q-38 -135 -205 -183l89 -300h-201l-75 275h-148l43 159h143q99 0 141 49h-272l25 92h263q-2 9 -12 21q-28 29 -100 29h-138l42 158h572l-38 -143h-146z" />
    <glyph glyph-name="uni20BA" unicode="&#x20ba;" horiz-adv-x="750" 
d="M739 344q-18 -72 -51 -131t-84.5 -108.5t-128.5 -77t-173 -27.5h-212l71 265l-115 -46l33 126l115 46l13 48l-115 -45l34 125l115 46l58 218h197l-35 -130l180 73l-34 -126l-180 -72l-12 -49l179 72l-34 -126l-179 -72l-48 -177q42 0 76.5 12.5t57.5 31t41 44.5t28 50
t16 50z" />
    <glyph glyph-name="uni20BD" unicode="&#x20bd;" horiz-adv-x="779" 
d="M817 561q0 -13 -0.5 -24t-7 -41.5t-18.5 -56t-38.5 -56.5t-62.5 -54q-90 -58 -220 -58h-119l-17 -60h169l-26 -98h-168l-31 -113h-198l30 113h-92l26 98h93l15 60h-91l40 152h92l96 360h234q119 0 186 -37q108 -57 108 -185zM467 436q61 0 104.5 25t43.5 79q0 30 -20 46
q-25 24 -82 24h-73l-45 -174h72z" />
    <glyph glyph-name="uni2113" unicode="&#x2113;" horiz-adv-x="484" 
d="M253 264q-18 -69 -18 -86q0 -55 91 -55q31 0 58 9l-34 -128q-46 -13 -87 -13q-77 0 -125.5 38t-48.5 112q0 26 14 74q-45 -12 -82 -13l34 128q53 9 84 21l61 232q22 82 70 124t131 42q62 0 104 -35.5t42 -96.5q0 -55 -27.5 -110.5t-72.5 -101t-94 -81t-100 -60.5z
M408 596q0 24 -25 24q-35 0 -47 -46l-41 -153q41 25 77 77.5t36 97.5z" />
    <glyph glyph-name="uni2116" unicode="&#x2116;" horiz-adv-x="1329" 
d="M340 486l-130 -486h-196l209 783h222l155 -478h1l128 478h196l-209 -783h-216l-159 486h-1zM1125 296q94 0 158 64.5t64 150.5q0 75 -49.5 123.5t-134.5 48.5q-94 0 -158 -64.5t-64 -150.5q0 -75 49.5 -123.5t134.5 -48.5zM1132 413q-30 0 -46 17.5t-16 44.5
q0 36 24.5 63t61.5 27q27 0 44.5 -16.5t17.5 -44.5q0 -36 -25 -63.5t-61 -27.5zM883 229h384l-37 -136h-383z" />
    <glyph glyph-name="trademark" unicode="&#x2122;" horiz-adv-x="1061" 
d="M183 332l93 348h-128l28 103h368l-27 -103h-127l-93 -348h-114zM966 617l-184 -285h-69l-37 283h-1l-76 -283h-109l120 451h140l38 -277l178 277h157l-121 -451h-111l76 285h-1z" />
    <glyph glyph-name="estimated" unicode="&#x212e;" horiz-adv-x="884" 
d="M487 -12q-179 0 -283.5 116.5t-104.5 293.5q0 168 108.5 282.5t279.5 114.5q170 0 278.5 -113.5t108.5 -281.5v-9h-604v-254q39 -40 98.5 -64t118.5 -24q102 0 175.5 43.5t112.5 123.5l53 -29q-41 -91 -131.5 -145t-209.5 -54zM705 650q-39 41 -99.5 63t-120.5 22
q-128 0 -215 -84v-198h435v197z" />
    <glyph glyph-name="uni2153" unicode="&#x2153;" horiz-adv-x="1213" 
d="M220 330l76 290l-108 -53l-51 104l229 112h132l-120 -453h-158zM283 0l513 783h169l-513 -783h-169zM1167 334q0 -43 -27.5 -72.5t-70.5 -39.5q58 -26 58 -87q0 -68 -57.5 -107.5t-153.5 -39.5q-76 0 -125.5 38t-49.5 113l122 22q0 -59 57 -59q28 0 46.5 12t18.5 33
q0 34 -47 34h-43l27 98h31q72 0 72 41q0 30 -47 30q-48 0 -71 -44l-115 42q26 57 81 85.5t126 28.5q79 0 123.5 -36t44.5 -92z" />
    <glyph glyph-name="uni2154" unicode="&#x2154;" horiz-adv-x="1233" 
d="M71 363q23 126 177 188l66 27q24 9 44.5 25.5t20.5 37.5q0 15 -13 23t-28 8q-30 0 -48.5 -22t-18.5 -51l-131 15q10 79 73 129t145 50q63 0 114 -34.5t51 -92.5q0 -111 -154 -179q-75 -30 -92 -41h193l-32 -116h-374zM318 0l514 783h168l-513 -783h-169zM1200 334
q0 -43 -27.5 -72.5t-70.5 -39.5q58 -26 58 -87q0 -68 -57.5 -107.5t-153.5 -39.5q-76 0 -125.5 38t-49.5 113l122 22q0 -59 57 -59q28 0 46.5 12t18.5 33q0 34 -47 34h-43l27 98h31q72 0 72 41q0 30 -47 30q-48 0 -71 -44l-115 42q26 57 81 85.5t126 28.5q79 0 123.5 -36
t44.5 -92z" />
    <glyph glyph-name="oneeighth" unicode="&#x215b;" horiz-adv-x="1194" 
d="M220 330l76 290l-108 -53l-51 104l229 112h132l-120 -453h-158zM283 0l513 783h169l-513 -783h-169zM981 465q-80 0 -138 -41.5t-58 -103.5q0 -46 42 -77q-46 -14 -76.5 -48t-30.5 -81q0 -57 55.5 -91.5t137.5 -34.5q85 0 141.5 40.5t56.5 106.5q0 54 -50 85
q41 16 67 46.5t26 71.5q0 52 -51 89.5t-122 37.5zM970 350q16 0 30 -8.5t14 -23.5q0 -18 -16 -28t-35 -10q-16 0 -30 8.5t-14 23.5q0 17 16 27.5t35 10.5zM923 180q18 0 35.5 -9.5t17.5 -26.5q0 -20 -18.5 -30t-40.5 -10q-18 0 -35.5 9.5t-17.5 25.5q0 20 19 30.5t40 10.5z
" />
    <glyph glyph-name="threeeighths" unicode="&#x215c;" horiz-adv-x="1193" 
d="M513 665q0 -43 -27.5 -72.5t-70.5 -39.5q58 -26 58 -87q0 -68 -57.5 -107.5t-153.5 -39.5q-76 0 -125.5 38t-49.5 113l122 22q0 -59 57 -59q28 0 46.5 12t18.5 33q0 34 -47 34h-43l27 98h31q72 0 72 41q0 30 -47 30q-48 0 -71 -44l-115 42q26 57 81 85.5t126 28.5
q79 0 123.5 -36t44.5 -92zM292 0l514 783h169l-513 -783h-170zM991 465q-80 0 -138 -41.5t-58 -103.5q0 -47 42 -77q-47 -14 -77 -48t-30 -81q0 -57 55.5 -91.5t137.5 -34.5q85 0 141.5 40.5t56.5 106.5q0 54 -51 85q42 16 68 46.5t26 71.5q0 52 -51 89.5t-122 37.5z
M980 350q15 0 29 -8.5t14 -23.5q0 -18 -15.5 -28t-34.5 -10q-16 0 -30 8.5t-14 23.5q0 17 16 27.5t35 10.5zM933 180q18 0 35.5 -9.5t17.5 -26.5q0 -20 -18.5 -30t-40.5 -10q-18 0 -35.5 9.5t-17.5 25.5q0 20 19 30.5t40 10.5z" />
    <glyph glyph-name="fiveeighths" unicode="&#x215d;" horiz-adv-x="1193" 
d="M334 493q0 17 -13 26.5t-29 9.5q-29 0 -53 -18l-105 50l95 222h310l-33 -121h-202l-24 -55h1q36 22 81 22q52 0 86 -34.5t34 -88.5q0 -85 -64.5 -136t-152.5 -51q-63 0 -115 29.5t-67 91.5l122 56q11 -55 66 -55q25 0 44 13.5t19 38.5zM290 0l514 783h168l-513 -783h-169
zM989 465q-81 0 -138.5 -41.5t-57.5 -103.5q0 -46 41 -77q-46 -14 -76 -48t-30 -81q0 -58 55 -92t137 -34q85 0 142 40.5t57 106.5q0 54 -51 85q42 16 68 46.5t26 71.5q0 52 -51 89.5t-122 37.5zM978 350q15 0 29 -8.5t14 -23.5q0 -18 -16 -28t-35 -10q-16 0 -29.5 8.5
t-13.5 23.5q0 17 16 27.5t35 10.5zM930 180q18 0 35.5 -9.5t17.5 -26.5q0 -20 -18.5 -30t-40.5 -10q-18 0 -35 9.5t-17 25.5q0 20 18.5 30.5t39.5 10.5z" />
    <glyph glyph-name="seveneighths" unicode="&#x215e;" horiz-adv-x="1104" 
d="M89 330l236 316h-184l36 137h363l-36 -134l-232 -319h-183zM203 0l514 783h168l-512 -783h-170zM902 465q-80 0 -138 -41.5t-58 -103.5q0 -47 42 -77q-47 -14 -77 -48t-30 -81q0 -58 55 -92t137 -34q85 0 142 40.5t57 106.5q0 54 -51 85q42 16 68 46.5t26 71.5
q0 52 -51 89.5t-122 37.5zM891 350q15 0 29 -8.5t14 -23.5q0 -18 -16 -28t-35 -10q-16 0 -29.5 8.5t-13.5 23.5q0 17 16 27.5t35 10.5zM843 180q18 0 35.5 -9.5t17.5 -26.5q0 -20 -18.5 -30t-40.5 -10q-18 0 -35 9.5t-17 25.5q0 20 18.5 30.5t39.5 10.5z" />
    <glyph glyph-name="arrowleft" unicode="&#x2190;" horiz-adv-x="664" 
d="M318 277q68 -66 134 -134l-114 -107l-292 315v26l292 316l114 -108q-44 -45 -134 -133h338v-175h-338z" />
    <glyph glyph-name="arrowup" unicode="&#x2191;" horiz-adv-x="664" 
d="M276 397l-133 -133l-107 113l315 292h25l316 -292l-107 -113q-45 44 -134 133v-337h-175v337z" />
    <glyph glyph-name="arrowright" unicode="&#x2192;" horiz-adv-x="664" 
d="M403 452q-90 88 -133 133l114 108l291 -316v-26l-291 -315l-114 107q58 60 133 134h-338v175h338z" />
    <glyph glyph-name="arrowdown" unicode="&#x2193;" horiz-adv-x="664" 
d="M446 331q54 56 134 133l107 -113l-315 -292h-26l-316 292l107 113q61 -58 134 -133v337h175v-337z" />
    <glyph glyph-name="uni2196" unicode="&#x2196;" horiz-adv-x="664" 
d="M264 319q2 -95 0 -189l-156 4l17 429l18 19l429 17l5 -156q-84 -3 -189 -1l239 -238l-124 -124z" />
    <glyph glyph-name="uni2197" unicode="&#x2197;" horiz-adv-x="664" 
d="M312 442q-104 -2 -188 1l4 156l430 -17l18 -19l17 -429l-156 -4q-1 31 -1 189l-239 -239l-123 124z" />
    <glyph glyph-name="uni2198" unicode="&#x2198;" horiz-adv-x="664" 
d="M443 360q0 158 1 189l156 -5l-17 -429l-18 -18l-430 -17l-4 156q95 2 189 0l-239 240l124 123z" />
    <glyph glyph-name="uni2199" unicode="&#x2199;" horiz-adv-x="664" 
d="M396 236q94 2 189 0l-4 -156l-430 17l-18 18l-16 429l156 5q1 -95 0 -189l239 239l124 -123z" />
    <glyph glyph-name="uni21A9" unicode="&#x21a9;" horiz-adv-x="1102" 
d="M19 201v26l292 316l113 -107q-29 -31 -132 -134h443q80 0 134 43t54 111q0 70 -52 112t-139 42h-192v173h201q159 0 259 -93t100 -234t-100 -235t-259 -94h-449q78 -77 132 -134l-113 -107z" />
    <glyph glyph-name="uni21B0" unicode="&#x21b0;" horiz-adv-x="986" 
d="M547 612q155 0 250 -79.5t95 -216.5v-316h-178v298q0 67 -46 103t-126 36h-165q72 -69 133 -134l-113 -107l-292 316v26l292 315l113 -107q-54 -57 -132 -134h169z" />
    <glyph glyph-name="uni21B1" unicode="&#x21b1;" horiz-adv-x="821" 
d="M589 612q-75 73 -133 134l114 107l292 -315v-26l-292 -316l-114 107q77 80 133 134h-164q-80 0 -126.5 -36t-46.5 -103v-298h-177v316q0 137 95 216.5t249 79.5h170z" />
    <glyph glyph-name="uni21B2" unicode="&#x21b2;" horiz-adv-x="820" 
d="M304 171q67 -66 133 -133l-114 -108l-292 316v25l292 316l114 -107q-88 -90 -133 -134h164q80 0 126.5 36t46.5 104v297h177v-316q0 -137 -95 -216.5t-249 -79.5h-170z" />
    <glyph glyph-name="uni21B3" unicode="&#x21b3;" horiz-adv-x="986" 
d="M510 171q-154 0 -249 79.5t-95 216.5v316h177v-297q0 -68 46.5 -104t126.5 -36h164q-45 44 -133 134l114 107l292 -316v-25l-292 -316l-114 108q66 67 133 133h-170z" />
    <glyph glyph-name="uni21B4" unicode="&#x21b4;" horiz-adv-x="1037" 
d="M776 270q77 78 134 132l107 -113l-315 -292h-26l-316 292l107 113q58 -54 134 -132v163q0 81 -36 129.5t-103 48.5h-298v172h316q138 0 217 -95t79 -249v-169z" />
    <glyph glyph-name="partialdiff" unicode="&#x2202;" horiz-adv-x="705" 
d="M293 -13q-50 0 -95.5 13t-84 39t-61 70.5t-22.5 101.5q0 128 101 212.5t234 84.5q77 0 135 -31q-1 66 -36.5 107.5t-101.5 41.5q-68 0 -162 -44l-42 147q122 67 248 67q141 0 216 -88.5t75 -234.5q0 -95 -25.5 -181t-73.5 -155t-127 -109.5t-178 -40.5zM374 350
q-59 0 -103 -30t-44 -87q0 -35 26 -54.5t62 -19.5q63 0 105 43t57 109q-17 18 -46.5 28.5t-56.5 10.5z" />
    <glyph glyph-name="uni2206" unicode="&#x2206;" horiz-adv-x="890" 
d="M699 783l92 -783h-824l510 783h222zM579 170l-46 392l-252 -392h298z" />
    <glyph glyph-name="product" unicode="&#x220f;" horiz-adv-x="822" 
d="M406 0l162 608h-125l-162 -608h-191l162 608h-119l47 175h745l-47 -175h-119l-162 -608h-191z" />
    <glyph glyph-name="summation" unicode="&#x2211;" horiz-adv-x="696" 
d="M336 405l-175 219l43 159h579l-47 -177h-331l176 -220l-268 -209h310l-47 -177h-594l45 165z" />
    <glyph glyph-name="minus" unicode="&#x2212;" horiz-adv-x="637" 
d="M622 444l-42 -158h-509l42 158h509z" />
    <glyph glyph-name="radical" unicode="&#x221a;" horiz-adv-x="751" 
d="M441 234h4l330 724h136l-435 -958h-149l-112 494h-143l34 128h248z" />
    <glyph glyph-name="infinity" unicode="&#x221e;" horiz-adv-x="1015" 
d="M722 98q-106 0 -214 124q-53 -43 -80 -63t-76 -40.5t-99 -20.5q-84 0 -138.5 53t-54.5 136q0 111 78.5 188.5t189.5 77.5q109 0 215 -125q42 34 60.5 48t54 36.5t69 31.5t71.5 9q85 0 139.5 -53.5t54.5 -137.5q0 -111 -79 -187.5t-191 -76.5zM314 405q-37 0 -66 -27.5
t-29 -64.5q0 -29 19 -48.5t48 -19.5q50 0 138 78q-17 20 -23 27.5t-23 24t-32.5 23.5t-31.5 7zM768 405q-23 0 -53.5 -16t-44.5 -27t-44 -36q2 -2 10 -11.5t10.5 -12.5t10.5 -11.5t12 -12.5t12 -10.5t14 -9.5t13.5 -6.5t15 -5t15.5 -1.5q36 0 65 28.5t29 64.5
q0 28 -18.5 47.5t-46.5 19.5z" />
    <glyph glyph-name="integral" unicode="&#x222b;" horiz-adv-x="490" 
d="M239 587q26 95 92.5 152t176.5 57q72 0 106 -21l-38 -145q-24 8 -53 8q-80 0 -103 -83l-165 -612q-25 -95 -91.5 -152.5t-176.5 -57.5q-71 0 -106 22l38 144q29 -8 53 -8q81 0 103 84z" />
    <glyph glyph-name="uni2236" unicode="&#x2236;" horiz-adv-x="352" 
d="M233 400q-46 0 -75.5 29t-29.5 75q0 53 37.5 91t90.5 38q46 0 76 -29t30 -75q0 -53 -37.5 -91t-91.5 -38zM147 76q-46 0 -75.5 29t-29.5 75q0 54 37 92t90 38q46 0 76 -29.5t30 -75.5q0 -53 -37.5 -91t-90.5 -38z" />
    <glyph glyph-name="approxequal" unicode="&#x2248;" horiz-adv-x="671" 
d="M500 385q-36 0 -74.5 19.5t-71.5 39.5t-56 20q-44 0 -81 -51l-100 78q79 125 184 125q40 0 80.5 -20t72 -39.5t49.5 -19.5q44 0 82 50l100 -78q-78 -124 -185 -124zM428 115q-37 0 -75.5 19.5t-71.5 39.5t-56 20q-41 0 -81 -51l-100 78q79 125 184 125q40 0 80.5 -20
t72 -40t50.5 -20q44 0 81 51l100 -78q-78 -124 -184 -124z" />
    <glyph glyph-name="notequal" unicode="&#x2260;" horiz-adv-x="635" 
d="M387 316h200l-41 -156h-265l-103 -153l-109 62l61 91h-93l42 156h157l67 99h-198l42 157h263l105 155l110 -63l-63 -92h94l-42 -157h-159z" />
    <glyph glyph-name="lessequal" unicode="&#x2264;" horiz-adv-x="662" 
d="M575 202l-482 182l43 161l578 180l-44 -169l-366 -97l-1 -1l315 -98zM567 146l-43 -161h-537l43 161h537z" />
    <glyph glyph-name="greaterequal" unicode="&#x2265;" horiz-adv-x="658" 
d="M198 725l482 -180l-44 -161l-578 -182l46 171l366 96v2l-314 97zM573 146l-43 -161h-537l43 161h537z" />
    <glyph glyph-name="uni2318" unicode="&#x2318;" horiz-adv-x="698" 
d="M546 69q-50 0 -87 37q-36 36 -36 86v63h-148v-63q0 -50 -36 -86q-35 -37 -87 -37q-51 0 -86 37q-36 36 -36 86t36 86t86 36h62v148h-61q-51 0 -86 37q-37 35 -37 86t37 86q36 36 86 36t86 -36t36 -86v-63h148v63q0 50 36 86q38 36 87 36q50 0 86 -36t36 -86t-36 -86
q-35 -37 -86 -37h-62v-148h62q50 0 86 -36t36 -86t-36 -86q-35 -37 -86 -37zM214 585q0 26 -18 44q-17 18 -43 18q-29 0 -45 -18q-18 -17 -18 -44q0 -26 18 -44q21 -19 45 -19h61v63zM546 647q-28 0 -44 -18q-18 -17 -18 -44v-63h62q25 0 44 19q18 18 18 44t-18 44t-44 18z
M423 462h-148v-148h148v148zM214 255h-62q-27 0 -44 -19q-18 -16 -18 -44q0 -25 18 -45q20 -18 44 -18t44 18q18 20 18 45v63zM484 255v-63q0 -25 18 -45q18 -18 44 -18q24 0 44 18q18 20 18 45q0 28 -18 44q-17 19 -44 19h-62z" />
    <glyph glyph-name="filledbox" unicode="&#x25a0;" horiz-adv-x="908" 
d="M810 0h-709v711h709v-711z" />
    <glyph glyph-name="uni25A1" unicode="&#x25a1;" horiz-adv-x="908" 
d="M810 711v-711h-709v711h709zM692 600h-477v-489h477v489z" />
    <glyph glyph-name="triagup" unicode="&#x25b2;" horiz-adv-x="838" 
d="M421 730l417 -730h-838z" />
    <glyph glyph-name="uni25B3" unicode="&#x25b3;" horiz-adv-x="838" 
d="M419 730l419 -730h-838zM639 112l-220 388l-221 -388h441z" />
    <glyph glyph-name="lozenge" unicode="&#x25ca;" horiz-adv-x="796" 
d="M27 393l367 390h200l179 -390l-366 -393h-201zM344 182l205 219l-91 203l-206 -219z" />
    <glyph glyph-name="circle" unicode="&#x25cb;" horiz-adv-x="813" 
d="M36 356q0 154 108.5 263t262.5 109t262 -108.5t108 -263.5q0 -154 -108 -262t-262 -108t-262.5 108t-108.5 262zM151 356q0 -107 75 -182t181 -75q105 0 179 75t74 182t-74 182.5t-179 75.5q-106 0 -181 -75.5t-75 -182.5z" />
    <glyph glyph-name="uni25CF" unicode="&#x25cf;" horiz-adv-x="813" 
d="M36 356q0 155 108 263.5t262 108.5t262.5 -109t108.5 -263t-108.5 -262t-262.5 -108t-262 108t-108 262z" />
    <glyph glyph-name="uni2605" unicode="&#x2605;" horiz-adv-x="838" 
d="M814 443l-244 -177l93 -287l-244 177l-245 -175l94 285l-244 177h302l93 287l93 -287h302z" />
    <glyph glyph-name="uni2611" unicode="&#x2611;" horiz-adv-x="956" 
d="M810 0h-709v711h612l130 227l101 -61l-134 -232v-645zM213 431l89 76l173 -211l175 305h-437v-170zM500 109h194v335zM477 109l-264 318v-318h264z" />
    <glyph glyph-name="uni2612" unicode="&#x2612;" horiz-adv-x="908" 
d="M810 711v-711h-709v711h709zM213 109h481v492h-481v-492zM533 355l153 154l-79 79l-152 -154l-154 153l-79 -78l154 -154l-154 -156l78 -79l155 155l152 -152l79 80z" />
    <glyph glyph-name="uni2639" unicode="&#x2639;" horiz-adv-x="813" 
d="M777 356q0 -154 -108 -262t-262 -108t-262.5 108t-108.5 262t108.5 263t262.5 109t262 -108.5t108 -263.5zM677 356q0 114 -79 194.5t-191 80.5q-114 0 -193.5 -80.5t-79.5 -194.5t79.5 -194t193.5 -80q112 0 191 80.5t79 193.5zM382 454q0 -28 -19 -47t-47 -19t-47 19
t-19 47t19 47.5t47 19.5t47 -19.5t19 -47.5zM563 454q0 -28 -19 -47t-47 -19t-47 19t-19 47t19 47.5t47 19.5t47 -19.5t19 -47.5zM525 180q-6 46 -41.5 74.5t-76.5 28.5q-43 0 -78.5 -28t-41.5 -75h-78q10 78 66.5 127t131.5 49q74 0 130 -50t66 -126h-78z" />
    <glyph glyph-name="smileface" unicode="&#x263a;" horiz-adv-x="813" 
d="M407 -14q-154 0 -262.5 108t-108.5 262t108.5 263t262.5 109t262 -108.5t108 -263.5q0 -154 -108 -262t-262 -108zM407 631q-114 0 -193.5 -80.5t-79.5 -194.5t79.5 -194t193.5 -80q112 0 191 80.5t79 193.5q0 114 -79 194.5t-191 80.5zM382 454q0 -28 -19 -47t-47 -19
t-47 19t-19 47t19 47.5t47 19.5t47 -19.5t19 -47.5zM563 454q0 -28 -19 -47t-47 -19t-47 19t-19 47t19 47.5t47 19.5t47 -19.5t19 -47.5zM603 332q-10 -77 -66.5 -127t-129.5 -50q-75 0 -131.5 49.5t-66.5 127.5h78q6 -47 41.5 -75t78.5 -28q41 0 76.5 28.5t41.5 74.5h78z
" />
    <glyph glyph-name="invsmileface" unicode="&#x263b;" horiz-adv-x="813" 
d="M407 -14q-154 0 -262.5 108t-108.5 262t108.5 263t262.5 109t262 -108.5t108 -263.5q0 -154 -108 -262t-262 -108zM382 454q0 28 -19 47.5t-47 19.5t-47 -19.5t-19 -47.5t19 -47t47 -19t47 19t19 47zM563 454q0 28 -19 47.5t-47 19.5t-47 -19.5t-19 -47.5t19 -47t47 -19
t47 19t19 47zM525 332q-6 -46 -41.5 -74.5t-76.5 -28.5q-43 0 -78.5 28t-41.5 75h-78q10 -78 66.5 -127.5t131.5 -49.5q73 0 129.5 50t66.5 127h-78z" />
    <glyph glyph-name="heart" unicode="&#x2665;" horiz-adv-x="872" 
d="M3 480q0 97 65.5 163t162.5 66q58 0 106 -28t72 -78q24 52 73 79t108 27q95 0 160 -67t65 -162q0 -61 -27 -123.5t-68 -113.5t-97.5 -101.5t-107 -86.5t-106.5 -69q-56 33 -106.5 69t-107 86.5t-97.5 101.5t-68 113.5t-27 123.5z" />
    <glyph glyph-name="uni2713" unicode="&#x2713;" horiz-adv-x="942" 
d="M97 385l215 -232l517 563l83 -81l-603 -651l-294 323z" />
    <glyph glyph-name="uni2715" unicode="&#x2715;" horiz-adv-x="755" 
d="M19 76l277 279l-277 277l81 80l276 -276l274 276l80 -80l-274 -277l280 -279l-80 -81l-280 279l-277 -279z" />
    <glyph glyph-name="uni2E18" unicode="&#x2e18;" horiz-adv-x="652" 
d="M382 328q-43 0 -71 27t-28 70q0 51 35 86t85 35q43 0 70.5 -27t27.5 -70q0 -50 -34.5 -85.5t-84.5 -35.5zM554 -21q0 -93 -82 -167t-217 -74q-101 0 -169.5 52.5t-68.5 138.5q0 40 10 74.5t24.5 59.5t42 53.5t51 47.5t63 51.5t67.5 57.5h185l-37 -237h-156l13 63
q-88 -73 -88 -136q0 -32 25 -51t59 -19q55 0 89.5 31.5t34.5 72.5z" />
    <glyph glyph-name="zero.slash" unicode="&#xe008;" horiz-adv-x="774" 
d="M482 796q136 0 212.5 -89t76.5 -226q0 -89 -28 -176t-78 -158t-129 -115t-172 -44q-137 0 -213 87t-76 228q0 120 47 231t142.5 186.5t217.5 75.5zM458 617q-43 0 -78.5 -29t-57 -73.5t-33.5 -91t-15 -90.5l263 252q-29 32 -79 32zM386 167q44 0 80 29t57.5 74.5t34 92.5
t14.5 90l-264 -255q29 -31 78 -31z" />
    <glyph glyph-name="uniE09D" unicode="&#xe09d;" horiz-adv-x="873" 
d="M696 215q-4 -14 -4 -21q0 -44 59 -44q22 0 49 5l-39 -150q-43 -14 -103 -14q-74 0 -119 39.5t-45 111.5q0 28 9 66l46 170h-205l-101 -378h-189l101 378h-98l41 156h97l21 74q27 96 92.5 152.5t175.5 56.5q72 0 106 -21l-39 -148q-26 12 -51 12q-80 0 -104 -84l-12 -42
h211l47 173h185l-46 -173h123l-41 -156h-124z" />
    <glyph glyph-name="at.case" unicode="&#xf633;" horiz-adv-x="875" 
d="M724 587q-80 -244 -80 -276q0 -29 26 -29q60 0 100 66t40 131q0 107 -84.5 174.5t-196.5 67.5q-150 0 -259 -113t-109 -265q0 -123 81 -201t207 -78q55 0 116.5 19.5t107.5 51.5l33 -63q-47 -38 -123 -61.5t-140 -23.5q-152 0 -257 98t-105 252q0 124 59 229t163.5 167.5
t229.5 62.5q87 0 167.5 -36t134.5 -108t54 -162q0 -71 -29 -139t-87.5 -115t-132.5 -47q-32 0 -63.5 15t-41.5 42q-22 -25 -58 -41.5t-69 -16.5q-61 0 -101 46.5t-40 109.5q0 96 70 171.5t163 75.5q28 0 55.5 -14t34.5 -38l16 48h118zM556 420q0 26 -15 41t-41 15
q-41 0 -74 -36.5t-33 -77.5q0 -26 15.5 -44t40.5 -18q41 0 74 39t33 81z" />
    <glyph glyph-name="uniF6C3" unicode="&#xf6c3;" horiz-adv-x="0" 
d="M-314 -331q23 0 46.5 6.5t48.5 26.5t36 50q-15 -10 -38 -10q-36 0 -58 22.5t-22 58.5q0 40 30.5 67t71.5 27q48 0 73.5 -30t25.5 -79q0 -111 -103 -169q-61 -35 -127 -32z" />
    <glyph glyph-name="uniF730" unicode="&#xf730;" horiz-adv-x="633" 
d="M287 -12q-118 0 -182 67.5t-64 177.5q0 124 89.5 218.5t221.5 94.5q117 0 181.5 -67t64.5 -176q0 -125 -90 -220t-221 -95zM337 380q-51 0 -82.5 -39t-31.5 -92q0 -41 19.5 -68.5t59.5 -27.5q49 0 81.5 39t32.5 95q0 42 -21 67.5t-58 25.5z" />
    <glyph glyph-name="uniF731" unicode="&#xf731;" horiz-adv-x="464" 
d="M225 341l-127 -61l-60 122l269 132h155l-141 -534h-186z" />
    <glyph glyph-name="uniF732" unicode="&#xf732;" horiz-adv-x="538" 
d="M-11 40q28 147 208 221l77 31q77 34 77 74q0 18 -15 27.5t-33 9.5q-35 0 -57.5 -26t-22.5 -60l-154 18q13 93 87 152t171 59q74 0 133.5 -40.5t59.5 -109.5q0 -131 -181 -211q-88 -35 -109 -48h228l-37 -137h-440z" />
    <glyph glyph-name="uniF733" unicode="&#xf733;" horiz-adv-x="533" 
d="M510 396q0 -51 -32 -85.5t-83 -46.5v-1q67 -31 67 -102q0 -80 -67 -126.5t-181 -46.5q-90 0 -148 45t-58 133l143 26q0 -70 68 -70q32 0 54.5 14.5t22.5 39.5q0 39 -56 39h-50l32 116h36q85 0 85 47q0 16 -15 26.5t-41 10.5q-57 0 -84 -52l-135 49q31 67 96 100.5
t148 33.5q93 0 145.5 -42t52.5 -108z" />
    <glyph glyph-name="uniF734" unicode="&#xf734;" horiz-adv-x="610" 
d="M250 0l22 84h-285l47 174l315 276h220l-83 -312h76l-36 -138h-76l-23 -84h-177zM309 222l41 155l-175 -155h134z" />
    <glyph glyph-name="uniF735" unicode="&#xf735;" horiz-adv-x="525" 
d="M291 193q0 20 -15 31t-35 11q-34 0 -62 -21l-123 58l112 262h364l-38 -143h-239l-27 -64l1 -1q43 27 95 27q61 0 100.5 -41t39.5 -104q0 -101 -75.5 -160.5t-179.5 -59.5q-73 0 -134 34.5t-80 107.5l144 66q12 -65 77 -65q30 0 52.5 16t22.5 46z" />
    <glyph glyph-name="uniF736" unicode="&#xf736;" horiz-adv-x="557" 
d="M342 546q109 0 197 -54l-70 -127q-60 41 -130 41q-40 0 -74 -18.5t-51 -53.5q41 22 102 22q74 0 128.5 -43t54.5 -115q0 -94 -72.5 -152t-168.5 -58q-101 0 -161 58t-60 158q0 136 86.5 239t218.5 103zM197 181q0 -24 20 -38t45 -14q27 0 49 16t22 42q0 23 -20 37.5
t-45 14.5q-27 0 -49 -16t-22 -42z" />
    <glyph glyph-name="uniF737" unicode="&#xf737;" horiz-adv-x="498" 
d="M280 373h-218l43 161h429l-43 -158l-273 -376h-216z" />
    <glyph glyph-name="uniF738" unicode="&#xf738;" horiz-adv-x="541" 
d="M318 546q83 0 143 -43.5t60 -104.5q0 -48 -31 -83.5t-79 -54.5q59 -37 59 -100q0 -77 -66.5 -124.5t-165.5 -47.5q-95 0 -160 40t-65 107q0 55 35 95t90 57q-49 35 -49 90q0 73 67.5 121t161.5 48zM305 411q-22 0 -40.5 -11.5t-18.5 -32.5q0 -17 16 -27t35 -10
q22 0 40.5 12t18.5 33q0 17 -16.5 26.5t-34.5 9.5zM250 212q-25 0 -47 -12t-22 -35q0 -20 20.5 -30.5t41.5 -10.5q25 0 47 12t22 35q0 20 -20.5 30.5t-41.5 10.5z" />
    <glyph glyph-name="uniF739" unicode="&#xf739;" horiz-adv-x="558" 
d="M225 -12q-114 0 -202 54l70 127q60 -41 130 -41q41 0 74.5 18.5t50.5 53.5q-43 -22 -102 -22q-74 0 -128.5 43t-54.5 115q0 94 72.5 152t168.5 58q101 0 161 -58t60 -158q0 -136 -84 -239t-216 -103zM365 353q0 24 -20 38t-45 14q-27 0 -49 -16t-22 -41q0 -24 20 -38.5
t45 -14.5q27 0 49 16t22 42z" />
    <glyph glyph-name="uniF8FF" unicode="&#xf8ff;" horiz-adv-x="1667" 
d="M1558 656q-20 6 -55 6q-79 0 -79 -86v-42h129v-156h-129v-378h-190v378h-97v156h97v45q0 106 58 172t170 66q54 0 96 -13v-148zM732 -11q94 0 155 76h4v-65h188v815h-190v-342h-4q-55 71 -148 71q-103 0 -178.5 -78.5t-75.5 -197.5q0 -115 71.5 -197t177.5 -82zM429 154
q-28 -3 -50 -3q-69 0 -69 62v163h124v158h-124v173h-185v-173h-105v-158h100v-183q0 -97 56.5 -149.5t151.5 -52.5q57 0 101 15v148zM891 268q0 -44 -31.5 -76t-75.5 -32t-75.5 32t-31.5 76t31.5 76t75.5 32t75.5 -32t31.5 -76z" />
    <glyph glyph-name="Aring.alt" horiz-adv-x="818" 
d="M558 847q-60 0 -99 37.5t-39 97.5q0 69 48 117.5t117 48.5q60 0 99 -38t39 -97q0 -70 -48 -118t-117 -48zM579 1055q-28 0 -46.5 -19t-18.5 -46q0 -22 14 -36t36 -14q28 0 46.5 19t18.5 46q0 22 -14 36t-36 14zM235 144l-90 -144h-213l494 783h225l121 -783h-204l-21 144
h-312zM525 311l-36 256l-154 -256h190z" />
    <glyph glyph-name="OE.alt" horiz-adv-x="1139" 
d="M463 0q-182 0 -286.5 83t-104.5 247q0 87 35.5 171t105.5 149q144 133 398 133h612l-47 -175h-349l-35 -128h318l-45 -169h-317l-37 -135h352l-46 -176h-554zM279 346q0 -164 203 -164h35l111 419h-42q-68 0 -122.5 -17t-88 -43.5t-56 -61.5t-31.5 -68t-9 -65z" />
    <glyph glyph-name="Q.alt" horiz-adv-x="962" 
d="M927 0h-465q-79 0 -148.5 21.5t-123 62t-84.5 106t-31 148.5q0 192 137 325t328 133q165 0 268 -99.5t103 -248.5q0 -168 -168 -288h226zM280 354q0 -85 52 -133t132 -48q99 0 170.5 78.5t71.5 180.5q0 77 -50.5 128.5t-134.5 51.5q-98 0 -169.5 -78.5t-71.5 -179.5z" />
    <glyph glyph-name="O.slash" horiz-adv-x="912" 
d="M539 796q165 0 268 -99.5t103 -248.5q0 -126 -63.5 -232.5t-170 -167t-229.5 -60.5q-153 0 -262.5 94t-109.5 256q0 126 63 232t169.5 166t231.5 60zM521 613q-99 0 -170.5 -79t-71.5 -180q0 -40 12 -72l306 318q-36 13 -76 13zM464 172q99 0 170.5 79t71.5 181
q0 40 -13 73l-307 -319q36 -14 78 -14z" />
    <glyph glyph-name="a.alt" horiz-adv-x="605" 
d="M159 -10q-60 0 -104.5 38t-44.5 102q0 44 20.5 78t54 53t68 29t70.5 13l110 8q22 2 38 15t16 33q0 22 -18 32.5t-41 10.5q-36 0 -61.5 -19t-35.5 -48l-161 51q25 67 99 113.5t185 46.5q86 0 151.5 -42.5t65.5 -123.5q0 -35 -7 -64l-85 -316h-181l16 63h-1
q-33 -37 -68.5 -55t-85.5 -18zM248 122q35 0 60.5 19t35.5 53l6 24l-69 -7q-76 -7 -76 -50q0 -17 12 -28t31 -11z" />
    <glyph glyph-name="aacute.alt" horiz-adv-x="605" 
d="M458 819h212l-224 -196h-153zM159 -10q-60 0 -104.5 38t-44.5 102q0 44 20.5 78t54 53t68 29t70.5 13l110 8q22 2 38 15t16 33q0 22 -18 32.5t-41 10.5q-36 0 -61.5 -19t-35.5 -48l-161 51q25 67 99 113.5t185 46.5q86 0 151.5 -42.5t65.5 -123.5q0 -35 -7 -64l-85 -316
h-181l16 63h-1q-33 -37 -68.5 -55t-85.5 -18zM248 122q35 0 60.5 19t35.5 53l6 24l-69 -7q-76 -7 -76 -50q0 -17 12 -28t31 -11z" />
    <glyph glyph-name="uni01CE.alt" horiz-adv-x="605" 
d="M405 712l88 101h158l-176 -188h-172l-79 188h147zM159 -10q-60 0 -104.5 38t-44.5 102q0 44 20.5 78t54 53t68 29t70.5 13l110 8q22 2 38 15t16 33q0 22 -18 32.5t-41 10.5q-36 0 -61.5 -19t-35.5 -48l-161 51q25 67 99 113.5t185 46.5q86 0 151.5 -42.5t65.5 -123.5
q0 -35 -7 -64l-85 -316h-181l16 63h-1q-33 -37 -68.5 -55t-85.5 -18zM248 122q35 0 60.5 19t35.5 53l6 24l-69 -7q-76 -7 -76 -50q0 -17 12 -28t31 -11z" />
    <glyph glyph-name="acircumflex.alt" horiz-adv-x="605" 
d="M407 726l-88 -102h-158l176 189h172l79 -189h-147zM159 -10q-60 0 -104.5 38t-44.5 102q0 44 20.5 78t54 53t68 29t70.5 13l110 8q22 2 38 15t16 33q0 22 -18 32.5t-41 10.5q-36 0 -61.5 -19t-35.5 -48l-161 51q25 67 99 113.5t185 46.5q86 0 151.5 -42.5t65.5 -123.5
q0 -35 -7 -64l-85 -316h-181l16 63h-1q-33 -37 -68.5 -55t-85.5 -18zM248 122q35 0 60.5 19t35.5 53l6 24l-69 -7q-76 -7 -76 -50q0 -17 12 -28t31 -11z" />
    <glyph glyph-name="adieresis.alt" horiz-adv-x="605" 
d="M263 616q-39 0 -64.5 25t-25.5 64q0 46 32 78t78 32q39 0 64.5 -24.5t25.5 -63.5q0 -47 -32 -79t-78 -32zM523 616q-39 0 -64 24.5t-25 64.5q0 46 31 78t77 32q40 0 65.5 -24.5t25.5 -63.5q0 -46 -32 -78.5t-78 -32.5zM159 -10q-60 0 -104.5 38t-44.5 102q0 44 20.5 78
t54 53t68 29t70.5 13l110 8q22 2 38 15t16 33q0 22 -18 32.5t-41 10.5q-36 0 -61.5 -19t-35.5 -48l-161 51q25 67 99 113.5t185 46.5q86 0 151.5 -42.5t65.5 -123.5q0 -35 -7 -64l-85 -316h-181l16 63h-1q-33 -37 -68.5 -55t-85.5 -18zM248 122q35 0 60.5 19t35.5 53l6 24
l-69 -7q-76 -7 -76 -50q0 -17 12 -28t31 -11z" />
    <glyph glyph-name="agrave.alt" horiz-adv-x="605" 
d="M456 623h-134l-149 196h197zM159 -10q-60 0 -104.5 38t-44.5 102q0 44 20.5 78t54 53t68 29t70.5 13l110 8q22 2 38 15t16 33q0 22 -18 32.5t-41 10.5q-36 0 -61.5 -19t-35.5 -48l-161 51q25 67 99 113.5t185 46.5q86 0 151.5 -42.5t65.5 -123.5q0 -35 -7 -64l-85 -316
h-181l16 63h-1q-33 -37 -68.5 -55t-85.5 -18zM248 122q35 0 60.5 19t35.5 53l6 24l-69 -7q-76 -7 -76 -50q0 -17 12 -28t31 -11z" />
    <glyph glyph-name="amacron.alt" horiz-adv-x="605" 
d="M611 765l-36 -137h-386l36 137h386zM159 -10q-60 0 -104.5 38t-44.5 102q0 44 20.5 78t54 53t68 29t70.5 13l110 8q22 2 38 15t16 33q0 22 -18 32.5t-41 10.5q-36 0 -61.5 -19t-35.5 -48l-161 51q25 67 99 113.5t185 46.5q86 0 151.5 -42.5t65.5 -123.5q0 -35 -7 -64
l-85 -316h-181l16 63h-1q-33 -37 -68.5 -55t-85.5 -18zM248 122q35 0 60.5 19t35.5 53l6 24l-69 -7q-76 -7 -76 -50q0 -17 12 -28t31 -11z" />
    <glyph glyph-name="aogonek.alt" horiz-adv-x="604" 
d="M198 -166q0 86 130 166h-30l16 63h-1q-33 -37 -68.5 -55t-85.5 -18q-60 0 -104.5 38t-44.5 102q0 44 20.5 78t54 53t68 29t70.5 13l110 8q22 2 38 15t16 33q0 22 -18 32.5t-41 10.5q-36 0 -61.5 -19t-35.5 -48l-161 51q25 67 99 113.5t185 46.5q86 0 151.5 -42.5
t65.5 -123.5q0 -35 -7 -64l-84 -316q-43 -21 -86.5 -55t-43.5 -64q0 -19 18.5 -29t39.5 -10q3 0 8.5 0.5t8.5 0.5l-28 -104q-24 -5 -59 -5q-54 0 -97 25t-43 75zM248 122q35 0 60.5 19t35.5 53l6 24l-69 -7q-76 -7 -76 -50q0 -17 12 -28t31 -11z" />
    <glyph glyph-name="aring.alt" horiz-adv-x="606" 
d="M159 -10q-60 0 -104.5 38t-44.5 102q0 44 20.5 78t54 53t68 29t70.5 13l110 8q22 2 38 15t16 33q0 22 -18 32.5t-41 10.5q-36 0 -61.5 -19t-35.5 -48l-161 51q17 45 58 83t102 58q-9 23 -9 50q0 68 48 116.5t117 48.5q59 0 98.5 -38.5t39.5 -97.5q0 -52 -31 -94h-1
q79 -46 79 -132q0 -35 -7 -64l-85 -316h-181l16 63h-1q-33 -37 -68.5 -55t-85.5 -18zM379 648q-27 0 -46 -18.5t-19 -46.5q0 -22 14.5 -36t36.5 -14q27 0 46 19.5t19 46.5q0 22 -14 35.5t-37 13.5zM248 122q35 0 60.5 19t35.5 53l6 24l-69 -7q-76 -7 -76 -50q0 -17 12 -28
t31 -11z" />
    <glyph glyph-name="atilde.alt" horiz-adv-x="605" 
d="M470 624q-39 0 -81 27t-62 27q-30 0 -47 -53h-106l9 35q17 64 56.5 103t98.5 39q36 0 79 -26.5t62 -26.5q14 0 25 8.5t15 16.5t11 25h101l-9 -38q-17 -61 -56.5 -99t-95.5 -38zM159 -10q-60 0 -104.5 38t-44.5 102q0 44 20.5 78t54 53t68 29t70.5 13l110 8q22 2 38 15
t16 33q0 22 -18 32.5t-41 10.5q-36 0 -61.5 -19t-35.5 -48l-161 51q25 67 99 113.5t185 46.5q86 0 151.5 -42.5t65.5 -123.5q0 -35 -7 -64l-85 -316h-181l16 63h-1q-33 -37 -68.5 -55t-85.5 -18zM248 122q35 0 60.5 19t35.5 53l6 24l-69 -7q-76 -7 -76 -50q0 -17 12 -28
t31 -11z" />
    <glyph glyph-name="l.alt" horiz-adv-x="374" 
d="M397 815l-159 -600q-4 -14 -4 -21q0 -44 54 -44q22 0 49 5l-39 -150q-43 -14 -103 -14q-71 0 -115.5 39.5t-44.5 111.5q0 34 9 66l162 607h191z" />
    <glyph glyph-name="lslash.alt" horiz-adv-x="475" 
d="M312 215q-3 -11 -3 -21q0 -44 54 -44q22 0 49 5l-40 -150q-42 -14 -102 -14q-71 0 -116 39.5t-45 111.5q0 31 10 66l5 21l-115 -48l47 172l113 47l111 415h192l-87 -326l117 49l-45 -170l-117 -49z" />
    <glyph glyph-name="y.alt" horiz-adv-x="625" 
d="M-3 -265q-72 0 -106 20l39 147q26 -9 52 -9q59 0 97.5 26t72.5 80l-70 535h187l33 -317h1l188 317h201l-363 -572q-49 -77 -92.5 -123.5t-104 -75t-135.5 -28.5z" />
    <glyph glyph-name="aring.alt2" horiz-adv-x="605" 
d="M402 607q-60 0 -98.5 38t-38.5 98q0 69 48 117.5t117 48.5q59 0 98.5 -38.5t39.5 -97.5q0 -69 -48 -117.5t-118 -48.5zM423 816q-27 0 -45.5 -19t-18.5 -47q0 -22 14 -35.5t36 -13.5q27 0 46 18.5t19 46.5q0 22 -14.5 36t-36.5 14zM159 -10q-60 0 -104.5 38t-44.5 102
q0 44 20.5 78t54 53t68 29t70.5 13l110 8q22 2 38 15t16 33q0 22 -18 32.5t-41 10.5q-36 0 -61.5 -19t-35.5 -48l-161 51q25 67 99 113.5t185 46.5q86 0 151.5 -42.5t65.5 -123.5q0 -35 -7 -64l-85 -316h-181l16 63h-1q-33 -37 -68.5 -55t-85.5 -18zM248 122q35 0 60.5 19
t35.5 53l6 24l-69 -7q-76 -7 -76 -50q0 -17 12 -28t31 -11z" />
    <glyph glyph-name="i.loclTRK" horiz-adv-x="318" 
d="M271 606q-43 0 -71 27.5t-28 70.5q0 51 35 86.5t86 35.5q43 0 71.5 -27.5t28.5 -70.5q0 -51 -35.5 -86.5t-86.5 -35.5zM137 534h192l-142 -534h-192z" />
    <glyph glyph-name="uni0414.alt" horiz-adv-x="919" 
d="M-92 -164l90 334h56l441 613h210l107 -613h63l-89 -334h-185l44 164h-508l-44 -164h-185zM265 170h353l-64 401z" />
    <glyph glyph-name="uni041B.alt" horiz-adv-x="796" 
d="M749 0h-218l-64 526l-311 -526h-222l482 783h218z" />
    <glyph glyph-name="uni0434.alt" horiz-adv-x="736" 
d="M678 154l-84 -318h-158l43 164h-359l-44 -164h-159l84 318h53l281 380h212l77 -380h54zM398 378l-161 -224h203z" />
    <glyph glyph-name="uni0438.alt" horiz-adv-x="652" 
d="M344 59q-74 -70 -154 -70q-74 0 -113.5 45t-39.5 113q0 42 16 98l77 289h190l-75 -282q-5 -17 -5 -32q0 -27 15 -42t42 -15q75 0 99 87l76 284h190l-143 -534h-189l16 59h-2z" />
    <glyph glyph-name="uni0439.alt" horiz-adv-x="652" 
d="M334 825q4 -40 27.5 -64.5t62.5 -24.5q41 0 73.5 25.5t44.5 64.5l103 -19q-27 -83 -87.5 -135.5t-144.5 -52.5q-78 0 -129.5 48t-51.5 126v13zM344 59q-74 -70 -154 -70q-74 0 -113.5 45t-39.5 113q0 42 16 98l77 289h190l-75 -282q-5 -17 -5 -32q0 -27 15 -42t42 -15
q75 0 99 87l76 284h190l-143 -534h-189l16 59h-2z" />
    <glyph glyph-name="uni043B.alt" horiz-adv-x="632" 
d="M363 0l-30 309l-190 -309h-204l356 534h189l72 -534h-193z" />
    <glyph glyph-name="uni043F.alt" horiz-adv-x="651" 
d="M412 281q4 15 4 33q0 57 -57 57q-75 0 -98 -87l-76 -284h-190l142 534h189l-15 -59h1q72 70 154 70q75 0 114 -44.5t39 -113.5q0 -40 -15 -98l-78 -289h-190z" />
    <glyph glyph-name="uni0446.alt" horiz-adv-x="703" 
d="M377 -164l44 164h-91l16 59h-2q-74 -70 -154 -70q-74 0 -113.5 45t-39.5 113q0 42 16 98l77 289h190l-75 -282q-5 -17 -5 -32q0 -27 15 -42t42 -15q75 0 99 87l76 284h190l-101 -378h75l-86 -320h-173z" />
    <glyph glyph-name="uni0448.alt" horiz-adv-x="981" 
d="M674 59q-73 -70 -153 -70q-103 0 -136 88q-83 -88 -193 -88q-75 0 -115 41.5t-40 115.5q0 45 16 98l77 290h189l-74 -283q-5 -18 -5 -32q0 -56 54 -56q73 0 96 87l76 284h189l-75 -283q-5 -17 -5 -32q0 -56 54 -56q73 0 96 87l76 284h190l-116 -436q-10 -35 -14 -79v-19
h-191v19q1 20 6 40h-2z" />
    <glyph glyph-name="uni0449.alt" horiz-adv-x="1033" 
d="M965 156l-85 -320h-173l43 164h-90l16 59h-2q-73 -70 -153 -70q-103 0 -136 88q-83 -88 -193 -88q-75 0 -115 41.5t-40 115.5q0 37 16 98l77 290h189l-74 -283q-5 -18 -5 -32q0 -56 54 -56q73 0 96 87l76 284h189l-75 -283q-5 -17 -5 -32q0 -56 54 -56q73 0 96 87l76 284
h190l-101 -378h75z" />
    <glyph glyph-name="one.alt" horiz-adv-x="617" 
d="M405 164h173l-43 -164h-546l44 164h176l91 341h-183l35 132q80 1 153 44.5t97 102.5h168z" />
    <glyph glyph-name="colon.case" horiz-adv-x="362" 
d="M249 437q-47 0 -76 29.5t-29 75.5q0 53 37 91t90 38q46 0 76 -29t30 -75q0 -54 -37.5 -92t-90.5 -38zM162 114q-46 0 -75.5 28.5t-29.5 74.5q0 54 37 92t91 38q46 0 76 -29t30 -75q0 -54 -37.5 -91.5t-91.5 -37.5z" />
    <glyph glyph-name="exclamdown.case" horiz-adv-x="351" 
d="M301 795q43 0 70.5 -27t27.5 -70q0 -50 -34.5 -85.5t-84.5 -35.5q-43 0 -71 27t-28 70q0 51 35 86t85 35zM210 0h-205l154 517h173z" />
    <glyph glyph-name="uni2E18.case" horiz-adv-x="620" 
d="M402 578q-43 0 -71 27t-28 70q0 50 35 85.5t85 35.5q43 0 70.5 -27t27.5 -70q0 -50 -34.5 -85.5t-84.5 -35.5zM574 229q0 -93 -82 -167t-217 -74q-101 0 -169.5 52.5t-68.5 138.5q0 40 10 74.5t24.5 59t42.5 53t51 47.5t63 52t67 57h185l-37 -237h-156l13 64
q-42 -35 -65 -67t-23 -69q0 -32 25 -51t59 -19q55 0 89.5 31.5t34.5 71.5z" />
    <glyph glyph-name="questiondown.case" horiz-adv-x="612" 
d="M401 797q43 0 71 -27t28 -70q0 -50 -35 -85.5t-85 -35.5q-43 0 -71 27t-28 70q0 50 35 85.5t85 35.5zM305 319q-38 -29 -58 -53t-20 -51q0 -29 21 -43t51 -14q40 0 66 33.5t26 74.5l177 -21q0 -116 -90 -186t-208 -70q-96 0 -166 50t-70 142q0 102 88 174l69 57
q44 37 62 58.5t24 52.5h176q0 -41 -23.5 -83t-58.5 -69z" />
    <glyph glyph-name="semicolon.case" horiz-adv-x="360" 
d="M248 437q-46 0 -76 29.5t-30 75.5q0 53 37.5 91t90.5 38q46 0 76 -29t30 -75q0 -54 -37.5 -92t-90.5 -38zM283 213q0 -84 -56 -155.5t-140 -123.5l-56 60q93 55 140 130q-20 -10 -42 -10q-39 0 -62.5 24t-23.5 61q0 54 40.5 91.5t94.5 37.5q48 0 76.5 -33t28.5 -82z" />
    </font>
</defs>
</svg>
