<?xml version="1.0" standalone="no"?>
<!DOCTYPE svg PUBLIC "-//W3C//DTD SVG 1.1//EN" "http://www.w3.org/Graphics/SVG/1.1/DTD/svg11.dtd" >
<svg xmlns="http://www.w3.org/2000/svg">
<metadata></metadata>
<defs>
<font id="houschka_alt_proXBdIt" horiz-adv-x="1228" >
<font-face units-per-em="2048" ascent="1556" descent="-492" />
<missing-glyph horiz-adv-x="561" />
<glyph unicode="&#xfb01;" horiz-adv-x="1243" d="M66 -367l141 1053h-96q-15 0 -25 11t-8 26l26 186q3 15 15.5 26t27.5 11h97l12 88q21 153 111 248q119 129 321 129q97 0 183.5 -25t138.5 -67q24 -21 8 -47l-109 -176q-9 -14 -25 -17t-30 6q-41 25 -69 36.5t-60 11.5q-55 0 -94 -31q-39 -34 -49 -105l-7 -51h580 q15 0 24.5 -11t6.5 -26l-123 -872q-1 -15 -13.5 -26t-27.5 -11h-258q-15 0 -25 11t-8 26l92 649h-284l-142 -1053q-1 -15 -13.5 -25.5t-27.5 -10.5h-258q-15 0 -24.5 10.5t-7.5 25.5z" />
<glyph unicode="&#xfb02;" horiz-adv-x="1263" d="M66 -367l141 1053h-96q-15 0 -25 11t-8 26l26 186q3 15 15.5 26t27.5 11h97l12 88q24 172 129 264q129 113 385 113q148 0 274 -24.5t185 -51.5q37 -15 31 -49l-177 -1249q-1 -15 -13.5 -26t-27.5 -11h-258q-15 0 -24.5 11t-7.5 26l145 1032q7 33 -14 43q-57 25 -156 25 q-72 0 -111 -52q-27 -37 -36 -102l-5 -37h130q15 0 24 -11t6 -26l-26 -186q-1 -15 -13.5 -26t-27.5 -11h-129l-142 -1053q-1 -15 -13.5 -25.5t-27.5 -10.5h-258q-15 0 -24.5 10.5t-7.5 25.5z" />
<glyph unicode="&#xfb03;" horiz-adv-x="1914" d="M82 -367l149 1053h-94q-15 0 -23 10.5t-5 24.5l28 190q1 13 13 24t24 11h94l11 68q25 184 135 286q98 91 239 91q181 0 287 -86q26 -19 8 -48l-98 -163q-19 -31 -55 -11q-53 29 -93 29q-42 0 -65 -33q-21 -31 -31 -90l-4 -43h309l13 88q22 154 110 248q119 129 322 129 q97 0 183 -25t138 -67q25 -21 9 -47l-109 -176q-9 -14 -25 -17t-30 6q-41 25 -69 36.5t-60 11.5q-56 0 -95 -31q-42 -36 -51 -105l-4 -51h584q13 0 21.5 -10.5t6.5 -24.5l-124 -874q-1 -17 -12 -27t-25 -10h-264q-16 0 -25 10t-6 27l92 649h-285l-141 -1053 q-3 -15 -14.5 -25.5t-26.5 -10.5h-258q-15 0 -25.5 10.5t-7.5 25.5l141 1053h-309l-149 -1053q-3 -17 -15 -26.5t-26 -9.5h-264q-14 0 -23 10t-6 26z" />
<glyph unicode="&#xfb04;" horiz-adv-x="1888" d="M49 -367l150 1053h-95q-15 0 -23 10.5t-5 24.5l28 190q1 13 13 24t24 11h95l10 68q25 184 135 286q98 91 240 91q180 0 286 -86q26 -19 8 -48l-98 -163q-19 -31 -55 -11q-53 29 -92 29q-43 0 -66 -33t-29 -90l-6 -43h310l12 88q24 172 129 264q129 113 385 113 q148 0 274 -24.5t185 -51.5q36 -14 30 -49l-176 -1249q-1 -15 -13.5 -26t-27.5 -11h-258q-15 0 -25 11t-8 26l146 1032q7 33 -14 43q-58 25 -156 25q-72 0 -111 -52q-28 -39 -37 -102l-4 -37h129q15 0 24.5 -11t6.5 -26l-27 -186q-2 -15 -13.5 -26t-26.5 -11h-129 l-142 -1053q-1 -15 -13.5 -25.5t-27.5 -10.5h-258q-15 0 -24.5 10.5t-8.5 25.5l142 1053h-310l-149 -1053q-3 -17 -15 -26.5t-26 -9.5h-264q-14 0 -23 10t-6 26z" />
<glyph horiz-adv-x="2048" />
<glyph horiz-adv-x="2048" />
<glyph unicode="&#xd;" horiz-adv-x="2048" />
<glyph unicode=" "  horiz-adv-x="561" />
<glyph unicode="&#x09;" horiz-adv-x="561" />
<glyph unicode="&#xa0;" horiz-adv-x="561" />
<glyph unicode="!" horiz-adv-x="802" d="M188 178q0 82 57.5 139.5t139.5 57.5t139.5 -57.5t57.5 -139.5t-57.5 -139t-139.5 -57t-139.5 57t-57.5 139zM307 528l25 830q0 37 37 37h342q36 0 26 -43l-209 -824q-8 -36 -41 -36h-147q-35 0 -33 36z" />
<glyph unicode="&#x22;" horiz-adv-x="821" d="M156 944l4 397q3 54 49 54h235q48 0 33 -54l-106 -397q-12 -51 -58 -51h-112q-45 0 -45 51zM553 944l4 397q3 54 49 54h236q47 0 32 -54l-106 -397q-12 -51 -57 -51h-113q-45 0 -45 51z" />
<glyph unicode="#" horiz-adv-x="1449" d="M0 213v184q0 15 10 26t25 11h250l49 234h-203q-15 0 -26 11t-11 26v184q0 15 11 26t26 11h256l66 303q9 37 55 37h168q47 0 35 -56l-62 -284h244l65 303q9 37 56 37h168q26 0 33 -14.5t2 -41.5l-62 -284h197q15 0 26 -11t11 -26v-184q0 -15 -11 -26t-26 -11h-250 l-49 -234h202q15 0 26 -11t11 -26v-184q0 -15 -11 -26t-26 -11h-258l-63 -303q-9 -37 -55 -37h-168q-46 0 -35 55l59 285h-243l-64 -303q-9 -37 -55 -37h-168q-26 0 -33 14t-2 41l59 285h-194q-15 0 -25 11t-10 26zM547 434h244l49 234h-244z" />
<glyph unicode="$" horiz-adv-x="1083" d="M78 139l135 215q19 25 45 6q115 -94 252 -94q86 0 129 29q37 25 37 65q0 61 -109 117q-24 13 -99 49t-123 66.5t-87 71.5q-96 96 -96 235q0 188 139 303q101 82 252 105l22 161q2 14 13 24.5t26 10.5h125q13 0 22 -10.5t7 -24.5l-23 -153q158 -11 267 -62q12 -4 15 -16.5 t-3 -22.5l-141 -233q-11 -19 -37 -4q-93 49 -203 49q-71 0 -104 -20q-35 -21 -35 -64q0 -11 4 -22t14 -21.5t16.5 -17.5t24 -17t22.5 -13t25 -13l19 -11q23 -12 87 -42.5t107.5 -56.5t81.5 -58q125 -108 125 -260q0 -174 -121 -289q-124 -121 -350 -139l-18 -140 q-3 -17 -13 -27t-24 -10h-125q-15 0 -23.5 10t-7.5 27l19 146q-160 18 -283 104q-24 17 -6 47z" />
<glyph unicode="%" horiz-adv-x="1423" d="M132.5 15q-4.5 15 8.5 32l1030 1317q24 31 58 31h127q24 0 28 -15t-12 -34l-1028 -1315q-13 -19 -25 -25t-32 -6h-127q-23 0 -27.5 15zM143 1053q0 139 72 233q44 60 109.5 93.5t138.5 33.5q60 0 114 -23.5t91 -66.5q61 -74 61 -178q0 -138 -72 -236q-92 -123 -247 -123 q-129 0 -205 88q-62 72 -62 179zM334 1081q0 -47 20 -80q24 -40 66 -40q58 0 90 53q22 42 22 96q0 55 -16 88q-23 37 -67 37q-58 0 -89 -55q-26 -44 -26 -99zM786 248q0 136 74 233q44 60 108.5 93.5t137.5 33.5q128 0 205 -90q61 -70 61 -178q0 -138 -72 -236 q-88 -122 -247 -122q-126 0 -205 88q-62 75 -62 178zM979 276q0 -49 18 -79q24 -41 68 -41q59 0 88 53q25 42 25 96t-19 88q-19 37 -65 37q-54 0 -90 -55q-25 -42 -25 -99z" />
<glyph unicode="&#x26;" horiz-adv-x="1394" d="M137 352q0 83 25 152.5t72.5 122.5t98.5 91t120 75q6 2 18 10q-35 119 -35 207q0 164 88 266q99 110 287 110q157 0 240 -92q71 -77 71 -209q0 -68 -24 -125.5t-71 -105t-94.5 -81.5t-115.5 -73q58 -110 125 -194q25 66 35 151q3 29 29 29h221q13 0 19.5 -10.5t4.5 -24.5 q-19 -187 -100 -332q56 -31 100 -36q33 -7 27 -35l-33 -234q-1 -14 -15.5 -24t-29.5 -10q-130 0 -266 104q-153 -104 -363 -104q-192 0 -305 88q-129 96 -129 284zM451 367q0 -70 43 -103q43 -31 114 -31q78 0 142 37q-102 129 -179 283q-120 -85 -120 -186zM717 1051 q0 -62 14 -119q54 33 81.5 64t27.5 71q0 31 -15 49q-14 21 -41 21q-33 0 -49 -23q-18 -24 -18 -63z" />
<glyph unicode="'" horiz-adv-x="423" d="M156 944l4 397q3 54 49 54h235q48 0 33 -54l-106 -397q-12 -51 -58 -51h-112q-45 0 -45 51z" />
<glyph unicode="(" horiz-adv-x="696" d="M100 649q74 521 369 918q19 26 38.5 36.5t49.5 10.5h229q43 0 51.5 -24t-14.5 -58q-141 -211 -238 -424.5t-132 -458.5q-15 -104 -15 -207.5t10 -189t31 -176t43.5 -159t52.5 -146.5q13 -36 -2 -59t-57 -23h-229q-30 0 -46.5 11t-27.5 36q-187 393 -113 913z" />
<glyph unicode=")" horiz-adv-x="722" d="M-77 -287q-8 24 16 58q142 215 237.5 424.5t130.5 453.5q33 245 -4 458t-119 425q-13 35 2 58.5t58 23.5h229q30 0 47 -11t29 -36q87 -186 116 -415t-6 -503q-74 -522 -368 -913q-19 -26 -38.5 -36.5t-49.5 -10.5h-230q-42 0 -50 24z" />
<glyph unicode="*" horiz-adv-x="712" d="M96 1231q13 42 47 56t72 3q29 -8 66 -26l86 -39l-13 96q-6 48 -6 70q0 39 24.5 66.5t69.5 27.5t70 -27.5t25 -66.5q0 -14 -7 -70l-12 -96l86 39q37 18 66 26q38 11 71.5 -3t46.5 -56q14 -43 -4.5 -75.5t-54.5 -43.5q-15 -5 -41.5 -10t-28.5 -6l-94 -17l68 -69 q29 -29 47 -52q24 -29 20.5 -68t-38.5 -65q-40 -27 -74.5 -20t-59.5 39q-15 19 -36 59l-50 86l-49 -86q-19 -37 -37 -59q-25 -31 -59 -38t-74 19q-35 28 -38.5 66t20.5 67q18 23 47 52l67 69l-94 17q-2 0 -28 5.5t-41 10.5q-37 11 -55.5 43.5t-4.5 75.5z" />
<glyph unicode="+" horiz-adv-x="1196" d="M92 604v238q0 15 11 26t26 11h313v313q0 15 11 26t26 11h238q15 0 26 -11t11 -26v-313h315q15 0 26 -11t11 -26v-238q0 -15 -11 -26t-26 -11h-315v-315q0 -15 -11 -26t-26 -11h-238q-15 0 -26 11t-11 26v315h-313q-15 0 -26 11t-11 26z" />
<glyph unicode="," horiz-adv-x="700" d="M82 -238q-17 33 16 50q2 1 16.5 8.5t19 10t18.5 10.5t20 12.5t18 13t17.5 15t14 16t12.5 18t7 18.5t3 21q0 27 -13 46.5t-31 34t-36.5 31.5t-31.5 48t-13 75q0 83 55.5 133t147.5 50q101 0 164 -65t63 -183q0 -84 -34 -161.5t-89.5 -133t-124 -93t-139.5 -50.5 q-38 -3 -53 20z" />
<glyph unicode="-" horiz-adv-x="1105" d="M207 446l33 238q1 15 14.5 26t28.5 11h626q15 0 24 -11t7 -26l-33 -238q-3 -15 -15.5 -25.5t-27.5 -10.5h-626q-15 0 -24.5 10.5t-6.5 25.5z" />
<glyph unicode="." horiz-adv-x="663" d="M119 178q0 82 57 139.5t139 57.5t139.5 -57.5t57.5 -139.5t-57.5 -139t-139.5 -57t-139 57t-57 139z" />
<glyph unicode="/" horiz-adv-x="968" d="M40.5 16q-9.5 16 2.5 39l666 1303q19 37 55 37h285q27 0 36 -17t-2 -39l-665 -1302q-18 -37 -56 -37h-284q-28 0 -37.5 16z" />
<glyph unicode="0" d="M66 532q0 329 124 562q82 151 213 236t310 85q233 0 348 -153q102 -139 102 -396q0 -318 -119 -553q-80 -157 -211 -245t-311 -88q-239 0 -354 163q-102 142 -102 389zM422 549q0 -109 27 -174q31 -76 112 -76q144 0 209 248q33 135 33 305q0 109 -29 166q-33 74 -102 74 q-72 0 -127 -60t-86 -168q-37 -130 -37 -315z" />
<glyph unicode="1" d="M98 37l35 237q1 15 13.5 26t27.5 11h291l102 725l-282 -88q-26 -9 -36.5 -0.5t-6.5 39.5l32 234q3 39 43 53l373 115q47 14 80 14h172q15 0 25 -11t8 -26l-150 -1055h271q15 0 24.5 -11t7.5 -26l-34 -237q-1 -15 -13.5 -26t-27.5 -11h-922q-15 0 -25 11t-8 26z" />
<glyph unicode="2" d="M92 37l17 125q21 134 64 231t120 174q67 67 152 119.5t202 108.5q59 28 88.5 44t64.5 41t49.5 52.5t14.5 62.5q0 48 -28 84q-37 37 -109 37q-158 0 -319 -102q-46 -24 -58 8l-71 211q-9 28 22 47q109 65 220 99t265 34q202 0 312 -104q104 -96 104 -269 q0 -123 -58 -212.5t-161 -161.5q-64 -46 -198 -118.5t-187 -109.5q-71 -51 -80 -127h545q15 0 24.5 -11t6.5 -26l-33 -237q-3 -15 -15.5 -26t-27.5 -11h-895q-15 0 -24.5 11t-6.5 26z" />
<glyph unicode="3" d="M117 141l129 205q19 30 51 8q73 -53 129 -73.5t115 -20.5q85 0 137 41q53 40 53 113q0 84 -59 121q-46 28 -160 32h-100q-15 0 -24.5 11t-6.5 26l29 205q1 15 13.5 26t27.5 11h81q120 0 181 41q65 42 65 123q0 47 -28 75q-38 33 -97 33q-112 0 -250 -86q-40 -25 -53 8 l-74 199q-10 34 21 53q201 121 422 121q172 0 282 -90q103 -90 103 -240q0 -116 -66 -213q-58 -89 -170 -141q104 -50 148 -123q49 -77 49 -203q0 -187 -150 -307q-149 -116 -374 -116q-258 0 -418 114q-27 16 -6 47z" />
<glyph unicode="4" d="M25 279l28 208q5 33 29 64l704 813q28 31 64 31h242q15 0 24.5 -11t7.5 -26l-116 -821h163q15 0 25 -11t8 -26l-30 -221q-3 -15 -16 -26t-28 -11h-163l-29 -205q-1 -15 -13.5 -26t-27.5 -11h-272q-15 0 -25 11t-8 26l29 205h-566q-15 0 -24 11t-6 26zM434 537h228l45 313 z" />
<glyph unicode="5" d="M125 139l113 205q7 14 20 17t25 -5q76 -51 133.5 -73.5t140.5 -22.5q109 0 162 76q41 59 41 145q0 82 -35 129q-39 52 -123 52q-106 0 -172 -105q-15 -25 -51 -18l-162 32q-23 5 -29 15.5t0 38.5l152 733q3 15 15.5 26t27.5 11h684q15 0 25 -11t8 -26l-35 -238 q-1 -15 -13.5 -26t-27.5 -11h-422l-35 -161q44 20 107 20q224 0 336 -123q98 -112 98 -307q0 -224 -135 -369q-160 -163 -436 -163q-131 0 -224 28.5t-176 83.5q-28 15 -12 47z" />
<glyph unicode="6" d="M98 559q0 130 22.5 250t74 231t127 193t190 131t254.5 49q200 0 340 -80q11 -8 14 -21.5t-4 -25.5l-119 -211q-14 -26 -49 -12q-102 47 -205 47q-107 0 -177 -71.5t-93 -182.5q117 57 244 57q198 0 303.5 -111t105.5 -313q0 -140 -63.5 -255t-185 -184.5t-279.5 -69.5 q-130 0 -227.5 42.5t-156.5 121.5t-87.5 182.5t-28.5 232.5zM442 508q0 -43 8 -82t25 -76t50.5 -59.5t78.5 -22.5q79 0 127.5 54.5t48.5 142.5q0 69 -38.5 113.5t-112.5 44.5q-87 0 -183 -60q-4 -32 -4 -55z" />
<glyph unicode="7" d="M118.5 19q-5.5 19 10.5 42l403 633q38 59 83 122.5t105 145t89 121.5h-338l-20 -149q-5 -37 -43 -37h-238q-16 0 -25 9.5t-6 27.5l60 424q1 17 13 27t28 10h919q18 0 26.5 -10.5t6.5 -26.5l-31 -209q-5 -35 -26 -74l-617 -1038q-22 -37 -65 -37h-299q-30 0 -35.5 19z" />
<glyph unicode="8" d="M94 348q0 140 101 244q66 66 213 145q-76 66 -119 137q-51 82 -51 187q0 160 104 248q118 106 363 106q82 0 161.5 -24t137.5 -70q108 -87 108 -236q0 -110 -53 -202q-46 -81 -146 -156q92 -74 134 -135q61 -91 61 -195q0 -201 -141 -309q-141 -106 -422 -106 q-187 0 -307 84q-144 103 -144 282zM436 377q0 -63 39 -94q38 -35 117 -35q72 0 117 31q45 36 45 96q0 53 -39 104q-29 39 -84 84q-92 -47 -117 -65q-78 -54 -78 -121zM575 1071q0 -49 33 -100q24 -36 76 -78q46 36 68 74q28 45 28 100q0 43 -28 68q-25 22 -68 22 q-45 0 -74 -18q-35 -22 -35 -68z" />
<glyph unicode="9" d="M100 903q0 104 37.5 197t105 162.5t167.5 110t219 40.5q130 0 227.5 -43t156 -122t87 -182.5t28.5 -231.5q0 -130 -22.5 -250.5t-73.5 -231.5t-127 -192.5t-190 -130.5t-254 -49q-206 0 -340 79q-17 9 -17 25q0 8 7 22l118 209q12 21 25 21q5 0 25 -8q98 -45 204 -45 q107 0 177.5 70.5t93.5 181.5q-122 -56 -244 -56q-199 0 -304.5 110.5t-105.5 313.5zM446 928q0 -69 39 -114.5t113 -45.5q90 0 182 61q4 32 4 54q0 43 -7.5 82t-25 76t-50.5 59t-78 22q-80 0 -128.5 -53t-48.5 -141z" />
<glyph unicode=":" horiz-adv-x="688" d="M119 176q0 82 57 139.5t139 57.5t139.5 -57.5t57.5 -139.5t-57.5 -139t-139.5 -57t-139 57t-57 139zM203 768q0 80 57.5 137.5t138.5 57.5t139 -57.5t58 -137.5q0 -82 -57.5 -139.5t-139.5 -57.5t-139 57.5t-57 139.5z" />
<glyph unicode=";" horiz-adv-x="694" d="M82 -238q-17 33 16 50q2 1 16.5 8.5t19 10t18.5 10.5t20 12.5t18 13t17.5 15t14 16t12.5 18t7 18.5t3 21q0 27 -13 46.5t-31 34t-36.5 31.5t-31.5 48t-13 75q0 83 55.5 133t147.5 50q101 0 164 -65t63 -183q0 -84 -34 -161.5t-89.5 -133t-124 -93t-139.5 -50.5 q-38 -3 -53 20zM209 768q0 80 58 137.5t139 57.5t138.5 -57.5t57.5 -137.5q0 -82 -57 -139.5t-139 -57.5t-139.5 57.5t-57.5 139.5z" />
<glyph unicode="&#x3c;" horiz-adv-x="1306" d="M96 565v316q0 43 37 57l1008 369q15 9 33 2.5t18 -31.5v-279q0 -47 -41 -61l-680 -215l680 -215q41 -14 41 -62v-278q0 -25 -18 -31.5t-33 2.5l-1008 369q-37 14 -37 57z" />
<glyph unicode="=" horiz-adv-x="1198" d="M92 369v237q0 15 11 26t26 11h940q15 0 26 -11t11 -26v-237q0 -15 -11 -26t-26 -11h-940q-15 0 -26 11t-11 26zM92 836v237q0 15 11 26t26 11h940q15 0 26 -11t11 -26v-237q0 -15 -11 -26t-26 -11h-940q-15 0 -26 11t-11 26z" />
<glyph unicode="&#x3e;" horiz-adv-x="1314" d="M115 168v278q0 48 41 62l680 215l-680 215q-41 14 -41 61v279q0 25 18 31.5t33 -2.5l1008 -369q36 -13 36 -57v-316q0 -44 -36 -57l-1008 -369q-15 -9 -33 -2.5t-18 31.5z" />
<glyph unicode="?" horiz-adv-x="1175" d="M256 1231q-11 36 18 53q197 131 431 131q180 0 290 -98q109 -95 109 -260q0 -122 -66 -211q-36 -49 -90 -89.5t-112.5 -79.5t-94.5 -77q-43 -50 -59 -117q-4 -19 -18 -29t-31 -10h-176q-34 0 -45 33q-23 55 -13 123q12 77 109 174q43 40 164 125q49 36 72.5 64t23.5 63 q0 47 -31 72q-29 26 -90 26q-74 0 -133.5 -21.5t-148.5 -72.5q-12 -7 -25.5 -3t-17.5 17zM326 178q0 82 57 139.5t139 57.5t139.5 -57.5t57.5 -139.5t-57.5 -139t-139.5 -57t-139 57t-57 139z" />
<glyph unicode="@" horiz-adv-x="1861" d="M258 692q0 147 58.5 280.5t158.5 230.5t239.5 154.5t293.5 57.5q140 0 263.5 -43t215.5 -120t145.5 -192.5t53.5 -252.5q0 -101 -23 -190t-67.5 -159t-116.5 -110.5t-164 -40.5q-136 0 -182 107q-109 -109 -250 -109q-48 0 -99.5 20.5t-89.5 63.5q-78 88 -78 232 q0 187 129 313q72 71 171 108t200 37q114 0 191 -18q17 -3 14 -25l-59 -426q-7 -47 -7 -67q0 -119 86 -119q63 0 110 53.5t70 140.5t23 195t-44.5 197.5t-119.5 146.5t-170 88t-198 31q-166 0 -305.5 -77t-222.5 -214.5t-83 -304.5q0 -260 172 -421t441 -161q249 0 448 82 q39 14 51 -14l23 -64q17 -38 -23 -51q-229 -92 -499 -92q-222 0 -393 89t-267 256t-96 388zM764 625q0 -101 43 -150q48 -53 121 -53q104 0 184 88v25q0 41 10 106l43 309q-46 5 -100 0q-134 -14 -215 -98q-86 -89 -86 -227z" />
<glyph unicode="A" horiz-adv-x="1327" d="M-33 11q-3 6 -3 11.5t3 12.5l590 1331q16 35 39 35h383q13 0 23 -10.5t12 -24.5l260 -1331q2 -14 -8 -24.5t-25 -10.5h-307q-25 0 -29 35l-35 217h-428l-86 -217q-16 -35 -39 -35h-331q-13 0 -19 11zM555 541h268l-80 483z" />
<glyph unicode="B" horiz-adv-x="1232" d="M86 35l186 1325q2 14 13 24.5t24 10.5h363q198 0 313 -92q105 -87 105 -246q0 -102 -41 -176q-40 -73 -125 -129v-4q124 -46 184 -134q55 -80 55 -202q0 -182 -125 -291q-133 -121 -374 -121h-549q-13 0 -22 10.5t-7 24.5zM481 293h117q117 0 166 41q43 37 43 104 q0 70 -39 101q-46 39 -158 39h-88zM561 864h49q82 0 123 47q35 38 35 101q0 45 -29 71q-27 27 -75 27h-68z" />
<glyph unicode="C" horiz-adv-x="1277" d="M125 647q0 156 59.5 296t165 244t259.5 165t333 61q223 0 365 -74q18 -9 18 -24q0 -10 -8 -23l-133 -237q-17 -25 -47 -15q-124 47 -228 47q-94 0 -172.5 -35.5t-128 -95t-77 -134t-27.5 -154.5q0 -162 92 -261.5t246 -99.5q124 0 241 49q17 7 26 4.5t15 -16.5l95 -242 q9 -30 -21 -45q-173 -77 -387 -77q-113 0 -213 24t-187.5 76.5t-150.5 129.5t-99 188.5t-36 248.5z" />
<glyph unicode="D" horiz-adv-x="1474" d="M86 35l186 1325q2 14 13 24.5t26 10.5h371q188 0 332 -49t250 -160q170 -181 170 -481q0 -332 -228 -521q-227 -184 -612 -184h-479q-15 0 -23 10q-7 8 -6 20v5zM483 303h187q178 0 286 94q119 104 119 297q0 180 -94 285q-100 113 -299 113h-88z" />
<glyph unicode="E" horiz-adv-x="1257" d="M86 35l186 1325q1 13 13 24t26 11h908q13 0 21 -10q6 -8 5 -19v-6l-37 -252q-1 -13 -13 -23t-24 -10h-579l-29 -213h457q12 0 20 -10t7 -23l-39 -251q-2 -14 -13 -24.5t-24 -10.5h-453l-33 -224h650q12 0 20.5 -9.5t5.5 -22.5l-35 -252q-1 -15 -11.5 -25t-24.5 -10h-975 q-13 0 -22 10.5t-7 24.5z" />
<glyph unicode="F" horiz-adv-x="1132" d="M86 35l186 1325q1 14 12.5 24.5t24.5 10.5h873q12 0 20 -10q6 -8 6 -19v-6l-37 -252q-1 -13 -12.5 -23t-23.5 -10h-543l-29 -213h441q13 0 21.5 -9.5t6.5 -23.5l-37 -251q-2 -14 -13 -24.5t-24 -10.5h-440l-72 -508q-1 -15 -11.5 -25t-24.5 -10h-295q-14 0 -22 10t-7 25z " />
<glyph unicode="G" horiz-adv-x="1550" d="M125 629q0 165 63 310.5t171 249.5t260.5 164t324.5 60q258 0 434 -92q30 -16 11 -47l-152 -242q-18 -27 -47 -14q-138 69 -272 69q-81 0 -156.5 -32.5t-133 -89t-92 -139.5t-34.5 -179q0 -160 91 -253t243 -93q128 0 243 51l17 113h-213q-15 0 -25 11t-8 26l35 246 q1 15 13.5 25.5t27.5 10.5h518q15 0 24.5 -10.5t8.5 -25.5l-101 -711q-1 -15 -13.5 -26t-27.5 -11h-268q-29 0 -33 25q-109 -45 -282 -45q-94 0 -182 22t-169.5 72t-142 123.5t-97 184.5t-36.5 247z" />
<glyph unicode="H" horiz-adv-x="1478" d="M86 35l186 1325q1 15 12 25t25 10h295q14 0 22 -10t7 -25l-72 -500h488l69 500q3 15 14 25t25 10h295q14 0 22 -10q6 -7 6 -17q0 -4 -1 -8l-185 -1325q-3 -15 -14 -25t-25 -10h-294q-13 0 -21.5 10.5t-5.5 24.5l72 508h-490l-70 -508q-3 -15 -14 -25t-24 -10h-293 q-14 0 -22 10t-7 25z" />
<glyph unicode="I" horiz-adv-x="632" d="M86 35l186 1325q1 15 12 25t25 10h295q14 0 22 -10t7 -25l-187 -1325q-3 -15 -14 -25t-24 -10h-293q-14 0 -22 10t-7 25z" />
<glyph unicode="J" horiz-adv-x="1110" d="M0 121q-10 11 -10 23t10 26l166 227q10 12 23 14.5t26 -8.5q97 -104 213 -104q105 0 156 57q47 52 63 185l115 817q7 37 43 37h287q18 0 26 -11q5 -7 5 -17q0 -4 -1 -9l-121 -864q-35 -234 -149 -357q-145 -157 -442 -157q-126 0 -233.5 38t-176.5 103z" />
<glyph unicode="K" horiz-adv-x="1300" d="M86 35l186 1325q1 15 12 25t25 10h295q14 0 22 -10t7 -25l-66 -465l428 463q34 37 76 37h338q23 0 27 -18q1 -3 0 -5q0 -16 -17 -33l-547 -544l385 -732q13 -22 8.5 -42.5t-32.5 -20.5h-305q-43 0 -62 37l-262 495l-102 -102l-56 -395q-3 -15 -14 -25t-24 -10h-293 q-14 0 -22 10t-7 25z" />
<glyph unicode="L" horiz-adv-x="1071" d="M86 35l186 1325q1 15 12 25t25 10h295q14 0 22 -10t7 -25l-148 -1041h490q13 1 21 -9q6 -7 6 -16q0 -3 -1 -7l-34 -252q-1 -15 -12 -25t-25 -10h-815q-14 0 -23 11q-7 8 -7 18q0 3 1 6z" />
<glyph unicode="M" horiz-adv-x="1804" d="M31 35l438 1325q12 35 39 35h258q21 0 29 -35l125 -838l401 838q16 35 41 35h268q13 0 21 -10t8 -25v-1325q0 -14 -12.5 -24.5t-26.5 -10.5h-272q-13 0 -21 10t-8 25v717l-281 -625q-13 -31 -45 -31h-293q-11 0 -19 8t-9 21l-86 627l-217 -717q-12 -35 -39 -35h-271 q-14 0 -23 11q-6 8 -6 16q0 4 1 8z" />
<glyph unicode="N" horiz-adv-x="1456" d="M86 37l184 1321q6 37 41 37h250q44 0 60 -37l389 -756l106 756q1 15 13.5 26t27.5 11h268q15 0 24 -11q7 -9 7 -21v-5l-186 -1321q-1 -15 -13.5 -26t-27.5 -11h-246q-23 0 -36.5 7.5t-24.5 29.5l-392 756l-104 -756q-6 -37 -41 -37h-270q-30 0 -30 27q0 5 1 10z" />
<glyph unicode="O" horiz-adv-x="1497" d="M129 575q-1 23 -1 46q0 148 40 278q46 150 137 262q96 121 231 187.5t289 66.5q265 0 439 -160q175 -166 184 -440q1 -27 1 -53q0 -285 -149 -500q-94 -133 -235 -206.5t-313 -73.5q-125 0 -239 40.5t-198 120.5q-175 165 -186 432zM485 602q8 -135 78 -211 q72 -78 189 -78q85 0 159.5 46t122.5 135q57 115 57 268q0 19 -1 39q-6 123 -66 192q-73 86 -195 86q-69 0 -142.5 -42.5t-125.5 -121.5q-77 -122 -77 -282q0 -15 1 -31z" />
<glyph unicode="P" horiz-adv-x="1318" d="M86 35l186 1325q1 15 12 25t25 10h369q274 0 416 -82q221 -124 221 -418q0 -241 -170 -375q-164 -129 -457 -129h-192l-50 -356q-3 -15 -14 -25t-24 -10h-293q-14 0 -23 10q-7 8 -7 18q0 3 1 7zM541 707h202q98 0 156 55q55 58 55 143q0 95 -57 137q-49 37 -141 37h-162z " />
<glyph unicode="Q" horiz-adv-x="1497" d="M129 575q-1 23 -1 46q0 148 40 278q46 150 137 262q96 121 231 187.5t289 66.5q265 0 439 -160q172 -163 184 -440q1 -27 1 -53q0 -285 -149 -500q-144 -207 -395 -264q3 -12 21 -18q107 -33 263.5 -71t258.5 -50q30 -4 30 -23q0 -11 -10 -26l-139 -189q-22 -31 -63 -31 q-42 0 -98.5 12.5t-138.5 42t-144 53.5t-179 71.5t-180 72.5q-28 13 -28 44q0 9 2 18l22 114q-121 42 -207 125q-175 165 -186 432zM485 602q8 -135 78 -211q72 -78 189 -78q87 0 161.5 46t120.5 135q57 112 57 267q0 20 -1 40q-6 123 -66 192q-73 86 -195 86 q-69 0 -142.5 -42.5t-125.5 -121.5q-77 -122 -77 -282q0 -15 1 -31z" />
<glyph unicode="R" horiz-adv-x="1296" d="M86 35l184 1323q6 37 39 37h422q242 0 385 -107q81 -58 120.5 -143.5t39.5 -186.5q0 -181 -84 -301q-64 -92 -184 -149l202 -461q9 -17 4 -32t-24 -15h-316q-37 0 -53 35l-172 420h-145l-58 -420q-3 -16 -14.5 -25.5t-25.5 -9.5h-291q-14 0 -23 10q-7 7 -7 17q0 4 1 8z M547 758h176q99 0 151 49q50 44 50 123q0 81 -50 121q-47 39 -131 39h-149z" />
<glyph unicode="S" horiz-adv-x="1185" d="M66 166l147 231q9 13 22 14t25 -10q123 -110 268 -110q75 0 125 20q56 24 56 74q0 32 -18.5 56t-65.5 55q-38 26 -114 65.5t-136 79t-103 88.5q-92 102 -92 250q0 201 148 319q149 117 399 117q111 0 213 -24.5t158 -55.5q15 -7 15 -21q0 -9 -7 -22l-150 -248 q-14 -19 -41 -4q-114 64 -231 64q-66 0 -104 -25q-31 -21 -31 -61q0 -44 74 -96q31 -21 157.5 -88.5t186.5 -124.5q59 -59 91 -126.5t32 -162.5q0 -94 -42 -178t-122 -144q-151 -116 -408 -116q-270 0 -448 135q-14 10 -14 23q0 12 10 26z" />
<glyph unicode="T" horiz-adv-x="1241" d="M119 1112l35 246q3 15 15.5 26t27.5 11h1126q15 0 25 -11q7 -8 7 -19q0 -3 -1 -7l-35 -246q-1 -15 -13.5 -26t-27.5 -11h-383l-145 -1038q-6 -37 -43 -37h-287q-16 0 -25 10t-6 27l146 1038h-383q-15 0 -25 11t-8 26z" />
<glyph unicode="U" horiz-adv-x="1466" d="M150 453q0 59 14 141l108 764q1 15 13 26t26 11h291q14 0 23 -11t8 -26l-105 -727q-12 -78 -12 -121q0 -103 53 -156q49 -49 148 -49q139 0 207 90q53 68 69 193l111 770q3 15 14.5 26t24.5 11h293q16 0 24 -11q7 -9 6 -20v-6l-114 -807q-30 -216 -156 -363 q-183 -208 -518 -208q-254 0 -389 126q-139 127 -139 347z" />
<glyph unicode="V" horiz-adv-x="1359" d="M143 1343q-2 8 -2 15q0 12 6 22q9 14 31 15h285q45 0 53 -41l164 -908h4l418 908q17 41 61 41h285q20 0 26 -15q2 -6 3 -12q0 -11 -7 -25l-649 -1312q-16 -37 -57 -37h-285q-42 0 -47 37z" />
<glyph unicode="W" horiz-adv-x="1943" d="M131 1343q-1 9 -1 16q0 36 32 36h270q46 0 49 -41l101 -905h4l350 905q17 41 59 41h197q43 0 49 -41l135 -905h4l318 905q14 41 59 41h287q28 0 28 -22q0 -12 -8 -30l-522 -1312q-13 -37 -57 -37h-295q-42 0 -47 37l-119 690h-4l-279 -690q-13 -37 -57 -37h-303 q-42 0 -47 37z" />
<glyph unicode="X" horiz-adv-x="1318" d="M-67 18q-1 4 -1 8q0 15 17 33l553 635l-375 641q-14 22 -5.5 41t34.5 19h323q15 0 25.5 -6t15 -12t12.5 -19l203 -383l293 383q29 37 64 37h342q27 0 31 -19q1 -3 1 -7q0 -16 -16 -34l-543 -645l373 -631q14 -23 5.5 -41t-34.5 -18h-313q-35 0 -53 35l-213 389l-310 -389 q-14 -20 -26 -27.5t-33 -7.5h-338q-27 0 -32 18z" />
<glyph unicode="Y" horiz-adv-x="1325" d="M130 1376q8 19 36 19h311q24 0 36.5 -8t21.5 -29l196 -453l305 453q24 37 66 37h332q28 0 32 -19q1 -3 1 -6q0 -16 -17 -35l-580 -772l-73 -526q-3 -15 -15.5 -26t-27.5 -11h-287q-15 0 -24.5 11t-6.5 26l74 528l-375 770q-8 14 -8 27q0 7 3 14z" />
<glyph unicode="Z" horiz-adv-x="1267" d="M-20 14q-2 4 -2 10q0 12 10 27l755 1024h-487q-15 0 -25 11t-8 26l35 246q3 15 15.5 26t27.5 11h1053q22 -1 28 -17q2 -5 2 -10q0 -12 -10 -25l-760 -1024h564q15 0 24.5 -10.5t7.5 -25.5l-34 -246q-1 -15 -13.5 -26t-27.5 -11h-1127q-22 0 -28 14z" />
<glyph unicode="[" horiz-adv-x="903" d="M49 -274l260 1851q1 15 13.5 26t27.5 11h611q15 0 24.5 -11t7.5 -26l-32 -227q-1 -15 -13.5 -26t-27.5 -11h-293l-187 -1323h293q15 0 24.5 -11t6.5 -26l-31 -227q-3 -15 -15.5 -26t-27.5 -11h-610q-15 0 -24.5 11t-6.5 26z" />
<glyph unicode="\" horiz-adv-x="632" d="M133 1339q-3 24 7 40t36 16h240q51 0 57 -52l178 -1288q3 -24 -7 -39.5t-36 -15.5h-239q-52 0 -58 51z" />
<glyph unicode="]" horiz-adv-x="878" d="M-20 -276l30 227q1 15 13.5 26t27.5 11h293l186 1325h-292q-15 0 -24.5 11t-6.5 26l31 227q3 15 15.5 26t27.5 11h610q15 0 24.5 -11t6.5 -26l-260 -1853q-1 -15 -13.5 -26t-27.5 -11h-611q-15 0 -24 11t-6 26z" />
<glyph unicode="^" horiz-adv-x="1200" d="M66 799q-7 19 4 32l391 594q13 20 25 28.5t34 8.5h160q22 0 34 -8.5t25 -28.5l391 -594q11 -13 4 -32t-32 -19h-242q-23 0 -35 9.5t-26 31.5l-199 303l-199 -303q-14 -22 -26 -31.5t-35 -9.5h-242q-25 0 -32 19z" />
<glyph unicode="_" horiz-adv-x="913" d="M-37 -127q0 15 11 26t26 11h913q15 0 26 -11t11 -26v-172q0 -15 -11 -26t-26 -11h-913q-15 0 -26 11t-11 26v172z" />
<glyph unicode="`" horiz-adv-x="1003" d="M487 1536q0 13 10 22t25 9h226q19 0 30 -8.5t21 -28.5l114 -293q13 -30 13 -43t-9.5 -22t-23.5 -9h-172q-32 0 -55 37l-170 311q-9 12 -9 25z" />
<glyph unicode="a" horiz-adv-x="1097" d="M80 385q0 238 162 397q92 91 218.5 138t256.5 47q165 0 297 -29q23 -6 23 -31q0 -5 -1 -12l-121 -858q-1 -17 -11.5 -27t-24.5 -10h-240q-15 0 -24.5 9t-8.5 24q-76 -47 -192 -47q-60 0 -123.5 26t-112.5 80q-98 108 -98 293zM416 395q0 -66 30 -104q32 -37 78 -37 q53 0 97 35l55 395q-46 0 -84 -14q-60 -20 -105 -72q-71 -80 -71 -203z" />
<glyph unicode="b" horiz-adv-x="1110" d="M96 41l185 1319q2 14 12.5 24.5t25.5 10.5h263q15 0 23.5 -10.5t6.5 -24.5l-57 -406q60 11 107 11q185 0 296 -134q91 -118 91 -284q0 -252 -148 -400q-92 -89 -217 -127t-248 -38q-179 0 -311 22q-30 5 -30 28q0 4 1 9zM457 254q12 -4 20 -4q94 0 152 55q82 76 82 223 q0 64 -31 109q-33 45 -94 45q-36 0 -72 -12z" />
<glyph unicode="c" horiz-adv-x="911" d="M80 408q0 241 168 399q82 77 188.5 118.5t222.5 41.5q154 0 269 -52q17 -8 17 -22q0 -9 -7 -21l-113 -186q-10 -16 -22.5 -18.5t-30.5 4.5q-49 14 -119 14q-100 0 -168 -68q-67 -67 -67 -169q0 -90 39 -140q46 -55 143 -55q63 0 119 27q15 10 27 10q17 0 28 -21l76 -170 q5 -10 0 -24t-19 -23q-72 -40 -144.5 -55.5t-164.5 -15.5q-201 0 -321 114q-121 115 -121 312z" />
<glyph unicode="d" horiz-adv-x="1093" d="M80 414q0 182 104 315q87 116 256 180q132 49 271 49l55 402q2 14 13 24.5t26 10.5h264q14 0 23 -11q7 -8 7 -18q0 -3 -1 -6l-185 -1317q-3 -18 -12 -26t-27 -11q-119 -22 -299 -22q-222 0 -354 110q-141 114 -141 320zM416 412q0 -75 41 -113q41 -39 123 -39q22 0 32 2 l58 412q-58 0 -111 -27q-64 -30 -106 -94q-37 -63 -37 -141z" />
<glyph unicode="e" horiz-adv-x="962" d="M80 408q0 217 145 378q76 84 182.5 132.5t223.5 48.5q139 0 227 -68q92 -73 92 -194q0 -183 -188 -285q-139 -76 -336 -94q10 -26 29 -45q42 -45 125 -45t151 40q14 9 27 6.5t18 -14.5l76 -170q11 -29 -14 -43q-126 -73 -326 -73q-187 0 -303 102q-129 115 -129 324z M420 526q75 4 149 37q95 41 95 107q0 15 -11 30q-13 13 -39 13q-75 0 -135 -70q-40 -46 -59 -117z" />
<glyph unicode="f" horiz-adv-x="778" d="M49 -367l150 1053h-95q-14 0 -22 10.5t-6 24.5l28 190q1 13 13 24t24 11h99l24 152q24 137 115 219q109 92 293 92q154 0 286 -76q20 -11 20 -26q0 -9 -7 -19l-123 -192q-16 -24 -41 -9q-70 46 -135 46q-38 0 -64 -33q-17 -28 -28 -84l-11 -70h174q12 0 21 -11t8 -24 l-31 -190q-2 -14 -12.5 -24.5t-23.5 -10.5h-173l-149 -1053q-3 -17 -15 -26.5t-26 -9.5h-264q-14 0 -22 9.5t-7 26.5z" />
<glyph unicode="g" horiz-adv-x="1110" d="M-14 -342l114 188q9 15 25 19t31 -8q108 -82 237 -82q95 0 144 43q46 40 61 121l12 84q-71 -41 -174 -41q-161 0 -258 100q-100 109 -100 293q0 100 30.5 200.5t88.5 182.5q67 95 161.5 150t212.5 55q93 0 191 -50q9 33 41 33h221q29 0 29 -31v-6l-131 -925 q-37 -266 -201 -383q-130 -95 -348 -95q-100 0 -206.5 29.5t-172.5 75.5q-15 9 -15 24q0 10 7 23zM420 408q0 -70 24 -111q25 -43 80 -43q77 0 127 53l51 352q-44 27 -94 27q-86 0 -139 -88q-49 -82 -49 -190z" />
<glyph unicode="h" horiz-adv-x="1169" d="M80 37l186 1323q2 14 14 24.5t29 10.5h262q14 0 21.5 -10.5t5.5 -24.5l-63 -457h8q49 27 84 39q64 21 141 21q124 0 199 -72q100 -97 100 -287q0 -62 -14 -162l-54 -405q-3 -17 -14.5 -27t-26.5 -10h-258q-15 0 -24 10t-6 27l55 405q10 78 10 121q0 67 -30 101 q-25 28 -68 28q-67 0 -109 -59q-36 -50 -55 -166l-61 -430q-6 -37 -43 -37h-256q-33 0 -33 32v5z" />
<glyph unicode="i" horiz-adv-x="593" d="M80 37l125 874q2 14 13 24.5t26 10.5h264q13 0 22 -10.5t7 -24.5l-125 -874q-3 -17 -13 -27t-24 -10h-264q-16 0 -25 10q-7 8 -7 19q0 4 1 8zM242 1339q0 81 57 138t137 57q82 0 138.5 -56.5t56.5 -138.5q0 -80 -56.5 -136t-138.5 -56q-80 0 -137 56.5t-57 135.5z" />
<glyph unicode="j" horiz-adv-x="593" d="M-106 -260q57 41 89 75.5t62 109.5t47 192l111 792q3 15 15.5 26t27.5 11h258q15 0 24 -11t7 -26l-117 -837q-60 -420 -328 -559q-16 -8 -30 -8q-23 0 -40 22l-133 158q-12 11 -12 24q0 18 19 31zM240 1339q0 81 57 138t137 57q82 0 138.5 -56.5t56.5 -138.5 q0 -80 -56.5 -136t-138.5 -56q-80 0 -137 56.5t-57 135.5z" />
<glyph unicode="k" horiz-adv-x="1089" d="M80 37l186 1323q2 14 13 24.5t26 10.5h264q13 0 22 -10.5t7 -24.5l-98 -698l268 262q22 22 45 22h313q20 0 24 -18q1 -4 0 -8q0 -12 -9 -19l-326 -293l250 -561q5 -13 5 -22q0 -25 -34 -25h-282q-34 0 -41 23l-144 364l-125 -113l-32 -237q-3 -17 -13 -27t-24 -10h-264 q-16 0 -25 10q-7 8 -7 19q0 4 1 8z" />
<glyph unicode="l" horiz-adv-x="591" d="M80 37l186 1323q2 14 13 24.5t26 10.5h264q13 0 22 -10.5t7 -24.5l-186 -1323q-1 -17 -12 -27t-25 -10h-264q-15 0 -23.5 10t-7.5 27z" />
<glyph unicode="m" horiz-adv-x="1748" d="M80 37l123 874q2 14 14 24.5t29 10.5h227q14 0 21.5 -10.5t5.5 -24.5l-4 -34h8q58 42 110 61q70 25 150 25q89 0 149 -35q46 -22 86 -78h9q67 53 141 80q97 33 182 33q144 0 219 -72q97 -94 97 -287q0 -55 -15 -162l-53 -405q-3 -17 -14.5 -27t-26.5 -10h-258 q-16 0 -25 10t-6 27l56 405q10 78 10 121q0 70 -27 101q-25 28 -67 28q-68 0 -113 -61q-42 -59 -59 -189l-54 -405q-3 -17 -14.5 -27t-26.5 -10h-258q-15 0 -24 10t-6 27l55 405q10 78 10 121q0 71 -26 101q-25 28 -68 28q-67 0 -109 -59q-36 -50 -55 -166l-61 -430 q-6 -37 -43 -37h-256q-18 0 -27 10q-7 8 -7 19q0 4 1 8z" />
<glyph unicode="n" horiz-adv-x="1169" d="M80 37l123 874q2 14 14 24.5t29 10.5h227q14 0 21.5 -10.5t5.5 -24.5l-4 -34h8q58 42 110 61q70 25 150 25q128 0 203 -72q100 -97 100 -287q0 -62 -14 -162l-54 -405q-3 -17 -14.5 -27t-26.5 -10h-258q-15 0 -24 10t-6 27l55 405q10 78 10 121q0 67 -30 101 q-25 28 -68 28q-67 0 -109 -59q-36 -50 -55 -166l-61 -430q-6 -37 -43 -37h-256q-33 0 -33 32v5z" />
<glyph unicode="o" horiz-adv-x="1083" d="M80 401v11q0 211 113 362q70 92 172 142.5t225 50.5q177 0 303 -113q130 -117 133 -307v-11q0 -226 -119 -376q-141 -178 -389 -178q-182 0 -305 108q-130 117 -133 311zM414 424q0 -71 22 -117q26 -57 90 -57q80 0 129 82q43 79 43 184v14q0 87 -30 132q-27 34 -82 34 q-81 0 -131 -92q-41 -78 -41 -168v-12z" />
<glyph unicode="p" horiz-adv-x="1097" d="M12 -453l193 1364q2 14 14 24.5t29 10.5h201q22 0 26 -24q97 43 207 43q146 0 244 -103q110 -113 110 -307q0 -285 -190 -438q-165 -131 -416 -131q-10 0 -22 2l-64 -441q-2 -15 -13 -25.5t-26 -10.5h-262q-15 0 -24 11q-7 8 -7 20v5zM444 254q6 -2 27 -2q89 0 147 55 q80 77 80 223q0 71 -32 111q-30 41 -82 41q-41 0 -82 -14z" />
<glyph unicode="q" horiz-adv-x="1105" d="M80 379q0 254 153 414q85 86 202.5 130t242.5 44q192 0 336 -43q33 -11 30 -39l-188 -1338q-3 -17 -15 -26.5t-26 -9.5h-262q-14 0 -23 10t-6 26l66 467q-64 -24 -150 -24q-157 0 -254 102q-106 111 -106 287zM414 414q0 -89 32 -129q24 -31 66 -31q50 0 82 35 q35 35 49 112l41 285q-36 8 -76 8q-80 0 -135 -78q-59 -80 -59 -202z" />
<glyph unicode="r" horiz-adv-x="933" d="M80 37l121 872q2 15 12 26t25 11h229q15 0 24 -11t7 -26l-6 -51h6q105 105 256 105q128 0 225 -80q12 -12 12 -25q0 -11 -8 -24l-119 -195q-9 -13 -25.5 -16t-29.5 6q-86 51 -158 51q-154 0 -184 -242l-55 -401q-3 -16 -13 -26.5t-24 -10.5h-264q-15 0 -25 11q-7 8 -7 19 q0 3 1 7z" />
<glyph unicode="s" horiz-adv-x="808" d="M-16 90q0 10 12 31l98 155q9 16 24 18t25 -9q36 -33 83.5 -51.5t92.5 -18.5q58 0 80 14q25 16 25 43q0 26 -30.5 48.5t-90 54t-96.5 59.5q-121 94 -121 225q0 145 111 226q112 80 303 80q68 0 137.5 -16t110.5 -40q8 -6 12 -10q5 -5 9 -11q3 -5 3 -10v-5q-2 -9 -8 -21 l-107 -160q-10 -14 -19.5 -14.5t-23.5 8.5q-72 35 -133 35q-44 0 -65 -14q-17 -11 -17 -31q0 -12 8 -23t25.5 -21.5t35.5 -19.5l48 -24t53 -29q35 -20 61 -40.5t54 -51.5t43.5 -73.5t15.5 -92.5q0 -156 -125 -244q-112 -77 -292 -77q-209 0 -324 86q-18 13 -18 24z" />
<glyph unicode="t" horiz-adv-x="839" d="M76 723l26 186q3 15 15.5 26t27.5 11h99l26 187q1 15 13.5 25.5t27.5 10.5h258q15 0 24.5 -10.5t8.5 -25.5l-27 -187h226q15 0 24 -11q7 -8 7 -19q0 -4 -1 -7l-26 -186q-1 -15 -13.5 -26t-27.5 -11h-225l-31 -217q-14 -110 -14 -123q0 -82 67 -82q59 0 127 51 q17 12 30.5 9.5t18.5 -17.5l62 -186q10 -26 -21 -47q-144 -94 -338 -94q-144 0 -215 81t-71 218q0 52 18 176l35 231h-98q-15 0 -25 11t-8 26z" />
<glyph unicode="u" horiz-adv-x="1159" d="M115 317q0 47 10 115l68 479q2 14 12.5 24.5t25.5 10.5h265q12 0 20.5 -10t7.5 -25l-67 -471q-8 -62 -8 -82q0 -49 20 -75q24 -35 82 -35q72 0 113 47q37 43 43 106l71 510q2 14 13 24.5t26 10.5h264q12 0 21 -10t8 -25l-76 -528q-27 -198 -155 -299q-125 -102 -351 -102 q-223 0 -321 88q-92 83 -92 247z" />
<glyph unicode="v" horiz-adv-x="1069" d="M90 895q-3 8 -3 15q0 10 5 20q8 16 33 16h252q52 0 57 -41l78 -588h4l266 588q16 41 66 41h248q24 0 28 -18q1 -5 1 -9q0 -13 -7 -24l-454 -864q-19 -37 -64 -37h-297q-46 0 -51 37z" />
<glyph unicode="w" horiz-adv-x="1431" d="M80 895q-2 9 -2 17q0 34 37 34h250q25 0 37.5 -9t13.5 -32l47 -518h4l186 518q13 41 66 41h192q26 0 38.5 -9t13.5 -32l41 -518h4l178 518q13 41 65 41h240q28 0 28 -23q0 -11 -6 -28l-364 -864q-16 -37 -59 -37h-277q-24 0 -35 8.5t-12 28.5l-29 397h-4l-141 -397 q-13 -37 -64 -37h-280q-23 0 -32.5 8t-12.5 29z" />
<glyph unicode="x" horiz-adv-x="999" d="M-62 18q-1 3 -1 6q0 16 16 35l379 424l-252 404q-13 22 -4 40.5t35 18.5h288q37 0 50 -37l96 -198l151 198q23 37 60 37h276q26 0 31 -20q1 -4 1 -8q0 -16 -15 -31l-353 -381l273 -447q14 -23 5.5 -41t-34.5 -18h-283q-32 0 -51 35l-121 217l-172 -217q-28 -35 -61 -35 h-285q-25 0 -29 18z" />
<glyph unicode="y" horiz-adv-x="1112" d="M12 -459l35 252q3 27 33 27h67q82 0 132 28q51 30 90 82l-281 965q-5 21 3 36t32 15h293q24 0 36.5 -9t16.5 -32l115 -561l223 561q13 41 63 41h271q23 0 26 -19q1 -5 1 -9q0 -13 -7 -23l-454 -948q-91 -189 -224 -301q-166 -135 -393 -135q-27 0 -55 2q-12 0 -19 8 q-4 6 -4 15v5z" />
<glyph unicode="z" horiz-adv-x="966" d="M2 14q-2 5 -3 11q0 11 9 24l441 608h-338q-13 0 -23 10.5t-8 24.5l33 219q3 15 14 25t25 10h829q19 0 23 -14q1 -3 1 -6q0 -11 -10 -27l-432 -614h324q13 0 21.5 -9.5t6.5 -23.5l-28 -215q-1 -16 -13.5 -26.5t-25.5 -10.5h-819q-21 0 -27 14z" />
<glyph unicode="{" horiz-adv-x="813" d="M66 535l32 229q1 18 13 27.5t28 9.5h13q64 0 104 49q52 60 72 190q2 20 8 76t9.5 84t13.5 77.5t23 81.5t35 69.5t52 66.5q121 115 377 115q40 0 37 -37l-25 -182q-5 -37 -43 -37q-74 0 -117 -49q-20 -24 -33.5 -64.5t-18 -73t-10.5 -86t-9 -73.5q-20 -158 -101 -242 q-60 -66 -188 -117q88 -43 129 -82q68 -71 68 -184q0 -53 -18.5 -163t-18.5 -148q0 -57 26 -90q27 -37 92 -37q39 0 33 -37l-26 -182q-5 -37 -48 -37q-180 0 -278 65q-119 78 -119 238q0 58 23.5 176.5t23.5 169.5q0 81 -30 121q-28 39 -86 39h-13q-35 0 -30 37z" />
<glyph unicode="|" horiz-adv-x="593" d="M131 -410v1768q0 15 11 26t26 11h258q15 0 26 -11t11 -26v-1768q0 -15 -11 -25.5t-26 -10.5h-258q-15 0 -26 10.5t-11 25.5z" />
<glyph unicode="}" horiz-adv-x="794" d="M-4 -270l24 182q3 15 15.5 26t27.5 11q142 0 168 186q5 39 9.5 72.5t6 47t3 24t2.5 16.5q11 80 32.5 135.5t60 96t81.5 67.5t115 59q-35 18 -59.5 33t-48.5 34t-39 38.5t-27.5 45.5t-17 56t-4.5 68t7 84q1 6 3.5 20.5t8.5 50t13 88.5q26 187 -115 187q-15 0 -25 11t-8 26 l27 182q2 16 14 26.5t33 10.5q83 0 148.5 -14t107.5 -36.5t71.5 -55.5t44 -66t20.5 -73.5t5 -72.5t-6 -67q-4 -27 -16 -93.5t-14 -84.5q-7 -65 -4.5 -119.5t30.5 -90.5t80 -36h12q15 0 24.5 -11t6.5 -26l-33 -229q-1 -15 -13.5 -26t-27.5 -11h-12q-75 0 -118 -69.5 t-58 -176.5q-1 -11 -7.5 -76.5t-11.5 -101.5q-7 -52 -21 -97t-49 -100.5t-86.5 -94.5t-140 -66t-202.5 -27q-19 0 -29 10.5t-8 26.5z" />
<glyph unicode="~" horiz-adv-x="1413" d="M94 422q0 201 99 319.5t294 118.5q63 0 118 -18.5t93 -45.5t71.5 -54t68.5 -45.5t69 -18.5q60 0 84.5 31t24.5 92q0 37 41 37h225q37 0 37 -37q0 -201 -99.5 -320t-293.5 -119q-63 0 -118 19t-93 45.5t-71.5 53.5t-68.5 46t-69 19q-60 0 -84.5 -31t-24.5 -92 q0 -37 -41 -37h-225q-37 0 -37 37z" />
<glyph unicode="&#xa1;" horiz-adv-x="620" d="M-12 -408l209 824q8 37 41 37h147q33 0 33 -37l-25 -830q-3 -37 -37 -37h-342q-38 0 -26 43zM143 766q0 82 57.5 139.5t139.5 57.5t139.5 -57.5t57.5 -139.5t-57.5 -139.5t-139.5 -57.5t-139.5 57.5t-57.5 139.5z" />
<glyph unicode="&#xa2;" d="M213 408q0 241 168 399q144 135 344 156l23 151q2 14 12.5 24.5t25.5 10.5h103q13 0 22 -10.5t7 -24.5l-23 -153q85 -11 166 -46q27 -13 10 -43l-113 -186q-10 -16 -22.5 -18.5t-30.5 4.5q-49 14 -119 14q-100 0 -168 -68q-67 -67 -67 -169q0 -90 39 -140q46 -55 143 -55 q71 0 119 27q41 21 55 -11l76 -170q12 -29 -18 -47q-94 -52 -207 -65l-21 -154q-3 -17 -13 -27t-24 -10h-102q-16 0 -25 10t-6 27l21 152q-156 15 -254 110q-121 115 -121 312z" />
<glyph unicode="&#xa3;" d="M18 37l35 237q1 15 13.5 26t27.5 11h150q73 70 94 191h-174q-15 0 -24.5 11t-6.5 26l29 213q3 15 15.5 25.5t27.5 10.5h106q-10 62 -10 127q0 216 135 351q147 147 406 147q224 0 354 -84q11 -8 13 -21.5t-5 -25.5l-125 -199q-7 -13 -21 -16.5t-26 2.5q-96 51 -188 51 q-109 0 -160 -63q-43 -52 -43 -142q0 -49 8 -127h322q15 0 24 -10.5t6 -25.5l-28 -213q-3 -15 -15.5 -26t-27.5 -11h-266q-20 -107 -86 -191h450q15 0 25 -11t8 -26l-35 -237q-1 -15 -13.5 -26t-27.5 -11h-934q-15 0 -25 11t-8 26z" />
<glyph unicode="&#xa4;" horiz-adv-x="1454" d="M102 1233q0 17 11 27l149 151q10 11 26 11t27 -11l152 -154q123 68 260 68q136 0 256 -65l154 155q11 11 27 11t26 -11l149 -151q11 -10 11 -27t-11 -27l-151 -151q69 -120 69 -264q0 -138 -67 -260l151 -152q11 -11 11 -27t-11 -26l-149 -152q-10 -10 -26 -10t-27 10 l-154 156q-115 -70 -258 -70t-264 70l-146 -152q-11 -10 -27 -10t-26 10l-149 152q-11 10 -11 26t11 27l147 152q-65 115 -65 256q0 142 67 260l-151 151q-11 10 -11 27zM467 795q0 -107 76.5 -183.5t183.5 -76.5q106 0 181 76.5t75 183.5q0 106 -75 181t-181 75 q-107 0 -183.5 -75t-76.5 -181z" />
<glyph unicode="&#xa5;" d="M-2 236l22 161q3 15 15.5 26t27.5 11h295l17 123h-295q-15 0 -24.5 11t-6.5 26l23 162q1 15 13.5 26t27.5 11h170l-226 550q-7 17 2.5 34.5t34.5 17.5h334q43 0 55 -41l123 -432l248 432q21 41 68 41h338q25 0 29 -19.5t-9 -32.5l-385 -550h170q15 0 25 -11t8 -26 l-23 -162q-3 -15 -15.5 -26t-27.5 -11h-297l-16 -123h297q15 0 24.5 -11t6.5 -26l-23 -161q-1 -15 -13.5 -26t-27.5 -11h-297l-22 -162q-3 -15 -15.5 -26t-27.5 -11h-287q-15 0 -24.5 11t-6.5 26l23 162h-295q-15 0 -25 11t-8 26z" />
<glyph unicode="&#xa6;" horiz-adv-x="593" d="M131 317q0 15 11 26t26 11h258q15 0 26 -11t11 -26v-727q0 -15 -11 -25.5t-26 -10.5h-258q-15 0 -26 10.5t-11 25.5v727zM131 631v727q0 15 11 26t26 11h258q15 0 26 -11t11 -26v-727q0 -15 -11 -26t-26 -11h-258q-15 0 -26 11t-11 26z" />
<glyph unicode="&#xa7;" horiz-adv-x="1083" d="M-8 -315l114 182q10 18 26 20t26 -10q49 -42 93.5 -64t98.5 -22q50 0 82 25q31 25 31 65q0 30 -12 58.5t-40 59.5t-50.5 52.5t-66 59t-65.5 57.5q-85 78 -133.5 157t-48.5 181q0 116 47 196q50 85 150 162q-31 67 -31 148q0 159 117 270q133 133 356 133q207 0 348 -108 q24 -21 8 -47l-114 -183q-10 -18 -25.5 -20t-25.5 10q-100 86 -193 86q-51 0 -82 -25q-31 -22 -31 -65q0 -30 12.5 -59t40.5 -60.5t51 -52.5t67.5 -59t66.5 -58q83 -77 130.5 -156.5t47.5 -179.5q0 -123 -53 -209q-44 -70 -143 -149q30 -65 30 -148q0 -164 -129 -284 q-132 -119 -344 -119q-206 0 -348 109q-24 21 -8 47zM414 551q0 -70 57 -137q40 -42 117 -105q16 20 24 39q9 27 9 45q0 67 -54 131q-32 38 -121 111q-13 -17 -22 -37q-10 -23 -10 -47z" />
<glyph unicode="&#xa8;" horiz-adv-x="1003" d="M326 1348q0 71 49.5 121.5t118.5 50.5q72 0 122 -50.5t50 -121.5q0 -72 -50 -123t-122 -51q-69 0 -118.5 51t-49.5 123zM791 1348q0 71 50 121.5t120 50.5q69 0 118 -50.5t49 -121.5q0 -72 -49 -123t-118 -51q-70 0 -120 51t-50 123z" />
<glyph unicode="&#xa9;" horiz-adv-x="1677" d="M76 735q0 154 59.5 293.5t160 240.5t240 160.5t293.5 59.5t294 -59.5t241 -160.5t161 -240.5t60 -293.5t-59.5 -293.5t-160.5 -240t-240.5 -160t-293.5 -59.5q-206 0 -379.5 100.5t-274.5 273.5t-101 379zM256 735q0 -120 44.5 -227.5t120.5 -185.5t182.5 -124t225.5 -46 q159 0 291.5 77.5t208.5 211.5t76 294t-75.5 294t-207.5 212t-291 78t-291.5 -78t-208 -212t-75.5 -294zM469 727q0 161 118 269t281 108q126 0 219 -49q16 -8 9 -25l-64 -127q-6 -16 -22 -8q-76 37 -148 37q-80 0 -137 -58t-57 -147t55.5 -147t140.5 -58q78 0 154 39 q16 8 22 -8l62 -129q3 -6 1 -14t-9 -11q-103 -49 -230 -49q-178 0 -286.5 102.5t-108.5 274.5z" />
<glyph unicode="&#xaa;" horiz-adv-x="622" d="M100 1073q0 137 90 230q53 55 128 83.5t151 28.5q83 0 158 -16q21 -6 18 -23l-72 -512q-3 -18 -20 -18h-117q-13 0 -18 3.5t-2 14.5l2 10q-50 -36 -121 -36q-90 0 -145 69q-52 62 -52 166zM190 575q0 44 32.5 76.5t76.5 32.5t76.5 -32.5t32.5 -76.5q0 -45 -32 -76.5 t-77 -31.5t-77 31.5t-32 76.5zM303 1065q0 -28 12 -43q13 -16 37 -16q55 0 70 100l18 137q-10 0 -22 -4q-56 -11 -86 -70q-29 -50 -29 -104z" />
<glyph unicode="&#xab;" horiz-adv-x="1456" d="M59 473q5 22 37 55l373 379q23 23 40 31t44 8h248q35 0 40 -22.5t-22 -51.5l-379 -399l267 -399q19 -31 7.5 -52.5t-46.5 -21.5h-248q-28 0 -42.5 8t-31.5 31l-266 379q-23 33 -21 55zM674 473q4 22 37 55l372 379q23 23 40 31t44 8h248q35 0 40.5 -22.5t-21.5 -51.5 l-379 -399l266 -399q19 -31 7.5 -52.5t-46.5 -21.5h-248q-27 0 -41 7.5t-32 31.5l-267 379q-22 32 -20 55z" />
<glyph unicode="&#xac;" horiz-adv-x="1232" d="M72 596v254q0 15 11 26t26 11h1015q15 0 26 -11t11 -26v-498q0 -15 -11 -26t-26 -11h-241q-15 0 -26 11t-11 26v207h-737q-15 0 -26 11t-11 26z" />
<glyph unicode="&#xad;" horiz-adv-x="1089" d="M195 446v238q0 15 10.5 26t25.5 11h627q15 0 26 -11t11 -26v-238q0 -15 -11 -25.5t-26 -10.5h-627q-15 0 -25.5 10.5t-10.5 25.5z" />
<glyph unicode="&#xae;" horiz-adv-x="921" d="M82 1092q0 156 111 266t268 110t268 -110t111 -266t-110.5 -265.5t-268.5 -109.5t-268.5 109.5t-110.5 265.5zM174 1092q0 -121 83 -205t204 -84t204 84t83 205q0 122 -82.5 206t-204.5 84t-204.5 -84t-82.5 -206zM309 936v315q0 12 8.5 20.5t20.5 8.5h145q61 0 98 -33 t37 -92q0 -74 -61 -104l64 -103q12 -22 5 -31.5t-26 -9.5h-39q-17 0 -24.5 5t-18.5 22l-59 98h-53v-96q0 -12 -8.5 -20.5t-20.5 -8.5h-39q-12 0 -20.5 8.5t-8.5 20.5zM406 1112h65q51 0 51 45q0 43 -51 43h-65v-88z" />
<glyph unicode="&#xaf;" horiz-adv-x="1003" d="M426 1219l27 194q3 15 15.5 26t27.5 11h499q15 0 24.5 -11t6.5 -26l-27 -194q-1 -15 -14.5 -26t-28.5 -11h-499q-15 0 -24 11t-7 26z" />
<glyph unicode="&#xb0;" horiz-adv-x="690" d="M131 1214q0 116 80.5 196.5t196.5 80.5q115 0 195.5 -80.5t80.5 -196.5t-80 -196t-196 -80t-196.5 80.5t-80.5 195.5zM311 1214q0 -42 28 -71t69 -29t70.5 29.5t29.5 70.5t-29 69t-71 28q-41 0 -69 -28t-28 -69z" />
<glyph unicode="&#xb1;" horiz-adv-x="1198" d="M92 37v237q0 15 11 26t26 11h940q15 0 26 -11t11 -26v-237q0 -15 -11 -26t-26 -11h-940q-15 0 -26 11t-11 26zM92 770v238q0 15 11 25.5t26 10.5h313v314q0 15 11 26t26 11h238q15 0 26 -11t11 -26v-314h315q15 0 26 -10.5t11 -25.5v-238q0 -15 -11 -26t-26 -11h-315 v-315q0 -15 -11 -26t-26 -11h-238q-15 0 -26 11t-11 26v315h-313q-15 0 -26 11t-11 26z" />
<glyph unicode="&#xb2;" horiz-adv-x="854" d="M182 700l8 64q20 137 99 213q57 59 184 121q33 16 47 23t33.5 20.5t27 28t7.5 32.5q0 26 -17 43q-18 21 -57 21q-82 0 -166 -54q-22 -15 -31 5l-36 108q-3 17 12 27q117 69 254 69q101 0 162 -55q55 -52 55 -141q0 -115 -115 -197q-32 -23 -102 -61t-98 -58 q-37 -22 -43 -65h284q8 0 13 -6t4 -15l-17 -123q-1 -9 -7.5 -14.5t-14.5 -5.5h-469q-8 0 -13 5.5t-4 14.5z" />
<glyph unicode="&#xb3;" horiz-adv-x="854" d="M207 756l69 106q11 17 27 4q67 -49 127 -49q48 0 74 23q24 18 24 57q0 38 -24 59q-27 21 -88 21h-54q-8 0 -12.5 5.5t-3.5 14.5l14 107q1 9 8 14.5t15 5.5h43q69 0 100 25q29 23 29 59q0 28 -18 43q-15 15 -48 15q-59 0 -131 -45q-22 -11 -28 4l-37 104q-7 17 10 29 q103 63 219 63q97 0 148 -45q55 -46 55 -127q0 -59 -33 -110q-32 -46 -90 -76q56 -24 80 -68q23 -48 23 -102q0 -97 -74 -158q-77 -65 -201 -65q-133 0 -219 59q-14 11 -4 27z" />
<glyph unicode="&#xb4;" horiz-adv-x="1003" d="M494 1194q0 11 12 39l139 297q10 20 21 28.5t30 8.5h226q15 0 24.5 -8.5t9.5 -22.5q0 -9 -8 -25l-194 -311q-23 -37 -56 -37h-172q-14 0 -23 9t-9 22z" />
<glyph unicode="&#xb5;" horiz-adv-x="1159" d="M18 -324l175 1235q2 14 12.5 24.5t25.5 10.5h265q15 0 22.5 -10t5.5 -25l-67 -471q-8 -62 -8 -82q0 -49 20 -75q24 -35 82 -35q72 0 113 47q37 43 43 106l71 510q2 14 13 24.5t26 10.5h264q12 0 21 -10t8 -25l-76 -528q-27 -198 -155 -299q-125 -102 -351 -102 q-43 0 -61 2q-45 3 -74 8l-43 -316q-6 -36 -37 -36h-264q-16 0 -25 9.5t-6 26.5z" />
<glyph unicode="&#xb6;" horiz-adv-x="1613" d="M66 1053q0 198 122.5 305.5t348.5 107.5h981q15 0 25.5 -10.5t10.5 -25.5v-201q0 -15 -10.5 -26t-25.5 -11h-244v-1565q0 -15 -11 -26t-26 -11h-219q-15 0 -26 11t-11 26v1565h-219v-1565q0 -15 -11 -26t-26 -11h-219q-15 0 -26 11t-11 26v1010q-189 10 -296 121.5 t-107 294.5z" />
<glyph unicode="&#xb7;" horiz-adv-x="700" d="M190 713q0 82 57.5 139t139.5 57t139.5 -57t57.5 -139t-57.5 -139.5t-139.5 -57.5t-139.5 57.5t-57.5 139.5z" />
<glyph unicode="&#xb8;" horiz-adv-x="1003" d="M340 -420l12 98q6 29 33 29q9 0 37 -2t45 -2q126 0 135 70q3 28 -20.5 42.5t-75.5 14.5q-35 0 -55 -2l51 221h166l-15 -100q91 -11 132.5 -64t31.5 -123q-9 -62 -44 -107t-88 -68t-108 -33.5t-116 -10.5q-57 0 -96 8q-11 2 -18.5 10t-6.5 19z" />
<glyph unicode="&#xb9;" horiz-adv-x="854" d="M186 700l19 123q1 9 7.5 15t14.5 6h152l53 379l-147 -45q-28 -9 -25 20l19 123q4 19 22 27l197 59q16 8 41 8h90q8 0 12.5 -5.5t3.5 -12.5l-78 -553h142q19 0 16 -21l-16 -123q-1 -9 -8 -14.5t-15 -5.5h-483q-17 0 -17 20z" />
<glyph unicode="&#xba;" horiz-adv-x="622" d="M90 1083q0 125 68 220q85 112 227 112q101 0 172 -65q74 -71 74 -183q0 -137 -72 -227q-81 -104 -223 -104q-103 0 -172 63q-74 71 -74 184zM166 575q0 44 32 76.5t76 32.5q45 0 77 -32t32 -77q0 -46 -31.5 -77t-77.5 -31q-45 0 -76.5 31.5t-31.5 76.5zM287 1096 q0 -41 10 -68q14 -35 49 -35q43 0 68 49q24 46 24 117q0 54 -16 76t-43 22q-43 0 -68 -55q-24 -46 -24 -106z" />
<glyph unicode="&#xbb;" horiz-adv-x="1439" d="M12.5 21.5q-5.5 21.5 22.5 52.5l379 399l-267 399q-20 29 -8 51.5t47 22.5h246q28 0 43.5 -8t32.5 -31l266 -379q3 -5 8.5 -15t7.5 -14.5t4 -11.5t1 -14q-4 -18 -37 -55l-373 -379q-23 -23 -40.5 -31t-45.5 -8h-246q-35 0 -40.5 21.5zM627 21.5q-6 21.5 22 52.5l379 399 l-266 399q-20 29 -8 51.5t47 22.5h246q28 0 43 -8t32 -31l267 -379q2 -5 6.5 -12.5t6.5 -11.5t4 -9.5t3 -10.5t0 -11q-4 -18 -37 -55l-373 -379q-23 -23 -40.5 -31t-45.5 -8h-245q-35 0 -41 21.5z" />
<glyph unicode="&#xbc;" horiz-adv-x="854" d="M51 -285l17 111q3 20 14 31l369 428q16 16 34 16h125q9 0 14 -6t5 -14l-62 -431h86q8 0 13 -5.5t4 -12.5l-17 -117q-4 -20 -22 -20h-84l-17 -107q0 -7 -6 -12.5t-14 -5.5h-143q-8 0 -13 5.5t-4 12.5l15 107h-297q-8 0 -13 6.5t-4 13.5zM109 440l12 88q1 15 13.5 26 t27.5 11h616q15 0 25 -11t8 -26l-12 -88q-3 -15 -15.5 -26t-27.5 -11h-617q-15 0 -24 11t-6 26zM225 700l17 123q4 21 22 21h154l51 379l-147 -45q-14 -5 -20 -0.5t-3 20.5l16 123q4 19 25 27l195 59q19 8 43 8h88q9 0 13.5 -5t2.5 -13l-76 -553h142q8 0 12.5 -6t3.5 -15 l-19 -123q0 -9 -6 -14.5t-14 -5.5h-483q-8 0 -13 5.5t-4 14.5zM266 -150h121l23 164z" />
<glyph unicode="&#xbd;" horiz-adv-x="854" d="M66 -412l10 66q21 141 96 213q59 59 186 119q34 17 47 24t32.5 21t26.5 27.5t7 31.5q0 28 -14 45q-19 19 -58 19q-84 0 -168 -54q-22 -13 -28 4l-37 111q-6 14 10 25q117 69 254 69q106 0 164 -55q55 -49 55 -139q0 -116 -114 -197q-32 -22 -103 -60t-100 -59 q-38 -25 -41 -67h284q8 0 13 -6t4 -13l-19 -125q-4 -18 -20 -18h-469q-18 0 -18 18zM109 440l12 88q1 15 13.5 26t27.5 11h616q15 0 25 -11t8 -26l-12 -88q-3 -15 -15.5 -26t-27.5 -11h-617q-15 0 -24 11t-6 26zM225 700l17 123q4 21 22 21h154l51 379l-147 -45 q-14 -5 -20 -0.5t-3 20.5l16 123q4 19 25 27l195 59q19 8 43 8h88q9 0 13.5 -5t2.5 -13l-76 -553h142q8 0 12.5 -6t3.5 -15l-19 -123q0 -9 -6 -14.5t-14 -5.5h-483q-8 0 -13 5.5t-4 14.5z" />
<glyph unicode="&#xbe;" horiz-adv-x="854" d="M51 -285l17 111q3 20 14 31l369 428q16 16 34 16h125q9 0 14 -6t5 -14l-62 -431h86q8 0 13 -5.5t4 -12.5l-17 -117q-4 -20 -22 -20h-84l-17 -107q0 -7 -6 -12.5t-14 -5.5h-143q-8 0 -13 5.5t-4 12.5l15 107h-297q-8 0 -13 6.5t-4 13.5zM109 440l12 88q1 15 13.5 26 t27.5 11h616q15 0 25 -11t8 -26l-12 -88q-3 -15 -15.5 -26t-27.5 -11h-617q-15 0 -24 11t-6 26zM244 756l69 106q11 17 27 4q67 -49 127 -49q48 0 74 23q24 18 24 57q0 38 -24 59q-27 21 -88 21h-54q-8 0 -12.5 5.5t-3.5 14.5l14 107q1 9 8 14.5t15 5.5h43q69 0 100 25 q29 23 29 59q0 27 -19 43q-15 15 -47 15q-59 0 -131 -45q-22 -11 -28 4l-37 104q-7 17 10 29q103 63 219 63q97 0 148 -45q55 -46 55 -127q0 -59 -33 -110q-32 -46 -90 -76q56 -24 80 -68q22 -46 22 -102q0 -98 -73 -158q-77 -65 -201 -65q-133 0 -219 59q-14 11 -4 27z M266 -150h121l23 164z" />
<glyph unicode="&#xbf;" horiz-adv-x="966" d="M70 -115q0 122 65 211q36 50 90.5 90.5t113 79.5t93.5 78q43 46 60 117q4 19 19 29t32 10h176q31 0 45 -33q20 -49 10 -123q-10 -80 -108 -174q-25 -25 -51.5 -46t-64.5 -48t-46 -33q-49 -34 -73.5 -62t-24.5 -65q0 -45 30 -72q34 -24 90 -24q75 0 136 21t147 71 q12 8 25.5 3.5t17.5 -17.5l66 -185q13 -34 -17 -55q-193 -129 -432 -129q-176 0 -289 96q-110 95 -110 260zM455 766q0 82 57 139.5t139 57.5t139.5 -57.5t57.5 -139.5t-57.5 -139.5t-139.5 -57.5t-139 57.5t-57 139.5z" />
<glyph unicode="&#xc0;" horiz-adv-x="1327" d="M-33 11q-6 11 0 24l590 1331q16 35 39 35h383q13 0 23 -10.5t12 -24.5l260 -1331q2 -14 -8 -24.5t-25 -10.5h-307q-25 0 -29 35l-35 217h-428l-86 -217q-16 -35 -39 -35h-331q-13 0 -19 11zM555 541h268l-80 483zM561 1946q0 13 10 21.5t25 8.5h225q19 0 30 -8.5 t21 -28.5l115 -292q12 -28 12 -43q0 -13 -9 -22t-23 -9h-172q-33 0 -56 37l-170 311q-8 11 -8 25z" />
<glyph unicode="&#xc1;" horiz-adv-x="1327" d="M-33 11q-6 11 0 24l590 1331q16 35 39 35h383q13 0 23 -10.5t12 -24.5l260 -1331q2 -14 -8 -24.5t-25 -10.5h-307q-25 0 -29 35l-35 217h-428l-86 -217q-16 -35 -39 -35h-331q-13 0 -19 11zM532 1604q0 8 13 38l139 297q10 20 21 28.5t30 8.5h226q15 0 24.5 -8.5 t9.5 -21.5q0 -9 -8 -25l-194 -311q-23 -37 -56 -37h-172q-14 0 -23.5 9t-9.5 22zM555 541h268l-80 483z" />
<glyph unicode="&#xc2;" horiz-adv-x="1327" d="M-33 11q-6 11 0 24l590 1331q16 35 39 35h383q13 0 23 -10.5t12 -24.5l260 -1331q2 -14 -8 -24.5t-25 -10.5h-307q-25 0 -29 35l-35 217h-428l-86 -217q-16 -35 -39 -35h-331q-13 0 -19 11zM364.5 1608.5q3.5 12.5 16.5 25.5l328 324q11 11 15.5 15t14.5 8t23 4h115 q13 0 21.5 -4.5t11.5 -7.5t12 -15l237 -324q14 -20 6.5 -36.5t-30.5 -16.5h-195q-26 0 -35.5 7t-23.5 28l-82 115l-115 -115q-21 -21 -33.5 -28t-38.5 -7h-223q-15 0 -21.5 7.5t-3 20zM555 541h268l-80 483z" />
<glyph unicode="&#xc3;" horiz-adv-x="1327" d="M-33 11q-6 11 0 24l590 1331q16 35 39 35h383q13 0 23 -10.5t12 -24.5l260 -1331q2 -14 -8 -24.5t-25 -10.5h-307q-25 0 -29 35l-35 217h-428l-86 -217q-16 -35 -39 -35h-331q-13 0 -19 11zM397 1653q20 135 88 216t179 81q85 0 167 -68q35 -28 57.5 -40.5t49.5 -12.5 q59 0 82 74q14 36 43 36h104q20 0 29.5 -11t7.5 -27q-20 -135 -87.5 -216t-178.5 -81q-92 0 -166 63q-23 20 -36.5 29.5t-33.5 18.5t-38 9q-59 0 -82 -73q-15 -37 -43 -37h-105q-21 0 -30.5 11.5t-6.5 27.5zM555 541h268l-80 483z" />
<glyph unicode="&#xc4;" horiz-adv-x="1327" d="M-33 11q-6 11 0 24l590 1331q16 35 39 35h383q13 0 23 -10.5t12 -24.5l260 -1331q2 -14 -8 -24.5t-25 -10.5h-307q-25 0 -29 35l-35 217h-428l-86 -217q-16 -35 -39 -35h-331q-13 0 -19 11zM408 1757q0 71 49 121.5t118 50.5q72 0 122.5 -50.5t50.5 -121.5 q0 -72 -50.5 -123t-122.5 -51q-69 0 -118 51t-49 123zM555 541h268l-80 483zM872 1757q0 71 50 121.5t120 50.5q69 0 118.5 -50.5t49.5 -121.5q0 -72 -49.5 -123t-118.5 -51q-70 0 -120 51t-50 123z" />
<glyph unicode="&#xc5;" horiz-adv-x="1327" d="M-33 11q-6 11 0 24l590 1331q16 35 39 35h383q13 0 23 -10.5t12 -24.5l260 -1331q2 -14 -8 -24.5t-25 -10.5h-307q-25 0 -29 35l-35 217h-428l-86 -217q-16 -35 -39 -35h-331q-13 0 -19 11zM547 1753q0 107 75 181.5t181 74.5q105 0 179.5 -74.5t74.5 -181.5 q0 -104 -75 -178t-179 -74q-106 0 -181 74t-75 178zM555 541h268l-80 483zM690 1753q0 -46 33 -79.5t80 -33.5q46 0 79 33.5t33 79.5q0 49 -33 83t-79 34q-47 0 -80 -34t-33 -83z" />
<glyph unicode="&#xc6;" horiz-adv-x="2187" d="M-57 19q-5 19 18 44l1172 1295q34 37 77 37h932q15 0 25 -11t8 -26l-35 -246q-1 -15 -14.5 -26t-28.5 -11h-577l-29 -213h469q15 0 24.5 -11t6.5 -26l-35 -245q-1 -15 -13.5 -26t-27.5 -11h-469l-31 -224h578q15 0 23.5 -10.5t6.5 -25.5l-34 -246q-1 -15 -13.5 -26 t-27.5 -11h-895q-24 0 -33 9.5t-6 31.5l30 211h-438l-178 -211q-44 -41 -84 -41h-371q-25 0 -30 19zM852 541h233l45 327z" />
<glyph unicode="&#xc7;" horiz-adv-x="1277" d="M125 647q0 156 59.5 296t165 244t259.5 165t333 61q223 0 365 -74q30 -15 10 -47l-133 -237q-17 -25 -47 -15q-124 47 -228 47q-94 0 -172.5 -35.5t-128 -95t-77 -134t-27.5 -154.5q0 -162 92 -261.5t246 -99.5q124 0 241 49q17 7 26 4.5t15 -16.5l95 -242q9 -30 -21 -45 q-145 -64 -307 -75l-4 -33q91 -11 132.5 -64t31.5 -123q-9 -62 -44.5 -107t-88 -68t-108 -33.5t-116.5 -10.5q-57 0 -96 8q-11 2 -18.5 10t-6.5 19l13 98q6 29 32 29q9 0 37 -2t45 -2q127 0 136 70q3 28 -21 42.5t-76 14.5q-35 0 -55 -2l35 156q-126 12 -231.5 57.5 t-188 124.5t-128.5 202t-46 279z" />
<glyph unicode="&#xc8;" horiz-adv-x="1257" d="M86 35l186 1325q1 13 13 24t26 11h908q13 0 20.5 -10t5.5 -25l-37 -252q-1 -13 -13 -23t-24 -10h-579l-29 -213h457q12 0 20 -10t7 -23l-39 -251q-2 -14 -13 -24.5t-24 -10.5h-453l-33 -224h650q12 0 20.5 -9.5t5.5 -22.5l-35 -252q-1 -15 -11.5 -25t-24.5 -10h-975 q-13 0 -22 10.5t-7 24.5zM543 1946q0 13 10 21.5t25 8.5h225q19 0 30 -8.5t21 -28.5l115 -292q12 -28 12 -43q0 -13 -9.5 -22t-23.5 -9h-172q-32 0 -55 37l-170 311q-8 11 -8 25z" />
<glyph unicode="&#xc9;" horiz-adv-x="1257" d="M86 35l186 1325q1 13 13 24t26 11h908q13 0 20.5 -10t5.5 -25l-37 -252q-1 -13 -13 -23t-24 -10h-579l-29 -213h457q12 0 20 -10t7 -23l-39 -251q-2 -14 -13 -24.5t-24 -10.5h-453l-33 -224h650q12 0 20.5 -9.5t5.5 -22.5l-35 -252q-1 -15 -11.5 -25t-24.5 -10h-975 q-13 0 -22 10.5t-7 24.5zM594 1612q0 11 12 39l139 297q18 37 52 37h225q15 0 25 -9t10 -22q0 -9 -8 -25l-195 -311q-23 -37 -55 -37h-172q-14 0 -23.5 9t-9.5 22z" />
<glyph unicode="&#xca;" horiz-adv-x="1257" d="M86 35l186 1325q1 13 13 24t26 11h908q13 0 20.5 -10t5.5 -25l-37 -252q-1 -13 -13 -23t-24 -10h-579l-29 -213h457q12 0 20 -10t7 -23l-39 -251q-2 -14 -13 -24.5t-24 -10.5h-453l-33 -224h650q12 0 20.5 -9.5t5.5 -22.5l-35 -252q-1 -15 -11.5 -25t-24.5 -10h-975 q-13 0 -22 10.5t-7 24.5zM366.5 1608.5q3.5 12.5 16.5 25.5l328 324q11 11 15.5 15t14.5 8t23 4h115q13 0 21.5 -4.5t11.5 -7.5t12 -15l237 -324q14 -20 6.5 -36.5t-30.5 -16.5h-195q-26 0 -35.5 7t-23.5 28l-82 115l-115 -115q-21 -21 -33.5 -28t-38.5 -7h-223 q-15 0 -21.5 7.5t-3 20z" />
<glyph unicode="&#xcb;" horiz-adv-x="1257" d="M86 35l186 1325q1 13 13 24t26 11h908q13 0 20.5 -10t5.5 -25l-37 -252q-1 -13 -13 -23t-24 -10h-579l-29 -213h457q12 0 20 -10t7 -23l-39 -251q-2 -14 -13 -24.5t-24 -10.5h-453l-33 -224h650q12 0 20.5 -9.5t5.5 -22.5l-35 -252q-1 -15 -11.5 -25t-24.5 -10h-975 q-13 0 -22 10.5t-7 24.5zM365 1757q0 71 49 121.5t118 50.5q72 0 122.5 -50.5t50.5 -121.5q0 -72 -50.5 -123t-122.5 -51q-69 0 -118 51t-49 123zM829 1757q0 71 50 121.5t120 50.5q69 0 118.5 -50.5t49.5 -121.5q0 -72 -49.5 -123t-118.5 -51q-70 0 -120 51t-50 123z" />
<glyph unicode="&#xcc;" horiz-adv-x="630" d="M86 35l186 1325q1 15 12 25t25 10h295q14 0 22 -10t7 -25l-187 -1325q-3 -15 -14 -25t-24 -10h-293q-14 0 -22 10t-7 25zM274 1946q0 13 10 21.5t25 8.5h226q19 0 30 -8.5t21 -28.5l114 -292q13 -30 13 -43t-9.5 -22t-23.5 -9h-172q-32 0 -55 37l-170 311q-9 12 -9 25z " />
<glyph unicode="&#xcd;" horiz-adv-x="630" d="M86 35l186 1325q1 15 12 25t25 10h295q14 0 22 -10t7 -25l-187 -1325q-3 -15 -14 -25t-24 -10h-293q-14 0 -22 10t-7 25zM254 1604q0 10 12 38l140 297q10 20 21 28.5t30 8.5h225q15 0 25 -8.5t10 -21.5q0 -9 -8 -25l-195 -311q-23 -37 -55 -37h-172q-14 0 -23.5 9 t-9.5 22z" />
<glyph unicode="&#xce;" horiz-adv-x="630" d="M69.5 1608.5q3.5 12.5 16.5 25.5l328 324q11 11 15.5 15t14.5 8t23 4h115q13 0 21.5 -4.5t11.5 -7.5t12 -15l237 -324q14 -20 6.5 -36.5t-30.5 -16.5h-195q-26 0 -35.5 7t-23.5 28l-82 115l-115 -115q-21 -21 -33.5 -28t-38.5 -7h-223q-15 0 -21.5 7.5t-3 20zM86 35 l186 1325q1 15 12 25t25 10h295q14 0 22 -10t7 -25l-187 -1325q-3 -15 -14 -25t-24 -10h-293q-14 0 -22 10t-7 25z" />
<glyph unicode="&#xcf;" horiz-adv-x="630" d="M86 35l186 1325q1 15 12 25t25 10h295q14 0 22 -10t7 -25l-187 -1325q-3 -15 -14 -25t-24 -10h-293q-14 0 -22 10t-7 25zM96 1757q0 71 49.5 121.5t118.5 50.5q72 0 122 -50.5t50 -121.5q0 -72 -50 -123t-122 -51q-69 0 -118.5 51t-49.5 123zM561 1757q0 71 50 121.5 t120 50.5q69 0 118.5 -50.5t49.5 -121.5q0 -72 -49.5 -123t-118.5 -51q-70 0 -120 51t-50 123z" />
<glyph unicode="&#xd0;" horiz-adv-x="1433" d="M-59 580l32 237q3 15 15.5 26t27.5 11h144l71 506q2 14 13 24.5t26 10.5h371q188 0 332 -49t250 -160q170 -181 170 -481q0 -332 -228 -521q-227 -184 -612 -184h-479q-14 0 -22.5 10.5t-6.5 24.5l72 508h-146q-15 0 -23.5 11t-6.5 26zM442 303h187q178 0 286 94 q119 104 119 297q0 180 -94 285q-100 113 -299 113h-88l-33 -238h213q15 0 24.5 -11t6.5 -26l-33 -237q-1 -15 -14.5 -26t-28.5 -11h-213z" />
<glyph unicode="&#xd1;" horiz-adv-x="1454" d="M86 37l184 1321q6 37 41 37h250q44 0 60 -37l389 -756l106 756q1 15 13.5 26t27.5 11h268q15 0 24 -11t7 -26l-186 -1321q-1 -15 -13.5 -26t-27.5 -11h-246q-23 0 -36.5 7.5t-24.5 29.5l-392 756l-104 -756q-6 -37 -41 -37h-270q-35 0 -29 37zM500 1655q20 135 87.5 216 t178.5 81q86 0 168 -68q25 -19 37.5 -28t31.5 -17t37 -8q59 0 82 74q15 37 43 37h105q20 0 29.5 -11.5t7.5 -27.5q-20 -135 -88 -216t-179 -81q-92 0 -166 63q-23 20 -36.5 29.5t-33.5 18.5t-38 9q-59 0 -82 -73q-15 -37 -43 -37h-104q-21 0 -30.5 11.5t-6.5 27.5z" />
<glyph unicode="&#xd2;" horiz-adv-x="1505" d="M121 575q-7 174 39 324t137 262q96 121 231 187.5t289 66.5q264 0 438 -160q176 -167 185 -440q15 -318 -148 -553q-94 -133 -235.5 -206.5t-313.5 -73.5q-125 0 -238.5 40.5t-197.5 120.5q-175 165 -186 432zM477 602q8 -135 78 -211q72 -78 188 -78q86 0 160.5 46 t122.5 135q63 127 55 307q-6 124 -65 192q-73 86 -195 86q-69 0 -142.5 -42.5t-125.5 -121.5q-84 -134 -76 -313zM727 1946q0 13 10 21.5t25 8.5h225q19 0 30 -8.5t21 -28.5l115 -292q12 -28 12 -43q0 -13 -9 -22t-23 -9h-172q-33 0 -56 37l-170 311q-8 11 -8 25z" />
<glyph unicode="&#xd3;" horiz-adv-x="1505" d="M121 575q-7 174 39 324t137 262q96 121 231 187.5t289 66.5q264 0 438 -160q176 -167 185 -440q15 -318 -148 -553q-94 -133 -235.5 -206.5t-313.5 -73.5q-125 0 -238.5 40.5t-197.5 120.5q-175 165 -186 432zM477 602q8 -135 78 -211q72 -78 188 -78q86 0 160.5 46 t122.5 135q63 127 55 307q-6 124 -65 192q-73 86 -195 86q-69 0 -142.5 -42.5t-125.5 -121.5q-84 -134 -76 -313zM684 1604q0 10 12 38l140 297q10 20 21 28.5t30 8.5h225q15 0 25 -8.5t10 -21.5q0 -9 -8 -25l-195 -311q-23 -37 -55 -37h-172q-14 0 -23.5 9t-9.5 22z" />
<glyph unicode="&#xd4;" horiz-adv-x="1505" d="M121 575q-7 174 39 324t137 262q96 121 231 187.5t289 66.5q264 0 438 -160q176 -167 185 -440q15 -318 -148 -553q-94 -133 -235.5 -206.5t-313.5 -73.5q-125 0 -238.5 40.5t-197.5 120.5q-175 165 -186 432zM477 602q8 -135 78 -211q72 -78 188 -78q86 0 160.5 46 t122.5 135q63 127 55 307q-6 124 -65 192q-73 86 -195 86q-69 0 -142.5 -42.5t-125.5 -121.5q-84 -134 -76 -313zM487.5 1608.5q3.5 12.5 16.5 25.5l327 324q27 27 54 27h114q13 0 21.5 -4.5t11.5 -7.5t12 -15l238 -324q14 -20 6 -36.5t-31 -16.5h-194q-26 0 -35.5 7 t-23.5 28l-82 115l-115 -115q-21 -21 -33.5 -28t-38.5 -7h-223q-15 0 -21.5 7.5t-3 20z" />
<glyph unicode="&#xd5;" horiz-adv-x="1505" d="M121 575q-7 174 39 324t137 262q96 121 231 187.5t289 66.5q264 0 438 -160q176 -167 185 -440q15 -318 -148 -553q-94 -133 -235.5 -206.5t-313.5 -73.5q-125 0 -238.5 40.5t-197.5 120.5q-175 165 -186 432zM477 602q8 -135 78 -211q72 -78 188 -78q86 0 160.5 46 t122.5 135q63 127 55 307q-6 124 -65 192q-73 86 -195 86q-69 0 -142.5 -42.5t-125.5 -121.5q-84 -134 -76 -313zM489 1653q20 135 88 216t179 81q86 0 168 -68q25 -19 37.5 -28t31.5 -17t37 -8q59 0 82 74q14 36 43 36h105q40 0 36 -38q-20 -135 -87.5 -216t-178.5 -81 q-92 0 -166 63q-23 20 -36.5 29.5t-33.5 18.5t-38 9q-59 0 -82 -73q-15 -37 -43 -37h-105q-21 0 -30.5 11.5t-6.5 27.5z" />
<glyph unicode="&#xd6;" horiz-adv-x="1505" d="M121 575q-7 174 39 324t137 262q96 121 231 187.5t289 66.5q264 0 438 -160q176 -167 185 -440q15 -318 -148 -553q-94 -133 -235.5 -206.5t-313.5 -73.5q-125 0 -238.5 40.5t-197.5 120.5q-175 165 -186 432zM477 602q8 -135 78 -211q72 -78 188 -78q86 0 160.5 46 t122.5 135q63 127 55 307q-6 124 -65 192q-73 86 -195 86q-69 0 -142.5 -42.5t-125.5 -121.5q-84 -134 -76 -313zM494 1757q0 71 49.5 121.5t118.5 50.5q72 0 122 -50.5t50 -121.5q0 -72 -50 -123t-122 -51q-69 0 -118.5 51t-49.5 123zM958 1757q0 71 50 121.5t120 50.5 q69 0 118.5 -50.5t49.5 -121.5q0 -72 -49.5 -123t-118.5 -51q-70 0 -120 51t-50 123z" />
<glyph unicode="&#xd7;" horiz-adv-x="1101" d="M36 413q0 15 11 27l283 283l-283 283q-11 10 -11 25t11 26l168 168q11 11 26 11t25 -11l283 -283l285 285q10 11 26 11t27 -11l168 -168q11 -11 11 -26t-11 -25l-285 -285l285 -285q11 -10 11 -26t-11 -27l-168 -168q-11 -11 -27 -11t-26 11l-285 285l-283 -283 q-10 -11 -25 -11t-26 11l-168 168q-11 11 -11 26z" />
<glyph unicode="&#xd8;" horiz-adv-x="1505" d="M65.5 16.5q-5.5 16.5 12.5 38.5l153 174q-101 138 -110 346q-7 174 39 324t137 262q96 121 231 187.5t289 66.5q219 0 369 -104l45 49q33 37 55 37h182q24 0 29.5 -19.5t-10.5 -36.5l-156 -176q100 -141 109 -350q15 -318 -148 -553q-94 -133 -235.5 -206.5t-313.5 -73.5 q-209 0 -366 104l-43 -49q-13 -14 -19 -20.5t-15.5 -11.5t-20.5 -5h-183q-25 0 -30.5 16.5zM477 602q3 -44 12 -82l463 524q-56 35 -131 35q-69 0 -142.5 -42.5t-125.5 -121.5q-84 -134 -76 -313zM608 348q57 -35 135 -35q86 0 160.5 46t122.5 135q63 127 55 307 q-4 47 -10 71z" />
<glyph unicode="&#xd9;" horiz-adv-x="1466" d="M152 453q0 59 14 141l108 764q1 15 13 26t26 11h291q14 0 23 -11t8 -26l-105 -727q-12 -78 -12 -121q0 -103 53 -156q49 -49 148 -49q139 0 207 90q53 68 69 193l111 770q3 15 14.5 26t24.5 11h293q15 0 23.5 -11t6.5 -26l-114 -807q-30 -216 -156 -363 q-183 -208 -518 -208q-254 0 -389 126q-139 127 -139 347zM643 1946q0 13 10 21.5t25 8.5h225q19 0 30 -8.5t21 -28.5l115 -292q12 -28 12 -43q0 -13 -9 -22t-23 -9h-172q-33 0 -56 37l-170 311q-8 11 -8 25z" />
<glyph unicode="&#xda;" horiz-adv-x="1466" d="M152 453q0 59 14 141l108 764q1 15 13 26t26 11h291q14 0 23 -11t8 -26l-105 -727q-12 -78 -12 -121q0 -103 53 -156q49 -49 148 -49q139 0 207 90q53 68 69 193l111 770q3 15 14.5 26t24.5 11h293q15 0 23.5 -11t6.5 -26l-114 -807q-30 -216 -156 -363 q-183 -208 -518 -208q-254 0 -389 126q-139 127 -139 347zM678 1604q0 10 12 38l139 297q18 37 52 37h225q15 0 25 -8.5t10 -21.5q0 -9 -8 -25l-195 -311q-23 -37 -55 -37h-172q-14 0 -23.5 9t-9.5 22z" />
<glyph unicode="&#xdb;" horiz-adv-x="1466" d="M152 453q0 59 14 141l108 764q1 15 13 26t26 11h291q14 0 23 -11t8 -26l-105 -727q-12 -78 -12 -121q0 -103 53 -156q49 -49 148 -49q139 0 207 90q53 68 69 193l111 770q3 15 14.5 26t24.5 11h293q15 0 23.5 -11t6.5 -26l-114 -807q-30 -216 -156 -363 q-183 -208 -518 -208q-254 0 -389 126q-139 127 -139 347zM483.5 1608.5q3.5 12.5 16.5 25.5l327 324q27 27 54 27h114q13 0 21.5 -4.5t11.5 -7.5t12 -15l238 -324q14 -20 6 -36.5t-31 -16.5h-194q-26 0 -36.5 7t-23.5 28l-81 115l-115 -115q-21 -21 -33.5 -28t-38.5 -7 h-223q-15 0 -21.5 7.5t-3 20z" />
<glyph unicode="&#xdc;" horiz-adv-x="1466" d="M152 453q0 59 14 141l108 764q1 15 13 26t26 11h291q14 0 23 -11t8 -26l-105 -727q-12 -78 -12 -121q0 -103 53 -156q49 -49 148 -49q139 0 207 90q53 68 69 193l111 770q3 15 14.5 26t24.5 11h293q15 0 23.5 -11t6.5 -26l-114 -807q-30 -216 -156 -363 q-183 -208 -518 -208q-254 0 -389 126q-139 127 -139 347zM498 1757q0 71 49.5 121.5t118.5 50.5q72 0 122 -50.5t50 -121.5q0 -72 -50 -123t-122 -51q-69 0 -118.5 51t-49.5 123zM963 1757q0 71 50 121.5t120 50.5q69 0 118 -50.5t49 -121.5q0 -72 -49 -123t-118 -51 q-70 0 -120 51t-50 123z" />
<glyph unicode="&#xdd;" horiz-adv-x="1325" d="M130 1376.5q8 18.5 36 18.5h311q24 0 36.5 -8t21.5 -29l196 -453l305 453q24 37 66 37h332q28 0 32 -18.5t-16 -41.5l-580 -772l-73 -526q-3 -15 -15.5 -26t-27.5 -11h-287q-15 0 -24.5 11t-6.5 26l74 528l-375 770q-13 23 -5 41.5zM602 1667q0 11 12 39l140 297 q10 20 21 28.5t30 8.5h225q15 0 25 -9t10 -22q0 -8 -8 -24l-195 -312q-23 -37 -55 -37h-172q-14 0 -23.5 9t-9.5 22z" />
<glyph unicode="&#xde;" horiz-adv-x="1294" d="M96 35l187 1325q2 14 13 24.5t26 10.5h290q13 0 22 -10.5t7 -24.5l-20 -164h41q273 0 415 -82q221 -124 221 -418q0 -240 -170 -374q-164 -129 -456 -129h-193l-22 -158q-1 -15 -13 -25t-26 -10h-293q-14 0 -22 10t-7 25zM524 508h203q98 0 156 55q55 58 55 144 q0 95 -57 137q-49 37 -142 37h-161z" />
<glyph unicode="&#xdf;" horiz-adv-x="1255" d="M72 -119l161 1145q21 163 146 272q136 117 338 117q191 0 305 -92q102 -82 102 -221q0 -124 -90 -203q-27 -25 -70.5 -52.5t-66.5 -46.5t-23 -40q0 -18 22.5 -38.5t69.5 -53.5t76 -58q129 -108 129 -250q0 -157 -104 -256q-58 -60 -139.5 -92t-171.5 -32q-99 0 -158.5 19 t-116.5 58q-27 20 -8 47l119 191q8 14 20.5 19t26.5 -5q58 -49 129 -49q41 0 63 16q27 20 27 50q0 34 -24 61.5t-84 68t-80 56.5q-113 87 -113 205q0 31 9.5 56t30.5 46.5t37 34.5t46 33q32 23 43.5 32t33.5 30.5t30 43t8 47.5q0 50 -27 80q-27 27 -70 27q-55 0 -92 -37 q-33 -36 -45 -111l-158 -1118q-1 -15 -13.5 -26t-27.5 -11h-258q-15 0 -24.5 11t-7.5 26z" />
<glyph unicode="&#xe0;" horiz-adv-x="1097" d="M80 385q0 238 162 397q92 91 218.5 138t256.5 47q165 0 297 -29q28 -7 22 -43l-121 -858q-1 -17 -11.5 -27t-24.5 -10h-240q-15 0 -24.5 9t-8.5 24q-76 -47 -192 -47q-60 0 -123.5 26t-112.5 80q-98 108 -98 293zM416 395q0 -66 30 -104q32 -37 78 -37q53 0 97 35l55 395 q-46 0 -84 -14q-60 -20 -105 -72q-71 -80 -71 -203zM465 1536q0 13 10 22t25 9h225q19 0 30 -8.5t21 -28.5l115 -293q12 -28 12 -43q0 -13 -9.5 -22t-23.5 -9h-172q-32 0 -55 37l-170 311q-8 11 -8 25z" />
<glyph unicode="&#xe1;" horiz-adv-x="1097" d="M80 385q0 238 162 397q92 91 218.5 138t256.5 47q165 0 297 -29q28 -7 22 -43l-121 -858q-1 -17 -11.5 -27t-24.5 -10h-240q-15 0 -24.5 9t-8.5 24q-76 -47 -192 -47q-60 0 -123.5 26t-112.5 80q-98 108 -98 293zM416 395q0 -66 30 -104q32 -37 78 -37q53 0 97 35l55 395 q-46 0 -84 -14q-60 -20 -105 -72q-71 -80 -71 -203zM451 1194q0 11 12 39l139 297q10 20 21 28.5t30 8.5h226q15 0 24.5 -8.5t9.5 -22.5q0 -9 -8 -25l-194 -311q-23 -37 -56 -37h-172q-14 0 -23 9t-9 22z" />
<glyph unicode="&#xe2;" horiz-adv-x="1097" d="M80 385q0 238 162 397q92 91 218.5 138t256.5 47q165 0 297 -29q28 -7 22 -43l-121 -858q-1 -17 -11.5 -27t-24.5 -10h-240q-15 0 -24.5 9t-8.5 24q-76 -47 -192 -47q-60 0 -123.5 26t-112.5 80q-98 108 -98 293zM280.5 1191.5q3.5 12.5 16.5 25.5l328 323q11 11 15.5 15 t14.5 8t23 4h115q13 0 21.5 -4.5t11.5 -7.5t12 -15l237 -323q14 -20 6.5 -37t-30.5 -17h-195q-26 0 -35.5 7t-23.5 28l-82 115l-115 -115q-21 -21 -33.5 -28t-38.5 -7h-223q-15 0 -21.5 8t-3 20.5zM416 395q0 -66 30 -104q32 -37 78 -37q53 0 97 35l55 395q-46 0 -84 -14 q-60 -20 -105 -72q-71 -80 -71 -203z" />
<glyph unicode="&#xe3;" horiz-adv-x="1097" d="M80 385q0 238 162 397q92 91 218.5 138t256.5 47q165 0 297 -29q28 -7 22 -43l-121 -858q-1 -17 -11.5 -27t-24.5 -10h-240q-15 0 -24.5 9t-8.5 24q-76 -47 -192 -47q-60 0 -123.5 26t-112.5 80q-98 108 -98 293zM281 1243q20 135 87.5 216t178.5 81q87 0 168 -67 q26 -20 37.5 -28.5t31 -17t37.5 -8.5q59 0 82 74q15 37 43 37h105q40 0 36 -39q-20 -135 -87.5 -216t-178.5 -81q-92 0 -166 63q-24 20 -37 29.5t-33 19t-38 9.5q-59 0 -82 -74q-15 -37 -43 -37h-105q-21 0 -30 11.5t-6 27.5zM416 395q0 -66 30 -104q32 -37 78 -37 q53 0 97 35l55 395q-46 0 -84 -14q-60 -20 -105 -72q-71 -80 -71 -203z" />
<glyph unicode="&#xe4;" horiz-adv-x="1097" d="M80 385q0 238 162 397q92 91 218.5 138t256.5 47q165 0 297 -29q28 -7 22 -43l-121 -858q-1 -17 -11.5 -27t-24.5 -10h-240q-15 0 -24.5 9t-8.5 24q-76 -47 -192 -47q-60 0 -123.5 26t-112.5 80q-98 108 -98 293zM283 1348q0 71 49.5 121.5t118.5 50.5q72 0 122 -50.5 t50 -121.5q0 -72 -50 -123t-122 -51q-69 0 -118.5 51t-49.5 123zM416 395q0 -66 30 -104q32 -37 78 -37q53 0 97 35l55 395q-46 0 -84 -14q-60 -20 -105 -72q-71 -80 -71 -203zM748 1348q0 71 50 121.5t120 50.5q69 0 118 -50.5t49 -121.5q0 -72 -49 -123t-118 -51 q-70 0 -120 51t-50 123z" />
<glyph unicode="&#xe5;" horiz-adv-x="1097" d="M80 385q0 238 162 397q92 91 218.5 138t256.5 47q165 0 297 -29q28 -7 22 -43l-121 -858q-1 -17 -11.5 -27t-24.5 -10h-240q-15 0 -24.5 9t-8.5 24q-76 -47 -192 -47q-60 0 -123.5 26t-112.5 80q-98 108 -98 293zM416 395q0 -66 30 -104q32 -37 78 -37q53 0 97 35l55 395 q-46 0 -84 -14q-60 -20 -105 -72q-71 -80 -71 -203zM428 1370q0 107 75 181.5t181 74.5q105 0 179.5 -74.5t74.5 -181.5q0 -104 -75 -178t-179 -74q-106 0 -181 74t-75 178zM571 1370q0 -46 33 -79.5t80 -33.5q46 0 79.5 33.5t33.5 79.5q0 49 -33.5 83t-79.5 34 q-47 0 -80 -34t-33 -83z" />
<glyph unicode="&#xe6;" horiz-adv-x="1529" d="M80 385q0 238 162 397q92 91 218.5 138t256.5 47q167 0 303 -31q95 31 178 31q139 0 227 -68q93 -74 93 -194q0 -183 -189 -285q-139 -76 -336 -94q10 -26 29 -45q42 -45 125 -45t151 40q14 9 27 6.5t18 -14.5l76 -170q11 -29 -14 -43q-126 -73 -326 -73q-96 0 -176 28 q-7 -10 -24 -10h-240q-15 0 -24.5 9t-8.5 24q-76 -47 -192 -47q-60 0 -123.5 26t-112.5 80q-98 108 -98 293zM416 395q0 -66 30 -104q32 -37 78 -37q53 0 97 35l55 395q-46 0 -84 -14q-60 -20 -105 -72q-71 -80 -71 -203zM987 526q76 4 150 37q94 41 94 107q0 17 -10 30 q-13 13 -39 13q-75 0 -135 -70q-42 -48 -60 -117z" />
<glyph unicode="&#xe7;" horiz-adv-x="911" d="M80 408q0 241 168 399q82 77 188.5 118.5t222.5 41.5q154 0 269 -52q27 -13 10 -43l-113 -186q-10 -16 -22.5 -18.5t-30.5 4.5q-49 14 -119 14q-100 0 -168 -68q-67 -67 -67 -169q0 -90 39 -140q46 -55 143 -55q63 0 119 27q37 24 55 -11l76 -170q5 -10 0 -24t-19 -23 q-106 -60 -233 -69l-4 -35q91 -11 132.5 -64t31.5 -123q-9 -62 -44.5 -107t-88 -68t-108 -33.5t-116.5 -10.5q-57 0 -96 8q-11 2 -18 10t-6 19l12 98q6 29 33 29q9 0 37 -2t45 -2q126 0 135 70q3 28 -21 42.5t-76 14.5q-35 0 -55 -2l37 162q-139 21 -227 106 q-121 115 -121 312z" />
<glyph unicode="&#xe8;" horiz-adv-x="962" d="M80 408q0 217 145 378q76 84 182.5 132.5t223.5 48.5q139 0 227 -68q92 -73 92 -194q0 -183 -188 -285q-139 -76 -336 -94q10 -26 29 -45q42 -45 125 -45t151 40q14 9 27 6.5t18 -14.5l76 -170q11 -29 -14 -43q-126 -73 -326 -73q-187 0 -303 102q-129 115 -129 324z M401 1536q0 13 10 22t25 9h226q19 0 30 -8.5t21 -28.5l114 -293q13 -30 13 -43t-9.5 -22t-23.5 -9h-172q-32 0 -55 37l-170 311q-9 12 -9 25zM420 526q75 4 149 37q95 41 95 107q0 15 -11 30q-13 13 -39 13q-75 0 -135 -70q-40 -46 -59 -117z" />
<glyph unicode="&#xe9;" horiz-adv-x="962" d="M80 408q0 217 145 378q76 84 182.5 132.5t223.5 48.5q139 0 227 -68q92 -73 92 -194q0 -183 -188 -285q-139 -76 -336 -94q10 -26 29 -45q42 -45 125 -45t151 40q14 9 27 6.5t18 -14.5l76 -170q11 -29 -14 -43q-126 -73 -326 -73q-187 0 -303 102q-129 115 -129 324z M387 1194q0 11 12 39l140 297q10 20 21 28.5t30 8.5h225q15 0 25 -9t10 -22q0 -9 -8 -25l-195 -311q-23 -37 -55 -37h-172q-14 0 -23.5 9t-9.5 22zM420 526q75 4 149 37q95 41 95 107q0 15 -11 30q-13 13 -39 13q-75 0 -135 -70q-40 -46 -59 -117z" />
<glyph unicode="&#xea;" horiz-adv-x="1032" d="M80 408q0 217 145 378q76 84 182.5 132.5t223.5 48.5q139 0 227 -68q92 -73 92 -194q0 -183 -188 -285q-139 -76 -336 -94q10 -26 29 -45q42 -45 125 -45t151 40q14 9 27 6.5t18 -14.5l76 -170q11 -29 -14 -43q-126 -73 -326 -73q-187 0 -303 102q-129 115 -129 324z M216.5 1191.5q3.5 12.5 16.5 25.5l328 323q11 11 15.5 15t14.5 8t23 4h115q13 0 21.5 -4.5t11.5 -7.5t12 -15l238 -323q14 -20 6 -37t-31 -17h-194q-26 0 -36.5 7t-23.5 28l-82 115l-114 -115q-21 -21 -33.5 -28t-38.5 -7h-223q-15 0 -22 8t-3.5 20.5zM420 526q75 4 149 37 q95 41 95 107q0 15 -11 30q-13 13 -39 13q-75 0 -135 -70q-40 -46 -59 -117z" />
<glyph unicode="&#xeb;" horiz-adv-x="1081" d="M80 408q0 217 145 378q76 84 182.5 132.5t223.5 48.5q139 0 227 -68q92 -73 92 -194q0 -183 -188 -285q-139 -76 -336 -94q10 -26 29 -45q42 -45 125 -45t151 40q14 9 27 6.5t18 -14.5l76 -170q11 -29 -14 -43q-126 -73 -326 -73q-187 0 -303 102q-129 115 -129 324z M219 1348q0 71 49.5 121.5t118.5 50.5q72 0 122 -50.5t50 -121.5q0 -72 -50 -123t-122 -51q-69 0 -118.5 51t-49.5 123zM420 526q75 4 149 37q95 41 95 107q0 15 -11 30q-13 13 -39 13q-75 0 -135 -70q-40 -46 -59 -117zM684 1348q0 71 50 121.5t120 50.5q69 0 118.5 -50.5 t49.5 -121.5q0 -72 -49.5 -123t-118.5 -51q-70 0 -120 51t-50 123z" />
<glyph unicode="&#xec;" horiz-adv-x="593" d="M80 37l125 874q2 14 13 24.5t26 10.5h264q13 0 22 -10.5t7 -24.5l-125 -874q-1 -17 -12 -27t-25 -10h-264q-15 0 -23.5 10t-7.5 27zM197 1536q0 14 9.5 22.5t24.5 8.5h226q19 0 30 -8.5t21 -28.5l115 -293q12 -28 12 -43q0 -13 -9.5 -22t-23.5 -9h-172q-32 0 -55 37 l-170 311q-8 11 -8 25z" />
<glyph unicode="&#xed;" horiz-adv-x="593" d="M80 37l125 874q2 14 13 24.5t26 10.5h264q13 0 22 -10.5t7 -24.5l-125 -874q-1 -17 -12 -27t-25 -10h-264q-15 0 -23.5 10t-7.5 27zM195 1194q0 11 12 39l139 297q10 20 21 28.5t30 8.5h226q15 0 24.5 -8.5t9.5 -22.5q0 -9 -8 -25l-194 -311q-23 -37 -56 -37h-172 q-14 0 -23 9t-9 22z" />
<glyph unicode="&#xee;" horiz-adv-x="593" d="M-2.5 1191.5q3.5 12.5 16.5 25.5l328 323q11 11 15.5 15t14.5 8t23 4h115q13 0 21.5 -4.5t11.5 -7.5t12 -15l238 -323q14 -20 6 -37t-31 -17h-195q-26 0 -35.5 7t-23.5 28l-82 115l-115 -115q-15 -15 -22 -20.5t-19 -10t-30 -4.5h-223q-15 0 -22 8t-3.5 20.5zM80 37 l125 874q2 14 13 24.5t26 10.5h264q13 0 22 -10.5t7 -24.5l-125 -874q-1 -17 -12 -27t-25 -10h-264q-15 0 -23.5 10t-7.5 27z" />
<glyph unicode="&#xef;" horiz-adv-x="593" d="M14 1348q0 71 49.5 121.5t118.5 50.5q72 0 122 -50.5t50 -121.5q0 -72 -50 -123t-122 -51q-69 0 -118.5 51t-49.5 123zM80 37l125 874q2 14 13 24.5t26 10.5h264q13 0 22 -10.5t7 -24.5l-125 -874q-1 -17 -12 -27t-25 -10h-264q-15 0 -23.5 10t-7.5 27zM479 1348 q0 71 50 121.5t120 50.5q69 0 118.5 -50.5t49.5 -121.5q0 -72 -49.5 -123t-118.5 -51q-70 0 -120 51t-50 123z" />
<glyph unicode="&#xf0;" horiz-adv-x="1079" d="M78 391q0 196 127 326q132 135 336 135q43 0 67 -8q-43 70 -119 149l-129 -92q-10 -8 -26 -6.5t-25 12.5l-82 117q-9 11 -5 26.5t16 24.5l92 66l-94 76q-31 23 4 49l170 155q15 14 27.5 14.5t33.5 -12.5q49 -37 117 -94l141 101q10 8 27 6.5t24 -13.5l80 -116 q18 -32 -10 -52l-107 -77q273 -302 273 -652q0 -220 -109 -362q-69 -92 -172.5 -138t-218.5 -46q-176 0 -297 98q-141 118 -141 313zM387 430q-3 -81 37 -127q33 -45 111 -45q81 0 124 59q40 53 46 148q2 45 -5 113q-44 20 -122 20q-81 0 -136 -55q-49 -46 -55 -113z" />
<glyph unicode="&#xf1;" horiz-adv-x="1173" d="M80 37l123 874q2 14 14 24.5t29 10.5h227q14 0 21.5 -10.5t5.5 -24.5l-4 -34h8q58 42 110 61q70 25 150 25q128 0 203 -72q100 -97 100 -287q0 -62 -14 -162l-54 -405q-3 -17 -14.5 -27t-26.5 -10h-258q-15 0 -24 10t-6 27l55 405q10 78 10 121q0 67 -30 101 q-25 28 -68 28q-67 0 -109 -59q-36 -50 -55 -166l-61 -430q-6 -37 -43 -37h-256q-36 0 -33 37zM311 1243q20 135 88 216t179 81q86 0 167 -67q25 -20 37.5 -29t32 -17t37.5 -8q59 0 82 74q15 37 43 37h104q20 0 29.5 -11.5t7.5 -27.5q-20 -135 -87.5 -216t-178.5 -81 q-92 0 -166 63q-24 20 -37 29.5t-33 19t-38 9.5q-59 0 -82 -74q-15 -37 -43 -37h-105q-21 0 -30.5 11.5t-6.5 27.5z" />
<glyph unicode="&#xf2;" horiz-adv-x="1089" d="M80 401q-3 218 113 373q70 92 172 142.5t225 50.5q177 0 303 -113q130 -117 133 -307q3 -234 -119 -387q-141 -178 -389 -178q-182 0 -305 108q-130 117 -133 311zM414 424q0 -71 22 -117q26 -57 90 -57q80 0 129 82q46 84 43 198q0 87 -30 132q-27 34 -82 34 q-81 0 -131 -92q-44 -83 -41 -180zM432 1536q0 13 10 22t25 9h225q19 0 30 -8.5t21 -28.5l115 -293q12 -28 12 -43q0 -13 -9 -22t-23 -9h-172q-33 0 -56 37l-170 311q-8 11 -8 25z" />
<glyph unicode="&#xf3;" horiz-adv-x="1089" d="M80 401q-3 218 113 373q70 92 172 142.5t225 50.5q177 0 303 -113q130 -117 133 -307q3 -234 -119 -387q-141 -178 -389 -178q-182 0 -305 108q-130 117 -133 311zM414 424q0 -71 22 -117q26 -57 90 -57q80 0 129 82q46 84 43 198q0 87 -30 132q-27 34 -82 34 q-81 0 -131 -92q-44 -83 -41 -180zM430 1194q0 11 12 39l140 297q10 20 21 28.5t30 8.5h225q15 0 25 -9t10 -22q0 -9 -8 -25l-195 -311q-23 -37 -55 -37h-172q-14 0 -23.5 9t-9.5 22z" />
<glyph unicode="&#xf4;" horiz-adv-x="1089" d="M80 401q-3 218 113 373q70 92 172 142.5t225 50.5q177 0 303 -113q130 -117 133 -307q3 -234 -119 -387q-141 -178 -389 -178q-182 0 -305 108q-130 117 -133 311zM208.5 1191.5q3.5 12.5 16.5 25.5l328 323q11 11 15.5 15t14.5 8t23 4h115q13 0 21.5 -4.5t11.5 -7.5 t12 -15l238 -323q14 -20 6 -37t-31 -17h-195q-26 0 -35.5 7t-23.5 28l-82 115l-115 -115q-15 -15 -22 -20.5t-19 -10t-30 -4.5h-224q-15 0 -21.5 8t-3 20.5zM414 424q0 -71 22 -117q26 -57 90 -57q80 0 129 82q46 84 43 198q0 87 -30 132q-27 34 -82 34q-81 0 -131 -92 q-44 -83 -41 -180z" />
<glyph unicode="&#xf5;" horiz-adv-x="1089" d="M80 401q-3 218 113 373q70 92 172 142.5t225 50.5q177 0 303 -113q130 -117 133 -307q3 -234 -119 -387q-141 -178 -389 -178q-182 0 -305 108q-130 117 -133 311zM258 1243q20 135 87.5 216t178.5 81q87 0 168 -67q25 -20 37.5 -29t32 -17t37.5 -8q59 0 82 74 q15 37 43 37h104q20 0 29.5 -11.5t7.5 -27.5q-20 -135 -87.5 -216t-178.5 -81q-92 0 -166 63q-24 20 -37.5 30t-33.5 19t-38 9q-59 0 -82 -74q-15 -37 -43 -37h-104q-21 0 -30.5 11.5t-6.5 27.5zM414 424q0 -71 22 -117q26 -57 90 -57q80 0 129 82q46 84 43 198 q0 87 -30 132q-27 34 -82 34q-81 0 -131 -92q-44 -83 -41 -180z" />
<glyph unicode="&#xf6;" horiz-adv-x="1089" d="M80 401q-3 218 113 373q70 92 172 142.5t225 50.5q177 0 303 -113q130 -117 133 -307q3 -234 -119 -387q-141 -178 -389 -178q-182 0 -305 108q-130 117 -133 311zM217 1348q0 71 49.5 121.5t118.5 50.5q72 0 122 -50.5t50 -121.5q0 -72 -50 -123t-122 -51 q-69 0 -118.5 51t-49.5 123zM414 424q0 -71 22 -117q26 -57 90 -57q80 0 129 82q46 84 43 198q0 87 -30 132q-27 34 -82 34q-81 0 -131 -92q-44 -83 -41 -180zM682 1348q0 71 50 121.5t120 50.5q69 0 118.5 -50.5t49.5 -121.5q0 -72 -49.5 -123t-118.5 -51q-70 0 -120 51 t-50 123z" />
<glyph unicode="&#xf7;" horiz-adv-x="1277" d="M92 604v238q0 15 11 26t26 11h1020q15 0 26 -11t11 -26v-238q0 -15 -11 -26t-26 -11h-1020q-15 0 -26 11t-11 26zM442 260q0 83 57.5 140t139.5 57t139.5 -57t57.5 -140q0 -82 -57.5 -139.5t-139.5 -57.5t-139.5 57.5t-57.5 139.5zM442 1186q0 82 57.5 139t139.5 57 t139.5 -57t57.5 -139t-57.5 -139.5t-139.5 -57.5t-139.5 57.5t-57.5 139.5z" />
<glyph unicode="&#xf8;" horiz-adv-x="1103" d="M94 401q-3 218 113 373q70 92 172 142.5t225 50.5q132 0 244 -70l22 27q13 17 22 21.5t28 4.5h96q26 0 31 -14.5t-17 -40.5l-78 -90q85 -109 88 -258q3 -236 -118 -387q-141 -178 -390 -178q-138 0 -243 63l-17 -18q-14 -18 -22.5 -22.5t-26.5 -4.5h-96q-26 0 -31 14.5 t17 40.5l69 82q-85 109 -88 264zM428 418l229 264q-22 14 -57 14q-81 0 -131 -92q-44 -83 -41 -180v-6zM481 266q26 -16 60 -16q80 0 129 82q46 84 43 198z" />
<glyph unicode="&#xf9;" horiz-adv-x="1159" d="M115 317q0 47 10 115l68 479q2 14 12.5 24.5t25.5 10.5h265q12 0 20.5 -10t7.5 -25l-67 -471q-8 -62 -8 -82q0 -49 20 -75q24 -35 82 -35q72 0 113 47q37 43 43 106l71 510q2 14 13 24.5t26 10.5h264q12 0 21 -10t8 -25l-76 -528q-27 -198 -155 -299q-125 -102 -351 -102 q-223 0 -321 88q-92 83 -92 247zM444 1536q0 13 10 22t25 9h226q19 0 30 -8.5t21 -28.5l114 -293q13 -30 13 -43t-9.5 -22t-23.5 -9h-172q-32 0 -55 37l-170 311q-9 12 -9 25z" />
<glyph unicode="&#xfa;" horiz-adv-x="1159" d="M115 317q0 47 10 115l68 479q2 14 12.5 24.5t25.5 10.5h265q12 0 20.5 -10t7.5 -25l-67 -471q-8 -62 -8 -82q0 -49 20 -75q24 -35 82 -35q72 0 113 47q37 43 43 106l71 510q2 14 13 24.5t26 10.5h264q12 0 21 -10t8 -25l-76 -528q-27 -198 -155 -299q-125 -102 -351 -102 q-223 0 -321 88q-92 83 -92 247zM483 1194q0 9 13 39l139 297q10 20 21 28.5t30 8.5h225q15 0 25 -9t10 -22q0 -9 -8 -25l-195 -311q-23 -37 -55 -37h-172q-14 0 -23.5 9t-9.5 22z" />
<glyph unicode="&#xfb;" horiz-adv-x="1159" d="M115 317q0 47 10 115l68 479q2 14 12.5 24.5t25.5 10.5h265q12 0 20.5 -10t7.5 -25l-67 -471q-8 -62 -8 -82q0 -49 20 -75q24 -35 82 -35q72 0 113 47q37 43 43 106l71 510q2 14 13 24.5t26 10.5h264q12 0 21 -10t8 -25l-76 -528q-27 -198 -155 -299q-125 -102 -351 -102 q-223 0 -321 88q-92 83 -92 247zM278.5 1191.5q3.5 12.5 16.5 25.5l328 323q11 11 15.5 15t14.5 8t23 4h115q13 0 21.5 -4.5t11.5 -7.5t12 -15l237 -323q14 -20 6.5 -37t-30.5 -17h-195q-26 0 -35.5 7t-23.5 28l-82 115l-115 -115q-21 -21 -33.5 -28t-38.5 -7h-223 q-15 0 -21.5 8t-3 20.5z" />
<glyph unicode="&#xfc;" horiz-adv-x="1159" d="M115 317q0 47 10 115l68 479q2 14 12.5 24.5t25.5 10.5h265q12 0 20.5 -10t7.5 -25l-67 -471q-8 -62 -8 -82q0 -49 20 -75q24 -35 82 -35q72 0 113 47q37 43 43 106l71 510q2 14 13 24.5t26 10.5h264q12 0 21 -10t8 -25l-76 -528q-27 -198 -155 -299q-125 -102 -351 -102 q-223 0 -321 88q-92 83 -92 247zM299 1348q0 71 49.5 121.5t118.5 50.5q72 0 122 -50.5t50 -121.5q0 -72 -50 -123t-122 -51q-69 0 -118.5 51t-49.5 123zM764 1348q0 71 50 121.5t120 50.5q69 0 118.5 -50.5t49.5 -121.5q0 -72 -49.5 -123t-118.5 -51q-70 0 -120 51t-50 123 z" />
<glyph unicode="&#xfd;" horiz-adv-x="1091" d="M2 -459l35 252q3 27 33 27h67q81 0 131 28q51 30 90 82l-280 965q-5 21 3 36t32 15h293q24 0 36.5 -9t16.5 -32l114 -561l224 561q13 41 63 41h270q23 0 26.5 -19t-5.5 -32l-455 -948q-91 -190 -223 -301q-186 -151 -448 -133q-12 0 -18.5 8t-4.5 20zM444 1194q0 9 13 39 l139 297q10 20 21 28.5t30 8.5h225q15 0 25 -9t10 -22q0 -9 -8 -25l-194 -311q-23 -37 -56 -37h-172q-14 0 -23.5 9t-9.5 22z" />
<glyph unicode="&#xfe;" horiz-adv-x="1110" d="M25 -453l254 1813q3 14 15 24.5t28 10.5h247q14 0 21.5 -10.5t5.5 -24.5l-57 -418q74 23 155 23q146 0 244 -103q111 -114 111 -307q0 -285 -191 -438q-165 -131 -416 -131q-10 0 -22 2l-64 -441q-2 -15 -13 -25.5t-26 -10.5h-262q-15 0 -23.5 10.5t-6.5 25.5zM457 254 q6 -2 26 -2q90 0 148 55q80 77 80 223q0 69 -33 111q-30 41 -82 41q-41 0 -82 -14z" />
<glyph unicode="&#xff;" horiz-adv-x="1091" d="M2 -459l35 252q3 27 33 27h67q81 0 131 28q51 30 90 82l-280 965q-5 21 3 36t32 15h293q24 0 36.5 -9t16.5 -32l114 -561l224 561q13 41 63 41h270q23 0 26.5 -19t-5.5 -32l-455 -948q-91 -190 -223 -301q-186 -151 -448 -133q-12 0 -18.5 8t-4.5 20zM258 1348 q0 71 49.5 121.5t118.5 50.5q72 0 122 -50.5t50 -121.5q0 -72 -50 -123t-122 -51q-69 0 -118.5 51t-49.5 123zM723 1348q0 71 50 121.5t120 50.5q69 0 118.5 -50.5t49.5 -121.5q0 -72 -49.5 -123t-118.5 -51q-70 0 -120 51t-50 123z" />
<glyph unicode="&#x152;" horiz-adv-x="2140" d="M121 575q-7 174 39 324t137 262q96 121 231 187.5t289 66.5q201 0 344 -90l6 35q1 13 13 24t26 11h854q14 0 22 -10t5 -25l-37 -252q-1 -13 -13 -23t-24 -10h-526l-29 -213h445q12 0 19.5 -10t6.5 -23l-39 -251q-2 -14 -13 -24.5t-24 -10.5h-438l-35 -224h637 q13 0 21.5 -9.5t5.5 -22.5l-35 -252q-1 -15 -12 -25t-25 -10h-962q-22 0 -29 23q-109 -41 -238 -41q-125 0 -238.5 40.5t-197.5 120.5q-175 165 -186 432zM477 602q8 -135 78 -211q72 -78 188 -78q86 0 160.5 46t122.5 135q63 127 55 307q-6 124 -65 192q-73 86 -195 86 q-69 0 -142.5 -42.5t-125.5 -121.5q-84 -134 -76 -313z" />
<glyph unicode="&#x153;" horiz-adv-x="1576" d="M80 401q-3 218 113 373q70 92 172 142.5t225 50.5q177 0 303 -113l8 -8q150 121 344 121q140 0 228 -68q92 -73 92 -194q0 -183 -189 -285q-139 -76 -336 -94q10 -26 29 -45q42 -45 125 -45q84 0 152 40q14 9 27 6.5t18 -14.5l75 -170q11 -29 -14 -43q-126 -73 -326 -73 q-181 0 -299 98q-132 -98 -309 -98q-182 0 -305 108q-130 117 -133 311zM414 424q0 -71 22 -117q26 -57 90 -57q80 0 129 82q46 84 43 198q0 87 -30 132q-27 34 -82 34q-81 0 -131 -92q-44 -83 -41 -180zM1034 526q76 4 150 37q94 41 94 107q0 17 -10 30q-13 13 -39 13 q-75 0 -135 -70q-42 -48 -60 -117z" />
<glyph unicode="&#x178;" horiz-adv-x="1325" d="M130 1376.5q8 18.5 36 18.5h311q24 0 36.5 -8t21.5 -29l196 -453l305 453q24 37 66 37h332q28 0 32 -18.5t-16 -41.5l-580 -772l-73 -526q-3 -15 -15.5 -26t-27.5 -11h-287q-15 0 -24.5 11t-6.5 26l74 528l-375 770q-13 23 -5 41.5zM414 1757q0 71 49.5 121.5t118.5 50.5 q72 0 122 -50.5t50 -121.5q0 -72 -50 -123t-122 -51q-69 0 -118.5 51t-49.5 123zM879 1757q0 71 50 121.5t120 50.5q69 0 118.5 -50.5t49.5 -121.5q0 -72 -49.5 -123t-118.5 -51q-70 0 -120 51t-50 123z" />
<glyph unicode="&#x2c6;" horiz-adv-x="1003" d="M302.5 1191.5q3.5 12.5 16.5 25.5l328 323q11 11 15.5 15t14.5 8t23 4h115q13 0 21.5 -4.5t11.5 -7.5t12 -15l238 -323q14 -20 6 -37t-31 -17h-194q-26 0 -36.5 7t-23.5 28l-82 115l-114 -115q-21 -21 -33.5 -28t-38.5 -7h-223q-15 0 -22 8t-3.5 20.5z" />
<glyph unicode="&#x2dc;" horiz-adv-x="1003" d="M326 1243q20 135 87.5 216t178.5 81q87 0 168 -67q26 -20 37.5 -28.5t31 -17t37.5 -8.5q59 0 82 74q15 37 43 37h105q20 0 29.5 -11.5t7.5 -27.5q-20 -135 -88 -216t-179 -81q-92 0 -166 63q-24 20 -37 29.5t-33 19t-38 9.5q-59 0 -82 -74q-15 -37 -43 -37h-105 q-21 0 -30 11.5t-6 27.5z" />
<glyph unicode="&#x2000;" horiz-adv-x="1020" />
<glyph unicode="&#x2001;" horiz-adv-x="2040" />
<glyph unicode="&#x2002;" horiz-adv-x="1020" />
<glyph unicode="&#x2003;" horiz-adv-x="2040" />
<glyph unicode="&#x2004;" horiz-adv-x="680" />
<glyph unicode="&#x2005;" horiz-adv-x="510" />
<glyph unicode="&#x2006;" horiz-adv-x="340" />
<glyph unicode="&#x2007;" horiz-adv-x="340" />
<glyph unicode="&#x2008;" horiz-adv-x="255" />
<glyph unicode="&#x2009;" horiz-adv-x="408" />
<glyph unicode="&#x200a;" horiz-adv-x="113" />
<glyph unicode="&#x2010;" horiz-adv-x="1105" d="M207 446l33 238q1 15 14.5 26t28.5 11h626q15 0 24 -11t7 -26l-33 -238q-3 -15 -15.5 -25.5t-27.5 -10.5h-626q-15 0 -24.5 10.5t-6.5 25.5z" />
<glyph unicode="&#x2011;" horiz-adv-x="1105" d="M207 446l33 238q1 15 14.5 26t28.5 11h626q15 0 24 -11t7 -26l-33 -238q-3 -15 -15.5 -25.5t-27.5 -10.5h-626q-15 0 -24.5 10.5t-6.5 25.5z" />
<glyph unicode="&#x2012;" horiz-adv-x="1105" d="M207 446l33 238q1 15 14.5 26t28.5 11h626q15 0 24 -11t7 -26l-33 -238q-3 -15 -15.5 -25.5t-27.5 -10.5h-626q-15 0 -24.5 10.5t-6.5 25.5z" />
<glyph unicode="&#x2013;" horiz-adv-x="1087" d="M117 434l22 170q1 13 12 23t25 10h916q31 0 28 -33l-22 -170q-6 -33 -37 -33h-918q-13 0 -21 8.5t-5 24.5z" />
<glyph unicode="&#x2014;" horiz-adv-x="2017" d="M117 434l22 170q1 13 12 23t25 10h1843q32 0 29 -33l-23 -170q-6 -33 -36 -33h-1846q-13 0 -21 8.5t-5 24.5z" />
<glyph unicode="&#x2018;" horiz-adv-x="657" d="M203 977q0 84 34 161.5t89.5 133t124 93t139.5 50.5q38 3 53 -20l27 -56q17 -32 -17 -49q-79 -42 -106 -67q-38 -37 -39 -76q0 -27 13 -46.5t31 -34t36.5 -31.5t31.5 -48.5t13 -75.5q0 -83 -55.5 -132.5t-147.5 -49.5q-101 0 -164 65t-63 183z" />
<glyph unicode="&#x2019;" horiz-adv-x="634" d="M168 805q-17 33 16 49q2 1 16.5 8.5t19 10t18.5 10.5t20 12.5t18 13t17.5 15t14 16t12.5 18t7 18.5t3 21q0 27 -13 46.5t-31 34t-36.5 31.5t-31.5 48.5t-13 75.5q0 83 55.5 132.5t147.5 49.5q101 0 164 -65t63 -183q0 -84 -34 -161.5t-89.5 -133t-124 -93t-139.5 -50.5 q-37 -3 -53 21z" />
<glyph unicode="&#x201a;" horiz-adv-x="862" d="M135 -238q-17 33 17 50q79 42 106 67q39 36 39 76q0 27 -13 46.5t-31.5 34t-36.5 31.5t-31 48t-13 75q0 83 55.5 133t147.5 50q101 0 164 -65t63 -183q0 -84 -34 -161.5t-89.5 -133t-124 -93t-139.5 -50.5q-38 -3 -53 20z" />
<glyph unicode="&#x201c;" horiz-adv-x="1189" d="M203 977q0 84 34 161.5t89.5 133t124 93t139.5 50.5q23 2 34.5 -2t18.5 -18l27 -56q17 -32 -17 -49q-79 -42 -106 -67q-38 -37 -39 -76q0 -27 13 -46.5t31 -34t36.5 -31.5t31.5 -48.5t13 -75.5q0 -83 -55.5 -132.5t-147.5 -49.5q-101 0 -164 65t-63 183zM735 977 q0 84 34 161.5t89.5 133t124 93t139.5 50.5q43 3 54 -20l26 -56q17 -33 -16 -49q-2 -1 -16.5 -8.5t-19 -10t-18.5 -10.5t-20 -12.5t-18 -13t-17.5 -15t-14 -16t-12.5 -18t-7 -18.5t-3 -21q0 -27 13 -46.5t31 -34t36.5 -31.5t31.5 -48.5t13 -75.5q0 -83 -55 -132.5 t-147 -49.5q-102 0 -165 65t-63 183z" />
<glyph unicode="&#x201d;" horiz-adv-x="1167" d="M168 805q-17 33 16 49q2 1 16.5 8.5t19 10t18.5 10.5t20 12.5t18 13t17.5 15t14 16t12.5 18t7 18.5t3 21q0 27 -13 46.5t-31 34t-36.5 31.5t-31.5 48.5t-13 75.5q0 83 55.5 132.5t147.5 49.5q101 0 164 -65t63 -183q0 -84 -34 -161.5t-89.5 -133t-124 -93t-139.5 -50.5 q-37 -3 -53 21zM700 805q-17 32 17 49q79 42 106 67q38 37 39 76q0 27 -13 46.5t-31 34t-36.5 31.5t-31.5 48.5t-13 75.5q0 83 55.5 132.5t147.5 49.5q101 0 164 -65t63 -183q0 -84 -34 -161.5t-89.5 -133t-124 -93t-139.5 -50.5q-37 -3 -53 21z" />
<glyph unicode="&#x201e;" horiz-adv-x="1374" d="M135 -238q-17 33 17 50q79 42 106 67q39 36 39 76q0 27 -13 46.5t-31.5 34t-36.5 31.5t-31 48t-13 75q0 83 55.5 133t147.5 50q101 0 164 -65t63 -183q0 -84 -34 -161.5t-89.5 -133t-124 -93t-139.5 -50.5q-38 -3 -53 20zM668 -238q-17 33 16 50q79 42 106 67 q38 37 39 76q0 27 -13 46.5t-31 34t-36 31.5t-31 48t-13 75q0 83 55 133t147 50q102 0 165 -65t63 -183q0 -84 -34 -161.5t-89.5 -133t-124 -93t-139.5 -50.5q-39 -3 -54 20z" />
<glyph unicode="&#x2022;" horiz-adv-x="1044" d="M109 698q0 170 121.5 292t291.5 122t292 -122t122 -292t-122 -291.5t-292 -121.5t-291.5 121.5t-121.5 291.5z" />
<glyph unicode="&#x2026;" horiz-adv-x="2269" d="M119 178q0 82 57 139.5t139 57.5t139.5 -57.5t57.5 -139.5t-57.5 -139t-139.5 -57t-139 57t-57 139zM922 178q0 82 57 139.5t139 57.5t139.5 -57.5t57.5 -139.5t-57.5 -139t-139.5 -57t-139 57t-57 139zM1724 178q0 82 57.5 139.5t139.5 57.5t139.5 -57.5t57.5 -139.5 t-57.5 -139t-139.5 -57t-139.5 57t-57.5 139z" />
<glyph unicode="&#x202f;" horiz-adv-x="408" />
<glyph unicode="&#x2039;" horiz-adv-x="841" d="M59 473q5 22 37 55l373 379q23 23 40 31t44 8h248q35 0 40 -22.5t-22 -51.5l-379 -399l267 -399q19 -31 7.5 -52.5t-46.5 -21.5h-248q-28 0 -42.5 8t-31.5 31l-266 379q-23 33 -21 55z" />
<glyph unicode="&#x203a;" horiz-adv-x="825" d="M12.5 21.5q-5.5 21.5 22.5 52.5l379 399l-267 399q-20 29 -8 51.5t47 22.5h246q28 0 43.5 -8t32.5 -31l266 -379q3 -5 8.5 -15t7.5 -14.5t4 -11.5t1 -14q-4 -18 -37 -55l-373 -379q-23 -23 -40.5 -31t-45.5 -8h-246q-35 0 -40.5 21.5z" />
<glyph unicode="&#x205f;" horiz-adv-x="510" />
<glyph unicode="&#x20ac;" horiz-adv-x="1204" d="M-18 500l16 106q1 15 13.5 26t27.5 11h88v4q0 49 6 98h-80q-15 0 -25 11t-8 26l17 107q1 15 13.5 26t27.5 11h100q86 219 289 353t477 134q223 0 365 -74q30 -15 10 -47l-133 -237q-17 -25 -47 -15q-124 47 -228 47q-205 0 -325 -161h487q16 0 25 -9.5t8 -27.5l-16 -107 q-1 -17 -13 -27t-28 -10h-537q-6 -40 -6 -77v-25h426q16 0 25 -9.5t6 -27.5l-15 -106q-6 -37 -43 -37h-350q43 -74 117.5 -115t171.5 -41q124 0 241 49q17 7 26 4.5t15 -16.5l95 -242q9 -30 -21 -45q-173 -77 -387 -77q-121 0 -228.5 29t-197 86t-153 151t-89.5 217h-133 q-14 0 -22.5 11t-7.5 26z" />
<glyph unicode="&#x2122;" horiz-adv-x="1736" d="M72 1315v108q0 15 11 26t26 11h569q15 0 26 -11t11 -26v-108q0 -15 -11 -26t-26 -11h-184v-514q0 -15 -11 -26t-26 -11h-125q-15 0 -26 11t-11 26v514h-186q-15 0 -26 11t-11 26zM807 764v659q0 15 11 26t26 11h108q45 0 66 -37l168 -288l166 288q13 23 27 30t38 7h111 q15 0 26 -11t11 -26v-659q0 -15 -11 -26t-26 -11h-121q-15 0 -26 11t-11 26v338l-104 -182q-11 -20 -23.5 -28.5t-34.5 -8.5h-49q-22 0 -34 8.5t-23 28.5l-103 182v-338q0 -15 -10.5 -26t-25.5 -11h-119q-15 0 -26 11t-11 26z" />
<glyph unicode="&#x25fc;" horiz-adv-x="942" d="M0 0v942h942v-942h-942z" />
</font>
</defs>
</svg>
