<?xml version="1.0" standalone="no"?>
<!DOCTYPE svg PUBLIC "-//W3C//DTD SVG 1.1//EN" "http://www.w3.org/Graphics/SVG/1.1/DTD/svg11.dtd" >
<svg xmlns="http://www.w3.org/2000/svg">
<metadata></metadata>
<defs>
<font id="houschka_alt_probold_italic" horiz-adv-x="1228" >
<font-face units-per-em="2048" ascent="1556" descent="-492" />
<missing-glyph horiz-adv-x="557" />
<glyph unicode="&#xfb01;" horiz-adv-x="1150" d="M72 -369l147 1094h-104q-12 0 -20.5 9.5t-8.5 23.5l23 149q7 31 36 31h103l14 106q21 151 109 246q106 121 299 121q92 0 172.5 -24.5t128.5 -65.5q21 -18 8 -41l-88 -143q-9 -11 -23 -13.5t-26 4.5q-75 56 -144 56q-71 -3 -114 -43q-44 -44 -56 -127l-10 -76h549 q14 0 22 -9t5 -22l-123 -876q-1 -12 -12 -21.5t-23 -9.5h-209q-12 0 -20.5 9.5t-8.5 21.5l101 694h-310l-147 -1094q-1 -13 -11 -21.5t-24 -8.5h-209q-12 0 -19.5 8.5t-6.5 21.5z" />
<glyph unicode="&#xfb02;" horiz-adv-x="1173" d="M68 -369l147 1094h-100q-12 0 -21 10t-8 23l23 149q7 31 36 31h101l14 106q24 170 121 259q118 108 352 108q133 0 244 -23t168 -51q29 -12 24 -43l-178 -1263q0 -13 -10 -22t-23 -9h-208q-14 0 -22 9t-7 22l153 1085q3 30 -14 39q-23 13 -68.5 22t-93.5 9 q-84 0 -129 -58q-32 -44 -45 -124l-8 -66h162q12 0 20 -9t7 -22l-23 -151q-2 -12 -12 -21.5t-23 -9.5h-162l-145 -1094q-1 -13 -11.5 -21.5t-23.5 -8.5h-209q-14 0 -21.5 8.5t-6.5 21.5z" />
<glyph unicode="&#xfb03;" horiz-adv-x="1773" d="M80 -369l153 1094h-100q-12 0 -19 9.5t-5 21.5l24 153q1 12 10.5 20.5t20.5 8.5h98l12 84q24 180 125 278q91 91 232 91q167 0 266 -80q22 -16 8 -41l-80 -133q-16 -24 -47 -9q-56 35 -108 35q-60 0 -88 -45q-30 -44 -39 -114l-8 -66h329l15 106q20 150 106 246 q111 121 301 121q91 0 171.5 -25t129.5 -65q22 -18 6 -41l-88 -143q-8 -11 -21.5 -13.5t-25.5 4.5q-78 56 -143 56q-69 0 -115 -43q-48 -45 -57 -129l-8 -74h553q11 0 17 -8.5t5 -20.5l-125 -878q0 -14 -9 -22.5t-22 -8.5h-213q-14 0 -21.5 9t-4.5 22l98 694h-309 l-146 -1094q-7 -30 -34 -30h-209q-14 0 -22 8.5t-7 21.5l148 1094h-328l-154 -1094q-7 -30 -35 -30h-213q-13 0 -20 8t-4 22z" />
<glyph unicode="&#xfb04;" horiz-adv-x="1757" d="M55 -369l154 1094h-98q-13 0 -20.5 9.5t-4.5 21.5l23 153q1 12 10 20.5t20 8.5h101l12 84q20 175 123 278q94 91 231 91q167 0 266 -80q23 -16 9 -41l-80 -133q-16 -24 -47 -9q-56 35 -109 35q-57 0 -88 -45q-28 -40 -37 -114l-8 -66h328l14 106q24 171 123 259 q118 108 350 108q133 0 244 -23t168 -51q29 -12 24 -43l-176 -1263q-1 -13 -12 -22t-23 -9h-209q-28 0 -28 31l153 1085q6 29 -12 39q-60 31 -164 31q-84 0 -129 -58q-32 -44 -45 -124l-8 -66h162q13 0 21 -9t5 -22l-22 -151q-2 -12 -12 -21.5t-23 -9.5h-160l-147 -1094 q-1 -13 -11.5 -21.5t-23.5 -8.5h-209q-12 0 -19.5 8.5t-6.5 21.5l145 1094h-328l-153 -1094q-7 -30 -35 -30h-213q-13 0 -20.5 8t-4.5 22z" />
<glyph horiz-adv-x="2048" />
<glyph horiz-adv-x="2048" />
<glyph unicode="&#xd;" horiz-adv-x="2048" />
<glyph unicode=" "  horiz-adv-x="557" />
<glyph unicode="&#x09;" horiz-adv-x="557" />
<glyph unicode="&#xa0;" horiz-adv-x="557" />
<glyph unicode="!" horiz-adv-x="718" d="M174 143q0 67 48 114.5t114 47.5q68 0 116 -47.5t48 -114.5t-48 -114t-116 -47q-66 0 -114 47t-48 114zM281 489l49 873q0 33 30 33h279q29 0 23 -37l-199 -869q-8 -32 -35 -32h-121q-29 0 -26 32z" />
<glyph unicode="&#x22;" horiz-adv-x="733" d="M195 965l10 383q3 47 43 47h192q41 0 29 -47l-96 -383q-9 -45 -49 -45h-91q-38 0 -38 45zM551 965l12 383q3 47 43 47h191q40 0 28 -47l-94 -383q-12 -45 -49 -45h-92q-39 0 -39 45z" />
<glyph unicode="#" horiz-adv-x="1421" d="M0 231v150q0 12 8.5 21.5t20.5 9.5h274l59 278h-235q-13 0 -23 10t-10 23v149q0 12 10 21.5t23 9.5h279l71 332q9 31 47 31h138q36 0 28 -47l-67 -316h288l72 332q6 31 45 31h137q39 0 29 -47l-68 -316h232q12 0 21.5 -9.5t9.5 -21.5v-149q0 -13 -9.5 -23t-21.5 -10h-275 l-59 -278h236q13 0 22.5 -9.5t9.5 -21.5v-150q0 -13 -9 -22.5t-23 -9.5h-281l-70 -332q-9 -31 -47 -31h-137q-40 0 -29 47l66 316h-289l-70 -332q-6 -31 -45 -31h-137q-22 0 -28 11.5t-3 35.5l68 316h-229q-12 0 -20.5 9.5t-8.5 22.5zM520 412h289l57 278h-288z" />
<glyph unicode="$" horiz-adv-x="1081" d="M76 131l108 174q17 20 39 4q121 -96 271 -96q112 0 168 41q51 36 51 100q0 72 -107 133q-39 24 -109 57.5t-127.5 66t-99.5 73.5q-100 96 -100 236q0 178 131 288q102 83 264 103l23 153q0 12 9.5 20.5t23.5 8.5h102q10 0 17.5 -8.5t7.5 -20.5l-23 -149q169 -9 274 -62 q10 -4 13.5 -14.5t-2.5 -19.5l-115 -189q-9 -18 -33 -4q-95 53 -217 53q-101 0 -151 -32q-45 -31 -45 -93q0 -22 10.5 -42t35 -39.5t36 -27.5t40.5 -26q23 -14 138 -70.5t170 -103.5q122 -102 122 -252q0 -174 -120 -282q-116 -113 -342 -129l-19 -138q-6 -30 -31 -30h-102 q-14 0 -21 8.5t-6 21.5l19 140q-171 17 -297 106q-23 15 -6 41z" />
<glyph unicode="%" horiz-adv-x="1382" d="M124.5 13q-3.5 13 8.5 26l1038 1329q24 27 50 27h104q20 0 23.5 -13t-9.5 -28l-1038 -1329q-17 -25 -47 -25h-107q-19 0 -22.5 13zM141 1051q0 139 72 233q45 60 110 94.5t138 34.5q125 0 203 -88q65 -75 65 -182q0 -136 -74 -236q-91 -121 -245 -121q-125 0 -201 82 q-68 71 -68 183zM301 1075q0 -57 31 -100q36 -45 86 -45q70 0 114 63q33 54 33 123q0 66 -26 105q-32 43 -88 43q-74 0 -117 -68q-33 -54 -33 -121zM745 248q0 132 72 231q44 61 109 95t139 34q125 0 203 -88q63 -69 63 -180q0 -140 -71 -236q-88 -122 -248 -122 q-123 0 -201 84q-66 76 -66 182zM905 270q0 -60 29 -100q36 -45 88 -45q72 0 115 65q32 53 32 121q0 65 -26 107q-29 43 -88 43q-70 0 -117 -70q-33 -47 -33 -121z" />
<glyph unicode="&#x26;" horiz-adv-x="1359" d="M131 346q0 68 18.5 127t47.5 102t75 83.5t89 68t100 57.5q1 0 3 1t3 1q-39 118 -39 226q0 163 86 262q98 112 274 112q145 0 228 -86q69 -79 69 -202q0 -58 -19.5 -110t-48 -89.5t-76 -75.5t-88.5 -63t-101 -58q72 -151 180 -274q47 94 63 225q3 25 25 25h180 q10 0 16.5 -8.5t4.5 -20.5q-22 -211 -121 -368q71 -46 131 -54q25 -3 22 -28l-26 -189q-1 -13 -13.5 -21.5t-25.5 -8.5q-130 0 -268 110q-157 -110 -365 -110q-190 0 -301 86q-123 93 -123 280zM387 356q0 -84 53 -129q51 -39 146 -39q96 0 180 52q-130 154 -219 346 q-160 -104 -160 -230zM659 1044q0 -74 21 -153q84 43 128 87.5t44 104.5q0 44 -23 70q-20 27 -61 27q-51 0 -80 -39q-29 -37 -29 -97z" />
<glyph unicode="'" horiz-adv-x="376" d="M154 965l10 383q3 47 43 47h192q41 0 29 -47l-96 -383q-9 -45 -49 -45h-90q-39 0 -39 45z" />
<glyph unicode="(" horiz-adv-x="636" d="M92.5 146.5q-29.5 232.5 7.5 502.5q38 264 133.5 502.5t235.5 423.5q33 39 74 39h186q36 0 43.5 -20t-12.5 -48q-307 -448 -371 -897q-63 -447 119 -893q11 -29 -1.5 -48t-47.5 -19h-187q-44 0 -61 39q-89 186 -118.5 418.5z" />
<glyph unicode=")" horiz-adv-x="663" d="M-64.5 -291.5q-6.5 19.5 13.5 47.5q305 446 368 893q62 453 -118 897q-11 29 1.5 48.5t47.5 19.5h186q44 0 64 -39q87 -185 115.5 -421t-7.5 -505q-36 -264 -131.5 -500t-236.5 -421q-29 -39 -74 -39h-187q-35 0 -41.5 19.5z" />
<glyph unicode="*" horiz-adv-x="714" d="M94 1233q11 36 40.5 47.5t64.5 1.5q17 -4 69 -27l107 -45l-10 117q-1 7 -4 34t-3 40q0 36 21 60t59 24t59 -24t21 -60q0 -10 -1 -22.5t-2.5 -28t-2.5 -23.5l-10 -117l106 45q60 24 70 27q35 10 64 -1.5t40 -47.5q11 -37 -4.5 -63.5t-48.5 -36.5q-15 -5 -43.5 -11.5 t-30.5 -7.5l-114 -24l80 -89q37 -41 47 -55q21 -27 19 -60t-32 -55q-34 -23 -63 -17t-51 34q-18 23 -39 63l-64 103l-61 -103q-27 -45 -41 -63q-22 -28 -51 -34t-64 17q-29 24 -31.5 56t19.5 59q10 14 47 55l80 89l-115 24q-2 1 -30.5 7.5t-43.5 11.5q-33 10 -48.5 36.5 t-4.5 63.5z" />
<glyph unicode="+" horiz-adv-x="1179" d="M88 627v192q0 12 9.5 21.5t21.5 9.5h344v344q0 12 9 21.5t22 9.5h192q12 0 21.5 -9.5t9.5 -21.5v-344h344q13 0 23 -9.5t10 -21.5v-192q0 -13 -9.5 -22t-23.5 -9h-344v-346q0 -12 -9.5 -21.5t-21.5 -9.5h-192q-13 0 -22 9.5t-9 21.5v346h-344q-12 0 -21.5 9t-9.5 22z" />
<glyph unicode="," horiz-adv-x="628" d="M84 -209q-15 28 14 41q2 1 19.5 11t24 14t21.5 14.5t22.5 18t16.5 18.5t13 22.5t4 24.5q0 23 -10.5 40t-26 29.5t-31 26.5t-26 40.5t-10.5 62.5q0 68 46 109.5t122 41.5q84 0 136 -55t52 -154q0 -93 -48 -174t-119.5 -129.5t-151.5 -64.5q-33 -3 -46 16z" />
<glyph unicode="-" horiz-adv-x="1064" d="M201 477l26 193q1 13 12 22.5t23 9.5h625q13 0 20.5 -9t5.5 -23l-26 -193q-3 -13 -13.5 -22t-23.5 -9h-623q-13 0 -21 9.5t-5 21.5z" />
<glyph unicode="." horiz-adv-x="598" d="M117 143q0 67 48 114.5t116 47.5q66 0 113.5 -47.5t47.5 -114.5t-47.5 -114t-113.5 -47q-68 0 -116 47t-48 114z" />
<glyph unicode="/" horiz-adv-x="911" d="M40.5 13q-8.5 13 2.5 32l674 1319q17 31 47 31h231q23 0 31 -14t-2 -33l-674 -1317q-16 -31 -47 -31h-231q-23 0 -31.5 13z" />
<glyph unicode="0" d="M80 528q0 321 121 557q172 328 520 328q233 0 342 -153q102 -136 102 -394q0 -316 -118 -555q-79 -155 -208.5 -243t-308.5 -88q-238 0 -352 165q-98 140 -98 383zM371 541q0 -129 37 -207q49 -94 153 -94q93 0 157.5 70.5t102.5 189.5q49 155 49 354q0 135 -41 207 q-48 88 -141 88t-160.5 -65.5t-105.5 -182.5q-51 -152 -51 -360z" />
<glyph unicode="1" d="M129 31l29 192q0 12 10.5 21.5t24.5 9.5h294l119 850l-293 -98q-23 -7 -32 -1t-5 33l27 189q4 35 37 45l365 121q46 12 67 12h139q13 0 22 -9.5t7 -21.5l-158 -1120h275q12 0 20 -9.5t6 -21.5l-26 -192q-1 -12 -12 -21.5t-23 -9.5h-866q-12 0 -20.5 9.5t-6.5 21.5z" />
<glyph unicode="2" d="M102 31l15 104q19 132 61.5 226.5t118.5 168.5q103 100 363 234l7.5 4.5t7 3.5t7.5 4q58 29 91.5 49t67.5 48.5t49 61t15 73.5q0 70 -41 114q-47 47 -137 47q-165 0 -328 -106q-37 -20 -49 8l-57 172q-8 21 18 41q107 63 213.5 96t251.5 33q193 0 301 -102 q105 -94 105 -267q0 -126 -60 -215t-168 -161q-61 -41 -203.5 -119t-205.5 -125q-82 -63 -94 -170h596q12 0 20 -9.5t6 -21.5l-26 -192q-3 -13 -14 -22t-23 -9h-881q-13 0 -21.5 9.5t-5.5 21.5z" />
<glyph unicode="3" d="M121 127l104 166q16 27 45 8q71 -51 131 -71.5t127 -20.5q112 0 181 57q69 53 69 144q0 98 -69 145q-58 37 -172 41h-105q-13 0 -21 9.5t-5 21.5l22 166q1 13 11.5 21.5t23.5 8.5h90q121 0 197 56q75 52 75 145q0 63 -41 104q-46 43 -122 43q-126 0 -269 -90 q-35 -20 -45 9l-59 159q-10 31 16 47q197 117 408 117q169 0 276 -90q103 -90 103 -240q0 -117 -70 -215q-63 -91 -178 -141q101 -43 153 -119q54 -80 54 -207q0 -185 -150 -305q-146 -116 -373 -116q-250 0 -401 106q-23 13 -6 41z" />
<glyph unicode="4" d="M47 299l23 168q5 29 26 55l725 848q26 29 58 29h196q12 0 20 -10t7 -23l-121 -856h176q12 0 20 -10t7 -23l-25 -178q-1 -13 -12 -22t-25 -9h-174l-35 -237q0 -12 -10 -21.5t-22 -9.5h-222q-13 0 -21.5 9.5t-6.5 21.5l33 237h-590q-14 0 -22 9t-5 22zM385 510h313l64 444z " />
<glyph unicode="5" d="M135 139l90 166q15 27 39 10q74 -56 137.5 -81t155.5 -25q126 0 197 88q59 78 59 178q0 97 -45 158q-53 63 -152 63q-129 0 -208 -116q-14 -24 -46 -17l-131 27q-20 4 -24.5 13t0.5 34l151 727q3 12 14 21.5t23 9.5h666q13 0 21 -9t8 -22l-29 -193q-1 -13 -12 -22.5 t-23 -9.5h-451l-57 -258q68 45 156 45q214 0 325 -123q99 -114 99 -303q0 -218 -135 -359q-75 -78 -184 -119.5t-238 -41.5q-234 0 -396 118q-24 15 -10 41z" />
<glyph unicode="6" d="M115 557q0 128 21.5 247t71 231t123 195t185 133t248.5 50q187 0 328 -76q11 -6 13 -17.5t-5 -23.5l-96 -170q-13 -23 -41 -10q-113 47 -218 47q-71 0 -129 -29.5t-96.5 -80t-62.5 -111t-35 -129.5q129 82 283 82q196 0 301.5 -108.5t105.5 -307.5q0 -102 -36.5 -193 t-101.5 -158.5t-162 -107.5t-212 -40q-128 0 -223 43t-151.5 121.5t-83.5 181.5t-27 231zM395 522q0 -140 53 -223.5t156 -83.5q100 0 162.5 68.5t62.5 175.5q0 88 -50 143t-144 55q-119 0 -236 -86q-4 -28 -4 -49z" />
<glyph unicode="7" d="M168 51l473 748q33 52 71.5 107t91.5 127t77 106h-430l-23 -166q-5 -31 -37 -31h-192q-14 0 -22 8.5t-5 22.5l55 391q0 13 10 22t23 9h905q14 0 22.5 -9t6.5 -22l-25 -170q-4 -30 -22 -61l-660 -1102q-19 -31 -55 -31h-244q-46 0 -20 51z" />
<glyph unicode="8" d="M104 338q0 144 111 252q75 73 231 147q-84 62 -137 135q-65 84 -65 195q0 157 108 246q121 100 350 100q182 0 297 -92q105 -84 105 -229q0 -117 -64 -211q-59 -84 -172 -152q107 -77 152 -133q76 -96 76 -207q0 -196 -140 -303q-137 -104 -409 -104q-183 0 -301 79 q-142 96 -142 277zM385 360q0 -81 55 -120q47 -41 146 -41q104 0 159 43q62 49 62 129q0 69 -57 129q-37 44 -117 94q-8 -4 -37.5 -17t-44 -20.5t-37.5 -20.5t-39 -26q-90 -63 -90 -150zM520 1075q0 -64 49 -123q31 -36 107 -88q78 48 110 86q48 55 48 125q0 56 -41 94 q-38 33 -107 33q-70 0 -117 -31q-49 -32 -49 -96z" />
<glyph unicode="9" d="M115 913q0 136 62 249.5t181 182t271 68.5q128 0 223 -43t151.5 -122t83.5 -182t27 -232q0 -127 -22 -246.5t-71.5 -231t-123.5 -194t-185.5 -132.5t-248.5 -50q-192 0 -326 75q-24 14 -10 39l98 172q11 20 41 10q115 -49 215 -49q71 0 129.5 29.5t97.5 80.5t63.5 112 t35.5 131q-135 -84 -285 -84q-195 0 -301 109.5t-106 307.5zM397 932q0 -88 51 -142.5t146 -54.5q119 0 235 86q0 5 1 22t1 25q0 142 -51.5 225t-156.5 83q-100 0 -163 -68.5t-63 -175.5z" />
<glyph unicode=":" horiz-adv-x="612" d="M117 141q0 67 48.5 115.5t115.5 48.5q66 0 113.5 -48.5t47.5 -115.5t-47.5 -114t-113.5 -47q-68 0 -116 47t-48 114zM209 795q0 66 48.5 113.5t115.5 47.5t114.5 -47.5t47.5 -113.5q0 -67 -47.5 -114.5t-114.5 -47.5q-68 0 -116 47.5t-48 114.5z" />
<glyph unicode=";" horiz-adv-x="610" d="M84 -209q-15 28 14 41q2 1 19.5 11t24 14t21.5 14.5t22.5 18t16.5 18.5t13 22.5t4 24.5q0 23 -10.5 40t-26 29.5t-31 26.5t-26 40.5t-10.5 62.5q0 68 46 109.5t122 41.5q84 0 136 -55t52 -154q0 -93 -48 -174t-119.5 -129.5t-151.5 -64.5q-33 -3 -46 16zM213 795 q0 66 47.5 113.5t114.5 47.5t114.5 -47.5t47.5 -113.5q0 -67 -47.5 -114.5t-114.5 -47.5t-114.5 47.5t-47.5 114.5z" />
<glyph unicode="&#x3c;" horiz-adv-x="1290" d="M98 596v254q0 20 7 30.5t24 16.5l1001 389q14 7 29 2t15 -26v-226q0 -40 -33 -51l-735 -262l735 -262q33 -11 33 -51v-226q0 -21 -15 -26t-29 2l-1001 387q-31 11 -31 49z" />
<glyph unicode="=" horiz-adv-x="1181" d="M88 387v193q0 12 9.5 21t21.5 9h942q13 0 23 -9t10 -21v-193q0 -12 -10 -21.5t-23 -9.5h-942q-12 0 -21.5 9.5t-9.5 21.5zM88 862v193q0 12 9.5 21t21.5 9h942q13 0 23 -9t10 -21v-193q0 -12 -10 -21.5t-23 -9.5h-942q-12 0 -21.5 9.5t-9.5 21.5z" />
<glyph unicode="&#x3e;" horiz-adv-x="1296" d="M117 184v226q0 40 35 51l735 262l-735 262q-35 11 -35 51v226q0 21 15.5 26t27.5 -2l1003 -389q17 -6 24 -16.5t7 -30.5v-254q0 -38 -31 -49l-1003 -387q-12 -7 -27.5 -2t-15.5 26z" />
<glyph unicode="?" horiz-adv-x="1155" d="M248 1235q-10 31 16 47q195 133 422 133q177 0 289 -100q104 -90 104 -254q0 -130 -67 -217q-47 -64 -160 -139.5t-154 -122.5q-48 -55 -63 -133q-9 -33 -41 -33h-143q-28 0 -37 28q-17 47 -11 109q14 89 115 184q26 24 54.5 46t66.5 49t53 38q56 40 84.5 77.5t28.5 86.5 q0 66 -43 103q-45 39 -123 39q-82 0 -148 -25t-153 -78q-10 -6 -21.5 -3t-15.5 13zM336 143q0 67 48 114.5t116 47.5t115 -47.5t47 -114.5t-47 -114t-115 -47t-116 47t-48 114z" />
<glyph unicode="@" horiz-adv-x="1857" d="M256 692q0 146 58.5 279.5t158.5 230.5t239.5 155t293.5 58q187 0 340 -72.5t245 -212.5t92 -323q0 -101 -23.5 -190t-67.5 -159t-114.5 -110.5t-158.5 -40.5q-136 0 -178 113q-57 -59 -118.5 -87t-141.5 -28q-48 0 -99.5 20.5t-89.5 63.5q-78 88 -78 232q0 187 129 313 q72 71 171 108t200 37q110 0 180 -18q18 -4 15 -23l-60 -424q-6 -44 -6 -75q0 -136 96 -136q68 0 120.5 56.5t79 149t26.5 204.5q0 149 -79.5 261.5t-204.5 168t-273 55.5q-172 0 -317 -80t-230.5 -222t-85.5 -314q0 -273 177.5 -439.5t459.5 -166.5q245 0 444 78 q33 10 43 -13l19 -53q7 -14 1.5 -25.5t-20.5 -17.5q-223 -86 -487 -86q-222 0 -393 89t-267 256t-96 388zM737 623q0 -110 49 -162q52 -60 132 -60q116 0 204 103v28q0 36 11 107l47 330q-47 8 -109 2q-148 -10 -242 -107q-92 -92 -92 -241z" />
<glyph unicode="A" horiz-adv-x="1296" d="M-33 10q-2 5 -2.5 10t2.5 11l617 1339q12 31 32 31h310q12 0 20 -9t10 -22l283 -1341q1 -12 -7 -20.5t-22 -8.5h-249q-21 0 -25 29l-49 254h-492l-110 -254q-12 -29 -33 -29h-268q-12 0 -17 10zM487 518h361l-113 574z" />
<glyph unicode="B" horiz-adv-x="1232" d="M90 29l186 1335q2 12 11.5 21.5t21.5 9.5h359q202 0 317 -95q105 -88 105 -239q0 -108 -48 -187q-45 -77 -141 -131v-4q134 -42 199 -127q61 -82 61 -206q0 -180 -125 -289q-132 -117 -377 -117h-544q-12 0 -19.5 8.5t-5.5 20.5zM414 240h192q142 0 205 51q59 45 59 135 q0 83 -49 123q-58 51 -207 51h-149zM496 836h116q118 0 172 65q41 44 41 125q0 59 -41 94q-44 41 -122 41h-119z" />
<glyph unicode="C" horiz-adv-x="1275" d="M125 647q0 157 61 298t167.5 244t258.5 163.5t326 60.5q222 0 367 -74q16 -9 16 -21q0 -9 -8 -20l-107 -192q-15 -24 -41 -12q-123 53 -254 53q-138 0 -248.5 -67.5t-169.5 -177.5t-59 -238q1 -194 111 -305t286 -111q148 0 267 55q27 11 37 -10l75 -197q9 -24 -18 -39 q-170 -77 -385 -77q-111 0 -210 24t-186 76t-150 129t-99.5 189t-36.5 249z" />
<glyph unicode="D" horiz-adv-x="1462" d="M90 29l186 1335q2 12 11.5 21.5t21.5 9.5h359q186 0 328.5 -48t248.5 -159q172 -181 172 -483q0 -336 -233 -527q-225 -178 -615 -178h-454q-13 0 -20 8q-5 7 -5 16v5zM414 248h215q222 0 350 106q145 119 145 342q0 203 -110 322q-116 129 -346 129h-127z" />
<glyph unicode="E" horiz-adv-x="1230" d="M90 29l186 1335q1 12 12 21.5t23 9.5h891q25 0 25 -31l-31 -203q-1 -12 -10.5 -20t-20.5 -8h-626l-41 -302h508q11 0 17 -8t5 -20l-33 -203q-2 -13 -10 -22t-20 -9h-504l-45 -309h698q11 0 18.5 -8t4.5 -19l-29 -204q-2 -12 -10.5 -20.5t-20.5 -8.5h-962q-12 0 -19.5 8.5 t-5.5 20.5z" />
<glyph unicode="F" horiz-adv-x="1103" d="M90 29l186 1335q1 13 11.5 22t21.5 9h848q23 0 23 -25v-6l-29 -203q-1 -12 -11.5 -20t-21.5 -8h-579l-41 -302h481q12 0 19 -8t6 -20l-29 -203q-2 -12 -11.5 -21.5t-21.5 -9.5h-481l-76 -540q-1 -12 -10.5 -20.5t-20.5 -8.5h-239q-12 0 -19.5 8.5t-5.5 20.5z" />
<glyph unicode="G" horiz-adv-x="1536" d="M125 625q0 168 64 315.5t173.5 250.5t259.5 162.5t318 59.5q242 0 426 -92q26 -13 10 -41l-123 -195q-15 -25 -41 -12q-145 74 -292 74q-94 0 -181.5 -37t-155 -102t-108.5 -161t-41 -206q0 -186 107 -292.5t278 -106.5q159 0 293 69l27 181h-283q-12 0 -20 9t-7 21 l27 201q1 12 12 21.5t23 9.5h530q13 0 22 -9.5t7 -21.5l-98 -692q-1 -13 -11 -22t-24 -9h-217q-12 0 -20 8.5t-7 18.5l2 16q-120 -63 -323 -63q-95 0 -183.5 22.5t-170 73t-141.5 124t-96 183t-36 242.5z" />
<glyph unicode="H" horiz-adv-x="1468" d="M90 29l186 1335q1 13 11 22t22 9h240q11 0 17 -9t5 -22l-75 -535h596l73 535q3 13 12.5 22t20.5 9h240q12 0 18 -9q4 -6 5 -14q0 -4 -1 -8l-186 -1335q-1 -12 -11 -20.5t-22 -8.5h-240q-9 0 -16 8.5t-6 20.5l78 542h-598l-74 -542q-3 -12 -12.5 -20.5t-20.5 -8.5h-237 q-12 0 -19.5 8.5t-5.5 20.5z" />
<glyph unicode="I" horiz-adv-x="579" d="M90 29l186 1335q1 13 11 22t22 9h240q11 0 17 -9t5 -22l-186 -1335q-3 -12 -12.5 -20.5t-20.5 -8.5h-237q-12 0 -19 8t-6 21z" />
<glyph unicode="J" horiz-adv-x="1087" d="M-8 117q-9 9 -9 20t9 23l135 182q20 27 41 6q105 -108 231 -108q131 0 199 71q61 64 80 215l119 838q2 13 11 22t23 9h234q14 0 21 -9q6 -7 6 -17v-5l-123 -879q-35 -231 -152 -354q-142 -151 -432 -151q-121 0 -223.5 37.5t-169.5 99.5z" />
<glyph unicode="K" horiz-adv-x="1253" d="M90 29l186 1335q1 13 11 22t22 9h240q11 0 17 -9t5 -22l-73 -526l518 526q31 31 63 31h275q13 0 19 -7q4 -5 4 -11q0 -3 -1 -7q-3 -11 -14 -22l-576 -557l420 -738q9 -19 9 -31q0 -22 -29 -22h-248q-35 0 -51 31l-320 547l-123 -119l-59 -430q-3 -13 -12.5 -21t-20.5 -8 h-237q-12 0 -19 8t-6 21z" />
<glyph unicode="L" horiz-adv-x="1046" d="M90 29l186 1335q1 13 11 22t22 9h240q11 0 17 -9t5 -22l-155 -1104h540q10 0 18 -8q5 -6 6 -13q0 -3 -1 -6l-27 -204q-2 -12 -11 -20.5t-21 -8.5h-805q-12 0 -20 8q-6 6 -6 15q0 3 1 6z" />
<glyph unicode="M" horiz-adv-x="1794" d="M35 29l438 1337q12 29 33 29h211q16 0 24 -31l164 -918l465 918q12 31 35 31h219q11 0 18 -9t7 -22v-1335q0 -11 -11 -20t-22 -9h-221q-25 0 -25 29v839l-366 -747q-14 -25 -39 -25h-238q-22 0 -25 25l-133 747l-258 -839q-7 -29 -32 -29h-220q-11 0 -19 9q-5 6 -6 14 q0 3 1 6z" />
<glyph unicode="N" horiz-adv-x="1445" d="M90 31l186 1333q3 31 35 31h201q22 0 32.5 -7t18.5 -26l475 -873l123 875q2 12 12 21.5t23 9.5h217q12 0 19.5 -9.5t5.5 -21.5l-187 -1333q-1 -13 -11.5 -22t-22.5 -9h-201q-20 0 -31.5 6t-19.5 25l-476 872l-122 -872q-3 -31 -35 -31h-217q-26 0 -26 22q0 4 1 9z" />
<glyph unicode="O" horiz-adv-x="1492" d="M129 575q-1 23 -1 46q0 143 38 269q44 148 131 259q96 126 232.5 196t291.5 70q267 0 439 -166q171 -165 180 -434q1 -27 1 -53q0 -285 -149 -500q-92 -133 -232.5 -206.5t-311.5 -73.5q-125 0 -238 40.5t-197 120.5q-173 166 -184 432zM422 596q9 -161 94 -250 q90 -94 232 -94q99 0 185 52t142 149q73 130 73 303q0 23 -1 47q-6 145 -84 233q-88 105 -238 105q-86 0 -171.5 -50t-145.5 -141q-87 -137 -87 -314q0 -20 1 -40z" />
<glyph unicode="P" horiz-adv-x="1277" d="M90 29l186 1335q1 13 11 22t22 9h346q269 0 404 -80q215 -122 215 -406q0 -234 -168 -368q-157 -121 -455 -121h-213l-53 -391q-3 -12 -12.5 -20.5t-20.5 -8.5h-237q-12 0 -20 8q-6 6 -6 15q0 3 1 6zM475 678h223q141 0 209 63q74 74 74 177q0 121 -82 176 q-60 43 -180 43h-178z" />
<glyph unicode="Q" horiz-adv-x="1490" d="M137 575q-1 23 -1 46q0 142 38 269q44 148 131 259q96 126 232.5 196t291.5 70q262 0 439 -166q168 -162 180 -434q1 -27 1 -53q0 -285 -149 -500q-74 -107 -182 -176t-239 -92q4 -12 18 -19q110 -36 280 -79.5t273 -57.5q26 -4 26 -21q0 -9 -8 -22l-112 -151 q-19 -27 -56 -27q-26 0 -62 6.5t-85 21.5t-93.5 30t-113 40.5t-117.5 45t-132 52t-134 52.5q-31 16 -22 53l18 92q-140 39 -237 133q-174 167 -185 432zM430 596q9 -161 94 -250q90 -94 232 -94q100 0 186.5 51.5t140.5 149.5q73 125 73 309q0 20 -1 41q-6 145 -84 233 q-88 105 -237 105q-87 0 -172.5 -50t-145.5 -141q-87 -137 -87 -314q0 -20 1 -40z" />
<glyph unicode="R" horiz-adv-x="1267" d="M90 29l186 1335q2 14 11 22.5t22 8.5h400q247 0 385 -109q149 -109 149 -315q0 -180 -92 -299q-72 -91 -211 -144l240 -489q7 -13 2.5 -26t-21.5 -13h-256q-33 0 -45 31l-213 452h-201l-61 -454q-3 -13 -13 -21t-22 -8h-235q-13 0 -21 8q-5 6 -5 14q0 3 1 7zM481 733h203 q142 0 209 64q61 52 61 151q0 96 -57 144q-62 53 -180 53h-176z" />
<glyph unicode="S" horiz-adv-x="1157" d="M66 154l118 186q16 25 41 4q130 -111 287 -111q105 0 170 35q68 38 68 109q0 39 -21.5 69.5t-69.5 63.5q-44 31 -119.5 70.5t-141.5 79t-111 88.5q-101 104 -101 249q0 192 140 306q144 112 395 112q105 0 202.5 -23.5t155.5 -56.5q13 -6 13 -20q0 -8 -5 -17l-120 -200 q-11 -15 -37 -4q-49 29 -115 47t-129 18q-105 0 -156 -37q-43 -32 -43 -94t82 -121q44 -32 175 -99t194 -124q59 -58 91 -122.5t32 -155.5q0 -93 -40.5 -173.5t-117.5 -138.5q-143 -112 -399 -112q-264 0 -434 129q-13 8 -13 20q0 10 9 23z" />
<glyph unicode="T" horiz-adv-x="1202" d="M119 1163l26 201q3 12 14 21.5t23 9.5h1112q12 1 20 -9q6 -7 6 -16q0 -3 -1 -6l-29 -201q0 -12 -10.5 -21t-22.5 -9h-409l-154 -1102q-6 -31 -37 -31h-231q-14 0 -22 9t-5 22l154 1102h-408q-12 0 -20 9t-6 21z" />
<glyph unicode="U" horiz-adv-x="1454" d="M154 451q0 57 14 139l108 774q1 12 11.5 21.5t21.5 9.5h238q11 0 18 -9.5t6 -21.5l-104 -743q-12 -82 -12 -123q0 -123 61 -187q62 -65 186 -65q161 0 246 102q72 87 90 234l113 782q2 12 11.5 21.5t21.5 9.5h237q12 0 19.5 -9.5t5.5 -21.5l-115 -813q-30 -222 -162 -373 q-179 -198 -499 -198q-251 0 -385 131q-131 125 -131 340z" />
<glyph unicode="V" horiz-adv-x="1327" d="M145 1352q-2 7 -2 14q0 10 5 17q8 12 26 12h232q37 0 45 -35l200 -995h4l478 995q14 35 51 35h231q17 0 23 -12q2 -5 2 -10q0 -9 -6 -21l-666 -1327q-13 -31 -49 -31h-232q-19 0 -27 7t-11 24z" />
<glyph unicode="W" horiz-adv-x="1949" d="M133 1352q-2 9 -2 16q0 27 27 27h219q38 0 41 -35l137 -993h4l410 993q14 35 49 35h162q35 0 41 -35l165 -993h5l383 993q11 35 49 35h233q24 0 24 -18q0 -10 -7 -25l-549 -1327q-12 -31 -49 -31h-240q-36 0 -41 31l-152 821h-4l-350 -821q-12 -31 -49 -31h-246 q-36 0 -41 31z" />
<glyph unicode="X" horiz-adv-x="1298" d="M-64 15q-1 3 -1 6q0 13 14 28l575 645l-395 649q-11 19 -3.5 35.5t28.5 16.5h262q13 0 22 -5.5t12.5 -10t10.5 -15.5l254 -440l364 440q24 31 54 31h276q24 -1 27 -17v-5q0 -14 -13 -30l-567 -653l393 -641q12 -20 6 -34.5t-28 -14.5h-256q-17 0 -25.5 6.5t-19.5 22.5 l-262 444l-375 -444q-13 -16 -23 -22.5t-28 -6.5h-275q-23 0 -27 15z" />
<glyph unicode="Y" horiz-adv-x="1271" d="M130 1379q6 16 30 16h252q34 0 49 -31l237 -506l363 506q21 31 55 31h268q24 0 28 -16v-6q0 -14 -13 -30l-586 -763l-78 -549q-1 -13 -12 -22t-23 -9h-233q-12 0 -20 9t-7 22l78 551l-383 761q-8 13 -8 24q0 6 3 12z" />
<glyph unicode="Z" horiz-adv-x="1241" d="M-20 12q-2 4 -2 9q0 10 8 24l835 1088h-577q-13 0 -22 9t-7 21l29 201q3 13 13.5 22t23.5 9h1038q19 0 23 -14l2 -8q0 -11 -9 -23l-837 -1090h647q12 0 19.5 -9t6.5 -22l-26 -198q-1 -13 -12 -22t-23 -9h-1106q-18 0 -24 12z" />
<glyph unicode="[" horiz-adv-x="831" d="M55 -281l260 1864q1 12 12 21.5t23 9.5h549q12 0 20.5 -9.5t6.5 -21.5l-27 -184q-2 -14 -12 -23.5t-23 -9.5h-289l-200 -1432h289q12 0 20 -9t6 -21l-26 -185q-1 -12 -12 -21t-23 -9h-549q-12 0 -20 9t-5 21z" />
<glyph unicode="\" horiz-adv-x="575" d="M131 1348q-4 47 37 47h194q45 0 48 -43l182 -1307q7 -45 -35 -45h-197q-22 0 -33 9t-14 32z" />
<glyph unicode="]" horiz-adv-x="802" d="M-29 -283l25 185q1 13 11.5 21.5t23.5 8.5h288l201 1434h-289q-12 0 -19.5 10t-4.5 23l24 184q1 12 12 21.5t23 9.5h549q12 0 20.5 -9.5t6.5 -21.5l-262 -1866q-1 -12 -12 -21t-23 -9h-547q-14 0 -22 9t-5 21z" />
<glyph unicode="^" horiz-adv-x="1155" d="M69 813.5q-6 16.5 5 26.5l387 596q12 17 22 23.5t29 6.5h129q19 0 29 -6.5t22 -23.5l389 -596q9 -10 3 -26.5t-27 -16.5h-197q-20 0 -30 8t-21 26l-231 359l-232 -359q-9 -13 -14 -18.5t-15 -10.5t-24 -5h-197q-21 0 -27 16.5z" />
<glyph unicode="_" horiz-adv-x="940" d="M-31 -147q0 13 8.5 21.5t22.5 8.5h940q12 0 21.5 -8.5t9.5 -21.5v-142q0 -12 -9.5 -21t-21.5 -9h-940q-13 0 -22 9t-9 21v142z" />
<glyph unicode="`" horiz-adv-x="954" d="M465 1540q0 10 8.5 17.5t20.5 7.5h184q28 0 43 -31l125 -307q10 -30 10 -37q0 -12 -8.5 -19.5t-20.5 -7.5h-139q-27 0 -47 33l-170 322q-6 12 -6 22z" />
<glyph unicode="a" horiz-adv-x="1069" d="M80 381q0 240 162 395q92 89 216.5 135.5t252.5 46.5q161 0 272 -24q22 -6 22 -28q0 -5 -1 -11l-121 -864q-1 -14 -10 -22.5t-21 -8.5h-193q-14 0 -21.5 9t-4.5 22l2 18q-92 -63 -221 -63q-60 0 -123.5 26t-112.5 80q-98 105 -98 289zM354 389q0 -85 43 -135 q41 -49 105 -49q83 0 143 57l66 463q-11 1 -22 1q-40 0 -79 -9q-100 -19 -170 -92q-86 -92 -86 -236z" />
<glyph unicode="b" horiz-adv-x="1079" d="M94 35l187 1331q2 11 10.5 20t21.5 9h213q12 0 19.5 -9t5.5 -20l-62 -432q71 22 150 22q181 0 289 -127q90 -114 90 -280q0 -257 -154 -408q-88 -85 -208.5 -122t-243.5 -37q-167 0 -293 20q-25 5 -25 28v5zM389 207q18 -6 55 -6q122 0 197 69q100 90 100 262 q0 85 -41 138q-47 57 -122 57q-61 0 -121 -29z" />
<glyph unicode="c" horiz-adv-x="897" d="M80 403q0 238 168 396q82 77 186.5 118t216.5 41q160 0 264 -51q15 -9 15 -22q0 -7 -4 -15l-92 -151q-15 -22 -46 -10q-59 20 -141 20q-121 0 -205 -84q-86 -83 -86 -209q0 -103 52 -164q58 -67 170 -67q85 0 153 35q15 10 28 7.5t19 -16.5l62 -137q8 -24 -17 -41 q-129 -71 -307 -71q-197 0 -317 114q-119 119 -119 307z" />
<glyph unicode="d" horiz-adv-x="1064" d="M82 410q0 186 113 323q105 122 294 178q118 37 230 37h22l58 418q2 11 11 20t21 9h216q10 0 18 -9t6 -20l-186 -1329q-3 -16 -11 -23t-24 -10q-113 -20 -279 -20q-224 0 -352 112q-137 110 -137 314zM356 408q0 -93 56 -146q57 -53 161 -53q26 0 66 4l70 504 q-71 0 -125 -21q-106 -28 -170 -106q-58 -78 -58 -182z" />
<glyph unicode="e" horiz-adv-x="950" d="M80 401q0 217 145 381q75 81 179.5 128.5t218.5 47.5q140 0 223 -67q88 -69 88 -186q0 -97 -54 -169.5t-147 -117.5q-148 -79 -375 -86q16 -54 52 -88q53 -56 149 -56q98 0 182 50q11 7 22.5 4.5t14.5 -11.5l62 -139q10 -23 -13 -35q-120 -75 -321 -75q-186 0 -297 100 q-129 119 -129 319zM354 496q122 0 224 41q120 50 120 139q0 33 -18 51q-29 25 -72 25q-102 0 -176 -90q-59 -65 -78 -166z" />
<glyph unicode="f" horiz-adv-x="745" d="M53 -369l154 1094h-98q-13 0 -20 9t-5 22l22 153q1 12 10.5 20.5t20.5 8.5h103l24 154q25 145 113 227q101 90 276 90q147 0 275 -70q17 -11 17 -23q0 -8 -7 -16l-100 -155q-13 -21 -35 -6q-70 45 -150 45q-56 0 -90 -43q-31 -39 -41 -119l-12 -84h205q11 0 18 -8.5 t6 -20.5l-24 -153q-1 -12 -11 -21.5t-20 -9.5h-205l-153 -1094q-7 -30 -35 -30h-213q-25 0 -25 24v6z" />
<glyph unicode="g" horiz-adv-x="1075" d="M-12 -340l92 154q8 12 21.5 15t25.5 -7q113 -84 248 -84q114 0 172 55q62 55 76 156l12 94q-77 -61 -201 -61q-164 0 -258 102q-96 107 -96 289q0 100 31 200.5t90 182.5q145 198 370 198q108 0 205 -59l2 12q6 33 35 33h180q24 0 24 -22q0 -5 -1 -11l-129 -921 q-36 -254 -189 -369q-129 -98 -340 -98q-98 0 -198 28.5t-164 73.5q-14 8 -14 21q0 8 6 18zM358 397q0 -87 35 -139q40 -53 113 -53q48 0 92.5 21.5t71.5 60.5l57 401q-64 41 -125 41q-112 0 -178 -104q-66 -101 -66 -228z" />
<glyph unicode="h" horiz-adv-x="1130" d="M84 31l186 1335q2 11 13 20t24 9h211q13 0 19 -9t4 -20l-70 -512h6q47 44 92 66q73 36 166 36q124 0 197 -73q94 -94 94 -277q0 -59 -14 -155l-56 -420q-2 -14 -11.5 -22.5t-22.5 -8.5h-207q-14 0 -22 9t-5 22l57 420q11 86 11 122q0 83 -39 125q-32 37 -88 37 q-80 0 -137 -67q-57 -69 -76 -197l-62 -440q-7 -31 -37 -31h-206q-13 0 -21 8q-6 7 -6 18v5z" />
<glyph unicode="i" horiz-adv-x="538" d="M86 31l125 878q1 12 11 20.5t22 8.5h215q11 0 17 -8.5t5 -20.5l-125 -878q-3 -31 -30 -31h-213q-14 0 -22 9q-6 7 -6 15q0 3 1 7zM252 1348q0 66 48 112.5t114 46.5t112.5 -46.5t46.5 -112.5t-46.5 -113t-112.5 -47t-114 47t-48 113z" />
<glyph unicode="j" horiz-adv-x="538" d="M-106 -297q85 56 129.5 135.5t66.5 237.5l117 831q3 13 13 22t22 9h211q12 0 19 -8.5t5 -22.5l-121 -872q-57 -389 -301 -518q-14 -7 -26 -7q-19 0 -33 19l-109 127q-8 9 -8 20q0 17 15 27zM248 1348q0 66 47 112.5t113 46.5q67 0 113 -46.5t46 -112.5t-46 -113t-113 -47 q-66 0 -113 47t-47 113z" />
<glyph unicode="k" horiz-adv-x="1032" d="M84 31l186 1335q2 11 11.5 20t21.5 9h213q12 0 19.5 -9t5.5 -20l-107 -768l346 322q18 18 39 18h254q11 0 16 -7q4 -5 4 -11q0 -2 -1 -5q-2 -9 -9 -14l-350 -311l277 -551q19 -39 -23 -39h-229q-30 0 -35 18l-191 392l-143 -127l-35 -252q-7 -31 -30 -31h-215 q-12 0 -20 9q-6 7 -6 15q0 3 1 7z" />
<glyph unicode="l" horiz-adv-x="536" d="M84 31l186 1335q2 11 11.5 20t21.5 9h215q10 0 17.5 -9t5.5 -20l-187 -1335q-1 -14 -10 -22.5t-20 -8.5h-215q-12 0 -19 9t-6 22z" />
<glyph unicode="m" horiz-adv-x="1722" d="M84 31l123 878q2 12 12 20.5t23 8.5h184q27 0 23 -29l-9 -75h6q62 59 113 81q72 41 170 41t160 -45q52 -37 82 -104h6q60 63 139 102q96 47 199 47q140 0 213 -73q90 -90 90 -277q0 -59 -14 -155l-56 -420q-1 -13 -11 -22t-24 -9h-208q-12 0 -20 9t-5 22l57 420 q11 86 11 122q0 84 -35 125q-32 37 -88 37q-84 0 -140 -69q-59 -74 -77 -215l-56 -420q-3 -14 -12.5 -22.5t-21.5 -8.5h-209q-14 0 -22 9t-5 22l57 420q11 86 11 122q0 87 -35 125q-29 37 -86 37q-80 0 -137 -67q-54 -66 -74 -197l-64 -440q-7 -31 -37 -31h-206q-14 0 -22 9 q-6 7 -6 15q0 3 1 7z" />
<glyph unicode="n" horiz-adv-x="1130" d="M84 31l123 878q2 12 12 20.5t23 8.5h184q27 0 23 -29l-11 -75h8q62 59 113 81q75 41 172 41q128 0 201 -73q94 -94 94 -277q0 -59 -14 -155l-56 -420q-2 -14 -11.5 -22.5t-22.5 -8.5h-207q-14 0 -22 9t-5 22l57 420q11 86 11 122q0 83 -39 125q-32 37 -88 37 q-80 0 -137 -67q-57 -69 -76 -197l-62 -440q-7 -31 -37 -31h-206q-13 0 -21 8q-6 7 -6 18v5z" />
<glyph unicode="o" horiz-adv-x="1075" d="M84 397v21q0 202 113 352q70 90 169.5 139t219.5 49q174 0 297 -108q130 -117 133 -307v-11q0 -224 -117 -372q-141 -178 -383 -178q-175 0 -295 102q-134 118 -137 313zM356 416q0 -98 45 -152q40 -63 121 -63q105 0 170 98q56 92 56 216v13q0 104 -48 162 q-44 47 -118 47q-103 0 -172 -106q-55 -92 -54 -194q-1 -11 0 -21z" />
<glyph unicode="p" horiz-adv-x="1071" d="M16 -455l193 1364q0 12 10.5 20.5t24.5 8.5h164q12 0 18 -8.5t4 -20.5l-2 -12q100 59 225 59q152 0 246 -102q109 -109 109 -301q0 -278 -181 -428q-161 -139 -419 -139q-33 0 -58 4l-63 -445q-1 -13 -11 -21.5t-22 -8.5h-213q-12 0 -19.5 9t-5.5 21zM381 209 q27 -6 59 -6q125 0 201 76q90 90 90 253q0 90 -43 142q-40 53 -113 53q-65 0 -129 -43z" />
<glyph unicode="q" horiz-adv-x="1079" d="M82 377q0 248 154 409q84 85 200 128.5t244 43.5q180 0 309 -38q32 -8 29 -35l-189 -1340q-7 -30 -34 -30h-213q-11 0 -18.5 8.5t-4.5 21.5l68 488q-4 -4 -9 -4q-74 -41 -180 -41q-158 0 -254 104q-102 110 -102 285zM356 403q0 -104 41 -153q32 -47 101 -47q65 0 110 45 q51 49 70 162l45 315q-42 10 -100 10q-121 0 -193 -94q-74 -92 -74 -238z" />
<glyph unicode="r" horiz-adv-x="880" d="M84 31l121 876q1 13 10 22t21 9h186q12 0 20 -9t7 -22l-11 -80h6q103 129 267 129q128 0 219 -77q10 -10 10 -22q0 -9 -6 -19l-96 -158q-9 -12 -22.5 -14.5t-24.5 6.5q-86 51 -164 51q-43 0 -78 -17.5t-58 -44.5t-39.5 -64.5t-25.5 -72.5t-14 -75l-58 -418 q-7 -31 -30 -31h-215q-12 0 -20 9q-6 7 -6 15q0 3 1 7z" />
<glyph unicode="s" horiz-adv-x="788" d="M-4 83q0 9 10 28l80 125q7 14 20 16t23 -8q82 -72 193 -72q69 0 108 25q35 21 35 65q0 35 -30 61t-96 60t-99 57q-69 46 -106.5 98t-37.5 130q0 136 105 211q105 77 293 77q70 0 137 -14.5t108 -36.5q20 -13 20 -30q0 -9 -5 -19l-86 -129q-8 -12 -17 -12.5t-22 6.5 q-72 37 -150 37q-59 0 -100 -25q-27 -18 -27 -51q0 -17 8 -31t27.5 -27.5t36 -22.5t52 -26.5t56.5 -29.5q42 -21 72 -42t60.5 -51.5t46.5 -72.5t16 -92q0 -150 -119 -232q-103 -75 -282 -75q-204 0 -314 83q-16 10 -16 20z" />
<glyph unicode="t" horiz-adv-x="786" d="M76 758l20 149q3 13 14 22t23 9h103l24 184q1 13 12 22t23 9h209q14 0 21.5 -9t6.5 -22l-26 -184h256q12 0 19.5 -9t6.5 -22l-22 -149q-2 -14 -12 -23.5t-23 -9.5h-256l-41 -287q-12 -94 -12 -121q0 -104 94 -104q69 0 143 51q33 23 43 -6l50 -152q6 -22 -19 -38 q-133 -88 -313 -88q-137 0 -207 75t-70 207q0 24 2.5 51t7.5 62.5t7 50.5l45 299h-103q-12 0 -19.5 10t-6.5 23z" />
<glyph unicode="u" horiz-adv-x="1122" d="M117 307q0 53 10 121l68 481q2 12 11 20.5t21 8.5h215q10 0 17 -8t6 -21l-68 -475q-8 -66 -8 -94q0 -62 29 -98q37 -43 108 -43q95 0 148 59q43 49 53 137l74 514q2 12 11 20.5t22 8.5h213q11 0 18 -8t6 -21l-76 -528q-27 -192 -145 -295q-122 -104 -340 -104 q-213 0 -305 86q-88 79 -88 239z" />
<glyph unicode="v" horiz-adv-x="1026" d="M100 897q-2 6 -2 12q0 7 4 15q6 14 27 14h205q42 0 47 -33l102 -647h4l312 647q13 33 55 33h201q24 0 24 -19q0 -10 -6 -24l-465 -870q-16 -31 -53 -31h-242q-38 0 -43 31z" />
<glyph unicode="w" horiz-adv-x="1419" d="M84 897q-2 6 -2 12q0 9 4 16q6 13 27 13h202q40 0 43 -33l76 -588h4l236 588q11 33 53 33h158q22 0 32 -7.5t11 -25.5l69 -588h4l232 588q11 33 55 33h193q24 0 24 -22q0 -9 -4 -21l-385 -870q-13 -31 -49 -31h-223q-39 0 -39 31l-62 491h-4l-198 -491q-12 -31 -54 -31 h-227q-20 0 -27.5 6.5t-9.5 24.5z" />
<glyph unicode="x" horiz-adv-x="958" d="M-60 20q0 13 13 29l391 430l-262 410q-11 19 -4 34t28 15h234q29 0 43 -31l135 -241l201 241q21 31 51 31h223q23 0 27 -16q1 -3 1 -6q0 -13 -13 -27l-367 -391l281 -449q12 -20 5.5 -34.5t-28.5 -14.5h-229q-28 0 -43 29l-158 262l-221 -262q-25 -29 -51 -29h-232 q-25 0 -25 20z" />
<glyph unicode="y" horiz-adv-x="1064" d="M-4 -459l29 205q0 10 7.5 16.5t18.5 6.5h58q89 0 155 49q59 46 107 116l-281 961q-5 17 2 30t27 13h237q38 0 43 -33l146 -633l280 633q11 33 52 33h221q21 0 21 -19q0 -10 -5 -24l-467 -946q-95 -195 -221 -303q-154 -130 -367 -130q-22 0 -45 1q-18 0 -18 18v6z" />
<glyph unicode="z" horiz-adv-x="921" d="M2 13q-2 4 -1 8q0 10 9 22l510 659h-399q-11 0 -18.5 9.5t-6.5 21.5l27 176q1 12 11 20.5t22 8.5h796q18 0 22 -12q1 -3 1 -6q0 -10 -10 -23l-504 -666h391q12 0 19.5 -7.5t5.5 -18.5l-23 -174q-1 -13 -12.5 -22t-22.5 -9h-792q-19 0 -25 13z" />
<glyph unicode="{" horiz-adv-x="759" d="M61 555l27 188q1 14 11.5 22.5t23.5 8.5h12q72 0 115 53q53 58 78 203q3 26 8.5 80.5t9.5 88.5t13.5 83.5t21.5 85t33 73t49 64.5q108 105 334 105q17 0 24 -7t6 -24l-20 -149q-2 -31 -35 -31q-79 0 -121 -51q-21 -24 -35 -70t-19.5 -83.5t-13 -102.5t-10.5 -88 q-21 -163 -102 -246q-56 -64 -174 -109q81 -38 121 -78q63 -66 63 -184q0 -62 -22.5 -188.5t-22.5 -169.5q0 -56 31 -95q27 -34 94 -34q14 0 22 -8.5t5 -22.5l-23 -150q-1 -17 -10.5 -23.5t-28.5 -6.5q-162 0 -247 61q-105 72 -105 215q0 60 26.5 192t26.5 195q0 89 -34 131 q-27 41 -95 41h-10q-32 0 -27 31z" />
<glyph unicode="|" horiz-adv-x="548" d="M139 -416v1780q0 12 10 21.5t23 9.5h209q12 0 21.5 -9.5t9.5 -21.5v-1780q0 -12 -9.5 -21t-21.5 -9h-209q-13 0 -23 9t-10 21z" />
<glyph unicode="}" horiz-adv-x="731" d="M-8 -279l20 150q5 31 37 31q79 0 121 51q21 24 35 70.5t20 84.5t13 101.5t10 87.5q21 162 102 248q55 61 174 106q-85 40 -121 78q-63 66 -63 186q0 60 21.5 188t21.5 171q0 59 -29 92q-27 37 -94 37q-14 0 -22 8.5t-5 22.5l21 149q6 31 41 31q161 0 248 -62 q102 -73 102 -215q0 -61 -25.5 -193t-25.5 -194q0 -87 33 -131q32 -43 94 -43h12q12 0 20 -7.5t7 -23.5l-27 -186q-6 -31 -35 -31h-12q-71 0 -117 -55q-56 -66 -75 -203q-4 -30 -11 -95.5t-14 -108t-19.5 -97.5t-35.5 -98.5t-56 -75.5q-107 -104 -335 -104q-15 0 -23.5 7.5 t-7.5 22.5z" />
<glyph unicode="~" horiz-adv-x="1351" d="M98 444q0 179 93.5 283t263.5 104q62 0 116 -18.5t92.5 -45.5t73 -54t72 -45.5t74.5 -18.5q123 0 123 129q0 31 34 31h183q30 0 30 -31q0 -181 -93 -284t-263 -103q-61 0 -115 18.5t-92 45.5t-72.5 54t-72.5 45.5t-76 18.5q-123 0 -123 -129q0 -32 -35 -32h-182 q-31 0 -31 32z" />
<glyph unicode="&#xa1;" horiz-adv-x="569" d="M-2 -420l199 869q5 30 34 30h121q29 0 27 -30l-49 -875q0 -31 -31 -31h-279q-28 0 -22 37zM162 793q0 68 47.5 115.5t114.5 47.5t114 -47.5t47 -115.5q0 -66 -47 -114t-114 -48t-114.5 48t-47.5 114z" />
<glyph unicode="&#xa2;" d="M213 403q0 238 168 396q146 136 348 155l23 148q0 12 9.5 21.5t22.5 9.5h84q10 0 17.5 -9.5t7.5 -21.5l-23 -148q109 -14 179 -47q22 -13 10 -37l-92 -151q-15 -22 -45 -10q-59 20 -142 20q-121 0 -205 -84q-86 -83 -86 -209q0 -103 52 -164q58 -67 170 -67q89 0 147 33 q36 17 47 -9l62 -137q11 -23 -15 -39q-93 -54 -219 -67l-18 -150q-3 -13 -12 -22t-19 -9h-86q-13 0 -20.5 9.5t-4.5 23.5l19 146q-158 15 -260 112q-119 119 -119 307z" />
<glyph unicode="&#xa3;" d="M35 31l28 192q1 12 12 21.5t23 9.5h146q113 104 121 272h-181q-14 0 -21.5 10t-4.5 23l22 172q3 12 14 21.5t23 9.5h109q-17 76 -17 156q0 213 135 348q144 147 394 147q101 0 192 -22.5t150 -61.5q9 -6 11.5 -18t-3.5 -21l-103 -162q-13 -26 -38 -12q-99 55 -207 55 q-131 0 -193 -77q-59 -65 -59 -176q0 -74 14 -156h363q12 0 20 -9.5t6 -21.5l-24 -172q-1 -13 -12 -23t-23 -10h-301q-10 -160 -111 -272h490q13 0 21.5 -9.5t6.5 -21.5l-28 -192q-2 -12 -12 -21.5t-23 -9.5h-912q-13 0 -21.5 9.5t-6.5 21.5z" />
<glyph unicode="&#xa4;" horiz-adv-x="1441" d="M102 330.5q0 14.5 9 23.5l159 162q-80 125 -80 279q0 156 82 280l-163 162q-7 9 -7 22.5t7 22.5l122 125q9 7 22.5 7t22.5 -7l164 -166q127 84 281 84q147 0 276 -82l164 166q9 9 23 9t22 -9l123 -123q9 -9 9 -22.5t-9 -22.5l-164 -164q86 -125 86 -282q0 -154 -84 -281 l164 -164q9 -9 9 -22.5t-9 -22.5l-123 -123q-9 -9 -22.5 -9t-22.5 9l-164 166q-119 -84 -278 -84q-155 0 -285 84l-157 -164q-9 -9 -23 -9t-23 9l-122 125q-9 7 -9 21.5zM412 795q0 -128 91 -219t218 -91q126 0 215.5 91t89.5 219q0 126 -89.5 215.5t-215.5 89.5 q-128 0 -218.5 -89.5t-90.5 -215.5z" />
<glyph unicode="&#xa5;" d="M6 268l19 131q3 13 13.5 22t22.5 9h324l18 141h-323q-12 0 -20 9.5t-5 21.5l19 133q0 12 10 21.5t22 9.5h224l-262 586q-8 12 -0.5 27.5t30.5 15.5h271q36 0 45 -35l180 -488l315 488q20 35 58 35h272q21 0 25 -16.5t-7 -26.5l-428 -586h222q13 0 21.5 -9.5t6.5 -21.5 l-18 -133q-3 -13 -13.5 -22t-23.5 -9h-326l-18 -141h326q12 0 19.5 -9t4.5 -22l-18 -131q0 -13 -10 -21.5t-23 -8.5h-326l-28 -207q-7 -31 -37 -31h-234q-12 0 -19.5 9t-4.5 22l28 207h-323q-14 0 -22 8.5t-7 21.5z" />
<glyph unicode="&#xa6;" horiz-adv-x="548" d="M139 324q0 12 10 21t23 9h209q12 0 21.5 -9t9.5 -21v-740q0 -12 -9.5 -21t-21.5 -9h-209q-13 0 -23 9t-10 21v740zM139 625v739q0 12 10 21.5t23 9.5h209q12 0 21.5 -9.5t9.5 -21.5v-739q0 -12 -9.5 -21.5t-21.5 -9.5h-209q-13 0 -23 9.5t-10 21.5z" />
<glyph unicode="&#xa7;" horiz-adv-x="1042" d="M-12 -330l92 150q9 14 22.5 16t22.5 -8q102 -84 207 -84q67 0 114 37q41 41 41 96q0 27 -10.5 54.5t-23.5 48t-41 49t-46 44.5t-55.5 48t-54.5 47q-44 39 -74 70.5t-61 74.5t-46.5 92.5t-15.5 104.5q0 115 50 195q49 82 149 157q-43 75 -43 164q0 154 109 260 q129 129 338 129q200 0 337 -102q23 -19 7 -41l-93 -148q-9 -14 -22.5 -16t-22.5 8q-104 82 -206 82q-73 0 -115 -39q-41 -30 -41 -92q0 -28 10.5 -56t24.5 -49.5t42 -49.5t47.5 -45.5t56.5 -48.5t56 -48q90 -79 140.5 -156.5t50.5 -179.5q0 -122 -53 -205 q-44 -68 -146 -149q43 -75 43 -162q0 -159 -121 -274t-325 -115q-206 0 -338 102q-21 18 -6 39zM358 545q0 -84 76 -160q13 -13 133 -117q30 23 51 58q17 42 17 71q0 81 -72 156q-23 25 -75 69.5t-62 53.5q-35 -31 -49 -60q-19 -32 -19 -71z" />
<glyph unicode="&#xa8;" horiz-adv-x="954" d="M332 1343q0 58 41 100t98 42q60 0 101.5 -41.5t41.5 -100.5q0 -60 -41.5 -101.5t-101.5 -41.5q-57 0 -98 41.5t-41 101.5zM756 1343q0 59 40.5 100.5t98.5 41.5t98.5 -41.5t40.5 -100.5q0 -60 -40.5 -101.5t-98.5 -41.5t-98.5 41.5t-40.5 101.5z" />
<glyph unicode="&#xa9;" horiz-adv-x="1687" d="M82 735q0 154 59.5 293.5t160.5 240.5t240.5 160.5t293.5 59.5t294 -59.5t241 -160.5t160.5 -240.5t59.5 -293.5q0 -206 -100.5 -379t-273.5 -273.5t-379 -100.5q-154 0 -294 59.5t-241 160t-161 240t-60 293.5zM231 735q0 -125 47.5 -238.5t128 -195.5t192.5 -130 t237 -48q167 0 306.5 81.5t219.5 222t80 308.5q0 167 -79.5 307.5t-218.5 223t-306 82.5t-307 -82.5t-220 -223t-80 -307.5zM475 727q0 161 116.5 269t278.5 108q130 0 220 -49q6 -3 8.5 -10t-0.5 -13l-51 -104q-7 -14 -23 -6q-76 39 -158 39q-93 0 -159 -66.5t-66 -167.5 q0 -103 64.5 -168t162.5 -65q83 0 164 38q16 8 21 -6l51 -104q3 -6 0.5 -13t-8.5 -10q-100 -49 -228 -49q-174 0 -283.5 102.5t-109.5 274.5z" />
<glyph unicode="&#xaa;" horiz-adv-x="614" d="M96 1071q0 136 90 229q54 55 129.5 85t151.5 30q77 0 149 -16q19 -6 17 -21l-72 -518q-3 -16 -18 -16h-97q-11 0 -15 3t-3 13l4 27q-44 -51 -137 -51q-90 0 -145 69q-54 61 -54 166zM203 575q0 37 27 65t65 28t65 -28t27 -65q0 -39 -26.5 -65.5t-65.5 -26.5t-65.5 26.5 t-26.5 65.5zM264 1065q0 -42 19 -64q23 -26 55 -26q83 0 102 125l23 170q-17 3 -37 -2q-76 -9 -123 -76q-39 -55 -39 -127z" />
<glyph unicode="&#xab;" horiz-adv-x="1368" d="M61 473q5 21 31 47l400 393q22 20 34.5 26.5t34.5 6.5h203q29 0 32.5 -18t-18.5 -43l-405 -412l291 -412q14 -26 5 -43.5t-38 -17.5h-203q-23 0 -35.5 6.5t-25.5 26.5l-289 393q-19 30 -17 47zM631 473q5 21 31 47l399 393q22 20 34.5 26.5t34.5 6.5h203q29 0 33 -18 t-18 -43l-406 -412l291 -412q15 -26 5.5 -43.5t-38.5 -17.5h-203q-23 0 -34.5 6.5t-26.5 26.5l-287 393q-20 27 -18 47z" />
<glyph unicode="&#xac;" horiz-adv-x="1202" d="M72 618v205q0 13 9 23t21 10h998q12 0 21 -10t9 -23v-456q0 -12 -9 -21.5t-21 -9.5h-197q-12 0 -21.5 9.5t-9.5 21.5v221h-770q-12 0 -21 9t-9 21z" />
<glyph unicode="&#xad;" horiz-adv-x="1042" d="M199 477v193q0 13 9 22.5t21 9.5h625q12 0 21.5 -9.5t9.5 -22.5v-193q0 -12 -9.5 -21.5t-21.5 -9.5h-625q-12 0 -21 9.5t-9 21.5z" />
<glyph unicode="&#xae;" horiz-adv-x="931" d="M88 1094q0 157 110 266.5t267 109.5t268 -110t111 -266t-110.5 -265.5t-268.5 -109.5q-157 0 -267 110t-110 265zM166 1094q0 -126 86.5 -213.5t212.5 -87.5q127 0 214 87.5t87 213.5q0 127 -87 215t-214 88t-213 -88t-86 -215zM313 934v323q0 9 8 17t17 8h147 q61 0 99.5 -31.5t38.5 -89.5q0 -79 -74 -104l76 -113q10 -19 4 -27t-21 -8h-35q-21 0 -36 23l-74 108h-68v-106q0 -11 -7 -18t-17 -7h-33q-10 0 -17.5 7.5t-7.5 17.5zM395 1110h80q66 0 66 51t-66 51h-80v-102z" />
<glyph unicode="&#xaf;" horiz-adv-x="954" d="M391 1247l21 158q3 13 13.5 22t23.5 9h493q13 0 21.5 -9.5t5.5 -21.5l-23 -158q0 -13 -11 -23t-24 -10h-495q-12 0 -19.5 9.5t-5.5 23.5z" />
<glyph unicode="&#xb0;" horiz-adv-x="675" d="M129 1214q0 116 80.5 196.5t196.5 80.5q115 0 195.5 -80.5t80.5 -196.5t-80 -196t-196 -80t-196.5 80.5t-80.5 195.5zM279 1214q0 -56 36.5 -93.5t90.5 -37.5t91.5 38t37.5 93q0 54 -37.5 90.5t-91.5 36.5t-90.5 -36.5t-36.5 -90.5z" />
<glyph unicode="&#xb1;" horiz-adv-x="1181" d="M88 31v192q0 12 9.5 21.5t21.5 9.5h942q13 0 23 -9.5t10 -21.5v-192q0 -12 -10 -21.5t-23 -9.5h-942q-12 0 -21.5 9.5t-9.5 21.5zM88 764v192q0 12 9.5 21.5t21.5 9.5h344v344q0 12 9 21.5t22 9.5h192q12 0 21.5 -9.5t9.5 -21.5v-344h344q13 0 23 -9.5t10 -21.5v-192 q0 -13 -9.5 -22t-23.5 -9h-344v-346q0 -12 -9.5 -21.5t-21.5 -9.5h-192q-13 0 -22 9.5t-9 21.5v346h-344q-12 0 -21.5 9t-9.5 22z" />
<glyph unicode="&#xb2;" horiz-adv-x="854" d="M193 698l8 54q17 132 94 206q26 26 64 51.5t62 38.5t75 39q31 16 48 26t35 24.5t25.5 31t7.5 37.5q0 38 -22 60q-24 24 -72 24q-82 0 -168 -53q-21 -14 -26 2l-31 90q-4 15 10 23q111 67 244 67q95 0 158 -53q53 -50 53 -141q0 -115 -119 -197q-31 -21 -104.5 -61.5 t-106.5 -65.5q-42 -29 -51 -84h309q7 0 11.5 -5t2.5 -13l-12 -101q-4 -18 -20 -18h-461q-6 0 -10.5 5.5t-3.5 12.5z" />
<glyph unicode="&#xb3;" horiz-adv-x="854" d="M215 750l57 88q11 13 25 2q66 -47 133 -47q59 0 94 28q33 26 33 74q0 44 -29 70q-30 24 -94 24h-55q-6 0 -10.5 6t-3.5 13l12 88q4 18 20 18h45q73 0 109 31q33 26 33 69q0 33 -23 56q-20 20 -63 20q-63 0 -138 -47q-21 -9 -24 4l-31 86q-7 15 8 25q96 61 211 61 q97 0 148 -45q53 -47 53 -127q0 -59 -33 -110q-32 -46 -94 -76q58 -22 82 -68q25 -48 25 -102q0 -96 -76 -158q-78 -63 -199 -63q-129 0 -211 55q-10 10 -4 25z" />
<glyph unicode="&#xb4;" horiz-adv-x="954" d="M473 1190q0 13 10 33l164 311q15 31 45 31h185q12 0 20 -7t8 -18q0 -6 -8 -22l-211 -322q-20 -33 -47 -33h-139q-11 0 -19 7.5t-8 19.5z" />
<glyph unicode="&#xb5;" horiz-adv-x="1122" d="M20 -326l175 1235q2 12 11 20.5t21 8.5h215q26 0 23 -29l-68 -475q-8 -66 -8 -94q0 -62 29 -98q37 -43 108 -43q95 0 148 59q43 49 53 137l74 514q2 12 11 20.5t22 8.5h213q11 0 18 -8t6 -21l-76 -528q-27 -192 -145 -295q-122 -104 -340 -104q-53 0 -86 8q-49 14 -84 39 l-47 -357q-7 -30 -33 -30h-213q-13 0 -20.5 9t-6.5 23z" />
<glyph unicode="&#xb6;" horiz-adv-x="1499" d="M70 1053q0 198 122.5 305.5t348.5 107.5h870q12 0 21.5 -9t9.5 -21v-164q0 -12 -9.5 -21.5t-21.5 -9.5h-231v-1620q0 -12 -9.5 -21.5t-21.5 -9.5h-178q-13 0 -23 9.5t-10 21.5v1620h-225v-1620q0 -12 -9.5 -21.5t-21.5 -9.5h-178q-13 0 -22 9.5t-9 21.5v1016 q-189 10 -296 121.5t-107 294.5z" />
<glyph unicode="&#xb7;" horiz-adv-x="602" d="M193 711q0 67 46.5 114t114.5 47t115 -47t47 -114t-47 -114.5t-115 -47.5q-67 0 -114 47t-47 115z" />
<glyph unicode="&#xb8;" horiz-adv-x="954" d="M303 -408l10 82q7 25 29 25q7 0 33.5 -3t44.5 -3q137 0 147 82q4 33 -22.5 49t-79.5 16q-31 0 -51 -2l45 201h137l-14 -98q87 -9 129.5 -57t33.5 -117q-7 -47 -30.5 -84t-56 -60t-75.5 -37.5t-84 -20t-85 -5.5q-54 0 -90 8q-24 4 -21 24z" />
<glyph unicode="&#xb9;" horiz-adv-x="854" d="M207 698l14 101q4 18 21 18h151l62 436l-150 -49q-13 -4 -18.5 -0.5t-3.5 17.5l14 100q4 18 20 25l191 61q16 8 37 8h73q7 0 12 -5t3 -11l-82 -582h141q17 0 17 -18l-15 -101q-4 -18 -20 -18h-453q-14 0 -14 18z" />
<glyph unicode="&#xba;" horiz-adv-x="622" d="M90 1083q0 129 70 222q86 110 223 110q101 0 172 -65q74 -71 74 -183q0 -135 -72 -225q-79 -106 -223 -106q-98 0 -168 61q-76 70 -76 186zM182 575q0 37 27.5 65t64.5 28q39 0 66 -28t27 -65q0 -40 -26.5 -66t-66.5 -26q-37 0 -64.5 26.5t-27.5 65.5zM252 1094 q0 -51 22 -88t70 -37q57 0 92 57q33 50 33 135q0 62 -27 92q-23 29 -63 29q-57 0 -92 -61q-35 -56 -35 -127z" />
<glyph unicode="&#xbb;" horiz-adv-x="1349" d="M12 17.5q-4 17.5 19 43.5l405 412l-289 412q-17 25 -7.5 43t38.5 18h201q23 0 36 -7t27 -26l289 -393q19 -34 17 -47q-3 -16 -31 -47l-400 -393q-18 -20 -32.5 -26.5t-38.5 -6.5h-201q-29 0 -33 17.5zM581 17.5q-4 17.5 19 43.5l406 412l-289 412q-17 25 -7.5 43t40.5 18 h198q23 0 36.5 -7t27.5 -26l288 -393q19 -34 17 -47q-2 -18 -31 -47l-399 -393q-18 -20 -33 -26.5t-39 -6.5h-199q-31 0 -35 17.5z" />
<glyph unicode="&#xbc;" horiz-adv-x="854" d="M53 -274l13 90q3 17 14 28l375 441q16 16 32 16h105q16 0 16 -18l-63 -445h90q16 0 16 -16l-14 -96q-2 -7 -8 -13t-13 -6h-90l-18 -123q0 -16 -19 -16h-116q-18 0 -15 16l17 123h-307q-7 0 -12 6.5t-3 12.5zM109 449l10 71q1 13 12 22t23 9h628q12 0 20 -9t7 -22l-10 -71 q-3 -14 -13.5 -23.5t-23.5 -9.5h-627q-14 0 -21.5 10t-4.5 23zM233 -162h160l31 225zM242 698l14 101q4 18 20 18h154l59 436l-151 -49q-24 -9 -21 17l15 100q4 18 20 25l191 61q16 8 37 8h73q7 0 12 -5t3 -11l-80 -582h141q6 0 10.5 -5.5t3.5 -12.5l-14 -101q0 -7 -6 -12.5 t-12 -5.5h-455q-6 0 -10.5 5.5t-3.5 12.5z" />
<glyph unicode="&#xbd;" horiz-adv-x="854" d="M74 -414l8 56q21 136 94 206q27 26 65 51t62 37.5t76 38.5q60 31 87.5 56t27.5 63q0 39 -21 60q-24 24 -72 24q-84 0 -170 -53q-20 -12 -26 2l-29 92q-6 12 8 21q111 67 242 67q103 0 162 -53q53 -53 53 -139q0 -116 -119 -197q-31 -21 -106.5 -61.5t-108.5 -65.5 q-41 -33 -47 -86h309q6 0 11 -5t4 -11l-15 -103q-3 -16 -18 -16h-461q-16 0 -16 16zM109 449l10 71q1 13 12 22t23 9h628q12 0 20 -9t7 -22l-10 -71q-3 -14 -13.5 -23.5t-23.5 -9.5h-627q-14 0 -21.5 10t-4.5 23zM242 698l14 101q4 18 20 18h154l59 436l-151 -49 q-24 -9 -21 17l15 100q4 18 20 25l191 61q16 8 37 8h73q7 0 12 -5t3 -11l-80 -582h141q6 0 10.5 -5.5t3.5 -12.5l-14 -101q0 -7 -6 -12.5t-12 -5.5h-455q-6 0 -10.5 5.5t-3.5 12.5z" />
<glyph unicode="&#xbe;" horiz-adv-x="854" d="M53 -274l13 90q3 17 14 28l375 441q16 16 32 16h105q16 0 16 -18l-63 -445h90q16 0 16 -16l-14 -96q-2 -7 -8 -13t-13 -6h-90l-18 -123q0 -16 -19 -16h-116q-18 0 -15 16l17 123h-307q-7 0 -12 6.5t-3 12.5zM109 449l10 71q1 13 12 22t23 9h628q12 0 20 -9t7 -22l-10 -71 q-3 -14 -13.5 -23.5t-23.5 -9.5h-627q-14 0 -21.5 10t-4.5 23zM233 -162h160l31 225zM246 750l55 88q12 15 25 2q68 -47 135 -47q57 0 92 28q35 24 35 74q0 45 -31 70q-30 24 -92 24h-55q-7 0 -12 5.5t-5 13.5l13 88q4 18 20 18h47q71 0 107 31q32 26 32 69q0 34 -22 56 q-20 20 -62 20q-61 0 -139 -47q-19 -9 -24 4l-31 86q-7 15 8 25q99 61 211 61q96 0 147 -45q54 -45 54 -127q0 -59 -33 -110q-33 -47 -92 -76q56 -21 80 -68q24 -41 24 -102q0 -97 -74 -158q-78 -63 -198 -63q-129 0 -211 55q-13 10 -4 25z" />
<glyph unicode="&#xbf;" horiz-adv-x="933" d="M66 -125q0 122 67 217q38 52 97 95t120.5 84t98.5 83q44 50 63 133q3 16 15 24.5t26 8.5h143q27 0 39 -26q15 -54 6 -111q-11 -88 -112 -182q-26 -25 -53.5 -47t-68 -50.5t-52.5 -37.5q-57 -39 -86 -77t-29 -87q0 -63 43 -103q46 -37 123 -37q84 0 151 24.5t150 76.5 q11 7 22.5 3t14.5 -16l55 -149q11 -29 -16 -47q-187 -131 -424 -131q-174 0 -287 96q-106 95 -106 256zM483 793q0 67 48 115t116 48q66 0 114 -48t48 -115q0 -66 -48 -114t-114 -48q-67 0 -115.5 48t-48.5 114z" />
<glyph unicode="&#xc0;" horiz-adv-x="1296" d="M-33 9.5q-5 9.5 0 21.5l617 1339q12 31 32 31h310q12 0 20 -9t10 -22l283 -1341q1 -12 -7 -20.5t-22 -8.5h-249q-21 0 -25 29l-49 254h-492l-110 -254q-12 -29 -33 -29h-268q-12 0 -17 9.5zM487 518h361l-113 574zM582 1950q0 10 8 17t20 7h185q28 0 43 -30l125 -308 q10 -30 10 -37q0 -12 -8.5 -19t-20.5 -7h-139q-27 0 -47 33l-170 321q-6 12 -6 23z" />
<glyph unicode="&#xc1;" horiz-adv-x="1296" d="M-33 9.5q-5 9.5 0 21.5l617 1339q12 31 32 31h310q12 0 20 -9t10 -22l283 -1341q1 -12 -7 -20.5t-22 -8.5h-249q-21 0 -25 29l-49 254h-492l-110 -254q-12 -29 -33 -29h-268q-12 0 -17 9.5zM487 518h361l-113 574zM543 1599q0 13 10 33l164 312q15 30 45 30h184 q12 0 20.5 -7t8.5 -17q0 -7 -8 -23l-211 -321q-20 -33 -47 -33h-140q-11 0 -18.5 7t-7.5 19z" />
<glyph unicode="&#xc2;" horiz-adv-x="1296" d="M-33 9.5q-5 9.5 0 21.5l617 1339q12 31 32 31h310q12 0 20 -9t10 -22l283 -1341q1 -12 -7 -20.5t-22 -8.5h-249q-21 0 -25 29l-49 254h-492l-110 -254q-12 -29 -33 -29h-268q-12 0 -17 9.5zM360.5 1595q-2.5 14 14.5 31l342 334q22 22 45 22h94q16 0 23 -5t16 -17 l248 -334q12 -17 5.5 -31t-26.5 -14h-157q-22 0 -31.5 6t-20.5 25l-120 162l-168 -162q-16 -19 -27 -25t-33 -6h-182q-20 0 -22.5 14zM487 518h361l-113 574z" />
<glyph unicode="&#xc3;" horiz-adv-x="1296" d="M-33 9.5q-5 9.5 0 21.5l617 1339q12 31 32 31h310q12 0 20 -9t10 -22l283 -1341q1 -12 -7 -20.5t-22 -8.5h-249q-21 0 -25 29l-49 254h-492l-110 -254q-12 -29 -33 -29h-268q-12 0 -17 9.5zM410 1669q16 117 78.5 187.5t164.5 70.5q84 0 162 -63q35 -28 59 -41t52 -13 q67 0 88 76q12 31 37 31h84q18 0 26 -10t6 -23q-18 -119 -80 -189.5t-163 -70.5q-84 0 -160 62q-66 55 -113 55q-66 0 -88 -74q-11 -33 -37 -33h-86q-18 0 -25.5 10.5t-4.5 24.5zM487 518h361l-113 574z" />
<glyph unicode="&#xc4;" horiz-adv-x="1296" d="M-33 9.5q-5 9.5 0 21.5l617 1339q12 31 32 31h310q12 0 20 -9t10 -22l283 -1341q1 -12 -7 -20.5t-22 -8.5h-249q-21 0 -25 29l-49 254h-492l-110 -254q-12 -29 -33 -29h-268q-12 0 -17 9.5zM446 1753q0 58 41.5 99.5t98.5 41.5q60 0 101.5 -41t41.5 -100 q0 -60 -41.5 -101.5t-101.5 -41.5q-57 0 -98.5 41.5t-41.5 101.5zM487 518h361l-113 574zM870 1753q0 59 41 100t99 41t98.5 -41t40.5 -100q0 -60 -40.5 -101.5t-98.5 -41.5q-59 0 -99.5 41.5t-40.5 101.5z" />
<glyph unicode="&#xc5;" horiz-adv-x="1296" d="M-33 9.5q-5 9.5 0 21.5l617 1339q12 31 32 31h310q12 0 20 -9t10 -22l283 -1341q1 -12 -7 -20.5t-22 -8.5h-249q-21 0 -25 29l-49 254h-492l-110 -254q-12 -29 -33 -29h-268q-12 0 -17 9.5zM487 518h361l-113 574zM539 1755q0 105 72.5 177.5t176.5 72.5q102 0 175 -72.5 t73 -177.5q0 -101 -73.5 -173.5t-174.5 -72.5q-104 0 -176.5 72t-72.5 174zM657 1755q0 -53 38 -91t93 -38q53 0 91.5 37.5t38.5 91.5q0 56 -38.5 94.5t-91.5 38.5q-56 0 -93.5 -38t-37.5 -95z" />
<glyph unicode="&#xc6;" horiz-adv-x="2146" d="M-51 15.5q-4 15.5 14 37.5l1184 1309q33 33 70 33h907q13 0 21.5 -9.5t6.5 -21.5l-28 -201q-2 -12 -13 -21t-24 -9h-623l-41 -302h514q14 0 22 -9t5 -21l-29 -199q0 -13 -10 -23t-24 -10h-515l-43 -309h623q13 0 21 -8.5t6 -22.5l-29 -198q-2 -12 -12 -21.5t-23 -9.5 h-880q-39 0 -33 35l35 248h-492l-215 -248q-35 -35 -70 -35h-299q-22 0 -26 15.5zM760 518h325l62 443z" />
<glyph unicode="&#xc7;" horiz-adv-x="1275" d="M125 647q0 157 61 298t167.5 244t258.5 163.5t326 60.5q222 0 367 -74q27 -15 8 -41l-107 -192q-15 -24 -41 -12q-123 53 -254 53q-138 0 -248.5 -67.5t-169.5 -177.5t-59 -238q1 -194 111 -305t286 -111q148 0 267 55q27 11 37 -10l75 -197q9 -24 -18 -39 q-147 -66 -320 -75l-6 -41q87 -9 130 -57t34 -117q-8 -59 -41.5 -101.5t-83 -64t-100.5 -31.5t-107 -10q-54 0 -90 8q-23 4 -20 24l10 82q7 25 29 25q7 0 33.5 -3t44.5 -3q137 0 147 82q4 33 -22.5 49t-79.5 16q-32 0 -52 -2l33 146q-101 8 -190 36.5t-166 82.5t-132 129 t-86.5 181t-31.5 234z" />
<glyph unicode="&#xc8;" horiz-adv-x="1230" d="M90 29l186 1335q1 12 12 21.5t23 9.5h891q25 0 25 -31l-31 -203q-1 -12 -10.5 -20t-20.5 -8h-626l-41 -302h508q11 0 17 -8t5 -20l-33 -203q-2 -13 -10 -22t-20 -9h-504l-45 -309h698q11 0 18.5 -8t4.5 -19l-29 -204q-2 -12 -10.5 -20.5t-20.5 -8.5h-962q-12 0 -19.5 8.5 t-5.5 20.5zM561 1950q0 10 8.5 17t20.5 7h184q28 0 43 -30l125 -308q10 -30 10 -37q0 -12 -8 -19t-20 -7h-140q-27 0 -47 33l-170 321q-6 12 -6 23z" />
<glyph unicode="&#xc9;" horiz-adv-x="1230" d="M90 29l186 1335q1 12 12 21.5t23 9.5h891q25 0 25 -31l-31 -203q-1 -12 -10.5 -20t-20.5 -8h-626l-41 -302h508q11 0 17 -8t5 -20l-33 -203q-2 -13 -10 -22t-20 -9h-504l-45 -309h698q11 0 18.5 -8t4.5 -19l-29 -204q-2 -12 -10.5 -20.5t-20.5 -8.5h-962q-12 0 -19.5 8.5 t-5.5 20.5zM594 1608q0 12 10 32l164 312q15 30 45 30h184q12 0 20.5 -7t8.5 -17q0 -7 -8 -23l-211 -321q-20 -33 -47 -33h-139q-11 0 -19 7.5t-8 19.5z" />
<glyph unicode="&#xca;" horiz-adv-x="1230" d="M90 29l186 1335q1 12 12 21.5t23 9.5h891q25 0 25 -31l-31 -203q-1 -12 -10.5 -20t-20.5 -8h-626l-41 -302h508q11 0 17 -8t5 -20l-33 -203q-2 -13 -10 -22t-20 -9h-504l-45 -309h698q11 0 18.5 -8t4.5 -19l-29 -204q-2 -12 -10.5 -20.5t-20.5 -8.5h-962q-12 0 -19.5 8.5 t-5.5 20.5zM366.5 1595q-2.5 14 14.5 31l342 334q22 22 45 22h94q16 0 23 -5t16 -17l248 -334q12 -17 5.5 -31t-26.5 -14h-157q-22 0 -30.5 6t-20.5 25l-121 162l-168 -162q-16 -19 -27 -25t-33 -6h-182q-20 0 -22.5 14z" />
<glyph unicode="&#xcb;" horiz-adv-x="1230" d="M90 29l186 1335q1 12 12 21.5t23 9.5h891q25 0 25 -31l-31 -203q-1 -12 -10.5 -20t-20.5 -8h-626l-41 -302h508q11 0 17 -8t5 -20l-33 -203q-2 -13 -10 -22t-20 -9h-504l-45 -309h698q11 0 18.5 -8t4.5 -19l-29 -204q-2 -12 -10.5 -20.5t-20.5 -8.5h-962q-12 0 -19.5 8.5 t-5.5 20.5zM412 1753q0 58 41 99.5t98 41.5q60 0 101.5 -41t41.5 -100q0 -60 -41.5 -101.5t-101.5 -41.5q-57 0 -98 41.5t-41 101.5zM836 1753q0 59 40.5 100t98.5 41t98.5 -41t40.5 -100q0 -60 -40.5 -101.5t-98.5 -41.5t-98.5 41.5t-40.5 101.5z" />
<glyph unicode="&#xcc;" horiz-adv-x="577" d="M90 29l186 1335q1 13 11 22t22 9h240q11 0 17 -9t5 -22l-186 -1335q-3 -12 -12.5 -20.5t-20.5 -8.5h-237q-12 0 -19 8t-6 21zM272 1950q0 10 8.5 17t20.5 7h184q28 0 43 -30l125 -308q11 -33 11 -37q0 -12 -8.5 -19t-20.5 -7h-139q-27 0 -47 33l-170 321q-7 14 -7 23z " />
<glyph unicode="&#xcd;" horiz-adv-x="577" d="M90 29l186 1335q1 13 11 22t22 9h240q11 0 17 -9t5 -22l-186 -1335q-3 -12 -12.5 -20.5t-20.5 -8.5h-237q-12 0 -19 8t-6 21zM242 1599q0 13 10 33l164 312q15 30 45 30h184q12 0 20.5 -7t8.5 -17q0 -7 -8 -23l-211 -321q-20 -33 -47 -33h-140q-11 0 -18.5 7t-7.5 19z " />
<glyph unicode="&#xce;" horiz-adv-x="577" d="M51.5 1595q-2.5 14 14.5 31l342 334q22 22 45 22h94q16 0 23 -5t16 -17l248 -334q12 -17 5.5 -31t-26.5 -14h-158q-22 0 -30.5 6t-20.5 25l-121 162l-168 -162q-16 -19 -26.5 -25t-32.5 -6h-182q-20 0 -22.5 14zM94 29l187 1335q1 13 10.5 22t21.5 9h240q11 0 17 -9 t5 -22l-186 -1335q-3 -12 -12.5 -20.5t-20.5 -8.5h-237q-12 0 -19 8t-6 21z" />
<glyph unicode="&#xcf;" horiz-adv-x="577" d="M90 29l186 1335q1 13 11 22t22 9h240q11 0 17 -9t5 -22l-186 -1335q-3 -12 -12.5 -20.5t-20.5 -8.5h-237q-12 0 -19 8t-6 21zM117 1753q0 58 41 99.5t98 41.5q60 0 101.5 -41t41.5 -100q0 -60 -41.5 -101.5t-101.5 -41.5q-57 0 -98 41.5t-41 101.5zM541 1753 q0 59 40.5 100t98.5 41t98.5 -41t40.5 -100q0 -60 -40.5 -101.5t-98.5 -41.5t-98.5 41.5t-40.5 101.5z" />
<glyph unicode="&#xd0;" horiz-adv-x="1429" d="M-49 602l26 193q3 12 13.5 21t23.5 9h156l76 539q2 12 11.5 21.5t21.5 9.5h358q186 0 328.5 -48t248.5 -159q172 -181 172 -483q0 -336 -233 -527q-225 -178 -614 -178h-455q-13 0 -20 8.5t-5 20.5l76 542h-158q-13 0 -20.5 8.5t-5.5 22.5zM383 248h215q222 0 350 106 q146 120 146 342q0 202 -111 322q-116 129 -346 129h-127l-45 -322h252q12 0 20 -9t6 -21l-26 -193q-1 -13 -12.5 -22t-24.5 -9h-252z" />
<glyph unicode="&#xd1;" horiz-adv-x="1443" d="M90 31l186 1333q3 31 35 31h201q22 0 32.5 -7t18.5 -26l475 -873l123 875q2 12 12 21.5t23 9.5h217q12 0 19.5 -9.5t5.5 -21.5l-187 -1333q-1 -13 -11.5 -22t-22.5 -9h-201q-20 0 -31.5 6t-19.5 25l-476 872l-122 -872q-3 -31 -35 -31h-217q-31 0 -25 31zM522 1686 q16 117 79 187.5t165 70.5q83 0 162 -64q35 -28 58.5 -40.5t51.5 -12.5q67 0 88 76q12 30 37 30h84q18 0 26.5 -9.5t6.5 -22.5q-18 -119 -80.5 -190t-163.5 -71q-83 0 -159 62q-66 55 -113 55q-66 0 -88 -74q-11 -32 -37 -32h-86q-18 0 -26 10.5t-5 24.5z" />
<glyph unicode="&#xd2;" horiz-adv-x="1484" d="M115 575q-7 168 37 315.5t131 258.5q96 126 232.5 196t291.5 70q266 0 438 -166q171 -165 180 -434q15 -320 -147 -553q-92 -132 -233 -206t-312 -74q-125 0 -237.5 40.5t-196.5 120.5q-173 166 -184 432zM408 596q9 -161 94 -250q90 -94 231 -94q100 0 186 52t142 149 q83 147 72 350q-6 145 -84 233q-88 105 -238 105q-86 0 -171.5 -50t-145.5 -141q-97 -153 -86 -354zM745 1950q0 10 8.5 17t20.5 7h184q28 0 43 -30l125 -308q11 -33 11 -37q0 -12 -8.5 -19t-20.5 -7h-139q-27 0 -47 33l-170 321q-7 14 -7 23z" />
<glyph unicode="&#xd3;" horiz-adv-x="1484" d="M115 575q-7 168 37 315.5t131 258.5q96 126 232.5 196t291.5 70q266 0 438 -166q171 -165 180 -434q15 -320 -147 -553q-92 -132 -233 -206t-312 -74q-125 0 -237.5 40.5t-196.5 120.5q-173 166 -184 432zM408 596q9 -161 94 -250q90 -94 231 -94q100 0 186 52t142 149 q83 147 72 350q-6 145 -84 233q-88 105 -238 105q-86 0 -171.5 -50t-145.5 -141q-97 -153 -86 -354zM682 1599q0 13 10 33l164 312q15 30 45 30h184q12 0 20.5 -7t8.5 -17q0 -7 -8 -23l-211 -321q-20 -33 -47 -33h-139q-11 0 -19 7t-8 19z" />
<glyph unicode="&#xd4;" horiz-adv-x="1484" d="M115 575q-7 168 37 315.5t131 258.5q96 126 232.5 196t291.5 70q266 0 438 -166q171 -165 180 -434q15 -320 -147 -553q-92 -132 -233 -206t-312 -74q-125 0 -237.5 40.5t-196.5 120.5q-173 166 -184 432zM408 596q9 -161 94 -250q90 -94 231 -94q100 0 186 52t142 149 q83 147 72 350q-6 145 -84 233q-88 105 -238 105q-86 0 -171.5 -50t-145.5 -141q-97 -153 -86 -354zM483.5 1595q-2.5 14 14.5 31l342 334q22 22 45 22h94q16 0 23 -5t16 -17l248 -334q12 -17 5.5 -31t-26.5 -14h-158q-22 0 -30.5 6t-20.5 25l-121 162l-167 -162 q-16 -19 -27 -25t-33 -6h-182q-20 0 -22.5 14z" />
<glyph unicode="&#xd5;" horiz-adv-x="1484" d="M115 575q-7 168 37 315.5t131 258.5q96 126 232.5 196t291.5 70q266 0 438 -166q171 -165 180 -434q15 -320 -147 -553q-92 -132 -233 -206t-312 -74q-125 0 -237.5 40.5t-196.5 120.5q-173 166 -184 432zM408 596q9 -161 94 -250q90 -94 231 -94q100 0 186 52t142 149 q83 147 72 350q-6 145 -84 233q-88 105 -238 105q-86 0 -171.5 -50t-145.5 -141q-97 -153 -86 -354zM508 1669q16 117 79 187.5t165 70.5q83 0 161 -63q35 -28 59 -41t52 -13q67 0 88 76q12 31 37 31h84q18 0 26.5 -10t6.5 -23q-18 -119 -80.5 -189.5t-163.5 -70.5 q-84 0 -160 62q-33 28 -58 41.5t-54 13.5q-66 0 -88 -74q-11 -33 -37 -33h-86q-18 0 -26 10.5t-5 24.5z" />
<glyph unicode="&#xd6;" horiz-adv-x="1484" d="M115 575q-7 168 37 315.5t131 258.5q96 126 232.5 196t291.5 70q266 0 438 -166q171 -165 180 -434q15 -320 -147 -553q-92 -132 -233 -206t-312 -74q-125 0 -237.5 40.5t-196.5 120.5q-173 166 -184 432zM408 596q9 -161 94 -250q90 -94 231 -94q100 0 186 52t142 149 q83 147 72 350q-6 145 -84 233q-88 105 -238 105q-86 0 -171.5 -50t-145.5 -141q-97 -153 -86 -354zM539 1753q0 58 41 99.5t98 41.5q60 0 101.5 -41t41.5 -100q0 -60 -41.5 -101.5t-101.5 -41.5q-57 0 -98 41.5t-41 101.5zM963 1753q0 59 40.5 100t98.5 41t98.5 -41 t40.5 -100q0 -60 -40.5 -101.5t-98.5 -41.5t-98.5 41.5t-40.5 101.5z" />
<glyph unicode="&#xd7;" horiz-adv-x="1062" d="M42 399.5q0 13.5 9 22.5l299 301l-299 299q-9 9 -9 21.5t9 21.5l135 137q9 9 21.5 9t21.5 -9l301 -301l301 303q9 8 23 8t23 -8l135 -137q9 -9 9 -21.5t-9 -21.5l-301 -301l301 -301q9 -9 9 -22.5t-9 -22.5l-135 -137q-9 -9 -23 -9t-23 9l-301 301l-301 -299 q-9 -9 -21.5 -9t-21.5 9l-135 137q-9 7 -9 20.5z" />
<glyph unicode="&#xd8;" horiz-adv-x="1484" d="M67.5 14q-4.5 14 10.5 31l153 174q-107 145 -116 356q-7 168 37 315.5t131 258.5q96 126 232.5 196t291.5 70q224 0 385 -121l63 72q1 1 5.5 6t6.5 6.5t6 5.5t7 5.5l7 3.5t8 3t8 1h149q20 0 24 -16.5t-10 -30.5l-155 -176q105 -144 114 -359q15 -320 -147 -553 q-92 -132 -233 -206t-312 -74q-222 0 -383 118l-61 -69q-11 -12 -15.5 -17t-13.5 -9.5t-18 -4.5h-150q-20 0 -24.5 14zM408 596q3 -83 28 -147l565 630q-80 62 -190 62q-86 0 -171.5 -50t-145.5 -141q-97 -153 -86 -354zM541 311q82 -59 192 -59q100 0 186 52t142 149 q83 147 72 350q-3 74 -29 141z" />
<glyph unicode="&#xd9;" horiz-adv-x="1454" d="M154 451q0 57 14 139l108 774q1 12 11.5 21.5t21.5 9.5h238q11 0 18 -9.5t6 -21.5l-104 -743q-12 -82 -12 -123q0 -123 61 -187q62 -65 186 -65q161 0 246 102q72 87 90 234l113 782q2 12 11.5 21.5t21.5 9.5h237q12 0 19.5 -9.5t5.5 -21.5l-115 -813q-30 -222 -162 -373 q-179 -198 -499 -198q-251 0 -385 131q-131 125 -131 340zM659 1950q0 10 8.5 17t20.5 7h184q28 0 43 -30l125 -308q11 -33 11 -37q0 -12 -8.5 -19t-20.5 -7h-139q-27 0 -47 33l-170 321q-7 14 -7 23z" />
<glyph unicode="&#xda;" horiz-adv-x="1454" d="M154 451q0 57 14 139l108 774q1 12 11.5 21.5t21.5 9.5h238q11 0 18 -9.5t6 -21.5l-104 -743q-12 -82 -12 -123q0 -123 61 -187q62 -65 186 -65q161 0 246 102q72 87 90 234l113 782q2 12 11.5 21.5t21.5 9.5h237q12 0 19.5 -9.5t5.5 -21.5l-115 -813q-30 -222 -162 -373 q-179 -198 -499 -198q-251 0 -385 131q-131 125 -131 340zM686 1599q0 13 10 33l164 312q15 30 45 30h185q12 0 20 -7t8 -17q0 -7 -8 -23l-211 -321q-20 -33 -47 -33h-139q-11 0 -19 7t-8 19z" />
<glyph unicode="&#xdb;" horiz-adv-x="1454" d="M154 451q0 57 14 139l108 774q1 12 11.5 21.5t21.5 9.5h238q11 0 18 -9.5t6 -21.5l-104 -743q-12 -82 -12 -123q0 -123 61 -187q62 -65 186 -65q161 0 246 102q72 87 90 234l113 782q2 12 11.5 21.5t21.5 9.5h237q12 0 19.5 -9.5t5.5 -21.5l-115 -813q-30 -222 -162 -373 q-179 -198 -499 -198q-251 0 -385 131q-131 125 -131 340zM481.5 1595q-2.5 14 14.5 31l342 334q22 22 45 22h94q16 0 23 -5t16 -17l248 -334q12 -17 5.5 -31t-26.5 -14h-158q-22 0 -30.5 6t-20.5 25l-121 162l-168 -162q-16 -19 -26.5 -25t-32.5 -6h-182q-20 0 -22.5 14z " />
<glyph unicode="&#xdc;" horiz-adv-x="1454" d="M154 451q0 57 14 139l108 774q1 12 11.5 21.5t21.5 9.5h238q11 0 18 -9.5t6 -21.5l-104 -743q-12 -82 -12 -123q0 -123 61 -187q62 -65 186 -65q161 0 246 102q72 87 90 234l113 782q2 12 11.5 21.5t21.5 9.5h237q12 0 19.5 -9.5t5.5 -21.5l-115 -813q-30 -222 -162 -373 q-179 -198 -499 -198q-251 0 -385 131q-131 125 -131 340zM541 1753q0 58 41 99.5t98 41.5q60 0 101.5 -41t41.5 -100q0 -60 -41.5 -101.5t-101.5 -41.5q-57 0 -98 41.5t-41 101.5zM965 1753q0 59 40.5 100t98.5 41t98.5 -41t40.5 -100q0 -60 -40.5 -101.5t-98.5 -41.5 t-98.5 41.5t-40.5 101.5z" />
<glyph unicode="&#xdd;" horiz-adv-x="1271" d="M129.5 1379q6.5 16 30.5 16h252q34 0 49 -31l237 -506l363 506q21 31 55 31h268q24 0 27.5 -16t-12.5 -36l-586 -763l-78 -549q-1 -13 -12 -22t-23 -9h-233q-12 0 -20 9t-7 22l78 551l-383 761q-12 20 -5.5 36zM590 1616q0 13 10 33l164 311q16 31 45 31h184 q12 0 20.5 -7.5t8.5 -17.5q0 -6 -8 -22l-211 -322q-20 -33 -47 -33h-140q-11 0 -18.5 7.5t-7.5 19.5z" />
<glyph unicode="&#xde;" horiz-adv-x="1253" d="M63 -250l228 1614q2 13 11 22t22 9h235q12 0 20 -9.5t5 -21.5l-31 -231h80q265 0 403 -80q215 -119 215 -406q0 -233 -170 -366q-156 -123 -454 -123h-211l-58 -408q-1 -12 -11 -20.5t-21 -8.5h-240q-11 0 -17.5 8.5t-5.5 20.5zM453 416h223q138 0 209 63q71 71 71 176 q0 124 -79 176q-62 43 -183 43h-178z" />
<glyph unicode="&#xdf;" horiz-adv-x="1206" d="M74 -119l162 1141q21 170 137 276q126 117 321 117q180 0 291 -90q96 -79 96 -217q0 -129 -104 -207q-28 -23 -75.5 -50t-71 -46t-23.5 -41t23.5 -44t75 -56t79.5 -58q137 -108 137 -254q0 -157 -108 -254q-58 -57 -139.5 -87.5t-169.5 -30.5q-97 0 -161 20.5t-120 62.5 q-23 16 -8 39l96 154q19 31 41 12q66 -59 162 -59q59 0 106 31q45 33 45 84q0 25 -10 47.5t-31.5 43.5t-40.5 36t-52 38t-50 37q-64 45 -99.5 91.5t-35.5 111.5q0 37 21 68t46.5 49t66.5 43q7 4 11 6q39 26 60.5 44t41 50.5t19.5 69.5q0 63 -37 100q-35 35 -96 35 q-77 0 -123 -49q-39 -47 -55 -144l-158 -1120q-1 -13 -11 -22t-24 -9h-209q-12 0 -20 9.5t-6 21.5z" />
<glyph unicode="&#xe0;" horiz-adv-x="1069" d="M80 381q0 240 162 395q92 89 216.5 135.5t252.5 46.5q161 0 272 -24q27 -7 21 -39l-121 -864q-1 -14 -10 -22.5t-21 -8.5h-193q-14 0 -21.5 9t-4.5 22l2 18q-92 -63 -221 -63q-60 0 -123.5 26t-112.5 80q-98 105 -98 289zM354 389q0 -85 43 -135q41 -49 105 -49 q83 0 143 57l66 463q-51 3 -101 -8q-100 -19 -170 -92q-86 -92 -86 -236zM465 1540q0 10 8.5 17.5t20.5 7.5h184q28 0 43 -31l125 -307q10 -30 10 -37q0 -12 -8.5 -19.5t-20.5 -7.5h-139q-27 0 -47 33l-170 322q-6 12 -6 22z" />
<glyph unicode="&#xe1;" horiz-adv-x="1069" d="M80 381q0 240 162 395q92 89 216.5 135.5t252.5 46.5q161 0 272 -24q27 -7 21 -39l-121 -864q-1 -14 -10 -22.5t-21 -8.5h-193q-14 0 -21.5 9t-4.5 22l2 18q-92 -63 -221 -63q-60 0 -123.5 26t-112.5 80q-98 105 -98 289zM354 389q0 -85 43 -135q41 -49 105 -49 q83 0 143 57l66 463q-51 3 -101 -8q-100 -19 -170 -92q-86 -92 -86 -236zM446 1190q0 11 11 33l164 311q15 31 45 31h184q12 0 20.5 -7.5t8.5 -17.5q0 -4 -9 -22l-211 -322q-20 -33 -47 -33h-139q-11 0 -19 7.5t-8 19.5z" />
<glyph unicode="&#xe2;" horiz-adv-x="1069" d="M80 381q0 240 162 395q92 89 216.5 135.5t252.5 46.5q161 0 272 -24q27 -7 21 -39l-121 -864q-1 -14 -10 -22.5t-21 -8.5h-193q-14 0 -21.5 9t-4.5 22l2 18q-92 -63 -221 -63q-60 0 -123.5 26t-112.5 80q-98 105 -98 289zM272.5 1177q-2.5 14 14.5 31l342 334 q9 9 13 12.5t12.5 7t19.5 3.5h94q16 0 23 -5t16 -18l248 -334q12 -17 5.5 -31t-26.5 -14h-157q-22 0 -31.5 6t-20.5 25l-120 162l-168 -162q-16 -19 -27 -25t-33 -6h-182q-20 0 -22.5 14zM354 389q0 -85 43 -135q41 -49 105 -49q83 0 143 57l66 463q-51 3 -101 -8 q-100 -19 -170 -92q-86 -92 -86 -236z" />
<glyph unicode="&#xe3;" horiz-adv-x="1069" d="M80 381q0 240 162 395q92 89 216.5 135.5t252.5 46.5q161 0 272 -24q27 -7 21 -39l-121 -864q-1 -14 -10 -22.5t-21 -8.5h-193q-14 0 -21.5 9t-4.5 22l2 18q-92 -63 -221 -63q-60 0 -123.5 26t-112.5 80q-98 105 -98 289zM283 1260q16 117 78.5 187.5t164.5 70.5 q83 0 162 -64q35 -27 59 -40t52 -13q67 0 88 76q12 30 37 30h84q18 0 26 -9.5t6 -22.5q-18 -119 -80 -190t-163 -71q-84 0 -160 62q-66 55 -113 55q-66 0 -88 -74q-11 -32 -37 -32h-86q-18 0 -25.5 10.5t-4.5 24.5zM354 389q0 -85 43 -135q41 -49 105 -49q83 0 143 57 l66 463q-51 3 -101 -8q-100 -19 -170 -92q-86 -92 -86 -236z" />
<glyph unicode="&#xe4;" horiz-adv-x="1069" d="M80 381q0 240 162 395q92 89 216.5 135.5t252.5 46.5q161 0 272 -24q27 -7 21 -39l-121 -864q-1 -14 -10 -22.5t-21 -8.5h-193q-14 0 -21.5 9t-4.5 22l2 18q-92 -63 -221 -63q-60 0 -123.5 26t-112.5 80q-98 105 -98 289zM326 1343q0 58 41 100t98 42q60 0 101.5 -41.5 t41.5 -100.5q0 -60 -41.5 -101.5t-101.5 -41.5q-57 0 -98 41.5t-41 101.5zM354 389q0 -85 43 -135q41 -49 105 -49q83 0 143 57l66 463q-51 3 -101 -8q-100 -19 -170 -92q-86 -92 -86 -236zM750 1343q0 59 40.5 100.5t98.5 41.5t98.5 -41.5t40.5 -100.5q0 -60 -40.5 -101.5 t-98.5 -41.5t-98.5 41.5t-40.5 101.5z" />
<glyph unicode="&#xe5;" horiz-adv-x="1069" d="M80 381q0 240 162 395q92 89 216.5 135.5t252.5 46.5q161 0 272 -24q27 -7 21 -39l-121 -864q-1 -14 -10 -22.5t-21 -8.5h-193q-14 0 -21.5 9t-4.5 22l2 18q-92 -63 -221 -63q-60 0 -123.5 26t-112.5 80q-98 105 -98 289zM354 389q0 -85 43 -135q41 -49 105 -49 q83 0 143 57l66 463q-51 3 -101 -8q-100 -19 -170 -92q-86 -92 -86 -236zM412 1364q0 105 72.5 177.5t177.5 72.5q102 0 174.5 -72.5t72.5 -177.5q0 -101 -73 -173.5t-174 -72.5q-104 0 -177 72t-73 174zM530 1364q0 -53 38.5 -91t93.5 -38q53 0 91 37.5t38 91.5 q0 56 -38 94.5t-91 38.5q-56 0 -94 -38t-38 -95z" />
<glyph unicode="&#xe6;" horiz-adv-x="1544" d="M80 381q0 240 162 395q92 89 216.5 135.5t252.5 46.5q161 0 272 -24q18 -7 21 -21q102 45 213 45q140 0 223 -67q88 -69 88 -186q0 -97 -54 -169.5t-147 -117.5q-157 -79 -373 -86q12 -53 50 -88q53 -56 149 -56q98 0 182 50q11 7 22.5 4.5t14.5 -11.5l62 -139 q10 -23 -13 -35q-120 -75 -321 -75q-120 0 -217 47q-1 -13 -10.5 -21t-20.5 -8h-193q-14 0 -21.5 9t-4.5 22l2 18q-92 -63 -221 -63q-60 0 -123.5 26t-112.5 80q-98 105 -98 289zM354 389q0 -85 43 -135q41 -49 105 -49q81 0 143 59l66 461q-51 3 -101 -8q-100 -19 -170 -92 q-86 -92 -86 -236zM948 496q121 0 223 41q121 50 121 139q0 33 -18 51q-29 25 -72 25q-102 0 -176 -90q-60 -66 -78 -166z" />
<glyph unicode="&#xe7;" horiz-adv-x="897" d="M80 403q0 238 168 396q82 77 186.5 118t216.5 41q160 0 264 -51q23 -13 11 -37l-92 -151q-15 -22 -46 -10q-59 20 -141 20q-121 0 -205 -84q-86 -83 -86 -209q0 -103 52 -164q58 -67 170 -67q85 0 153 35q15 10 28 7.5t19 -16.5l62 -137q8 -24 -17 -41q-109 -60 -243 -69 l-7 -43q87 -9 130 -57t34 -117q-7 -47 -30.5 -84t-56 -60t-75.5 -37.5t-84 -20t-85 -5.5q-55 0 -91 8q-23 4 -20 24l10 82q7 25 29 25q7 0 33.5 -3t44.5 -3q137 0 147 82q4 33 -22.5 49t-79.5 16q-31 0 -51 -2l32 150q-146 18 -239 108q-119 119 -119 307z" />
<glyph unicode="&#xe8;" horiz-adv-x="950" d="M80 401q0 217 145 381q75 81 179.5 128.5t218.5 47.5q140 0 223 -67q88 -69 88 -186q0 -97 -54 -169.5t-147 -117.5q-148 -79 -375 -86q16 -54 52 -88q53 -56 149 -56q98 0 182 50q11 7 22.5 4.5t14.5 -11.5l62 -139q10 -23 -13 -35q-120 -75 -321 -75q-186 0 -297 100 q-129 119 -129 319zM354 496q122 0 224 41q120 50 120 139q0 33 -18 51q-29 25 -72 25q-102 0 -176 -90q-59 -65 -78 -166zM410 1540q0 11 8 18t20 7h185q27 0 43 -31l125 -307q10 -30 10 -37q0 -12 -8.5 -19.5t-20.5 -7.5h-139q-27 0 -47 33l-170 322q-6 12 -6 22z" />
<glyph unicode="&#xe9;" horiz-adv-x="950" d="M80 401q0 217 145 381q75 81 179.5 128.5t218.5 47.5q140 0 223 -67q88 -69 88 -186q0 -97 -54 -169.5t-147 -117.5q-148 -79 -375 -86q16 -54 52 -88q53 -56 149 -56q98 0 182 50q11 7 22.5 4.5t14.5 -11.5l62 -139q10 -23 -13 -35q-120 -75 -321 -75q-186 0 -297 100 q-129 119 -129 319zM354 496q122 0 224 41q120 50 120 139q0 33 -18 51q-29 25 -72 25q-102 0 -176 -90q-59 -65 -78 -166zM393 1190q0 13 10 33l164 311q15 31 45 31h185q12 0 20 -7t8 -18q0 -6 -8 -22l-211 -322q-20 -33 -47 -33h-139q-11 0 -19 7.5t-8 19.5z" />
<glyph unicode="&#xea;" horiz-adv-x="1017" d="M80 401q0 217 145 381q75 81 179.5 128.5t218.5 47.5q140 0 223 -67q88 -69 88 -186q0 -97 -54 -169.5t-147 -117.5q-148 -79 -375 -86q16 -54 52 -88q53 -56 149 -56q98 0 182 50q11 7 22.5 4.5t14.5 -11.5l62 -139q10 -23 -13 -35q-120 -75 -321 -75q-186 0 -297 100 q-129 119 -129 319zM210.5 1177q-2.5 14 14.5 31l342 334q9 9 13 12.5t12.5 7t19.5 3.5h95q11 0 18.5 -3.5t10 -6.5t9.5 -13l248 -334q12 -17 6 -31t-26 -14h-158q-22 0 -30.5 6t-20.5 25l-121 162l-168 -162q-16 -19 -26.5 -25t-32.5 -6h-183q-20 0 -22.5 14zM354 496 q122 0 224 41q120 50 120 139q0 33 -18 51q-29 25 -72 25q-102 0 -176 -90q-59 -65 -78 -166z" />
<glyph unicode="&#xeb;" horiz-adv-x="1044" d="M80 401q0 217 145 381q75 81 179.5 128.5t218.5 47.5q140 0 223 -67q88 -69 88 -186q0 -97 -54 -169.5t-147 -117.5q-148 -79 -375 -86q16 -54 52 -88q53 -56 149 -56q98 0 182 50q11 7 22.5 4.5t14.5 -11.5l62 -139q10 -23 -13 -35q-120 -75 -321 -75q-186 0 -297 100 q-129 119 -129 319zM272 1343q0 58 41.5 100t98.5 42q60 0 101.5 -41.5t41.5 -100.5q0 -60 -41.5 -101.5t-101.5 -41.5q-57 0 -98.5 41.5t-41.5 101.5zM354 496q122 0 224 41q120 50 120 139q0 33 -18 51q-29 25 -72 25q-102 0 -176 -90q-59 -65 -78 -166zM696 1343 q0 59 41 100.5t99 41.5t98.5 -41.5t40.5 -100.5q0 -60 -40.5 -101.5t-98.5 -41.5q-59 0 -99.5 41.5t-40.5 101.5z" />
<glyph unicode="&#xec;" horiz-adv-x="538" d="M86 31l125 878q1 12 11 20.5t22 8.5h215q11 0 17 -8.5t5 -20.5l-125 -878q-3 -31 -30 -31h-213q-14 0 -22 9t-5 22zM201 1540q0 11 8 18t20 7h185q28 0 43 -31l125 -307q10 -30 10 -37q0 -12 -8.5 -19.5t-20.5 -7.5h-139q-27 0 -47 33l-170 322q-6 12 -6 22z" />
<glyph unicode="&#xed;" horiz-adv-x="538" d="M86 31l125 878q1 12 11 20.5t22 8.5h215q11 0 17 -8.5t5 -20.5l-125 -878q-3 -31 -30 -31h-213q-14 0 -22 9t-5 22zM188 1190q0 11 11 33l163 311q16 31 46 31h184q12 0 20.5 -7.5t8.5 -17.5q0 -4 -9 -22l-211 -322q-20 -33 -47 -33h-139q-11 0 -19 7.5t-8 19.5z" />
<glyph unicode="&#xee;" horiz-adv-x="538" d="M-18.5 1177q-2.5 14 14.5 31l342 334q9 9 13 12.5t12.5 7t19.5 3.5h94q16 0 23 -5t16 -18l248 -334q12 -17 5.5 -31t-26.5 -14h-157q-22 0 -30.5 6t-20.5 25l-121 162l-168 -162q-16 -19 -27 -25t-33 -6h-182q-20 0 -22.5 14zM84 31l125 878q1 12 11 20.5t22 8.5h215 q11 0 17 -8.5t5 -20.5l-125 -878q-3 -31 -30 -31h-213q-14 0 -22 9t-5 22z" />
<glyph unicode="&#xef;" horiz-adv-x="538" d="M43 1343q0 58 41 100t98 42q60 0 102 -41.5t42 -100.5q0 -60 -42 -101.5t-102 -41.5q-57 0 -98 41.5t-41 101.5zM84 31l125 878q1 12 11 20.5t22 8.5h215q11 0 17 -8.5t5 -20.5l-125 -878q-3 -31 -30 -31h-213q-14 0 -22 9t-5 22zM467 1343q0 59 40.5 100.5t98.5 41.5 t98.5 -41.5t40.5 -100.5q0 -60 -40.5 -101.5t-98.5 -41.5t-98.5 41.5t-40.5 101.5z" />
<glyph unicode="&#xf0;" horiz-adv-x="1058" d="M80 395q0 190 125 318q62 63 148 98t182 35q66 0 122 -31q-45 97 -155 221l-148 -108q-9 -6 -22.5 -5.5t-20.5 9.5l-67 96q-7 9 -4 22t14 21l123 90q-60 51 -115 88q-25 20 2 43l137 127q23 20 52 2q89 -66 133 -106l151 110q9 6 23 5.5t20 -9.5l66 -96q17 -24 -8 -43 l-125 -92q282 -313 282 -672q0 -223 -108 -360q-66 -89 -166.5 -133.5t-212.5 -44.5q-171 0 -289 98q-139 116 -139 317zM334 428q-6 -103 53 -168q50 -53 137 -53q104 0 160 76q49 65 55 178q3 68 -6 135q-80 41 -170 41q-89 0 -164 -68q-59 -59 -65 -141z" />
<glyph unicode="&#xf1;" horiz-adv-x="1132" d="M84 31l123 878q2 12 12 20.5t23 8.5h184q27 0 23 -29l-11 -75h8q62 59 113 81q75 41 172 41q128 0 201 -73q94 -94 94 -277q0 -59 -14 -155l-56 -420q-2 -14 -11.5 -22.5t-22.5 -8.5h-207q-14 0 -22 9t-5 22l57 420q11 86 11 122q0 83 -39 125q-32 37 -88 37 q-80 0 -137 -67q-57 -69 -76 -197l-62 -440q-7 -31 -37 -31h-206q-13 0 -21 8.5t-6 22.5zM309 1260q16 117 79 187.5t165 70.5q83 0 162 -64q35 -28 58.5 -40.5t51.5 -12.5q67 0 88 76q12 30 37 30h84q18 0 26.5 -9.5t6.5 -22.5q-18 -119 -80.5 -190t-163.5 -71 q-83 0 -159 62q-66 55 -113 55q-66 0 -88 -74q-11 -32 -37 -32h-86q-18 0 -26 10.5t-5 24.5z" />
<glyph unicode="&#xf2;" horiz-adv-x="1079" d="M84 397q-6 215 113 373q70 90 169.5 139t219.5 49q174 0 297 -108q130 -117 133 -307q3 -232 -117 -383q-141 -178 -383 -178q-175 0 -295 102q-134 118 -137 313zM356 416q0 -98 45 -152q40 -63 121 -63q105 0 170 98q59 97 56 229q0 104 -48 162q-44 47 -118 47 q-103 0 -172 -106q-60 -101 -54 -215zM451 1540q0 11 8 18t20 7h185q28 0 43 -31l124 -307q11 -33 11 -37q0 -12 -8.5 -19.5t-20.5 -7.5h-139q-27 0 -47 33l-170 322q-6 12 -6 22z" />
<glyph unicode="&#xf3;" horiz-adv-x="1079" d="M84 397q-6 215 113 373q70 90 169.5 139t219.5 49q174 0 297 -108q130 -117 133 -307q3 -232 -117 -383q-141 -178 -383 -178q-175 0 -295 102q-134 118 -137 313zM356 416q0 -98 45 -152q40 -63 121 -63q105 0 170 98q59 97 56 229q0 104 -48 162q-44 47 -118 47 q-103 0 -172 -106q-60 -101 -54 -215zM440 1190q0 11 11 33l163 311q16 31 45 31h185q12 0 20 -7t8 -18q0 -6 -8 -22l-211 -322q-20 -33 -47 -33h-139q-11 0 -19 7.5t-8 19.5z" />
<glyph unicode="&#xf4;" horiz-adv-x="1079" d="M84 397q-6 215 113 373q70 90 169.5 139t219.5 49q174 0 297 -108q130 -117 133 -307q3 -232 -117 -383q-141 -178 -383 -178q-175 0 -295 102q-134 118 -137 313zM217 1177q-3 14 14 31l342 334q9 9 13 12.5t12.5 7t19.5 3.5h95q16 0 23 -5t16 -18l247 -334 q12 -17 6 -31t-26 -14h-158q-22 0 -30.5 6t-20.5 25l-121 162l-168 -162q-16 -19 -26.5 -25t-32.5 -6h-182q-20 0 -23 14zM356 416q0 -98 45 -152q40 -63 121 -63q105 0 170 98q59 97 56 229q0 104 -48 162q-44 47 -118 47q-103 0 -172 -106q-60 -101 -54 -215z" />
<glyph unicode="&#xf5;" horiz-adv-x="1079" d="M84 397q-6 215 113 373q70 90 169.5 139t219.5 49q174 0 297 -108q130 -117 133 -307q3 -232 -117 -383q-141 -178 -383 -178q-175 0 -295 102q-134 118 -137 313zM274 1260q16 117 79 187.5t165 70.5q83 0 162 -64q35 -27 59 -40t52 -13q67 0 88 76q12 30 36 30h84 q18 0 26.5 -9.5t6.5 -22.5q-18 -119 -80.5 -190t-163.5 -71q-83 0 -159 62q-66 55 -113 55q-66 0 -88 -74q-11 -32 -37 -32h-86q-18 0 -26 10.5t-5 24.5zM356 416q0 -98 45 -152q40 -63 121 -63q105 0 170 98q59 97 56 229q0 104 -48 162q-44 47 -118 47q-103 0 -172 -106 q-60 -101 -54 -215z" />
<glyph unicode="&#xf6;" horiz-adv-x="1079" d="M84 397q-6 215 113 373q70 90 169.5 139t219.5 49q174 0 297 -108q130 -117 133 -307q3 -232 -117 -383q-141 -178 -383 -178q-175 0 -295 102q-134 118 -137 313zM268 1343q0 58 41.5 100t98.5 42q60 0 101.5 -41.5t41.5 -100.5q0 -60 -41.5 -101.5t-101.5 -41.5 q-57 0 -98.5 41.5t-41.5 101.5zM356 416q0 -98 45 -152q40 -63 121 -63q105 0 170 98q59 97 56 229q0 104 -48 162q-44 47 -118 47q-103 0 -172 -106q-60 -101 -54 -215zM692 1343q0 59 40.5 100.5t98.5 41.5t99 -41.5t41 -100.5q0 -60 -40.5 -101.5t-99.5 -41.5 q-58 0 -98.5 41.5t-40.5 101.5z" />
<glyph unicode="&#xf7;" horiz-adv-x="1249" d="M88 627v192q0 12 9 21.5t22 9.5h1009q13 0 23 -9.5t10 -21.5v-192q0 -13 -9.5 -23t-23.5 -10h-1009q-13 0 -22 9.5t-9 23.5zM461 266q0 69 48 116.5t116 47.5t114.5 -47.5t46.5 -116.5q0 -68 -47 -115t-114 -47q-68 0 -116 47.5t-48 114.5zM461 1178q0 67 48 114t116 47 q66 0 113.5 -47t47.5 -114t-47.5 -114.5t-113.5 -47.5q-68 0 -116 47.5t-48 114.5z" />
<glyph unicode="&#xf8;" horiz-adv-x="1091" d="M92 397q-6 215 113 373q70 90 169.5 139t219.5 49q144 0 256 -77l33 39q12 14 20 18t23 4h80q21 0 25 -12.5t-15 -34.5l-82 -92q87 -108 90 -260q3 -232 -117 -383q-141 -178 -383 -178q-150 0 -254 71l-26 -30q-10 -15 -18 -19t-23 -4h-80q-21 0 -25.5 11.5t13.5 33.5 l73 84q-89 113 -92 268zM365 416q0 -43 8 -74l319 363q-40 32 -102 32q-103 0 -172 -106q-59 -99 -53 -215zM432 236q35 -35 98 -35q105 0 170 98q59 97 56 229q0 39 -6 66z" />
<glyph unicode="&#xf9;" horiz-adv-x="1122" d="M117 307q0 53 10 121l68 481q2 12 11 20.5t21 8.5h215q10 0 17 -8t6 -21l-68 -475q-8 -66 -8 -94q0 -62 29 -98q37 -43 108 -43q95 0 148 59q43 49 53 137l74 514q2 12 11 20.5t22 8.5h213q11 0 18 -8t6 -21l-76 -528q-27 -192 -145 -295q-122 -104 -340 -104 q-213 0 -305 86q-88 79 -88 239zM451 1540q0 11 8 18t20 7h185q28 0 43 -31l124 -307q11 -33 11 -37q0 -12 -8.5 -19.5t-20.5 -7.5h-139q-27 0 -47 33l-170 322q-6 12 -6 22z" />
<glyph unicode="&#xfa;" horiz-adv-x="1122" d="M117 307q0 53 10 121l68 481q2 12 11 20.5t21 8.5h215q10 0 17 -8t6 -21l-68 -475q-8 -66 -8 -94q0 -62 29 -98q37 -43 108 -43q95 0 148 59q43 49 53 137l74 514q2 12 11 20.5t22 8.5h213q11 0 18 -8t6 -21l-76 -528q-27 -192 -145 -295q-122 -104 -340 -104 q-213 0 -305 86q-88 79 -88 239zM479 1190q0 13 10 33l164 311q15 31 45 31h185q12 0 20 -7t8 -18q0 -6 -8 -22l-211 -322q-20 -33 -47 -33h-139q-11 0 -19 7.5t-8 19.5z" />
<glyph unicode="&#xfb;" horiz-adv-x="1122" d="M117 307q0 53 10 121l68 481q2 12 11 20.5t21 8.5h215q10 0 17 -8t6 -21l-68 -475q-8 -66 -8 -94q0 -62 29 -98q37 -43 108 -43q95 0 148 59q43 49 53 137l74 514q2 12 11 20.5t22 8.5h213q11 0 18 -8t6 -21l-76 -528q-27 -192 -145 -295q-122 -104 -340 -104 q-213 0 -305 86q-88 79 -88 239zM266.5 1177q-2.5 14 14.5 31l342 334q9 9 13 12.5t12.5 7t19.5 3.5h94q16 0 23 -5t16 -18l248 -334q12 -17 5.5 -31t-26.5 -14h-158q-22 0 -30.5 6t-20.5 25l-121 162l-168 -162q-16 -19 -26.5 -25t-32.5 -6h-182q-20 0 -22.5 14z" />
<glyph unicode="&#xfc;" horiz-adv-x="1122" d="M117 307q0 53 10 121l68 481q2 12 11 20.5t21 8.5h215q10 0 17 -8t6 -21l-68 -475q-8 -66 -8 -94q0 -62 29 -98q37 -43 108 -43q95 0 148 59q43 49 53 137l74 514q2 12 11 20.5t22 8.5h213q11 0 18 -8t6 -21l-76 -528q-27 -192 -145 -295q-122 -104 -340 -104 q-213 0 -305 86q-88 79 -88 239zM326 1343q0 58 41 100t98 42q60 0 101.5 -41.5t41.5 -100.5q0 -60 -41.5 -101.5t-101.5 -41.5q-57 0 -98 41.5t-41 101.5zM750 1343q0 59 40.5 100.5t98.5 41.5t98.5 -41.5t40.5 -100.5q0 -60 -40.5 -101.5t-98.5 -41.5t-98.5 41.5 t-40.5 101.5z" />
<glyph unicode="&#xfd;" horiz-adv-x="1048" d="M-12 -459l28 205q0 10 8 16.5t19 6.5h57q90 0 156 49q57 45 106 116l-280 961q-5 17 2 30t27 13h237q38 0 43 -33l146 -633l280 633q11 33 51 33h222q32 0 16 -43l-467 -946q-95 -195 -221 -303q-170 -144 -412 -129q-21 0 -18 24zM440 1190q0 11 11 33l163 311 q16 31 45 31h185q12 0 20 -7t8 -18q0 -6 -8 -22l-211 -322q-20 -33 -47 -33h-139q-11 0 -19 7.5t-8 19.5z" />
<glyph unicode="&#xfe;" horiz-adv-x="1079" d="M25 -455l254 1821q8 29 34 29h201q13 0 19 -9t4 -20l-60 -448q78 38 185 38q148 0 245 -102q109 -112 109 -301q0 -279 -180 -428q-164 -139 -420 -139q-35 0 -58 4l-63 -445q-1 -13 -11 -21.5t-22 -8.5h-213q-12 0 -19 9t-5 21zM389 209q24 -6 60 -6q124 0 200 76 q90 90 90 253q0 90 -43 142q-43 53 -112 53q-65 0 -129 -43z" />
<glyph unicode="&#xff;" horiz-adv-x="1048" d="M-12 -459l28 205q0 10 8 16.5t19 6.5h57q90 0 156 49q57 45 106 116l-280 961q-5 17 2 30t27 13h237q38 0 43 -33l146 -633l280 633q11 33 51 33h222q32 0 16 -43l-467 -946q-95 -195 -221 -303q-170 -144 -412 -129q-21 0 -18 24zM283 1343q0 58 41 100t98 42 q60 0 101.5 -41.5t41.5 -100.5q0 -60 -41.5 -101.5t-101.5 -41.5q-57 0 -98 41.5t-41 101.5zM707 1343q0 59 40.5 100.5t98.5 41.5t98.5 -41.5t40.5 -100.5q0 -60 -40.5 -101.5t-98.5 -41.5t-98.5 41.5t-40.5 101.5z" />
<glyph unicode="&#x152;" horiz-adv-x="2164" d="M115 575q-7 168 37 315.5t131 258.5q96 126 232.5 196t291.5 70q237 0 401 -133l13 82q1 12 11 21.5t21 9.5h846q12 0 19 -9t4 -22l-29 -203q-1 -11 -11 -19.5t-20 -8.5h-579l-41 -302h495q11 0 18 -8t7 -20l-33 -203q-1 -12 -11 -21.5t-20 -9.5h-493l-45 -309h688 q11 0 17.5 -7.5t5.5 -19.5l-29 -204q-1 -12 -10.5 -20.5t-20.5 -8.5h-954q-11 0 -18.5 9.5t-6.5 19.5l4 22q-138 -69 -303 -69q-125 0 -237.5 40.5t-196.5 120.5q-173 166 -184 432zM408 596q9 -161 94 -250q90 -94 231 -94q100 0 187 51.5t141 149.5q83 147 72 350 q-6 145 -84 233q-88 105 -238 105q-86 0 -171.5 -50t-145.5 -141q-97 -153 -86 -354z" />
<glyph unicode="&#x153;" horiz-adv-x="1611" d="M84 397q-6 215 113 373q70 90 169.5 139t219.5 49q174 0 297 -108q25 -25 35 -37q73 69 168 107t198 38q138 0 225 -67q86 -70 86 -186q0 -97 -53.5 -169.5t-146.5 -117.5q-154 -79 -373 -86q16 -55 49 -88q53 -56 152 -56t180 50q12 7 23 4.5t16 -11.5l61 -139 q7 -24 -12 -35q-123 -75 -324 -75q-183 0 -297 100l-22 22q-131 -122 -332 -122q-175 0 -295 102q-134 118 -137 313zM356 416q0 -98 45 -152q40 -63 121 -63q105 0 170 98q59 97 56 229q0 104 -48 162q-44 47 -118 47q-103 0 -172 -106q-60 -101 -54 -215zM1018 496 q122 0 221 41q121 49 121 139q0 32 -19 51q-25 25 -69 25q-104 0 -178 -90q-58 -68 -76 -166z" />
<glyph unicode="&#x178;" horiz-adv-x="1271" d="M129.5 1379q6.5 16 30.5 16h252q34 0 49 -31l237 -506l363 506q21 31 55 31h268q24 0 27.5 -16t-12.5 -36l-586 -763l-78 -549q-1 -13 -12 -22t-23 -9h-233q-12 0 -20 9t-7 22l78 551l-383 761q-12 20 -5.5 36zM436 1753q0 58 41 99.5t98 41.5q60 0 102 -41t42 -100 q0 -60 -42 -101.5t-102 -41.5q-57 0 -98 41.5t-41 101.5zM860 1753q0 59 40.5 100t98.5 41t99 -41t41 -100q0 -60 -40.5 -101.5t-99.5 -41.5q-58 0 -98.5 41.5t-40.5 101.5z" />
<glyph unicode="&#x2c6;" horiz-adv-x="954" d="M264.5 1177q-2.5 14 14.5 31l342 334q9 9 13 12.5t12.5 7t19.5 3.5h94q16 0 23 -5t16 -18l248 -334q12 -17 5.5 -31t-26.5 -14h-158q-22 0 -30.5 6t-20.5 25l-121 162l-168 -162q-16 -19 -26.5 -25t-32.5 -6h-182q-20 0 -22.5 14z" />
<glyph unicode="&#x2dc;" horiz-adv-x="954" d="M307 1260q16 117 79 187.5t165 70.5q83 0 162 -64q35 -28 58.5 -40.5t51.5 -12.5q67 0 88 76q12 30 37 30h84q18 0 26.5 -9.5t6.5 -22.5q-18 -119 -80.5 -190t-163.5 -71q-83 0 -159 62q-66 55 -113 55q-66 0 -88 -74q-11 -32 -37 -32h-86q-18 0 -26 10.5t-5 24.5z" />
<glyph unicode="&#x2000;" horiz-adv-x="1002" />
<glyph unicode="&#x2001;" horiz-adv-x="2005" />
<glyph unicode="&#x2002;" horiz-adv-x="1002" />
<glyph unicode="&#x2003;" horiz-adv-x="2005" />
<glyph unicode="&#x2004;" horiz-adv-x="668" />
<glyph unicode="&#x2005;" horiz-adv-x="501" />
<glyph unicode="&#x2006;" horiz-adv-x="334" />
<glyph unicode="&#x2007;" horiz-adv-x="334" />
<glyph unicode="&#x2008;" horiz-adv-x="250" />
<glyph unicode="&#x2009;" horiz-adv-x="401" />
<glyph unicode="&#x200a;" horiz-adv-x="111" />
<glyph unicode="&#x2010;" horiz-adv-x="1064" d="M201 477l26 193q1 13 12 22.5t23 9.5h625q13 0 20.5 -9t5.5 -23l-26 -193q-3 -13 -13.5 -22t-23.5 -9h-623q-13 0 -21 9.5t-5 21.5z" />
<glyph unicode="&#x2011;" horiz-adv-x="1064" d="M201 477l26 193q1 13 12 22.5t23 9.5h625q13 0 20.5 -9t5.5 -23l-26 -193q-3 -13 -13.5 -22t-23.5 -9h-623q-13 0 -21 9.5t-5 21.5z" />
<glyph unicode="&#x2012;" horiz-adv-x="1064" d="M201 477l26 193q1 13 12 22.5t23 9.5h625q13 0 20.5 -9t5.5 -23l-26 -193q-3 -13 -13.5 -22t-23.5 -9h-623q-13 0 -21 9.5t-5 21.5z" />
<glyph unicode="&#x2013;" horiz-adv-x="1085" d="M119 449l18 139q0 10 9.5 18t21.5 8h928q27 0 24 -26l-18 -139q-6 -27 -31 -27h-930q-11 0 -18 7t-4 20z" />
<glyph unicode="&#x2014;" horiz-adv-x="2025" d="M119 449l18 139q0 10 9.5 18t21.5 8h1866q24 0 24 -26l-18 -139q-6 -27 -33 -27h-1866q-11 0 -18 7t-4 20z" />
<glyph unicode="&#x2018;" horiz-adv-x="581" d="M207 1047q0 137 96.5 240t220.5 126q34 5 47 -16l23 -45q15 -27 -14 -41q-24 -14 -31 -17.5t-29.5 -19t-32 -25.5t-19 -27t-9.5 -34q0 -23 10.5 -40t25.5 -29.5t30 -26.5t25.5 -40.5t10.5 -62.5q0 -69 -45.5 -110t-120.5 -41q-85 0 -136.5 55t-51.5 154z" />
<glyph unicode="&#x2019;" horiz-adv-x="565" d="M178 901q-15 28 15 41q1 1 15 8.5t18 10.5t17 11t18 12.5t15.5 13t15.5 15.5t10.5 15.5t8 17.5t2.5 19q0 23 -10.5 40t-26 29.5t-31 26.5t-26 40.5t-10.5 62.5q0 69 45.5 110t122.5 41q84 0 136 -55t52 -154q0 -70 -28 -134t-73.5 -111t-102 -78.5t-115.5 -42.5 q-32 -5 -45 16z" />
<glyph unicode="&#x201a;" horiz-adv-x="761" d="M133 -209q-15 28 14 41q2 1 19.5 11t24 14t21.5 14.5t22.5 18t16.5 18.5t13 22.5t4 24.5q0 23 -10.5 40t-26 29.5t-31 26.5t-26 40.5t-10.5 62.5q0 68 46 109.5t122 41.5q84 0 136 -55t52 -154q0 -93 -48 -174t-119.5 -129.5t-151.5 -64.5q-32 -3 -45 16z" />
<glyph unicode="&#x201c;" horiz-adv-x="1042" d="M240 1047q0 138 96.5 242t220.5 124q37 6 47 -16l23 -45q12 -27 -15 -41q-120 -61 -120 -123q0 -23 10.5 -40t25.5 -29.5t30 -26.5t25.5 -40.5t10.5 -62.5q0 -69 -45.5 -110t-120.5 -41q-85 0 -136.5 55t-51.5 154zM698 1047q0 138 98 242t222 124q35 6 45 -16l22 -45 q15 -28 -14 -41q-32 -16 -53.5 -29.5t-44.5 -40t-23 -53.5q0 -23 11 -40t26.5 -29.5t30.5 -26.5t26 -40.5t11 -62.5q0 -69 -45.5 -110t-122.5 -41q-84 0 -136.5 55t-52.5 154z" />
<glyph unicode="&#x201d;" horiz-adv-x="1026" d="M178 901q-15 28 15 41q120 61 120 123q0 23 -10.5 40t-26 29.5t-31 26.5t-26 40.5t-10.5 62.5q0 69 45.5 110t122.5 41q84 0 136 -55t52 -154q0 -138 -97.5 -242t-221.5 -124q-35 -6 -45 16zM637 901q-12 28 14 41q32 16 53.5 29.5t44.5 40t23 53.5q0 23 -10.5 40 t-25.5 29.5t-30 26.5t-25.5 40.5t-10.5 62.5q0 69 45.5 110t120.5 41q85 0 136.5 -55t51.5 -154q0 -138 -96.5 -242t-220.5 -124q-38 -6 -48 16z" />
<glyph unicode="&#x201e;" horiz-adv-x="1230" d="M133 -209q-15 28 14 41q2 1 19.5 11t24 14t21.5 14.5t22.5 18t16.5 18.5t13 22.5t4 24.5q0 23 -10.5 40t-26 29.5t-31 26.5t-26 40.5t-10.5 62.5q0 68 46 109.5t122 41.5q84 0 136 -55t52 -154q0 -93 -48 -174t-119.5 -129.5t-151.5 -64.5q-32 -3 -45 16zM594 -209 q-15 27 12 41q71 39 93 62q27 30 28 61q0 23 -10.5 40t-25.5 29.5t-30 26.5t-25.5 40.5t-10.5 62.5q0 68 46 109.5t122 41.5q84 0 136 -55t52 -154q0 -138 -97 -240.5t-222 -127.5q-33 -3 -46 16z" />
<glyph unicode="&#x2022;" horiz-adv-x="1044" d="M109 698q0 170 121.5 292t291.5 122t292 -122t122 -292t-122 -291.5t-292 -121.5t-291.5 121.5t-121.5 291.5z" />
<glyph unicode="&#x2026;" horiz-adv-x="2017" d="M117 143q0 67 48 114.5t116 47.5q66 0 113.5 -47.5t47.5 -114.5t-47.5 -114t-113.5 -47q-68 0 -116 47t-48 114zM827 143q0 67 47.5 114.5t114.5 47.5q68 0 116 -47.5t48 -114.5t-48 -114t-116 -47t-115 47t-47 114zM1538 143q0 67 47 114.5t115 47.5t115 -47.5 t47 -114.5t-47 -114t-115 -47t-115 47t-47 114z" />
<glyph unicode="&#x202f;" horiz-adv-x="401" />
<glyph unicode="&#x2039;" horiz-adv-x="798" d="M61 473q5 21 31 47l400 393q22 20 34.5 26.5t34.5 6.5h203q29 0 32.5 -18t-18.5 -43l-405 -412l291 -412q14 -26 5 -43.5t-38 -17.5h-203q-23 0 -35.5 6.5t-25.5 26.5l-289 393q-19 30 -17 47z" />
<glyph unicode="&#x203a;" horiz-adv-x="780" d="M12 17.5q-4 17.5 19 43.5l405 412l-289 412q-17 25 -7.5 43t38.5 18h201q23 0 36 -7t27 -26l289 -393q19 -34 17 -47q-3 -16 -31 -47l-400 -393q-18 -20 -32.5 -26.5t-38.5 -6.5h-201q-29 0 -33 17.5z" />
<glyph unicode="&#x205f;" horiz-adv-x="501" />
<glyph unicode="&#x20ac;" horiz-adv-x="1187" d="M-10 508l12 86q1 13 12 23t23 10h92v18q0 39 8 113h-82q-12 0 -19.5 10t-6.5 23l14 86q1 13 11 22.5t22 9.5h100q81 225 287 364.5t479 139.5q221 0 367 -76q24 -13 10 -41l-109 -192q-12 -23 -41 -10q-123 53 -254 53q-135 0 -242.5 -65t-168.5 -173h577q14 0 22 -8.5 t7 -23.5l-14 -86q-1 -15 -11 -24t-24 -9h-612q-11 -57 -11 -96l2 -35h500q30 0 27 -33l-13 -86q-6 -33 -36 -33h-445q44 -109 140 -169t223 -60q139 0 266 55q30 12 37 -10l75 -195q9 -27 -18 -39q-161 -77 -385 -77q-121 0 -227.5 29.5t-196.5 88t-153 155t-89 222.5h-131 q-11 0 -18 10t-6 23z" />
<glyph unicode="&#x2122;" horiz-adv-x="1687" d="M66 1339v91q0 12 9.5 21t22.5 9h566q12 0 21 -9t9 -21v-91q0 -12 -9 -21t-21 -9h-201v-551q0 -12 -9 -21.5t-22 -9.5h-102q-12 0 -21.5 9.5t-9.5 21.5v551h-201q-13 0 -22.5 9t-9.5 21zM784 756v674q0 12 9.5 21t21.5 9h90q20 0 32 -7t24 -26l198 -335l197 335 q10 20 22 26.5t33 6.5h90q13 0 23 -9t10 -21v-674q0 -12 -10 -21.5t-23 -9.5h-98q-12 0 -21.5 9.5t-9.5 21.5v407l-147 -250q-18 -30 -47 -30h-41q-32 0 -50 30l-143 250v-407q0 -12 -9.5 -21.5t-21.5 -9.5h-98q-12 0 -21.5 9.5t-9.5 21.5z" />
<glyph unicode="&#x25fc;" horiz-adv-x="942" d="M0 0v942h942v-942h-942z" />
</font>
</defs>
</svg>
