<?xml version="1.0" standalone="no"?>
<!DOCTYPE svg PUBLIC "-//W3C//DTD SVG 1.1//EN" "http://www.w3.org/Graphics/SVG/1.1/DTD/svg11.dtd" >
<svg xmlns="http://www.w3.org/2000/svg">
<metadata></metadata>
<defs>
<font id="houschka_alt_promedium_italic" horiz-adv-x="1228" >
<font-face units-per-em="2048" ascent="1556" descent="-492" />
<missing-glyph horiz-adv-x="550" />
<glyph unicode="&#xfb01;" horiz-adv-x="968" d="M80 -373l158 1180h-119q-8 0 -13 5.5t-4 12.5l11 80q2 8 8.5 14.5t13.5 6.5h119l20 137q21 157 99 244q94 104 260 104q156 0 260 -86q13 -10 4 -27l-49 -75q-4 -9 -14 -10.5t-17 4.5q-79 67 -172 67q-101 0 -158 -63q-51 -56 -67 -172l-17 -123h488q7 0 12.5 -6.5 t3.5 -14.5l-125 -887q-4 -18 -22 -18h-111q-8 0 -12.5 5.5t-3.5 12.5l110 789h-356l-160 -1180q-3 -20 -20 -20h-111q-8 0 -12.5 5.5t-3.5 14.5z" />
<glyph unicode="&#xfb02;" horiz-adv-x="991" d="M70 -373l157 1180h-110q-20 0 -17 18l11 82q5 19 22 19h111l18 137q24 164 109 250q98 98 282 98q204 0 316 -70q19 -8 16 -28l-180 -1295q-3 -18 -23 -18h-110q-17 0 -17 18l168 1194q3 21 -10 29q-64 45 -178 45q-105 0 -164 -72q-48 -62 -63 -172l-17 -116h227 q8 0 14 -6t3 -13l-12 -82q0 -8 -6 -13t-15 -5h-225l-160 -1180q-3 -20 -20 -20h-111q-8 0 -12.5 5.5t-3.5 14.5z" />
<glyph unicode="&#xfb03;" horiz-adv-x="1488" d="M78 -373l162 1180h-109q-22 0 -16 18l12 82q0 6 5.5 12.5t12.5 6.5h111l16 116q21 169 101 258q84 91 213 91q139 0 229 -68q15 -11 4 -25l-43 -71q-10 -17 -31 -6q-71 43 -141 43q-83 0 -131 -64q-38 -50 -55 -168l-12 -106h366l19 137q22 158 100 244q91 104 258 104 q79 0 147.5 -24t112.5 -62q13 -13 6 -27l-49 -75q-13 -19 -33 -6q-76 67 -172 67q-101 0 -155 -63q-53 -56 -70 -179l-16 -116h489q16 0 16 -21l-125 -887q-3 -18 -20 -18h-113q-19 0 -16 18l111 789h-357l-160 -1180q-3 -20 -20 -20h-111q-8 0 -13.5 6t-2.5 14l158 1180 h-367l-162 -1180q-1 -9 -7.5 -14.5t-14.5 -5.5h-111q-8 0 -13.5 6t-2.5 14z" />
<glyph unicode="&#xfb04;" horiz-adv-x="1497" d="M61 -373l162 1180h-108q-20 0 -17 18l13 82q5 19 20 19h111l14 116q25 172 102 258q81 91 213 91q140 0 230 -68q15 -11 4 -25l-43 -71q-10 -17 -31 -6q-71 43 -141 43q-83 0 -131 -64q-39 -51 -56 -168l-12 -106h365l20 137q20 160 107 250q98 98 284 98q204 0 316 -70 q19 -9 16 -28l-182 -1295q0 -18 -21 -18h-110q-8 0 -13 5.5t-4 12.5l166 1194q3 22 -10 29q-61 45 -178 45q-103 0 -162 -72q-47 -58 -63 -172l-17 -116h225q9 0 14.5 -5.5t4.5 -13.5l-12 -82q0 -7 -6.5 -12.5t-14.5 -5.5h-227l-158 -1180q-3 -20 -22 -20h-111 q-8 0 -12.5 5.5t-3.5 14.5l159 1180h-368l-162 -1180q0 -9 -6.5 -14.5t-14.5 -5.5h-112q-6 0 -11.5 5.5t-5.5 14.5z" />
<glyph horiz-adv-x="2048" />
<glyph horiz-adv-x="2048" />
<glyph unicode="&#xd;" horiz-adv-x="2048" />
<glyph unicode=" "  horiz-adv-x="550" />
<glyph unicode="&#x09;" horiz-adv-x="550" />
<glyph unicode="&#xa0;" horiz-adv-x="550" />
<glyph unicode="!" horiz-adv-x="550" d="M147 74q0 40 27.5 67t67.5 27q38 0 66 -27t28 -65v-2q0 -38 -28 -65t-66 -27q-40 0 -67.5 27t-27.5 65zM229 412l97 962q3 21 20 21h150q18 0 14 -25l-176 -958q-3 -21 -21 -21h-67q-20 0 -17 21z" />
<glyph unicode="&#x22;" horiz-adv-x="559" d="M274 1006l27 354q3 35 31 35h102q27 0 21 -35l-74 -354q-5 -31 -31 -31h-51q-25 0 -25 31zM553 1006l25 354q3 35 30 35h105q27 0 18 -35l-74 -354q-5 -31 -30 -31h-52q-25 0 -22 31z" />
<glyph unicode="#" horiz-adv-x="1366" d="M0 266v82q0 19 16 19h324l80 372h-303q-7 0 -13 5.5t-6 13.5v82q0 7 5.5 12.5t13.5 5.5h327l82 389q5 21 29 21h76q25 0 18 -31l-82 -379h381l82 389q5 21 29 21h74q25 0 18 -31l-82 -379h301q9 0 15 -5t6 -13v-82q0 -8 -6 -13.5t-15 -5.5h-326l-77 -372h305 q7 0 12.5 -5.5t5.5 -13.5v-82q0 -8 -5 -13t-13 -5h-330l-82 -389q-6 -21 -26 -21h-78q-23 0 -19 27l82 383h-379l-82 -389q-6 -21 -28 -21h-78q-23 0 -16 27l79 383h-299q-16 0 -16 18zM465 367h379l80 372h-381z" />
<glyph unicode="$" horiz-adv-x="1075" d="M63 113l58 92q12 15 26 4q60 -47 131 -72.5t175 -25.5q164 0 247 59q82 61 82 170q0 95 -106 168q-54 40 -188 103.5t-195 115.5q-115 96 -115 234q0 163 117 258q107 83 291 98l18 139q4 19 21 19h59q7 0 11.5 -5.5t2.5 -13.5l-20 -137q180 -6 291 -68q16 -7 6 -24 l-57 -99q-9 -12 -25 -2q-108 60 -250 60q-164 0 -242 -60q-69 -51 -69 -147q0 -88 119 -172q50 -35 178.5 -97t189.5 -112q123 -97 123 -238q0 -168 -121 -270q-117 -99 -329 -108l-19 -134q0 -18 -18 -18h-60q-16 0 -16 18l18 134q-199 8 -327 104q-15 10 -7 27z" />
<glyph unicode="%" horiz-adv-x="1302" d="M111 7q-2 7 4 16l1061 1355q11 17 28 17h62q12 0 14 -8t-6 -17l-1059 -1356q-11 -14 -29 -14h-61q-12 0 -14 7zM141 1051q0 136 68 229q44 62 110.5 96.5t141.5 34.5q119 0 198 -82q68 -78 68 -186q0 -139 -74 -238q-93 -121 -245 -121q-114 0 -191 74q-76 73 -76 193z M233 1061q0 -85 54 -139q51 -54 125 -54q102 0 168 88q51 70 51 172q0 87 -47 140q-48 57 -129 57q-105 0 -174 -98q-48 -71 -48 -166zM664 248q0 135 71 231q45 61 109.5 95t138.5 34q123 0 199 -82q67 -73 67 -186q0 -140 -73 -238q-42 -57 -105.5 -88.5t-140.5 -31.5 q-116 0 -189 73q-77 74 -77 193zM758 258q0 -83 53 -139q45 -51 125 -51q106 0 166 86q53 68 53 172q0 86 -47 139q-48 57 -131 57q-103 0 -172 -98q-47 -70 -47 -166z" />
<glyph unicode="&#x26;" horiz-adv-x="1292" d="M117 334q0 82 27.5 149t80.5 118t106.5 85.5t129.5 71.5q-45 140 -45 258q0 154 80 254q46 57 111.5 86.5t135.5 29.5q132 0 201 -75q66 -69 66 -185q0 -47 -12 -89t-29.5 -74t-50.5 -65t-59 -54t-73 -49t-75.5 -43t-81.5 -41l-8 -4q100 -240 280 -420q104 144 131 362 q3 17 17 17h98q14 0 14 -21q-35 -268 -168 -438q114 -83 197 -86q18 -3 14 -21l-14 -100q-1 -7 -9 -12.5t-14 -5.5q-126 0 -274 122q-152 -124 -369 -124q-190 0 -291 83q-116 89 -116 271zM260 340q0 -123 74 -182q68 -60 205 -60q149 0 266 88q-186 192 -301 461 q-116 -62 -180 -133.5t-64 -173.5zM545 1032q0 -103 35 -219q58 27 95 46.5t80 49t67.5 58t41.5 67.5t17 84q0 70 -39 109q-40 43 -109 43q-35 0 -73 -19.5t-66 -54.5q-49 -66 -49 -164z" />
<glyph unicode="'" horiz-adv-x="280" d="M156 1006l26 354q3 35 31 35h102q27 0 21 -35l-74 -354q-5 -31 -31 -31h-51q-24 0 -24 31z" />
<glyph unicode="(" horiz-adv-x="518" d="M84.5 144q-27.5 250 9.5 505q37 264 134 510.5t239 429.5q19 25 45 25h98q42 0 17 -41q-301 -412 -371 -924q-73 -510 113 -921q6 -16 -1 -27.5t-28 -11.5h-98q-28 0 -39 22q-91 183 -118.5 433z" />
<glyph unicode=")" horiz-adv-x="546" d="M-37 -272q300 415 373 921q71 517 -115 924q-6 18 1 29.5t28 11.5h100q24 0 37 -25q92 -182 119 -433.5t-10 -506.5q-38 -264 -133.5 -510t-237.5 -428q-19 -22 -45 -22h-100q-40 0 -17 39z" />
<glyph unicode="*" horiz-adv-x="716" d="M96 1237q6 24 26 31.5t46 -2.5q32 -10 78 -27l151 -59l-10 163q-4 74 -4 82q0 27 12.5 43.5t36.5 16.5q51 0 51 -60q0 -8 -4 -82l-8 -163l152 59q45 18 75 27q57 20 72 -29q7 -23 -4 -40.5t-37 -25.5l-80 -20l-155 -41l102 -127l53 -63q33 -48 -4 -78q-41 -28 -78 18 q-4 6 -10.5 17t-15 23.5t-19.5 27.5l-90 137l-88 -137q-43 -65 -45 -68q-36 -45 -76 -18q-43 29 -4 78q11 17 51 63l103 127l-158 41l-78 20q-26 8 -38 26t-3 40z" />
<glyph unicode="+" horiz-adv-x="1148" d="M80 672v102q0 8 5.5 13.5t12.5 5.5h404v403q0 8 6.5 14.5t13.5 6.5h103q7 0 12.5 -6.5t5.5 -14.5v-403h406q7 0 12.5 -5.5t5.5 -13.5v-102q0 -8 -5.5 -14.5t-12.5 -6.5h-406v-403q0 -8 -5.5 -14.5t-12.5 -6.5h-103q-7 0 -13.5 6.5t-6.5 14.5v403h-404q-7 0 -12.5 6.5 t-5.5 14.5z" />
<glyph unicode="," horiz-adv-x="483" d="M90 -152q-8 16 10 27q72 37 72 80q0 17 -9.5 31t-21 22t-21 27t-9.5 45q0 40 26.5 64t69.5 24q51 0 80.5 -34t29.5 -93q0 -82 -54.5 -145.5t-127.5 -81.5q-22 -7 -31 8z" />
<glyph unicode="-" horiz-adv-x="985" d="M188 543l15 102q0 8 6.5 13.5t15.5 5.5h619q8 0 12.5 -6t3.5 -13l-14 -102q0 -9 -6.5 -15t-14.5 -6h-620q-8 0 -13 6t-4 15z" />
<glyph unicode="." horiz-adv-x="464" d="M111 74q0 40 27 68t65 28q40 0 67 -28t27 -68q0 -38 -27 -65t-67 -27q-38 0 -65 27t-27 65z" />
<glyph unicode="/" horiz-adv-x="798" d="M38 7.5q-5 7.5 1 19.5l692 1347q11 21 29 21h123q13 0 17.5 -9t-1.5 -18l-690 -1350q-10 -18 -31 -18h-123q-12 0 -17 7.5z" />
<glyph unicode="0" d="M109 520q0 319 114 553q77 158 204.5 249t307.5 91q224 0 336 -158q96 -134 96 -389q0 -322 -118 -555q-77 -154 -202.5 -244t-299.5 -90q-230 0 -346 175q-92 140 -92 368zM268 528q0 -172 62 -276q73 -129 231 -129q242 0 361 287q84 191 84 452q0 178 -66 287 q-76 119 -221 119q-130 0 -222.5 -78.5t-148.5 -214.5q-80 -192 -80 -447z" />
<glyph unicode="1" d="M193 18l14 103q1 9 7.5 14.5t14.5 5.5h303l154 1096l-313 -115q-28 -9 -25 19l14 100q0 20 23 29l350 129q30 10 45 10h76q16 0 16 -20l-176 -1248h285q18 0 18 -20l-16 -103q0 -7 -6 -12.5t-14 -5.5h-752q-9 0 -14 5t-4 13z" />
<glyph unicode="2" d="M119 18l8 66q19 130 59 217t113 156q46 43 109.5 87t99.5 64.5t130 70.5t112 60q118 65 175.5 130t57.5 165q0 108 -65 176q-69 66 -195 66q-169 0 -344 -111q-25 -17 -31 4l-33 93q-6 18 15 28q97 59 194 91t226 32q177 0 282 -94q103 -95 103 -266q0 -130 -62.5 -217.5 t-181.5 -163.5q-19 -12 -199 -112t-260 -167q-58 -51 -85 -109.5t-38 -142.5h699q21 0 18 -20l-14 -103q-7 -18 -25 -18h-852q-8 0 -12.5 5.5t-3.5 12.5z" />
<glyph unicode="3" d="M131 100l55 90q10 17 31 5q124 -86 287 -86q162 0 268 86q100 84 100 206q0 127 -86 193q-74 56 -200 59h-113q-7 0 -12.5 5.5t-5.5 13.5l14 90q4 20 23 20h102q138 0 233 80q91 77 91 191q0 103 -64 161q-67 64 -176 64q-146 0 -305 -94q-20 -15 -29 4l-33 86 q-7 19 15 31q178 108 379 108q158 0 262 -90q98 -88 98 -240q0 -121 -74 -217q-73 -98 -198 -139q106 -39 165 -115q64 -86 64 -215q0 -180 -145 -299q-72 -57 -170 -87.5t-203 -30.5q-231 0 -367 90q-18 13 -6 30z" />
<glyph unicode="4" d="M86 340l12 88q2 16 21 37l766 917q20 23 45 23h106q19 0 19 -19l-133 -931h200q8 0 13.5 -5.5t5.5 -13.5l-15 -96q-2 -8 -8.5 -14.5t-13.5 -6.5h-201l-41 -301q-4 -18 -22 -18h-119q-8 0 -13.5 5.5t-5.5 12.5l43 301h-643q-16 0 -16 21zM279 455h485l100 708z" />
<glyph unicode="5" d="M156 141l49 86q11 21 26 6q67 -64 140.5 -94t187.5 -30q168 0 268 114q91 101 91 244q0 128 -66 209q-70 90 -205 90q-175 0 -285 -143q-12 -14 -30 -11l-72 19q-22 3 -16 31l155 712q0 7 7.5 14t15.5 7h629q7 0 12.5 -6.5t3.5 -14.5l-14 -102q-4 -19 -23 -19h-510 l-100 -452q116 94 256 94q193 0 303 -123q96 -110 96 -293q0 -200 -129 -342q-72 -75 -174.5 -116t-220.5 -41q-248 0 -389 131q-17 14 -6 30z" />
<glyph unicode="6" d="M150 557q0 122 20 239.5t66.5 230.5t115 197.5t175 136.5t237.5 52q162 0 301 -65q16 -10 6 -27l-53 -92q-8 -16 -27 -6q-117 49 -237 49q-84 0 -154 -32.5t-117.5 -85.5t-82 -125t-53 -146t-25.5 -154q159 133 362 133q188 0 295.5 -105.5t107.5 -295.5 q0 -202 -133.5 -341.5t-347.5 -139.5q-123 0 -213 43.5t-142 123.5t-76.5 181.5t-24.5 228.5zM307 553q0 -442 301 -442q141 0 232.5 96t91.5 244q0 125 -74.5 200.5t-208.5 75.5q-187 0 -342 -139v-35z" />
<glyph unicode="7" d="M238 1053l45 321q3 21 22 21h877q9 0 13.5 -6.5t2.5 -14.5l-14 -90q-3 -19 -13 -37l-745 -1229q-10 -18 -33 -18h-131q-31 0 -12 31l606 977q23 36 168 245h-614l-29 -200q-3 -21 -23 -21h-104q-19 0 -16 21z" />
<glyph unicode="8" d="M127 317q0 155 127 269q102 85 272 151q-119 70 -176 129q-90 93 -90 213q0 156 115 244q118 90 327 90q178 0 289 -90q101 -85 101 -221q0 -128 -88 -223q-78 -84 -226 -146q117 -62 189 -131q104 -104 104 -231q0 -186 -131 -287q-137 -104 -385 -104q-183 0 -293 73 q-135 86 -135 264zM281 330q0 -119 88 -178q73 -50 204 -50q158 0 248 68q90 69 90 192q0 100 -90 183q-59 52 -180 114q-174 -66 -246 -122q-114 -88 -114 -207zM412 1083q0 -88 80 -165q52 -50 172 -109q49 21 70 30.5t60.5 32t65.5 46.5q80 73 80 178q0 91 -61 141 q-64 55 -185 55q-131 0 -202 -51q-80 -58 -80 -158z" />
<glyph unicode="9" d="M143 932q0 130 58.5 239.5t170 175.5t253.5 66q123 0 213 -43.5t142 -123.5t76.5 -181.5t24.5 -228.5q0 -102 -14.5 -200.5t-44 -196t-79 -179.5t-115.5 -145t-158.5 -99t-202.5 -36q-168 0 -301 65q-16 10 -6 27l53 92q6 13 27 6q114 -51 237 -51q84 0 154 33t117.5 86 t82 125.5t53 146.5t25.5 154q-160 -134 -362 -134q-189 0 -296.5 105.5t-107.5 296.5zM299 940q0 -125 74.5 -200.5t208.5 -75.5q187 0 342 139v35q0 442 -301 442q-141 0 -232.5 -96t-91.5 -244z" />
<glyph unicode=":" horiz-adv-x="462" d="M111 74q0 38 27 66t65 28q39 0 66.5 -27.5t27.5 -66.5t-27.5 -66.5t-66.5 -27.5q-38 0 -65 28t-27 66zM219 848q0 39 27.5 66.5t66.5 27.5q38 0 65.5 -28t27.5 -66t-27.5 -65t-65.5 -27q-40 0 -67 27t-27 65z" />
<glyph unicode=";" horiz-adv-x="440" d="M90 -152q-8 16 10 27q72 37 72 80q0 17 -9.5 31t-21 22t-21 27t-9.5 45q0 40 26.5 64t69.5 24q51 0 80.5 -34t29.5 -93q0 -82 -54.5 -145.5t-127.5 -81.5q-22 -7 -31 8zM223 848q0 38 28 66t66 28t66.5 -28t28.5 -66t-28 -65t-67 -27q-38 0 -66 27t-28 65z" />
<glyph unicode="&#x3c;" horiz-adv-x="1257" d="M102 655v133q0 23 19 31l991 424q8 4 17.5 1t9.5 -15v-121q0 -22 -21 -31l-844 -354l844 -356q21 -6 21 -31v-121q0 -12 -9.5 -15t-17.5 1l-991 426q-19 8 -19 28z" />
<glyph unicode="=" horiz-adv-x="1146" d="M80 424v102q0 9 5 15t13 6h951q8 0 13 -6t5 -15v-102q0 -8 -5.5 -13t-12.5 -5h-951q-8 0 -13 5t-5 13zM80 915v103q0 20 18 20h951q18 0 18 -20v-103q0 -7 -5.5 -12.5t-12.5 -5.5h-951q-8 0 -13 5.5t-5 12.5z" />
<glyph unicode="&#x3e;" horiz-adv-x="1261" d="M119 215v121q0 25 18 31l844 356l-844 354q-18 9 -18 31v121q0 23 26 14l992 -424q18 -9 18 -31v-133q0 -19 -18 -28l-992 -426q-26 -9 -26 14z" />
<glyph unicode="?" horiz-adv-x="1112" d="M229 1247q-6 15 15 33q75 58 179 95.5t226 37.5q182 0 285 -100q100 -93 100 -246q0 -129 -76 -227q-41 -54 -107 -101.5t-133 -94t-108 -95.5q-32 -41 -46.5 -77t-22.5 -89q-5 -21 -27 -21h-76q-16 0 -22 17q-7 44 -2 82q15 103 123 203q16 15 34 30t40.5 31t37.5 27 t44.5 31t43.5 30q142 106 142 238q0 101 -66 161q-66 66 -188 66q-177 0 -336 -119q-9 -6 -17.5 -4.5t-11.5 10.5zM360 74q0 40 27.5 68t67.5 28q38 0 65 -28t27 -68q0 -38 -27 -65t-65 -27q-40 0 -67.5 27t-27.5 65z" />
<glyph unicode="@" horiz-adv-x="1847" d="M256 692q0 146 58.5 279.5t158.5 230.5t239.5 155t293.5 58q188 0 341 -72.5t244.5 -212t91.5 -321.5q0 -134 -41 -247t-122.5 -184t-188.5 -71q-135 0 -168 127q-117 -129 -278 -129q-118 0 -191 84q-78 85 -78 232q0 187 129 313q73 71 170.5 108t198.5 37 q89 0 164 -14q12 -3 12 -21l-59 -421q-6 -50 -6 -91q0 -165 116 -165q79 0 141 60.5t95 161.5t33 222q0 122 -48 223.5t-130.5 168.5t-191.5 103.5t-232 36.5q-186 0 -341.5 -87t-245 -238t-89.5 -332q0 -197 86.5 -346.5t241.5 -230t354 -80.5q237 0 438 71q20 10 29 -8 l10 -29q6 -20 -14 -26q-209 -78 -463 -78q-222 0 -393.5 89t-268 256t-96.5 388zM690 623q0 -118 60 -189q64 -69 153 -69q75 0 133.5 28t116.5 96v39q0 55 8 107l51 373q-57 8 -118 6q-83 -3 -162 -34t-137 -89q-105 -108 -105 -268z" />
<glyph unicode="A" horiz-adv-x="1232" d="M-32 6q-1 2 -2 5q0 4 3 9l666 1358q11 23 27 23h161q17 0 21 -23l323 -1358v-5q0 -15 -16 -15h-133q-13 0 -17 18l-77 326h-623l-158 -326q-7 -18 -22 -18h-141q-8 0 -12 6zM356 477h545l-180 748z" />
<glyph unicode="B" horiz-adv-x="1230" d="M98 18l191 1358q0 7 6 13t14 6h353q205 0 323 -97q102 -85 102 -225q0 -122 -53 -207q-61 -93 -176 -135v-4q146 -29 225 -117q74 -83 74 -217q0 -181 -125 -282q-130 -111 -381 -111h-538q-8 0 -12 5.5t-3 12.5zM276 133h349q187 0 284 72q88 70 88 201q0 107 -67 167 q-87 74 -309 74h-271zM369 778h247q194 0 271 101q53 69 53 176q0 83 -66 143q-80 66 -217 66h-221z" />
<glyph unicode="C" horiz-adv-x="1269" d="M127 645q0 108 28.5 209.5t80.5 185.5t126.5 154t162.5 118t191.5 74.5t211.5 26.5q228 0 370 -74q14 -8 14 -19q0 -5 -3 -11l-58 -101q-9 -15 -30 -8q-129 66 -306 66q-124 0 -238 -47.5t-198 -128.5q-83 -82 -133 -196q-49 -112 -49 -236v-5q1 -130 42 -232t112.5 -165 t162.5 -95t197 -32q194 0 315 68q24 9 29 -7l39 -102q7 -20 -12 -29q-154 -79 -383 -79q-107 0 -203.5 23.5t-182.5 75.5t-149 128t-99.5 188.5t-37.5 249.5z" />
<glyph unicode="D" horiz-adv-x="1435" d="M98 18l191 1358q4 19 20 19h334q369 0 565 -203q181 -187 181 -487q0 -169 -65.5 -305t-186.5 -232q-214 -168 -617 -168h-407q-8 0 -12 5.5t-3 12.5zM279 137h272q150 0 266.5 29t206.5 100q97 75 150 186t53 248q0 116 -38.5 218.5t-107.5 177.5q-146 159 -440 159 h-207z" />
<glyph unicode="E" horiz-adv-x="1179" d="M98 18l191 1356q0 8 6.5 14.5t13.5 6.5h865q6 0 10.5 -6t3.5 -13l-17 -108q-3 -19 -18 -19h-719l-67 -479h608q16 0 16 -16l-16 -109q-3 -18 -23 -18h-606l-67 -482h794q8 0 13 -5.5t4 -12.5l-15 -109q-3 -18 -22 -18h-940q-8 0 -12 5.5t-3 12.5z" />
<glyph unicode="F" horiz-adv-x="1044" d="M98 18l191 1358q0 7 6 13t14 6h801q14 0 14 -19l-16 -108q-3 -19 -18 -19h-656l-67 -479h565q16 0 16 -16l-16 -109q-3 -18 -21 -18h-565l-84 -609q-3 -18 -20 -18h-129q-18 0 -15 18z" />
<glyph unicode="G" horiz-adv-x="1505" d="M127 621q0 173 66.5 322.5t178 251.5t258 160t304.5 58q221 0 407 -92q20 -11 9 -29l-64 -102q-12 -18 -29 -8q-155 84 -333 84q-119 0 -231.5 -45.5t-200.5 -126.5t-141.5 -203t-53.5 -264q0 -158 67 -273.5t176.5 -172t245.5 -56.5q112 0 218 30.5t178 80.5l43 311 h-422q-17 0 -17 20l17 105q4 20 22 20h555q8 0 13 -5.5t4 -14.5l-92 -654q0 -7 -6.5 -12.5t-14.5 -5.5h-117q-19 0 -16 18l8 64q-152 -102 -405 -102q-97 0 -187 24t-170.5 75.5t-140 125.5t-94.5 181t-35 235z" />
<glyph unicode="H" horiz-adv-x="1445" d="M98 18l191 1358q4 19 18 19h129q8 0 13 -6t4 -13l-86 -604h811l84 604q4 19 20 19h129q7 1 11 -5q3 -4 4 -9q0 -2 -1 -5l-188 -1358q-6 -18 -20 -18h-130q-20 0 -14 18l84 609h-811l-84 -609q-6 -18 -20 -18h-129q-18 0 -15 18z" />
<glyph unicode="I" horiz-adv-x="471" d="M98 18l191 1358q0 8 5.5 13.5t12.5 5.5h129q7 0 12 -5.5t5 -13.5l-191 -1358q-6 -18 -20 -18h-129q-18 0 -15 18z" />
<glyph unicode="J" horiz-adv-x="1040" d="M-23 137l70 99q16 16 31 4q112 -115 268 -115q182 0 279 94q91 88 116 277l125 878q4 21 23 21h125q17 0 17 -15q0 -2 -1 -6l-127 -903q-35 -232 -155 -352q-136 -139 -412 -139q-111 0 -203.5 35.5t-152.5 93.5q-8 7 -8 15q0 6 5 13z" />
<glyph unicode="K" horiz-adv-x="1161" d="M98 18l191 1358q0 8 5.5 13.5t12.5 5.5h129q7 0 12 -5.5t5 -13.5l-93 -651l697 649q18 21 41 21h145q16 0 16 -13q0 -9 -10 -18l-631 -582l486 -749q9 -12 6.5 -22.5t-18.5 -10.5h-129q-25 0 -35 18l-430 648l-168 -152l-68 -496q-6 -18 -20 -18h-129q-18 0 -15 18z" />
<glyph unicode="L" horiz-adv-x="999" d="M100 18l191 1358q0 8 5.5 13.5t12.5 5.5h129q7 0 12 -5.5t5 -13.5l-174 -1231h643q6 0 11 -5.5t5 -12.5l-16 -109q-3 -18 -21 -18h-788q-8 0 -13 6q-3 3 -3 7q0 2 1 5z" />
<glyph unicode="M" horiz-adv-x="1773" d="M45 20l438 1356q8 19 23 19h112q8 0 17 -19l246 -1083l587 1083q14 19 25 19h119q16 0 16 -19v-1358q0 -18 -20 -18h-119q-16 0 -16 18v1084l-539 -989q-7 -17 -25 -17h-125q-13 0 -16 17l-227 991l-340 -1088q-6 -16 -23 -16h-119q-9 0 -13 6q-2 3 -2 7q0 3 1 7z" />
<glyph unicode="N" horiz-adv-x="1423" d="M100 18l189 1356q3 21 22 21h109q21 0 33 -21l643 -1110l157 1110q0 9 6.5 15t14.5 6h117q16 0 16 -21l-193 -1356q-4 -18 -22 -18h-107q-21 0 -34 20l-643 1106l-154 -1108q-5 -18 -23 -18h-116q-8 0 -13 5q-3 3 -3 7q0 3 1 6z" />
<glyph unicode="O" horiz-adv-x="1482" d="M131 575q-1 24 -1 47q0 133 34 253q40 141 119 251q95 136 233.5 212.5t298.5 76.5q263 0 436 -176q162 -165 174 -424q1 -27 1 -54q0 -284 -146 -495q-94 -134 -234 -209t-309 -75q-122 0 -232.5 41t-193.5 122q-169 165 -180 430zM293 586q11 -207 131 -330 q124 -127 315 -127q128 0 239 64t183 178q104 166 104 389q0 23 -1 47q-9 192 -119 315q-133 142 -328 142q-119 0 -230.5 -64.5t-185.5 -179.5q-109 -166 -109 -389q0 -22 1 -45z" />
<glyph unicode="P" horiz-adv-x="1196" d="M100 18l191 1358q4 19 18 19h307q247 0 379 -76q203 -113 203 -383q0 -106 -44 -197t-124 -153q-80 -61 -186.5 -85t-263.5 -24h-252l-64 -459q-6 -18 -20 -18h-129q-8 0 -13 5q-3 3 -3 7q0 3 1 6zM348 621h266q109 0 184.5 16t129.5 63q108 97 108 240q0 87 -33 153 t-96 103q-87 55 -262 55h-209z" />
<glyph unicode="Q" horiz-adv-x="1480" d="M139 575q-1 27 -1 53q0 286 151 498q96 137 235 213t299 76q261 0 437 -176q163 -166 172 -424q1 -27 1 -53q0 -284 -147 -496q-85 -122 -207 -195t-270 -83q0 -12 16 -17q120 -43 316 -100.5t297 -73.5q17 -4 17 -14q0 -5 -5 -12l-59 -82q-15 -19 -33 -19q-32 0 -101 18 t-183 57.5t-206 73t-247 91.5q-20 10 -17 37l10 51q-175 28 -297 147q-167 167 -178 430zM301 586q11 -210 131 -330q124 -127 313 -127q130 0 240 63t182 179q105 164 105 380q0 28 -2 56q-9 195 -117 315q-133 142 -328 142q-119 0 -229.5 -64.5t-185.5 -179.5 q-110 -167 -110 -389q0 -22 1 -45z" />
<glyph unicode="R" horiz-adv-x="1212" d="M100 18l189 1356q7 21 20 21h357q250 0 385 -109q129 -106 129 -287q0 -182 -107 -297q-92 -98 -266 -133l311 -542q6 -11 4 -19t-14 -8h-137q-20 0 -31 20l-297 525h-307l-72 -527q-6 -18 -22 -18h-127q-8 0 -13 5q-3 3 -3 7q0 3 1 6zM356 682h252q219 0 324 94 q86 73 86 211q0 126 -76 191q-90 77 -274 77h-232z" />
<glyph unicode="S" horiz-adv-x="1097" d="M66 127l61 100q14 17 29 2q66 -51 141 -79.5t184 -28.5q167 0 258 61q97 62 97 183q0 94 -103 174q-51 40 -131.5 79t-157.5 79.5t-129 88.5q-118 102 -118 248q0 177 125 275q134 104 389 104q92 0 182.5 -21t153.5 -55q9 -5 9 -13q0 -6 -5 -13l-64 -105q-10 -13 -26 -2 q-56 31 -130 49.5t-141 18.5q-174 0 -258 -66q-70 -54 -70 -155q0 -95 103 -174q51 -38 129 -76t155 -78t132 -86q123 -107 123 -260q0 -182 -142 -293q-142 -104 -385 -104q-248 0 -407 118q-9 6 -9 15q0 6 5 14z" />
<glyph unicode="T" horiz-adv-x="1122" d="M117 1270l16 104q1 9 8 15t15 6h1079q7 -1 13 -7q4 -5 4 -10q0 -2 -1 -4l-14 -104q-1 -9 -8 -15t-15 -6h-456l-174 -1231q-3 -18 -21 -18h-127q-19 0 -16 18l174 1231h-461q-16 0 -16 21z" />
<glyph unicode="U" horiz-adv-x="1427" d="M164 444q0 64 12 138l113 792q3 21 20 21h127q8 0 13 -6t4 -15l-111 -774q-10 -72 -10 -125q0 -162 78 -246q86 -102 264 -102q202 0 321 131q107 113 135 311l113 805q7 21 21 21h129q8 0 12.5 -6t3.5 -15l-117 -825q-36 -243 -176 -389q-171 -180 -459 -180 q-248 0 -376 137q-117 120 -117 327z" />
<glyph unicode="V" horiz-adv-x="1259" d="M150 1366q-1 6 -1 11q0 18 21 18h121q21 0 28 -23l275 -1173h4l596 1173q10 23 31 23h123q12 -1 15 -9q1 -3 1 -6q0 -6 -4 -14l-698 -1350q-10 -22 -31 -22h-123q-25 0 -27 22z" />
<glyph unicode="W" horiz-adv-x="1964" d="M135 1366q-1 5 -1 9q0 20 18 20h118q22 0 25 -23l209 -1171h4l526 1171q9 23 33 23h90q22 0 25 -23l223 -1171h4l516 1171q7 23 29 23h125q16 0 16 -12q0 -6 -4 -15l-606 -1354q-7 -20 -31 -20h-129q-25 0 -27 22l-217 1082h-4l-497 -1082q-9 -22 -31 -22h-131 q-24 0 -29 22z" />
<glyph unicode="X" horiz-adv-x="1257" d="M-57 10q-1 2 -1 4q0 8 9 17l620 663l-434 670q-9 10 -3.5 20.5t20.5 10.5h137q17 0 31 -21l356 -555l502 555q18 21 34 21h150q13 -1 16 -11q1 -2 1 -4q0 -8 -9 -16l-614 -672l434 -661q6 -12 1.5 -21.5t-17.5 -9.5h-136q-20 0 -28 16l-361 555l-512 -555 q-13 -16 -33 -16h-147q-13 0 -16 10z" />
<glyph unicode="Y" horiz-adv-x="1167" d="M130 1384q4 11 20 11h135q19 0 28 -21l320 -608l475 608q18 21 35 21h143q17 0 17 -14q0 -9 -9 -17l-596 -752l-82 -594q-7 -18 -22 -18h-127q-8 0 -12.5 5.5t-1.5 12.5l82 594l-402 752q-4 6 -4 13q0 4 1 7z" />
<glyph unicode="Z" horiz-adv-x="1185" d="M-21 10q-1 2 -1 4q0 8 8 17l995 1218h-764q-16 0 -16 21l14 104q8 21 25 21h1009q13 -1 17 -11q2 -4 2 -6q0 -7 -6 -14l-998 -1219h815q9 0 14.5 -5.5t4.5 -14.5l-17 -107q0 -18 -20 -18h-1065q-14 0 -17 10z" />
<glyph unicode="[" horiz-adv-x="688" d="M68 -293l266 1886q4 21 22 21h422q8 0 13 -7t4 -14l-15 -98q0 -7 -6 -12.5t-14 -5.5h-281l-233 -1651h280q20 0 17 -21l-13 -98q-4 -18 -22 -18h-422q-9 0 -14.5 5t-3.5 13z" />
<glyph unicode="\" horiz-adv-x="458" d="M131 1368q-2 10 3.5 18.5t17.5 8.5h106q23 0 29 -27l186 -1341q3 -11 -2 -19t-18 -8h-105q-25 0 -31 25z" />
<glyph unicode="]" horiz-adv-x="651" d="M-45 -293l12 98q2 8 9 14.5t14 6.5h280l232 1651h-281q-19 0 -16 18l14 98q2 8 8.5 14.5t14.5 6.5h422q7 0 12.5 -6.5t3.5 -14.5l-264 -1886q-2 -8 -9 -14t-14 -6h-422q-8 0 -12.5 5.5t-3.5 14.5z" />
<glyph unicode="^" horiz-adv-x="1062" d="M76 842.5q-3 8.5 4 17.5l383 596q13 19 31 19h73q18 0 31 -19l383 -596q7 -9 3.5 -17.5t-17.5 -8.5h-107q-18 0 -33 18l-297 469l-297 -469q-12 -18 -30 -18h-111q-13 0 -16 8.5z" />
<glyph unicode="_" horiz-adv-x="991" d="M-20 -186q0 8 6 14t14 6h991q8 0 14.5 -6.5t6.5 -13.5v-78q0 -9 -6.5 -15t-14.5 -6h-991q-8 0 -14 6t-6 15v78z" />
<glyph unicode="`" horiz-adv-x="854" d="M418 1548q0 17 18 17h103q15 0 26 -21l146 -340q6 -12 6 -22q0 -6 -5.5 -10.5t-11.5 -4.5h-77q-18 0 -29 19l-170 346q-6 9 -6 16z" />
<glyph unicode="a" horiz-adv-x="1009" d="M82 377q0 234 158 389q92 88 212.5 133t245.5 45q139 0 226 -20q16 -3 16 -23v-6l-123 -877q0 -7 -6 -12.5t-14 -5.5h-101q-19 0 -16 18l10 70q-116 -102 -278 -102q-61 0 -124 25t-112 79q-94 104 -94 287zM233 381q0 -129 62 -201q33 -37 77 -55.5t83 -18.5 q141 0 243 113l80 590q-31 5 -69 5q-28 0 -60 -3q-85 -5 -164 -38t-137 -93q-115 -118 -115 -299z" />
<glyph unicode="b" horiz-adv-x="1019" d="M92 23l189 1353q4 19 20 19h113q16 0 16 -19l-70 -493q112 61 234 61q169 0 272 -119q88 -109 88 -274q0 -270 -163 -420q-80 -75 -192.5 -112t-236.5 -37q-161 0 -253 20q-20 3 -17 21zM254 113q74 -11 125 -11q176 0 291 101q133 121 133 342q0 115 -62 190 q-67 80 -178 80q-125 0 -221 -70z" />
<glyph unicode="c" horiz-adv-x="870" d="M82 397q0 115 44 214.5t120 172.5q80 75 182 116.5t209 41.5q149 0 254 -51q10 -4 10 -13q0 -5 -4 -12l-49 -80q-10 -14 -29 -6q-69 35 -186 35q-77 0 -151 -30.5t-130 -86.5q-119 -113 -119 -284q0 -130 74 -217q87 -93 228 -93q128 0 219 56q21 15 30 -4l33 -74 q8 -15 -12 -25q-121 -75 -303 -75q-187 0 -305 118q-115 112 -115 297z" />
<glyph unicode="d" horiz-adv-x="1009" d="M84 403q0 201 127 338q69 73 167 117t204 57q84 17 164 17q28 0 55 -2l61 446q3 19 21 19h112q8 1 13 -5q3 -3 3 -8q0 -3 -1 -6l-189 -1353q-5 -18 -24 -21q-92 -18 -240 -18q-217 0 -348 114q-125 115 -125 305zM236 403q0 -137 79 -210q84 -84 244 -84q70 0 127 8 l94 684q-30 3 -62 3q-42 0 -89 -5q-82 -6 -162 -41t-137 -96q-94 -104 -94 -259z" />
<glyph unicode="e" horiz-adv-x="925" d="M82 393q0 104 37.5 204t105.5 175q71 80 168.5 125t210.5 45q136 0 217 -68q76 -64 76 -167q0 -196 -223 -295q-163 -70 -414 -70h-27q14 -106 84 -174q73 -70 203 -70q140 0 238 62q18 12 24 -4l33 -72q6 -16 -6 -25q-123 -77 -317 -77q-172 0 -285 98 q-125 112 -125 313zM231 436q38 -2 74 -2q170 0 285 47q176 71 176 211q0 53 -37 90q-42 45 -131 45q-75 0 -143.5 -32t-118.5 -93q-93 -114 -105 -266z" />
<glyph unicode="f" horiz-adv-x="679" d="M61 -373l162 1180h-108q-17 0 -17 18l13 82q5 19 20 19h111l22 153q26 164 111 246q91 88 246 88q129 0 245 -61q11 -8 11 -16q0 -5 -5 -11l-51 -82q-10 -12 -26 -4q-79 47 -174 47q-91 0 -146 -61q-49 -60 -69 -189l-17 -110h268q8 0 13 -6t4 -13l-12 -84 q-4 -16 -21 -16h-268l-162 -1180q0 -9 -6.5 -14.5t-14.5 -5.5h-112q-6 0 -11.5 5.5t-5.5 14.5z" />
<glyph unicode="g" horiz-adv-x="1007" d="M-10 -334l49 80q4 9 13 10.5t16 -4.5q126 -88 266 -88q150 0 233 80q80 80 101 227l16 117q-44 -51 -112.5 -78.5t-141.5 -27.5q-170 0 -260 104t-90 281q0 100 32.5 200.5t94.5 182.5q65 88 157 139t205 51q126 0 236 -82l6 47q3 21 20 21h97q15 0 15 -14q0 -3 -1 -7 l-129 -915q-32 -232 -162 -342q-125 -107 -325 -107q-93 0 -181 28t-149 71q-10 6 -10 15q0 5 4 11zM233 379q0 -123 56 -197q62 -78 176 -78q68 0 137 37t105 105l69 495q-93 74 -190 74q-156 0 -256 -139q-45 -63 -71 -142t-26 -155z" />
<glyph unicode="h" horiz-adv-x="1050" d="M90 18l191 1358q0 8 6.5 13.5t15.5 5.5h113q14 0 14 -19l-88 -618h6q45 70 107 116q92 68 213 68q126 0 198 -78q80 -89 80 -254q0 -49 -12 -139l-62 -453q-4 -18 -20 -18h-111q-19 0 -16 18l61 453q11 79 11 123q0 111 -52 172q-47 53 -129 53q-115 0 -196 -84 q-93 -95 -115 -252l-65 -465q-4 -18 -23 -18h-108q-19 0 -19 18z" />
<glyph unicode="i" horiz-adv-x="430" d="M94 18l125 887q0 9 6.5 15t14.5 6h112q8 0 12 -6t3 -15l-125 -887q-3 -18 -19 -18h-112q-18 0 -18 11q0 3 1 7zM266 1364q0 37 28 63.5t66 26.5q37 0 64 -26.5t27 -63.5q0 -38 -27 -65t-64 -27q-38 0 -66 27t-28 65z" />
<glyph unicode="j" horiz-adv-x="430" d="M-109 -397q-7 5 -7 11q0 9 14 19q86 50 128 135.5t62 227.5l127 909q3 21 23 21h112q7 0 12 -6.5t3 -14.5l-132 -940q-46 -330 -249 -438q-8 -4 -15 -4q-12 0 -22 10zM262 1364q0 38 27 64t65 26t65 -26t27 -64t-27 -65t-65 -27t-65 27t-27 65z" />
<glyph unicode="k" horiz-adv-x="919" d="M92 18l191 1358q0 7 6 13t14 6h113q16 0 16 -19l-127 -905l500 440q15 15 29 15h133q13 0 13 -14q0 -7 -5 -11l-406 -350l336 -526q9 -25 -14 -25h-123q-18 0 -25 12l-282 441l-182 -156l-37 -279q-4 -18 -21 -18h-110q-9 0 -14.5 4.5t-4.5 13.5z" />
<glyph unicode="l" horiz-adv-x="428" d="M90 18l191 1358q0 9 6 14t14 5h113q16 0 16 -19l-190 -1358q-3 -18 -21 -18h-115q-17 0 -14 18z" />
<glyph unicode="m" horiz-adv-x="1667" d="M92 18l125 887q0 8 7 14.5t16 6.5h98q8 0 12 -6t2 -15l-22 -157h6q49 77 117 126q95 68 213 68q111 0 174 -63q56 -53 73 -156h7q55 90 137 147q100 72 225 72q138 0 203 -78q80 -86 80 -254q0 -42 -13 -139l-61 -453q-4 -18 -21 -18h-110q-23 0 -17 18l62 453 q10 72 10 123q0 115 -51 172q-43 53 -125 53q-116 0 -197 -84q-42 -45 -73 -115.5t-41 -148.5l-62 -453q-4 -18 -20 -18h-111q-19 0 -16 18l61 453q11 79 11 123q0 113 -50 172q-47 53 -127 53q-114 0 -192 -84q-93 -95 -115 -252l-65 -465q-4 -18 -23 -18h-108 q-9 0 -14.5 4.5t-4.5 13.5z" />
<glyph unicode="n" horiz-adv-x="1050" d="M90 18l125 887q0 8 7 14.5t16 6.5h98q14 0 14 -21l-22 -157h4q53 78 119 126q95 68 215 68q128 0 200 -78q80 -89 80 -254q0 -49 -12 -139l-62 -453q-4 -18 -20 -18h-111q-19 0 -16 18l61 453q11 79 11 123q0 111 -52 172q-47 53 -129 53q-115 0 -196 -84 q-93 -95 -115 -252l-65 -465q-4 -18 -23 -18h-108q-19 0 -19 18z" />
<glyph unicode="o" horiz-adv-x="1056" d="M84 391v11q0 217 115 360q68 86 164 133t206 47q168 0 285 -102q131 -112 137 -308v-21q0 -209 -114 -353q-64 -83 -159.5 -129.5t-211.5 -46.5q-162 0 -277 92q-139 113 -145 317zM233 399q3 -136 91 -221q73 -76 186 -76q78 0 143.5 35.5t110.5 98.5q80 120 80 278v12 q-6 145 -86 222q-74 71 -191 71q-73 0 -138.5 -35.5t-111.5 -99.5q-84 -116 -84 -274v-11z" />
<glyph unicode="p" horiz-adv-x="1015" d="M27 -457l190 1362q3 21 23 21h86q8 0 12 -6t2 -15l-8 -61q129 98 270 98q153 0 250 -102q100 -111 100 -291q0 -261 -159 -410q-78 -75 -189 -114t-239 -39q-57 0 -125 12l-66 -457q0 -18 -20 -18h-111q-16 0 -16 15v5zM256 119q51 -10 125 -10q197 0 307 116 q113 113 113 314q0 127 -64 200q-66 76 -176 76q-120 0 -223 -96z" />
<glyph unicode="q" horiz-adv-x="1026" d="M84 373q0 245 149 403q82 83 196.5 125.5t246.5 42.5q121 0 262 -29q23 -8 20 -26l-188 -1346q-1 -9 -7.5 -14.5t-14.5 -5.5h-111q-8 0 -12.5 5.5t-3.5 14.5l77 549q-19 -19 -55 -47q-82 -61 -213 -61q-159 0 -254 106q-92 109 -92 283zM233 387q0 -133 60 -207 q57 -76 168 -76q104 0 170 60q80 75 108 227l60 414q-82 16 -152 16q-193 0 -309 -129q-105 -120 -105 -305z" />
<glyph unicode="r" horiz-adv-x="772" d="M92 18l123 887q1 9 7 15t14 6h98q20 0 16 -21l-18 -139h6q110 176 287 176q118 0 211 -70q7 -6 7 -13q0 -6 -5 -13l-54 -86q-9 -15 -30 -4q-80 57 -174 57q-54 0 -99.5 -23.5t-74.5 -58.5t-51 -83.5t-33 -91.5t-17 -89l-63 -449q0 -18 -19 -18h-114q-8 0 -13 5.5t-4 12.5 z" />
<glyph unicode="s" horiz-adv-x="749" d="M12 90l43 66q13 19 29 6q88 -72 227 -72q114 0 166 41q55 39 55 115q0 27 -10.5 50t-25 39t-41.5 33.5t-48 28t-57 28t-57 28.5q-47 23 -77 42t-58.5 46.5t-42 63.5t-13.5 83q0 111 97 182q101 72 272 72q146 0 238 -45q12 -8 12 -19q0 -6 -4 -14l-45 -67q-9 -13 -27 -4 q-76 36 -182 36q-108 0 -170 -43q-49 -36 -49 -92q0 -15 2.5 -28t10 -25.5t13 -21t20.5 -19.5t22.5 -17t28.5 -17t30 -15.5t35 -17t36 -17.5q60 -26 95.5 -46t71.5 -50t52.5 -70.5t16.5 -93.5q0 -131 -103 -205q-100 -71 -262 -71q-186 0 -297 79q-9 7 -9 16q0 7 5 15z" />
<glyph unicode="t" horiz-adv-x="681" d="M72 825l12 80q2 8 8.5 14.5t13.5 6.5h111l25 178q4 20 22 20h111q7 0 12 -6t4 -14l-24 -178h315q10 0 14 -6q3 -4 3 -10q0 -2 -1 -5l-12 -80q0 -7 -6 -12.5t-14 -5.5h-316l-61 -432q-13 -97 -13 -113q0 -153 152 -153q85 0 174 57q23 13 29 -4l24 -82q6 -14 -10 -27 q-121 -73 -268 -73q-126 0 -190 65t-64 188q0 52 14 134l62 440h-109q-8 0 -13 5.5t-5 12.5z" />
<glyph unicode="u" horiz-adv-x="1046" d="M121 287q0 53 12 135l68 483q3 21 20 21h113q8 0 12.5 -6t3.5 -15l-67 -479q-13 -84 -13 -123q0 -90 43 -139q53 -62 168 -62q138 0 213 84q63 76 78 197l74 522q0 9 6 15t14 6h113q6 0 10.5 -6t3.5 -15l-75 -530q-21 -180 -125 -281q-112 -112 -322 -112q-185 0 -272 84 q-78 78 -78 221z" />
<glyph unicode="v" horiz-adv-x="937" d="M121 899q-1 4 -1 8q0 5 2 11q4 8 17 8h109q22 0 28 -23l150 -760h4l404 760q9 23 32 23h109q12 0 15 -10q1 -3 1 -6q0 -6 -4 -11l-487 -885q-10 -20 -35 -20h-127q-24 0 -29 22z" />
<glyph unicode="w" horiz-adv-x="1396" d="M90 899q-1 4 -1 7q0 20 20 20h108q22 0 25 -23l137 -725h4l330 725q10 23 32 23h89q21 0 24 -23l129 -725h4l336 725q6 23 33 23h104q15 0 15 -12q0 -6 -4 -15l-420 -887q-10 -18 -33 -18h-117q-21 0 -24 18l-123 680h-4l-316 -676q-7 -22 -32 -22h-119q-12 0 -17 5 t-8 17z" />
<glyph unicode="x" horiz-adv-x="874" d="M-54 14q0 8 7 17l416 440l-285 422q-6 12 -1.5 22.5t17.5 10.5h125q17 0 27 -21l213 -330l299 330q14 21 33 21h118q13 0 17 -11q1 -3 1 -6q0 -8 -7 -16l-394 -412l299 -450q8 -12 3.5 -21.5t-17.5 -9.5h-123q-20 0 -26 16l-230 353l-321 -353q-16 -16 -31 -16h-125 q-15 0 -15 14z" />
<glyph unicode="y" horiz-adv-x="972" d="M-35 -459l15 111q3 14 20 14h37q110 0 201 94q68 65 137 185l-279 954q-2 6 -1.5 12t5.5 10.5t13 4.5h127q20 0 26 -23l207 -774l389 774q10 23 33 23h117q12 0 14 -10v-5q0 -7 -4 -12l-492 -948q-107 -202 -215 -305q-136 -122 -313 -122q-13 0 -25 1q-13 0 -13 11 q0 2 1 5z" />
<glyph unicode="z" horiz-adv-x="829" d="M-19 14q0 9 7 19l653 762h-520q-8 0 -13 5.5t-4 12.5l13 92q7 21 22 21h735q14 0 16 -10q1 -2 0 -4q0 -8 -7 -19l-652 -764h527q9 0 13.5 -5t2.5 -13l-12 -93q-3 -18 -23 -18h-741q-17 0 -17 14z" />
<glyph unicode="{" horiz-adv-x="651" d="M49 600l14 100q0 10 6.5 15.5t14.5 5.5h10q84 0 142 61q64 77 86 230q5 33 15 131t18 154.5t31.5 125.5t57.5 105q84 84 252 84q19 0 19 -21l-13 -84q-3 -18 -22 -18q-86 0 -131 -51q-21 -26 -36.5 -83t-22.5 -108.5t-15.5 -133t-13.5 -114.5q-24 -169 -105 -260 q-58 -61 -147 -90q61 -20 104 -69q58 -67 58 -185q0 -74 -30 -236.5t-30 -215.5q0 -66 33 -99q30 -34 100 -34q20 0 17 -21l-12 -82q-3 -18 -25 -18q-127 0 -191 53q-69 54 -69 170q0 68 31.5 225t31.5 242q0 101 -41 153q-41 48 -110 48h-10q-7 0 -12.5 5t-4.5 15z" />
<glyph unicode="|" horiz-adv-x="458" d="M154 -428v1802q0 8 5.5 14.5t12.5 6.5h113q9 0 14.5 -6.5t5.5 -14.5v-1802q0 -18 -20 -18h-113q-8 0 -13 5t-5 13z" />
<glyph unicode="}" horiz-adv-x="604" d="M-20 -293l12 84q2 19 20 19q87 0 131 53q21 26 36.5 82.5t22.5 107.5t15.5 133t13.5 115q23 167 105 258q54 59 147 90q-64 24 -104 70q-57 66 -57 186q0 74 30.5 237t30.5 216q0 60 -35 98q-35 35 -100 35q-20 0 -17 18l15 84q3 19 22 19q124 0 191 -53q71 -58 71 -170 q0 -68 -32.5 -226t-32.5 -243q0 -98 43 -152q37 -47 110 -47h9q19 0 16 -21l-14 -102q-3 -18 -21 -18h-10q-85 0 -139 -64q-65 -72 -88 -227q-6 -37 -16 -132.5t-18.5 -154t-31.5 -126.5t-57 -103q-81 -84 -250 -84q-21 0 -18 18z" />
<glyph unicode="~" horiz-adv-x="1230" d="M104 487q0 140 80.5 213.5t202.5 73.5q60 0 113 -18.5t92.5 -45.5t76 -54t79.5 -45.5t88 -18.5q65 0 108 33.5t43 107.5q0 9 6 15t15 6h98q20 0 20 -21q0 -140 -80 -212t-202 -72q-59 0 -111.5 18.5t-91.5 45.5t-76 54t-80.5 45.5t-89.5 18.5q-65 0 -108 -35t-43 -109 q0 -18 -23 -18h-96q-21 0 -21 18z" />
<glyph unicode="&#xa1;" horiz-adv-x="468" d="M12 -446l176 958q5 20 23 20h68q19 0 16 -20l-98 -963q0 -20 -19 -20h-151q-8 0 -12 7.5t-3 17.5zM188 850q0 38 28 66t67 28q38 0 65 -28t27 -66t-27 -66t-65 -28q-39 0 -67 28t-28 66z" />
<glyph unicode="&#xa2;" d="M215 397q0 115 44 214.5t120 172.5q74 70 166.5 111t189.5 47l21 139q4 19 20 19h49q7 0 12 -5.5t3 -13.5l-21 -141q121 -6 205 -49q18 -6 6 -25l-49 -80q-10 -14 -29 -6q-69 35 -186 35q-77 0 -151 -30.5t-130 -86.5q-118 -112 -118 -284q0 -132 73 -217q87 -93 228 -93 q124 0 204 52q21 12 31 -4l33 -74q6 -15 -12 -27q-101 -61 -238 -67l-18 -140q-5 -18 -21 -18h-47q-22 0 -16 18l18 140q-168 6 -272 116q-115 112 -115 297z" />
<glyph unicode="&#xa3;" d="M66 18l12 103q1 9 7.5 14.5t14.5 5.5h136q161 127 161 332q0 33 -12 107h-166q-8 0 -12.5 5.5t-3.5 12.5l12 92q1 9 8 15t15 6h114q-30 124 -30 209q0 210 133 346q141 147 370 147q91 0 176.5 -22.5t141.5 -59.5q13 -8 6 -26l-55 -86q-10 -19 -27 -9q-104 68 -242 68 q-159 0 -258 -107q-90 -99 -90 -251q0 -77 31 -209h438q9 0 14.5 -6t2.5 -15l-11 -92q-7 -18 -24 -18h-391q10 -55 10 -99q0 -200 -148 -340h570q18 0 18 -20l-16 -103q0 -7 -6.5 -12.5t-14.5 -5.5h-868q-8 0 -12.5 5.5t-3.5 12.5z" />
<glyph unicode="&#xa4;" horiz-adv-x="1415" d="M98 1315q0 9 6 14l66 68q6 6 14.5 6t14.5 -6l186 -187q141 115 324 115t317 -115l188 189q14 11 29 0l66 -68q14 -14 0 -28l-185 -187q115 -137 115 -321q0 -183 -115 -324l187 -186q11 -15 0 -29l-68 -68q-5 -4 -14 -4t-15 4l-186 189q-135 -113 -319 -113t-326 113 l-182 -187q-6 -4 -15.5 -4t-13.5 4l-68 68q-12 17 0 29l185 186q-111 136 -111 322q0 183 113 321l-187 184q-6 6 -6 15zM303 795q-1 -167 119 -287t287 -119q165 -1 283 118.5t118 287.5q0 166 -117.5 283.5t-283.5 117.5q-168 0 -287.5 -118t-118.5 -283z" />
<glyph unicode="&#xa5;" d="M18 334l11 72q2 8 8.5 14t13.5 6h381l25 176h-379q-9 0 -14.5 6t-4.5 15l11 71q4 19 22 19h324l-336 653q-6 9 -1 19t19 10h144q21 0 28 -23l291 -600l453 600q13 23 35 23h145q14 0 16 -10t-6 -19l-510 -653h324q7 0 12.5 -5.5t5.5 -13.5l-10 -71q-4 -21 -22 -21h-383 l-25 -176h383q7 0 12 -6t4 -14l-10 -72q-2 -8 -8.5 -14.5t-13.5 -6.5h-381l-41 -295q-7 -18 -23 -18h-125q-9 0 -14 5.5t-2 12.5l41 295h-381q-7 0 -13 6.5t-6 14.5z" />
<glyph unicode="&#xa6;" horiz-adv-x="458" d="M154 334q0 8 5.5 14t12.5 6h113q9 0 14.5 -6t5.5 -14v-762q0 -18 -20 -18h-113q-8 0 -13 5t-5 13v762zM154 612v762q0 8 5.5 14.5t12.5 6.5h113q9 0 14.5 -6.5t5.5 -14.5v-762q0 -18 -20 -18h-113q-8 0 -13 5t-5 13z" />
<glyph unicode="&#xa7;" horiz-adv-x="960" d="M-27 -356l52 82q9 19 28 4q106 -80 240 -80q109 0 174 65q61 55 61 152q0 43 -15.5 81.5t-47 74.5t-61 62.5t-76.5 65.5q-14 11 -21 17q-44 36 -68.5 57t-60 58.5t-54 68.5t-32.5 74.5t-14 89.5q0 111 53 193q45 72 152 153q-72 85 -72 193q0 142 94 239q112 121 305 121 q178 0 314 -90q13 -13 4 -27l-51 -81q-10 -20 -29 -5q-106 80 -240 80q-111 0 -180 -69q-55 -55 -55 -148q0 -22 3.5 -42t13.5 -40.5t18 -36t26 -36t28 -32t35 -33t35 -30t39.5 -32.5t38.5 -31q49 -39 79.5 -68.5t65 -72.5t51.5 -91.5t17 -103.5q0 -114 -55 -197 q-43 -67 -150 -147q72 -89 72 -195q0 -148 -104 -252q-114 -108 -295 -108q-178 0 -314 90q-13 13 -4 27zM242 535q0 -61 29 -109.5t83 -99.5q29 -26 89 -74t81 -66q66 47 99 97q36 55 36 127q0 105 -108 202q-30 27 -91 76t-83 68q-73 -53 -101 -99q-34 -59 -34 -122z" />
<glyph unicode="&#xa8;" horiz-adv-x="854" d="M346 1335q0 34 24 59t58 25t58 -25t24 -59q0 -35 -24 -59.5t-58 -24.5t-58 24.5t-24 59.5zM684 1335q0 34 24.5 59t59.5 25q32 0 56 -25t24 -59q0 -35 -23.5 -59.5t-56.5 -24.5q-35 0 -59.5 24.5t-24.5 59.5z" />
<glyph unicode="&#xa9;" horiz-adv-x="1705" d="M96 733q0 154 59.5 294t160.5 241t241 161t295 60q154 0 293.5 -60t240.5 -161t160.5 -241t59.5 -294t-59.5 -293t-160.5 -239.5t-240.5 -159.5t-293.5 -59q-155 0 -295 59t-241 159.5t-160.5 239.5t-59.5 293zM186 733q0 -136 52 -259.5t140.5 -213t212.5 -142 t261 -52.5q136 0 259 52.5t211.5 142t141 213t52.5 259.5q0 182 -88 336t-241 244t-335 90t-335.5 -90t-242 -244t-88.5 -336zM489 727q0 161 115 269t273 108q126 0 219 -49q12 -8 6 -19l-29 -57q-3 -10 -16 -4q-85 43 -183 43q-119 0 -203.5 -83t-84.5 -208 q0 -131 83.5 -211t207.5 -80q105 0 184 43q13 6 16 -4l29 -57q6 -13 -6 -19q-91 -49 -223 -49q-168 0 -278 103t-110 274z" />
<glyph unicode="&#xaa;" horiz-adv-x="600" d="M90 1071q0 136 88 227q55 56 131 85.5t152 29.5q86 0 135 -12q12 -2 12 -19l-71 -526q-2 -12 -15 -12h-55q-5 0 -7 0.5t-4 3t1 8.5l8 59q-62 -79 -176 -79q-93 0 -146 65q-53 63 -53 170zM188 1067q0 -61 33 -106q30 -43 90 -43q69 0 112 46t54 121l33 242q-20 2 -70 2 q-120 -7 -190 -92q-62 -72 -62 -170zM227 573q0 24 18 42t42 18q25 0 42 -17.5t17 -42.5t-17 -41t-42 -16q-24 0 -42 16.5t-18 40.5z" />
<glyph unicode="&#xab;" horiz-adv-x="1193" d="M66 473q4 13 20 29l451 424q20 20 43 20h110q17 0 19 -12t-11 -25l-460 -436l337 -438q9 -13 4 -24t-22 -11h-111q-21 0 -36 18l-332 424q-12 20 -12 31zM547 473q2 11 20 29l451 424q20 20 43 20h108q18 0 21 -12t-10 -25l-461 -436l338 -438q8 -13 2.5 -24t-23.5 -11 h-108q-24 0 -37 18l-334 424q-10 17 -10 31z" />
<glyph unicode="&#xac;" horiz-adv-x="1142" d="M72 664v110q0 8 5.5 13.5t12.5 5.5h961q9 0 14.5 -5.5t5.5 -13.5v-375q0 -20 -20 -20h-103q-20 0 -20 20v246h-838q-7 0 -12.5 5.5t-5.5 13.5z" />
<glyph unicode="&#xad;" horiz-adv-x="950" d="M207 543v102q0 7 6 13t14 6h619q9 0 14.5 -5.5t5.5 -13.5l-2 -102q0 -9 -5 -15t-13 -6h-621q-8 0 -13 6t-5 15z" />
<glyph unicode="&#xae;" horiz-adv-x="950" d="M98 1096q0 156 110.5 266.5t266.5 110.5q157 0 268 -110t111 -267q0 -155 -110 -265t-267 -110q-158 0 -268.5 109.5t-110.5 265.5zM150 1096q0 -134 95 -230t232 -96q135 0 230.5 96t95.5 230q0 136 -95.5 231.5t-232.5 95.5q-135 0 -230 -95.5t-95 -231.5zM326 930v338 q0 16 16 16h147q61 0 100.5 -27t39.5 -86q0 -86 -99 -104l103 -133q7 -10 3.5 -15.5t-13.5 -5.5h-25q-15 0 -23 13l-102 135h-94v-133q0 -6 -5.5 -10.5t-11.5 -4.5h-22q-14 0 -14 17zM379 1106h102q94 0 94 68q0 63 -92 63h-104v-131z" />
<glyph unicode="&#xaf;" horiz-adv-x="854" d="M319 1303l13 86q4 18 22 18h484q8 0 12.5 -5.5t3.5 -12.5l-10 -86q-1 -7 -9 -13t-16 -6h-483q-7 0 -12 5.5t-5 13.5z" />
<glyph unicode="&#xb0;" horiz-adv-x="647" d="M127 1214q0 116 80.5 196.5t195.5 80.5t196 -80.5t81 -196.5q0 -115 -80.5 -194.5t-196.5 -79.5t-196 79.5t-80 194.5zM215 1214q0 -80 54.5 -134t133.5 -54q78 0 133.5 54.5t55.5 133.5q0 78 -55.5 133.5t-133.5 55.5q-79 0 -133.5 -55.5t-54.5 -133.5z" />
<glyph unicode="&#xb1;" horiz-adv-x="1146" d="M80 18v103q0 20 18 20h951q18 0 18 -20v-103q0 -8 -5.5 -13t-12.5 -5h-951q-8 0 -13 5t-5 13zM80 752v102q0 8 5 13t13 5h404v404q0 8 6 14t14 6h103q7 0 12.5 -6t5.5 -14v-404h406q7 0 12.5 -5t5.5 -13v-102q0 -8 -5.5 -14.5t-12.5 -6.5h-406v-403q0 -8 -5.5 -14.5 t-12.5 -6.5h-103q-7 0 -13.5 6.5t-6.5 14.5v403h-404q-7 0 -12.5 6.5t-5.5 14.5z" />
<glyph unicode="&#xb2;" horiz-adv-x="854" d="M209 694l4 33q17 131 92 195q23 22 55 44.5t51.5 34.5t65 37.5t58.5 32.5q61 31 90.5 63.5t29.5 84.5q0 56 -34 86q-32 32 -97 32q-87 0 -176 -53q-13 -9 -18 4l-19 49q-3 11 8 19q105 61 220 61q98 0 151 -53t53 -137q0 -66 -33.5 -112.5t-95.5 -86.5q-25 -15 -75.5 -42 t-89.5 -51t-70 -50q-31 -25 -44 -52.5t-18 -68.5h359q10 0 10 -14l-8 -56q-4 -14 -14 -14h-443q-12 0 -12 14z" />
<glyph unicode="&#xb3;" horiz-adv-x="854" d="M236 737l28 49q8 11 21 5q65 -48 147 -48q78 0 133 43q51 41 51 105q0 57 -38 92t-103 35h-61q-13 0 -13 12l9 49q3 13 14 13h55q76 0 121 45q39 31 39 90q0 52 -31 80q-32 32 -92 32q-66 0 -151 -49q-12 -9 -19 2l-18 49q-3 10 6 17q95 59 194 59q96 0 148 -49 q49 -46 49 -125q0 -58 -33 -106q-36 -51 -98 -76q54 -24 82 -68q26 -42 26 -102q0 -99 -75 -158q-78 -63 -195 -63q-119 0 -192 47q-12 9 -4 20z" />
<glyph unicode="&#xb4;" horiz-adv-x="854" d="M430 1182q0 3 1.5 6.5t4.5 8.5t4 9l213 338q12 21 29 21h102q8 0 13.5 -5t5.5 -12q0 -2 -8 -18l-242 -344q-14 -19 -29 -19h-78q-16 0 -16 15z" />
<glyph unicode="&#xb5;" horiz-adv-x="1046" d="M29 -332l172 1237q3 21 20 21h113q8 0 12.5 -6t3.5 -15l-67 -479q-13 -84 -13 -123q0 -90 43 -139q53 -62 168 -62q138 0 213 84q63 76 78 197l74 522q0 9 6 15t14 6h113q6 0 10.5 -6t3.5 -15l-75 -530q-21 -180 -125 -281q-112 -112 -322 -112q-84 0 -133 24 q-70 28 -100 100l-62 -438q-3 -18 -18 -18h-115q-17 0 -14 18z" />
<glyph unicode="&#xb6;" horiz-adv-x="1269" d="M78 1053q0 198 122.5 305.5t348.5 107.5h647q8 0 14.5 -5.5t6.5 -12.5v-88q0 -8 -6.5 -14.5t-14.5 -6.5h-205v-1728q0 -8 -5.5 -14.5t-12.5 -6.5h-99q-7 0 -12.5 6.5t-5.5 14.5v1728h-240v-1728q0 -8 -5.5 -14.5t-14.5 -6.5h-96q-8 0 -14.5 7t-6.5 14v1026 q-188 10 -294.5 121t-106.5 295z" />
<glyph unicode="&#xb7;" horiz-adv-x="405" d="M197 709q0 38 28 66t68 28q37 0 64.5 -28t27.5 -66q0 -39 -27.5 -67t-64.5 -28q-40 0 -68 27.5t-28 67.5z" />
<glyph unicode="&#xb8;" horiz-adv-x="854" d="M229 -381l7 45q3 17 20 17q4 0 27 -2.5t47 -2.5q40 0 74 9t62 33t34 61q6 43 -28 64.5t-89 21.5q-25 0 -43 -2l35 155h80l-13 -90q80 -6 124.5 -45.5t35.5 -107.5q-7 -50 -36 -87t-71 -56.5t-85 -28.5t-88 -9q-41 0 -76 7q-17 3 -17 18z" />
<glyph unicode="&#xb9;" horiz-adv-x="854" d="M248 694l8 56q0 6 4.5 10t9.5 4h156l78 549l-160 -56q-9 -4 -13.5 -1t-2.5 14l8 55q0 10 14 16l178 66q13 8 29 8h43q10 0 10 -12l-90 -639h144q5 0 8 -4t2 -10l-8 -56q0 -6 -5 -10t-10 -4h-393q-10 0 -10 14z" />
<glyph unicode="&#xba;" horiz-adv-x="622" d="M88 1083q0 130 74 224q86 106 221 106q97 0 166 -59q78 -71 78 -187q0 -130 -74 -223q-81 -104 -219 -104q-96 0 -164 53q-82 72 -82 190zM184 1090q0 -80 49 -129q40 -43 105 -43q86 0 143 77q51 70 51 168q0 81 -45 129q-43 43 -108 43q-86 0 -143 -80 q-52 -68 -52 -165zM217 573q0 25 17 42.5t42 17.5t41.5 -17.5t16.5 -42.5t-16.5 -41t-41.5 -16t-42 16t-17 41z" />
<glyph unicode="&#xbb;" horiz-adv-x="1171" d="M12 11q-2 11 11 24l460 438l-336 436q-11 13 -6 25t25 12h108q24 0 37 -20l334 -424q10 -17 10 -29q-2 -13 -20 -31l-451 -424q-21 -18 -43 -18h-108q-19 0 -21 11zM492.5 11q-1.5 11 11.5 24l461 438l-338 436q-10 13 -5 25t23 12h111q22 0 37 -20l331 -424 q13 -22 13 -29q-3 -8 -21 -31l-450 -424q-21 -18 -43 -18h-111q-18 0 -19.5 11z" />
<glyph unicode="&#xbc;" horiz-adv-x="854" d="M57 -252l9 49q0 11 12 25l385 467q12 12 29 12h61q12 0 12 -12l-67 -475h104q13 0 10 -13l-8 -53q0 -12 -14 -12h-103l-22 -160q0 -4 -3.5 -8t-8.5 -4h-68q-5 0 -8.5 4t-3.5 8l22 160h-327q-5 0 -8.5 4t-2.5 8zM111 463l6 43q0 8 6.5 14t13.5 6h651q7 0 13 -6t6 -14 l-6 -43q-1 -7 -8 -13t-15 -6h-651q-8 0 -12.5 6t-3.5 13zM170 -186h236l51 348zM276 694l9 56q0 6 4.5 10t9.5 4h156l75 549l-155 -56q-12 -4 -16.5 -1t-2.5 14l9 55q0 11 16 16l176 66q16 8 31 8h41q6 0 9 -3.5t1 -8.5l-88 -639h141q14 0 10 -14l-8 -56q0 -14 -12 -14h-393 q-13 0 -13 14z" />
<glyph unicode="&#xbd;" horiz-adv-x="854" d="M92 -418l4 35q17 128 90 195q24 22 56.5 44t51 33t67 37.5t59.5 32.5q61 34 90 65.5t29 81.5q0 51 -33 89q-34 30 -98 30q-91 0 -177 -53q-16 -8 -18 4l-18 49q-3 11 8 19q105 61 219 61q95 0 151 -53q52 -46 52 -137q0 -67 -33 -113t-94 -86q-27 -16 -76.5 -42t-89 -50 t-70.5 -49q-31 -26 -43.5 -54t-17.5 -69h356q6 0 9 -3.5t1 -8.5l-6 -58q-4 -12 -14 -12h-445q-10 0 -10 12zM111 463l6 43q0 8 6.5 14t13.5 6h651q7 0 13 -6t6 -14l-6 -43q-1 -7 -8 -13t-15 -6h-651q-8 0 -12.5 6t-3.5 13zM276 694l9 56q0 6 4.5 10t9.5 4h156l75 549 l-155 -56q-12 -4 -16.5 -1t-2.5 14l9 55q0 11 16 16l176 66q16 8 31 8h41q6 0 9 -3.5t1 -8.5l-88 -639h141q14 0 10 -14l-8 -56q0 -14 -12 -14h-393q-13 0 -13 14z" />
<glyph unicode="&#xbe;" horiz-adv-x="854" d="M57 -252l9 49q0 11 12 25l385 467q12 12 29 12h61q12 0 12 -12l-67 -475h104q13 0 10 -13l-8 -53q0 -12 -14 -12h-103l-22 -160q0 -4 -3.5 -8t-8.5 -4h-68q-5 0 -8.5 4t-3.5 8l22 160h-327q-5 0 -8.5 4t-2.5 8zM111 463l6 43q0 8 6.5 14t13.5 6h651q7 0 13 -6t6 -14 l-6 -43q-1 -7 -8 -13t-15 -6h-651q-8 0 -12.5 6t-3.5 13zM170 -186h236l51 348zM250 737l31 49q6 11 18 5q65 -48 147 -48t134 43q51 41 51 105q0 55 -37 92q-38 35 -105 35h-61q-13 0 -10 12l6 49q3 13 14 13h56q74 0 122 45q37 30 37 90q0 57 -30 80q-29 32 -93 32 q-67 0 -149 -49q-14 -8 -21 2l-18 49q-3 10 8 17q91 59 195 59q93 0 145 -49q49 -46 49 -125q0 -60 -32 -106q-36 -50 -99 -76q53 -23 84 -68q25 -45 25 -102q0 -98 -76 -158q-78 -63 -195 -63q-119 0 -192 47q-12 9 -4 20z" />
<glyph unicode="&#xbf;" horiz-adv-x="866" d="M59 -145q0 134 76 229q41 55 106.5 102t133 93.5t108.5 95.5q32 39 47 76.5t23 91.5q3 20 27 20h75q17 0 23 -18q9 -36 0 -80q-12 -104 -121 -205q-33 -31 -107.5 -83.5t-91.5 -65.5q-143 -100 -143 -240q0 -96 64 -160q72 -63 190 -63q174 0 336 116q18 14 29 -4l30 -82 q6 -17 -14 -34q-176 -133 -408 -133q-173 0 -282 100q-101 94 -101 244zM545 850q0 38 28 66t66 28q39 0 66.5 -27.5t27.5 -66.5q0 -40 -27 -67t-67 -27q-39 0 -66.5 27.5t-27.5 66.5z" />
<glyph unicode="&#xc0;" horiz-adv-x="1232" d="M-32.5 6q-3.5 6 1.5 14l666 1358q11 23 27 23h161q17 0 21 -23l323 -1358q3 -20 -16 -20h-133q-13 0 -17 18l-77 326h-623l-158 -326q-7 -18 -22 -18h-141q-9 0 -12.5 6zM356 477h545l-180 748zM623 1962q0 16 18 16h102q17 0 27 -20l145 -340q7 -14 7 -23q0 -6 -5.5 -10 t-11.5 -4h-78q-18 0 -28 18l-170 347q-6 9 -6 16z" />
<glyph unicode="&#xc1;" horiz-adv-x="1232" d="M-32.5 6q-3.5 6 1.5 14l666 1358q11 23 27 23h161q17 0 21 -23l323 -1358q3 -20 -16 -20h-133q-13 0 -17 18l-77 326h-623l-158 -326q-7 -18 -22 -18h-141q-9 0 -12.5 6zM356 477h545l-180 748zM565 1595l10 25l213 338q11 20 29 20h103q18 0 18 -16q0 -2 -8 -18 l-242 -345q-13 -18 -29 -18h-77q-17 0 -17 14z" />
<glyph unicode="&#xc2;" horiz-adv-x="1232" d="M-32.5 6q-3.5 6 1.5 14l666 1358q11 23 27 23h161q17 0 21 -23l323 -1358q3 -20 -16 -20h-133q-13 0 -17 18l-77 326h-623l-158 -326q-7 -18 -22 -18h-141q-9 0 -12.5 6zM356 477h545l-180 748zM362 1599q2 6 9 13l366 354q20 16 33 16h53q5 0 9 -1.5t5.5 -3t5 -5.5 t5.5 -6l266 -354q9 -10 5.5 -18.5t-15.5 -8.5h-86q-21 0 -35 17l-199 258l-270 -258q-20 -17 -39 -17h-100q-8 0 -11.5 4t-1.5 10z" />
<glyph unicode="&#xc3;" horiz-adv-x="1232" d="M-32.5 6q-3.5 6 1.5 14l666 1358q11 23 27 23h161q17 0 21 -23l323 -1358q3 -20 -16 -20h-133q-13 0 -17 18l-77 326h-623l-158 -326q-7 -18 -22 -18h-141q-9 0 -12.5 6zM356 477h545l-180 748zM432 1704q12 84 65 135t134 51q75 0 151 -59q2 -2 12.5 -9t13 -9t11.5 -7.5 t13 -7.5t12 -6.5t13.5 -6t13 -3.5t14.5 -3t14 -1q81 0 102 77q6 21 25 21h47q25 0 21 -21q-11 -85 -63 -135.5t-134 -50.5q-65 0 -149 60q-25 18 -38 26.5t-36 17.5t-45 9q-83 0 -105 -80q-7 -21 -22 -21h-49q-11 0 -17 6.5t-4 16.5z" />
<glyph unicode="&#xc4;" horiz-adv-x="1232" d="M-32.5 6q-3.5 6 1.5 14l666 1358q11 23 27 23h161q17 0 21 -23l323 -1358q3 -20 -16 -20h-133q-13 0 -17 18l-77 326h-623l-158 -326q-7 -18 -22 -18h-141q-9 0 -12.5 6zM356 477h545l-180 748zM528 1749q0 34 24 59t58 25t58 -25t24 -59q0 -35 -24 -59.5t-58 -24.5 t-58 24.5t-24 59.5zM866 1749q0 34 24.5 59t59.5 25q32 0 56 -25t24 -59q0 -35 -23.5 -59.5t-56.5 -24.5q-35 0 -59.5 24.5t-24.5 59.5z" />
<glyph unicode="&#xc5;" horiz-adv-x="1232" d="M-32.5 6q-3.5 6 1.5 14l666 1358q11 23 27 23h161q17 0 21 -23l323 -1358q3 -20 -16 -20h-133q-13 0 -17 18l-77 326h-623l-158 -326q-7 -18 -22 -18h-141q-9 0 -12.5 6zM356 477h545l-180 748zM520 1765q0 98 70 168t168 70q97 0 166 -70t69 -168q0 -99 -69 -168 t-166 -69q-99 0 -168.5 69t-69.5 168zM596 1765q0 -69 47.5 -117.5t114.5 -48.5q66 0 114 48.5t48 117.5q0 67 -48 115.5t-114 48.5q-67 0 -114.5 -48t-47.5 -116z" />
<glyph unicode="&#xc6;" horiz-adv-x="2066" d="M-39.5 10.5q-2.5 10.5 10.5 22.5l1209 1337q19 25 49 25h860q7 0 12.5 -6.5t5.5 -14.5l-16 -104q0 -9 -7.5 -15t-15.5 -6h-710l-68 -479h606q8 0 13 -5.5t4 -12.5l-15 -107q-4 -18 -22 -18h-606l-66 -482h711q16 0 16 -20l-16 -107q0 -7 -6.5 -12.5t-14.5 -5.5h-854 q-20 0 -20 20l47 324h-602l-287 -324q-23 -20 -41 -20h-160q-14 0 -16.5 10.5zM580 477h505l95 672z" />
<glyph unicode="&#xc7;" horiz-adv-x="1269" d="M127 645q0 108 28.5 209.5t80.5 185.5t126.5 154t162.5 118t191.5 74.5t211.5 26.5q228 0 370 -74q20 -12 11 -30l-58 -101q-9 -15 -30 -8q-129 66 -306 66q-124 0 -238 -47.5t-198 -128.5t-133.5 -195.5t-48.5 -241.5q1 -130 42 -232t112.5 -165t162.5 -95t197 -32 q194 0 315 68q24 9 29 -7l39 -102q7 -20 -12 -29q-137 -73 -344 -79l-7 -52q80 -6 124.5 -45.5t35.5 -107.5q-7 -50 -36 -87t-71 -56.5t-85 -28.5t-88 -9q-41 0 -76 7q-17 3 -17 18l7 45q3 17 20 17q4 0 27 -2.5t47 -2.5q40 0 74 9t62 33t34 61q6 43 -28 64.5t-89 21.5 q-25 0 -43 -2l27 119q-129 5 -239 46.5t-198.5 119.5t-139.5 205.5t-52 291.5z" />
<glyph unicode="&#xc8;" horiz-adv-x="1179" d="M98 18l191 1356q0 8 6.5 14.5t13.5 6.5h865q6 0 10.5 -6t3.5 -13l-17 -108q-3 -19 -18 -19h-719l-67 -479h608q16 0 16 -16l-16 -109q-3 -18 -23 -18h-606l-67 -482h794q8 0 13 -5.5t4 -12.5l-15 -109q-3 -18 -22 -18h-940q-8 0 -12 5.5t-3 12.5zM596 1962q0 16 18 16 h103q16 0 26 -20l146 -340q6 -12 6 -23q0 -6 -5 -10t-11 -4h-78q-19 0 -29 18l-170 347q-6 9 -6 16z" />
<glyph unicode="&#xc9;" horiz-adv-x="1179" d="M98 18l191 1356q0 8 6.5 14.5t13.5 6.5h865q6 0 10.5 -6t3.5 -13l-17 -108q-3 -19 -18 -19h-719l-67 -479h608q16 0 16 -16l-16 -109q-3 -18 -23 -18h-606l-67 -482h794q8 0 13 -5.5t4 -12.5l-15 -109q-3 -18 -22 -18h-940q-8 0 -12 5.5t-3 12.5zM592 1602q0 3 1.5 6.5 t4.5 8.5t4 9l213 338q12 21 29 21h102q8 0 13.5 -5t5.5 -12l-9 -18l-241 -344q-14 -19 -29 -19h-78q-16 0 -16 15z" />
<glyph unicode="&#xca;" horiz-adv-x="1179" d="M98 18l191 1356q0 8 6.5 14.5t13.5 6.5h865q6 0 10.5 -6t3.5 -13l-17 -108q-3 -19 -18 -19h-719l-67 -479h608q16 0 16 -16l-16 -109q-3 -18 -23 -18h-606l-67 -482h794q8 0 13 -5.5t4 -12.5l-15 -109q-3 -18 -22 -18h-940q-8 0 -12 5.5t-3 12.5zM372 1599q2 6 9 13 l367 354q20 16 32 16h54q6 0 9.5 -1.5t8.5 -7.5t6 -7l266 -354q9 -10 5.5 -18.5t-15.5 -8.5h-86q-21 0 -35 17l-198 258l-271 -258q-20 -17 -39 -17h-100q-8 0 -11.5 4t-1.5 10z" />
<glyph unicode="&#xcb;" horiz-adv-x="1179" d="M98 18l191 1356q0 8 6.5 14.5t13.5 6.5h865q6 0 10.5 -6t3.5 -13l-17 -108q-3 -19 -18 -19h-719l-67 -479h608q16 0 16 -16l-16 -109q-3 -18 -23 -18h-606l-67 -482h794q8 0 13 -5.5t4 -12.5l-15 -109q-3 -18 -22 -18h-940q-8 0 -12 5.5t-3 12.5zM510 1749q0 34 24 59 t58 25t58 -25t24 -59q0 -35 -24 -59.5t-58 -24.5t-58 24.5t-24 59.5zM848 1749q0 34 24.5 59t59.5 25q32 0 56 -25t24 -59q0 -35 -23.5 -59.5t-56.5 -24.5q-35 0 -59.5 24.5t-24.5 59.5z" />
<glyph unicode="&#xcc;" horiz-adv-x="473" d="M98 18l191 1358q0 8 5.5 13.5t12.5 5.5h129q7 0 12 -5.5t5 -13.5l-191 -1358q-6 -18 -20 -18h-129q-18 0 -15 18zM264 1962q0 16 19 16h102q17 0 27 -20l145 -340q6 -12 6 -23q0 -6 -5 -10t-11 -4h-78q-19 0 -29 18l-170 347q-6 9 -6 16z" />
<glyph unicode="&#xcd;" horiz-adv-x="473" d="M98 18l191 1358q0 8 5.5 13.5t12.5 5.5h129q7 0 12 -5.5t5 -13.5l-191 -1358q-6 -18 -20 -18h-129q-18 0 -15 18zM217 1595l10 25l213 338q11 20 29 20h102q19 0 19 -16q0 -2 -8 -18l-242 -345q-13 -18 -29 -18h-78q-16 0 -16 14z" />
<glyph unicode="&#xce;" horiz-adv-x="473" d="M11.5 1593.5q-1.5 8.5 8.5 18.5l367 354q20 16 33 16h53q5 0 9 -1.5t5.5 -3t5 -5.5t5.5 -6l266 -354q9 -10 5.5 -18.5t-15.5 -8.5h-86q-21 0 -35 17l-199 258l-270 -258q-20 -17 -39 -17h-100q-12 0 -13.5 8.5zM100 18l191 1358q0 8 5.5 13.5t12.5 5.5h129q7 0 12 -5.5 t5 -13.5l-191 -1358q-6 -18 -20 -18h-129q-18 0 -15 18z" />
<glyph unicode="&#xcf;" horiz-adv-x="473" d="M98 18l191 1358q0 8 5.5 13.5t12.5 5.5h129q7 0 12 -5.5t5 -13.5l-191 -1358q-6 -18 -20 -18h-129q-18 0 -15 18zM158 1749q0 34 24 59t58 25t58 -25t24 -59q0 -35 -24 -59.5t-58 -24.5t-58 24.5t-24 59.5zM496 1749q0 34 24.5 59t59.5 25q32 0 55.5 -25t23.5 -59 q0 -35 -23.5 -59.5t-55.5 -24.5q-35 0 -59.5 24.5t-24.5 59.5z" />
<glyph unicode="&#xd0;" horiz-adv-x="1419" d="M-33 647l15 101q2 8 8.5 14t13.5 6h182l86 608q4 19 21 19h334q369 0 565 -203q180 -186 180 -487q0 -169 -65.5 -305t-186.5 -232q-116 -92 -269 -130t-347 -38h-408q-7 0 -11.5 5t-2.5 13l84 609h-182q-7 0 -12 6t-5 14zM262 137h273q150 0 266.5 29t206.5 100 q97 75 149.5 186t52.5 248q0 117 -38 219t-107 177q-146 159 -440 159h-207l-68 -487h328q8 0 13 -6t3 -14l-14 -101q0 -7 -7.5 -13.5t-15.5 -6.5h-327z" />
<glyph unicode="&#xd1;" horiz-adv-x="1425" d="M100 18l189 1356q3 21 22 21h109q21 0 33 -21l643 -1110l157 1110q0 9 6.5 15t14.5 6h117q16 0 16 -21l-193 -1356q-4 -18 -22 -18h-107q-21 0 -34 20l-643 1106l-154 -1108q-5 -18 -23 -18h-116q-8 0 -13 5t-2 13zM571 1745q12 84 65 135t134 51q76 0 152 -59 q1 -1 15.5 -11t17 -11.5t14.5 -9t17.5 -9.5t15 -6t18.5 -5t18 -1q82 0 103 77q6 21 24 21h47q24 0 21 -21q-11 -85 -63 -135.5t-134 -50.5q-66 0 -149 59q-26 19 -38.5 27t-35.5 17.5t-45 9.5q-82 0 -104 -80q-7 -21 -23 -21h-49q-11 0 -17 6.5t-4 16.5z" />
<glyph unicode="&#xd2;" horiz-adv-x="1445" d="M104 575q-7 159 33 300t119 251q95 136 233.5 212.5t298.5 76.5q264 0 437 -176q162 -165 174 -424q15 -317 -146 -549q-94 -134 -233.5 -209t-308.5 -75q-122 0 -232.5 41t-193.5 122q-170 166 -181 430zM266 586q11 -207 131 -330q124 -127 316 -127q128 0 239 64 t183 178q114 182 102 436q-9 192 -119 315q-133 142 -327 142q-119 0 -230.5 -64.5t-185.5 -179.5q-121 -184 -109 -434zM786 1962q0 16 19 16h102q17 0 27 -20l145 -340q6 -12 6 -23q0 -6 -5 -10t-11 -4h-78q-18 0 -28 18l-170 347q-7 10 -7 16z" />
<glyph unicode="&#xd3;" horiz-adv-x="1445" d="M104 575q-7 159 33 300t119 251q95 136 233.5 212.5t298.5 76.5q264 0 437 -176q162 -165 174 -424q15 -317 -146 -549q-94 -134 -233.5 -209t-308.5 -75q-122 0 -232.5 41t-193.5 122q-170 166 -181 430zM266 586q11 -207 131 -330q124 -127 316 -127q128 0 239 64 t183 178q114 182 102 436q-9 192 -119 315q-133 142 -327 142q-119 0 -230.5 -64.5t-185.5 -179.5q-121 -184 -109 -434zM678 1595l10 25l213 338q11 20 29 20h102q19 0 19 -16l-9 -18l-241 -345q-13 -18 -29 -18h-78q-16 0 -16 14z" />
<glyph unicode="&#xd4;" horiz-adv-x="1445" d="M104 575q-7 159 33 300t119 251q95 136 233.5 212.5t298.5 76.5q264 0 437 -176q162 -165 174 -424q15 -317 -146 -549q-94 -134 -233.5 -209t-308.5 -75q-122 0 -232.5 41t-193.5 122q-170 166 -181 430zM266 586q11 -207 131 -330q124 -127 316 -127q128 0 239 64 t183 178q114 182 102 436q-9 192 -119 315q-133 142 -327 142q-119 0 -230.5 -64.5t-185.5 -179.5q-121 -184 -109 -434zM485 1599q2 6 9 13l366 354q20 16 33 16h53q5 0 9 -1.5t5.5 -3t5 -5.5t5.5 -6l266 -354q9 -10 5.5 -18.5t-15.5 -8.5h-86q-21 0 -35 17l-199 258 l-270 -258q-20 -17 -39 -17h-100q-8 0 -11.5 4t-1.5 10z" />
<glyph unicode="&#xd5;" horiz-adv-x="1445" d="M104 575q-7 159 33 300t119 251q95 136 233.5 212.5t298.5 76.5q264 0 437 -176q162 -165 174 -424q15 -317 -146 -549q-94 -134 -233.5 -209t-308.5 -75q-122 0 -232.5 41t-193.5 122q-170 166 -181 430zM266 586q11 -207 131 -330q124 -127 316 -127q128 0 239 64 t183 178q114 182 102 436q-9 192 -119 315q-133 142 -327 142q-119 0 -230.5 -64.5t-185.5 -179.5q-121 -184 -109 -434zM547 1704q12 84 64.5 135t133.5 51q76 0 152 -59q2 -2 12.5 -9t13 -9t11.5 -7.5t13 -7.5t12 -6.5t13.5 -6t13 -3.5t14.5 -3t14 -1q81 0 102 77 q6 21 25 21h47q24 0 20 -21q-11 -85 -62.5 -135.5t-133.5 -50.5q-66 0 -150 60q-25 18 -38 26.5t-36 17.5t-45 9q-82 0 -104 -80q-7 -21 -23 -21h-49q-24 0 -20 23z" />
<glyph unicode="&#xd6;" horiz-adv-x="1445" d="M104 575q-7 159 33 300t119 251q95 136 233.5 212.5t298.5 76.5q264 0 437 -176q162 -165 174 -424q15 -317 -146 -549q-94 -134 -233.5 -209t-308.5 -75q-122 0 -232.5 41t-193.5 122q-170 166 -181 430zM266 586q11 -207 131 -330q124 -127 316 -127q128 0 239 64 t183 178q114 182 102 436q-9 192 -119 315q-133 142 -327 142q-119 0 -230.5 -64.5t-185.5 -179.5q-121 -184 -109 -434zM633 1749q0 34 24 59t58 25t58 -25t24 -59q0 -35 -24 -59.5t-58 -24.5t-58 24.5t-24 59.5zM971 1749q0 34 24.5 59t59.5 25q32 0 56 -25t24 -59 q0 -35 -23.5 -59.5t-56.5 -24.5q-35 0 -59.5 24.5t-24.5 59.5z" />
<glyph unicode="&#xd7;" horiz-adv-x="987" d="M52 1070q0 8 5 13l74 74q5 5 14 5t13 -5l334 -334l335 334q4 6 13 6t14 -6l74 -74q11 -11 0 -26l-336 -334l336 -336q4 -5 4 -14t-4 -13l-74 -73q-4 -5 -13 -5t-14 5l-335 336l-334 -336q-4 -5 -13 -5t-14 5l-74 73q-11 14 0 29l334 334l-334 334q-5 5 -5 13z" />
<glyph unicode="&#xd8;" horiz-adv-x="1445" d="M71.5 8.5q-2.5 8.5 6.5 20.5l155 170q-123 155 -131 376q-7 159 33 300t119 251q95 136 233.5 212.5t298.5 76.5q244 0 414 -153l105 114q15 19 28 19h84q12 0 14.5 -9.5t-6.5 -19.5l-159 -176q119 -153 131 -375q15 -317 -146 -549q-94 -134 -233.5 -209t-308.5 -75 q-244 0 -408 145l-100 -109q-15 -18 -31 -18h-84q-12 0 -14.5 8.5zM264 586q9 -159 78 -267l752 826q-128 119 -306 119q-119 0 -229.5 -64.5t-185.5 -179.5q-121 -184 -109 -434zM406 244q124 -115 305 -115q128 0 239 64t183 178q114 182 102 436q-9 157 -80 262z" />
<glyph unicode="&#xd9;" horiz-adv-x="1429" d="M164 444q0 64 12 138l113 792q3 21 20 21h127q8 0 13 -6t4 -15l-111 -774q-10 -72 -10 -125q0 -162 78 -246q86 -102 264 -102q202 0 321 131q107 113 135 311l113 805q7 21 21 21h129q8 0 12.5 -6t3.5 -15l-117 -825q-36 -243 -176 -389q-171 -180 -459 -180 q-248 0 -376 137q-117 120 -117 327zM690 1962q0 16 19 16h102q17 0 27 -20l145 -340q6 -12 6 -23q0 -6 -5 -10t-11 -4h-78q-19 0 -29 18l-170 347q-6 9 -6 16z" />
<glyph unicode="&#xda;" horiz-adv-x="1429" d="M164 444q0 64 12 138l113 792q3 21 20 21h127q8 0 13 -6t4 -15l-111 -774q-10 -72 -10 -125q0 -162 78 -246q86 -102 264 -102q202 0 321 131q107 113 135 311l113 805q7 21 21 21h129q8 0 12.5 -6t3.5 -15l-117 -825q-36 -243 -176 -389q-171 -180 -459 -180 q-248 0 -376 137q-117 120 -117 327zM705 1595l10 25l213 338q11 20 28 20h103q18 0 18 -16q0 -2 -8 -18l-242 -345q-13 -18 -28 -18h-78q-16 0 -16 14z" />
<glyph unicode="&#xdb;" horiz-adv-x="1429" d="M164 444q0 64 12 138l113 792q3 21 20 21h127q8 0 13 -6t4 -15l-111 -774q-10 -72 -10 -125q0 -162 78 -246q86 -102 264 -102q202 0 321 131q107 113 135 311l113 805q7 21 21 21h129q8 0 12.5 -6t3.5 -15l-117 -825q-36 -243 -176 -389q-171 -180 -459 -180 q-248 0 -376 137q-117 120 -117 327zM485 1599q2 6 9 13l366 354q20 16 33 16h53q5 0 9 -1.5t5.5 -3t5 -5.5t5.5 -6l266 -354q9 -10 5.5 -18.5t-15.5 -8.5h-86q-21 0 -35 17l-199 258l-270 -258q-20 -17 -39 -17h-100q-8 0 -11.5 4t-1.5 10z" />
<glyph unicode="&#xdc;" horiz-adv-x="1429" d="M164 444q0 64 12 138l113 792q3 21 20 21h127q8 0 13 -6t4 -15l-111 -774q-10 -72 -10 -125q0 -162 78 -246q86 -102 264 -102q202 0 321 131q107 113 135 311l113 805q7 21 21 21h129q8 0 12.5 -6t3.5 -15l-117 -825q-36 -243 -176 -389q-171 -180 -459 -180 q-248 0 -376 137q-117 120 -117 327zM629 1749q0 34 24 59t58 25t58 -25t24 -59q0 -35 -24 -59.5t-58 -24.5t-58 24.5t-24 59.5zM967 1749q0 34 24.5 59t59.5 25q32 0 55.5 -25t23.5 -59q0 -35 -23.5 -59.5t-55.5 -24.5q-35 0 -59.5 24.5t-24.5 59.5z" />
<glyph unicode="&#xdd;" horiz-adv-x="1167" d="M130 1384.5q4 10.5 20 10.5h135q19 0 28 -21l320 -608l475 608q18 21 35 21h143q15 0 17 -10.5t-9 -20.5l-596 -752l-82 -594q-7 -18 -22 -18h-127q-8 0 -12.5 5.5t-1.5 12.5l82 594l-402 752q-7 10 -3 20.5zM567 1513q0 3 2 6.5t4.5 9t4.5 9.5l213 338q11 20 28 20h103 q18 0 18 -16q0 -2 -8 -18l-242 -344q-8 -12 -13 -15.5t-15 -3.5h-78q-17 0 -17 14z" />
<glyph unicode="&#xde;" horiz-adv-x="1173" d="M74 -279l233 1655q0 7 6.5 13t14.5 6h127q7 0 11.5 -5.5t2.5 -13.5l-37 -270h160q249 0 379 -74q203 -116 203 -385q0 -107 -43.5 -198t-124.5 -152q-80 -61 -187 -85t-264 -24h-252l-65 -467q-3 -20 -21 -20h-127q-8 0 -12.5 5.5t-3.5 14.5zM324 332h266q108 0 184.5 17 t128.5 65q109 94 109 237q0 180 -129 258q-90 54 -262 54h-207z" />
<glyph unicode="&#xdf;" horiz-adv-x="1105" d="M74 -117l159 1133q22 177 121 282q109 115 291 115q161 0 260 -80q90 -77 90 -211q0 -139 -133 -217q-29 -18 -86 -44t-82.5 -45t-25.5 -44q0 -30 25.5 -54.5t86 -60.5t88.5 -57q152 -104 152 -264q0 -154 -117 -250q-118 -106 -305 -106q-188 0 -293 94q-15 12 -4 26 l49 82q12 20 27 8q84 -84 227 -84q117 0 193 60q80 61 80 158q0 32 -11 61.5t-24.5 49.5t-42 45t-45 36.5t-52.5 36.5q-5 4 -36 24t-38.5 26t-31 23.5t-31 28t-20.5 28t-17 34.5t-4 37q0 24 10 43.5t32 35.5t41.5 26.5t53 27t52.5 26.5q62 35 97.5 77t35.5 108q0 88 -53 141 q-57 51 -156 51q-116 0 -178 -78q-58 -66 -78 -206l-158 -1125q-4 -18 -20 -18h-111q-21 0 -18 20z" />
<glyph unicode="&#xe0;" horiz-adv-x="1009" d="M82 377q0 234 158 389q92 88 212.5 133t245.5 45q139 0 226 -20q19 -4 16 -29l-123 -877q0 -7 -6 -12.5t-14 -5.5h-101q-19 0 -16 18l10 70q-116 -102 -278 -102q-61 0 -124 25t-112 79q-94 104 -94 287zM233 381q0 -129 62 -201q33 -37 77 -55.5t83 -18.5q141 0 243 113 l80 590q-55 8 -129 2q-85 -5 -164 -38t-137 -93q-115 -118 -115 -299zM461 1550q0 17 18 17h103q16 0 26 -21l146 -340q6 -12 6 -22q0 -6 -5.5 -10.5t-11.5 -4.5h-77q-18 0 -29 19l-170 346q-6 9 -6 16z" />
<glyph unicode="&#xe1;" horiz-adv-x="1009" d="M82 377q0 234 158 389q92 88 212.5 133t245.5 45q139 0 226 -20q19 -4 16 -29l-123 -877q0 -7 -6 -12.5t-14 -5.5h-101q-19 0 -16 18l10 70q-116 -102 -278 -102q-61 0 -124 25t-112 79q-94 104 -94 287zM233 381q0 -129 62 -201q33 -37 77 -55.5t83 -18.5q141 0 243 113 l80 590q-55 8 -129 2q-85 -5 -164 -38t-137 -93q-115 -118 -115 -299zM432 1182q0 3 1.5 6.5t4.5 8.5t4 9l213 338q12 21 29 21h102q8 0 13.5 -5t5.5 -12q0 -2 -8 -18l-242 -344q-14 -19 -29 -19h-77q-17 0 -17 15z" />
<glyph unicode="&#xe2;" horiz-adv-x="1009" d="M82 377q0 234 158 389q92 88 212.5 133t245.5 45q139 0 226 -20q19 -4 16 -29l-123 -877q0 -7 -6 -12.5t-14 -5.5h-101q-19 0 -16 18l10 70q-116 -102 -278 -102q-61 0 -124 25t-112 79q-94 104 -94 287zM233 381q0 -129 62 -201q33 -37 77 -55.5t83 -18.5q141 0 243 113 l80 590q-55 8 -129 2q-85 -5 -164 -38t-137 -93q-115 -118 -115 -299zM259 1181q2 6 9 13l367 354q21 17 33 17h53q6 0 10 -2t8 -7.5t6 -7.5l267 -354q9 -10 5 -18.5t-16 -8.5h-86q-20 0 -34 17l-199 258l-270 -258q-20 -17 -39 -17h-101q-8 0 -11.5 4t-1.5 10z" />
<glyph unicode="&#xe3;" horiz-adv-x="1009" d="M82 377q0 234 158 389q92 88 212.5 133t245.5 45q139 0 226 -20q19 -4 16 -29l-123 -877q0 -7 -6 -12.5t-14 -5.5h-101q-19 0 -16 18l10 70q-116 -102 -278 -102q-61 0 -124 25t-112 79q-94 104 -94 287zM233 381q0 -129 62 -201q33 -37 77 -55.5t83 -18.5q141 0 243 113 l80 590q-55 8 -129 2q-85 -5 -164 -38t-137 -93q-115 -118 -115 -299zM279 1290q12 84 64.5 135.5t133.5 51.5q75 0 152 -60q1 -1 15.5 -11t17 -11.5t14.5 -9t17.5 -9.5t15 -6t18.5 -5t18 -1q82 0 103 78q6 20 24 20h48q23 0 20 -20q-11 -85 -63 -136t-134 -51 q-65 0 -149 60q-25 18 -38 26.5t-36 17.5t-45 9q-82 0 -104 -80q-7 -20 -23 -20h-49q-24 0 -20 22z" />
<glyph unicode="&#xe4;" horiz-adv-x="1009" d="M82 377q0 234 158 389q92 88 212.5 133t245.5 45q139 0 226 -20q19 -4 16 -29l-123 -877q0 -7 -6 -12.5t-14 -5.5h-101q-19 0 -16 18l10 70q-116 -102 -278 -102q-61 0 -124 25t-112 79q-94 104 -94 287zM233 381q0 -129 62 -201q33 -37 77 -55.5t83 -18.5q141 0 243 113 l80 590q-55 8 -129 2q-85 -5 -164 -38t-137 -93q-115 -118 -115 -299zM412 1335q0 34 24 59t58 25q33 0 57 -25t24 -59q0 -35 -23.5 -59.5t-57.5 -24.5t-58 24.5t-24 59.5zM750 1335q0 34 24.5 59t59.5 25q32 0 55.5 -25t23.5 -59q0 -35 -23.5 -59.5t-55.5 -24.5 q-35 0 -59.5 24.5t-24.5 59.5z" />
<glyph unicode="&#xe5;" horiz-adv-x="1009" d="M82 377q0 234 158 389q92 88 212.5 133t245.5 45q139 0 226 -20q19 -4 16 -29l-123 -877q0 -7 -6 -12.5t-14 -5.5h-101q-19 0 -16 18l10 70q-116 -102 -278 -102q-61 0 -124 25t-112 79q-94 104 -94 287zM233 381q0 -129 62 -201q33 -37 77 -55.5t83 -18.5q141 0 243 113 l80 590q-55 8 -129 2q-85 -5 -164 -38t-137 -93q-115 -118 -115 -299zM373 1356q0 98 69.5 167.5t167.5 69.5q97 0 166.5 -69.5t69.5 -167.5q0 -99 -69.5 -168.5t-166.5 -69.5q-98 0 -167.5 69t-69.5 169zM449 1356q0 -69 47 -117.5t114 -48.5q66 0 114 48.5t48 117.5 q0 67 -48 115.5t-114 48.5q-67 0 -114 -48t-47 -116z" />
<glyph unicode="&#xe6;" horiz-adv-x="1572" d="M82 377q0 234 158 389q92 88 212.5 133t245.5 45q139 0 226 -20q19 -4 16 -29l-10 -68q141 115 321 115q136 0 217 -68q76 -64 76 -167q0 -196 -223 -295q-172 -74 -440 -70q14 -106 84 -174q73 -70 202 -70q140 0 238 62q18 12 25 -4l32 -72q6 -16 -6 -25 q-123 -77 -317 -77q-172 0 -285 98q-4 4 -12.5 12t-12.5 12l-12 -86q0 -7 -6 -12.5t-14 -5.5h-101q-19 0 -16 18l10 70q-119 -102 -278 -102q-61 0 -124 25t-112 79q-94 104 -94 287zM233 381q0 -129 62 -201q33 -37 77 -55.5t83 -18.5q140 0 243 111l80 592q-55 8 -129 2 q-187 -14 -301 -131q-115 -118 -115 -299zM877 438q213 -15 360 43q176 71 176 211q0 53 -37 90q-42 45 -131 45q-75 0 -143.5 -32t-118.5 -93q-94 -111 -106 -264z" />
<glyph unicode="&#xe7;" horiz-adv-x="870" d="M82 397q0 115 44 214.5t120 172.5q80 75 182 116.5t209 41.5q149 0 254 -51q17 -7 6 -25l-49 -80q-10 -14 -29 -6q-69 35 -186 35q-77 0 -151 -30.5t-130 -86.5q-119 -113 -119 -284q0 -130 74 -217q87 -93 228 -93q128 0 219 56q21 15 30 -4l33 -74q8 -15 -12 -25 q-110 -67 -264 -73l-6 -56q80 -6 124 -45.5t35 -107.5q-7 -50 -36 -87t-71 -56.5t-85 -28.5t-88 -9q-41 0 -76 7q-16 3 -16 18l6 45q3 17 20 17q4 0 27 -2.5t47 -2.5q40 0 74 9t62 33t34 61q6 43 -28 64.5t-89 21.5q-25 0 -43 -2l27 121q-165 16 -262 116q-115 112 -115 297 z" />
<glyph unicode="&#xe8;" horiz-adv-x="925" d="M82 393q0 104 37.5 204t105.5 175q71 80 168.5 125t210.5 45q136 0 217 -68q76 -64 76 -167q0 -196 -223 -295q-172 -74 -441 -70q14 -106 84 -174q73 -70 203 -70q140 0 238 62q18 12 24 -4l33 -72q6 -16 -6 -25q-123 -77 -317 -77q-172 0 -285 98q-125 112 -125 313z M231 436q219 -12 359 45q176 71 176 211q0 53 -37 90q-42 45 -131 45q-75 0 -143.5 -32t-118.5 -93q-93 -114 -105 -266zM422 1550q0 17 18 17h103q15 0 26 -21l146 -340q6 -12 6 -22q0 -6 -5 -10.5t-11 -4.5h-78q-18 0 -29 19l-170 346q-6 9 -6 16z" />
<glyph unicode="&#xe9;" horiz-adv-x="925" d="M82 393q0 104 37.5 204t105.5 175q71 80 168.5 125t210.5 45q136 0 217 -68q76 -64 76 -167q0 -196 -223 -295q-172 -74 -441 -70q14 -106 84 -174q73 -70 203 -70q140 0 238 62q18 12 24 -4l33 -72q6 -16 -6 -25q-123 -77 -317 -77q-172 0 -285 98q-125 112 -125 313z M231 436q219 -12 359 45q176 71 176 211q0 53 -37 90q-42 45 -131 45q-75 0 -143.5 -32t-118.5 -93q-93 -114 -105 -266zM401 1182q0 3 2 6.5t4.5 8.5l4.5 9l213 338q12 21 28 21h103q18 0 18 -17q0 -2 -8 -18l-242 -344q-8 -12 -13 -15.5t-15 -3.5h-78q-17 0 -17 15z" />
<glyph unicode="&#xea;" horiz-adv-x="989" d="M82 393q0 104 37.5 204t105.5 175q71 80 168.5 125t210.5 45q136 0 217 -68q76 -64 76 -167q0 -196 -223 -295q-172 -74 -441 -70q14 -106 84 -174q73 -70 203 -70q140 0 238 62q18 12 24 -4l33 -72q6 -16 -6 -25q-123 -77 -317 -77q-172 0 -285 98q-125 112 -125 313z M202 1181q2 6 9 13l367 354q21 17 32 17h54q6 0 10 -2t8 -7.5t6 -7.5l266 -354q9 -10 5.5 -18.5t-15.5 -8.5h-86q-21 0 -35 17l-198 258l-271 -258q-20 -17 -39 -17h-100q-8 0 -11.5 4t-1.5 10zM231 436q219 -12 359 45q176 71 176 211q0 53 -37 90q-42 45 -131 45 q-75 0 -143.5 -32t-118.5 -93q-93 -114 -105 -266z" />
<glyph unicode="&#xeb;" horiz-adv-x="972" d="M82 393q0 104 37.5 204t105.5 175q71 80 168.5 125t210.5 45q136 0 217 -68q76 -64 76 -167q0 -196 -223 -295q-172 -74 -441 -70q14 -106 84 -174q73 -70 203 -70q140 0 238 62q18 12 24 -4l33 -72q6 -16 -6 -25q-123 -77 -317 -77q-172 0 -285 98q-125 112 -125 313z M231 436q219 -12 359 45q176 71 176 211q0 53 -37 90q-42 45 -131 45q-75 0 -143.5 -32t-118.5 -93q-93 -114 -105 -266zM379 1335q0 34 24 59t58 25t58 -25t24 -59q0 -35 -24 -59.5t-58 -24.5t-58 24.5t-24 59.5zM717 1335q0 34 24.5 59t59.5 25q32 0 56 -25t24 -59 q0 -35 -23.5 -59.5t-56.5 -24.5q-35 0 -59.5 24.5t-24.5 59.5z" />
<glyph unicode="&#xec;" horiz-adv-x="430" d="M94 18l125 887q0 9 6.5 15t14.5 6h112q8 0 12 -6t3 -15l-125 -887q-3 -18 -19 -18h-112q-23 0 -17 18zM201 1550q0 17 18 17h103q16 0 26 -21l146 -340q6 -12 6 -22q0 -6 -5.5 -10.5t-11.5 -4.5h-77q-18 0 -29 19l-170 346q-6 9 -6 16z" />
<glyph unicode="&#xed;" horiz-adv-x="430" d="M94 18l125 887q0 9 6.5 15t14.5 6h112q8 0 12 -6t3 -15l-125 -887q-3 -18 -19 -18h-112q-23 0 -17 18zM168 1182q0 3 1.5 6.5t4.5 8.5t4 9l213 338q12 21 29 21h102q8 0 13.5 -5t5.5 -12l-9 -18l-241 -344q-14 -19 -29 -19h-78q-16 0 -16 15z" />
<glyph unicode="&#xee;" horiz-adv-x="430" d="M-52 1181q2 6 9 13l367 354q21 17 32 17h54q6 0 10 -2t8 -7.5t6 -7.5l266 -354q9 -10 5.5 -18.5t-15.5 -8.5h-86q-21 0 -35 17l-198 258l-271 -258q-20 -17 -39 -17h-100q-8 0 -11.5 4t-1.5 10zM90 18l125 887q0 9 6.5 15t14.5 6h112q8 0 12 -6t2 -15l-124 -887 q-3 -18 -19 -18h-113q-22 0 -16 18z" />
<glyph unicode="&#xef;" horiz-adv-x="430" d="M94 18l125 887q0 9 6.5 15t14.5 6h112q8 0 12 -6t3 -15l-125 -887q-3 -18 -19 -18h-112q-23 0 -17 18zM102 1335q0 34 24 59t58 25t58 -25t24 -59q0 -35 -24 -59.5t-58 -24.5t-58 24.5t-24 59.5zM440 1335q0 34 24.5 59t59.5 25q32 0 56 -25t24 -59q0 -35 -23.5 -59.5 t-56.5 -24.5q-35 0 -59.5 24.5t-24.5 59.5z" />
<glyph unicode="&#xf0;" horiz-adv-x="1017" d="M84 408q3 178 119 297q62 62 144 95.5t169 33.5q122 0 238 -72q-58 181 -222 366l-192 -145q-16 -12 -27 2l-37 51q-11 15 7 29l180 135q-74 71 -150 119q-22 14 -4 27l72 69q15 15 33 2q93 -64 164 -129l174 129q17 12 26 0l37 -53q10 -16 -6 -29l-160 -118 q141 -154 221 -338t80 -377q0 -222 -106 -357q-64 -83 -156 -124t-196 -41q-172 0 -279 98q-132 119 -129 330zM225 424q-6 -153 84 -246q74 -74 189 -74q150 0 233 111q72 91 78 242q3 90 -12 176q-125 84 -265 84q-58 0 -117.5 -24.5t-103.5 -67.5q-80 -77 -86 -201z" />
<glyph unicode="&#xf1;" horiz-adv-x="1052" d="M90 18l125 887q0 8 7 14.5t16 6.5h98q14 0 14 -21l-22 -157h4q53 78 119 126q95 68 215 68q128 0 200 -78q80 -89 80 -254q0 -49 -12 -139l-62 -453q-4 -18 -20 -18h-111q-19 0 -16 18l61 453q11 79 11 123q0 111 -52 172q-47 53 -129 53q-115 0 -196 -84 q-93 -95 -115 -252l-65 -465q-4 -18 -23 -18h-108q-19 0 -19 18zM303 1290q12 84 65 135.5t134 51.5q74 0 151 -60q2 -2 12.5 -9t13 -9t11.5 -7.5t13 -7.5t12 -6.5t13.5 -6t13 -3.5t14.5 -3t14 -1q81 0 102 78q6 20 25 20h47q24 0 21 -20q-11 -85 -63 -136t-134 -51 q-66 0 -150 60q-26 19 -38 27t-35 17t-45 9q-83 0 -105 -80q-7 -20 -22 -20h-49q-12 0 -17.5 6.5t-3.5 15.5z" />
<glyph unicode="&#xf2;" horiz-adv-x="1058" d="M84 391q-3 224 115 371q68 86 164 133t206 47q168 0 285 -102q131 -112 137 -308q6 -223 -114 -374q-64 -83 -159.5 -129.5t-211.5 -46.5q-162 0 -277 92q-139 113 -145 317zM233 399q3 -136 91 -221q73 -76 186 -76q78 0 143.5 35.5t110.5 98.5q83 124 80 290 q-6 145 -86 222q-74 71 -191 71q-73 0 -138.5 -35.5t-111.5 -99.5q-87 -120 -84 -285zM475 1550q0 7 5.5 12t13.5 5h102q16 0 27 -21l145 -340q6 -12 6 -22q0 -6 -5 -10.5t-11 -4.5h-78q-18 0 -29 19l-170 346q-6 9 -6 16z" />
<glyph unicode="&#xf3;" horiz-adv-x="1058" d="M84 391q-3 224 115 371q68 86 164 133t206 47q168 0 285 -102q131 -112 137 -308q6 -223 -114 -374q-64 -83 -159.5 -129.5t-211.5 -46.5q-162 0 -277 92q-139 113 -145 317zM233 399q3 -136 91 -221q73 -76 186 -76q78 0 143.5 35.5t110.5 98.5q83 124 80 290 q-6 145 -86 222q-74 71 -191 71q-73 0 -138.5 -35.5t-111.5 -99.5q-87 -120 -84 -285zM453 1182q0 3 1.5 6.5t4.5 8.5t4 9l213 338q12 21 29 21h102q18 0 18 -17q0 -2 -8 -18l-242 -344q-8 -12 -13 -15.5t-15 -3.5h-78q-16 0 -16 15z" />
<glyph unicode="&#xf4;" horiz-adv-x="1060" d="M84 391q-3 224 115 371q68 86 164 133t206 47q168 0 285 -102q131 -112 137 -308q6 -223 -114 -374q-64 -83 -159.5 -129.5t-211.5 -46.5q-162 0 -277 92q-139 113 -145 317zM229 1181q2 6 9 13l366 354q21 17 33 17h53q6 0 10 -2t9 -8t6 -7l266 -354q9 -10 5.5 -18.5 t-15.5 -8.5h-86q-21 0 -35 17l-199 258l-270 -258q-20 -17 -39 -17h-100q-8 0 -11.5 4t-1.5 10zM233 399q3 -136 91 -221q73 -76 186 -76q78 0 143.5 35.5t110.5 98.5q83 124 80 290q-6 145 -86 222q-74 71 -191 71q-73 0 -138.5 -35.5t-111.5 -99.5q-87 -120 -84 -285z" />
<glyph unicode="&#xf5;" horiz-adv-x="1058" d="M84 391q-3 224 115 371q68 86 164 133t206 47q168 0 285 -102q131 -112 137 -308q6 -223 -114 -374q-64 -83 -159.5 -129.5t-211.5 -46.5q-162 0 -277 92q-139 113 -145 317zM233 399q3 -136 91 -221q73 -76 186 -76q78 0 143.5 35.5t110.5 98.5q83 124 80 290 q-6 145 -86 222q-74 71 -191 71q-73 0 -138.5 -35.5t-111.5 -99.5q-87 -120 -84 -285zM299 1290q12 84 65 135.5t134 51.5q74 0 151 -60q2 -2 12.5 -9t13 -9t11.5 -7.5t13 -7.5t12 -6.5t13.5 -6t13 -3.5t14.5 -3t14 -1q81 0 102 78q6 20 25 20h47q24 0 21 -20 q-11 -85 -63 -136t-134 -51q-66 0 -150 60q-26 19 -38 27t-35 17t-45 9q-83 0 -105 -80q-7 -20 -22 -20h-50q-24 0 -20 22z" />
<glyph unicode="&#xf6;" horiz-adv-x="1058" d="M84 391q-3 224 115 371q68 86 164 133t206 47q168 0 285 -102q131 -112 137 -308q6 -223 -114 -374q-64 -83 -159.5 -129.5t-211.5 -46.5q-162 0 -277 92q-139 113 -145 317zM233 399q3 -136 91 -221q73 -76 186 -76q78 0 143.5 35.5t110.5 98.5q83 124 80 290 q-6 145 -86 222q-74 71 -191 71q-73 0 -138.5 -35.5t-111.5 -99.5q-87 -120 -84 -285zM369 1335q0 34 24 59t58 25q33 0 57 -25t24 -59q0 -35 -23.5 -59.5t-57.5 -24.5t-58 24.5t-24 59.5zM707 1335q0 34 24.5 59t59.5 25q32 0 55.5 -25t23.5 -59q0 -35 -23.5 -59.5 t-55.5 -24.5q-35 0 -59.5 24.5t-24.5 59.5z" />
<glyph unicode="&#xf7;" horiz-adv-x="1191" d="M80 672v102q0 8 5.5 13.5t12.5 5.5h994q8 0 14 -6t6 -13v-102q0 -9 -6 -15t-14 -6h-994q-8 0 -13 6t-5 15zM500 1163q0 38 28 65t68 27q38 0 65 -27t27 -65q0 -40 -27 -67t-65 -27q-40 0 -68 27t-28 67zM502 281q0 41 27 68.5t67 27.5t67 -27.5t27 -68.5q0 -39 -27 -66 t-67 -27t-67 27t-27 66z" />
<glyph unicode="&#xf8;" horiz-adv-x="1064" d="M88 391q-3 224 115 371q68 86 164 133t206 47q161 0 277 -96l61 65q12 15 25 15h47q12 0 15 -7.5t-7 -19.5l-92 -102q90 -107 96 -265q6 -223 -114 -374q-64 -83 -159.5 -129.5t-211.5 -46.5q-155 0 -270 86l-50 -56q-12 -12 -28 -12h-45q-12 0 -15 7.5t7 19.5l79 88 q-97 115 -100 276zM238 399q0 -100 51 -174l473 523q-74 71 -191 71q-73 0 -138 -35.5t-111 -99.5q-87 -120 -84 -285zM334 170q74 -68 180 -68q78 0 143.5 35.5t110.5 98.5q83 124 80 290q-6 99 -43 166z" />
<glyph unicode="&#xf9;" horiz-adv-x="1046" d="M121 287q0 53 12 135l68 483q3 21 20 21h113q8 0 12.5 -6t3.5 -15l-67 -479q-13 -84 -13 -123q0 -90 43 -139q53 -62 168 -62q138 0 213 84q63 76 78 197l74 522q0 9 6 15t14 6h113q6 0 10.5 -6t3.5 -15l-75 -530q-21 -180 -125 -281q-112 -112 -322 -112q-185 0 -272 84 q-78 78 -78 221zM461 1550q0 17 18 17h103q16 0 26 -21l146 -340q6 -12 6 -22q0 -6 -5.5 -10.5t-11.5 -4.5h-77q-18 0 -29 19l-170 346q-6 9 -6 16z" />
<glyph unicode="&#xfa;" horiz-adv-x="1046" d="M121 287q0 53 12 135l68 483q3 21 20 21h113q8 0 12.5 -6t3.5 -15l-67 -479q-13 -84 -13 -123q0 -90 43 -139q53 -62 168 -62q138 0 213 84q63 76 78 197l74 522q0 9 6 15t14 6h113q6 0 10.5 -6t3.5 -15l-75 -530q-21 -180 -125 -281q-112 -112 -322 -112q-185 0 -272 84 q-78 78 -78 221zM471 1182q0 3 1.5 6.5t4.5 8.5t4 9l213 338q12 21 29 21h102q8 0 13.5 -5t5.5 -12q0 -2 -8 -18l-242 -344q-14 -19 -29 -19h-78q-16 0 -16 15z" />
<glyph unicode="&#xfb;" horiz-adv-x="1046" d="M121 287q0 53 12 135l68 483q3 21 20 21h113q8 0 12.5 -6t3.5 -15l-67 -479q-13 -84 -13 -123q0 -90 43 -139q53 -62 168 -62q138 0 213 84q63 76 78 197l74 522q0 9 6 15t14 6h113q6 0 10.5 -6t3.5 -15l-75 -530q-21 -180 -125 -281q-112 -112 -322 -112q-185 0 -272 84 q-78 78 -78 221zM249 1181q2 6 9 13l367 354q21 17 32 17h54q6 0 10 -2t8 -7.5t6 -7.5l266 -354q9 -10 5.5 -18.5t-15.5 -8.5h-86q-21 0 -35 17l-198 258l-271 -258q-20 -17 -39 -17h-100q-8 0 -11.5 4t-1.5 10z" />
<glyph unicode="&#xfc;" horiz-adv-x="1046" d="M121 287q0 53 12 135l68 483q3 21 20 21h113q8 0 12.5 -6t3.5 -15l-67 -479q-13 -84 -13 -123q0 -90 43 -139q53 -62 168 -62q138 0 213 84q63 76 78 197l74 522q0 9 6 15t14 6h113q6 0 10.5 -6t3.5 -15l-75 -530q-21 -180 -125 -281q-112 -112 -322 -112q-185 0 -272 84 q-78 78 -78 221zM383 1335q0 34 24 59t58 25t58 -25t24 -59q0 -35 -24 -59.5t-58 -24.5t-58 24.5t-24 59.5zM721 1335q0 34 24.5 59t59.5 25q32 0 56 -25t24 -59q0 -35 -23.5 -59.5t-56.5 -24.5q-35 0 -59.5 24.5t-24.5 59.5z" />
<glyph unicode="&#xfd;" horiz-adv-x="964" d="M-39 -459l14 111q3 14 21 14h37q109 0 200 94q70 67 138 185l-279 954q-2 6 -1.5 12t5.5 10.5t13 4.5h127q20 0 26 -23l207 -774l389 774q10 23 33 23h117q12 0 14 -10.5t-4 -16.5l-492 -948q-107 -202 -215 -305q-145 -130 -338 -121q-15 0 -12 16zM432 1182 q0 3 1.5 6.5t4.5 8.5t4 9l213 338q12 21 29 21h102q8 0 13.5 -5t5.5 -12q0 -2 -8 -18l-242 -344q-14 -19 -29 -19h-77q-17 0 -17 15z" />
<glyph unicode="&#xfe;" horiz-adv-x="1015" d="M23 -457l256 1833q3 19 22 19h107q14 0 14 -19l-74 -516q115 82 250 82q156 0 250 -102q102 -108 102 -291q0 -257 -159 -410q-78 -75 -189.5 -114t-239.5 -39q-56 0 -126 12l-64 -457q-4 -18 -20 -18h-113q-16 0 -16 20zM252 119q54 -10 127 -10q194 0 307 116 q111 111 111 314q0 127 -64 200q-63 76 -174 76q-123 0 -223 -96h-2z" />
<glyph unicode="&#xff;" horiz-adv-x="964" d="M-39 -459l14 111q3 14 21 14h37q109 0 200 94q70 67 138 185l-279 954q-2 6 -1.5 12t5.5 10.5t13 4.5h127q20 0 26 -23l207 -774l389 774q10 23 33 23h117q12 0 14 -10.5t-4 -16.5l-492 -948q-107 -202 -215 -305q-145 -130 -338 -121q-15 0 -12 16zM334 1335q0 34 24 59 t58 25t58 -25t24 -59q0 -35 -24 -59.5t-58 -24.5t-58 24.5t-24 59.5zM672 1335q0 34 24.5 59t59.5 25q32 0 56 -25t24 -59q0 -35 -23.5 -59.5t-56.5 -24.5q-35 0 -59.5 24.5t-24.5 59.5z" />
<glyph unicode="&#x152;" horiz-adv-x="2215" d="M104 575q-7 159 33 300t119 251q96 136 235 212.5t297 76.5q263 0 439 -176q33 -35 71 -90l31 227q2 6 9 12.5t14 6.5h831q6 0 11 -6t4 -13l-17 -108q-3 -19 -20 -19h-684l-68 -479h604q7 0 12 -5t3 -11l-17 -109q-3 -18 -20 -18h-600l-70 -482h790q6 0 11 -5.5t4 -12.5 l-15 -109q-3 -18 -20 -18h-936q-7 0 -11.5 5t-2.5 13l18 138q-183 -174 -446 -174q-123 0 -234 41t-194 122q-170 166 -181 430zM268 586q8 -206 129 -330q127 -127 316 -127q130 0 239.5 63.5t182.5 178.5q117 186 102 436q-9 192 -119 315q-62 68 -146.5 105t-180.5 37 q-119 0 -229 -64.5t-185 -179.5q-123 -188 -109 -434z" />
<glyph unicode="&#x153;" horiz-adv-x="1679" d="M84 391q-3 224 115 371q68 86 164 133t206 47q168 0 285 -102q47 -40 90 -113q20 28 37 45q71 80 168.5 125t210.5 45q136 0 217 -68q76 -64 76 -167q0 -196 -223 -295q-172 -74 -441 -70q14 -106 84 -174q73 -70 203 -70q139 0 237 62q18 12 25 -4l33 -72q6 -16 -6 -25 q-123 -77 -318 -77q-171 0 -284 98q-51 48 -74 92q-2 -2 -6 -7t-6 -7q-64 -83 -159.5 -129.5t-211.5 -46.5q-162 0 -277 92q-139 113 -145 317zM233 399q3 -136 91 -221q73 -76 186 -76q78 0 143.5 35.5t110.5 98.5q83 124 80 290q-3 142 -86 222q-74 71 -191 71 q-73 0 -138.5 -35.5t-111.5 -99.5q-87 -120 -84 -285zM987 436q219 -12 359 45q176 71 176 211q0 53 -37 90q-42 45 -131 45q-75 0 -143.5 -32t-118.5 -93q-85 -101 -103 -231z" />
<glyph unicode="&#x178;" horiz-adv-x="1167" d="M130 1384.5q4 10.5 20 10.5h135q19 0 28 -21l320 -608l475 608q18 21 35 21h143q15 0 17 -10.5t-9 -20.5l-596 -752l-82 -594q-7 -18 -22 -18h-127q-8 0 -12.5 5.5t-1.5 12.5l82 594l-402 752q-7 10 -3 20.5zM487 1749q0 34 24 59t58 25t58 -25t24 -59q0 -35 -24 -59.5 t-58 -24.5t-58 24.5t-24 59.5zM825 1749q0 34 24.5 59t59.5 25q32 0 56 -25t24 -59q0 -35 -23.5 -59.5t-56.5 -24.5q-35 0 -59.5 24.5t-24.5 59.5z" />
<glyph unicode="&#x2c6;" horiz-adv-x="854" d="M186 1181q2 6 9 13l366 354q21 17 33 17h53q6 0 10 -2t9 -8t6 -7l266 -354q9 -10 5.5 -18.5t-15.5 -8.5h-86q-21 0 -35 17l-199 258l-270 -258q-20 -17 -39 -17h-100q-8 0 -11.5 4t-1.5 10z" />
<glyph unicode="&#x2dc;" horiz-adv-x="854" d="M264 1290q12 84 65 135.5t134 51.5q74 0 151 -60q2 -2 12.5 -9t13 -9t11.5 -7.5t13 -7.5t12 -6.5t13.5 -6t13 -3.5t14.5 -3t14 -1q82 0 103 78q6 20 24 20h47q24 0 21 -20q-11 -85 -63 -136t-134 -51q-65 0 -149 60q-25 18 -38 26.5t-36 17.5t-45 9q-83 0 -105 -80 q-7 -20 -22 -20h-49q-12 0 -17.5 6.5t-3.5 15.5z" />
<glyph unicode="&#x2000;" horiz-adv-x="1001" />
<glyph unicode="&#x2001;" horiz-adv-x="2003" />
<glyph unicode="&#x2002;" horiz-adv-x="1001" />
<glyph unicode="&#x2003;" horiz-adv-x="2003" />
<glyph unicode="&#x2004;" horiz-adv-x="667" />
<glyph unicode="&#x2005;" horiz-adv-x="500" />
<glyph unicode="&#x2006;" horiz-adv-x="333" />
<glyph unicode="&#x2007;" horiz-adv-x="333" />
<glyph unicode="&#x2008;" horiz-adv-x="250" />
<glyph unicode="&#x2009;" horiz-adv-x="400" />
<glyph unicode="&#x200a;" horiz-adv-x="111" />
<glyph unicode="&#x2010;" horiz-adv-x="985" d="M188 543l15 102q0 8 6.5 13.5t15.5 5.5h619q8 0 12.5 -6t3.5 -13l-14 -102q0 -9 -6.5 -15t-14.5 -6h-620q-8 0 -13 6t-4 15z" />
<glyph unicode="&#x2011;" horiz-adv-x="985" d="M188 543l15 102q0 8 6.5 13.5t15.5 5.5h619q8 0 12.5 -6t3.5 -13l-14 -102q0 -9 -6.5 -15t-14.5 -6h-620q-8 0 -13 6t-4 15z" />
<glyph unicode="&#x2012;" horiz-adv-x="985" d="M188 543l15 102q0 8 6.5 13.5t15.5 5.5h619q8 0 12.5 -6t3.5 -13l-14 -102q0 -9 -6.5 -15t-14.5 -6h-620q-8 0 -13 6t-4 15z" />
<glyph unicode="&#x2013;" horiz-adv-x="1083" d="M117 481l10 72q4 18 20 18h953q20 0 16 -18l-10 -72q-3 -18 -21 -18h-952q-19 0 -16 18z" />
<glyph unicode="&#x2014;" horiz-adv-x="2043" d="M117 481l10 72q4 18 20 18h1909q21 0 17 -18l-11 -72q-3 -18 -20 -18h-1909q-19 0 -16 18z" />
<glyph unicode="&#x2018;" horiz-adv-x="432" d="M213 1184q0 83 55 146t129 83q19 5 29 -8l14 -29q8 -16 -8 -26q-72 -37 -72 -80q0 -17 9.5 -31t21.5 -22t21.5 -27t9.5 -45q0 -39 -27 -63.5t-71 -24.5q-50 0 -80.5 34.5t-30.5 92.5z" />
<glyph unicode="&#x2019;" horiz-adv-x="425" d="M199 1096q-8 16 8 26q72 37 72 80q0 17 -9.5 31t-21.5 22t-21.5 26t-9.5 44q0 40 27 65t71 25q50 0 80.5 -34.5t30.5 -92.5q0 -83 -55 -146t-129 -83q-21 -5 -29 8z" />
<glyph unicode="&#x201a;" horiz-adv-x="561" d="M131 -152q-8 16 10 27q72 37 72 80q0 17 -9.5 31t-21 22t-21 27t-9.5 45q0 40 26.5 64t69.5 24q51 0 80.5 -34t29.5 -93q0 -82 -54.5 -145.5t-127.5 -81.5q-22 -7 -31 8z" />
<glyph unicode="&#x201c;" horiz-adv-x="747" d="M315 1184q0 83 55.5 146t129.5 83q20 5 28 -8l15 -29q8 -16 -8 -26q-72 -37 -72 -80q0 -17 9.5 -31t21 -22t21 -26t9.5 -44q0 -40 -27 -65t-71 -25q-50 0 -80.5 34.5t-30.5 92.5zM631 1184q0 83 55 146t129 83q21 5 29 -8l14 -29q8 -16 -8 -26q-72 -37 -72 -80 q0 -17 9.5 -31t21.5 -22t21.5 -26t9.5 -44q0 -40 -27.5 -65t-71.5 -25q-50 0 -80 34.5t-30 92.5z" />
<glyph unicode="&#x201d;" horiz-adv-x="741" d="M199 1096q-8 16 8 26q72 37 72 80q0 17 -9.5 31t-21.5 22t-21.5 26t-9.5 44q0 40 27 65t71 25q50 0 80.5 -34.5t30.5 -92.5q0 -83 -55 -146t-129 -83q-21 -5 -29 8zM514 1096q-8 16 8 26q72 37 72 80q0 17 -9.5 31t-21.5 22t-21.5 26t-9.5 44q0 40 27.5 65t71.5 25 q50 0 80 -34.5t30 -92.5q0 -83 -55 -146t-129 -83q-21 -5 -29 8z" />
<glyph unicode="&#x201e;" horiz-adv-x="942" d="M131 -152q-8 16 10 27q72 37 72 80q0 17 -9.5 31t-21 22t-21 27t-9.5 45q0 40 26.5 64t69.5 24q51 0 80.5 -34t29.5 -93q0 -82 -54.5 -145.5t-127.5 -81.5q-22 -7 -31 8zM446 -152q-9 17 11 27q71 39 71 80q0 17 -9.5 31t-21 22t-21 27t-9.5 45q0 40 26 64t70 24 q50 0 80.5 -34.5t30.5 -92.5q0 -82 -54.5 -145.5t-127.5 -81.5q-22 -7 -31 8z" />
<glyph unicode="&#x2022;" horiz-adv-x="1044" d="M109 698q0 170 121.5 292t291.5 122t292 -122t122 -292t-122 -291.5t-292 -121.5t-291.5 121.5t-121.5 291.5z" />
<glyph unicode="&#x2026;" horiz-adv-x="1513" d="M111 74q0 40 27 68t65 28q40 0 67 -28t27 -68q0 -38 -27 -65t-67 -27q-38 0 -65 27t-27 65zM633 74q0 40 28 68t66 28t66 -28t28 -68q0 -38 -28 -65t-66 -27t-66 27t-28 65zM1157 74q0 40 27 68t67 28q39 0 67 -28t28 -68q0 -38 -28 -65t-67 -27q-40 0 -67 27t-27 65z " />
<glyph unicode="&#x202f;" horiz-adv-x="400" />
<glyph unicode="&#x2039;" horiz-adv-x="712" d="M66 473q4 13 20 29l451 424q20 20 43 20h110q17 0 19 -12t-11 -25l-460 -436l337 -438q9 -13 4 -24t-22 -11h-111q-21 0 -36 18l-332 424q-12 20 -12 31z" />
<glyph unicode="&#x203a;" horiz-adv-x="690" d="M12 11q-2 11 11 24l460 438l-336 436q-11 13 -6 25t25 12h108q24 0 37 -20l334 -424q10 -17 10 -29q-2 -13 -20 -31l-451 -424q-21 -18 -43 -18h-108q-19 0 -21 11z" />
<glyph unicode="&#x205f;" horiz-adv-x="500" />
<glyph unicode="&#x20ac;" horiz-adv-x="1153" d="M2 524l8 49q4 21 21 21h104v51q0 73 12 141h-86q-9 0 -14 6t-4 15l8 49q3 21 23 21h96q75 240 286.5 388t479.5 148q222 0 371 -76q21 -9 8 -28l-58 -103q-8 -16 -28 -6q-129 66 -307 66q-192 0 -350 -107.5t-226 -281.5h752q8 0 13.5 -6t4.5 -15l-8 -49q-4 -21 -23 -21 h-768q-14 -78 -12 -133q0 -41 2 -59h647q20 0 17 -21l-6 -49q-3 -20 -25 -20h-621q41 -184 177.5 -280.5t320.5 -96.5q182 0 318 68q20 11 26 -7l41 -102q6 -18 -12 -27q-157 -79 -385 -79q-95 0 -182 18.5t-167 60t-142.5 101.5t-107 148t-61.5 196h-127q-8 0 -12.5 5.5 t-3.5 14.5z" />
<glyph unicode="&#x2122;" horiz-adv-x="1591" d="M55 1393v47q0 8 6 14t13 6h559q9 0 14.5 -6t5.5 -14v-47q0 -21 -20 -21h-230v-627q0 -7 -6 -12.5t-14 -5.5h-57q-8 0 -14.5 5.5t-6.5 12.5v627h-231q-8 0 -13.5 6t-5.5 15zM737 739v701q0 8 6 14t13 6h53q24 0 35 -20l258 -434l258 434q13 20 37 20h53q7 0 12.5 -6 t5.5 -14v-701q0 -7 -5 -12.5t-13 -5.5h-57q-8 0 -13.5 5.5t-5.5 12.5v549l-231 -385q-11 -20 -29 -20h-24q-18 0 -29 20l-230 385v-549q0 -7 -6 -12.5t-14 -5.5h-55q-8 0 -13.5 5.5t-5.5 12.5z" />
<glyph unicode="&#x25fc;" horiz-adv-x="921" d="M0 0v922h922v-922h-922z" />
</font>
</defs>
</svg>
